<?xml version="1.0" encoding="UTF-8" standalone="no"?>
<svg
   xmlns:dc="http://purl.org/dc/elements/1.1/"
   xmlns:cc="http://creativecommons.org/ns#"
   xmlns:rdf="http://www.w3.org/1999/02/22-rdf-syntax-ns#"
   xmlns:svg="http://www.w3.org/2000/svg"
   xmlns="http://www.w3.org/2000/svg"
   xmlns:xlink="http://www.w3.org/1999/xlink"
   xmlns:sodipodi="http://sodipodi.sourceforge.net/DTD/sodipodi-0.dtd"
   xmlns:inkscape="http://www.inkscape.org/namespaces/inkscape"
   version="1.1"
   height="80"
   width="80"
   id="svg3058"
   inkscape:version="0.48.0 r9654"
   sodipodi:docname="mymoves_gen.svg"
   inkscape:export-filename="/home/topi/scratchbox/mymoves/mymoves_48x48.png"
   inkscape:export-xdpi="54"
   inkscape:export-ydpi="54">
  <metadata
     id="metadata3091" />
  <sodipodi:namedview
     pagecolor="#ffffff"
     bordercolor="#666666"
     borderopacity="1"
     objecttolerance="10"
     gridtolerance="10"
     guidetolerance="10"
     inkscape:pageopacity="0"
     inkscape:pageshadow="2"
     inkscape:window-width="1234"
     inkscape:window-height="775"
     id="namedview3089"
     showgrid="false"
     inkscape:zoom="3.7125"
     inkscape:cx="34.24351"
     inkscape:cy="45.69714"
     inkscape:window-x="117"
     inkscape:window-y="50"
     inkscape:window-maximized="0"
     inkscape:current-layer="layer1" />
  <defs
     id="defs3060">
    <linearGradient
       id="linearGradient5697">
      <stop
         style="stop-color:#ffffff;stop-opacity:1;"
         offset="0"
         id="stop5699" />
      <stop
         style="stop-color:#ffffff;stop-opacity:0.29770991;"
         offset="1"
         id="stop5701" />
    </linearGradient>
    <linearGradient
       id="linearGradient5323">
      <stop
         style="stop-color:#000080;stop-opacity:0.85496181;"
         offset="0"
         id="stop5325" />
      <stop
         id="stop5345"
         offset="0.5"
         style="stop-color:#000080;stop-opacity:0.87022901;" />
      <stop
         style="stop-color:#000080;stop-opacity:0.40458015;"
         offset="1"
         id="stop5327" />
    </linearGradient>
    <linearGradient
       id="hicg_overlay_grad"
       gradientUnits="userSpaceOnUse"
       x1="39.9995"
       y1="5.1816"
       x2="39.9995"
       y2="58.8019">
      <stop
         offset="0"
         style="stop-color:#FFFFFF"
         id="stop3063" />
      <stop
         offset="1"
         style="stop-color:#000000"
         id="stop3065" />
    </linearGradient>
    <filter
       id="hicg_drop_shadow">
      <feOffset
         in="SourceAlpha"
         dx="0"
         dy="4"
         id="feOffset3068" />
      <feGaussianBlur
         stdDeviation="4"
         id="feGaussianBlur3070" />
      <feColorMatrix
         type="matrix"
         values="1 0 0 0 0  0 1 0 0 0  0 0 1 0 0  0 0 0 0.5 0"
         result="shadow"
         id="feColorMatrix3072" />
      <feBlend
         in="SourceGraphic"
         in2="shadow"
         mode="normal"
         id="feBlend3074" />
    </filter>
    <linearGradient
       inkscape:collect="always"
       xlink:href="#linearGradient5323"
       id="linearGradient5337"
       x1="1"
       y1="40"
       x2="79"
       y2="40"
       gradientUnits="userSpaceOnUse" />
    <linearGradient
       inkscape:collect="always"
       xlink:href="#linearGradient5323"
       id="linearGradient5339"
       gradientUnits="userSpaceOnUse"
       x1="1"
       y1="40"
       x2="79"
       y2="40" />
    <linearGradient
       inkscape:collect="always"
       xlink:href="#linearGradient5323"
       id="linearGradient5341"
       gradientUnits="userSpaceOnUse"
       x1="1"
       y1="40"
       x2="79"
       y2="40" />
    <linearGradient
       inkscape:collect="always"
       xlink:href="#linearGradient5323"
       id="linearGradient5343"
       gradientUnits="userSpaceOnUse"
       x1="1"
       y1="40"
       x2="79"
       y2="40" />
    <radialGradient
       inkscape:collect="always"
       xlink:href="#linearGradient5697"
       id="radialGradient5705"
       cx="43.424164"
       cy="41.830784"
       fx="43.424164"
       fy="41.830784"
       r="26.065081"
       gradientTransform="matrix(1,0,0,0.87553464,0,5.2064836)"
       gradientUnits="userSpaceOnUse" />
  </defs>
  <g
     id="g3076"
     style="fill:url(#linearGradient5337);fill-opacity:1.0"
     transform="matrix(0,1,-1,0,80,0)">
    <path
       id="hicg_background"
       d="M 79,40 C 79,68.893 68.895,79 40,79 11.105,79 1,68.893 1,40 1,11.106 11.105,1 40,1 68.895,1 79,11.106 79,40 z"
       style="fill:url(#linearGradient5339);fill-opacity:1.0"
       inkscape:connector-curvature="0" />
    <path
       id="hicg_highlight"
       d="M 39.999,1 C 11.105,1 1,11.106 1,40 1,68.893 11.105,79 39.999,79 68.896,79 79,68.893 79,40 79,11.106 68.896,1 39.999,1 z m 0,77.025 C 11.57,78.025 1.976,68.43 1.976,40 c 0,-28.429 9.595,-38.024 38.023,-38.024 28.43,0 38.024,9.596 38.024,38.024 0,28.43 -9.594,38.025 -38.024,38.025 z"
       style="opacity:0.25000000000000000;fill:url(#linearGradient5341);fill-opacity:1.0"
       inkscape:connector-curvature="0" />
    <path
       id="hicg_overlay"
       d="M 78.977,40 C 78.977,68.893 68.877,79 40,79 11.123,79 1.023,68.893 1.023,40 1.023,11.106 11.123,1 40,1 68.877,1 78.977,11.106 78.977,40 z"
       style="opacity:0.40000000000000002;fill:url(#linearGradient5343);fill-opacity:1.0"
       inkscape:connector-curvature="0" />
  </g>
  <g
     transform="matrix(0.84375,0,0,0.84375,78.723906,27.814815)"
     id="g3081"
     style="filter:url(#hicg_drop_shadow)">
    <defs
       id="defs2987" />
    <sodipodi:namedview
       id="base"
       pagecolor="#ffffff"
       bordercolor="#666666"
       borderopacity="1.0"
       inkscape:pageopacity="0.0"
       inkscape:pageshadow="2"
       inkscape:zoom="5.5"
       inkscape:cx="-1.8181818"
       inkscape:cy="32"
       inkscape:current-layer="layer1"
       showgrid="true"
       inkscape:document-units="px"
       inkscape:grid-bbox="true"
       inkscape:window-width="1364"
       inkscape:window-height="791"
       inkscape:window-x="180"
       inkscape:window-y="134"
       inkscape:window-maximized="0" />
    <metadata
       id="metadata2990">
      <rdf:RDF>
        <cc:Work
           rdf:about="">
          <dc:format>image/svg+xml</dc:format>
          <dc:type
             rdf:resource="http://purl.org/dc/dcmitype/StillImage" />
          <dc:title></dc:title>
        </cc:Work>
      </rdf:RDF>
    </metadata>
    <g
       id="layer1"
       inkscape:label="Layer 1"
       inkscape:groupmode="layer">
      <path
         style="fill:#ffffff;fill-opacity:1;stroke:url(#radialGradient5705);stroke-width:1;stroke-linecap:round;stroke-linejoin:round;stroke-miterlimit:4;stroke-opacity:1;stroke-dasharray:none;stroke-dashoffset:0;marker-start:none"
         id="path5451"
         d="M 19.181056,64.151665 C 18.502177,62.46353 18.518933,60.599705 18.384674,58.812717 18.012126,52.885036 17.936959,46.94314 17.874843,41.005612 c -0.02353,-5.392667 -0.07417,-10.807232 0.321801,-16.189685 0.483766,-3.628946 1.203212,-3.130806 5.84546,-5.30185 0.11843,-0.05539 1.14844,0.458332 1.201742,0.483386 1.733058,0.902762 3.260283,2.135814 4.802276,3.323795 1.42724,1.170662 2.282415,2.570576 2.774862,4.32969 0.523184,2.322421 0.845949,4.677716 1.485292,6.972709 0.484961,1.325902 0.820854,3.207903 2.221291,3.905199 0.088,-0.01214 0.186749,0.0074 0.263999,-0.03643 0.09433,-0.05356 0.316923,-0.289454 0.220948,-0.238908 -1.485872,0.782545 -2.90054,1.69898 -4.40606,2.443025 -0.210506,0.104035 0.337989,-0.327252 0.48892,-0.507128 0.445788,-0.531281 0.856458,-1.18519 1.237222,-1.753768 1.370072,-2.461286 2.397969,-5.092318 3.605106,-7.635935 0.504278,-0.95212 1.066574,-1.887751 1.834854,-2.654393 1.549658,-1.546352 6.117455,-3.598161 6.741755,-3.936426 0.278161,-0.01099 0.55689,-0.05386 0.834482,-0.03297 1.135337,0.08546 2.243625,0.577538 3.273978,1.014342 1.186454,0.502981 2.181703,0.971163 3.361347,1.512418 3.124748,1.558781 6.227344,3.305699 8.904495,5.572699 0.485599,0.411203 0.930654,0.86802 1.395981,1.30203 2.260003,2.245905 3.626192,5.043711 4.388,8.099767 0.468292,1.801842 0.388023,3.570156 -0.04964,5.356645 -0.170339,0.683936 -0.48923,1.294864 -0.892467,1.865285 0,0 -5.132345,2.155962 -5.132345,2.155962 l 0,0 c 0.513684,-0.436364 0.839829,-1.031283 1.071773,-1.663109 0.527556,-1.719507 0.75056,-3.418936 0.339424,-5.204205 -0.657719,-3.118076 -1.788237,-5.624744 -4.047217,-7.945885 -0.443744,-0.428506 -0.866246,-0.880162 -1.331233,-1.285517 -2.61912,-2.283228 -5.722546,-3.974345 -8.840349,-5.461619 -1.73096,-0.708784 -4.895423,-2.190171 -6.808725,-2.070498 -0.257122,0.01608 -0.505888,0.09777 -0.758832,0.146652 1.320885,-0.794324 2.652101,-1.571717 3.962654,-2.382974 0.227333,-0.140723 -0.483291,0.231013 -0.711437,0.370412 -0.255389,0.156045 -0.506342,0.322316 -0.736135,0.514067 -0.834762,0.696568 -1.436915,1.602835 -1.971454,2.537396 -1.271001,2.525851 -2.404265,5.108845 -3.571457,7.683029 -1.991439,3.386161 -1.560467,2.605542 -6.594597,5.410279 -0.232234,0.129387 -0.588042,-0.08757 -0.77416,-0.170979 -1.29529,-1.105121 -1.677267,-2.820923 -2.137714,-4.392172 -0.658953,-2.271487 -1.041514,-4.603067 -1.631313,-6.893001 -0.462778,-1.597024 -1.25655,-2.988593 -2.55335,-4.065894 C 24.002592,24.987226 22.464926,23.802999 20.679208,23.061624 20.486415,23.003036 20.3,22.9164 20.10083,22.885861 c -0.153003,-0.02346 -0.591695,0.103557 -0.4641,0.01592 1.387507,-0.952964 2.865837,-1.766419 4.298756,-2.649629 -0.145288,0.12158 -0.326416,0.210107 -0.435865,0.36474 -0.35167,0.496852 -0.534034,1.386257 -0.683592,1.915614 -0.914755,5.40902 -0.946688,10.940063 -0.911172,16.411216 0.134247,5.831913 0.235388,11.687264 1.050151,17.472824 0.261424,1.628074 0.328197,3.388767 1.108027,4.874424 0,0 -4.881979,2.860692 -4.881979,2.860692 z"
         inkscape:connector-curvature="0"
         transform="matrix(1.1851852,0,0,1.1851852,-93.302407,-32.965707)" />
    </g>
  </g>
</svg>
