<?xml version="1.0" encoding="UTF-8" standalone="no"?>
<!-- Created with Inkscape (http://www.inkscape.org/) -->

<svg
   xmlns:dc="http://purl.org/dc/elements/1.1/"
   xmlns:cc="http://creativecommons.org/ns#"
   xmlns:rdf="http://www.w3.org/1999/02/22-rdf-syntax-ns#"
   xmlns:svg="http://www.w3.org/2000/svg"
   xmlns="http://www.w3.org/2000/svg"
   xmlns:sodipodi="http://sodipodi.sourceforge.net/DTD/sodipodi-0.dtd"
   xmlns:inkscape="http://www.inkscape.org/namespaces/inkscape"
   width="200"
   height="200"
   id="svg2"
   version="1.1"
   inkscape:version="0.48.0 r9654"
   sodipodi:docname="d10.svg">
  <defs
     id="defs4" />
  <sodipodi:namedview
     id="base"
     pagecolor="#ffffff"
     bordercolor="#666666"
     borderopacity="1.0"
     inkscape:pageopacity="0.0"
     inkscape:pageshadow="2"
     inkscape:zoom="1.4"
     inkscape:cx="59.254678"
     inkscape:cy="101.41252"
     inkscape:document-units="px"
     inkscape:current-layer="layer1"
     showgrid="false"
     inkscape:window-width="995"
     inkscape:window-height="738"
     inkscape:window-x="124"
     inkscape:window-y="100"
     inkscape:window-maximized="0" />
  <metadata
     id="metadata7">
    <rdf:RDF>
      <cc:Work
         rdf:about="">
        <dc:format>image/svg+xml</dc:format>
        <dc:type
           rdf:resource="http://purl.org/dc/dcmitype/StillImage" />
        <dc:title />
      </cc:Work>
    </rdf:RDF>
  </metadata>
  <g
     inkscape:label="Layer 1"
     inkscape:groupmode="layer"
     id="layer1"
     transform="translate(0,-852.36218)">
    <flowRoot
       xml:space="preserve"
       id="flowRoot2997"
       style="fill:#ffffff;stroke:#ffffff;stroke-opacity:1;stroke-width:1px;stroke-linejoin:miter;stroke-linecap:butt;fill-opacity:1;font-family:Sans;font-style:normal;font-weight:normal;font-size:20px;line-height:50%;letter-spacing:0px;word-spacing:0px"><flowRegion
         id="flowRegion2999"><rect
           id="rect3001"
           width="91.923882"
           height="90.408653"
           x="98.994949"
           y="95.954292"
           style="fill:#ffffff;stroke:#ffffff" /></flowRegion><flowPara
         id="flowPara3003" /></flowRoot>    <flowRoot
       xml:space="preserve"
       id="flowRoot3005"
       style="fill:#ffffff;stroke:#ffffff;stroke-opacity:1;stroke-width:1px;stroke-linejoin:miter;stroke-linecap:butt;fill-opacity:1;font-family:Sans;font-style:normal;font-weight:normal;font-size:20px;line-height:50%;letter-spacing:0px;word-spacing:0px"><flowRegion
         id="flowRegion3007"><rect
           id="rect3009"
           width="114.65231"
           height="87.378197"
           x="77.276672"
           y="103.02536"
           style="fill:#ffffff;stroke:#ffffff" /></flowRegion><flowPara
         id="flowPara3011" /></flowRoot>    <rect
       style="fill:#000000;fill-opacity:1;stroke:#000000;stroke-width:1;stroke-linecap:round;stroke-linejoin:round;stroke-miterlimit:4;stroke-opacity:1;stroke-dasharray:none;stroke-dashoffset:0"
       id="rect3002"
       width="199.12645"
       height="199.18976"
       x="0.56820697"
       y="0.4948993"
       transform="translate(0,852.36218)" />
    <flowRoot
       xml:space="preserve"
       id="flowRoot3013"
       style="font-size:20px;font-style:normal;font-weight:normal;line-height:50%;letter-spacing:0px;word-spacing:0px;fill:#ffffff;fill-opacity:1;stroke:#ffffff;font-family:Sans"
       transform="translate(-74.710102,937.94125)"><flowRegion
         id="flowRegion3015"><rect
           id="rect3017"
           width="110.6117"
           height="102.53048"
           x="236.88077"
           y="87.87307"
           style="fill:#ffffff;stroke:#ffffff" /></flowRegion><flowPara
         id="flowPara3019"
         style="font-size:56px;font-weight:bold;fill:#ffffff;stroke:#ffffff;-inkscape-font-specification:Sans Bold">2</flowPara></flowRoot>    <path
       style="fill:#ffffff;fill-opacity:1;stroke:#ffffff;stroke-width:1;stroke-linecap:round;stroke-linejoin:round;stroke-miterlimit:4;stroke-opacity:1;stroke-dasharray:none;stroke-dashoffset:0"
       id="path3211"
       d="m 151.31513,35.692694 c -0.85944,-1.201049 -1.9183,-2.227727 -2.7913,-3.419563 -0.88736,-1.169177 -2.09013,-2.008886 -3.10957,-3.052881 -1.11317,-1.308546 -2.39381,-2.429253 -3.69779,-3.538806 -1.30139,-1.042517 -2.77137,-1.819544 -4.21579,-2.63613 -1.41271,-0.641357 -2.84223,-1.252553 -4.27566,-1.848888 -1.41699,-0.502301 -2.75738,-1.188671 -4.18769,-1.661571 -1.58824,-0.40893 -3.22787,-0.524595 -4.8458,-0.779756 -1.69423,-0.27633 -3.4066,-0.391198 -5.12024,-0.44924 -1.51611,0.09575 -2.97843,-0.170386 -4.46699,-0.395875 -1.59264,-0.227352 -3.20101,-0.292181 -4.80733,-0.329376 -1.59645,-0.02534 -3.19312,-0.02559 -4.78973,-0.02271 -1.61238,0.0671 -3.19096,0.0033 -4.78371,-0.236427 -1.572676,-0.259318 -3.161672,-0.374074 -4.752659,-0.435106 -1.468585,-0.04418 -2.937992,-0.03489 -4.40703,-0.04231 -1.610709,-0.0024 -3.221417,0.0032 -4.832122,0.0061 -1.842423,-0.0596 -3.657378,-0.0078 -5.484814,0.221799 -1.763252,0.123023 -3.475246,0.477271 -5.203302,0.819086 -1.81228,0.409024 -3.534953,1.107535 -5.215861,1.887525 -1.860744,0.855448 -3.788796,1.541561 -5.707552,2.251165 0.60158,-0.469951 -2.611859,1.325137 -1.978678,0.956644 10.41426,-6.060795 -0.469137,0.328657 -3.430204,1.938176 -1.029768,0.483341 -0.523917,0.230695 -1.517962,0.757113 -0.246907,0.113164 -0.974513,0.477736 -0.740722,0.339493 1.573974,-0.930709 6.335041,-3.655326 4.764516,-2.718807 -1.980717,1.181119 -4.003972,2.28953 -5.995273,3.452718 -1.593435,0.930781 3.2011,-1.836988 4.80165,-2.755482 -1.164141,0.793869 -2.184928,1.76267 -3.226506,2.703879 -1.416813,0.942145 -2.418278,2.176273 -3.298205,3.60319 -0.918466,1.553027 -1.816613,3.116069 -2.74446,4.663416 -0.990965,1.600495 -1.384866,3.41776 -1.835304,5.215836 -0.346143,1.595754 -0.867997,3.144683 -1.232672,4.73518 -0.293179,1.396023 -0.341974,2.824191 -0.373903,4.245257 -0.02177,1.453989 -0.0063,2.908143 -0.01503,4.362201 -0.114191,1.770428 0.01325,3.453852 0.485953,5.158804 0.533058,1.780417 1.320396,3.464339 1.849957,5.245039 0.345874,1.593651 0.687158,3.189791 0.935357,4.802684 0.136447,1.397132 0.544365,2.74878 0.986263,4.075099 0.526403,1.296202 1.232705,2.52953 2.125054,3.608308 0.753544,1.009154 1.290794,2.174243 1.849963,3.30252 0.611786,1.373391 1.432531,2.599119 2.330598,3.794879 0.783175,1.424575 2.024689,2.434305 3.237438,3.472632 1.488832,1.475512 3.303113,2.510857 5.06334,3.618875 1.715422,1.132119 3.360368,2.370218 5.082222,3.491996 1.45535,1.019905 3.137031,1.652672 4.753556,2.375902 1.726725,0.826832 3.454937,1.657456 5.147175,2.553798 1.560413,0.672823 3.091555,1.399437 4.624077,2.134987 1.765944,0.82144 3.517623,1.6752 5.263195,2.54348 2.313647,0.983 4.694429,1.80443 7.072008,2.61938 2.263868,0.84258 4.562548,1.5865 6.845238,2.37647 1.46949,0.46325 2.84176,1.12007 4.36442,1.40349 1.39117,0.39389 2.71175,0.97097 4.04726,1.51681 1.94189,0.90669 3.90151,1.7793 5.91913,2.50746 2.57341,0.94142 5.18066,1.75026 7.64238,2.96716 2.71427,1.26787 5.46797,2.44736 8.25977,3.53357 1.86313,0.7294 3.57905,1.71228 5.21483,2.84862 1.31052,0.82978 2.0322,2.15512 2.76009,3.47053 0.70355,1.38862 1.50287,2.70093 2.17716,4.10738 0.61463,1.56163 1.54644,2.964 2.25642,4.47864 0.7627,1.57926 1.41775,3.21621 1.96107,4.88388 0.3583,1.42228 0.67304,2.85637 1.07849,4.26707 0.32401,1.43188 1.06903,2.69017 1.66676,4.0112 0.5394,1.19319 0.37436,2.39295 0.0362,3.60927 -0.41491,1.3742 -0.91018,2.70748 -1.18169,4.12072 -0.27639,1.65484 -0.86159,3.22907 -1.26388,4.85254 -0.26472,1.62586 -0.59253,3.24211 -0.8489,4.86987 -0.37273,1.44982 -0.53951,2.96046 -1.10688,4.35076 -0.62723,1.31152 -1.31976,2.58787 -2.2532,3.706 -1.2038,1.196 -2.70612,2.03339 -4.12564,2.94419 -1.82667,1.37844 -3.6885,2.70747 -5.51418,4.08769 -2.45066,1.70331 -4.59277,3.78875 -7.06655,5.45847 -3.27489,2.4121 -6.83703,4.33639 -10.35774,6.36692 -1.437,0.66298 -2.90593,1.2484 -4.42381,1.69674 -1.6493,0.73284 -3.39938,1.04398 -5.17957,1.23609 -2.14445,0.15075 -4.28457,-0.28106 -6.39107,-0.63599 -2.51018,-0.41345 -5.051783,-0.55181 -7.590691,-0.63457 -2.657568,-0.0673 -5.316377,-0.0534 -7.974579,-0.0621 -2.907014,0.0282 -5.800678,0.0475 -8.696713,-0.21398 -2.403629,-0.20969 -4.762203,-0.72433 -7.162785,-0.97438 -2.288587,-0.33811 -4.535095,-0.86916 -6.725486,-1.60985 -2.379973,-0.76817 -4.720249,-1.64357 -7.086593,-2.45408 -2.314905,-0.66903 -4.557914,-1.58568 -6.767579,-2.54116 -2.241011,-0.74473 -4.249694,-1.93837 -6.164464,-3.29538 -1.820159,-1.17185 -3.51723,-2.51436 -5.270328,-3.78064 -1.368648,-1.06699 -2.641948,-2.19727 -3.800831,-3.48854 -1.596636,-1.68668 -3.196425,-3.36522 -4.825179,-5.02094 -1.193704,-1.2814 -2.548211,-2.39344 -3.736888,-3.67895 -0.772132,-1.042 -1.753965,-1.87135 -2.197172,-3.11624 -0.279157,-1.30769 0.156451,-2.65165 0.550694,-3.89497 0.465596,-1.31251 0.643212,-2.68729 0.743485,-4.06813 0.07686,-1.416 0.07052,-2.83476 0.07016,-4.25233 0,0 5.619103,-2.86361 5.619103,-2.86361 l 0,0 c 0.0018,1.42957 0.0095,2.8599 -0.05014,4.28855 -0.08169,1.42324 -0.219124,2.84981 -0.675368,4.21015 -0.374532,1.12229 -0.817212,2.33134 -0.699705,3.52429 0.339914,1.18196 1.350691,1.90758 2.029883,2.89629 1.184623,1.27155 2.480366,2.43118 3.662623,3.70535 1.623461,1.67288 3.232243,3.35826 4.865451,5.0218 1.147613,1.23934 2.426898,2.31293 3.734537,3.38001 1.736573,1.27113 3.413586,2.62281 5.218069,3.79979 1.903412,1.30947 3.925589,2.40333 6.107465,3.18235 2.201311,0.94753 4.443652,1.81816 6.742922,2.49943 2.362119,0.80703 4.682982,1.72555 7.071239,2.45344 2.179891,0.68284 4.405818,1.19346 6.672822,1.49131 2.381512,0.2795 4.72514,0.81177 7.118508,0.98757 2.88078,0.23854 5.763965,0.2026 8.653101,0.17932 2.674252,-0.0101 5.348876,-0.0112 8.022519,0.0556 2.55301,0.10366 5.10425,0.29272 7.62851,0.70371 2.08931,0.33282 4.21917,0.70055 6.33803,0.45686 1.76245,-0.23437 3.46316,-0.66702 5.11446,-1.33672 1.48247,-0.51243 2.95725,-1.05094 4.34359,-1.79369 -9.75389,5.67916 -2.35651,1.46681 -0.32153,-0.16246 2.55005,-1.58335 4.66902,-3.69649 7.11364,-5.42632 1.79784,-1.3783 3.65157,-2.67826 5.41238,-4.10157 1.40751,-0.90133 2.84511,-1.74651 4.16505,-2.77305 0.98345,-1.04456 1.69416,-2.2414 2.31286,-3.53466 0.70158,-1.30438 0.77675,-2.79302 1.20634,-4.19875 0.24702,-1.64396 0.61487,-3.26506 0.82238,-4.91394 0.37232,-1.62324 0.98147,-3.17465 1.28538,-4.81474 0.20561,-1.44531 0.67435,-2.79225 1.12347,-4.17331 0.31843,-1.06787 0.64017,-2.13747 0.17172,-3.21918 -0.59353,-1.35219 -1.34707,-2.63951 -1.6916,-4.09166 -0.42891,-1.40055 -0.7447,-2.83262 -1.06667,-4.25994 -0.51047,-1.64915 -1.15045,-3.26676 -1.9062,-4.81827 -0.71865,-1.50806 -1.65516,-2.9062 -2.26675,-4.46676 -0.67575,-1.39012 -1.46812,-2.69372 -2.16798,-4.06952 -0.69402,-1.23198 -1.36185,-2.46823 -2.60894,-3.23269 -1.57276,-1.1261 -3.26811,-2.04069 -5.06127,-2.77492 -2.77311,-1.14438 -5.53203,-2.32379 -8.25308,-3.58717 -2.47759,-1.15211 -5.08256,-1.94237 -7.63861,-2.89698 -2.0344,-0.74911 -4.02545,-1.60134 -6.00601,-2.48001 -1.30754,-0.54247 -2.62407,-1.06287 -3.99968,-1.41058 -1.50666,-0.35706 -2.88562,-1.0325 -4.35392,-1.51056 -2.263164,-0.81858 -4.557774,-1.54493 -6.808821,-2.3968 -2.396799,-0.84374 -4.81859,-1.63279 -7.144003,-2.66151 -1.759183,-0.84589 -3.513899,-1.69669 -5.282967,-2.51986 -1.548505,-0.71792 -3.098063,-1.43035 -4.642563,-2.15493 -1.68929,-0.87945 -3.388699,-1.74522 -5.126881,-2.524006 C 69.631731,99.19036 67.917461,98.565575 66.461588,97.481479 64.771562,96.329757 63.127696,95.110144 61.419605,93.984877 59.626129,92.868274 57.80471,91.791467 56.281426,90.305943 55.023448,89.243886 53.747652,88.204085 52.946476,86.730595 52.020294,85.505801 51.194583,84.243133 50.550168,82.841979 50.000088,81.758185 49.461755,80.648316 48.75631,79.661282 47.84984,78.500147 47.104382,77.210339 46.526464,75.855856 46.068834,74.494513 45.63258,73.110295 45.512462,71.670619 45.282624,70.079694 44.905879,68.52082 44.614499,66.9418 44.117812,65.148695 43.34104,63.459043 42.769617,61.689698 42.27082,59.935783 42.068923,58.216663 42.191631,56.38633 c -0.01487,-1.455785 -0.01568,-2.911769 -0.0043,-4.367585 0.024,-1.457412 0.059,-2.921726 0.325298,-4.359204 0.337521,-1.61314 0.896677,-3.161979 1.250542,-4.771483 0.495191,-1.820622 0.78687,-3.710341 1.751391,-5.368948 0.90837,-1.56442 1.873482,-3.09466 2.745407,-4.681178 0.314485,-0.496954 0.555656,-1.037897 0.870793,-1.534438 0.576495,-0.908346 1.494194,-1.592508 2.325819,-2.244194 1.117067,-0.84657 2.042945,-1.946701 3.183515,-2.7807 1.996679,-1.16356 4.007879,-2.302551 5.990036,-3.490679 1.584304,-0.94965 -6.413818,3.667188 -4.796361,2.775176 2.766479,-1.525685 5.410091,-3.22971 8.266129,-4.57259 2.347262,-1.246639 1.006267,-0.548348 -3.741598,2.231454 -0.292963,0.171526 0.585985,-0.342958 0.879899,-0.512849 2.745851,-1.58718 5.346371,-3.375565 8.297689,-4.523992 1.921206,-0.710328 3.834597,-1.440883 5.697434,-2.295656 1.726773,-0.742068 3.474979,-1.438516 5.328407,-1.797409 1.723166,-0.346378 3.452608,-0.594015 5.203647,-0.757252 1.849349,-0.205166 3.702325,-0.201623 5.561585,-0.187074 1.609141,7.31e-4 3.218286,0.0023 4.827424,-0.0019 1.477068,-0.0062 2.954807,-0.0021 4.430821,0.06025 1.59838,0.0846 3.19063,0.239005 4.77179,0.492943 1.5748,0.200643 3.15161,0.176708 4.73725,0.162458 1.60298,0.0011 3.20636,-0.01061 4.80893,0.03175 1.62012,0.05632 3.2401,0.153573 4.84476,0.39529 1.47431,0.218591 2.93848,0.368305 4.43293,0.337264 1.71946,0.08451 3.43386,0.241639 5.13309,0.525434 1.6525,0.246357 3.34296,0.317112 4.93761,0.854887 1.4239,0.515985 2.79538,1.160361 4.21111,1.696316 1.44277,0.620609 2.91004,1.194696 4.30798,1.911488 1.47977,0.825085 2.95568,1.665301 4.27034,2.744421 1.32147,1.118159 2.59223,2.279327 3.74691,3.572901 1.05172,1.049063 2.2803,1.914967 3.15359,3.133996 0.85839,1.164864 1.87795,2.18976 2.80212,3.300835 0,0 -5.42852,3.326604 -5.42852,3.326604 z"
       inkscape:connector-curvature="0"
       transform="translate(0,852.36218)" />
    <path
       style="fill:#ffffff;fill-opacity:1;stroke:#ffffff;stroke-width:1;stroke-linecap:round;stroke-linejoin:round;stroke-miterlimit:4;stroke-opacity:1;stroke-dasharray:none;stroke-dashoffset:0"
       id="path3215"
       d="m 5.1603398,165.11984 c 0.6693455,-2.09732 1.5638499,-4.11127 2.3022975,-6.18394 0.8143936,-2.61569 1.7160702,-5.19644 2.6548717,-7.76983 0.872888,-2.4683 1.72412,-4.93605 2.711068,-7.36098 1.109219,-2.88986 2.457422,-5.6706 3.986986,-8.35895 1.770189,-2.89781 3.847938,-5.5952 6.191439,-8.04975 1.695158,-1.54413 3.426159,-3.02943 5.001581,-4.69823 1.475767,-1.85199 5.321032,-8.17607 7.510621,-4.97466 0.201818,1.63763 0.218039,3.23347 0.713469,4.83641 0.8658,1.71848 1.742992,3.45791 2.726604,5.11566 0.912779,1.6355 2.286099,2.93457 3.602345,4.24183 1.618418,1.21088 3.183633,2.49527 4.8241,3.67943 1.99055,1.62203 4.029144,3.19288 5.979093,4.86664 1.060987,1.03753 1.567281,2.32999 1.861044,3.74872 0,0 -5.533261,2.94536 -5.533261,2.94536 l 0,0 c -0.19842,-1.30515 -0.654122,-2.45603 -1.620302,-3.39996 -1.914432,-1.68763 -3.931994,-3.2642 -5.955636,-4.81536 -1.663357,-1.2056 -3.288981,-2.47427 -4.895278,-3.74964 -1.356761,-1.34624 -2.745483,-2.69614 -3.692362,-4.37698 -0.991205,-1.70965 -1.891387,-3.48563 -2.773496,-5.25037 -0.483506,-1.49913 -0.754141,-3.01597 -0.748554,-4.59575 1.263164,1.90919 0.0066,0.15104 5.412312,-2.96332 0.111911,-0.0645 -0.196192,0.17059 -0.275165,0.27279 -0.494385,0.63978 -0.767128,1.43077 -1.357317,2.00346 -1.58353,1.70538 -3.284931,3.261 -5.075789,4.74845 -2.425749,2.35561 -4.480552,5.07339 -6.296026,7.92147 -1.538484,2.63976 -2.858525,5.39276 -3.951026,8.24804 -0.968047,2.43001 -1.892833,4.86888 -2.735387,7.34778 -0.921606,2.57133 -1.879638,5.12556 -2.638699,7.75211 -0.687144,2.0589 -1.616709,4.03292 -2.194164,6.12603 0,0 -5.7353692,2.69354 -5.7353692,2.69354 z"
       inkscape:connector-curvature="0"
       transform="translate(0,852.36218)" />
  </g>
</svg>
