<?xml version="1.0" encoding="UTF-8" standalone="no"?>
<!-- Created with Inkscape (http://www.inkscape.org/) -->

<svg
   xmlns:dc="http://purl.org/dc/elements/1.1/"
   xmlns:cc="http://creativecommons.org/ns#"
   xmlns:rdf="http://www.w3.org/1999/02/22-rdf-syntax-ns#"
   xmlns:svg="http://www.w3.org/2000/svg"
   xmlns="http://www.w3.org/2000/svg"
   xmlns:sodipodi="http://sodipodi.sourceforge.net/DTD/sodipodi-0.dtd"
   xmlns:inkscape="http://www.inkscape.org/namespaces/inkscape"
   width="200"
   height="200"
   id="svg2"
   version="1.1"
   inkscape:version="0.48.0 r9654"
   sodipodi:docname="d12.svg">
  <defs
     id="defs4" />
  <sodipodi:namedview
     id="base"
     pagecolor="#ffffff"
     bordercolor="#666666"
     borderopacity="1.0"
     inkscape:pageopacity="0.0"
     inkscape:pageshadow="2"
     inkscape:zoom="1.4"
     inkscape:cx="59.254678"
     inkscape:cy="101.41252"
     inkscape:document-units="px"
     inkscape:current-layer="layer1"
     showgrid="false"
     inkscape:window-width="999"
     inkscape:window-height="738"
     inkscape:window-x="211"
     inkscape:window-y="123"
     inkscape:window-maximized="0" />
  <metadata
     id="metadata7">
    <rdf:RDF>
      <cc:Work
         rdf:about="">
        <dc:format>image/svg+xml</dc:format>
        <dc:type
           rdf:resource="http://purl.org/dc/dcmitype/StillImage" />
        <dc:title />
      </cc:Work>
    </rdf:RDF>
  </metadata>
  <g
     inkscape:label="Layer 1"
     inkscape:groupmode="layer"
     id="layer1"
     transform="translate(0,-852.36218)">
    <flowRoot
       xml:space="preserve"
       id="flowRoot2997"
       style="fill:#ffffff;stroke:#ffffff;stroke-opacity:1;stroke-width:1px;stroke-linejoin:miter;stroke-linecap:butt;fill-opacity:1;font-family:Sans;font-style:normal;font-weight:normal;font-size:20px;line-height:50%;letter-spacing:0px;word-spacing:0px"><flowRegion
         id="flowRegion2999"><rect
           id="rect3001"
           width="91.923882"
           height="90.408653"
           x="98.994949"
           y="95.954292"
           style="fill:#ffffff;stroke:#ffffff" /></flowRegion><flowPara
         id="flowPara3003" /></flowRoot>    <flowRoot
       xml:space="preserve"
       id="flowRoot3005"
       style="fill:#ffffff;stroke:#ffffff;stroke-opacity:1;stroke-width:1px;stroke-linejoin:miter;stroke-linecap:butt;fill-opacity:1;font-family:Sans;font-style:normal;font-weight:normal;font-size:20px;line-height:50%;letter-spacing:0px;word-spacing:0px"><flowRegion
         id="flowRegion3007"><rect
           id="rect3009"
           width="114.65231"
           height="87.378197"
           x="77.276672"
           y="103.02536"
           style="fill:#ffffff;stroke:#ffffff" /></flowRegion><flowPara
         id="flowPara3011" /></flowRoot>    <rect
       style="fill:#000000;fill-opacity:1;stroke:#000000;stroke-width:1;stroke-linecap:round;stroke-linejoin:round;stroke-miterlimit:4;stroke-opacity:1;stroke-dasharray:none;stroke-dashoffset:0"
       id="rect3002"
       width="199.12645"
       height="199.18976"
       x="0.56820697"
       y="0.4948993"
       transform="translate(0,852.36218)" />
    <flowRoot
       xml:space="preserve"
       id="flowRoot3013"
       style="font-size:20px;font-style:normal;font-weight:normal;line-height:50%;letter-spacing:0px;word-spacing:0px;fill:#ffffff;fill-opacity:1;stroke:#ffffff;font-family:Sans"
       transform="translate(-74.710102,937.94125)"><flowRegion
         id="flowRegion3015"><rect
           id="rect3017"
           width="110.6117"
           height="102.53048"
           x="236.88077"
           y="87.87307"
           style="fill:#ffffff;stroke:#ffffff" /></flowRegion><flowPara
         id="flowPara3019"
         style="font-size:56px;font-weight:bold;fill:#ffffff;stroke:#ffffff;-inkscape-font-specification:Sans Bold">2</flowPara></flowRoot>    <path
       style="fill:#ffffff;fill-opacity:1;stroke:#ffffff;stroke-width:1;stroke-linecap:round;stroke-linejoin:round;stroke-miterlimit:4;stroke-opacity:1;stroke-dasharray:none;stroke-dashoffset:0"
       id="path3051"
       d="m 13.003237,183.0485 c 0.81853,-2.06812 2.008621,-3.87968 3.378167,-5.61834 2.575564,-3.07109 5.40804,-5.91165 8.391007,-8.58399 4.157689,-3.77258 8.69179,-7.08537 13.20796,-10.40719 5.676526,-4.07314 10.693642,-8.94512 15.823044,-13.66409 6.009295,-5.34917 11.634192,-11.09049 17.221174,-16.87236 5.40632,-5.93807 11.161985,-11.56793 16.283168,-17.7583 4.064402,-5.01407 8.651512,-9.56158 12.890003,-14.425743 3.07729,-3.479531 6.04101,-7.056264 9.09351,-10.557136 2.04943,-2.340359 4.34965,-4.416774 6.66493,-6.483338 1.83391,-1.747252 3.54595,-3.602056 5.46915,-5.254886 2.20954,-1.877004 4.19934,-3.995728 6.27417,-6.017891 2.27059,-2.244681 4.40888,-4.615549 6.58284,-6.951792 2.58029,-2.520422 4.96305,-5.223834 7.37664,-7.90029 2.40113,-2.662157 5.18823,-4.928512 7.80253,-7.373075 2.22005,-2.227255 4.30258,-4.586128 6.43991,-6.891928 1.5642,-1.720141 2.85247,-3.667648 4.17585,-5.573495 1.11335,-1.527233 2.13421,-3.116737 3.32992,-4.58172 1.37235,-1.663779 2.80704,-3.275124 4.15856,-4.956307 1.58464,-1.775475 2.99529,-3.637231 4.26396,-5.646966 0,0 5.71999,-2.517875 5.71999,-2.517875 l 0,0 c -0.58774,0.920242 -1.11909,1.915662 -1.7751,2.78882 -0.48369,0.643794 -1.14203,1.267198 -1.65963,1.877517 -0.28858,0.340264 -0.5536,0.699824 -0.83039,1.049736 -1.30647,1.696575 -2.74012,3.285055 -4.093,4.941914 -1.20784,1.467106 -2.29346,3.001257 -3.3935,4.555901 -1.34529,1.923226 -2.63033,3.902563 -4.17898,5.671351 -2.17354,2.308354 -4.28808,4.67152 -6.48786,6.954984 -2.60305,2.461216 -5.39757,4.714707 -7.84125,7.337253 -2.42522,2.64623 -4.72845,5.405931 -7.32692,7.890527 -2.19849,2.315429 -4.30255,4.721327 -6.5658,6.976947 -2.08228,1.992903 -4.03491,4.122433 -6.1962,6.029091 -1.95576,1.638924 -3.72806,3.445202 -5.52176,5.255857 -2.30323,2.101479 -4.691,4.108155 -6.76642,6.449211 -3.1227,3.512221 -6.12374,7.12971 -9.26413,10.626619 -4.26668,4.86999 -8.843843,9.455584 -12.972989,14.443064 -5.143428,6.24244 -10.986316,11.86609 -16.411393,17.86059 -5.539132,5.74843 -11.074915,11.49978 -17.026488,16.82866 -5.13267,4.73688 -10.185658,9.59 -15.824265,13.73298 -4.44768,3.30006 -8.935414,6.56495 -13.048281,10.28498 -2.96231,2.61418 -5.74908,5.41604 -8.303165,8.43394 -1.33922,1.66175 -2.548997,3.36316 -3.295101,5.38107 0,0 -5.763861,2.6657 -5.763861,2.6657 z"
       inkscape:connector-curvature="0"
       transform="translate(0,852.36218)" />
    <path
       style="fill:#ffffff;fill-opacity:1;stroke:#ffffff;stroke-width:1;stroke-linecap:round;stroke-linejoin:round;stroke-miterlimit:4;stroke-opacity:1;stroke-dasharray:none;stroke-dashoffset:0"
       id="path3059"
       d="m 143.71256,10.274868 c 2.26052,-0.0022 4.51046,-0.3600136 6.73924,-0.7159629 2.66685,-0.535697 5.32895,-1.1091008 8.00955,-1.573192 2.20115,-0.2898456 4.35967,-0.8083274 6.56409,-1.0827619 1.515,-0.1689869 3.04053,-0.1848481 4.56307,-0.194152 1.68152,-0.1181482 3.32584,0.1715969 4.98682,0.3745016 2.31544,0.2526997 4.64562,0.313272 6.97269,0.3488974 1.90979,0.027836 3.81985,0.016476 5.72974,0.00955 2.07202,-0.1156523 2.6417,0.6043063 3.09998,2.5269683 0.34747,2.5867787 0.26902,5.2092227 0.26161,7.8130187 0.18047,3.331463 0.41708,6.658091 0.53395,9.992932 0.0992,3.104836 0.1445,6.21082 0.15837,9.317084 -0.0209,2.21473 0.0149,4.449816 0.52397,6.614915 0.24474,0.645528 0.33391,1.269467 0.327,1.9508 0,0 -5.67045,2.826743 -5.67045,2.826743 l 0,0 c 0.12083,-0.639222 0.0428,-1.177104 -0.18936,-1.798815 -0.50149,-2.220204 -0.55254,-4.513765 -0.50599,-6.781687 -0.004,-3.109041 0.002,-6.218824 -0.0943,-9.326725 -0.12569,-3.335918 -0.35048,-6.664203 -0.58088,-9.994148 -0.006,-2.54447 0.0395,-5.106514 -0.29387,-7.633865 -0.40838,-1.770197 -0.87787,-1.86313 -2.65825,-1.809953 -1.90032,-0.0048 -3.80068,-0.01441 -5.70075,-0.04723 -2.34168,-0.06252 -4.68546,-0.141776 -7.01599,-0.392688 -1.65883,-0.191761 -3.30964,-0.375402 -4.98352,-0.278628 -1.50073,0.01716 -3.00415,0.0494 -4.4951,0.237911 -2.17338,0.292827 -4.31591,0.763656 -6.48847,1.06285 -2.67818,0.489062 -5.34391,1.044744 -8.01641,1.563571 -2.29038,0.359249 -4.59874,0.668414 -6.91885,0.726054 0,0 5.14214,-3.735979 5.14214,-3.735979 z"
       inkscape:connector-curvature="0"
       transform="translate(0,852.36218)" />
  </g>
</svg>
