<?xml version="1.0" encoding="UTF-8" standalone="no"?>
<!-- Created with Inkscape (http://www.inkscape.org/) -->

<svg
   xmlns:dc="http://purl.org/dc/elements/1.1/"
   xmlns:cc="http://creativecommons.org/ns#"
   xmlns:rdf="http://www.w3.org/1999/02/22-rdf-syntax-ns#"
   xmlns:svg="http://www.w3.org/2000/svg"
   xmlns="http://www.w3.org/2000/svg"
   xmlns:sodipodi="http://sodipodi.sourceforge.net/DTD/sodipodi-0.dtd"
   xmlns:inkscape="http://www.inkscape.org/namespaces/inkscape"
   width="200"
   height="200"
   id="svg2"
   version="1.1"
   inkscape:version="0.48.0 r9654"
   sodipodi:docname="d13.svg">
  <defs
     id="defs4" />
  <sodipodi:namedview
     id="base"
     pagecolor="#ffffff"
     bordercolor="#666666"
     borderopacity="1.0"
     inkscape:pageopacity="0.0"
     inkscape:pageshadow="2"
     inkscape:zoom="1.4"
     inkscape:cx="215.45327"
     inkscape:cy="172.95687"
     inkscape:document-units="px"
     inkscape:current-layer="layer1"
     showgrid="false"
     inkscape:window-width="999"
     inkscape:window-height="738"
     inkscape:window-x="211"
     inkscape:window-y="123"
     inkscape:window-maximized="0" />
  <metadata
     id="metadata7">
    <rdf:RDF>
      <cc:Work
         rdf:about="">
        <dc:format>image/svg+xml</dc:format>
        <dc:type
           rdf:resource="http://purl.org/dc/dcmitype/StillImage" />
        <dc:title />
      </cc:Work>
    </rdf:RDF>
  </metadata>
  <g
     inkscape:label="Layer 1"
     inkscape:groupmode="layer"
     id="layer1"
     transform="translate(0,-852.36218)">
    <flowRoot
       xml:space="preserve"
       id="flowRoot2997"
       style="fill:#ffffff;stroke:#ffffff;stroke-opacity:1;stroke-width:1px;stroke-linejoin:miter;stroke-linecap:butt;fill-opacity:1;font-family:Sans;font-style:normal;font-weight:normal;font-size:20px;line-height:50%;letter-spacing:0px;word-spacing:0px"><flowRegion
         id="flowRegion2999"><rect
           id="rect3001"
           width="91.923882"
           height="90.408653"
           x="98.994949"
           y="95.954292"
           style="fill:#ffffff;stroke:#ffffff" /></flowRegion><flowPara
         id="flowPara3003" /></flowRoot>    <flowRoot
       xml:space="preserve"
       id="flowRoot3005"
       style="fill:#ffffff;stroke:#ffffff;stroke-opacity:1;stroke-width:1px;stroke-linejoin:miter;stroke-linecap:butt;fill-opacity:1;font-family:Sans;font-style:normal;font-weight:normal;font-size:20px;line-height:50%;letter-spacing:0px;word-spacing:0px"><flowRegion
         id="flowRegion3007"><rect
           id="rect3009"
           width="114.65231"
           height="87.378197"
           x="77.276672"
           y="103.02536"
           style="fill:#ffffff;stroke:#ffffff" /></flowRegion><flowPara
         id="flowPara3011" /></flowRoot>    <rect
       style="fill:#000000;fill-opacity:1;stroke:#000000;stroke-width:1;stroke-linecap:round;stroke-linejoin:round;stroke-miterlimit:4;stroke-opacity:1;stroke-dasharray:none;stroke-dashoffset:0"
       id="rect3002"
       width="199.12645"
       height="199.18976"
       x="0.56820697"
       y="0.4948993"
       transform="translate(0,852.36218)" />
    <flowRoot
       xml:space="preserve"
       id="flowRoot3013"
       style="font-size:20px;font-style:normal;font-weight:normal;line-height:50%;letter-spacing:0px;word-spacing:0px;fill:#ffffff;fill-opacity:1;stroke:#ffffff;font-family:Sans"
       transform="translate(-74.710102,937.94125)"><flowRegion
         id="flowRegion3015"><rect
           id="rect3017"
           width="110.6117"
           height="102.53048"
           x="236.88077"
           y="87.87307"
           style="fill:#ffffff;stroke:#ffffff" /></flowRegion><flowPara
         id="flowPara3019"
         style="font-size:56px;font-weight:bold;fill:#ffffff;stroke:#ffffff;-inkscape-font-specification:Sans Bold">2</flowPara></flowRoot>    <path
       style="fill:#ffffff;fill-opacity:1;stroke:#ffffff;stroke-width:1;stroke-linecap:round;stroke-linejoin:round;stroke-miterlimit:4;stroke-opacity:1;stroke-dasharray:none;stroke-dashoffset:0"
       id="path3103"
       d="m 8.7141301,7.7076733 c 1.2264944,0.8047453 2.4168169,1.6315316 3.6237259,2.4736447 1.715602,1.353639 3.560374,2.530594 5.326173,3.816411 1.539623,0.897949 2.866238,2.077083 4.231777,3.205051 0.942722,1.31202 2.326562,2.115524 3.665955,2.95629 1.496738,1.23536 2.877994,2.642264 4.190983,4.075034 1.165373,1.43166 2.407841,2.774014 3.778709,4.008905 1.679508,1.61522 3.569635,3.029246 5.479372,4.361839 2.308862,1.736316 4.389193,3.751191 6.451841,5.767133 1.942248,1.9901 3.923977,3.946762 5.78094,6.018522 1.514144,1.582789 2.909005,3.280997 4.490995,4.796866 1.216353,1.192334 2.169215,2.594435 3.512269,3.656929 1.408822,1.038967 2.663354,2.258154 3.965918,3.424847 2.055928,1.815553 4.380833,3.270767 6.716069,4.692167 2.373077,1.306821 4.388854,3.162935 6.425659,4.929854 1.96826,1.650492 3.631308,3.610977 5.529253,5.333803 1.904628,1.902739 3.958702,3.641867 5.948569,5.452606 1.959137,1.918081 4.290042,3.283819 6.620578,4.680626 1.841037,0.944704 3.588308,2.044771 5.294825,3.210999 1.268359,1.067166 2.309179,2.352112 3.723339,3.237078 1.24434,0.805967 2.50016,1.590689 3.68037,2.4915 1.1928,1.132662 2.29609,2.347876 3.39575,3.570809 1.55686,1.931542 3.44966,3.499394 5.31066,5.115758 1.985,1.667255 3.59006,3.713515 5.11094,5.797175 1.33683,1.81219 2.53696,3.73565 4.03577,5.42233 1.02948,1.29933 1.91695,2.65668 3.08757,3.83993 1.44519,1.61375 2.90383,3.21466 4.3953,4.78579 1.4122,1.45478 2.85406,2.87193 4.15339,4.42971 1.06732,1.25172 2.26601,2.3445 3.59744,3.30732 1.14333,0.62457 2.23119,1.33527 3.2506,2.1474 1.49313,0.87766 2.94355,1.81931 4.40773,2.74185 0.75656,0.59447 0.41016,0.27226 1.04346,0.96202 0,0 -5.40007,3.28264 -5.40007,3.28264 l 0,0 c -0.56106,-0.59312 -0.25043,-0.30947 -0.94049,-0.84144 -1.45982,-0.96225 -2.94839,-1.87418 -4.44122,-2.78466 -1.03963,-0.78007 -2.15523,-1.43992 -3.25223,-2.13518 -1.3286,-1.03108 -2.56007,-2.15934 -3.64066,-3.45294 -1.28688,-1.54918 -2.71647,-2.95796 -4.11309,-4.40764 -1.48372,-1.57363 -2.92679,-3.18431 -4.40697,-4.76108 -1.18532,-1.19039 -2.10694,-2.53739 -3.1087,-3.8775 -1.46297,-1.73671 -2.67774,-3.66045 -4.00514,-5.49849 -1.50513,-2.03811 -3.09699,-4.03248 -5.03902,-5.67672 -1.89586,-1.62134 -3.77424,-3.247806 -5.40636,-5.146827 -1.0841,-1.185036 -2.18139,-2.359709 -3.36236,-3.448847 -1.18536,-0.864737 -2.41448,-1.66443 -3.639986,-2.469793 -1.38097,-0.93357 -2.456588,-2.182304 -3.725378,-3.252119 C 92.767208,86.79101 91.038348,85.7062 89.233885,84.732893 86.884602,83.303349 84.560921,81.862275 82.565865,79.942054 80.561108,78.147384 78.528426,76.38294 76.617978,74.486375 74.724695,72.762312 73.035073,70.830243 71.072811,69.177613 69.072535,67.4243 67.085999,65.594224 64.737817,64.314674 62.370551,62.867977 60.022566,61.380128 57.913695,59.566179 56.580143,58.433107 55.316036,57.229915 53.908518,56.188259 52.594859,55.073681 51.611538,53.684931 50.411601,52.459078 48.844147,50.909386 47.412322,49.227116 45.913707,47.612319 44.09477,45.532159 42.143378,43.572985 40.206598,41.603795 38.1489,39.621499 36.089559,37.623553 33.773751,35.939034 31.852258,34.572074 29.909745,33.18563 28.218703,31.537626 26.829016,30.290769 25.56186,28.940362 24.381115,27.49255 23.112068,26.098675 21.798371,24.691101 20.293878,23.555909 18.916819,22.709084 17.539945,21.849473 16.539912,20.545235 15.221376,19.395759 13.895817,18.25914 12.399198,17.339355 10.628081,16.058896 8.7926549,14.870199 7.0422816,13.560221 5.8439905,12.743169 4.668658,11.908119 3.3979683,11.205519 c 0,0 5.3161618,-3.4978457 5.3161618,-3.4978457 z"
       inkscape:connector-curvature="0"
       transform="translate(0,852.36218)" />
    <path
       style="fill:#ffffff;fill-opacity:1;stroke:#ffffff;stroke-width:1;stroke-linecap:round;stroke-linejoin:round;stroke-miterlimit:4;stroke-opacity:1;stroke-dasharray:none;stroke-dashoffset:0"
       id="path3113"
       d="m 115.17691,141.8404 c 1.65475,0.3449 3.34408,0.45683 5.02864,0.53617 1.81021,0.30857 3.62715,0.54283 5.4588,0.67305 1.56296,0.0971 3.12942,0.0958 4.69464,0.1073 2.03839,-0.10621 4.04888,0.15083 6.0701,0.36356 1.9471,0.20232 3.90285,0.28841 5.85912,0.32894 1.88378,0.0619 3.7471,0.40547 5.62619,0.56868 2.12755,0.15577 4.262,0.16938 6.39417,0.17667 1.12187,-0.23491 2.30174,0.26029 3.41258,0.11136 0.15092,-0.0202 0.28751,-0.1004 0.43126,-0.1506 -1.72257,0.95062 -3.44514,1.90123 -5.16772,2.85185 1.13256,-1.27291 1.39134,-3.19159 1.79099,-4.79955 0.72301,-2.7201 1.53185,-5.41435 2.35587,-8.10536 1.00397,-2.97386 1.88952,-5.98567 2.83073,-8.97945 0.77524,-2.29655 1.67196,-4.54733 2.49652,-6.82597 0.52293,-1.72129 1.26926,-3.35986 1.89186,-5.04401 0.40261,-1.44966 0.81432,-2.90302 1.09888,-4.38188 0.1285,-1.04701 0.239,-2.0897 0.44488,-3.1252 0,0 5.69613,-2.73481 5.69613,-2.73481 l 0,0 c -0.28949,1.01771 -0.40582,2.04545 -0.48827,3.09911 -0.22782,1.5225 -0.69474,2.98678 -1.05123,4.4813 -0.59317,1.70553 -1.4119,3.32502 -1.92383,5.06116 -0.83133,2.29356 -1.77175,4.5415 -2.58386,6.84243 -0.9832,2.97707 -1.8071,6.00505 -2.82952,8.9696 -0.82293,2.66745 -1.62151,5.34064 -2.30666,8.04699 -0.44786,1.74593 -0.81099,3.5102 -1.49736,5.17988 -1.9419,1.09564 -3.84966,2.25415 -5.82571,3.28692 -0.5918,0.30931 -3.1114,-0.43925 -3.82947,-0.11741 -2.14826,-0.0236 -4.30057,-0.0232 -6.44269,-0.20624 -1.87358,-0.17855 -3.73523,-0.5248 -5.62179,-0.5228 -1.9505,-0.0665 -3.8982,-0.19211 -5.83904,-0.40117 -2.02562,-0.20349 -4.04411,-0.37228 -6.08288,-0.27879 -1.57243,-0.002 -3.1461,-0.0267 -4.71436,-0.15116 -1.82129,-0.16026 -3.62516,-0.43621 -5.4377,-0.66683 -1.7268,-0.0974 -3.44951,-0.25006 -5.15297,-0.5608 0,0 5.2137,-3.63294 5.2137,-3.63294 z"
       inkscape:connector-curvature="0"
       transform="translate(0,852.36218)" />
  </g>
</svg>
