<?xml version="1.0" encoding="UTF-8" standalone="no"?>
<!-- Created with Inkscape (http://www.inkscape.org/) -->

<svg
   xmlns:dc="http://purl.org/dc/elements/1.1/"
   xmlns:cc="http://creativecommons.org/ns#"
   xmlns:rdf="http://www.w3.org/1999/02/22-rdf-syntax-ns#"
   xmlns:svg="http://www.w3.org/2000/svg"
   xmlns="http://www.w3.org/2000/svg"
   xmlns:sodipodi="http://sodipodi.sourceforge.net/DTD/sodipodi-0.dtd"
   xmlns:inkscape="http://www.inkscape.org/namespaces/inkscape"
   width="200"
   height="200"
   id="svg2"
   version="1.1"
   inkscape:version="0.48.0 r9654"
   sodipodi:docname="d14.svg">
  <defs
     id="defs4" />
  <sodipodi:namedview
     id="base"
     pagecolor="#ffffff"
     bordercolor="#666666"
     borderopacity="1.0"
     inkscape:pageopacity="0.0"
     inkscape:pageshadow="2"
     inkscape:zoom="1.4"
     inkscape:cx="59.254678"
     inkscape:cy="101.41252"
     inkscape:document-units="px"
     inkscape:current-layer="layer1"
     showgrid="false"
     inkscape:window-width="999"
     inkscape:window-height="738"
     inkscape:window-x="211"
     inkscape:window-y="123"
     inkscape:window-maximized="0" />
  <metadata
     id="metadata7">
    <rdf:RDF>
      <cc:Work
         rdf:about="">
        <dc:format>image/svg+xml</dc:format>
        <dc:type
           rdf:resource="http://purl.org/dc/dcmitype/StillImage" />
        <dc:title />
      </cc:Work>
    </rdf:RDF>
  </metadata>
  <g
     inkscape:label="Layer 1"
     inkscape:groupmode="layer"
     id="layer1"
     transform="translate(0,-852.36218)">
    <flowRoot
       xml:space="preserve"
       id="flowRoot2997"
       style="fill:#ffffff;stroke:#ffffff;stroke-opacity:1;stroke-width:1px;stroke-linejoin:miter;stroke-linecap:butt;fill-opacity:1;font-family:Sans;font-style:normal;font-weight:normal;font-size:20px;line-height:50%;letter-spacing:0px;word-spacing:0px"><flowRegion
         id="flowRegion2999"><rect
           id="rect3001"
           width="91.923882"
           height="90.408653"
           x="98.994949"
           y="95.954292"
           style="fill:#ffffff;stroke:#ffffff" /></flowRegion><flowPara
         id="flowPara3003" /></flowRoot>    <flowRoot
       xml:space="preserve"
       id="flowRoot3005"
       style="fill:#ffffff;stroke:#ffffff;stroke-opacity:1;stroke-width:1px;stroke-linejoin:miter;stroke-linecap:butt;fill-opacity:1;font-family:Sans;font-style:normal;font-weight:normal;font-size:20px;line-height:50%;letter-spacing:0px;word-spacing:0px"><flowRegion
         id="flowRegion3007"><rect
           id="rect3009"
           width="114.65231"
           height="87.378197"
           x="77.276672"
           y="103.02536"
           style="fill:#ffffff;stroke:#ffffff" /></flowRegion><flowPara
         id="flowPara3011" /></flowRoot>    <rect
       style="fill:#000000;fill-opacity:1;stroke:#000000;stroke-width:1;stroke-linecap:round;stroke-linejoin:round;stroke-miterlimit:4;stroke-opacity:1;stroke-dasharray:none;stroke-dashoffset:0"
       id="rect3002"
       width="199.12645"
       height="199.18976"
       x="0.56820697"
       y="0.4948993"
       transform="translate(0,852.36218)" />
    <flowRoot
       xml:space="preserve"
       id="flowRoot3013"
       style="font-size:20px;font-style:normal;font-weight:normal;line-height:50%;letter-spacing:0px;word-spacing:0px;fill:#ffffff;fill-opacity:1;stroke:#ffffff;font-family:Sans"
       transform="translate(-74.710102,937.94125)"><flowRegion
         id="flowRegion3015"><rect
           id="rect3017"
           width="110.6117"
           height="102.53048"
           x="236.88077"
           y="87.87307"
           style="fill:#ffffff;stroke:#ffffff" /></flowRegion><flowPara
         id="flowPara3019"
         style="font-size:56px;font-weight:bold;fill:#ffffff;stroke:#ffffff;-inkscape-font-specification:Sans Bold">2</flowPara></flowRoot>    <path
       style="fill:#ffffff;fill-opacity:1;stroke:#ffffff;stroke-width:1;stroke-linecap:round;stroke-linejoin:round;stroke-miterlimit:4;stroke-opacity:1;stroke-dasharray:none;stroke-dashoffset:0"
       id="path3115"
       d="m 184.75416,14.081933 c -1.68408,1.243783 -3.21703,2.674422 -4.73984,4.106602 -1.8305,1.778124 -3.57931,3.639152 -5.36265,5.464671 -1.906,2.057393 -3.96669,3.962607 -5.98772,5.904802 -2.03234,1.878219 -4.1115,3.704591 -6.15924,5.565889 -2.23092,1.944662 -4.56537,3.758835 -6.80242,5.696197 -2.06932,1.755742 -4.04912,3.611018 -6.00573,5.490228 -1.96994,1.727157 -3.91845,3.468222 -5.79943,5.291862 -1.73191,1.743626 -3.65846,3.269053 -5.41893,4.981056 -1.82817,1.839621 -3.6824,3.655599 -5.65408,5.341874 -2.17835,1.770391 -4.27003,3.641834 -6.43173,5.431892 -2.3605,1.746902 -4.57872,3.654105 -6.68613,5.696922 -1.96612,1.837952 -3.90067,3.704405 -5.75981,5.650875 -1.65708,1.81392 -3.37676,3.572113 -5.23707,5.178334 -2.14217,1.815954 -4.43117,3.438135 -6.57679,5.250164 -2.08715,1.872195 -3.843075,4.066963 -5.781501,6.08199 -1.849959,1.871103 -3.695745,3.741068 -5.441329,5.710359 -1.818722,2.00802 -3.247452,4.31854 -4.971768,6.3972 -1.717947,2.20938 -3.70616,4.16121 -5.669238,6.14724 -2.321681,2.37796 -4.715288,4.68565 -6.985438,7.11318 -1.942054,2.28531 -3.691306,4.71251 -5.693022,6.94827 -1.718829,2.30975 -3.731729,4.36549 -5.599715,6.55052 -1.425897,1.58309 -2.945569,3.07747 -4.373811,4.65851 -1.05941,1.2384 -1.860067,2.65848 -2.819171,3.97074 -0.821466,1.1828 -1.850226,2.18782 -2.744873,3.31197 0,0 -5.817849,2.47022 -5.817849,2.47022 l 0,0 c 0.947042,-1.07469 1.864896,-2.17109 2.776782,-3.27734 0.961053,-1.33905 1.855561,-2.71101 2.82671,-4.04502 1.431313,-1.60945 2.953762,-3.12766 4.451644,-4.67489 1.868779,-2.19416 3.915136,-4.22536 5.599388,-6.56945 2.032693,-2.22878 3.833574,-4.62571 5.72701,-6.9707 2.240265,-2.44267 4.642755,-4.73034 6.942379,-7.11693 1.953579,-1.9769 3.969684,-3.88313 5.661867,-6.09736 1.802137,-2.02372 3.174033,-4.38499 4.985414,-6.41059 1.731926,-1.98628 3.549507,-3.88649 5.420901,-5.742524 2.008732,-1.959095 3.7091,-4.223511 5.775921,-6.133616 2.113798,-1.837022 4.392239,-3.443115 6.535819,-5.241101 1.90394,-1.546072 3.61253,-3.310217 5.27135,-5.112359 1.84009,-1.987787 3.80119,-3.855671 5.79371,-5.690386 2.07114,-2.076613 4.26273,-4.020892 6.64493,-5.737591 2.15827,-1.791372 4.26435,-3.640732 6.42793,-5.426387 1.99329,-1.64064 3.83233,-3.452072 5.64806,-5.283841 1.73603,-1.753644 3.68093,-3.261932 5.43557,-4.997337 1.89284,-1.813277 3.77478,-3.631209 5.80702,-5.293911 1.95081,-1.898798 3.93182,-3.768117 6.00909,-5.529113 2.2385,-1.928545 4.53089,-3.781778 6.79839,-5.676811 2.04029,-1.864074 4.11145,-3.69408 6.15892,-5.548724 2.02215,-1.935165 4.09617,-3.824986 5.98982,-5.887609 1.80273,-1.803549 3.52162,-3.690408 5.33956,-5.477959 1.48953,-1.415952 2.97879,-2.836244 4.58497,-4.121239 0,0 5.90613,-2.348779 5.90613,-2.348779 z"
       inkscape:connector-curvature="0"
       transform="translate(0,852.36218)" />
    <path
       style="fill:#ffffff;fill-opacity:1;stroke:#ffffff;stroke-width:1;stroke-linecap:round;stroke-linejoin:round;stroke-miterlimit:4;stroke-opacity:1;stroke-dasharray:none;stroke-dashoffset:0"
       id="path3121"
       d="m 38.442351,127.60162 c -0.845762,1.62765 -1.483688,3.34077 -2.100884,5.06393 -0.826402,2.40851 -1.435093,4.87829 -2.021852,7.35332 -0.51258,2.09719 -1.121988,4.16851 -1.657329,6.2592 -0.316058,1.92371 -0.937657,3.76193 -1.581207,5.59406 -0.652487,2.26718 -1.474278,4.47985 -2.146948,6.74115 -0.552251,2.41435 -1.331273,4.79681 -1.516123,7.27689 0.03029,1.86892 1.311101,2.40205 2.929346,2.7432 2.337469,0.25585 4.669795,0.55753 7.015442,0.74358 2.677448,0.18385 5.361941,0.21104 8.044551,0.22884 2.739283,0.0472 5.465179,0.0448 8.192428,-0.22218 2.47019,-0.24947 4.900768,-0.75394 7.373471,-0.9982 2.104983,-0.15876 4.19077,-0.49365 6.234757,-1.01393 1.832982,-0.3668 3.56267,-1.04292 5.289167,-1.73609 1.144214,-0.40397 0.581321,-0.25582 1.683227,-0.46466 0,0 -5.009802,3.81423 -5.009802,3.81423 l 0,0 c -1.022839,0.27617 -0.489433,0.10805 -1.595068,0.52044 -1.741633,0.69317 -3.515808,1.28978 -5.354476,1.67345 -2.054447,0.47146 -4.150752,0.74628 -6.250338,0.92202 -2.459894,0.27586 -4.889213,0.7629 -7.356161,0.97337 -2.738792,0.22373 -5.479533,0.20337 -8.226121,0.17191 -2.692165,-0.0249 -5.38599,-0.0574 -8.071658,-0.26509 -2.37972,-0.1973 -4.761623,-0.44135 -7.123261,-0.78618 -1.864324,-0.50065 -3.286809,-1.38717 -3.372247,-3.49785 0.13707,-2.53809 1.002039,-4.95643 1.528711,-7.42992 0.6118,-2.27425 1.43685,-4.48 2.071625,-6.74711 0.631034,-1.81396 1.292815,-3.62586 1.592127,-5.5323 0.491418,-2.1103 1.205974,-4.16532 1.701859,-6.27671 0.596229,-2.48754 1.195907,-4.97147 1.982757,-7.40753 0.597571,-1.71488 1.184824,-3.42969 1.946113,-5.07869 0,0 5.797894,-2.62315 5.797894,-2.62315 z"
       inkscape:connector-curvature="0"
       transform="translate(0,852.36218)" />
  </g>
</svg>
