<?xml version="1.0" encoding="UTF-8" standalone="no"?>
<!-- Created with Inkscape (http://www.inkscape.org/) -->

<svg
   xmlns:dc="http://purl.org/dc/elements/1.1/"
   xmlns:cc="http://creativecommons.org/ns#"
   xmlns:rdf="http://www.w3.org/1999/02/22-rdf-syntax-ns#"
   xmlns:svg="http://www.w3.org/2000/svg"
   xmlns="http://www.w3.org/2000/svg"
   xmlns:sodipodi="http://sodipodi.sourceforge.net/DTD/sodipodi-0.dtd"
   xmlns:inkscape="http://www.inkscape.org/namespaces/inkscape"
   width="200"
   height="200"
   id="svg2"
   version="1.1"
   inkscape:version="0.48.0 r9654"
   sodipodi:docname="d15.svg">
  <defs
     id="defs4" />
  <sodipodi:namedview
     id="base"
     pagecolor="#ffffff"
     bordercolor="#666666"
     borderopacity="1.0"
     inkscape:pageopacity="0.0"
     inkscape:pageshadow="2"
     inkscape:zoom="1.4"
     inkscape:cx="59.254678"
     inkscape:cy="101.41252"
     inkscape:document-units="px"
     inkscape:current-layer="layer1"
     showgrid="false"
     inkscape:window-width="999"
     inkscape:window-height="738"
     inkscape:window-x="601"
     inkscape:window-y="125"
     inkscape:window-maximized="0" />
  <metadata
     id="metadata7">
    <rdf:RDF>
      <cc:Work
         rdf:about="">
        <dc:format>image/svg+xml</dc:format>
        <dc:type
           rdf:resource="http://purl.org/dc/dcmitype/StillImage" />
        <dc:title />
      </cc:Work>
    </rdf:RDF>
  </metadata>
  <g
     inkscape:label="Layer 1"
     inkscape:groupmode="layer"
     id="layer1"
     transform="translate(0,-852.36218)">
    <flowRoot
       xml:space="preserve"
       id="flowRoot2997"
       style="fill:#ffffff;stroke:#ffffff;stroke-opacity:1;stroke-width:1px;stroke-linejoin:miter;stroke-linecap:butt;fill-opacity:1;font-family:Sans;font-style:normal;font-weight:normal;font-size:20px;line-height:50%;letter-spacing:0px;word-spacing:0px"><flowRegion
         id="flowRegion2999"><rect
           id="rect3001"
           width="91.923882"
           height="90.408653"
           x="98.994949"
           y="95.954292"
           style="fill:#ffffff;stroke:#ffffff" /></flowRegion><flowPara
         id="flowPara3003" /></flowRoot>    <flowRoot
       xml:space="preserve"
       id="flowRoot3005"
       style="fill:#ffffff;stroke:#ffffff;stroke-opacity:1;stroke-width:1px;stroke-linejoin:miter;stroke-linecap:butt;fill-opacity:1;font-family:Sans;font-style:normal;font-weight:normal;font-size:20px;line-height:50%;letter-spacing:0px;word-spacing:0px"><flowRegion
         id="flowRegion3007"><rect
           id="rect3009"
           width="114.65231"
           height="87.378197"
           x="77.276672"
           y="103.02536"
           style="fill:#ffffff;stroke:#ffffff" /></flowRegion><flowPara
         id="flowPara3011" /></flowRoot>    <rect
       style="fill:#000000;fill-opacity:1;stroke:#000000;stroke-width:1;stroke-linecap:round;stroke-linejoin:round;stroke-miterlimit:4;stroke-opacity:1;stroke-dasharray:none;stroke-dashoffset:0"
       id="rect3002"
       width="199.12645"
       height="199.18976"
       x="0.56820697"
       y="0.4948993"
       transform="translate(0,852.36218)" />
    <flowRoot
       xml:space="preserve"
       id="flowRoot3013"
       style="font-size:20px;font-style:normal;font-weight:normal;line-height:50%;letter-spacing:0px;word-spacing:0px;fill:#ffffff;fill-opacity:1;stroke:#ffffff;font-family:Sans"
       transform="translate(-74.710102,937.94125)"><flowRegion
         id="flowRegion3015"><rect
           id="rect3017"
           width="110.6117"
           height="102.53048"
           x="236.88077"
           y="87.87307"
           style="fill:#ffffff;stroke:#ffffff" /></flowRegion><flowPara
         id="flowPara3019"
         style="font-size:56px;font-weight:bold;fill:#ffffff;stroke:#ffffff;-inkscape-font-specification:Sans Bold">2</flowPara></flowRoot>    <path
       style="fill:#ffffff;fill-opacity:1;stroke:#ffffff;stroke-width:1;stroke-linecap:round;stroke-linejoin:round;stroke-miterlimit:4;stroke-opacity:1;stroke-dasharray:none;stroke-dashoffset:0"
       id="path3129"
       d="m 42.256424,41.450087 c 1.179949,0.89489 2.464268,1.654435 3.716551,2.44709 1.627365,0.958996 3.099229,2.141858 4.667104,3.191026 1.248009,0.97552 2.638158,1.760582 3.983822,2.595152 2.199229,0.861814 3.951209,2.370264 5.643646,3.97104 1.707758,1.707236 3.474046,3.354932 5.177325,5.066168 1.084189,0.95329 2.188976,1.891291 3.037367,3.065737 0.855497,1.156494 1.78843,2.241148 2.707837,3.346705 0.986339,1.313722 2.228937,2.353501 3.261212,3.630675 1.226487,1.652002 2.930789,2.824831 4.533894,4.073881 1.362386,1.189306 2.86965,2.159456 4.353298,3.183461 1.489103,0.787411 2.95775,1.594591 4.375279,2.511017 1.37026,0.688442 2.288547,1.943068 3.441071,2.904974 0.138944,0.115964 1.881494,1.381035 1.968992,1.444759 1.968966,1.231898 3.858526,2.569201 5.858911,3.748244 1.925197,1.179279 3.765187,2.501551 5.560747,3.870398 1.38299,1.166618 2.74178,2.357474 4.14357,3.501527 1.07981,1.034961 2.21208,2.013315 3.30076,3.040074 1.12795,1.014329 2.32252,1.920103 3.58278,2.761081 1.32291,0.910114 2.5857,1.824934 3.61698,3.062094 1.05056,0.94969 1.71691,2.21093 2.61466,3.28399 0.92832,1.32901 2.2669,2.24623 3.52911,3.22508 1.51696,1.11274 2.42525,2.67573 3.35733,4.26931 1.50403,2.18017 3.28981,4.15167 5.12453,6.05567 2.2529,2.0842 4.62822,4.05283 7.0953,5.88123 1.84747,1.54331 3.8838,2.83777 5.78268,4.31299 1.8358,1.3981 3.61359,2.86926 5.45911,4.25356 1.42943,0.91954 2.50946,2.21516 3.71083,3.38619 1.02882,1.06312 1.71418,2.39297 2.58443,3.57761 0.2929,0.51149 0.64194,0.9345 1.11386,1.27926 0,0 -5.38543,3.36121 -5.38543,3.36121 l 0,0 c -0.4487,-0.42817 -0.8506,-0.88707 -1.15854,-1.43129 -0.83102,-1.16995 -1.53203,-2.44584 -2.51955,-3.49641 -1.16305,-1.17583 -2.26554,-2.40307 -3.65508,-3.32948 -1.79764,-1.43344 -3.5631,-2.90815 -5.409,-4.28073 -1.92064,-1.44265 -3.92657,-2.76944 -5.76428,-4.32225 -2.44576,-1.90027 -4.84579,-3.87254 -7.11712,-5.97733 -1.88622,-1.92631 -3.71905,-3.92658 -5.26773,-6.13877 -0.91727,-1.5073 -1.8116,-2.98956 -3.26123,-4.05205 -1.30531,-0.99974 -2.66446,-1.97406 -3.62951,-3.33058 -0.87794,-1.08654 -1.58547,-2.30862 -2.608,-3.27866 -1.00433,-1.17701 -2.2359,-2.05595 -3.51998,-2.91236 -1.28776,-0.85518 -2.47498,-1.82157 -3.62274,-2.8568 -1.09287,-1.005138 -2.22903,-1.962522 -3.29306,-2.998476 -1.38522,-1.143416 -2.69356,-2.374891 -4.083536,-3.513006 -1.777001,-1.357324 -3.603641,-2.659284 -5.522642,-3.808597 -2.002832,-1.196461 -3.892549,-2.558497 -5.858828,-3.814164 -0.56686,-0.404524 -1.488231,-1.043644 -2.029326,-1.499582 -1.123374,-0.946577 -2.05542,-2.134443 -3.406111,-2.78939 -1.441677,-0.89341 -2.953772,-1.649893 -4.408977,-2.51578 -1.500966,-1.016779 -2.957227,-2.069767 -4.349656,-3.23276 C 72.053268,74.892154 70.348169,73.65024 69.069047,71.988722 68.024186,70.728645 66.763701,69.695918 65.783106,68.380545 64.850773,67.271427 63.928736,66.1611 63.057632,65.003336 62.192804,63.881849 61.119885,62.960139 60.090558,61.993637 58.427783,60.263578 56.726445,58.571271 54.997435,56.90708 53.302408,55.329971 51.495905,53.986403 49.342162,53.0924 47.98243,52.262569 46.590668,51.46105 45.3404,50.471299 c -1.534561,-1.08046 -3.012437,-2.245318 -4.648391,-3.172322 -1.304648,-0.812192 -2.638364,-1.595979 -3.864359,-2.522133 0,0 5.428774,-3.326757 5.428774,-3.326757 z"
       inkscape:connector-curvature="0"
       transform="translate(0,852.36218)" />
    <path
       style="fill:#ffffff;fill-opacity:1;stroke:#ffffff;stroke-width:1;stroke-linecap:round;stroke-linejoin:round;stroke-miterlimit:4;stroke-opacity:1;stroke-dasharray:none;stroke-dashoffset:0"
       id="path3131"
       d="M 66.922157,31.14944 C 63.42687,31.082575 59.930744,31.068222 56.435008,31.035968 49.478606,30.639611 42.538478,30.024882 35.591288,29.50198 30.883127,29.251055 26.182151,29.009073 21.483452,28.618963 18.543048,28.229084 15.646451,27.495038 12.796098,26.681552 11.743449,26.345159 10.658506,26.12673 9.596733,25.824075 9.4155374,25.772426 9.2439424,25.685004 9.0585963,25.651146 c -0.087111,-0.01591 -0.3400725,0.07225 -0.26435,0.02634 1.8010827,-1.091983 3.6411597,-2.118316 5.4617387,-3.177475 0.760544,0.944019 1.659326,1.72621 2.412422,2.696798 1.384416,2.24573 1.890693,4.742134 2.181394,7.324644 0.496452,4.098094 0.742607,8.218229 1.271816,12.313224 0.605613,3.291175 0.748013,6.616273 0.700672,9.952963 -0.0089,1.493538 -0.05558,2.973379 -0.302762,4.447039 0,0 -5.661604,2.75816 -5.661604,2.75816 l 0,0 c 0.283339,-1.45548 0.386004,-2.91129 0.412097,-4.395422 0.136192,-3.330442 0.08922,-6.651934 -0.508726,-9.944863 -0.519401,-4.084189 -0.811831,-8.191868 -1.363057,-12.271892 -0.30589,-2.453516 -0.760442,-4.847395 -2.125331,-6.962889 -0.834612,-1.033143 -1.8917759,-1.815344 -2.6569452,-2.896259 1.7963652,-1.175161 3.5497312,-2.418834 5.3890952,-3.525483 0.01878,-0.0113 0.646481,0.234667 0.773708,0.276313 1.031328,0.337594 2.092034,0.576084 3.124663,0.909643 2.815532,0.790671 5.672826,1.511298 8.577677,1.873143 4.625786,0.437518 9.256688,0.746338 13.89473,1.028051 6.951939,0.576708 13.900674,1.247829 20.877209,1.452284 3.599858,-0.03239 7.20007,-0.04751 10.79951,-0.113472 0,0 -5.130396,3.727451 -5.130396,3.727451 z"
       inkscape:connector-curvature="0"
       transform="translate(0,852.36218)" />
  </g>
</svg>
