<?xml version="1.0" encoding="UTF-8" standalone="no"?>
<!-- Created with Inkscape (http://www.inkscape.org/) -->

<svg
   xmlns:dc="http://purl.org/dc/elements/1.1/"
   xmlns:cc="http://creativecommons.org/ns#"
   xmlns:rdf="http://www.w3.org/1999/02/22-rdf-syntax-ns#"
   xmlns:svg="http://www.w3.org/2000/svg"
   xmlns="http://www.w3.org/2000/svg"
   xmlns:sodipodi="http://sodipodi.sourceforge.net/DTD/sodipodi-0.dtd"
   xmlns:inkscape="http://www.inkscape.org/namespaces/inkscape"
   width="200"
   height="200"
   id="svg2"
   version="1.1"
   inkscape:version="0.48.0 r9654"
   sodipodi:docname="d3.svg">
  <defs
     id="defs4" />
  <sodipodi:namedview
     id="base"
     pagecolor="#ffffff"
     bordercolor="#666666"
     borderopacity="1.0"
     inkscape:pageopacity="0.0"
     inkscape:pageshadow="2"
     inkscape:zoom="1.4"
     inkscape:cx="59.254678"
     inkscape:cy="101.41252"
     inkscape:document-units="px"
     inkscape:current-layer="layer1"
     showgrid="false"
     inkscape:window-width="999"
     inkscape:window-height="738"
     inkscape:window-x="120"
     inkscape:window-y="100"
     inkscape:window-maximized="0" />
  <metadata
     id="metadata7">
    <rdf:RDF>
      <cc:Work
         rdf:about="">
        <dc:format>image/svg+xml</dc:format>
        <dc:type
           rdf:resource="http://purl.org/dc/dcmitype/StillImage" />
        <dc:title />
      </cc:Work>
    </rdf:RDF>
  </metadata>
  <g
     inkscape:label="Layer 1"
     inkscape:groupmode="layer"
     id="layer1"
     transform="translate(0,-852.36218)">
    <flowRoot
       xml:space="preserve"
       id="flowRoot2997"
       style="fill:#ffffff;stroke:#ffffff;stroke-opacity:1;stroke-width:1px;stroke-linejoin:miter;stroke-linecap:butt;fill-opacity:1;font-family:Sans;font-style:normal;font-weight:normal;font-size:20px;line-height:50%;letter-spacing:0px;word-spacing:0px"><flowRegion
         id="flowRegion2999"><rect
           id="rect3001"
           width="91.923882"
           height="90.408653"
           x="98.994949"
           y="95.954292"
           style="fill:#ffffff;stroke:#ffffff" /></flowRegion><flowPara
         id="flowPara3003" /></flowRoot>    <flowRoot
       xml:space="preserve"
       id="flowRoot3005"
       style="fill:#ffffff;stroke:#ffffff;stroke-opacity:1;stroke-width:1px;stroke-linejoin:miter;stroke-linecap:butt;fill-opacity:1;font-family:Sans;font-style:normal;font-weight:normal;font-size:20px;line-height:50%;letter-spacing:0px;word-spacing:0px"><flowRegion
         id="flowRegion3007"><rect
           id="rect3009"
           width="114.65231"
           height="87.378197"
           x="77.276672"
           y="103.02536"
           style="fill:#ffffff;stroke:#ffffff" /></flowRegion><flowPara
         id="flowPara3011" /></flowRoot>    <rect
       style="fill:#000000;fill-opacity:1;stroke:#000000;stroke-width:1;stroke-linecap:round;stroke-linejoin:round;stroke-miterlimit:4;stroke-opacity:1;stroke-dasharray:none;stroke-dashoffset:0"
       id="rect3002"
       width="199.12645"
       height="199.18976"
       x="0.56820697"
       y="0.4948993"
       transform="translate(0,852.36218)" />
    <flowRoot
       xml:space="preserve"
       id="flowRoot3013"
       style="font-size:20px;font-style:normal;font-weight:normal;line-height:50%;letter-spacing:0px;word-spacing:0px;fill:#ffffff;fill-opacity:1;stroke:#ffffff;font-family:Sans"
       transform="translate(-74.710102,937.94125)"><flowRegion
         id="flowRegion3015"><rect
           id="rect3017"
           width="110.6117"
           height="102.53048"
           x="236.88077"
           y="87.87307"
           style="fill:#ffffff;stroke:#ffffff" /></flowRegion><flowPara
         id="flowPara3019"
         style="font-size:56px;font-weight:bold;fill:#ffffff;stroke:#ffffff;-inkscape-font-specification:Sans Bold">2</flowPara></flowRoot>    <path
       style="fill:#ffffff;fill-opacity:1;stroke:#ffffff;stroke-width:1;stroke-linecap:round;stroke-linejoin:round;stroke-miterlimit:4;stroke-opacity:1;stroke-dasharray:none;stroke-dashoffset:0"
       id="path3269"
       d="m 16.014558,85.283396 c 3.078651,0.07395 6.158647,0.05296 9.237943,0.05765 3.248131,-7.04e-4 6.496256,-0.0083 9.744384,-0.01222 2.276018,-0.149747 4.516877,0.14535 6.766302,0.429217 1.775486,0.101214 3.507628,0.499024 5.271114,0.71096 2.547099,0.244475 5.109273,0.256905 7.665723,0.288253 3.478089,0.02845 6.956412,0.0212 10.434585,0.01391 3.496244,-0.0076 6.992465,0.0052 10.488716,-2.59e-4 3.213116,-0.215784 6.420432,-0.475842 9.638775,-0.604812 2.51177,0.04378 4.988852,-0.317473 7.474818,-0.612127 1.731099,-0.2068 3.476176,-0.236969 5.217486,-0.251397 2.400456,-0.0017 4.800906,0.0097 7.201356,0.01501 2.85955,0.0071 5.71911,0.0027 8.57864,0.01138 3.04642,0.0043 6.09284,3.41e-4 9.13926,-0.0016 3.10725,0.01004 6.21452,-9.95e-4 9.32177,0.0052 2.9409,-0.0091 5.86713,0.360053 8.80224,0.526059 2.80785,0.14482 5.6199,0.165079 8.4308,0.179779 2.50918,-4.55e-4 5.01834,-0.0069 7.52752,-0.0052 2.23615,0.0078 4.47222,-0.01722 6.70835,-0.01638 1.70907,-0.0024 3.41813,-0.0079 5.12719,-0.01077 1.26938,0.04001 2.61819,0.238761 3.81912,0.673304 0.1777,0.06404 0.3554,0.128088 0.53311,0.192131 0,0 -5.24675,3.547761 -5.24675,3.547761 l 0,0 c -0.17397,-0.05939 -0.34793,-0.118782 -0.52189,-0.178173 -1.19401,-0.325814 -2.43816,-0.560825 -3.67915,-0.532886 -1.69933,-0.0029 -3.39866,-0.0084 -5.098,-0.01029 -2.22347,0.0017 -4.44691,-0.02167 -6.6704,-0.01082 -2.50277,0.0051 -5.00557,0.0065 -7.50829,-0.01374 -2.81594,-0.018 -5.6333,-0.04391 -8.44518,-0.210984 -2.91943,-0.187576 -5.83426,-0.524333 -8.76201,-0.509178 -3.11202,0.0061 -6.22405,-0.0048 -9.33607,0.0052 -3.04467,-0.0019 -6.08934,-0.0059 -9.134,-0.0024 -2.86688,0.0076 -5.73377,0.0015 -8.60065,0.0042 -2.419081,0.0022 -4.838328,7.22e-4 -7.257187,0.0374 -1.727177,0.03622 -3.455538,0.08734 -5.172354,0.296173 -2.465969,0.276506 -4.930498,0.533623 -7.416707,0.513163 -3.213,0.143053 -6.415901,0.431612 -9.629009,0.565656 -3.499415,-0.0044 -6.998778,0.01 -10.498188,0.0075 -3.485085,-0.003 -6.970166,5.15e-4 -10.45525,-0.0058 -2.597993,-0.0123 -5.20281,-0.01574 -7.789633,-0.287483 -1.767473,-0.22676 -3.517429,-0.574883 -5.297612,-0.698664 -2.198927,-0.306726 -4.394513,-0.557455 -6.622138,-0.431296 -3.236915,-0.004 -6.473826,-0.01153 -9.710744,-0.01222 -3.132209,0.0048 -6.265046,-0.01508 -9.396648,0.05765 0,0 5.118658,-3.718923 5.118658,-3.718923 z"
       inkscape:connector-curvature="0"
       transform="translate(0,852.36218)" />
    <path
       style="fill:#ffffff;fill-opacity:1;stroke:#ffffff;stroke-width:1;stroke-linecap:round;stroke-linejoin:round;stroke-miterlimit:4;stroke-opacity:1;stroke-dasharray:none;stroke-dashoffset:0"
       id="path3273"
       d="m 164.42842,68.421959 c 1.30143,0.873466 2.55665,1.797192 3.75446,2.811034 1.55858,1.390732 3.08658,2.833361 4.8232,4.000595 1.90811,1.153379 3.93626,2.124138 5.93834,3.110774 1.83662,1.021708 3.67377,2.045985 5.57883,2.93834 1.69201,0.805216 3.36386,1.654841 5.06639,2.43761 1.11341,0.703699 2.35091,1.169833 3.40171,1.969547 0.56996,0.709109 0.28003,1.425984 -0.46424,1.865558 -4.8038,2.837166 -4.14368,2.483513 -6.74139,3.823806 -0.89181,0.292193 -1.73703,0.691415 -2.5688,1.121212 -0.31263,0.161547 -1.23924,0.667147 -0.9344,0.491337 5.16633,-2.979585 5.81308,-3.476748 3.67019,-1.963718 -1.58229,0.911825 -2.88172,2.187857 -4.30911,3.304099 -1.41158,0.982706 -2.59698,2.222763 -3.79212,3.447666 -0.97763,1.135071 -1.70596,2.451151 -2.57992,3.661121 -1.00807,1.18159 -2.25912,2.10932 -3.35546,3.2089 -0.88879,0.84248 -1.88883,1.56015 -2.85296,2.31453 0,0 -5.86428,2.32882 -5.86428,2.32882 l 0,0 c 0.99873,-0.70258 1.9219,-1.51162 2.90746,-2.22984 1.07443,-1.11642 2.23665,-2.10082 3.3745,-3.14013 0.97128,-1.15057 1.63769,-2.52286 2.5592,-3.71628 1.16184,-1.273172 2.38413,-2.514564 3.76926,-3.546834 1.45711,-1.098821 2.71437,-2.433895 4.32679,-3.32383 3.20222,-2.470616 6.86041,-4.295578 10.55837,-5.895633 2.35779,-1.230134 0.83635,-0.451417 -4.05105,2.424939 -0.24755,0.145689 1.7574,-0.781937 0.99728,-0.782514 -1.04141,-0.727537 -2.21183,-1.232977 -3.29397,-1.895239 -1.68322,-0.810578 -3.35626,-1.642375 -5.03488,-2.462365 -1.89466,-0.920207 -3.7468,-1.919101 -5.58181,-2.951099 -2.01132,-1.026165 -4.08583,-1.95819 -5.98429,-3.183183 -1.72919,-1.21423 -3.29636,-2.637866 -4.87973,-4.03372 -1.18425,-0.973473 -2.41577,-1.883125 -3.75374,-2.637658 0,0 5.31617,-3.497845 5.31617,-3.497845 z"
       inkscape:connector-curvature="0"
       transform="translate(0,852.36218)" />
  </g>
</svg>
