<?xml version="1.0" encoding="UTF-8" standalone="no"?>
<!-- Created with Inkscape (http://www.inkscape.org/) -->

<svg
   xmlns:dc="http://purl.org/dc/elements/1.1/"
   xmlns:cc="http://creativecommons.org/ns#"
   xmlns:rdf="http://www.w3.org/1999/02/22-rdf-syntax-ns#"
   xmlns:svg="http://www.w3.org/2000/svg"
   xmlns="http://www.w3.org/2000/svg"
   xmlns:sodipodi="http://sodipodi.sourceforge.net/DTD/sodipodi-0.dtd"
   xmlns:inkscape="http://www.inkscape.org/namespaces/inkscape"
   width="200"
   height="200"
   id="svg2"
   version="1.1"
   inkscape:version="0.48.0 r9654"
   sodipodi:docname="d6.svg">
  <defs
     id="defs4" />
  <sodipodi:namedview
     id="base"
     pagecolor="#ffffff"
     bordercolor="#666666"
     borderopacity="1.0"
     inkscape:pageopacity="0.0"
     inkscape:pageshadow="2"
     inkscape:zoom="1.4"
     inkscape:cx="59.254678"
     inkscape:cy="101.41252"
     inkscape:document-units="px"
     inkscape:current-layer="layer1"
     showgrid="false"
     inkscape:window-width="999"
     inkscape:window-height="738"
     inkscape:window-x="120"
     inkscape:window-y="100"
     inkscape:window-maximized="0" />
  <metadata
     id="metadata7">
    <rdf:RDF>
      <cc:Work
         rdf:about="">
        <dc:format>image/svg+xml</dc:format>
        <dc:type
           rdf:resource="http://purl.org/dc/dcmitype/StillImage" />
        <dc:title />
      </cc:Work>
    </rdf:RDF>
  </metadata>
  <g
     inkscape:label="Layer 1"
     inkscape:groupmode="layer"
     id="layer1"
     transform="translate(0,-852.36218)">
    <flowRoot
       xml:space="preserve"
       id="flowRoot2997"
       style="fill:#ffffff;stroke:#ffffff;stroke-opacity:1;stroke-width:1px;stroke-linejoin:miter;stroke-linecap:butt;fill-opacity:1;font-family:Sans;font-style:normal;font-weight:normal;font-size:20px;line-height:50%;letter-spacing:0px;word-spacing:0px"><flowRegion
         id="flowRegion2999"><rect
           id="rect3001"
           width="91.923882"
           height="90.408653"
           x="98.994949"
           y="95.954292"
           style="fill:#ffffff;stroke:#ffffff" /></flowRegion><flowPara
         id="flowPara3003" /></flowRoot>    <flowRoot
       xml:space="preserve"
       id="flowRoot3005"
       style="fill:#ffffff;stroke:#ffffff;stroke-opacity:1;stroke-width:1px;stroke-linejoin:miter;stroke-linecap:butt;fill-opacity:1;font-family:Sans;font-style:normal;font-weight:normal;font-size:20px;line-height:50%;letter-spacing:0px;word-spacing:0px"><flowRegion
         id="flowRegion3007"><rect
           id="rect3009"
           width="114.65231"
           height="87.378197"
           x="77.276672"
           y="103.02536"
           style="fill:#ffffff;stroke:#ffffff" /></flowRegion><flowPara
         id="flowPara3011" /></flowRoot>    <rect
       style="fill:#000000;fill-opacity:1;stroke:#000000;stroke-width:1;stroke-linecap:round;stroke-linejoin:round;stroke-miterlimit:4;stroke-opacity:1;stroke-dasharray:none;stroke-dashoffset:0"
       id="rect3002"
       width="199.12645"
       height="199.18976"
       x="0.56820697"
       y="0.4948993"
       transform="translate(0,852.36218)" />
    <flowRoot
       xml:space="preserve"
       id="flowRoot3013"
       style="font-size:20px;font-style:normal;font-weight:normal;line-height:50%;letter-spacing:0px;word-spacing:0px;fill:#ffffff;fill-opacity:1;stroke:#ffffff;font-family:Sans"
       transform="translate(-74.710102,937.94125)"><flowRegion
         id="flowRegion3015"><rect
           id="rect3017"
           width="110.6117"
           height="102.53048"
           x="236.88077"
           y="87.87307"
           style="fill:#ffffff;stroke:#ffffff" /></flowRegion><flowPara
         id="flowPara3019"
         style="font-size:56px;font-weight:bold;fill:#ffffff;stroke:#ffffff;-inkscape-font-specification:Sans Bold">2</flowPara></flowRoot>    <path
       style="fill:#ffffff;fill-opacity:1;stroke:#ffffff;stroke-width:1;stroke-linecap:round;stroke-linejoin:round;stroke-miterlimit:4;stroke-opacity:1;stroke-dasharray:none;stroke-dashoffset:0"
       id="path3009"
       d="m 177.57134,52.754044 c -1.82255,2.304268 -4.02301,4.250853 -6.27333,6.121963 -3.52377,3.002309 -7.51276,5.39247 -11.49145,7.733313 -5.62023,3.336595 -11.47381,6.256309 -17.35307,9.104886 -2.98836,1.535805 -6.00172,2.988885 -9.08211,4.330203 -3.31002,1.412667 -6.59504,2.886332 -9.82873,4.470846 -4.78254,2.330132 -9.78472,4.161113 -14.54469,6.532917 -3.77538,1.939015 -7.5884,3.800498 -11.310784,5.839643 -3.041581,1.674589 -6.077917,3.362535 -9.207531,4.868095 -3.162993,1.62395 -6.302966,3.29629 -9.521438,4.81081 -0.534296,0.26295 -1.076158,0.51105 -1.602889,0.78885 -7.969895,4.20329 18.048214,-10.079572 -4.501473,2.50652 -1.309705,0.73101 2.606434,-1.48503 3.909651,-2.22754 -2.226394,1.25255 -4.452788,2.50511 -6.679183,3.75766 -2.643853,1.37296 -5.345518,2.63259 -7.96772,4.04661 -2.063129,0.98782 -4.112983,1.99898 -6.205577,2.92324 -2.280291,1.11755 -4.486119,2.37992 -6.817436,3.38914 -2.192311,1.08685 -4.522533,1.80395 -6.810218,2.63896 -2.05281,0.53068 -4.097327,1.0786 -6.190484,1.42977 -1.755413,0.19677 -3.190268,1.19627 -4.821113,1.74264 -1.863191,0.43772 -3.76756,0.61265 -5.652556,0.92983 -1.728328,0.54546 -3.513147,0.85068 -5.192459,1.54541 -0.537536,0.25217 -1.129736,0.33433 -1.684847,0.53068 -0.248353,0.0878 -0.952998,0.44594 -0.725944,0.31236 1.590798,-0.93588 6.393242,-3.68996 4.82177,-2.72198 -1.972563,1.21505 -4.036785,2.27558 -6.025745,3.4636 -1.588377,0.94874 3.215857,-1.83044 4.823785,-2.74566 -2.334974,1.27776 -6.018481,6.57883 -7.78199,3.51899 -0.324858,-1.56411 -0.499101,-3.17389 -0.64498,-4.76809 -0.20339,-3.2343 -0.194583,-6.47707 -0.215436,-9.7163 -0.151262,-3.24038 -0.440225,-6.47163 -0.619143,-9.71087 -0.123371,-2.33833 -0.142873,-4.67915 -0.158131,-7.01997 -0.08353,-2.739581 0.249462,-5.461286 0.448051,-8.188408 0.173308,-2.332776 0.212464,-4.671821 0.249205,-7.009729 0.01792,-1.870415 0.0078,-3.740908 0.01329,-5.611354 -5.74e-4,-2.003775 0.0062,-4.00752 -0.0014,-6.011292 -0.0086,-1.642885 -0.01516,-3.285777 -0.01852,-4.928682 -0.0024,-1.436258 -0.0024,-2.872519 -0.0025,-4.308779 0.0084,-1.599365 0.0096,-3.198721 0.0067,-4.79812 -0.0033,-1.492378 -0.005,-2.984759 -0.0059,-4.477141 -6.95e-4,-1.429904 -6.72e-4,-2.859808 -6.83e-4,-4.289712 0.222221,-2.89042 2.081593,-2.399612 5.913305,-4.416501 0.247659,-0.13036 1.178412,0.630317 1.374503,0.748036 1.20497,0.850977 2.520725,1.520883 3.749727,2.335065 1.699437,1.033353 3.400283,2.05867 5.052963,3.168894 1.904158,1.441356 3.964265,2.666636 5.989681,3.928985 1.926437,1.01944 3.960232,1.800694 5.93582,2.719024 2.404585,1.261302 4.806647,2.531422 7.176564,3.857079 2.385897,1.265024 4.7449,2.580788 7.127194,3.856795 2.543288,1.615539 5.182812,3.064825 7.767733,4.610401 2.548511,1.617026 5.286844,2.875679 7.958271,4.266569 2.82956,1.446003 5.700116,2.810698 8.615001,4.078374 2.73109,1.159317 5.344427,2.57182 7.976897,3.934939 2.546703,1.169947 5.162377,2.175248 7.723778,3.31017 2.143511,0.811873 4.299373,1.5813 6.415803,2.467087 2.03854,0.822625 3.95573,1.91615 6.02833,2.650216 2.09672,0.848434 4.1653,1.776464 6.21794,2.730436 2.56018,1.011224 5.10725,2.044689 7.69194,2.991317 3.0146,1.055534 5.9456,2.332281 8.82974,3.700481 2.75592,1.40207 5.49137,2.82071 8.33996,4.02557 2.09954,0.92454 4.21651,1.84526 6.40516,2.54081 1.19251,0.53162 2.45151,0.8916 3.52236,1.65539 0.90765,0.74926 1.83783,1.39542 2.86848,1.96887 1.99708,1.19101 3.85996,2.57708 5.87552,3.7394 1.94009,1.09833 3.88535,2.18267 5.86226,3.21248 1.73475,0.99888 3.53063,1.8854 5.28622,2.84622 1.36946,0.77097 2.91067,1.07652 4.38621,1.56895 1.18283,0.29026 2.19166,0.99829 3.32105,1.43136 0.72937,0.39607 0.36695,0.20906 1.08644,0.56256 0,0 -5.28561,3.47865 -5.28561,3.47865 l 0,0 c -0.7063,-0.35713 -0.35516,-0.18184 -1.05331,-0.52605 -1.09913,-0.46916 -2.13338,-1.09891 -3.29935,-1.40069 -1.48908,-0.50976 -3.03953,-0.86099 -4.40008,-1.69048 -1.75479,-0.95222 -3.53667,-1.8536 -5.27158,-2.84203 -1.97644,-1.03119 -3.9047,-2.14886 -5.83238,-3.26846 -2.00471,-1.19125 -3.91435,-2.53215 -5.95108,-3.66955 -1.05568,-0.57154 -1.98799,-1.26384 -2.93296,-1.9964 -1.05318,-0.66563 -2.24256,-1.04737 -3.37799,-1.54697 -2.15884,-0.76595 -4.25616,-1.69951 -6.34278,-2.64146 -2.84612,-1.22108 -5.57721,-2.66538 -8.34528,-4.05152 -2.87416,-1.36079 -5.80328,-2.61238 -8.81344,-3.64301 -2.60576,-0.95044 -5.1799,-1.981 -7.75652,-3.007389 -2.0532,-0.928371 -4.10984,-1.85888 -6.20768,-2.679545 -2.05906,-0.78633 -3.995773,-1.852456 -6.043729,-2.670109 -2.118093,-0.869716 -4.27122,-1.641139 -6.392145,-2.499376 -2.569949,-1.126461 -5.17548,-2.170199 -7.717635,-3.359801 -2.624235,-1.35046 -5.231007,-2.746173 -7.946156,-3.908297 -2.91713,-1.288132 -5.798913,-2.659022 -8.637287,-4.111419 -2.689219,-1.38415 -5.433427,-2.663514 -7.989572,-4.292287 -2.576635,-1.550592 -5.203579,-3.01147 -7.776978,-4.567994 -2.383569,-1.272412 -4.729398,-2.613046 -7.116175,-3.877555 -2.363747,-1.318244 -4.766581,-2.568997 -7.179217,-3.794992 -2.011913,-0.901049 -4.082171,-1.681438 -6.001202,-2.775289 -2.020553,-1.280085 -4.04903,-2.554714 -5.996726,-3.943435 -1.666076,-1.095304 -3.380098,-2.107645 -5.085392,-3.139022 -1.24171,-0.784345 -2.537527,-1.478782 -3.771373,-2.276815 -0.155367,-0.08274 -0.56942,-0.345112 -0.800226,-0.341952 -0.0883,0.0012 -0.318801,0.150254 -0.243774,0.103688 1.687378,-1.047269 3.388899,-2.071576 5.083348,-3.107364 -0.09155,0.06324 -0.219673,0.09299 -0.274647,0.189733 -0.08543,0.150344 -0.07998,0.336469 -0.119972,0.504704 -1.1e-5,1.430136 1.1e-5,2.860272 -6.83e-4,4.290408 -9.23e-4,1.494401 -0.0026,2.9888 -0.0059,4.483197 -0.0029,1.597113 -0.0017,3.194183 0.0067,4.791262 -9.2e-5,1.437111 -1.38e-4,2.874223 -0.0025,4.311333 -0.0033,1.648984 -0.0098,3.297956 -0.01766,4.946924 -0.0065,2.002962 0.0019,4.005878 0.0055,6.008834 0.0085,1.874041 0.0073,3.748266 -0.01357,5.622215 -0.0311,2.362085 -0.148937,4.721727 -0.30408,7.078778 -0.203088,2.702451 -0.519624,5.40379 -0.414696,8.117615 0.0019,2.33993 0.0195,4.68059 0.09985,7.01928 0.12942,3.25887 0.392791,6.50892 0.568119,9.76533 0.02133,3.20521 0.04097,6.41565 0.295387,9.61252 0.153124,1.49995 0.398705,2.98254 0.638619,4.46811 0.05955,0.11136 0.02257,0.0992 0.11599,-0.0139 -1.725686,1.00718 -3.451371,2.01435 -5.177057,3.02152 -0.139097,0.0806 0.280746,-0.15894 0.408179,-0.25698 1.209949,-0.9308 -0.301077,0.0701 1.034046,-0.77705 1.986499,-1.17377 4.010951,-2.28555 5.959496,-3.5213 1.552349,-0.98448 -6.390146,3.63576 -4.770169,2.76704 3.130883,-1.67895 5.245853,-3.37087 8.422813,-4.26407 1.721684,-0.586 3.491271,-1.00804 5.255817,-1.44221 1.867474,-0.31977 3.782029,-0.42119 5.588598,-1.02952 1.597247,-0.6556 3.125832,-1.44877 4.87669,-1.64116 2.067482,-0.37996 4.107423,-0.90882 6.122006,-1.50531 2.286707,-0.76413 4.537999,-1.61836 6.725351,-2.63891 2.322922,-1.07269 4.548449,-2.33776 6.863958,-3.4265 2.05948,-0.93543 4.105041,-1.90628 6.128729,-2.91545 2.633408,-1.37938 5.315399,-2.66339 7.956497,-4.0281 -8.552804,5.09871 -0.959748,0.54926 2.755486,-1.52608 1.283896,-0.71719 -5.079159,2.96666 -3.79402,2.2517 3.290663,-1.83069 6.46193,-3.91747 9.887209,-5.50561 3.211781,-1.54632 6.359971,-3.219286 9.538418,-4.831953 3.100004,-1.534127 6.130778,-3.201125 9.161848,-4.86641 3.70513,-2.004404 7.49299,-3.848547 11.24839,-5.756419 4.80482,-2.316257 9.81238,-4.18292 14.58842,-6.56717 3.27035,-1.596685 6.59126,-3.086515 9.93505,-4.521381 3.04795,-1.332398 6.01696,-2.811084 8.99484,-4.292168 1.91766,-0.930247 3.81969,-1.885442 5.72136,-2.847738 0.69422,-0.351298 1.38977,-0.699991 2.08655,-1.046205 0.72034,-0.357926 2.76131,-1.605793 2.16478,-1.066201 -0.8607,0.778549 -1.98588,1.201693 -2.97882,1.80254 3.96069,-2.294009 7.92999,-4.657586 11.44284,-7.608725 2.19045,-1.797986 4.36554,-3.656123 6.10253,-5.912708 0,0 5.82621,-2.489178 5.82621,-2.489178 z"
       inkscape:connector-curvature="0"
       transform="translate(0,852.36218)" />
    <path
       style="fill:#ffffff;fill-opacity:1;stroke:#ffffff;stroke-width:1;stroke-linecap:round;stroke-linejoin:round;stroke-miterlimit:4;stroke-opacity:1;stroke-dasharray:none;stroke-dashoffset:0"
       id="path3011"
       d="m 179.39928,102.16437 c 1.45237,1.34793 2.48296,3.03382 3.63774,4.62213 1.6262,2.17219 3.13326,4.42693 4.65101,6.67533 1.52149,2.42126 3.06875,4.82498 4.62471,7.22434 0.86444,1.46698 1.8673,2.85324 2.6222,4.38301 0.68033,1.28314 1.2854,2.55929 0.88222,4.00885 -2.34246,3.03098 -6.44218,4.3894 -10.03856,5.52935 -2.45844,0.75771 -4.91558,1.52284 -7.38783,2.2385 -3.45024,0.93268 -7.01856,1.14722 -10.57157,1.28541 -3.54318,0.0859 -7.07329,0.4409 -10.60995,0.66211 -2.20505,0.12125 -4.41277,0.17637 -6.62078,0.1995 -1.91613,0.40488 -3.87592,0.48953 -5.82652,0.5767 -0.44369,0.0137 -0.88738,0.0274 -1.33107,0.0411 0,0 5.00441,-3.66368 5.00441,-3.66368 l 0,0 c 0.44461,-0.0185 0.88923,-0.037 1.33384,-0.0555 1.9782,-0.11829 3.93606,-0.35516 5.89997,-0.59612 2.17327,-0.0115 4.34699,-0.0441 6.51747,-0.16311 3.51591,-0.19303 7.02445,-0.52376 10.54574,-0.60414 3.55046,-0.17786 7.11678,-0.44545 10.54646,-1.45148 2.4888,-0.74062 4.96979,-1.51034 7.44063,-2.3073 0.88646,-0.30883 1.00828,-0.34348 1.87772,-0.67688 0.31303,-0.12003 1.21812,-0.54932 0.93583,-0.36847 -8.16509,5.23108 -5.26944,3.13533 -3.45383,2.01112 0.72986,-1.31802 -0.0534,-2.31478 -0.63209,-3.55053 -0.72018,-1.51841 -1.70373,-2.89151 -2.51492,-4.36054 -1.51365,-2.41754 -3.01394,-4.84374 -4.56482,-7.23762 -1.53196,-2.23203 -3.06104,-4.46575 -4.68949,-6.62916 -1.14624,-1.56599 -2.17863,-3.22711 -3.70729,-4.46622 0,0 5.42877,-3.32676 5.42877,-3.32676 z"
       inkscape:connector-curvature="0"
       transform="translate(0,852.36218)" />
  </g>
</svg>
