<?xml version="1.0" encoding="UTF-8" standalone="no"?>
<!-- Created with Inkscape (http://www.inkscape.org/) -->

<svg
   xmlns:dc="http://purl.org/dc/elements/1.1/"
   xmlns:cc="http://creativecommons.org/ns#"
   xmlns:rdf="http://www.w3.org/1999/02/22-rdf-syntax-ns#"
   xmlns:svg="http://www.w3.org/2000/svg"
   xmlns="http://www.w3.org/2000/svg"
   xmlns:sodipodi="http://sodipodi.sourceforge.net/DTD/sodipodi-0.dtd"
   xmlns:inkscape="http://www.inkscape.org/namespaces/inkscape"
   width="200"
   height="200"
   id="svg2"
   version="1.1"
   inkscape:version="0.48.0 r9654"
   sodipodi:docname="t0.svg">
  <defs
     id="defs4" />
  <sodipodi:namedview
     id="base"
     pagecolor="#ffffff"
     bordercolor="#666666"
     borderopacity="1.0"
     inkscape:pageopacity="0.0"
     inkscape:pageshadow="2"
     inkscape:zoom="1.4"
     inkscape:cx="59.254678"
     inkscape:cy="101.41252"
     inkscape:document-units="px"
     inkscape:current-layer="layer1"
     showgrid="false"
     inkscape:window-width="999"
     inkscape:window-height="738"
     inkscape:window-x="211"
     inkscape:window-y="123"
     inkscape:window-maximized="0" />
  <metadata
     id="metadata7">
    <rdf:RDF>
      <cc:Work
         rdf:about="">
        <dc:format>image/svg+xml</dc:format>
        <dc:type
           rdf:resource="http://purl.org/dc/dcmitype/StillImage" />
        <dc:title />
      </cc:Work>
    </rdf:RDF>
  </metadata>
  <g
     inkscape:label="Layer 1"
     inkscape:groupmode="layer"
     id="layer1"
     transform="translate(0,-852.36218)">
    <flowRoot
       xml:space="preserve"
       id="flowRoot2997"
       style="fill:#ffffff;stroke:#ffffff;stroke-opacity:1;stroke-width:1px;stroke-linejoin:miter;stroke-linecap:butt;fill-opacity:1;font-family:Sans;font-style:normal;font-weight:normal;font-size:20px;line-height:50%;letter-spacing:0px;word-spacing:0px"><flowRegion
         id="flowRegion2999"><rect
           id="rect3001"
           width="91.923882"
           height="90.408653"
           x="98.994949"
           y="95.954292"
           style="fill:#ffffff;stroke:#ffffff" /></flowRegion><flowPara
         id="flowPara3003" /></flowRoot>    <flowRoot
       xml:space="preserve"
       id="flowRoot3005"
       style="fill:#ffffff;stroke:#ffffff;stroke-opacity:1;stroke-width:1px;stroke-linejoin:miter;stroke-linecap:butt;fill-opacity:1;font-family:Sans;font-style:normal;font-weight:normal;font-size:20px;line-height:50%;letter-spacing:0px;word-spacing:0px"><flowRegion
         id="flowRegion3007"><rect
           id="rect3009"
           width="114.65231"
           height="87.378197"
           x="77.276672"
           y="103.02536"
           style="fill:#ffffff;stroke:#ffffff" /></flowRegion><flowPara
         id="flowPara3011" /></flowRoot>    <rect
       style="fill:#000000;fill-opacity:1;stroke:#000000;stroke-width:1;stroke-linecap:round;stroke-linejoin:round;stroke-miterlimit:4;stroke-opacity:1;stroke-dasharray:none;stroke-dashoffset:0"
       id="rect3002"
       width="199.12645"
       height="199.18976"
       x="0.56820697"
       y="0.4948993"
       transform="translate(0,852.36218)" />
    <path
       style="fill:#ffffff;fill-opacity:1;stroke:#ffffff;stroke-width:1;stroke-linecap:round;stroke-linejoin:round;stroke-miterlimit:4;stroke-opacity:1;stroke-dasharray:none;stroke-dashoffset:0"
       id="path3219"
       d="m 94.969734,179.64228 c -0.282918,-1.83947 -0.437462,-3.69637 -0.527509,-5.55438 -0.199392,-1.92981 0.106236,-3.83714 0.322552,-5.74889 0.270212,-2.64146 0.295709,-5.29944 0.326275,-7.95203 0.02532,-3.13907 0.02971,-6.27843 0.03043,-9.41763 -1.68e-4,-3.13332 -0.07303,-6.26217 0.166321,-9.38803 0.190166,-2.88546 0.640796,-5.74163 0.91046,-8.61944 0.515493,-3.44255 0.707671,-6.91656 1.018937,-10.37948 0.250954,-3.54752 0.743434,-7.06959 1.09176,-10.60739 0.173001,-2.96812 0.530698,-5.91939 0.78228,-8.88102 0.347862,-2.61748 0.675139,-5.233262 0.852069,-7.868398 0.120023,-2.260023 0.139303,-4.523993 0.141893,-6.786725 -0.0111,-2.364454 0.34354,-4.710292 0.51531,-7.065904 0.15257,-2.372991 0.17687,-4.751403 0.18102,-7.128466 0.0112,-2.2673 0.0242,-4.534606 0.022,-6.801925 0.009,-2.446067 0.003,-4.892024 -0.0151,-7.338025 0.005,-2.176147 0.007,-4.352176 -0.005,-6.528305 -0.0108,-1.625941 -0.0169,-3.251904 -0.0199,-4.877877 -0.002,-1.430135 -0.002,-2.860273 -0.002,-4.290409 6e-5,-1.425586 1.4e-4,-2.851173 1.8e-4,-4.276759 0.0175,-1.422781 0.0438,-2.83201 -0.17881,-4.239672 -0.28991,-1.671471 -0.33358,-3.360105 -0.658091,-5.026194 0,0 5.550791,-2.962488 5.550791,-2.962488 l 0,0 c 0.31753,1.670267 0.38673,3.360008 0.67807,5.034434 0.24732,1.439305 0.27169,2.870471 0.22795,4.330434 5e-5,1.425522 1.3e-4,2.851045 1.9e-4,4.276567 0,1.430796 1.3e-4,2.861593 -0.002,4.292388 -0.003,1.632732 -0.009,3.265456 -0.0199,4.898157 -0.0122,2.177821 -0.0109,4.355541 -0.005,6.533379 -0.017,2.450073 -0.0217,4.900096 -0.01,7.350218 8.9e-4,2.263299 0.0229,4.526576 0.0136,6.789896 -0.034,2.394828 -0.0763,4.790113 -0.20476,7.182097 -0.14663,2.342451 -0.48291,4.672805 -0.51065,7.018336 -0.0101,2.276757 -0.001,4.555312 -0.13946,6.828999 -0.1676,2.646548 -0.49405,5.273319 -0.88187,7.896122 -0.24544,2.96825 -0.63119,5.92224 -0.78702,8.8977 -0.39301,3.54148 -0.91555,7.0678 -1.14917,10.62557 -0.30758,3.45372 -0.44453,6.92472 -0.97331,10.35697 -0.24701,2.87344 -0.66981,5.72474 -0.87855,8.60149 -0.30268,3.11544 -0.2568,6.2339 -0.23365,9.36178 0.003,3.13638 0.0171,6.27273 7.5e-4,9.40909 -0.0233,2.65713 -0.0321,5.31881 -0.22922,7.96986 -0.18721,1.88563 -0.550388,3.76112 -0.36775,5.66325 0.0897,1.8161 0.18613,3.64417 0.56946,5.42658 0,0 -5.603936,2.99612 -5.603936,2.99612 z"
       inkscape:connector-curvature="0"
       transform="translate(0,852.36218)" />
    <path
       style="fill:#ffffff;fill-opacity:1;stroke:#ffffff;stroke-width:1;stroke-linecap:round;stroke-linejoin:round;stroke-miterlimit:4;stroke-opacity:1;stroke-dasharray:none;stroke-dashoffset:0"
       id="path3221"
       d="m 129.20693,47.661181 c -0.89261,-1.836836 -2.14364,-3.455366 -3.20682,-5.190507 -0.91912,-1.648803 -2.02691,-3.157733 -3.14902,-4.667298 -1.1019,-1.410212 -2.04409,-2.931459 -3.05416,-4.409092 -1.15861,-1.695961 -2.42252,-3.318125 -3.52399,-5.052372 -1.26816,-1.862745 -2.51735,-3.724651 -3.66604,-5.665125 -1.00822,-1.548777 -2.06331,-3.064477 -3.09239,-4.599115 -0.83099,-1.371087 -2.01358,-2.385471 -3.31751,-3.282663 -1.25008,-0.916376 -2.15619,-1.453745 -3.57618,-0.565647 8.30016,-4.9593693 4.74005,-3.080332 3.22645,-1.082152 -0.93735,1.237439 -1.81248,2.532341 -2.70689,3.800928 -2.21876,3.268168 -4.587001,6.434994 -7.27445,9.332264 -2.124909,2.332789 -4.387815,4.530413 -6.801054,6.562633 -1.980962,1.707765 -4.163207,3.152773 -6.220602,4.762147 -1.958119,1.625126 -3.986702,3.157469 -6.047251,4.649225 -1.755767,1.434928 -3.660402,2.662522 -5.489297,3.995712 0,0 -5.816935,2.316531 -5.816935,2.316531 l 0,0 c 1.791434,-1.40805 3.805633,-2.519297 5.528904,-4.026075 2.057592,-1.488616 4.110675,-2.981961 6.055293,-4.618353 2.018884,-1.669038 4.257007,-3.044465 6.239492,-4.761504 2.472523,-1.997494 4.774721,-4.195201 6.928283,-6.532933 2.725516,-2.823147 5.085485,-5.965201 7.261484,-9.22835 0.874532,-1.262777 1.76698,-2.511406 2.625913,-3.784823 0.25909,-0.384112 0.88833,-1.427692 1.34272,-1.716822 1.98655,-1.264053 4.05962,-2.386683 6.08943,-3.580025 1.63148,-0.4664927 2.65991,0.117446 3.9627,1.091159 1.32205,0.984314 2.53849,2.070107 3.41117,3.490437 1.03266,1.545297 2.08274,3.077239 3.06159,4.657925 1.14049,1.935889 2.42064,3.770889 3.6672,5.638132 1.11318,1.721015 2.37705,3.333782 3.53332,5.025316 1.00643,1.471569 1.96934,2.971217 3.0687,4.374791 1.11968,1.533411 2.19729,3.084191 3.12362,4.747357 1.05793,1.762226 2.3236,3.384136 3.34641,5.169553 0,0 -5.53009,3.148746 -5.53009,3.148746 z"
       inkscape:connector-curvature="0"
       transform="translate(0,852.36218)" />
    <text
       xml:space="preserve"
       style="font-size:20px;font-style:normal;font-weight:normal;line-height:50%;letter-spacing:0px;word-spacing:0px;fill:#000000;fill-opacity:1;stroke:none;font-family:Sans"
       x="162.30161"
       y="1048.4612"
       id="text3221"
       sodipodi:linespacing="50%"><tspan
         sodipodi:role="line"
         id="tspan3223"
         x="162.30161"
         y="1048.4612"
         style="font-size:56px;font-weight:bold;fill:#ffffff;stroke:#ffffff">3</tspan></text>
  </g>
</svg>
