<?xml version="1.0" encoding="UTF-8" standalone="no"?>
<!-- Created with Inkscape (http://www.inkscape.org/) -->

<svg
   xmlns:dc="http://purl.org/dc/elements/1.1/"
   xmlns:cc="http://creativecommons.org/ns#"
   xmlns:rdf="http://www.w3.org/1999/02/22-rdf-syntax-ns#"
   xmlns:svg="http://www.w3.org/2000/svg"
   xmlns="http://www.w3.org/2000/svg"
   xmlns:sodipodi="http://sodipodi.sourceforge.net/DTD/sodipodi-0.dtd"
   xmlns:inkscape="http://www.inkscape.org/namespaces/inkscape"
   width="200"
   height="200"
   id="svg2"
   version="1.1"
   inkscape:version="0.48.0 r9654"
   sodipodi:docname="t1.svg">
  <defs
     id="defs4" />
  <sodipodi:namedview
     id="base"
     pagecolor="#ffffff"
     bordercolor="#666666"
     borderopacity="1.0"
     inkscape:pageopacity="0.0"
     inkscape:pageshadow="2"
     inkscape:zoom="1.4"
     inkscape:cx="59.254678"
     inkscape:cy="101.41252"
     inkscape:document-units="px"
     inkscape:current-layer="layer1"
     showgrid="false"
     inkscape:window-width="999"
     inkscape:window-height="738"
     inkscape:window-x="120"
     inkscape:window-y="100"
     inkscape:window-maximized="0" />
  <metadata
     id="metadata7">
    <rdf:RDF>
      <cc:Work
         rdf:about="">
        <dc:format>image/svg+xml</dc:format>
        <dc:type
           rdf:resource="http://purl.org/dc/dcmitype/StillImage" />
        <dc:title />
      </cc:Work>
    </rdf:RDF>
  </metadata>
  <g
     inkscape:label="Layer 1"
     inkscape:groupmode="layer"
     id="layer1"
     transform="translate(0,-852.36218)">
    <flowRoot
       xml:space="preserve"
       id="flowRoot2997"
       style="fill:#ffffff;stroke:#ffffff;stroke-opacity:1;stroke-width:1px;stroke-linejoin:miter;stroke-linecap:butt;fill-opacity:1;font-family:Sans;font-style:normal;font-weight:normal;font-size:20px;line-height:50%;letter-spacing:0px;word-spacing:0px"><flowRegion
         id="flowRegion2999"><rect
           id="rect3001"
           width="91.923882"
           height="90.408653"
           x="98.994949"
           y="95.954292"
           style="fill:#ffffff;stroke:#ffffff" /></flowRegion><flowPara
         id="flowPara3003" /></flowRoot>    <flowRoot
       xml:space="preserve"
       id="flowRoot3005"
       style="fill:#ffffff;stroke:#ffffff;stroke-opacity:1;stroke-width:1px;stroke-linejoin:miter;stroke-linecap:butt;fill-opacity:1;font-family:Sans;font-style:normal;font-weight:normal;font-size:20px;line-height:50%;letter-spacing:0px;word-spacing:0px"><flowRegion
         id="flowRegion3007"><rect
           id="rect3009"
           width="114.65231"
           height="87.378197"
           x="77.276672"
           y="103.02536"
           style="fill:#ffffff;stroke:#ffffff" /></flowRegion><flowPara
         id="flowPara3011" /></flowRoot>    <rect
       style="fill:#000000;fill-opacity:1;stroke:#000000;stroke-width:1;stroke-linecap:round;stroke-linejoin:round;stroke-miterlimit:4;stroke-opacity:1;stroke-dasharray:none;stroke-dashoffset:0"
       id="rect3002"
       width="199.12645"
       height="199.18976"
       x="0.56820697"
       y="0.4948993"
       transform="translate(0,852.36218)" />
    <path
       style="fill:#ffffff;fill-opacity:1;stroke:#ffffff;stroke-width:1;stroke-linecap:round;stroke-linejoin:round;stroke-miterlimit:4;stroke-opacity:1;stroke-dasharray:none;stroke-dashoffset:0"
       id="path3297"
       d="m 95.025512,162.44416 c 0.06549,-1.97407 0.05213,-3.9499 0.04366,-5.92476 -2.02e-4,-2.20967 0.329472,-4.40423 0.513241,-6.60419 0.171296,-2.35276 0.19685,-4.71294 0.220091,-7.07083 0.01354,-2.73592 0.01491,-5.47188 0.01664,-8.20785 0.0055,-3.26484 0.01928,-6.52971 0.02051,-9.79456 -0.0057,-2.7645 -0.02721,-5.52897 -0.04955,-8.29338 -0.01529,-1.6693 -0.02312,-3.33864 -0.02686,-5.008 0.0073,-1.74456 0.01735,-3.48898 0.01263,-5.2336 -0.01227,-1.68846 -0.0019,-3.3769 -0.0036,-5.06537 0.01427,-1.780446 -0.0057,-3.560913 0.0024,-5.341365 -0.08165,-2.161792 0.228701,-4.302981 0.437149,-6.448751 0.18881,-2.093188 0.249234,-4.194511 0.276449,-6.295062 0.02185,-2.327527 0.03491,-4.655298 0.03367,-6.982934 0.02171,-2.829969 0.009,-5.659977 0.0024,-8.489958 -0.01127,-2.013227 -0.03056,-4.026394 -0.04095,-6.039627 0.0031,-1.729376 0.0048,-3.458746 0.0062,-5.18812 0.0219,-1.669153 -0.07157,-3.341252 0.06194,-5.006468 0.292069,-1.76964 0.463924,-3.550951 0.56957,-5.340287 0.104959,-2.203929 0.105541,-4.411182 0.09928,-6.617077 0.0112,-2.057516 -0.0017,-4.114977 -0.0142,-6.172448 0.007,-1.623229 -0.0707,-3.247857 0.06511,-4.866702 0.231558,-1.571621 0.436483,-3.144248 0.545945,-4.729363 0.01199,-0.24303 0.02399,-0.486061 0.03598,-0.729092 0,0 5.62981,-2.835669 5.62981,-2.835669 l 0,0 c -0.0108,0.246949 -0.0216,0.493899 -0.0323,0.740848 -0.0999,1.595108 -0.28524,3.180308 -0.55093,4.756737 -0.19187,1.595435 -0.05,3.209505 -0.10271,4.814036 -0.009,2.061788 -0.0172,4.123554 -0.008,6.18536 -0.0136,2.212541 -0.0126,4.425491 -0.0709,6.637443 -0.078,1.794953 -0.22872,3.586466 -0.5274,5.359553 -0.22931,1.636855 -0.0434,3.304667 -0.10896,4.953684 0.001,1.727282 0.003,3.45456 0.006,5.181843 -0.0104,2.026952 -0.0295,4.05384 -0.0401,6.08079 -0.005,2.827914 -0.0164,5.655864 0.009,8.483738 0.002,2.324071 0.0255,4.648138 0.007,6.972238 -0.0307,2.11826 -0.0688,4.238154 -0.27266,6.348491 -0.18937,2.122824 -0.53026,4.239464 -0.42337,6.37674 0.008,1.779633 -0.0119,3.559281 0.002,5.338912 -0.002,1.6897 0.009,3.37937 -0.004,5.06906 -0.005,1.74033 0.005,3.48047 0.0126,5.22074 -0.004,1.67849 -0.0117,3.35697 -0.0269,5.0354 -0.0223,2.78113 -0.0437,5.56233 -0.0491,8.34355 0.002,3.25683 0.0166,6.51368 0.0261,9.7705 0.005,2.73338 0.0149,5.46669 0.008,8.20009 -0.007,2.36656 -0.0135,4.73465 -0.17067,7.09718 -0.16739,2.18461 -0.52171,4.36003 -0.52201,6.55268 -0.008,1.96002 -0.0226,3.92108 0.0436,5.88027 0,0 -5.663258,2.88558 -5.663258,2.88558 z"
       inkscape:connector-curvature="0"
       transform="translate(0,852.36218)" />
    <path
       style="fill:#ffffff;fill-opacity:1;stroke:#ffffff;stroke-width:1;stroke-linecap:round;stroke-linejoin:round;stroke-miterlimit:4;stroke-opacity:1;stroke-dasharray:none;stroke-dashoffset:0"
       id="path3301"
       d="m 73.71413,155.56482 c 1.62157,1.0193 3.011743,2.34199 4.402345,3.6465 2.656028,2.28213 4.76545,5.08481 7.137916,7.64018 2.306727,2.31674 5.072559,4.09826 7.755262,5.94117 2.169819,1.33139 4.358655,2.68486 6.632676,3.83841 1.266421,0.55178 2.519351,1.12298 3.809661,1.61995 0.75774,0.24005 1.58273,0.5506 2.34303,0.13344 0.16116,-0.0884 0.59669,-0.42651 0.43514,-0.3388 -1.6549,0.89858 -3.28071,1.84971 -4.92107,2.77456 1.18139,-1.31907 2.0239,-2.90369 3.10498,-4.31329 1.79257,-2.43884 3.99483,-4.52426 6.22754,-6.5508 2.54249,-2.03601 5.01289,-4.16824 7.59431,-6.15604 2.2656,-1.88024 4.58262,-3.75197 6.47785,-6.01635 0.67759,-1.08344 2.14022,-2.44603 1.94556,-3.87587 0,0 5.6127,-3.02244 5.6127,-3.02244 l 0,0 c 0.43874,1.6099 -1.01731,3.23316 -1.84332,4.46127 -1.84887,2.34913 -4.20512,4.22189 -6.45877,6.16965 -2.61743,1.95297 -5.05753,4.13178 -7.64768,6.12001 -2.20344,1.98661 -4.41838,4.00361 -6.17369,6.41198 -1.10809,1.3982 -2.03769,2.89727 -2.9738,4.4097 -4.15395,2.51537 -5.1026,4.68555 -8.968899,3.3114 -1.292704,-0.52098 -2.561775,-1.08312 -3.809097,-1.70568 -2.23519,-1.24241 -4.422719,-2.59064 -6.580532,-3.95863 -2.702147,-1.88509 -5.509196,-3.68004 -7.802239,-6.07237 -2.339977,-2.56802 -4.462287,-5.3499 -7.17348,-7.55503 -1.394014,-1.23735 -2.774387,-2.55116 -4.442555,-3.41508 0,0 5.316162,-3.49784 5.316162,-3.49784 z"
       inkscape:connector-curvature="0"
       transform="translate(0,852.36218)" />
    <text
       xml:space="preserve"
       style="font-size:20px;font-style:normal;font-weight:normal;line-height:50%;letter-spacing:0px;word-spacing:0px;fill:#000000;fill-opacity:1;stroke:none;font-family:Sans"
       x="162.30162"
       y="1047.7469"
       id="text3221"
       sodipodi:linespacing="50%"><tspan
         sodipodi:role="line"
         id="tspan3223"
         x="162.30162"
         y="1047.7469"
         style="font-size:56px;font-weight:bold;fill:#ffffff;stroke:#ffffff">3</tspan></text>
  </g>
</svg>
