<?xml version="1.0" encoding="UTF-8" standalone="no"?>
<!-- Created with Inkscape (http://www.inkscape.org/) -->

<svg
   xmlns:dc="http://purl.org/dc/elements/1.1/"
   xmlns:cc="http://creativecommons.org/ns#"
   xmlns:rdf="http://www.w3.org/1999/02/22-rdf-syntax-ns#"
   xmlns:svg="http://www.w3.org/2000/svg"
   xmlns="http://www.w3.org/2000/svg"
   xmlns:sodipodi="http://sodipodi.sourceforge.net/DTD/sodipodi-0.dtd"
   xmlns:inkscape="http://www.inkscape.org/namespaces/inkscape"
   width="200"
   height="200"
   id="svg2"
   version="1.1"
   inkscape:version="0.48.0 r9654"
   sodipodi:docname="t11.svg">
  <defs
     id="defs4" />
  <sodipodi:namedview
     id="base"
     pagecolor="#ffffff"
     bordercolor="#666666"
     borderopacity="1.0"
     inkscape:pageopacity="0.0"
     inkscape:pageshadow="2"
     inkscape:zoom="1.4"
     inkscape:cx="59.254678"
     inkscape:cy="101.41252"
     inkscape:document-units="px"
     inkscape:current-layer="layer1"
     showgrid="false"
     inkscape:window-width="999"
     inkscape:window-height="738"
     inkscape:window-x="518"
     inkscape:window-y="165"
     inkscape:window-maximized="0" />
  <metadata
     id="metadata7">
    <rdf:RDF>
      <cc:Work
         rdf:about="">
        <dc:format>image/svg+xml</dc:format>
        <dc:type
           rdf:resource="http://purl.org/dc/dcmitype/StillImage" />
        <dc:title />
      </cc:Work>
    </rdf:RDF>
  </metadata>
  <g
     inkscape:label="Layer 1"
     inkscape:groupmode="layer"
     id="layer1"
     transform="translate(0,-852.36218)">
    <flowRoot
       xml:space="preserve"
       id="flowRoot2997"
       style="fill:#ffffff;stroke:#ffffff;stroke-opacity:1;stroke-width:1px;stroke-linejoin:miter;stroke-linecap:butt;fill-opacity:1;font-family:Sans;font-style:normal;font-weight:normal;font-size:20px;line-height:50%;letter-spacing:0px;word-spacing:0px"><flowRegion
         id="flowRegion2999"><rect
           id="rect3001"
           width="91.923882"
           height="90.408653"
           x="98.994949"
           y="95.954292"
           style="fill:#ffffff;stroke:#ffffff" /></flowRegion><flowPara
         id="flowPara3003" /></flowRoot>    <flowRoot
       xml:space="preserve"
       id="flowRoot3005"
       style="fill:#ffffff;stroke:#ffffff;stroke-opacity:1;stroke-width:1px;stroke-linejoin:miter;stroke-linecap:butt;fill-opacity:1;font-family:Sans;font-style:normal;font-weight:normal;font-size:20px;line-height:50%;letter-spacing:0px;word-spacing:0px"><flowRegion
         id="flowRegion3007"><rect
           id="rect3009"
           width="114.65231"
           height="87.378197"
           x="77.276672"
           y="103.02536"
           style="fill:#ffffff;stroke:#ffffff" /></flowRegion><flowPara
         id="flowPara3011" /></flowRoot>    <rect
       style="fill:#000000;fill-opacity:1;stroke:#000000;stroke-width:1;stroke-linecap:round;stroke-linejoin:round;stroke-miterlimit:4;stroke-opacity:1;stroke-dasharray:none;stroke-dashoffset:0"
       id="rect3002"
       width="199.12645"
       height="199.18976"
       x="0.56820697"
       y="0.4948993"
       transform="translate(0,852.36218)" />
    <path
       style="fill:#ffffff;fill-opacity:1;stroke:#ffffff;stroke-width:1;stroke-linecap:round;stroke-linejoin:round;stroke-miterlimit:4;stroke-opacity:1;stroke-dasharray:none;stroke-dashoffset:0"
       id="path3191"
       d="m 29.426843,25.274868 c 1.6462,0.03282 3.292881,0.01879 4.939306,0.02438 1.703813,0.0013 3.407621,-0.0041 5.11143,-0.007 1.460825,-0.0023 2.921651,-0.0027 4.382477,-0.003 1.760679,0.01043 3.521368,0.01188 5.282071,0.0086 1.737329,-0.01114 3.474622,0.0022 5.211941,0.0042 2.245734,0.0029 4.491463,0.0095 6.737196,0.01479 2.865525,0.003 5.731029,0.01282 8.596555,0.01377 3.195823,-0.01842 6.381946,-0.349197 9.572558,-0.529792 2.712987,-0.13587 5.429674,-0.174555 8.145502,-0.207296 1.884058,0.03589 3.740218,0.0066 5.60578,-0.247275 1.940328,-0.306907 3.904116,-0.379415 5.864511,-0.42927 2.22278,-0.08249 4.44975,0.04602 6.66677,-0.139554 2.23342,-0.262457 4.47313,-0.446141 6.71925,-0.547578 2.40742,-0.06573 4.81579,-0.05578 7.22382,-0.06253 2.40449,0.0037 4.80898,-0.0022 7.21347,-4.99e-4 1.98897,0.198093 3.9678,0.460903 5.96307,0.593211 1.58258,0.0926 3.16824,0.101385 4.75299,0.106166 1.61693,0.183288 3.1786,0.61742 4.76224,0.96866 1.51459,0.326753 3.06299,0.400528 4.60645,0.447208 1.71955,0.02918 3.43955,0.0264 5.15931,0.02204 1.91595,0.003 3.8319,0.0015 5.74785,-0.0043 1.57661,-0.0056 3.15322,-0.0083 4.72983,-0.0097 1.39219,-0.07436 2.81754,0.155092 4.18877,-0.124795 2.51195,-0.992036 -2.41152,0.93111 -4.89947,2.814191 -0.22816,0.172693 0.0646,0.895038 0.33147,0.791875 1.90777,-0.737376 3.56142,-2.012674 5.35769,-2.990805 0.26885,-0.146399 -0.46679,0.396665 -0.68879,0.60745 -1.25417,1.233363 -2.46232,2.512089 -3.75576,3.704592 -1.89179,1.687446 -3.84349,3.302741 -5.79065,4.925094 -1.9362,1.712334 -4.02739,3.240286 -5.91127,5.011376 -1.40334,1.388661 -2.91553,2.582952 -4.59438,3.616571 -2.12371,1.257668 -3.94844,2.944705 -5.84183,4.51254 -2.22133,1.605604 -4.53632,3.070209 -6.77343,4.653798 -2.23453,1.657209 -4.36777,3.445979 -6.53407,5.190273 -2.49515,1.931798 -4.91088,3.967981 -7.42012,5.880459 -2.29008,1.648238 -4.51024,3.420845 -6.34883,5.568789 -1.61152,2.222027 -3.61764,4.108539 -5.52568,6.069089 -2.2137,2.11499 -4.65086,3.95883 -7.08224,5.809857 -2.332213,1.692364 -4.538946,3.551715 -6.698389,5.457461 -2.197098,2.014286 -4.463556,3.952221 -6.776865,5.831444 -1.934421,1.516159 -3.83789,3.062678 -5.709342,4.655992 -1.988722,1.738522 -4.094175,3.319075 -6.195301,4.915775 -2.30876,1.69853 -4.659014,3.34103 -6.962489,5.04665 -2.638309,2.00576 -5.318871,3.95295 -7.98323,5.92305 -2.51292,1.7824 -4.854969,3.78368 -7.274684,5.68624 -1.800974,1.61538 -3.712213,3.10171 -5.523952,4.70323 -2.077341,1.93674 -4.342027,3.65559 -6.434739,5.57347 -1.880796,1.75711 -3.944956,3.28386 -5.787384,5.08307 -1.835959,1.80628 -3.632227,3.64926 -5.40348,5.51925 -1.48679,1.73061 -3.064991,3.37454 -4.432654,5.20309 -0.991428,1.45186 -2.002338,2.89099 -3.009779,4.33193 0.392482,-0.32704 -1.333272,1.55992 -0.701945,1.36276 0.509602,-0.15914 -0.294143,-0.0438 0.560049,-0.11929 1.478702,-0.064 2.957214,-0.12907 4.436757,-0.17034 1.724273,-0.038 3.449174,-0.033 5.173771,-0.035 1.918182,-0.004 3.813605,-0.37289 5.723985,-0.54014 1.716349,-0.14667 3.438815,-0.16606 5.16012,-0.17746 2.132466,-0.003 4.264899,0.01 6.397344,0.017 2.553422,-0.005 5.106851,0.003 7.660255,0.0134 3.566832,0.0151 7.133677,0.0242 10.700547,0.0212 3.369886,0.008 6.739711,-0.0147 10.109571,-0.0218 2.464223,1.5e-4 4.928417,-0.017 7.392632,-0.0181 1.710325,0.20152 3.407167,0.46668 5.126046,0.59299 1.711825,0.0425 3.44604,0.24091 5.147644,-8.6e-4 1.523077,-0.29463 3.058965,-0.47734 4.608422,-0.53335 2.36874,-0.0975 4.72401,-0.41908 7.09,-0.59427 2.39786,-0.17021 4.80366,-0.15971 7.20617,-0.16978 2.91375,0.0368 5.83146,-0.085 8.74016,0.10873 2.85235,0.27047 5.71097,0.44162 8.57407,0.53736 2.27608,0.0608 4.55313,0.0662 6.82986,0.0611 1.65704,-0.007 3.31407,-0.014 4.97111,-0.0176 0,0 -5.09861,3.70505 -5.09861,3.70505 l 0,0 c -1.64477,-7e-4 -3.28954,-0.002 -4.93429,-0.0112 -2.26716,-0.013 -4.53496,-0.0203 -6.80073,-0.10952 -2.85694,-0.11744 -5.70771,-0.32444 -8.55676,-0.56528 -2.9125,-0.14122 -5.83006,-0.0482 -8.74517,-0.0567 -2.39952,0.0178 -4.80053,0.0434 -7.19507,0.21485 -2.38222,0.18078 -4.751852,0.50319 -7.138527,0.61543 -1.54425,0.11721 -3.072776,0.33302 -4.603495,0.56513 -1.735077,0.10976 -3.476545,-0.009 -5.210891,-0.0948 -1.694015,-0.14974 -3.367955,-0.43994 -5.062096,-0.57668 -2.447589,-0.001 -4.895156,-0.0183 -7.342753,-0.0181 -3.349922,-0.007 -6.69981,-0.0296 -10.049761,-0.0217 -3.586114,-0.003 -7.172202,0.006 -10.758282,0.0207 -2.56336,0.0102 -5.126754,0.0173 -7.69012,0.008 -2.148377,0.005 -4.296817,0.008 -6.445121,0.0255 -1.707812,0.0207 -3.417,0.0592 -5.119012,0.21183 -1.91773,0.18721 -3.827002,0.53661 -5.759797,0.49621 -1.72798,0.005 -3.456166,0.014 -5.183545,0.0636 -1.506345,0.0474 -3.011354,0.14449 -4.518207,0.15872 -1.495244,-0.26472 -1.276755,-1.46365 -0.473688,-2.45136 1.082773,-1.39255 2.026614,-2.90656 3.041462,-4.34741 1.369493,-1.86289 2.949558,-3.52206 4.438667,-5.28816 1.780108,-1.86847 3.561876,-3.7329 5.404827,-5.53821 1.817291,-1.8485 3.864764,-3.39591 5.802762,-5.11001 2.047765,-1.96216 4.34231,-3.64019 6.415891,-5.57634 1.771183,-1.65142 3.734541,-3.08176 5.499662,-4.74324 2.455755,-1.9032 4.81689,-3.9246 7.348528,-5.72957 2.629673,-1.98681 5.326945,-3.88388 7.934476,-5.90224 2.27891,-1.73494 4.646829,-3.3556 6.963588,-5.03727 2.055248,-1.6207 4.206464,-3.11419 6.155385,-4.868188 1.884184,-1.608007 3.783984,-3.185306 5.751638,-4.690653 2.324599,-1.86836 4.608695,-3.788858 6.802749,-5.809737 2.13961,-1.925391 4.333096,-3.805465 6.66394,-5.495211 2.427604,-1.845818 4.87878,-3.654313 7.12236,-5.727227 1.89925,-1.94867 3.91455,-3.815153 5.52714,-6.013747 1.77747,-2.242576 4.00893,-4.059704 6.33013,-5.721607 2.53912,-1.859795 4.91022,-3.947856 7.41417,-5.856172 2.17372,-1.727702 4.28599,-3.533747 6.49807,-5.21282 2.22817,-1.599946 4.51915,-3.095027 6.79799,-4.618272 1.89599,-1.542592 3.67434,-3.26071 5.74324,-4.571214 1.07779,-0.633059 2.22783,-1.255023 3.14949,-2.110671 0.24787,-0.230126 0.45079,-0.506011 0.70084,-0.733777 0.25684,-0.233955 0.54416,-0.432085 0.81625,-0.648128 1.85006,-1.838466 3.99429,-3.334378 5.9381,-5.069007 1.9173,-1.626695 3.87682,-3.200809 5.74493,-4.885251 1.30417,-1.135591 2.47558,-2.408578 3.68718,-3.641201 1.90199,-1.983635 1.78638,-2.09261 6.30219,-3.90957 0.28213,-0.113513 0.75007,0.571934 0.5089,0.757184 -3.85172,2.958685 -3.66879,2.876774 -6.11867,3.290222 -1.40558,0.102115 -2.81763,0.02128 -4.22597,0.046 -1.56826,-0.0014 -3.13652,-0.004 -4.70478,-0.0081 -1.91722,-0.0038 -3.83443,-0.0019 -5.75163,0.0077 -1.72716,4.06e-4 -3.45465,0.01402 -5.1814,-0.03262 -1.56987,-0.05564 -3.13928,-0.18376 -4.67213,-0.547844 -1.55023,-0.36197 -3.10106,-0.755459 -4.69738,-0.846374 -1.58519,-0.01352 -3.17127,-0.03927 -4.75269,-0.158774 -1.97256,-0.159179 -3.92989,-0.450818 -5.90425,-0.579489 -2.40041,-9.77e-4 -4.80081,-0.0123 -7.20123,-0.0069 -2.41169,-9e-6 -4.82462,0.0066 -7.2346,0.105583 -2.23448,0.109214 -4.46035,0.316848 -6.6859,0.541407 -2.23094,0.129979 -4.466334,0.05514 -6.699651,0.133373 -1.957653,0.07346 -3.91284,0.193475 -5.850945,0.494563 -1.869938,0.228063 -3.744346,0.171319 -5.625651,0.168028 -2.688395,0.0075 -5.377296,0.04069 -8.062481,0.183468 -3.198655,0.174199 -6.39166,0.523933 -9.597219,0.50546 -2.878163,9.57e-4 -5.756304,0.01079 -8.634466,0.01377 -2.259304,0.0053 -4.518604,0.01188 -6.777909,0.01479 -1.74113,0.002 -3.482236,0.01527 -5.223376,0.0042 -1.768597,-0.0033 -3.53718,-0.0017 -5.305754,0.0086 -1.458069,-2.68e-4 -2.916138,-6.9e-4 -4.374206,-0.003 -1.697374,-0.0029 -3.394747,-0.0083 -5.092125,-0.007 -1.668797,0.0056 -3.337833,-0.0081 -5.006418,0.02438 0,0 5.142134,-3.735979 5.142134,-3.735979 z"
       inkscape:connector-curvature="0"
       transform="translate(0,852.36218)" />
    <path
       style="fill:#ffffff;fill-opacity:1;stroke:#ffffff;stroke-width:1;stroke-linecap:round;stroke-linejoin:round;stroke-miterlimit:4;stroke-opacity:1;stroke-dasharray:none;stroke-dashoffset:0"
       id="path3193"
       d="m 132.35086,129.83218 c 1.82286,0.74842 3.48692,1.84949 5.26072,2.71208 1.68367,0.8368 3.37754,1.64645 5.0652,2.47392 1.54863,0.90779 3.23187,1.55214 4.83622,2.35247 1.90201,0.75376 3.60296,1.89791 5.44462,2.77023 1.52682,0.42026 2.68288,1.51495 4.04472,2.25162 1.08838,0.7631 2.31804,1.29133 3.26637,2.23395 0.97328,1.18135 0.61233,2.3121 -0.2695,3.38739 -1.21258,1.61457 -2.02597,3.46348 -3.16949,5.13598 -1.33156,2.26129 -2.8996,4.36534 -4.63478,6.32971 -1.70479,1.69002 -3.38603,3.37889 -4.94707,5.2055 -1.69786,2.07546 -3.6265,3.92603 -5.60354,5.72929 -3.46357,3.08818 -7.52166,5.39356 -11.68514,7.42151 -1.60937,0.93629 -3.40062,1.50668 -5.0482,2.35047 -0.93552,0.35367 -0.49061,0.14716 -1.3377,0.61312 0,0 4.92442,-3.94125 4.92442,-3.94125 l 0,0 c 0.87942,-0.40325 0.43143,-0.20365 1.34434,-0.59799 1.68092,-0.72757 3.35866,-1.46187 4.98113,-2.31618 2.51427,-1.29938 1.19489,-0.63906 -3.17459,1.91119 -0.37572,0.21929 0.76724,-0.41248 1.13177,-0.64989 0.61222,-0.39873 1.51486,-1.13828 2.08195,-1.59662 0.34895,-0.28204 0.69563,-0.56687 1.04345,-0.85031 1.97254,-1.77645 3.92551,-3.57076 5.59957,-5.64137 1.56713,-1.83947 3.18212,-3.60435 4.96945,-5.23277 1.75775,-1.91683 3.37777,-3.97611 4.65355,-6.24976 0.0893,-0.12894 1.21677,-1.75067 1.32313,-1.93091 0.6196,-1.0499 0.92715,-2.27775 1.72283,-3.22128 0.70051,-0.7959 1.60596,-1.49284 0.70642,-2.54071 -0.93306,-0.86861 -2.12993,-1.37105 -3.16278,-2.11031 -1.31909,-0.77579 -2.51662,-1.75922 -3.99503,-2.24108 -1.81289,-0.92354 -3.5425,-2.00608 -5.43391,-2.7749 -1.62411,-0.77376 -3.30061,-1.44381 -4.86979,-2.32957 -1.68433,-0.81271 -3.3223,-1.7111 -5.01229,-2.51293 -1.76703,-0.88369 -3.45591,-1.96582 -5.33194,-2.60605 0,0 5.27589,-3.53455 5.27589,-3.53455 z"
       inkscape:connector-curvature="0"
       transform="translate(0,852.36218)" />
    <text
       xml:space="preserve"
       style="font-size:20px;font-style:normal;font-weight:normal;line-height:50%;letter-spacing:0px;word-spacing:0px;fill:#000000;fill-opacity:1;stroke:none;font-family:Sans"
       x="162.14287"
       y="1047.3623"
       id="text3221"
       sodipodi:linespacing="50%"><tspan
         sodipodi:role="line"
         id="tspan3223"
         x="162.14287"
         y="1047.3623"
         style="font-size:56px;font-weight:bold;fill:#ffffff;stroke:#ffffff">3</tspan></text>
  </g>
</svg>
