<?xml version="1.0" encoding="UTF-8" standalone="no"?>
<!-- Created with Inkscape (http://www.inkscape.org/) -->

<svg
   xmlns:dc="http://purl.org/dc/elements/1.1/"
   xmlns:cc="http://creativecommons.org/ns#"
   xmlns:rdf="http://www.w3.org/1999/02/22-rdf-syntax-ns#"
   xmlns:svg="http://www.w3.org/2000/svg"
   xmlns="http://www.w3.org/2000/svg"
   xmlns:sodipodi="http://sodipodi.sourceforge.net/DTD/sodipodi-0.dtd"
   xmlns:inkscape="http://www.inkscape.org/namespaces/inkscape"
   width="200"
   height="200"
   id="svg2"
   version="1.1"
   inkscape:version="0.48.0 r9654"
   sodipodi:docname="t12.svg">
  <defs
     id="defs4" />
  <sodipodi:namedview
     id="base"
     pagecolor="#ffffff"
     bordercolor="#666666"
     borderopacity="1.0"
     inkscape:pageopacity="0.0"
     inkscape:pageshadow="2"
     inkscape:zoom="1.4"
     inkscape:cx="59.254678"
     inkscape:cy="101.41252"
     inkscape:document-units="px"
     inkscape:current-layer="layer1"
     showgrid="false"
     inkscape:window-width="999"
     inkscape:window-height="738"
     inkscape:window-x="493"
     inkscape:window-y="158"
     inkscape:window-maximized="0" />
  <metadata
     id="metadata7">
    <rdf:RDF>
      <cc:Work
         rdf:about="">
        <dc:format>image/svg+xml</dc:format>
        <dc:type
           rdf:resource="http://purl.org/dc/dcmitype/StillImage" />
        <dc:title />
      </cc:Work>
    </rdf:RDF>
  </metadata>
  <g
     inkscape:label="Layer 1"
     inkscape:groupmode="layer"
     id="layer1"
     transform="translate(0,-852.36218)">
    <flowRoot
       xml:space="preserve"
       id="flowRoot2997"
       style="fill:#ffffff;stroke:#ffffff;stroke-opacity:1;stroke-width:1px;stroke-linejoin:miter;stroke-linecap:butt;fill-opacity:1;font-family:Sans;font-style:normal;font-weight:normal;font-size:20px;line-height:50%;letter-spacing:0px;word-spacing:0px"><flowRegion
         id="flowRegion2999"><rect
           id="rect3001"
           width="91.923882"
           height="90.408653"
           x="98.994949"
           y="95.954292"
           style="fill:#ffffff;stroke:#ffffff" /></flowRegion><flowPara
         id="flowPara3003" /></flowRoot>    <flowRoot
       xml:space="preserve"
       id="flowRoot3005"
       style="fill:#ffffff;stroke:#ffffff;stroke-opacity:1;stroke-width:1px;stroke-linejoin:miter;stroke-linecap:butt;fill-opacity:1;font-family:Sans;font-style:normal;font-weight:normal;font-size:20px;line-height:50%;letter-spacing:0px;word-spacing:0px"><flowRegion
         id="flowRegion3007"><rect
           id="rect3009"
           width="114.65231"
           height="87.378197"
           x="77.276672"
           y="103.02536"
           style="fill:#ffffff;stroke:#ffffff" /></flowRegion><flowPara
         id="flowPara3011" /></flowRoot>    <rect
       style="fill:#000000;fill-opacity:1;stroke:#000000;stroke-width:1;stroke-linecap:round;stroke-linejoin:round;stroke-miterlimit:4;stroke-opacity:1;stroke-dasharray:none;stroke-dashoffset:0"
       id="rect3002"
       width="199.12645"
       height="199.18976"
       x="0.56820697"
       y="0.4948993"
       transform="translate(0,852.36218)" />
    <text
       xml:space="preserve"
       style="font-size:20px;font-style:normal;font-weight:normal;line-height:50%;letter-spacing:0px;word-spacing:0px;fill:#000000;fill-opacity:1;stroke:none;font-family:Sans"
       x="162.14287"
       y="1047.3623"
       id="text3221"
       sodipodi:linespacing="50%"><tspan
         sodipodi:role="line"
         id="tspan3223"
         x="162.14287"
         y="1047.3623"
         style="font-size:56px;font-weight:bold;fill:#ffffff;stroke:#ffffff">3</tspan></text>
    <path
       style="fill:#ffffff;fill-opacity:1;stroke:#ffffff;stroke-width:1;stroke-linecap:round;stroke-linejoin:round;stroke-miterlimit:4;stroke-opacity:1;stroke-dasharray:none;stroke-dashoffset:0"
       id="path3065"
       d="m 18.029427,182.18682 c 0.83566,-2.50672 2.165412,-4.79796 3.403266,-7.11798 1.28235,-2.75911 2.954419,-5.29711 4.627177,-7.82839 1.563491,-2.45029 3.481635,-4.63615 5.45177,-6.76184 2.140429,-2.10724 4.286688,-4.20942 6.49613,-6.24453 1.83802,-1.57704 3.821285,-2.975 5.733093,-4.46064 2.041315,-1.59712 4.082933,-3.20171 6.026884,-4.91753 2.240595,-2.08633 4.55032,-4.09608 6.902335,-6.05527 2.728296,-2.47139 5.430158,-4.96325 8.065316,-7.53455 2.987805,-3.01589 5.985252,-6.00581 9.222941,-8.75546 3.016922,-2.39537 6.187546,-4.58106 9.472506,-6.58948 3.498549,-2.25568 6.941334,-4.58811 10.156365,-7.23493 2.789393,-2.40979 5.390319,-5.0231 8.10595,-7.5141 2.73314,-2.481457 5.5045,-4.925377 8.31654,-7.317492 2.56883,-1.94486 4.74415,-4.30605 6.8996,-6.683461 2.35273,-2.744576 4.79913,-5.401855 7.23691,-8.069826 1.97885,-2.176451 3.92614,-4.378953 5.84594,-6.607402 1.59557,-1.901115 3.23589,-3.763297 4.83716,-5.659592 1.40081,-1.688081 2.88818,-3.300057 4.41422,-4.874734 1.6982,-1.699244 3.22177,-3.560402 4.81865,-5.352925 1.23456,-1.381688 2.4249,-2.802623 3.62388,-4.21585 1.16013,-1.478724 2.53849,-2.739065 3.94821,-3.971259 1.51394,-1.330735 2.99836,-2.693546 4.50021,-4.037612 0.94011,-0.906513 1.57123,-2.054147 2.15729,-3.205362 0.49482,-0.858727 1.13636,-1.616351 1.67547,-2.444327 0,0 5.78386,-2.571385 5.78386,-2.571385 l 0,0 c -0.46319,0.880931 -1.12442,1.607503 -1.67694,2.431491 -0.69877,1.139884 -1.17359,2.432306 -2.12849,3.412629 -1.4783,1.382302 -3.03678,2.682703 -4.52074,4.062134 -1.39288,1.212037 -2.80448,2.400229 -3.94396,3.86665 -1.20885,1.432965 -2.44042,2.842862 -3.67143,4.255927 -1.61317,1.783173 -3.13495,3.649678 -4.80985,5.374714 -1.52293,1.574386 -3.03266,3.162984 -4.44206,4.841185 -1.60445,1.892193 -3.23735,3.755688 -4.82838,5.659103 -1.92534,2.271789 -3.95956,4.448023 -5.94346,6.669212 -2.42316,2.677593 -4.89779,5.304447 -7.23114,8.062989 -2.13183,2.400851 -4.25655,4.819508 -6.83983,6.753475 -2.85906,2.355393 -5.6148,4.842785 -8.37544,7.311444 -2.72128,2.496264 -5.33266,5.107104 -8.105607,7.546854 -3.204561,2.67587 -6.632643,5.03424 -10.125848,7.31821 -3.286082,1.98971 -6.45778,4.14339 -9.495049,6.4994 -3.277665,2.713 -6.30538,5.67843 -9.271674,8.7252 -2.614755,2.5613 -5.26724,5.0655 -7.959741,7.54358 -2.338975,1.95296 -4.669886,3.91906 -6.876528,6.02235 -1.918278,1.73207 -3.944422,3.34047 -5.972394,4.93847 -1.910226,1.50978 -3.899294,2.91511 -5.799742,4.43536 -2.215264,2.02713 -4.363713,4.12065 -6.525275,6.20436 -1.96871,2.10248 -3.90879,4.24715 -5.488326,6.6661 -1.668089,2.52178 -3.400459,5.01587 -4.661728,7.77654 -1.180994,2.27229 -2.525249,4.48427 -3.31656,6.93588 0,0 -5.711481,2.71267 -5.711481,2.71267 z"
       inkscape:connector-curvature="0"
       transform="translate(0,852.36218)" />
    <path
       style="fill:#ffffff;fill-opacity:1;stroke:#ffffff;stroke-width:1;stroke-linecap:round;stroke-linejoin:round;stroke-miterlimit:4;stroke-opacity:1;stroke-dasharray:none;stroke-dashoffset:0"
       id="path3067"
       d="m 124.25505,32.127294 c 0.17604,-0.107368 0.70752,-0.423753 0.52812,-0.322106 -1.57069,0.889929 -6.26427,3.592103 -4.70222,2.687091 2.06371,-1.195663 4.12683,-2.392674 6.20722,-3.559055 1.04883,-0.588028 2.20221,-1.048297 3.28856,-1.561996 3.44622,-1.518853 7.0987,-2.521567 10.74372,-3.440658 3.72644,-0.905537 7.45207,-1.813265 11.19875,-2.632103 2.54184,-0.546367 5.13167,-0.735411 7.72307,-0.829847 1.93483,-0.02647 3.84509,-0.3983 5.77007,-0.584634 1.60511,0.09063 3.01077,-0.523592 4.49988,-0.996753 1.5122,-0.512016 3.00114,-0.934765 4.59296,-1.108752 1.77011,-0.0819 3.46977,-0.689907 5.24646,-0.646362 1.96775,0.529855 1.81497,3.036102 2.01331,4.675306 0.39925,3.328508 0.51616,6.679885 0.58658,10.028543 0.0657,4.163601 0.0322,8.327757 0.0421,12.491647 0.008,3.292789 0.0303,6.585438 0.0658,9.87803 0.002,2.082149 0.0116,4.164247 0.0231,6.246365 0.0655,1.313229 -0.20626,2.606532 -0.39831,3.898315 0,0 -5.65748,2.779716 -5.65748,2.779716 l 0,0 c 0.18356,-1.271322 0.49604,-2.537858 0.46221,-3.827994 0.0116,-2.090523 0.0221,-4.181029 0.0257,-6.271579 0.039,-3.316709 0.0672,-6.633484 0.0771,-9.950428 0.009,-4.151759 -0.009,-8.303888 -0.0824,-12.455062 -0.0855,-3.314237 -0.18888,-6.635705 -0.64176,-9.924333 -0.14436,-0.995464 -0.0659,-2.699525 -0.75599,-3.540435 -0.24535,-0.298972 -0.5071,-0.261489 -0.85839,-0.314274 -1.73972,0.09162 -3.432,0.573943 -5.17209,0.686436 -1.56132,0.249927 -3.04307,0.736199 -4.54673,1.216029 -1.4973,0.49712 -2.97229,0.895943 -4.56875,0.879683 -1.91665,0.198018 -3.82443,0.530978 -5.7564,0.526626 -2.55003,0.101402 -5.09668,0.321392 -7.59456,0.871173 -3.71714,0.814733 -7.42701,1.658001 -11.11551,2.595484 -3.66609,0.951027 -7.33398,2.001701 -10.77223,3.613639 -0.5752,0.275175 -1.74713,0.832846 -2.33449,1.125013 -0.3304,0.164348 -1.30147,0.694819 -0.98594,0.503466 9.85101,-5.974146 1.48981,-0.596792 -2.12086,1.238886 0,0 4.96943,-3.975077 4.96943,-3.975077 z"
       inkscape:connector-curvature="0"
       transform="translate(0,852.36218)" />
  </g>
</svg>
