<?xml version="1.0" encoding="UTF-8" standalone="no"?>
<!-- Created with Inkscape (http://www.inkscape.org/) -->

<svg
   xmlns:dc="http://purl.org/dc/elements/1.1/"
   xmlns:cc="http://creativecommons.org/ns#"
   xmlns:rdf="http://www.w3.org/1999/02/22-rdf-syntax-ns#"
   xmlns:svg="http://www.w3.org/2000/svg"
   xmlns="http://www.w3.org/2000/svg"
   xmlns:sodipodi="http://sodipodi.sourceforge.net/DTD/sodipodi-0.dtd"
   xmlns:inkscape="http://www.inkscape.org/namespaces/inkscape"
   width="200"
   height="200"
   id="svg2"
   version="1.1"
   inkscape:version="0.48.0 r9654"
   sodipodi:docname="t13.svg">
  <defs
     id="defs4" />
  <sodipodi:namedview
     id="base"
     pagecolor="#ffffff"
     bordercolor="#666666"
     borderopacity="1.0"
     inkscape:pageopacity="0.0"
     inkscape:pageshadow="2"
     inkscape:zoom="1.4"
     inkscape:cx="59.254678"
     inkscape:cy="101.41252"
     inkscape:document-units="px"
     inkscape:current-layer="layer1"
     showgrid="false"
     inkscape:window-width="997"
     inkscape:window-height="738"
     inkscape:window-x="494"
     inkscape:window-y="154"
     inkscape:window-maximized="0" />
  <metadata
     id="metadata7">
    <rdf:RDF>
      <cc:Work
         rdf:about="">
        <dc:format>image/svg+xml</dc:format>
        <dc:type
           rdf:resource="http://purl.org/dc/dcmitype/StillImage" />
        <dc:title />
      </cc:Work>
    </rdf:RDF>
  </metadata>
  <g
     inkscape:label="Layer 1"
     inkscape:groupmode="layer"
     id="layer1"
     transform="translate(0,-852.36218)">
    <flowRoot
       xml:space="preserve"
       id="flowRoot2997"
       style="fill:#ffffff;stroke:#ffffff;stroke-opacity:1;stroke-width:1px;stroke-linejoin:miter;stroke-linecap:butt;fill-opacity:1;font-family:Sans;font-style:normal;font-weight:normal;font-size:20px;line-height:50%;letter-spacing:0px;word-spacing:0px"><flowRegion
         id="flowRegion2999"><rect
           id="rect3001"
           width="91.923882"
           height="90.408653"
           x="98.994949"
           y="95.954292"
           style="fill:#ffffff;stroke:#ffffff" /></flowRegion><flowPara
         id="flowPara3003" /></flowRoot>    <flowRoot
       xml:space="preserve"
       id="flowRoot3005"
       style="fill:#ffffff;stroke:#ffffff;stroke-opacity:1;stroke-width:1px;stroke-linejoin:miter;stroke-linecap:butt;fill-opacity:1;font-family:Sans;font-style:normal;font-weight:normal;font-size:20px;line-height:50%;letter-spacing:0px;word-spacing:0px"><flowRegion
         id="flowRegion3007"><rect
           id="rect3009"
           width="114.65231"
           height="87.378197"
           x="77.276672"
           y="103.02536"
           style="fill:#ffffff;stroke:#ffffff" /></flowRegion><flowPara
         id="flowPara3011" /></flowRoot>    <rect
       style="fill:#000000;fill-opacity:1;stroke:#000000;stroke-width:1;stroke-linecap:round;stroke-linejoin:round;stroke-miterlimit:4;stroke-opacity:1;stroke-dasharray:none;stroke-dashoffset:0"
       id="rect3002"
       width="199.12645"
       height="199.18976"
       x="0.56820697"
       y="0.4948993"
       transform="translate(0,852.36218)" />
    <text
       xml:space="preserve"
       style="font-size:20px;font-style:normal;font-weight:normal;line-height:50%;letter-spacing:0px;word-spacing:0px;fill:#000000;fill-opacity:1;stroke:none;font-family:Sans"
       x="162.14287"
       y="1047.3623"
       id="text3221"
       sodipodi:linespacing="50%"><tspan
         sodipodi:role="line"
         id="tspan3223"
         x="162.14287"
         y="1047.3623"
         style="font-size:56px;font-weight:bold;fill:#ffffff;stroke:#ffffff">3</tspan></text>
    <path
       style="fill:#ffffff;fill-opacity:1;stroke:#ffffff;stroke-width:1;stroke-linecap:round;stroke-linejoin:round;stroke-miterlimit:4;stroke-opacity:1;stroke-dasharray:none;stroke-dashoffset:0"
       id="path3061"
       d="m 17.970647,15.73584 c 1.256697,0.773841 2.271241,1.801602 3.32108,2.825349 1.466812,1.520862 2.977099,3.008151 4.500346,4.4789 1.560925,1.601473 3.306229,2.999741 4.996676,4.458389 1.655089,1.431848 2.930397,3.242455 4.284144,4.949957 1.488669,2.234634 3.6549,3.658178 5.83511,5.136576 2.869774,2.009111 5.742525,4.012766 8.49395,6.182619 2.611665,2.235843 5.358925,4.308097 8.132485,6.337535 2.273439,1.613447 4.571565,3.167592 6.767028,4.887825 1.801574,1.478522 3.633355,2.921351 5.321208,4.529574 1.559971,1.535753 3.273093,2.855226 5.072841,4.097862 1.756981,1.274056 3.53331,2.51319 5.349941,3.699974 1.670329,1.085265 3.195774,2.326595 4.631451,3.703037 1.771492,2.034093 3.461521,4.136414 5.195411,6.203689 2.064922,2.511417 4.334671,4.876025 6.694687,7.114376 2.147679,1.991627 4.567325,3.644197 6.842255,5.483649 1.94793,1.519657 3.90208,3.018155 5.69858,4.718946 1.16512,1.260991 2.52598,2.322486 3.71628,3.555077 1.00796,1.032301 2.11308,1.910986 3.26041,2.781356 1.35886,1.17445 2.88468,2.13206 4.20567,3.34926 1.47584,1.48604 2.84921,3.06526 4.18673,4.67519 1.92483,2.0061 4.04409,3.80438 6.05545,5.71852 1.775,1.68804 3.19204,3.70323 4.66729,5.6485 1.20353,1.7699 2.88228,3.09435 4.36577,4.60476 1.13992,1.07495 2.31869,2.10664 3.56766,3.05207 0.97279,0.73992 1.37881,1.91444 2.06206,2.8828 0.80107,0.93271 1.70599,1.7545 2.61031,2.5887 1.023,0.92578 2.31783,1.38391 3.56584,1.92201 0.71834,0.43026 0.37272,0.25867 1.02509,0.53785 0,0 -5.29521,3.49376 -5.29521,3.49376 l 0,0 c -0.6288,-0.33939 -0.30072,-0.16016 -0.98372,-0.53867 -1.29483,-0.58524 -2.644,-1.08603 -3.68812,-2.08868 -0.94123,-0.8592 -1.86649,-1.73598 -2.6982,-2.70121 -0.62886,-0.92811 -1.02358,-2.031 -1.93731,-2.73343 -1.23945,-0.99362 -2.4535,-2.02152 -3.57872,-3.14486 -1.49113,-1.53279 -3.14885,-2.90954 -4.36946,-4.69076 -1.47214,-1.90669 -2.82863,-3.92159 -4.58375,-5.58682 -2.02005,-1.9408 -4.17446,-3.73972 -6.12011,-5.76084 -1.32975,-1.58643 -2.72545,-3.11196 -4.19292,-4.57267 -1.31515,-1.19185 -2.81956,-2.15247 -4.1784,-3.29417 -1.18284,-0.87596 -2.30663,-1.79227 -3.3289,-2.85517 -1.18732,-1.21587 -2.49061,-2.31864 -3.64577,-3.569067 -1.77277,-1.694601 -3.72205,-3.166353 -5.629217,-4.703113 -2.283778,-1.845689 -4.71192,-3.513206 -6.838132,-5.545444 -2.365882,-2.265385 -4.640564,-4.650967 -6.737998,-7.164998 -1.742038,-2.037426 -3.427953,-4.123566 -5.241046,-6.097853 -1.417085,-1.339228 -2.938475,-2.537253 -4.568678,-3.610011 -1.811905,-1.19823 -3.582153,-2.453949 -5.342444,-3.726593 -1.805075,-1.281835 -3.569994,-2.593601 -5.134071,-4.168939 -1.675055,-1.585144 -3.470526,-3.037935 -5.247614,-4.506329 -2.186967,-1.718466 -4.4999,-3.237273 -6.739285,-4.884641 -2.750617,-2.057878 -5.454249,-4.181156 -8.090264,-6.3841 -2.760002,-2.14653 -5.624388,-4.151419 -8.517981,-6.11336 -2.250545,-1.489284 -4.434954,-3.003601 -5.987293,-5.263806 -1.353945,-1.661391 -2.585066,-3.456477 -4.22956,-4.851019 -1.696371,-1.468345 -3.447799,-2.876403 -5.012527,-4.489336 -1.524952,-1.474651 -3.044344,-2.956549 -4.538384,-4.459021 -1.059698,-1.034211 -2.151319,-1.983854 -3.399318,-2.78652 0,0 5.428649,-3.32668 5.428649,-3.32668 z"
       inkscape:connector-curvature="0"
       transform="translate(0,852.36218)" />
    <path
       style="fill:#ffffff;fill-opacity:1;stroke:#ffffff;stroke-width:1;stroke-linecap:round;stroke-linejoin:round;stroke-miterlimit:4;stroke-opacity:1;stroke-dasharray:none;stroke-dashoffset:0"
       id="path3063"
       d="m 165.07872,101.62457 c 0.86762,1.53445 1.34338,3.23657 1.68641,4.95344 0.38373,2.182 0.82407,4.33526 1.37784,6.48076 0.80609,2.82493 1.37338,5.71909 1.85822,8.61529 0.34405,2.35124 0.83668,4.67523 1.13871,7.03329 0.20597,1.64547 0.22681,3.3035 0.23781,4.95901 0.008,1.72372 -0.004,3.4474 -0.003,5.17114 0.0205,1.50095 0.15349,2.96675 -0.52289,4.34358 -2.45928,2.9447 -6.35508,4.25339 -9.92376,5.34361 -2.78737,0.62156 -5.48226,1.52912 -8.07234,2.72589 -2.05631,1.05407 -4.27155,1.68783 -6.47409,2.34338 -2.62667,0.94875 -5.26958,1.84007 -7.98896,2.48551 -2.32723,0.5547 -4.71236,0.69612 -7.0946,0.75129 -2.1976,0.0392 -4.39563,0.018 -6.59346,0.0185 -1.37808,0.0563 -2.77369,-0.12641 -4.13439,0.1245 0,0 5.0605,-3.77342 5.0605,-3.77342 l 0,0 c 1.37628,-0.0931 2.7565,-0.0162 4.13511,-0.0258 2.18807,0.0144 4.37648,0.0236 6.56426,-0.0228 2.3444,-0.0862 4.68998,-0.25771 6.97538,-0.826 2.71895,-0.69337 5.35771,-1.62539 8.00838,-2.53886 2.17886,-0.65393 4.33943,-1.36813 6.38554,-2.37681 2.63755,-1.14225 5.36711,-1.99888 8.15491,-2.69707 0.59743,-0.18987 1.51578,-0.46854 2.11171,-0.706 0.28374,-0.11306 1.09428,-0.53875 0.83506,-0.3772 -8.41658,5.24537 -5.4798,3.36949 -3.73429,2.10573 0.93076,-1.18686 0.70639,-2.61324 0.70879,-4.04624 0.007,-1.72187 0.006,-3.44369 0.004,-5.16557 -0.0123,-1.63697 -0.0323,-3.27651 -0.18725,-4.90744 -0.25351,-2.36625 -0.72897,-4.69407 -1.0429,-7.0514 -0.46581,-2.87645 -1.03368,-5.75017 -1.8728,-8.54246 -0.56931,-2.14993 -1.0433,-4.30329 -1.45079,-6.48945 -0.30076,-1.66416 -0.71933,-3.33799 -1.67719,-4.7597 0,0 5.52996,-3.14867 5.52996,-3.14867 z"
       inkscape:connector-curvature="0"
       transform="translate(0,852.36218)" />
  </g>
</svg>
