<?xml version="1.0" encoding="UTF-8" standalone="no"?>
<!-- Created with Inkscape (http://www.inkscape.org/) -->

<svg
   xmlns:dc="http://purl.org/dc/elements/1.1/"
   xmlns:cc="http://creativecommons.org/ns#"
   xmlns:rdf="http://www.w3.org/1999/02/22-rdf-syntax-ns#"
   xmlns:svg="http://www.w3.org/2000/svg"
   xmlns="http://www.w3.org/2000/svg"
   xmlns:sodipodi="http://sodipodi.sourceforge.net/DTD/sodipodi-0.dtd"
   xmlns:inkscape="http://www.inkscape.org/namespaces/inkscape"
   width="200"
   height="200"
   id="svg2"
   version="1.1"
   inkscape:version="0.48.0 r9654"
   sodipodi:docname="t14.svg">
  <defs
     id="defs4" />
  <sodipodi:namedview
     id="base"
     pagecolor="#ffffff"
     bordercolor="#666666"
     borderopacity="1.0"
     inkscape:pageopacity="0.0"
     inkscape:pageshadow="2"
     inkscape:zoom="1.4"
     inkscape:cx="59.254678"
     inkscape:cy="101.41252"
     inkscape:document-units="px"
     inkscape:current-layer="layer1"
     showgrid="false"
     inkscape:window-width="999"
     inkscape:window-height="738"
     inkscape:window-x="498"
     inkscape:window-y="155"
     inkscape:window-maximized="0" />
  <metadata
     id="metadata7">
    <rdf:RDF>
      <cc:Work
         rdf:about="">
        <dc:format>image/svg+xml</dc:format>
        <dc:type
           rdf:resource="http://purl.org/dc/dcmitype/StillImage" />
        <dc:title />
      </cc:Work>
    </rdf:RDF>
  </metadata>
  <g
     inkscape:label="Layer 1"
     inkscape:groupmode="layer"
     id="layer1"
     transform="translate(0,-852.36218)">
    <flowRoot
       xml:space="preserve"
       id="flowRoot2997"
       style="fill:#ffffff;stroke:#ffffff;stroke-opacity:1;stroke-width:1px;stroke-linejoin:miter;stroke-linecap:butt;fill-opacity:1;font-family:Sans;font-style:normal;font-weight:normal;font-size:20px;line-height:50%;letter-spacing:0px;word-spacing:0px"><flowRegion
         id="flowRegion2999"><rect
           id="rect3001"
           width="91.923882"
           height="90.408653"
           x="98.994949"
           y="95.954292"
           style="fill:#ffffff;stroke:#ffffff" /></flowRegion><flowPara
         id="flowPara3003" /></flowRoot>    <flowRoot
       xml:space="preserve"
       id="flowRoot3005"
       style="fill:#ffffff;stroke:#ffffff;stroke-opacity:1;stroke-width:1px;stroke-linejoin:miter;stroke-linecap:butt;fill-opacity:1;font-family:Sans;font-style:normal;font-weight:normal;font-size:20px;line-height:50%;letter-spacing:0px;word-spacing:0px"><flowRegion
         id="flowRegion3007"><rect
           id="rect3009"
           width="114.65231"
           height="87.378197"
           x="77.276672"
           y="103.02536"
           style="fill:#ffffff;stroke:#ffffff" /></flowRegion><flowPara
         id="flowPara3011" /></flowRoot>    <rect
       style="fill:#000000;fill-opacity:1;stroke:#000000;stroke-width:1;stroke-linecap:round;stroke-linejoin:round;stroke-miterlimit:4;stroke-opacity:1;stroke-dasharray:none;stroke-dashoffset:0"
       id="rect3002"
       width="199.12645"
       height="199.18976"
       x="0.56820697"
       y="0.4948993"
       transform="translate(0,852.36218)" />
    <text
       xml:space="preserve"
       style="font-size:20px;font-style:normal;font-weight:normal;line-height:50%;letter-spacing:0px;word-spacing:0px;fill:#000000;fill-opacity:1;stroke:none;font-family:Sans"
       x="162.14287"
       y="1047.3623"
       id="text3221"
       sodipodi:linespacing="50%"><tspan
         sodipodi:role="line"
         id="tspan3223"
         x="162.14287"
         y="1047.3623"
         style="font-size:56px;font-weight:bold;fill:#ffffff;stroke:#ffffff">3</tspan></text>
    <path
       style="fill:#ffffff;fill-opacity:1;stroke:#ffffff;stroke-width:1;stroke-linecap:round;stroke-linejoin:round;stroke-miterlimit:4;stroke-opacity:1;stroke-dasharray:none;stroke-dashoffset:0"
       id="path3055"
       d="m 186.97057,14.752333 c -2.07043,2.128208 -3.94621,4.437646 -5.9677,6.615727 -4.12562,4.255111 -8.39436,8.369256 -12.67532,12.46718 -4.88783,4.676473 -9.85898,9.269388 -14.98836,13.679705 -4.99586,4.070198 -10.02867,8.095881 -14.97276,12.22915 -3.11402,2.489315 -6.06112,5.185519 -8.80468,8.077181 -2.50333,2.708289 -4.9218,5.491785 -7.36149,8.256886 -2.78579,3.178247 -5.5394,6.383826 -8.40519,9.491179 -2.55267,2.801916 -4.95972,5.729882 -7.63682,8.415288 -2.73054,2.535413 -5.44236,5.084926 -8.095234,7.701121 -2.134041,2.38602 -4.657261,4.36062 -6.992588,6.53487 -2.130392,1.94843 -4.26457,3.88502 -6.227748,6.0037 -1.845265,1.87532 -3.574437,3.85357 -5.490697,5.65778 -2.037406,1.92958 -4.022504,3.90235 -5.944627,5.94687 -2.00707,2.35972 -3.952864,4.76801 -5.988478,7.10481 -2.069715,2.1461 -3.983442,4.43523 -5.819994,6.78207 -1.600576,2.01004 -3.238838,4.0048 -5.028333,5.85093 -1.887655,1.70047 -3.556343,3.60121 -5.151159,5.57138 -1.654477,1.93417 -3.228685,3.93266 -5.000123,5.76222 -1.397734,1.34795 -2.940029,2.52767 -4.457623,3.7336 0,0 -5.809508,2.33468 -5.809508,2.33468 l 0,0 c 1.50259,-1.23387 3.097695,-2.35554 4.524445,-3.68438 1.802991,-1.80035 3.376128,-3.78798 5.039959,-5.71527 1.604366,-1.96109 3.172961,-3.95736 5.104661,-5.62037 1.843185,-1.79015 3.458264,-3.81247 5.089051,-5.79257 1.824505,-2.36866 3.732642,-4.68684 5.827741,-6.82219 2.029354,-2.34495 4.034664,-4.70435 5.974429,-7.12388 1.908062,-2.04795 3.86233,-4.03873 5.887373,-5.97006 1.943153,-1.78067 3.682251,-3.74357 5.529195,-5.62098 1.95791,-2.14362 4.065007,-4.12556 6.235781,-6.05345 2.307258,-2.21806 4.900914,-4.12872 7.026239,-6.53728 2.680132,-2.60655 5.359164,-5.20987 8.136838,-7.715085 2.71263,-2.644435 5.09187,-5.5898 7.64072,-8.38956 2.89557,-3.082968 5.65917,-6.28061 8.42219,-9.480925 2.43269,-2.754186 4.81665,-5.550266 7.30617,-8.254075 2.75359,-2.961876 5.75447,-5.697714 8.9259,-8.206664 4.99544,-4.15642 10.09007,-8.192396 15.13576,-12.287387 5.12863,-4.357262 10.02771,-8.979589 14.90796,-13.612349 4.25525,-4.044976 8.47925,-8.125133 12.53588,-12.370831 1.97183,-2.111864 3.79757,-4.342265 5.68578,-6.52247 0,0 5.88236,-2.436551 5.88236,-2.436551 z"
       inkscape:connector-curvature="0"
       transform="translate(0,852.36218)" />
    <path
       style="fill:#ffffff;fill-opacity:1;stroke:#ffffff;stroke-width:1;stroke-linecap:round;stroke-linejoin:round;stroke-miterlimit:4;stroke-opacity:1;stroke-dasharray:none;stroke-dashoffset:0"
       id="path3057"
       d="m 26.403059,130.41299 c 0.0838,1.9836 -0.163717,3.88593 -0.645012,5.80649 -0.801279,2.82368 -1.497586,5.67084 -2.119628,8.53917 -0.690899,3.08509 -1.402477,6.16534 -2.3386,9.18621 -0.813411,2.66593 -1.831562,5.2591 -2.401613,7.99257 -0.439939,2.18904 -0.993197,4.3505 -1.602153,6.49786 -0.560959,1.8239 -0.759312,3.71831 -0.877569,5.61351 -0.08619,1.94255 -0.07139,3.88813 -0.06675,5.83215 0.01865,1.24028 -0.241314,2.64776 0.767529,3.56545 1.163967,0.1142 2.300789,-0.2917 3.400458,-0.62529 2.25428,-0.74084 4.369914,-1.7438 6.430164,-2.91651 -1.348122,0.77633 -2.695551,1.55386 -4.044367,2.32899 -0.435708,0.25039 0.869561,-0.504 1.30504,-0.75478 3.510741,-2.0218 6.982136,-3.93543 10.514343,-5.87338 -1.405838,0.8077 -2.809623,1.61898 -4.217515,2.42309 -0.361644,0.20655 0.717256,-0.42354 1.078731,-0.63039 2.116705,-1.21123 4.222377,-2.44221 6.355759,-3.62383 0.843989,-0.46746 1.797085,-0.72082 2.671558,-1.12594 1.506895,-1.01722 3.289279,-1.41091 5.006467,-1.92086 2.319637,-0.75933 4.545697,-1.77162 6.856766,-2.55617 1.647924,-0.72782 3.388695,-1.2681 5.139979,-1.69388 1.582099,-0.45621 3.134277,-1.01028 4.723265,-1.44084 1.429128,-0.35449 2.902751,-0.41821 4.367633,-0.45768 1.415177,-0.0104 2.816399,-0.18085 4.149994,0.35893 0,0 -5.234587,3.54417 -5.234587,3.54417 l 0,0 c -1.304465,-0.36007 -2.666056,-0.17513 -4.005174,-0.178 -1.437324,0.0616 -2.879799,0.16828 -4.268266,0.57423 -1.572979,0.47006 -3.134922,0.9759 -4.716917,1.41649 -1.725929,0.47282 -3.430276,1.03372 -5.085055,1.71597 -2.296629,0.81654 -4.534622,1.79609 -6.861822,2.52637 -1.730544,0.52505 -3.43688,1.0853 -5.00163,2.01327 -0.54854,0.22626 -1.10634,0.43064 -1.648374,0.67207 -0.320358,0.14269 -1.245827,0.642 -0.946852,0.45868 3.3444,-2.05061 6.061861,-3.52358 3.219041,-1.88064 -2.13411,1.23336 -4.270896,2.46209 -6.406344,3.69313 -0.533268,0.29201 -1.999709,1.09781 -2.509164,1.36481 -0.449676,0.23567 -1.789897,0.95653 -1.357841,0.68993 1.291469,-0.7969 2.625889,-1.52199 3.939031,-2.28265 0.432152,-0.25033 -0.86404,0.50112 -1.29606,0.75167 -2.183137,1.25937 -4.366274,2.51874 -6.549411,3.7781 -2.112779,1.1418 -4.276474,2.14948 -6.578297,2.85498 -1.24992,0.3453 -2.655855,0.86414 -3.850738,0.10891 -1.034055,-1.14963 -0.998183,-2.55169 -0.930445,-4.03252 -0.0017,-1.95373 -0.0058,-3.90762 0.04685,-5.86088 0.08732,-1.93911 0.287352,-3.88453 0.839881,-5.75304 0.623343,-2.13217 1.1816,-4.2787 1.627343,-6.45618 0.56332,-2.77996 1.621419,-5.39055 2.464726,-8.09194 0.94848,-2.99459 1.632868,-6.05777 2.329605,-9.1189 0.608841,-2.87104 1.29855,-5.71987 2.083194,-8.54764 0.477602,-1.8492 0.761998,-3.6842 0.579565,-5.59969 0,0 5.663261,-2.88557 5.663261,-2.88557 z"
       inkscape:connector-curvature="0"
       transform="translate(0,852.36218)" />
  </g>
</svg>
