<?xml version="1.0" encoding="UTF-8" standalone="no"?>
<!-- Created with Inkscape (http://www.inkscape.org/) -->

<svg
   xmlns:dc="http://purl.org/dc/elements/1.1/"
   xmlns:cc="http://creativecommons.org/ns#"
   xmlns:rdf="http://www.w3.org/1999/02/22-rdf-syntax-ns#"
   xmlns:svg="http://www.w3.org/2000/svg"
   xmlns="http://www.w3.org/2000/svg"
   xmlns:sodipodi="http://sodipodi.sourceforge.net/DTD/sodipodi-0.dtd"
   xmlns:inkscape="http://www.inkscape.org/namespaces/inkscape"
   width="200"
   height="200"
   id="svg2"
   version="1.1"
   inkscape:version="0.48.0 r9654"
   sodipodi:docname="t15.svg">
  <defs
     id="defs4" />
  <sodipodi:namedview
     id="base"
     pagecolor="#ffffff"
     bordercolor="#666666"
     borderopacity="1.0"
     inkscape:pageopacity="0.0"
     inkscape:pageshadow="2"
     inkscape:zoom="1.4"
     inkscape:cx="59.254678"
     inkscape:cy="101.41252"
     inkscape:document-units="px"
     inkscape:current-layer="layer1"
     showgrid="false"
     inkscape:window-width="999"
     inkscape:window-height="738"
     inkscape:window-x="518"
     inkscape:window-y="165"
     inkscape:window-maximized="0" />
  <metadata
     id="metadata7">
    <rdf:RDF>
      <cc:Work
         rdf:about="">
        <dc:format>image/svg+xml</dc:format>
        <dc:type
           rdf:resource="http://purl.org/dc/dcmitype/StillImage" />
        <dc:title />
      </cc:Work>
    </rdf:RDF>
  </metadata>
  <g
     inkscape:label="Layer 1"
     inkscape:groupmode="layer"
     id="layer1"
     transform="translate(0,-852.36218)">
    <flowRoot
       xml:space="preserve"
       id="flowRoot2997"
       style="fill:#ffffff;stroke:#ffffff;stroke-opacity:1;stroke-width:1px;stroke-linejoin:miter;stroke-linecap:butt;fill-opacity:1;font-family:Sans;font-style:normal;font-weight:normal;font-size:20px;line-height:50%;letter-spacing:0px;word-spacing:0px"><flowRegion
         id="flowRegion2999"><rect
           id="rect3001"
           width="91.923882"
           height="90.408653"
           x="98.994949"
           y="95.954292"
           style="fill:#ffffff;stroke:#ffffff" /></flowRegion><flowPara
         id="flowPara3003" /></flowRoot>    <flowRoot
       xml:space="preserve"
       id="flowRoot3005"
       style="fill:#ffffff;stroke:#ffffff;stroke-opacity:1;stroke-width:1px;stroke-linejoin:miter;stroke-linecap:butt;fill-opacity:1;font-family:Sans;font-style:normal;font-weight:normal;font-size:20px;line-height:50%;letter-spacing:0px;word-spacing:0px"><flowRegion
         id="flowRegion3007"><rect
           id="rect3009"
           width="114.65231"
           height="87.378197"
           x="77.276672"
           y="103.02536"
           style="fill:#ffffff;stroke:#ffffff" /></flowRegion><flowPara
         id="flowPara3011" /></flowRoot>    <rect
       style="fill:#000000;fill-opacity:1;stroke:#000000;stroke-width:1;stroke-linecap:round;stroke-linejoin:round;stroke-miterlimit:4;stroke-opacity:1;stroke-dasharray:none;stroke-dashoffset:0"
       id="rect3002"
       width="199.12645"
       height="199.18976"
       x="0.56820697"
       y="0.4948993"
       transform="translate(0,852.36218)" />
    <text
       xml:space="preserve"
       style="font-size:20px;font-style:normal;font-weight:normal;line-height:50%;letter-spacing:0px;word-spacing:0px;fill:#000000;fill-opacity:1;stroke:none;font-family:Sans"
       x="162.14287"
       y="1047.3623"
       id="text3221"
       sodipodi:linespacing="50%"><tspan
         sodipodi:role="line"
         id="tspan3223"
         x="162.14287"
         y="1047.3623"
         style="font-size:56px;font-weight:bold;fill:#ffffff;stroke:#ffffff">3</tspan></text>
    <path
       style="fill:#ffffff;fill-opacity:1;stroke:#ffffff;stroke-width:1;stroke-linecap:round;stroke-linejoin:round;stroke-miterlimit:4;stroke-opacity:1;stroke-dasharray:none;stroke-dashoffset:0"
       id="path3045"
       d="m 153.4279,146.87769 c -1.2583,-2.05715 -2.79705,-3.93232 -4.41468,-5.71512 -2.18622,-1.99391 -4.08654,-4.2584 -6.02656,-6.48266 -2.20177,-2.58696 -4.49339,-5.07416 -6.92524,-7.44616 -2.04529,-1.99676 -4.11886,-3.97365 -6.07488,-6.05866 -1.96609,-2.01384 -4.04321,-3.91278 -6.14069,-5.78752 -1.80888,-1.72306 -3.55124,-3.51213 -5.37321,-5.2213 -1.95108,-1.77768 -3.78239,-3.65318 -5.84727,-5.30249 -2.38105,-1.99779 -4.72323,-4.03701 -7.16827,-5.956965 -1.80862,-1.521 -3.37101,-3.29715 -4.8219,-5.155147 C 99.034257,91.9447 97.049617,90.552761 95.18656,89.036323 93.399878,87.647825 91.839567,86.022728 90.261512,84.412804 88.601088,82.614834 86.588544,81.212581 84.601809,79.802726 82.291022,78.07509 79.934231,76.408745 77.545647,74.790522 75.289327,73.336686 73.349392,71.468514 71.15648,69.930664 69.180431,68.341631 66.999266,67.03612 64.967951,65.532308 62.761414,64.168049 60.551099,62.8064 58.43762,61.300826 56.528713,59.857504 54.747745,58.25979 52.837802,56.817081 c -1.730233,-1.135186 -3.427836,-2.328528 -5.056136,-3.603896 -1.566211,-1.216343 -3.07223,-2.527257 -4.463211,-3.94219 -1.18311,-1.517346 -2.367179,-3.008739 -3.769882,-4.328817 -0.624335,-0.615952 -1.337894,-1.121366 -2.00565,-1.687251 0,0 5.337105,-3.329325 5.337105,-3.329325 l 0,0 c 0.670489,0.574715 1.375286,1.107829 2.006547,1.727161 1.392068,1.338706 2.567019,2.851305 3.793293,4.339243 1.368787,1.393861 2.821659,2.721386 4.393732,3.882528 1.649333,1.241136 3.311997,2.464268 5.02456,3.618214 1.903028,1.439712 3.676285,3.034734 5.577964,4.47529 2.124051,1.500291 4.344443,2.856037 6.550475,4.231342 2.039495,1.48991 4.181523,2.842367 6.178643,4.396027 2.151668,1.579311 4.110626,3.408156 6.35654,4.862194 2.386964,1.630745 4.730094,3.324139 7.075203,5.014247 2.01937,1.430263 4.05926,2.853421 5.737481,4.690069 1.572478,1.583385 3.131382,3.180379 4.887424,4.567409 1.89434,1.545066 3.90872,2.967218 5.51017,4.835089 1.44917,1.792796 2.9815,3.541149 4.73052,5.048201 2.40295,1.965014 4.74682,3.996527 7.14639,5.965304 2.09997,1.63844 3.94731,3.52853 5.90871,5.32531 1.82268,1.69966 3.56563,3.47648 5.33999,5.22567 2.11065,1.88914 4.2069,3.7965 6.19199,5.81872 1.95325,2.07111 3.97862,4.07462 6.00625,6.07237 2.42316,2.40186 4.73822,4.89096 6.96519,7.47615 1.94451,2.21921 3.87968,4.44907 6.04725,6.45842 1.64198,1.82569 3.19334,3.73405 4.60825,5.74191 0,0 -5.4887,3.18122 -5.4887,3.18122 z"
       inkscape:connector-curvature="0"
       transform="translate(0,852.36218)" />
    <path
       style="fill:#ffffff;fill-opacity:1;stroke:#ffffff;stroke-width:1;stroke-linecap:round;stroke-linejoin:round;stroke-miterlimit:4;stroke-opacity:1;stroke-dasharray:none;stroke-dashoffset:0"
       id="path3047"
       d="M 62.743576,35.69277 C 60.945396,34.060778 58.685407,33.231488 56.472378,32.326839 50.145275,29.711596 43.499663,27.939123 36.823165,26.472372 31.42041,25.140374 25.993307,23.92312 20.556432,22.73992 18.24508,22.260673 16.0413,21.469 13.844452,20.634501 c -0.424421,-0.01343 -0.370704,-0.135862 -0.373887,0.145232 1.808992,-1.094727 3.549038,-2.312468 5.426977,-3.284181 0.125385,-0.06488 0.14333,0.243273 0.216105,0.364246 0.564658,0.938625 0.260065,0.357637 0.789585,1.560502 1.361488,3.233909 1.947509,6.673467 2.37905,10.132062 0.252403,3.372409 0.629329,6.733714 0.90332,10.104403 0.204666,2.657637 0.255048,5.323257 0.304474,7.987291 0.09785,1.653209 -0.08713,3.326474 0.109019,4.972055 0.03696,0.196543 0.07392,0.393085 0.110887,0.589628 0,0 -5.578648,2.977106 -5.578648,2.977106 l 0,0 c -0.04096,-0.209222 -0.08192,-0.418445 -0.122887,-0.627667 -0.228839,-1.677034 -0.0054,-3.385681 -0.07364,-5.07363 -0.0035,-2.6619 -0.04316,-5.324754 -0.224395,-7.981429 -0.24919,-3.373981 -0.612953,-6.737879 -0.825777,-10.114483 -0.403849,-3.389783 -0.979398,-6.76189 -2.432358,-9.884258 -0.514213,-1.060191 -0.232474,-0.587109 -0.81992,-1.440716 -0.100631,-0.146225 -0.437078,-0.323501 -0.301967,-0.438625 7.117962,-6.065015 3.164683,-4.381294 5.76838,-3.496383 2.075389,0.949196 4.273295,1.558624 6.475719,2.139 5.338361,1.295845 10.679275,2.578748 16.009864,3.905796 6.749703,1.530684 13.458891,3.334277 19.94467,5.765792 2.341251,0.895391 4.713726,1.774642 6.643324,3.429771 0,0 -5.428774,3.326757 -5.428774,3.326757 z"
       inkscape:connector-curvature="0"
       transform="translate(0,852.36218)" />
  </g>
</svg>
