<?xml version="1.0" encoding="UTF-8" standalone="no"?>
<!-- Created with Inkscape (http://www.inkscape.org/) -->

<svg
   xmlns:dc="http://purl.org/dc/elements/1.1/"
   xmlns:cc="http://creativecommons.org/ns#"
   xmlns:rdf="http://www.w3.org/1999/02/22-rdf-syntax-ns#"
   xmlns:svg="http://www.w3.org/2000/svg"
   xmlns="http://www.w3.org/2000/svg"
   xmlns:sodipodi="http://sodipodi.sourceforge.net/DTD/sodipodi-0.dtd"
   xmlns:inkscape="http://www.inkscape.org/namespaces/inkscape"
   width="200"
   height="200"
   id="svg2"
   version="1.1"
   inkscape:version="0.48.0 r9654"
   sodipodi:docname="t2.svg">
  <defs
     id="defs4" />
  <sodipodi:namedview
     id="base"
     pagecolor="#ffffff"
     bordercolor="#666666"
     borderopacity="1.0"
     inkscape:pageopacity="0.0"
     inkscape:pageshadow="2"
     inkscape:zoom="1.4"
     inkscape:cx="59.254678"
     inkscape:cy="101.41252"
     inkscape:document-units="px"
     inkscape:current-layer="layer1"
     showgrid="false"
     inkscape:window-width="999"
     inkscape:window-height="738"
     inkscape:window-x="120"
     inkscape:window-y="100"
     inkscape:window-maximized="0" />
  <metadata
     id="metadata7">
    <rdf:RDF>
      <cc:Work
         rdf:about="">
        <dc:format>image/svg+xml</dc:format>
        <dc:type
           rdf:resource="http://purl.org/dc/dcmitype/StillImage" />
        <dc:title />
      </cc:Work>
    </rdf:RDF>
  </metadata>
  <g
     inkscape:label="Layer 1"
     inkscape:groupmode="layer"
     id="layer1"
     transform="translate(0,-852.36218)">
    <flowRoot
       xml:space="preserve"
       id="flowRoot2997"
       style="fill:#ffffff;stroke:#ffffff;stroke-opacity:1;stroke-width:1px;stroke-linejoin:miter;stroke-linecap:butt;fill-opacity:1;font-family:Sans;font-style:normal;font-weight:normal;font-size:20px;line-height:50%;letter-spacing:0px;word-spacing:0px"><flowRegion
         id="flowRegion2999"><rect
           id="rect3001"
           width="91.923882"
           height="90.408653"
           x="98.994949"
           y="95.954292"
           style="fill:#ffffff;stroke:#ffffff" /></flowRegion><flowPara
         id="flowPara3003" /></flowRoot>    <flowRoot
       xml:space="preserve"
       id="flowRoot3005"
       style="fill:#ffffff;stroke:#ffffff;stroke-opacity:1;stroke-width:1px;stroke-linejoin:miter;stroke-linecap:butt;fill-opacity:1;font-family:Sans;font-style:normal;font-weight:normal;font-size:20px;line-height:50%;letter-spacing:0px;word-spacing:0px"><flowRegion
         id="flowRegion3007"><rect
           id="rect3009"
           width="114.65231"
           height="87.378197"
           x="77.276672"
           y="103.02536"
           style="fill:#ffffff;stroke:#ffffff" /></flowRegion><flowPara
         id="flowPara3011" /></flowRoot>    <rect
       style="fill:#000000;fill-opacity:1;stroke:#000000;stroke-width:1;stroke-linecap:round;stroke-linejoin:round;stroke-miterlimit:4;stroke-opacity:1;stroke-dasharray:none;stroke-dashoffset:0"
       id="rect3002"
       width="199.12645"
       height="199.18976"
       x="0.56820697"
       y="0.4948993"
       transform="translate(0,852.36218)" />
    <path
       style="fill:#ffffff;fill-opacity:1;stroke:#ffffff;stroke-width:1;stroke-linecap:round;stroke-linejoin:round;stroke-miterlimit:4;stroke-opacity:1;stroke-dasharray:none;stroke-dashoffset:0"
       id="path3275"
       d="m 175.49359,89.720868 c -2.37001,0.05995 -4.7151,-0.159083 -7.06984,-0.385929 -3.07656,-0.266309 -6.16589,-0.323174 -9.25208,-0.363897 -2.98575,0.09885 -5.95166,-0.234522 -8.92308,-0.461093 -2.27496,-0.170147 -4.55598,-0.21437 -6.83621,-0.242761 -2.50192,-0.02645 -5.00398,-0.01619 -7.50599,-0.0165 -2.66346,-0.113899 -5.30665,0.236298 -7.95522,0.453173 -2.48789,0.179851 -4.98239,0.236847 -7.47594,0.263471 -2.20114,0.01825 -4.40239,0.01271 -6.6036,0.01909 -1.97031,-0.118414 -3.90272,0.09045 -5.84923,0.356971 -2.06252,0.241873 -4.14084,0.296188 -6.21533,0.33026 -2.386419,0.02339 -4.772964,0.01474 -7.159451,0.01797 -2.510514,0.0061 -5.021001,-0.01109 -7.531523,-0.01481 -2.769472,-0.02964 -5.524823,0.342256 -8.284301,0.544609 -2.031173,0.139423 -4.067909,0.182421 -6.103395,0.193225 -1.930116,0.0071 -3.860259,8.71e-4 -5.790385,3.24e-4 -1.987632,-0.121609 -3.940289,0.09641 -5.905328,0.353853 -1.97474,0.232508 -3.963272,0.303364 -5.949821,0.338408 -1.776511,-0.09657 -3.503461,0.119613 -5.250372,0.395041 -1.456897,0.232892 -2.931316,0.298695 -4.403816,0.336377 -1.427229,0.02573 -2.85478,0.02097 -4.282175,0.01948 C 39.3945,91.968382 37.67815,91.70091 35.94726,91.4859 c -1.461994,-0.143899 -0.715959,-0.07935 -2.238285,-0.191552 0,0 5.066288,-3.62354 5.066288,-3.62354 l 0,0 c 1.54978,0.116995 0.789945,0.05045 2.27968,0.197658 1.729556,0.205404 3.449056,0.378543 5.194639,0.282569 1.423441,3.62e-4 2.847194,0.0038 4.270225,-0.03556 1.455428,-0.05343 2.909779,-0.150364 4.348215,-0.390169 1.751259,-0.261259 3.498391,-0.346731 5.270025,-0.308373 1.976892,-0.05458 3.955561,-0.131674 5.917817,-0.395548 1.979381,-0.243625 3.953486,-0.366624 5.949684,-0.287513 1.930358,0.0028 3.860741,0.0049 5.791068,-0.0082 2.015298,-0.02438 4.031417,-0.05283 6.042547,-0.197575 2.759094,-0.195127 5.514533,-0.530971 8.284529,-0.489262 2.520522,-0.0024 5.041042,-0.01726 7.561546,-0.0069 2.388432,0.005 4.777192,0.0053 7.165292,-0.03851 2.07015,-0.05186 4.14393,-0.120025 6.19801,-0.40333 1.95805,-0.248255 3.9131,-0.359249 5.88824,-0.283048 2.19135,0.0099 4.38268,0.01219 6.57399,-0.0075 2.47947,-0.03338 4.96052,-0.08131 7.43296,-0.286469 2.65854,-0.223428 5.31549,-0.511569 7.98835,-0.414199 2.51006,-0.0034 5.02017,-0.0029 7.53022,0.0087 2.27917,0.02703 4.55813,0.09689 6.82956,0.298445 2.95031,0.239859 5.89618,0.54537 8.86194,0.455844 3.11129,0.04533 6.22397,0.113543 9.32643,0.370546 2.37886,0.213792 4.75197,0.417377 7.14375,0.261001 0,0 -5.13039,3.727451 -5.13039,3.727451 z"
       inkscape:connector-curvature="0"
       transform="translate(0,852.36218)" />
    <path
       style="fill:#ffffff;fill-opacity:1;stroke:#ffffff;stroke-width:1;stroke-linecap:round;stroke-linejoin:round;stroke-miterlimit:4;stroke-opacity:1;stroke-dasharray:none;stroke-dashoffset:0"
       id="path3281"
       d="m 40.744949,70.729849 c -2.46922,0.7405 -7.907445,4.046812 1.596021,-1.325876 -1.540846,0.990917 -2.958802,2.09472 -4.274355,3.368335 -1.860852,1.758528 -3.754575,3.488372 -5.498406,5.364262 -1.847735,2.138426 -3.991689,3.988288 -5.933561,6.034504 -1.315085,1.916101 -2.992867,3.47118 -4.628726,5.094253 -2.604017,2.3602 -5.886683,3.925432 -8.909564,5.611008 -1.627073,0.907265 3.233361,-1.851312 4.850042,-2.776968 -0.496875,0.516647 -1.988405,0.985313 -1.955872,1.834895 1.383328,1.161285 3.226299,1.743792 4.874451,2.448855 3.11861,1.164143 6.102126,2.616639 9.098405,4.052653 2.696257,1.23632 5.217295,2.81486 7.884075,4.10358 1.886442,1.01229 3.829108,1.91589 5.800558,2.74848 0.957939,0.308 1.843887,0.77875 2.790423,1.11808 0,0 -5.240975,3.52386 -5.240975,3.52386 l 0,0 c -0.929859,-0.37423 -1.825089,-0.82629 -2.768716,-1.16708 -1.951094,-0.8689 -3.889461,-1.76822 -5.752104,-2.81693 -2.638309,-1.32582 -5.167415,-2.86366 -7.839885,-4.12686 -2.988749,-1.45549 -5.997573,-2.85589 -9.125369,-3.995663 -1.829824,-0.752933 -3.992652,-1.341446 -5.327742,-2.871582 -0.4595312,-1.511834 0.778918,-1.678811 1.665868,-2.583127 4.188523,-2.410596 10.644726,-6.146932 1.216485,-0.650609 -0.225337,0.131364 0.452282,-0.260624 0.669772,-0.404609 0.785603,-0.520091 1.580111,-1.038326 2.297967,-1.6504 0.750906,-0.786785 1.609806,-1.442518 2.36972,-2.211115 0.863048,-0.872911 1.535062,-1.935973 2.308237,-2.882565 1.882502,-2.105207 4.110167,-3.877342 5.946044,-6.032603 1.676333,-1.916725 3.583789,-3.622926 5.428519,-5.374638 1.291568,-1.298112 2.618677,-2.490527 4.185617,-3.449251 3.107159,-1.834912 5.913924,-3.713414 9.242504,-4.957966 0,0 -4.969433,3.975077 -4.969433,3.975077 z"
       inkscape:connector-curvature="0"
       transform="translate(0,852.36218)" />
    <text
       xml:space="preserve"
       style="font-size:20px;font-style:normal;font-weight:normal;line-height:50%;letter-spacing:0px;word-spacing:0px;fill:#000000;fill-opacity:1;stroke:none;font-family:Sans"
       x="160.87305"
       y="1047.7469"
       id="text3221"
       sodipodi:linespacing="50%"><tspan
         sodipodi:role="line"
         id="tspan3223"
         x="160.87305"
         y="1047.7469"
         style="font-size:56px;font-weight:bold;fill:#ffffff;stroke:#ffffff">3</tspan></text>
  </g>
</svg>
