<?xml version="1.0" encoding="UTF-8" standalone="no"?>
<!-- Created with Inkscape (http://www.inkscape.org/) -->

<svg
   xmlns:dc="http://purl.org/dc/elements/1.1/"
   xmlns:cc="http://creativecommons.org/ns#"
   xmlns:rdf="http://www.w3.org/1999/02/22-rdf-syntax-ns#"
   xmlns:svg="http://www.w3.org/2000/svg"
   xmlns="http://www.w3.org/2000/svg"
   xmlns:sodipodi="http://sodipodi.sourceforge.net/DTD/sodipodi-0.dtd"
   xmlns:inkscape="http://www.inkscape.org/namespaces/inkscape"
   width="200"
   height="200"
   id="svg2"
   version="1.1"
   inkscape:version="0.48.0 r9654"
   sodipodi:docname="t4.svg">
  <defs
     id="defs4" />
  <sodipodi:namedview
     id="base"
     pagecolor="#ffffff"
     bordercolor="#666666"
     borderopacity="1.0"
     inkscape:pageopacity="0.0"
     inkscape:pageshadow="2"
     inkscape:zoom="1.4"
     inkscape:cx="59.254678"
     inkscape:cy="101.41252"
     inkscape:document-units="px"
     inkscape:current-layer="layer1"
     showgrid="false"
     inkscape:window-width="999"
     inkscape:window-height="738"
     inkscape:window-x="120"
     inkscape:window-y="100"
     inkscape:window-maximized="0" />
  <metadata
     id="metadata7">
    <rdf:RDF>
      <cc:Work
         rdf:about="">
        <dc:format>image/svg+xml</dc:format>
        <dc:type
           rdf:resource="http://purl.org/dc/dcmitype/StillImage" />
        <dc:title />
      </cc:Work>
    </rdf:RDF>
  </metadata>
  <g
     inkscape:label="Layer 1"
     inkscape:groupmode="layer"
     id="layer1"
     transform="translate(0,-852.36218)">
    <flowRoot
       xml:space="preserve"
       id="flowRoot2997"
       style="fill:#ffffff;stroke:#ffffff;stroke-opacity:1;stroke-width:1px;stroke-linejoin:miter;stroke-linecap:butt;fill-opacity:1;font-family:Sans;font-style:normal;font-weight:normal;font-size:20px;line-height:50%;letter-spacing:0px;word-spacing:0px"><flowRegion
         id="flowRegion2999"><rect
           id="rect3001"
           width="91.923882"
           height="90.408653"
           x="98.994949"
           y="95.954292"
           style="fill:#ffffff;stroke:#ffffff" /></flowRegion><flowPara
         id="flowPara3003" /></flowRoot>    <flowRoot
       xml:space="preserve"
       id="flowRoot3005"
       style="fill:#ffffff;stroke:#ffffff;stroke-opacity:1;stroke-width:1px;stroke-linejoin:miter;stroke-linecap:butt;fill-opacity:1;font-family:Sans;font-style:normal;font-weight:normal;font-size:20px;line-height:50%;letter-spacing:0px;word-spacing:0px"><flowRegion
         id="flowRegion3007"><rect
           id="rect3009"
           width="114.65231"
           height="87.378197"
           x="77.276672"
           y="103.02536"
           style="fill:#ffffff;stroke:#ffffff" /></flowRegion><flowPara
         id="flowPara3011" /></flowRoot>    <rect
       style="fill:#000000;fill-opacity:1;stroke:#000000;stroke-width:1;stroke-linecap:round;stroke-linejoin:round;stroke-miterlimit:4;stroke-opacity:1;stroke-dasharray:none;stroke-dashoffset:0"
       id="rect3002"
       width="199.12645"
       height="199.18976"
       x="0.56820697"
       y="0.4948993"
       transform="translate(0,852.36218)" />
    <path
       style="fill:#ffffff;fill-opacity:1;stroke:#ffffff;stroke-width:1;stroke-linecap:round;stroke-linejoin:round;stroke-miterlimit:4;stroke-opacity:1;stroke-dasharray:none;stroke-dashoffset:0"
       id="path3255"
       d="m 37.117345,15.412988 c -0.0544,1.821432 0.0026,3.642862 -0.122971,5.461367 -0.339838,2.712765 -0.500913,5.439348 -0.594867,8.170165 -0.278541,3.082142 -0.432854,6.17656 -0.737178,9.255881 -0.406279,2.907272 -0.509035,5.841654 -0.763108,8.762309 -0.410402,3.204763 -1.015419,6.343003 -1.934167,9.438244 -0.896869,2.730294 -1.271394,5.580441 -1.711617,8.408386 -0.314259,2.788251 -0.749743,5.560697 -1.030645,8.352857 -0.23791,2.628825 -0.278955,5.269079 -0.306148,7.906701 -0.02073,2.643373 -0.0193,5.286855 -0.01965,7.930291 0.03585,2.588287 -0.309155,5.162725 -0.492673,7.741597 -0.163776,2.438735 -0.179093,4.883564 -0.197696,7.326644 -0.135387,2.61133 0.117577,5.20872 0.218879,7.81317 -0.039,2.59354 -0.04214,5.19513 -0.251689,7.78138 -0.253284,2.87495 -0.649327,5.73634 -1.118541,8.58351 -0.500057,3.06573 -0.903645,6.14932 -1.255561,9.23573 -0.340918,3.16832 -0.410025,6.35586 -0.45641,9.53933 -0.02402,2.424 -0.0027,4.84798 0.0018,7.27198 0.07067,1.82837 -0.269481,3.63476 -0.471777,5.44481 -0.173499,1.70365 -0.198522,3.4182 -0.217462,5.12921 0.0088,1.78521 0.03558,3.56128 -0.18755,5.33463 -0.134777,1.56901 -0.56592,3.08209 -0.874999,4.61973 -0.263451,1.39925 -0.314526,2.82406 -0.347356,4.24367 -0.027,1.20429 0.148826,2.46336 0.727196,3.53097 0.664721,0.99132 1.652863,1.32353 2.655559,1.82914 1.219586,0.5391 2.565358,0.70316 3.865602,0.96409 2.194838,0.50929 4.428637,0.78076 6.648487,1.15117 2.601606,0.48193 5.242474,0.65526 7.881668,0.75915 2.822678,0.0403 5.652497,0.17824 8.470495,-0.0214 2.803038,-0.16334 5.519733,-0.90279 8.26345,-1.43748 2.268416,-0.69822 4.560095,-1.27879 6.861015,-1.85856 2.657,-0.75788 5.148879,-1.97112 7.714609,-2.97847 3.415859,-1.67572 7.043757,-2.76413 10.669627,-3.87143 4.094164,-0.94373 8.095343,-2.23085 12.154773,-3.30101 3.73898,-1.01836 7.4782,-2.02228 11.20397,-3.08879 1.30988,-0.52599 2.63316,-1.02851 3.87236,-1.71127 0.33689,-0.18562 1.32683,-0.77843 0.98889,-0.59471 -4.60877,2.50568 -5.81195,3.70567 -3.88667,1.93162 1.66115,-1.65548 2.8519,-3.70686 4.0226,-5.72012 1.42344,-2.61121 2.74849,-5.26945 3.86012,-8.02851 0.97272,-2.05212 1.42601,-4.25686 1.89142,-6.45935 0.49858,-2.51383 0.88767,-5.04694 1.29344,-7.57701 0.54313,-3.4635 0.8758,-6.96417 0.83718,-10.47086 -0.28967,-3.10145 -1.4238,-5.99771 -2.92921,-8.69693 -1.1255,-2.18111 -2.89669,-3.82277 -4.8075,-5.30512 -2.51202,-1.55996 -4.75069,-3.47641 -7.00643,-5.37417 -2.68572,-2.17752 -5.14609,-4.6145 -7.78651,-6.84236 -1.774856,-1.22184 -3.606635,-2.35143 -5.44768,-3.46823 -1.957798,-1.10789 -3.882676,-2.26767 -5.880196,-3.306238 -2.483367,-1.094962 -5.036109,-2.007545 -7.62668,-2.811477 -2.652506,-0.776466 -5.422671,-0.89562 -8.166363,-0.989634 -2.850247,-0.108432 -5.687978,-0.05768 -8.529262,0.173572 -2.484821,0.2316 -4.974505,0.415423 -7.469105,0.492593 -1.853864,0.05543 -3.708581,0.04953 -5.563024,0.05219 0.359797,0.174839 -4.244991,-0.201188 -3.331153,-0.846258 1.832483,-1.293533 3.852304,-2.298834 5.778457,-3.448251 2.512218,-0.134456 5.013763,-0.04245 7.519669,0.142139 2.862073,0.42844 5.722257,0.827685 8.6098,1.03326 2.624796,0.259467 5.243533,-0.08922 7.860084,-0.278532 2.892013,-0.04892 5.731371,-0.351351 8.582447,-0.816659 2.928634,-0.621836 5.874201,-1.142135 8.77895,-1.871765 3.022777,-0.776185 5.994606,-1.692889 8.925066,-2.762856 2.49502,-0.76545 4.86308,-1.856275 7.29728,-2.777413 2.4088,-1.079695 1.2544,-0.591883 -3.96337,2.341272 -0.20202,0.113561 0.40115,-0.232545 0.59551,-0.358766 0.59807,-0.388409 1.13886,-0.86142 1.6893,-1.312259 1.31825,-1.158368 2.77441,-2.140122 4.06556,-3.329534 1.6315,-1.475614 3.06913,-3.144783 4.30319,-4.962582 1.52721,-2.573395 2.7067,-5.339374 3.5717,-8.199679 0.90051,-3.484116 1.01233,-7.095527 1.09799,-10.673144 0.15715,-3.480639 0.75545,-6.919116 1.08609,-10.385168 0.23874,-2.591674 0.28667,-5.194919 0.30157,-7.795833 -0.01,-1.74763 -0.68908,-3.326428 -1.53593,-4.81818 -1.15445,-1.826727 -2.71117,-3.24444 -4.53906,-4.362689 -1.9482,-1.208528 -3.9918,-2.288126 -6.07247,-3.253909 -1.86277,-0.873175 -3.69108,-1.83323 -5.62844,-2.532726 -1.76684,-0.563245 -3.52006,-1.118727 -5.35651,-1.401452 -1.59252,-0.07743 -3.152576,-0.328411 -4.727385,-0.562744 -1.799561,-0.281999 -3.625772,-0.21834 -5.42894,-0.442545 -2.38871,-0.337924 -4.796606,-0.480995 -7.205438,-0.568317 -2.041799,-0.01288 -4.055394,-0.400399 -6.084675,-0.594297 -1.526592,0.122678 -2.96664,0.710637 -4.473923,0.994606 -1.478367,0.123853 -2.897124,0.548413 -4.366288,0.73841 -1.571769,0.267811 -3.195343,0.05932 -4.753808,0.371098 0,0 5.052878,-3.783299 5.052878,-3.783299 l 0,0 c 1.575869,-0.144836 3.168644,-0.09936 4.735068,-0.361547 1.453986,-0.250178 2.891388,-0.586162 4.356372,-0.77219 1.512129,-0.334387 2.999464,-0.938462 4.570751,-0.827194 1.997817,0.225023 3.986141,0.592582 6.00177,0.602951 2.42889,0.0953 4.851159,0.275102 7.264001,0.576545 1.823444,0.150385 3.661567,0.148417 5.471607,0.447835 1.57687,0.239934 3.15683,0.386663 4.73997,0.56963 1.8412,0.347528 3.61118,0.935822 5.38897,1.520015 1.93636,0.735703 3.77476,1.68998 5.63782,2.591337 2.08654,1.003339 4.16685,2.050833 6.10935,3.314016 1.89901,1.190754 3.5105,2.708002 4.74375,4.594968 0.94176,1.573391 1.62112,3.276626 1.6533,5.137237 -0.0361,2.625489 -0.0752,5.254607 -0.32444,7.870441 -0.3689,3.460878 -0.9726,6.8967 -1.16708,10.372753 -0.0832,3.616107 -0.14507,7.262443 -0.99166,10.799444 -0.82186,2.897976 -1.97504,5.687986 -3.4263,8.330457 -1.15608,1.869642 -2.58497,3.576574 -4.19912,5.070367 -1.23023,1.264415 -2.70523,2.217808 -4.03393,3.368516 -2.7104,2.307807 -5.71413,4.300315 -9.09296,5.557254 -2.38563,0.939018 -4.7668,1.883365 -7.20337,2.687768 -2.955973,1.064125 -5.961698,1.96087 -9.005476,2.740483 -2.909616,0.689701 -5.850657,1.222676 -8.78149,1.812585 -2.868886,0.46098 -5.738227,0.699863 -8.642899,0.795222 -2.637718,0.201643 -5.280774,0.503176 -7.925505,0.209003 -2.870301,-0.247051 -5.710981,-0.683005 -8.565963,-1.05726 -2.517942,-0.161398 -5.072558,-0.269527 -7.574369,0.128313 1.672255,-1.090818 3.34451,-2.181636 5.016765,-3.272453 -0.08316,-0.08387 -0.313068,-0.152068 -0.249482,-0.251596 0.06461,-0.101129 0.227691,0.07826 0.345447,0.101385 0.849408,0.166828 1.716947,0.184372 2.579578,0.171656 1.843232,0.0013 3.686795,-0.0042 5.529471,-0.05359 2.464896,-0.09019 4.926382,-0.241034 7.383148,-0.463516 2.862187,-0.214587 5.7281,-0.258055 8.596782,-0.133043 2.780691,0.123649 5.589171,0.281776 8.262481,1.125307 2.609092,0.848712 5.207598,1.742087 7.703932,2.888314 2.012458,1.047916 3.967815,2.200152 5.94287,3.31548 1.85531,1.134074 3.69699,2.293074 5.43956,3.597004 2.57063,2.29229 5.02623,4.71648 7.72446,6.86449 2.28874,1.86624 4.57794,3.72414 7.07663,5.30903 1.96621,1.5441 3.78062,3.26313 4.9087,5.53662 1.52748,2.79873 2.69628,5.79107 3.03407,8.98421 0.0547,3.53202 -0.29135,7.05731 -0.77406,10.55417 -0.3777,2.52594 -0.72481,5.05509 -1.19047,7.56679 -0.48788,2.23563 -0.89387,4.50014 -1.90529,6.57995 -1.08709,2.79147 -2.45295,5.44949 -3.82531,8.1094 -1.14062,2.0303 -2.29342,4.11736 -3.87958,5.8354 -2.20925,2.43812 -0.45314,0.63024 -6.75717,4.39625 -1.52861,0.91319 -3.20372,1.54459 -4.87944,2.12703 -3.71153,1.04506 -7.438986,2.02527 -11.158258,3.0421 -4.048732,1.10099 -8.066561,2.31415 -12.141834,3.31885 -3.64907,1.12637 -7.263837,2.31929 -10.717145,3.97051 -2.584269,1.03685 -5.110612,2.2546 -7.817063,2.95183 -2.299501,0.55937 -4.560425,1.23678 -6.853285,1.81617 -2.7465,0.55542 -5.485205,1.22471 -8.296193,1.35567 -2.838751,0.13176 -5.682613,0.0569 -8.52248,-0.0179 -2.655586,-0.11984 -5.308588,-0.33197 -7.926327,-0.81482 -2.248759,-0.33728 -4.497153,-0.65388 -6.722797,-1.12815 -1.356829,-0.26425 -2.758947,-0.42161 -4.002161,-1.06763 -1.132281,-0.52921 -2.135703,-1.09837 -2.854442,-2.16988 -0.626754,-1.16518 -0.896286,-2.5035 -0.867059,-3.82514 0.02529,-1.45116 0.06303,-2.90758 0.303802,-4.34226 0.286178,-1.53879 0.764194,-3.03373 0.909374,-4.59771 0.257975,-1.75139 0.251245,-3.49711 0.227851,-5.266 0.01241,-1.72708 0.02907,-3.45539 0.171925,-5.17783 0.19923,-1.8003 0.587196,-3.58943 0.551578,-5.40632 -0.0019,-2.43539 0.007,-4.87108 0.04172,-7.30621 0.05636,-3.20704 0.175715,-6.4148 0.466822,-9.61014 0.337687,-3.09145 0.713646,-6.18178 1.209246,-9.25151 0.488992,-2.82511 0.869626,-5.67195 1.123116,-8.52784 0.221266,-2.56492 0.208214,-5.14422 0.276169,-7.71675 -0.04064,-2.60843 -0.396157,-5.20642 -0.24854,-7.82203 0.01584,-2.45675 0.05602,-4.91433 0.192308,-7.367746 0.177062,-2.571028 0.532238,-5.134318 0.533689,-7.713041 -0.0056,-2.641558 -0.01821,-5.28315 -0.007,-7.924705 0.02809,-2.659256 0.08739,-5.319709 0.314177,-7.970733 0.262943,-2.80403 0.702529,-5.582532 1.009587,-8.381092 0.435926,-2.859135 0.793392,-5.747442 1.71274,-8.502942 0.09261,-0.308336 0.848884,-2.810244 0.927899,-3.13662 0.491299,-2.029352 0.602523,-4.137021 1.030651,-6.179215 0.297973,-2.918073 0.319312,-5.862936 0.763213,-8.769149 0.337627,-3.065832 0.458172,-6.15446 0.773584,-9.223602 0.07424,-2.724024 0.162232,-5.450858 0.502099,-8.157551 0.163044,-1.783812 0.06991,-3.577539 0.04791,-5.36717 0,0 5.663262,-2.885576 5.663262,-2.885576 z"
       inkscape:connector-curvature="0"
       transform="translate(0,852.36218)" />
    <path
       style="fill:#ffffff;fill-opacity:1;stroke:#ffffff;stroke-width:1;stroke-linecap:round;stroke-linejoin:round;stroke-miterlimit:4;stroke-opacity:1;stroke-dasharray:none;stroke-dashoffset:0"
       id="path3257"
       d="m 74.93399,4.2764563 c -2.281097,1.0323763 -4.481543,2.2695565 -6.643788,3.5328406 9.321305,-5.6228064 -0.225316,0.5322898 -2.112915,1.7812375 -2.537002,1.6424866 -4.856122,3.5904206 -7.254608,5.4235726 -3.233825,2.369745 -6.757151,4.332711 -10.325298,6.148235 -2.007033,0.852817 -5.339051,2.753073 3.745462,-2.237572 0.195631,-0.107472 -0.360505,0.263311 -0.53924,0.397012 -1.436358,1.07445 0.367395,-0.256982 -1.144932,0.855397 -1.533088,1.115086 -2.997015,2.327619 -4.201265,3.79704 -0.162158,0.270566 -0.53447,0.731368 -0.4928,1.121593 0.09786,0.916402 1.772977,1.355716 2.42011,1.602394 2.504788,1.222412 5.248523,1.796685 7.947246,2.414863 3.572296,0.828371 7.149469,1.585457 10.596909,2.854632 1.986627,0.940576 4.132399,1.340744 6.231366,1.9076 1.345783,0.297942 2.665786,0.713368 3.934865,1.252964 0,0 -5.249891,3.516724 -5.249891,3.516724 l 0,0 C 70.578832,38.169796 69.303325,37.727567 67.979223,37.440114 65.880037,36.906115 63.811334,36.305299 61.831806,35.402901 58.406375,34.14098 54.842818,33.416169 51.289256,32.61025 48.530174,32.010301 45.761078,31.376642 43.187948,30.17784 41.504697,29.464963 39.46943,28.562557 40.704085,26.444295 c 1.128682,-1.552017 2.565856,-2.795147 4.095519,-3.940697 2.724516,-2.037452 5.582319,-3.92326 8.715623,-5.289634 1.899266,-1.02028 5.081606,-2.922263 -3.223248,1.963997 -0.296201,0.174274 0.598672,-0.338283 0.888785,-0.522514 0.676668,-0.429707 1.311132,-0.923655 1.990418,-1.349442 2.412877,-1.827755 4.73569,-3.782026 7.253578,-5.463384 4.122003,-2.7920966 8.277763,-5.5399646 12.661566,-7.9158667 2.236729,-1.2666369 4.473667,-2.564562 6.839561,-3.57573281 0,0 -4.991897,3.92543481 -4.991897,3.92543481 z"
       inkscape:connector-curvature="0"
       transform="translate(0,852.36218)" />
    <text
       xml:space="preserve"
       style="font-size:20px;font-style:normal;font-weight:normal;line-height:50%;letter-spacing:0px;word-spacing:0px;fill:#000000;fill-opacity:1;stroke:none;font-family:Sans"
       x="161.58733"
       y="1047.7469"
       id="text3221"
       sodipodi:linespacing="50%"><tspan
         sodipodi:role="line"
         id="tspan3223"
         x="161.58733"
         y="1047.7469"
         style="font-size:56px;font-weight:bold;fill:#ffffff;stroke:#ffffff">3</tspan></text>
  </g>
</svg>
