<?xml version="1.0" encoding="UTF-8" standalone="no"?>
<!-- Created with Inkscape (http://www.inkscape.org/) -->

<svg
   xmlns:dc="http://purl.org/dc/elements/1.1/"
   xmlns:cc="http://creativecommons.org/ns#"
   xmlns:rdf="http://www.w3.org/1999/02/22-rdf-syntax-ns#"
   xmlns:svg="http://www.w3.org/2000/svg"
   xmlns="http://www.w3.org/2000/svg"
   xmlns:sodipodi="http://sodipodi.sourceforge.net/DTD/sodipodi-0.dtd"
   xmlns:inkscape="http://www.inkscape.org/namespaces/inkscape"
   width="200"
   height="200"
   id="svg2"
   version="1.1"
   inkscape:version="0.48.0 r9654"
   sodipodi:docname="t5.svg">
  <defs
     id="defs4" />
  <sodipodi:namedview
     id="base"
     pagecolor="#ffffff"
     bordercolor="#666666"
     borderopacity="1.0"
     inkscape:pageopacity="0.0"
     inkscape:pageshadow="2"
     inkscape:zoom="1.4"
     inkscape:cx="59.254678"
     inkscape:cy="101.41252"
     inkscape:document-units="px"
     inkscape:current-layer="layer1"
     showgrid="false"
     inkscape:window-width="999"
     inkscape:window-height="738"
     inkscape:window-x="120"
     inkscape:window-y="100"
     inkscape:window-maximized="0" />
  <metadata
     id="metadata7">
    <rdf:RDF>
      <cc:Work
         rdf:about="">
        <dc:format>image/svg+xml</dc:format>
        <dc:type
           rdf:resource="http://purl.org/dc/dcmitype/StillImage" />
        <dc:title />
      </cc:Work>
    </rdf:RDF>
  </metadata>
  <g
     inkscape:label="Layer 1"
     inkscape:groupmode="layer"
     id="layer1"
     transform="translate(0,-852.36218)">
    <flowRoot
       xml:space="preserve"
       id="flowRoot2997"
       style="font-size:20px;font-style:normal;font-weight:normal;line-height:50%;letter-spacing:0px;word-spacing:0px;fill:#ffffff;fill-opacity:1;stroke:#ffffff;stroke-width:1px;stroke-linecap:butt;stroke-linejoin:miter;stroke-opacity:1;font-family:Sans"><flowRegion
         id="flowRegion2999"><rect
           id="rect3001"
           width="91.923882"
           height="90.408653"
           x="98.994949"
           y="95.954292"
           style="fill:#ffffff;stroke:#ffffff" /></flowRegion><flowPara
         id="flowPara3003" /></flowRoot>    <flowRoot
       xml:space="preserve"
       id="flowRoot3005"
       style="font-size:20px;font-style:normal;font-weight:normal;line-height:50%;letter-spacing:0px;word-spacing:0px;fill:#ffffff;fill-opacity:1;stroke:#ffffff;stroke-width:1px;stroke-linecap:butt;stroke-linejoin:miter;stroke-opacity:1;font-family:Sans"><flowRegion
         id="flowRegion3007"><rect
           id="rect3009"
           width="114.65231"
           height="87.378197"
           x="77.276672"
           y="103.02536"
           style="fill:#ffffff;stroke:#ffffff" /></flowRegion><flowPara
         id="flowPara3011" /></flowRoot>    <rect
       style="fill:#000000;fill-opacity:1;stroke:#000000;stroke-width:1;stroke-linecap:round;stroke-linejoin:round;stroke-miterlimit:4;stroke-opacity:1;stroke-dasharray:none;stroke-dashoffset:0"
       id="rect3002"
       width="199.12645"
       height="199.18976"
       x="0.56820697"
       y="0.4948993"
       transform="translate(0,852.36218)" />
    <path
       style="fill:#ffffff;fill-opacity:1;stroke:#ffffff;stroke-width:1;stroke-linecap:round;stroke-linejoin:round;stroke-miterlimit:4;stroke-opacity:1;stroke-dasharray:none;stroke-dashoffset:0"
       id="path3223"
       d="m 145.60072,34.264199 c -0.94975,-1.348603 -2.07598,-2.555897 -3.09763,-3.846876 -1.37934,-1.470328 -2.53516,-3.121976 -3.76202,-4.715745 -1.17126,-1.58755 -2.82721,-2.687584 -4.1703,-4.115338 -0.9765,-1.233233 -2.19362,-2.207219 -3.66439,-2.765086 -2.09801,-0.754872 -4.26049,-1.315462 -6.42304,-1.85315 -2.60193,-0.687024 -5.23029,-1.127616 -7.90895,-1.365071 -3.31382,-0.232349 -6.63794,-0.223741 -9.958,-0.237828 -2.90641,0.0036 -5.81279,0.01807 -8.719187,0.02641 -2.383161,0.0066 -4.766333,0.0084 -7.149495,0.0144 -2.206885,0.195345 -4.407809,0.597741 -6.550414,1.161305 -2.037975,0.579816 -4.140504,0.98156 -6.101432,1.798554 -2.005384,0.709478 -3.956241,1.553814 -5.928635,2.34947 -2.177902,0.776683 -4.259108,1.764472 -6.366614,2.707173 -0.361702,0.161951 -0.727189,0.315698 -1.085104,0.485853 -0.322971,0.153542 -1.832074,0.927182 -2.132157,1.091962 -0.354606,0.194719 -1.401001,0.809798 -1.050322,0.608092 4.475406,-2.574201 5.652316,-3.307247 3.173878,-1.790597 -2.287779,1.417772 -4.512808,2.929349 -6.710382,4.482422 -2.158431,1.386719 -4.245764,2.860274 -6.186971,4.538276 -1.629004,1.362028 -3.112555,2.857222 -4.539168,4.425562 -1.14934,1.322198 -2.262032,2.678927 -3.272144,4.110871 -1.04981,1.470925 -1.598375,3.184396 -2.140128,4.886327 -0.708204,2.122309 -0.969351,4.339506 -1.126964,6.559237 -0.107984,2.034383 -0.0309,4.065856 -0.27526,6.090459 -0.26031,1.90713 -0.666367,3.802683 -1.247295,5.638066 -0.787725,2.05077 -1.555948,4.111092 -2.168363,6.221799 -0.53463,1.999375 -0.614061,4.072686 -0.679211,6.129253 -0.04172,2.318688 -0.02644,4.637756 -0.02719,6.956667 -0.0024,2.687452 -0.0044,5.374905 -0.0055,8.062358 0.151549,2.607263 0.441769,5.202971 0.591376,7.810953 0.09129,2.289463 0.08457,4.572643 0.339064,6.851083 0.308948,1.93181 0.987786,3.76982 1.656256,5.59925 0.639217,1.59472 0.738163,3.31388 1.223542,4.94801 0.471239,1.80229 1.414344,3.43148 2.198436,5.1111 0.577449,1.73822 1.530539,3.24611 2.65894,4.6701 1.637293,1.99643 3.585201,3.70488 5.58262,5.32931 2.049039,1.56803 4.221196,2.95581 6.409745,4.31656 1.610172,1.08678 3.251803,2.08051 4.992722,2.94383 1.417877,0.71244 2.786974,1.50689 4.138483,2.33836 1.508461,1.01588 3.124468,1.83135 4.738812,2.67259 2.123511,1.14009 4.32805,2.08686 6.583779,2.92786 2.487443,0.94222 5.04314,1.75127 7.642883,2.32201 2.56604,0.83513 5.153198,1.61071 7.754074,2.33019 2.962421,0.73671 6.014626,0.92899 9.053136,1.04689 2.89137,0.1648 5.76618,0.0159 8.63227,-0.37172 3.46072,-0.6211 6.76988,-1.84315 10.11149,-2.90507 3.18959,-1.07552 6.43827,-1.98065 9.68801,-2.85686 2.15163,-0.80033 4.18234,-1.86153 6.30147,-2.73904 0.32348,-0.13846 0.65104,-0.26774 0.97043,-0.41539 1.07388,-0.49643 0.88537,-0.45086 1.91728,-1.02804 0.30338,-0.16968 1.21876,-0.66914 0.91726,-0.49612 -4.96086,2.84674 -5.93441,3.65461 -3.94566,2.10458 0.16101,-0.17221 0.32202,-0.34442 0.48303,-0.51663 0,0 5.79972,-2.46876 5.79972,-2.46876 l 0,0 c -0.15128,0.20771 -0.30257,0.41543 -0.45385,0.62314 -2.77371,2.59944 -7.0508,4.38142 -10.60504,6.07602 -2.09111,0.88294 -4.10689,1.94805 -6.28221,2.62088 -3.22948,0.88316 -6.46413,1.76154 -9.63295,2.84666 -3.36486,1.06182 -6.69899,2.29691 -10.20047,2.83547 -2.89927,0.35883 -5.806453,0.49181 -8.726226,0.30777 -3.064617,-0.1561 -6.138674,-0.4083 -9.121778,-1.17009 -2.600315,-0.72914 -5.192908,-1.48272 -7.771884,-2.28299 -2.605901,-0.62171 -5.160794,-1.46472 -7.669194,-2.40178 -2.288427,-0.84503 -4.514152,-1.821 -6.675318,-2.95623 -1.638969,-0.83036 -3.250561,-1.69123 -4.792094,-2.69104 -1.349512,-0.80835 -2.710447,-1.5909 -4.115462,-2.29944 -1.722614,-0.91236 -3.354968,-1.93897 -4.974897,-3.02087 -2.18988,-1.39338 -4.357991,-2.82345 -6.421819,-4.40027 -2.02247,-1.66297 -3.995366,-3.41184 -5.691761,-5.41319 -1.185931,-1.44509 -2.17401,-2.99914 -2.753069,-4.79296 -0.784902,-1.70996 -1.754986,-3.35158 -2.249807,-5.17726 -0.525374,-1.61907 -0.600108,-3.32781 -1.195758,-4.93078 -0.673158,-1.88025 -1.387781,-3.75486 -1.708526,-5.73629 -0.271832,-2.29382 -0.253857,-4.58967 -0.332373,-6.89659 -0.137267,-2.623079 -0.393302,-5.235238 -0.579935,-7.85475 -0.0034,-2.682168 -0.0088,-5.364338 -0.0233,-8.046473 -0.01079,-2.321433 -0.02306,-4.643181 0.0057,-6.964494 0.03714,-2.099167 0.102887,-4.21178 0.593379,-6.26385 0.59834,-2.121412 1.356196,-4.194327 2.163447,-6.244535 0.600708,-1.792066 1.001119,-3.655316 1.273281,-5.523604 0.293429,-2.016489 0.253861,-4.036035 0.328376,-6.069845 0.133541,-2.259169 0.37745,-4.521435 1.060064,-6.69036 0.523172,-1.732356 0.98397,-3.509946 2.022011,-5.023754 0.921522,-1.522897 2.166934,-2.829873 3.269584,-4.224646 1.462677,-1.552714 2.848982,-3.165792 4.533665,-4.493717 1.925833,-1.710857 3.982011,-3.2462 6.172507,-4.605477 2.214381,-1.535496 4.406145,-3.094243 6.698241,-4.5139 3.788844,-2.395267 7.67957,-4.676014 11.772249,-6.515861 2.105331,-0.960321 4.224144,-1.873376 6.388227,-2.695083 1.971658,-0.81444 3.947987,-1.615572 5.950539,-2.351902 2.000932,-0.715504 4.08777,-1.173165 6.137737,-1.725159 2.183539,-0.497635 4.39431,-0.962288 6.638942,-1.040112 2.373474,0.0051 4.746962,0.0053 7.120442,0.0058 2.88946,6.47e-4 5.77896,8.55e-4 8.6684,0.01436 3.34074,0.01104 6.68568,0.02922 10.0197,0.26105 2.70288,0.263668 5.36256,0.718378 7.98743,1.425694 2.20028,0.556606 4.41458,1.088618 6.5444,1.882011 1.50905,0.674618 2.7713,1.693038 3.79488,2.99731 1.35295,1.440041 3.02073,2.559168 4.17702,4.183075 1.22656,1.591401 2.40571,3.223716 3.77675,4.697356 1.00953,1.275283 2.11365,2.474136 3.14273,3.734035 0,0 -5.42877,3.326757 -5.42877,3.326757 z"
       inkscape:connector-curvature="0"
       transform="translate(0,852.36218)" />
    <path
       style="fill:#ffffff;fill-opacity:1;stroke:#ffffff;stroke-width:1;stroke-linecap:round;stroke-linejoin:round;stroke-miterlimit:4;stroke-opacity:1;stroke-dasharray:none;stroke-dashoffset:0"
       id="path3227"
       d="m 131.57127,126.2791 c 1.3134,0.57722 2.66699,1.05115 3.98667,1.61112 1.60458,0.62277 3.22341,1.19733 4.87115,1.69826 1.53963,0.49444 3.02262,1.13488 4.54906,1.66119 1.32454,0.32749 2.67697,0.45503 4.01699,0.71139 1.60768,0.30342 3.17269,0.7613 4.79679,0.99314 1.21676,0.12011 2.54736,-0.008 3.19584,1.18918 0.2482,1.5708 -0.74369,3.00333 -1.4331,4.34122 -1.57275,3.06964 -3.26785,6.07141 -4.7458,9.1883 -1.22083,2.45572 -2.02098,5.0798 -3.23831,7.53474 -0.56921,1.43032 -1.39483,2.68723 -2.40269,3.84015 0,0 -5.83094,2.42911 -5.83094,2.42911 l 0,0 c 1.10044,-1.04093 1.95472,-2.27969 2.52037,-3.69086 1.29633,-2.45666 2.20276,-5.06474 3.38466,-7.57853 1.4491,-3.10247 3.12921,-6.0772 4.62821,-9.15599 0.60704,-1.2077 1.33751,-2.40696 1.58957,-3.74783 -0.42033,-0.87502 -2.06329,-0.47382 -2.8194,-0.72758 -1.61631,-0.27527 -3.18616,-0.74567 -4.80409,-1.00871 -1.36848,-0.24287 -2.77184,-0.32822 -4.09278,-0.78633 -1.49382,-0.56939 -2.97155,-1.17346 -4.4968,-1.65966 -1.66205,-0.52182 -3.30255,-1.09559 -4.92498,-1.73025 -1.35631,-0.53819 -2.71257,-1.07026 -4.06658,-1.61421 0,0 5.31616,-3.49785 5.31616,-3.49785 z"
       inkscape:connector-curvature="0"
       transform="translate(0,852.36218)" />
    <text
       xml:space="preserve"
       style="font-size:20px;font-style:normal;font-weight:normal;line-height:50%;letter-spacing:0px;word-spacing:0px;fill:#000000;fill-opacity:1;stroke:none;font-family:Sans"
       x="163.0159"
       y="1048.4612"
       id="text3221"
       sodipodi:linespacing="50%"><tspan
         sodipodi:role="line"
         id="tspan3223"
         x="163.0159"
         y="1048.4612"
         style="font-size:56px;font-weight:bold;fill:#ffffff;stroke:#ffffff">3</tspan></text>
  </g>
</svg>
