<?xml version="1.0" encoding="UTF-8" standalone="no"?>
<!-- Created with Inkscape (http://www.inkscape.org/) -->

<svg
   xmlns:dc="http://purl.org/dc/elements/1.1/"
   xmlns:cc="http://creativecommons.org/ns#"
   xmlns:rdf="http://www.w3.org/1999/02/22-rdf-syntax-ns#"
   xmlns:svg="http://www.w3.org/2000/svg"
   xmlns="http://www.w3.org/2000/svg"
   xmlns:sodipodi="http://sodipodi.sourceforge.net/DTD/sodipodi-0.dtd"
   xmlns:inkscape="http://www.inkscape.org/namespaces/inkscape"
   width="200"
   height="200"
   id="svg2"
   version="1.1"
   inkscape:version="0.48.0 r9654"
   sodipodi:docname="t6.svg">
  <defs
     id="defs4" />
  <sodipodi:namedview
     id="base"
     pagecolor="#ffffff"
     bordercolor="#666666"
     borderopacity="1.0"
     inkscape:pageopacity="0.0"
     inkscape:pageshadow="2"
     inkscape:zoom="1.4"
     inkscape:cx="59.254678"
     inkscape:cy="101.41252"
     inkscape:document-units="px"
     inkscape:current-layer="layer1"
     showgrid="false"
     inkscape:window-width="999"
     inkscape:window-height="738"
     inkscape:window-x="120"
     inkscape:window-y="100"
     inkscape:window-maximized="0" />
  <metadata
     id="metadata7">
    <rdf:RDF>
      <cc:Work
         rdf:about="">
        <dc:format>image/svg+xml</dc:format>
        <dc:type
           rdf:resource="http://purl.org/dc/dcmitype/StillImage" />
        <dc:title />
      </cc:Work>
    </rdf:RDF>
  </metadata>
  <g
     inkscape:label="Layer 1"
     inkscape:groupmode="layer"
     id="layer1"
     transform="translate(0,-852.36218)">
    <flowRoot
       xml:space="preserve"
       id="flowRoot2997"
       style="fill:#ffffff;stroke:#ffffff;stroke-opacity:1;stroke-width:1px;stroke-linejoin:miter;stroke-linecap:butt;fill-opacity:1;font-family:Sans;font-style:normal;font-weight:normal;font-size:20px;line-height:50%;letter-spacing:0px;word-spacing:0px"><flowRegion
         id="flowRegion2999"><rect
           id="rect3001"
           width="91.923882"
           height="90.408653"
           x="98.994949"
           y="95.954292"
           style="fill:#ffffff;stroke:#ffffff" /></flowRegion><flowPara
         id="flowPara3003" /></flowRoot>    <flowRoot
       xml:space="preserve"
       id="flowRoot3005"
       style="fill:#ffffff;stroke:#ffffff;stroke-opacity:1;stroke-width:1px;stroke-linejoin:miter;stroke-linecap:butt;fill-opacity:1;font-family:Sans;font-style:normal;font-weight:normal;font-size:20px;line-height:50%;letter-spacing:0px;word-spacing:0px"><flowRegion
         id="flowRegion3007"><rect
           id="rect3009"
           width="114.65231"
           height="87.378197"
           x="77.276672"
           y="103.02536"
           style="fill:#ffffff;stroke:#ffffff" /></flowRegion><flowPara
         id="flowPara3011" /></flowRoot>    <rect
       style="fill:#000000;fill-opacity:1;stroke:#000000;stroke-width:1;stroke-linecap:round;stroke-linejoin:round;stroke-miterlimit:4;stroke-opacity:1;stroke-dasharray:none;stroke-dashoffset:0"
       id="rect3002"
       width="199.12645"
       height="199.18976"
       x="0.56820697"
       y="0.4948993"
       transform="translate(0,852.36218)" />
    <path
       style="fill:#ffffff;fill-opacity:1;stroke:#ffffff;stroke-width:1.12123442;stroke-linecap:round;stroke-linejoin:round;stroke-miterlimit:4;stroke-opacity:1;stroke-dasharray:none;stroke-dashoffset:0"
       id="path3009"
       d="m 177.57134,884.63503 c -1.82255,2.89685 -4.02301,5.34403 -6.27333,7.69632 -3.52377,3.77441 -7.51276,6.77924 -11.49145,9.72207 -5.62023,4.19465 -11.47381,7.86522 -17.35307,11.44636 -2.98836,1.93076 -6.00172,3.75752 -9.08211,5.44378 -3.31002,1.77596 -6.59504,3.6286 -9.82873,5.6206 -4.78254,2.92936 -9.78472,5.23121 -14.54469,8.21296 -3.77538,2.43767 -7.5884,4.77786 -11.310784,7.34141 -3.041581,2.10524 -6.077917,4.22727 -9.207531,6.12 -3.162993,2.04158 -6.302966,4.14399 -9.521438,6.04799 -0.534296,0.33058 -1.076158,0.64248 -1.602889,0.99172 -7.969895,5.28424 18.048214,-12.6717 -4.501473,3.15111 -1.309705,0.919 2.606434,-1.86693 3.909651,-2.80039 -2.226394,1.57467 -4.452788,3.14935 -6.679183,4.72401 -2.643853,1.72604 -5.345518,3.3096 -7.96772,5.08726 -2.063129,1.24186 -4.112983,2.51305 -6.205577,3.675 -2.280291,1.40495 -4.486119,2.99196 -6.817436,4.26071 -2.192311,1.36636 -4.522533,2.26787 -6.810218,3.31762 -2.05281,0.66715 -4.097327,1.35598 -6.190484,1.79746 -1.755413,0.24737 -3.190268,1.50391 -4.821113,2.19078 -1.863191,0.55029 -3.76756,0.77021 -5.652556,1.16896 -1.728328,0.68573 -3.513147,1.06944 -5.192459,1.94283 -0.537536,0.31702 -1.129736,0.42031 -1.684847,0.66716 -0.248353,0.11038 -0.952998,0.56062 -0.725944,0.39269 1.590798,-1.17656 6.393242,-4.6389 4.82177,-3.42199 -1.972563,1.52752 -4.036785,2.86079 -6.025745,4.35433 -1.588377,1.19272 3.215857,-2.30117 4.823785,-3.45176 -2.334974,1.60636 -6.018481,8.27069 -7.78199,4.42396 -0.324858,-1.96635 -0.499101,-3.99011 -0.64498,-5.99428 -0.20339,-4.06606 -0.194583,-8.14276 -0.215436,-12.21501 -0.151262,-4.0737 -0.440225,-8.13592 -0.619143,-12.20818 -0.123371,-2.93967 -0.142873,-5.88247 -0.158131,-8.82527 -0.08353,-3.44411 0.249462,-6.86575 0.448051,-10.2942 0.173308,-2.93268 0.212464,-5.87325 0.249205,-8.81239 0.01792,-2.35143 0.0078,-4.70295 0.01329,-7.05441 -5.74e-4,-2.51908 0.0062,-5.03812 -0.0014,-7.55719 -0.0086,-2.06538 -0.01516,-4.13077 -0.01852,-6.19618 -0.0024,-1.80561 -0.0024,-3.61123 -0.0025,-5.41685 0.0084,-2.01067 0.0096,-4.02133 0.0067,-6.03204 -0.0033,-1.87617 -0.005,-3.75234 -0.0059,-5.62851 -6.95e-4,-1.79763 -6.72e-4,-3.59525 -6.83e-4,-5.39288 0.222221,-3.63374 2.081593,-3.01671 5.913305,-5.55228 0.247659,-0.16388 1.178412,0.79241 1.374503,0.94041 1.20497,1.06982 2.520725,1.912 3.749727,2.93556 1.699437,1.2991 3.400283,2.58809 5.052963,3.98383 1.904158,1.81202 3.964265,3.3524 5.989681,4.93939 1.926437,1.2816 3.960232,2.26377 5.93582,3.41826 2.404585,1.58567 4.806647,3.18242 7.176564,4.84899 2.385897,1.59035 4.7449,3.24448 7.127194,4.84864 2.543288,2.031 5.182812,3.85299 7.767733,5.79604 2.548511,2.03287 5.286844,3.61521 7.958271,5.36379 2.82956,1.81786 5.700116,3.53351 8.615001,5.12719 2.73109,1.45746 5.344427,3.23321 7.976897,4.94688 2.546703,1.47082 5.162377,2.73465 7.723778,4.16143 2.143511,1.02066 4.299373,1.98796 6.415801,3.10154 2.03854,1.03418 3.95573,2.40892 6.02833,3.33176 2.09672,1.06663 4.1653,2.23332 6.21794,3.43262 2.56018,1.27127 5.10725,2.57051 7.69194,3.76058 3.0146,1.32698 5.9456,2.93207 8.82974,4.65212 2.75592,1.76264 5.49137,3.5461 8.33996,5.06081 2.09954,1.1623 4.21651,2.3198 6.40516,3.19423 1.19251,0.66833 2.45151,1.12089 3.52236,2.0811 0.90765,0.94194 1.83783,1.75427 2.86848,2.47519 1.99708,1.4973 3.85996,3.23982 5.87552,4.70105 1.94009,1.38079 3.88535,2.74398 5.86226,4.03863 1.73475,1.25575 3.53063,2.37026 5.28622,3.57817 1.36946,0.96924 2.91067,1.35336 4.38621,1.97243 1.18283,0.3649 2.19166,1.25502 3.32105,1.79946 0.72937,0.49792 0.36695,0.26282 1.08644,0.70723 0,0 -5.28561,4.37324 -5.28561,4.37324 l 0,0 c -0.7063,-0.44897 -0.35516,-0.2286 -1.05331,-0.66133 -1.09913,-0.58981 -2.13338,-1.38151 -3.29935,-1.7609 -1.48908,-0.64086 -3.03953,-1.08241 -4.40008,-2.12522 -1.75479,-1.1971 -3.53667,-2.33028 -5.27158,-3.5729 -1.97644,-1.29638 -3.9047,-2.70148 -5.83238,-4.109 -2.00471,-1.4976 -3.91435,-3.18333 -5.95108,-4.61324 -1.05568,-0.71852 -1.98799,-1.58885 -2.93296,-2.5098 -1.05318,-0.83681 -2.24256,-1.31672 -3.37799,-1.9448 -2.15884,-0.96293 -4.25616,-2.13657 -6.34278,-3.32076 -2.84612,-1.5351 -5.57721,-3.35082 -8.34528,-5.09343 -2.87416,-1.71074 -5.80328,-3.2842 -8.81344,-4.57987 -2.60576,-1.19486 -5.1799,-2.49045 -7.75652,-3.78079 -2.0532,-1.16712 -4.10984,-2.33692 -6.20768,-3.36864 -2.05906,-0.98854 -3.995771,-2.32884 -6.043727,-3.35677 -2.118093,-1.09338 -4.27122,-2.06318 -6.392145,-3.14213 -2.569949,-1.41615 -5.17548,-2.7283 -7.717635,-4.22383 -2.624235,-1.69775 -5.231007,-3.4524 -7.946156,-4.91338 -2.91713,-1.6194 -5.798913,-3.34283 -8.637287,-5.16874 -2.689219,-1.74011 -5.433427,-3.34848 -7.989572,-5.39612 -2.576635,-1.94935 -5.203579,-3.78592 -7.776978,-5.74273 -2.383569,-1.59963 -4.729398,-3.28503 -7.116175,-4.87473 -2.363747,-1.65725 -4.766581,-3.22966 -7.179217,-4.77094 -2.011913,-1.13277 -4.082171,-2.11384 -6.001202,-3.489 -2.020553,-1.60928 -4.04903,-3.2117 -5.996726,-4.95755 -1.666076,-1.37698 -3.380098,-2.64966 -5.085392,-3.94628 -1.24171,-0.98605 -2.537527,-1.85907 -3.771373,-2.86233 -0.155367,-0.10402 -0.56942,-0.43386 -0.800226,-0.42989 -0.0883,0.002 -0.318801,0.18889 -0.243774,0.13035 1.687378,-1.31659 3.388899,-2.60432 5.083348,-3.90647 -0.09155,0.0795 -0.219673,0.1169 -0.274647,0.23852 -0.08543,0.18901 -0.07998,0.423 -0.119972,0.6345 -1.1e-5,1.79792 1.1e-5,3.59584 -6.83e-4,5.39376 -9.23e-4,1.87871 -0.0026,3.75742 -0.0059,5.63612 -0.0029,2.00784 -0.0017,4.01562 0.0067,6.02342 -9.2e-5,1.80668 -1.38e-4,3.61337 -0.0025,5.42006 -0.0033,2.07305 -0.0098,4.14608 -0.01766,6.21911 -0.0065,2.51805 0.0019,5.03605 0.0055,7.5541 0.0085,2.35598 0.0073,4.7122 -0.01357,7.06806 -0.0311,2.96954 -0.148937,5.936 -0.30408,8.89921 -0.203088,3.39743 -0.519624,6.79346 -0.414696,10.20519 0.0019,2.94168 0.0195,5.88428 0.09985,8.82441 0.12942,4.09694 0.392791,8.18279 0.568119,12.27664 0.02133,4.02948 0.04097,8.06554 0.295387,12.08454 0.153124,1.88569 0.398705,3.74955 0.638619,5.61716 0.05955,0.14 0.02257,0.12471 0.11599,-0.0175 -1.725686,1.2662 -3.451371,2.53238 -5.177057,3.79856 -0.139097,0.10133 0.280746,-0.19982 0.408179,-0.32307 1.209949,-1.17017 -0.301077,0.0881 1.034046,-0.97688 1.986499,-1.47562 4.010951,-2.87332 5.959496,-4.42686 1.552349,-1.23766 -6.390146,4.57076 -4.770169,3.47863 3.130883,-2.11072 5.245853,-4.23775 8.422813,-5.36065 1.721684,-0.7367 3.491271,-1.26727 5.255817,-1.81309 1.867474,-0.40201 3.782029,-0.52951 5.588598,-1.29428 1.597247,-0.8242 3.125832,-1.82135 4.87669,-2.06321 2.067482,-0.47768 4.107423,-1.14254 6.122006,-1.89243 2.286707,-0.96064 4.537999,-2.03455 6.725351,-3.31755 2.322922,-1.34855 4.548449,-2.93895 6.863958,-4.30768 2.05948,-1.17599 4.105041,-2.39651 6.128729,-3.66521 2.633408,-1.73411 5.315399,-3.34832 7.956497,-5.06399 -8.552804,6.40993 -0.959748,0.69051 2.755486,-1.91854 1.283896,-0.90162 -5.079159,3.72959 -3.79402,2.83077 3.290663,-2.30149 6.46193,-4.92492 9.887209,-6.92147 3.211781,-1.94398 6.359971,-4.04718 9.538418,-6.07457 3.100004,-1.92866 6.130778,-4.02435 9.161843,-6.11789 3.70513,-2.51987 7.49299,-4.83827 11.24839,-7.23678 4.80482,-2.91192 9.81238,-5.25863 14.58842,-8.25602 3.27035,-2.0073 6.59126,-3.88027 9.93505,-5.68413 3.04795,-1.67505 6.01696,-3.534 8.99484,-5.39597 1.91766,-1.16948 3.81969,-2.37032 5.72136,-3.58008 0.69422,-0.44164 1.38977,-0.88001 2.08655,-1.31526 0.72034,-0.44997 2.76131,-2.01875 2.16478,-1.34039 -0.8607,0.97877 -1.98588,1.51073 -2.97882,2.26609 3.96069,-2.88395 7.92999,-5.85536 11.44284,-9.56543 2.19045,-2.26037 4.36554,-4.59636 6.10253,-7.43326 0,0 5.82621,-3.12931 5.82621,-3.12931 z"
       inkscape:connector-curvature="0" />
    <path
       style="fill:#ffffff;fill-opacity:1;stroke:#ffffff;stroke-width:1;stroke-linecap:round;stroke-linejoin:round;stroke-miterlimit:4;stroke-opacity:1;stroke-dasharray:none;stroke-dashoffset:0"
       id="path3011"
       d="m 179.39928,102.16437 c 1.45237,1.34793 2.48296,3.03382 3.63774,4.62213 1.6262,2.17219 3.13326,4.42693 4.65101,6.67533 1.52149,2.42126 3.06875,4.82498 4.62471,7.22434 0.86444,1.46698 1.8673,2.85324 2.6222,4.38301 0.68033,1.28314 1.2854,2.55929 0.88222,4.00885 -2.34246,3.03098 -6.44218,4.3894 -10.03856,5.52935 -2.45844,0.75771 -4.91558,1.52284 -7.38783,2.2385 -3.45024,0.93268 -7.01856,1.14722 -10.57157,1.28541 -3.54318,0.0859 -7.07329,0.4409 -10.60995,0.66211 -2.20505,0.12125 -4.41277,0.17637 -6.62078,0.1995 -1.91613,0.40488 -3.87592,0.48953 -5.82652,0.5767 -0.44369,0.0137 -0.88738,0.0274 -1.33107,0.0411 0,0 5.00441,-3.66368 5.00441,-3.66368 l 0,0 c 0.44461,-0.0185 0.88923,-0.037 1.33384,-0.0555 1.9782,-0.11829 3.93606,-0.35516 5.89997,-0.59612 2.17327,-0.0115 4.34699,-0.0441 6.51747,-0.16311 3.51591,-0.19303 7.02445,-0.52376 10.54574,-0.60414 3.55046,-0.17786 7.11678,-0.44545 10.54646,-1.45148 2.4888,-0.74062 4.96979,-1.51034 7.44063,-2.3073 0.88646,-0.30883 1.00828,-0.34348 1.87772,-0.67688 0.31303,-0.12003 1.21812,-0.54932 0.93583,-0.36847 -8.16509,5.23108 -5.26944,3.13533 -3.45383,2.01112 0.72986,-1.31802 -0.0534,-2.31478 -0.63209,-3.55053 -0.72018,-1.51841 -1.70373,-2.89151 -2.51492,-4.36054 -1.51365,-2.41754 -3.01394,-4.84374 -4.56482,-7.23762 -1.53196,-2.23203 -3.06104,-4.46575 -4.68949,-6.62916 -1.14624,-1.56599 -2.17863,-3.22711 -3.70729,-4.46622 0,0 5.42877,-3.32676 5.42877,-3.32676 z"
       inkscape:connector-curvature="0"
       transform="translate(0,852.36218)" />
    <text
       xml:space="preserve"
       style="font-size:20px;font-style:normal;font-weight:normal;line-height:50%;letter-spacing:0px;word-spacing:0px;fill:#000000;fill-opacity:1;stroke:none;font-family:Sans"
       x="162.30162"
       y="1048.4612"
       id="text3221"
       sodipodi:linespacing="50%"><tspan
         sodipodi:role="line"
         id="tspan3223"
         x="162.30162"
         y="1048.4612"
         style="font-size:56px;font-weight:bold;fill:#ffffff;stroke:#ffffff">3</tspan></text>
  </g>
</svg>
