<?xml version="1.0" encoding="UTF-8" standalone="no"?>
<!-- Created with Inkscape (http://www.inkscape.org/) -->

<svg
   xmlns:dc="http://purl.org/dc/elements/1.1/"
   xmlns:cc="http://creativecommons.org/ns#"
   xmlns:rdf="http://www.w3.org/1999/02/22-rdf-syntax-ns#"
   xmlns:svg="http://www.w3.org/2000/svg"
   xmlns="http://www.w3.org/2000/svg"
   xmlns:sodipodi="http://sodipodi.sourceforge.net/DTD/sodipodi-0.dtd"
   xmlns:inkscape="http://www.inkscape.org/namespaces/inkscape"
   width="200"
   height="200"
   id="svg2"
   version="1.1"
   inkscape:version="0.48.0 r9654"
   sodipodi:docname="t7.svg">
  <defs
     id="defs4" />
  <sodipodi:namedview
     id="base"
     pagecolor="#ffffff"
     bordercolor="#666666"
     borderopacity="1.0"
     inkscape:pageopacity="0.0"
     inkscape:pageshadow="2"
     inkscape:zoom="1.4"
     inkscape:cx="59.254678"
     inkscape:cy="101.41252"
     inkscape:document-units="px"
     inkscape:current-layer="layer1"
     showgrid="false"
     inkscape:window-width="999"
     inkscape:window-height="738"
     inkscape:window-x="120"
     inkscape:window-y="101"
     inkscape:window-maximized="0" />
  <metadata
     id="metadata7">
    <rdf:RDF>
      <cc:Work
         rdf:about="">
        <dc:format>image/svg+xml</dc:format>
        <dc:type
           rdf:resource="http://purl.org/dc/dcmitype/StillImage" />
        <dc:title />
      </cc:Work>
    </rdf:RDF>
  </metadata>
  <g
     inkscape:label="Layer 1"
     inkscape:groupmode="layer"
     id="layer1"
     transform="translate(0,-852.36218)">
    <flowRoot
       xml:space="preserve"
       id="flowRoot2997"
       style="fill:#ffffff;stroke:#ffffff;stroke-opacity:1;stroke-width:1px;stroke-linejoin:miter;stroke-linecap:butt;fill-opacity:1;font-family:Sans;font-style:normal;font-weight:normal;font-size:20px;line-height:50%;letter-spacing:0px;word-spacing:0px"><flowRegion
         id="flowRegion2999"><rect
           id="rect3001"
           width="91.923882"
           height="90.408653"
           x="98.994949"
           y="95.954292"
           style="fill:#ffffff;stroke:#ffffff" /></flowRegion><flowPara
         id="flowPara3003" /></flowRoot>    <flowRoot
       xml:space="preserve"
       id="flowRoot3005"
       style="fill:#ffffff;stroke:#ffffff;stroke-opacity:1;stroke-width:1px;stroke-linejoin:miter;stroke-linecap:butt;fill-opacity:1;font-family:Sans;font-style:normal;font-weight:normal;font-size:20px;line-height:50%;letter-spacing:0px;word-spacing:0px"><flowRegion
         id="flowRegion3007"><rect
           id="rect3009"
           width="114.65231"
           height="87.378197"
           x="77.276672"
           y="103.02536"
           style="fill:#ffffff;stroke:#ffffff" /></flowRegion><flowPara
         id="flowPara3011" /></flowRoot>    <rect
       style="fill:#000000;fill-opacity:1;stroke:#000000;stroke-width:1;stroke-linecap:round;stroke-linejoin:round;stroke-miterlimit:4;stroke-opacity:1;stroke-dasharray:none;stroke-dashoffset:0"
       id="rect3002"
       width="199.12645"
       height="199.18976"
       x="0.56820697"
       y="0.4948993"
       transform="translate(0,852.36218)" />
    <path
       style="fill:#ffffff;fill-opacity:1;stroke:#ffffff;stroke-width:1;stroke-linecap:round;stroke-linejoin:round;stroke-miterlimit:4;stroke-opacity:1;stroke-dasharray:none;stroke-dashoffset:0"
       id="path3111"
       d="m 22.568029,175.46161 c 0.08915,-2.63094 0.08787,-5.26411 0.116295,-7.8962 -0.01476,-4.09594 0.0934,-8.19313 -0.04457,-12.28719 -0.274,-4.71323 -0.433191,-9.43094 -0.537708,-14.15058 -0.06106,-5.89924 -0.02616,-11.79902 -0.0079,-17.69841 0.02871,-7.38163 0.728541,-14.74132 1.070016,-22.11372 0.266818,-5.876599 0.164526,-11.759054 0.466048,-17.63376 0.252003,-4.021562 0.387553,-8.048655 0.447544,-12.077271 0.08806,-3.146443 -0.08542,-6.298018 0.07956,-9.441403 0.249734,-2.648107 0.441237,-5.298985 0.53285,-7.957272 0.03085,-2.081668 0.03725,-4.155006 0.266303,-6.225722 0.370618,-1.821196 -7.8e-4,-3.844525 0.840532,-5.548371 6.190906,-3.753235 4.735479,-4.93277 7.461519,-2.675946 0.662361,0.548353 1.293932,1.080169 1.906446,1.687486 2.038127,2.156455 3.644032,4.684079 5.271379,7.154121 2.529393,3.690183 4.929054,7.465962 7.388772,11.202609 2.077034,3.13486 3.897906,6.42537 5.859356,9.631451 1.663606,2.63858 3.238774,5.329622 4.844952,8.002884 1.448992,2.547835 3.154413,4.933103 4.740189,7.394407 1.600477,2.745678 3.420504,5.344393 5.053448,8.07063 1.885015,3.447593 4.13967,6.656639 6.51392,9.779317 2.535233,3.31206 5.282594,6.4461 7.983734,9.62048 2.418412,3.07529 4.95326,6.04906 7.508307,9.01092 2.285352,2.75301 4.463207,5.59611 6.869303,8.24573 1.662763,1.95659 3.35074,3.89058 5.10528,5.76546 1.76265,1.69842 3.2994,3.59141 4.78643,5.52895 1.71083,2.34921 3.13062,4.89842 4.44407,7.48596 1.57716,2.9492 3.1648,5.89852 4.96881,8.71627 1.53432,2.26997 2.93466,4.62366 4.45375,6.90382 1.30302,1.96461 2.83421,3.75893 4.46016,5.46168 1.26759,1.1786 2.65114,2.19398 4.03405,3.22175 0.24415,0.15505 0.60165,0.44672 0.93229,0.45117 0.1037,0.001 0.19217,-0.078 0.28826,-0.11707 -1.96434,1.06263 -3.92305,2.13572 -5.89302,3.18788 -0.0936,0.05 0.19647,-0.0972 0.26217,-0.18046 0.0858,-0.10884 0.11794,-0.25088 0.17691,-0.37632 0.0424,-1.91736 -0.19374,-3.8481 -0.26441,-5.7722 -0.0968,-3.93529 -0.22189,-7.85889 0.26381,-11.77117 0.67439,-5.07343 1.85007,-10.05528 3.13235,-15.00341 1.50554,-5.69083 1.88768,-11.57102 2.15479,-17.42478 0.22952,-6.52431 0.21022,-13.05451 0.15548,-19.58167 -0.10449,-4.58143 0.23901,-9.157137 0.42138,-13.732869 0.10872,-3.760142 0.4599,-7.507743 0.66372,-11.263717 0.11721,-2.383376 0.14504,-4.769567 0.16908,-7.155275 -0.14118,-2.161241 -0.36706,-4.316396 -0.76512,-6.445548 -0.3817,-1.987227 -0.53129,-4.005466 -0.63193,-6.02314 -0.0367,-1.583319 -0.1432,-3.173096 -0.006,-4.753082 0.25383,-1.576421 0.46593,-3.157123 0.765,-4.725812 0.45388,-1.985583 1.00341,-3.947645 1.46013,-5.932181 0.36129,-1.785762 0.8237,-3.540001 1.06841,-5.347748 0.0972,-1.158905 0.1884,-2.309922 0.38297,-3.457221 0,0 6.29275,-3.061661 6.29275,-3.061661 l 0,0 c -0.23152,1.138169 -0.39859,2.267145 -0.41991,3.432363 -0.22805,1.836446 -0.65487,3.61547 -1.06224,5.416498 -0.43646,1.978866 -0.98382,3.929967 -1.45845,5.899758 -0.27178,1.555449 -0.47685,3.11383 -0.75106,4.669503 -0.23382,1.541085 -0.0551,3.115717 -0.0753,4.669469 0.0679,1.991878 0.19344,3.984987 0.56836,5.946537 0.39346,2.174425 0.63658,4.367091 0.8082,6.570506 -0.007,2.410903 -0.0566,4.821923 -0.23039,7.227433 -0.24692,3.765175 -0.64585,7.521499 -0.75419,11.294603 -0.19042,4.592628 -0.56522,9.179499 -0.57081,13.777774 -0.0463,6.54325 -0.0378,13.0874 -0.18844,19.62944 -0.22052,5.87392 -0.55494,11.77571 -1.99313,17.50142 -1.27537,4.91159 -2.50048,9.84812 -3.10466,14.89646 -0.51435,3.85046 -0.35817,7.72312 -0.18383,11.59714 0.1153,1.97403 0.31403,3.9363 0.52737,5.90116 -0.59029,3.5041 -5.36773,6.07985 -8.06965,3.80867 -1.40346,-1.0494 -2.74712,-2.16563 -4.01719,-3.37689 -1.62279,-1.75754 -3.21837,-3.54923 -4.52204,-5.56227 -1.5005,-2.29618 -2.84945,-4.68406 -4.38178,-6.95987 -1.79416,-2.85007 -3.41306,-5.80275 -5.00188,-8.77146 -1.30352,-2.5454 -2.75913,-5.02747 -4.44895,-7.33772 -1.472188,-1.92069 -3.02099,-3.77299 -4.746631,-5.4743 -1.755574,-1.87961 -3.43892,-3.8195 -5.079576,-5.80048 -2.354039,-2.69425 -4.479301,-5.57506 -6.787437,-8.30891 -2.547623,-2.97051 -5.127845,-5.91248 -7.523066,-9.0092 -2.682648,-3.2009 -5.417558,-6.35781 -7.970804,-9.66533 -2.415439,-3.12364 -4.677548,-6.356594 -6.608516,-9.807179 -1.674491,-2.692772 -3.486433,-5.292618 -5.086201,-8.031361 -1.596224,-2.464744 -3.320467,-4.848602 -4.761745,-7.411113 -1.581624,-2.684806 -3.164472,-5.367855 -4.796072,-8.022876 -1.946186,-3.207014 -3.73806,-6.503749 -5.768674,-9.659708 -2.431305,-3.751336 -4.844873,-7.517286 -7.428155,-11.166679 -1.665345,-2.394785 -3.286431,-4.869769 -5.361669,-6.934384 -0.610732,-0.576692 -1.238197,-1.101464 -1.919436,-1.593738 -0.150534,-0.108778 -0.291855,-0.235718 -0.460297,-0.313954 -0.09582,-0.04451 -0.402664,0.01142 -0.313671,-0.04553 1.887679,-1.207908 3.84809,-2.298193 5.772136,-3.44729 -1.387824,0.815304 -0.799349,3.809093 -1.136201,5.206727 -0.232304,2.061843 -0.254922,4.118356 -0.308673,6.192161 -0.123928,2.665845 -0.282877,5.329835 -0.555104,7.985292 -0.227996,3.145765 -0.06966,6.307544 -0.182677,9.458825 -0.07788,4.048305 -0.199174,8.095791 -0.499026,12.134883 -0.393752,5.911995 -0.47556,11.835265 -0.725307,17.754797 -0.338993,7.349045 -1.006221,14.689765 -1.006863,22.047835 0.02442,5.86843 0.04625,11.73722 0.162271,17.60472 0.08943,4.71241 0.262424,9.42177 0.559259,14.12609 0.176036,4.08912 0.08991,8.18239 0.126312,12.27449 0.02831,2.59259 0.02628,5.18631 0.116295,7.77769 0,0 -6.292513,3.2062 -6.292513,3.2062 z"
       inkscape:connector-curvature="0"
       transform="translate(0,852.36218)" />
    <path
       style="fill:#ffffff;fill-opacity:1;stroke:#ffffff;stroke-width:1;stroke-linecap:round;stroke-linejoin:round;stroke-miterlimit:4;stroke-opacity:1;stroke-dasharray:none;stroke-dashoffset:0"
       id="path3119"
       d="m 107.70263,45.383031 c 1.51623,-1.507789 2.8958,-3.155285 4.27576,-4.788382 1.60334,-1.977461 3.19124,-3.967093 4.69177,-6.024111 1.47739,-2.022379 3.03861,-3.98254 4.62645,-5.920054 1.64208,-1.951447 3.56281,-3.643904 5.36884,-5.440061 2.0768,-1.922421 4.08691,-3.900477 6.00352,-5.982645 2.26462,-2.278753 7.01121,-8.1416743 9.85356,-5.670317 0.85346,1.372597 1.58731,2.830289 2.36234,4.257038 1.04552,2.189936 2.32672,4.247319 3.4203,6.411642 0.83669,2.172448 2.10214,4.158808 3.48418,6.022821 0.88397,1.43839 1.94974,2.604081 3.32149,3.569493 1.47685,0.688347 2.70792,1.711875 3.94557,2.744647 1.23778,0.87299 2.3554,1.880692 3.70006,2.593186 1.11401,0.681174 2.27807,1.288935 3.10333,2.322574 0.43813,0.520792 0.79057,1.058784 1.33991,1.469246 0,0 -5.97191,3.741201 -5.97191,3.741201 l 0,0 c -0.54132,-0.477109 -0.958,-1.030922 -1.40776,-1.592079 -0.78516,-0.933077 -1.90989,-1.473632 -2.92143,-2.124339 -1.34269,-0.784265 -2.542,-1.76484 -3.77696,-2.704813 -1.21469,-1.042449 -2.49824,-1.944159 -3.91621,-2.696989 -1.40385,-1.025738 -2.49147,-2.297617 -3.40188,-3.782658 -1.36497,-1.920791 -2.63389,-3.94158 -3.49031,-6.14481 -1.10298,-2.149874 -2.37622,-4.201052 -3.45605,-6.362809 -0.74188,-1.309722 -1.43051,-2.678507 -2.28877,-3.901809 -0.28462,-0.02845 -0.11777,-0.03794 -0.4898,0.107043 1.80579,-1.069995 3.61157,-2.139989 5.41736,-3.209984 1.08571,-0.621945 -3.56832,2.470037 -2.47836,2.291185 -1.91723,2.082854 -3.86779,4.123744 -5.98932,6.002584 -1.76547,1.823491 -3.69344,3.484846 -5.38082,5.380786 -1.60997,1.915775 -3.13189,3.885116 -4.63948,5.878374 -1.50528,2.067579 -3.07034,4.082056 -4.68293,6.06675 -1.31988,1.626868 -2.708,3.204828 -4.0865,4.780011 0,0 -6.53595,2.707279 -6.53595,2.707279 z"
       inkscape:connector-curvature="0"
       transform="translate(0,852.36218)" />
    <text
       xml:space="preserve"
       style="font-size:20px;font-style:normal;font-weight:normal;line-height:50%;letter-spacing:0px;word-spacing:0px;fill:#000000;fill-opacity:1;stroke:none;font-family:Sans"
       x="162.30162"
       y="1048.4613"
       id="text3221"
       sodipodi:linespacing="50%"><tspan
         sodipodi:role="line"
         id="tspan3223"
         x="162.30162"
         y="1048.4613"
         style="font-size:56px;font-weight:bold;fill:#ffffff;stroke:#ffffff">3</tspan></text>
  </g>
</svg>
