<?xml version="1.0" encoding="UTF-8" standalone="no"?>
<!-- Created with Inkscape (http://www.inkscape.org/) -->

<svg
   xmlns:dc="http://purl.org/dc/elements/1.1/"
   xmlns:cc="http://creativecommons.org/ns#"
   xmlns:rdf="http://www.w3.org/1999/02/22-rdf-syntax-ns#"
   xmlns:svg="http://www.w3.org/2000/svg"
   xmlns="http://www.w3.org/2000/svg"
   xmlns:sodipodi="http://sodipodi.sourceforge.net/DTD/sodipodi-0.dtd"
   xmlns:inkscape="http://www.inkscape.org/namespaces/inkscape"
   width="200"
   height="200"
   id="svg2"
   version="1.1"
   inkscape:version="0.48.0 r9654"
   sodipodi:docname="t8.svg">
  <defs
     id="defs4" />
  <sodipodi:namedview
     id="base"
     pagecolor="#ffffff"
     bordercolor="#666666"
     borderopacity="1.0"
     inkscape:pageopacity="0.0"
     inkscape:pageshadow="2"
     inkscape:zoom="1.4"
     inkscape:cx="59.254678"
     inkscape:cy="101.41252"
     inkscape:document-units="px"
     inkscape:current-layer="layer1"
     showgrid="false"
     inkscape:window-width="999"
     inkscape:window-height="738"
     inkscape:window-x="120"
     inkscape:window-y="100"
     inkscape:window-maximized="0" />
  <metadata
     id="metadata7">
    <rdf:RDF>
      <cc:Work
         rdf:about="">
        <dc:format>image/svg+xml</dc:format>
        <dc:type
           rdf:resource="http://purl.org/dc/dcmitype/StillImage" />
        <dc:title />
      </cc:Work>
    </rdf:RDF>
  </metadata>
  <g
     inkscape:label="Layer 1"
     inkscape:groupmode="layer"
     id="layer1"
     transform="translate(0,-852.36218)">
    <flowRoot
       xml:space="preserve"
       id="flowRoot2997"
       style="fill:#ffffff;stroke:#ffffff;stroke-opacity:1;stroke-width:1px;stroke-linejoin:miter;stroke-linecap:butt;fill-opacity:1;font-family:Sans;font-style:normal;font-weight:normal;font-size:20px;line-height:50%;letter-spacing:0px;word-spacing:0px"><flowRegion
         id="flowRegion2999"><rect
           id="rect3001"
           width="91.923882"
           height="90.408653"
           x="98.994949"
           y="95.954292"
           style="fill:#ffffff;stroke:#ffffff" /></flowRegion><flowPara
         id="flowPara3003" /></flowRoot>    <flowRoot
       xml:space="preserve"
       id="flowRoot3005"
       style="fill:#ffffff;stroke:#ffffff;stroke-opacity:1;stroke-width:1px;stroke-linejoin:miter;stroke-linecap:butt;fill-opacity:1;font-family:Sans;font-style:normal;font-weight:normal;font-size:20px;line-height:50%;letter-spacing:0px;word-spacing:0px"><flowRegion
         id="flowRegion3007"><rect
           id="rect3009"
           width="114.65231"
           height="87.378197"
           x="77.276672"
           y="103.02536"
           style="fill:#ffffff;stroke:#ffffff" /></flowRegion><flowPara
         id="flowPara3011" /></flowRoot>    <rect
       style="fill:#000000;fill-opacity:1;stroke:#000000;stroke-width:1;stroke-linecap:round;stroke-linejoin:round;stroke-miterlimit:4;stroke-opacity:1;stroke-dasharray:none;stroke-dashoffset:0"
       id="rect3002"
       width="199.12645"
       height="199.18976"
       x="0.56820697"
       y="0.4948993"
       transform="translate(0,852.36218)" />
    <path
       style="fill:#ffffff;fill-opacity:1;stroke:#ffffff;stroke-width:1;stroke-linecap:round;stroke-linejoin:round;stroke-miterlimit:4;stroke-opacity:1;stroke-dasharray:none;stroke-dashoffset:0"
       id="path3003"
       d="m 122.99984,23.421959 c 1.47258,0.53701 2.93259,0.967681 4.30846,1.741064 1.69638,0.825938 3.22224,1.92231 4.79763,2.946945 1.84821,1.108177 3.47102,2.480718 5.01175,3.972914 1.55733,1.465332 2.76039,3.245359 4.05501,4.934378 1.56563,2.173223 3.30846,4.226286 4.83328,6.427145 1.54488,2.277267 2.76064,4.750929 4.0332,7.185112 1.18464,2.325685 2.06816,4.782597 3.15039,7.151986 1.1345,2.620532 2.37541,5.187985 3.33362,7.880547 0.79667,2.389269 1.41485,4.826714 1.71772,7.327465 0.39234,2.27058 0.67207,4.554062 0.84865,6.850831 0.14319,2.082638 0.13237,4.171742 0.11632,6.257973 -0.0261,2.888933 -0.0191,5.777971 -0.0199,8.666993 0.0146,2.380238 0.0254,4.760455 0.0194,7.140738 0.11255,2.23939 -0.19001,4.45773 -0.41326,6.67943 -0.19371,1.77667 -0.12439,3.56834 -0.43267,5.33081 -0.29782,1.35878 -0.71718,2.68892 -1.0794,4.03326 -0.4622,1.91501 -1.08414,3.77109 -1.91857,5.55453 -0.92682,1.87899 -1.99992,3.68099 -2.879,5.58324 -0.72466,1.76948 -1.4466,3.5596 -2.33631,5.2548 -0.8077,1.50655 -1.7017,2.96517 -2.50324,4.47484 -1.10789,1.86913 -2.47618,3.56183 -3.78319,5.29243 -1.5166,1.86049 -3.18981,3.587 -4.9138,5.25495 -1.34137,1.18509 -2.59005,2.49596 -4.0249,3.5701 -3.82154,3.04347 -6.47062,3.6498 -10.52129,4.97539 -2.77555,1.05777 -5.52583,2.20105 -8.30195,3.27078 -2.85139,1.22167 -5.72655,2.36241 -8.67824,3.32076 -2.08076,0.67774 -4.26511,0.82466 -6.43604,0.89738 -2.326659,-1.3e-4 -4.636452,0.005 -6.951809,0.24294 -2.170462,0.29507 -4.340785,0.0634 -6.478676,-0.32661 -2.37306,-0.59063 -4.72068,-1.27558 -7.093956,-1.86535 -3.1968,-0.88703 -6.434114,-1.61309 -9.642051,-2.45741 -2.262091,-0.48013 -4.458577,-1.2188 -6.722636,-1.68574 -1.486635,-0.40142 -2.873492,-1.06277 -4.295988,-1.64002 -1.903117,-0.72933 -3.564678,-1.92191 -5.217607,-3.08839 -2.181516,-1.62551 -4.416515,-3.19481 -6.690721,-4.69195 -2.292579,-1.39018 -4.439153,-2.94669 -6.506501,-4.64561 -1.689927,-1.22384 -2.999963,-2.80164 -4.350662,-4.36565 -1.048302,-1.30231 -1.970385,-2.69982 -2.659597,-4.22385 -0.508638,-1.72621 -1.339971,-3.31975 -2.021218,-4.98075 -0.892554,-2.46414 -1.862659,-4.9018 -2.832616,-7.33699 -0.814396,-2.11583 -1.269873,-4.3415 -1.866401,-6.52287 -0.544309,-2.11687 -1.398474,-4.12627 -1.977636,-6.23349 -0.477495,-1.61835 -0.471543,-3.31005 -0.691076,-4.96644 -0.311324,-1.76585 -0.47212,-3.54725 -0.552701,-5.33684 -0.07041,-2.185915 -0.06769,-4.373092 -0.07603,-6.559841 -0.106011,-2.299163 0.107158,-4.579219 0.329877,-6.863576 0.226568,-2.24807 0.302348,-4.50593 0.357581,-6.76333 0.133686,-2.246937 0.530982,-4.458188 0.918749,-6.670856 0.259833,-1.703905 0.397605,-3.41227 0.86647,-5.075888 0.49342,-1.623207 1.039867,-3.228114 1.586911,-4.833643 0.493503,-1.588877 1.017208,-3.158619 1.447281,-4.766342 0.455932,-1.803097 0.933907,-3.59344 1.706605,-5.28771 0.830683,-1.586317 1.815609,-3.092424 2.892654,-4.521893 1.070454,-1.571986 2.273734,-3.032805 3.532527,-4.456899 1.196021,-1.110838 2.323394,-2.296612 3.541274,-3.38424 1.196373,-0.976152 2.351889,-2.003168 3.55859,-2.966926 2.285072,-1.689206 4.860728,-2.930848 7.299591,-4.376075 1.557759,-0.923101 -3.132472,1.817361 -4.705871,2.713544 -0.178692,0.10178 0.51245,-0.317789 1.396375,-0.855432 2.033751,-1.147726 4.04752,-2.331603 6.101253,-3.443178 0.226645,-0.12267 0.492362,-0.154864 0.730128,-0.254278 0.213178,-0.08913 0.820267,-0.425286 0.619907,-0.310196 -8.518424,4.893134 -5.823127,3.352583 -3.947794,2.126283 2.828436,-1.294511 5.415838,-3.754415 8.605235,-4.276718 1.492092,-0.05502 2.914896,-0.458043 4.34226,-0.861105 1.700368,-0.666823 3.453657,-1.19398 5.156162,-1.854282 1.568067,-0.547333 3.111004,-1.105826 4.747109,-1.410015 1.584339,-0.260089 3.19154,-0.300378 4.793309,-0.323327 0.730121,-0.0073 1.460282,-0.0057 2.190425,-0.0049 0,0 -5.101802,3.70637 -5.101802,3.70637 l 0,0 c -0.726693,2.81e-4 -1.453423,-2.62e-4 -2.180046,0.01177 -1.575897,0.03471 -3.158378,0.09437 -4.708546,0.405837 -1.601082,0.364821 -3.135745,0.947628 -4.686056,1.482956 -1.728045,0.611794 -3.451958,1.235463 -5.191155,1.815196 -1.448894,0.398401 -2.909911,0.68447 -4.403065,0.853117 -2.454186,0.614416 -7.112572,3.762491 2.344923,-1.821381 -2.317788,1.242524 -4.775709,2.866051 -6.901212,4.077486 -0.417967,0.238221 -1.737566,0.817962 -1.32745,0.566467 1.54354,-0.94654 3.124664,-1.830379 4.686996,-2.745568 -2.51175,1.432404 -4.884717,2.916352 -7.457707,4.363161 -1.586023,0.891832 3.136348,-1.845932 4.716809,-2.747585 0.437921,-0.249835 -1.668802,1.068571 -1.271989,0.818395 -1.215995,0.954838 -2.363957,1.98118 -3.574982,2.93984 -1.240426,1.065831 -2.330382,2.273773 -3.588767,3.32059 -1.269882,1.407807 -2.533685,2.812479 -3.550901,4.415821 -1.095792,1.386397 -2.059857,2.867518 -2.945865,4.395306 -0.798012,1.655974 -1.357773,3.384035 -1.743176,5.186835 -0.455747,1.613349 -0.897931,3.218041 -1.451895,4.801527 -0.503719,1.609586 -1.08961,3.193177 -1.565289,4.812956 -0.55535,1.631377 -0.678114,3.33212 -0.942685,5.026349 -0.397846,2.183359 -0.813404,4.360575 -0.954341,6.580669 -0.04625,2.278115 -0.169184,4.555175 -0.379744,6.824195 -0.204636,2.263632 -0.424488,4.517845 -0.324732,6.794862 -0.0033,2.175704 -0.0025,4.352369 0.07742,6.526872 0.08682,1.764653 0.222953,3.527193 0.559823,5.264763 0.254418,1.63358 0.169683,3.31493 0.615328,4.92438 0.542496,2.11833 1.419054,4.11521 1.964854,6.23159 0.613545,2.15811 1.020835,4.37534 1.806321,6.48207 0.952987,2.4361 1.915097,4.86941 2.852554,7.31023 0.706968,1.64215 1.573262,3.21551 2.064758,4.94153 0.64489,1.47758 1.54754,2.81571 2.544629,4.07927 1.316919,1.54428 2.610384,3.08354 4.258086,4.29977 2.025452,1.70819 4.181113,3.20878 6.430285,4.6119 2.284053,1.50635 4.527671,3.07961 6.7497,4.67422 1.638614,1.13264 3.294107,2.27103 5.185688,2.94434 1.387864,0.57567 2.769134,1.176 4.226299,1.55792 2.225873,0.53178 4.399966,1.26115 6.630615,1.77788 3.216073,0.84284 6.450629,1.60897 9.672731,2.42756 2.374104,0.59819 4.731804,1.26277 7.122885,1.7919 2.099132,0.35859 4.22972,0.49966 6.350163,0.21156 2.328453,-0.20459 4.656303,-0.18009 6.991563,-0.23127 2.13382,-0.10858 4.2684,-0.31022 6.30315,-1.01167 2.91673,-0.9674 5.75925,-2.11203 8.59361,-3.2966 2.81076,-1.10094 5.58924,-2.29127 8.42488,-3.32081 0.92185,-0.29347 1.85306,-0.5638 2.76757,-0.87975 2.11327,-0.73011 5.65037,-2.97164 -3.05819,2.04018 1.54024,-0.94612 2.73446,-2.35384 4.12453,-3.49695 1.73433,-1.64845 3.40646,-3.35166 4.96597,-5.16802 1.28592,-1.714 2.59839,-3.38874 3.78112,-5.17506 0.76283,-1.53388 1.66746,-2.98882 2.4898,-4.49032 0.96265,-1.64587 1.6574,-3.45399 2.3789,-5.21084 0.81269,-1.94554 1.94757,-3.72032 2.87938,-5.60872 0.86579,-1.72805 1.50043,-3.54007 1.92463,-5.42773 0.35918,-1.33043 0.70835,-2.663 1.08275,-3.98569 0.37962,-1.75011 0.35671,-3.52756 0.52314,-5.30781 0.20627,-2.2073 0.56215,-4.40472 0.44737,-6.62917 -0.006,-2.38777 0.006,-4.775474 0.0239,-7.163181 0.003,-2.883451 0.018,-5.766933 -0.009,-8.650308 -0.0238,-2.068697 -0.0241,-4.138631 -0.1272,-6.205396 -0.13991,-2.293214 -0.40159,-4.573182 -0.80947,-6.835331 -0.29524,-2.462422 -0.84824,-4.865279 -1.62489,-7.222503 -0.93973,-2.677988 -2.16453,-5.233141 -3.30253,-7.830383 -1.10838,-2.346496 -1.98975,-4.794839 -3.14978,-7.120667 -1.24889,-2.416179 -2.45682,-4.863501 -3.97331,-7.126127 -1.54044,-2.181495 -3.27414,-4.232495 -4.86644,-6.376385 -1.27624,-1.668706 -2.49357,-3.399187 -4.02987,-4.845927 -1.49829,-1.486534 -3.13084,-2.780998 -4.94403,-3.872024 -1.55479,-1.032007 -3.11857,-2.044044 -4.78568,-2.890158 -1.40251,-0.724559 -2.9078,-1.098471 -4.36942,-1.677446 0,0 5.31616,-3.497845 5.31616,-3.497845 z"
       inkscape:connector-curvature="0"
       transform="translate(0,852.36218)" />
    <path
       style="fill:#ffffff;fill-opacity:1;stroke:#ffffff;stroke-width:1;stroke-linecap:round;stroke-linejoin:round;stroke-miterlimit:4;stroke-opacity:1;stroke-dasharray:none;stroke-dashoffset:0"
       id="path3007"
       d="m 75.991665,9.1062496 c 1.965624,0.8076853 3.951744,1.5724044 5.92905,2.3553954 2.474758,0.91149 5.006207,1.668422 7.520779,2.465005 2.053643,0.822823 4.187945,1.393502 6.262898,2.149939 1.242896,0.409114 2.47487,0.936543 3.551109,1.689783 1.030099,0.921983 1.234589,2.232289 1.365859,3.538112 0.15091,2.072975 -0.36721,4.095084 -1.054197,6.03089 -0.600468,2.160286 -1.803587,3.970604 -3.198138,5.68814 -1.193816,1.476215 -2.589846,2.744557 -4.047082,3.950717 -1.393203,1.037334 -2.807972,2.044995 -4.185441,3.103738 -1.022112,0.769118 -2.013639,1.576047 -2.830561,2.56392 -0.53038,0.552292 -1.005039,1.137723 -1.459382,1.752791 0,0 -5.757343,2.509317 -5.757343,2.509317 l 0,0 c 0.408362,-0.63921 0.776421,-1.310369 1.411928,-1.756796 0.73298,-1.0996 1.726139,-1.961482 2.796871,-2.725196 1.334384,-1.116136 2.784636,-2.098484 4.2056,-3.102409 1.451767,-1.195546 2.904582,-2.379431 4.099666,-3.846878 1.419282,-1.654073 2.747557,-3.362624 3.319035,-5.509746 0.71182,-1.829205 1.231242,-3.758802 1.098469,-5.739652 -0.09267,-1.110071 -0.179501,-2.283908 -1.095434,-3.04627 -1.068569,-0.68258 -2.248947,-1.168339 -3.443609,-1.58397 -2.032482,-0.776877 -4.121934,-1.392595 -6.149355,-2.186745 -2.54481,-0.790992 -5.104154,-1.550307 -7.606464,-2.466766 -1.972817,-0.811109 -3.956802,-1.591394 -5.978012,-2.275484 0,0 5.243754,-3.5578354 5.243754,-3.5578354 z"
       inkscape:connector-curvature="0"
       transform="translate(0,852.36218)" />
    <text
       xml:space="preserve"
       style="font-size:20px;font-style:normal;font-weight:normal;line-height:50%;letter-spacing:0px;word-spacing:0px;fill:#000000;fill-opacity:1;stroke:none;font-family:Sans"
       x="161.58733"
       y="1047.7469"
       id="text3221"
       sodipodi:linespacing="50%"><tspan
         sodipodi:role="line"
         id="tspan3223"
         x="161.58733"
         y="1047.7469"
         style="font-size:56px;font-weight:bold;fill:#ffffff;stroke:#ffffff">3</tspan></text>
  </g>
</svg>
