<?xml version="1.0" encoding="UTF-8" standalone="no"?>
<!-- Created with Inkscape (http://www.inkscape.org/) -->

<svg
   xmlns:dc="http://purl.org/dc/elements/1.1/"
   xmlns:cc="http://creativecommons.org/ns#"
   xmlns:rdf="http://www.w3.org/1999/02/22-rdf-syntax-ns#"
   xmlns:svg="http://www.w3.org/2000/svg"
   xmlns="http://www.w3.org/2000/svg"
   xmlns:sodipodi="http://sodipodi.sourceforge.net/DTD/sodipodi-0.dtd"
   xmlns:inkscape="http://www.inkscape.org/namespaces/inkscape"
   width="200"
   height="200"
   id="svg2"
   version="1.1"
   inkscape:version="0.48.0 r9654"
   sodipodi:docname="t9.svg">
  <defs
     id="defs4" />
  <sodipodi:namedview
     id="base"
     pagecolor="#ffffff"
     bordercolor="#666666"
     borderopacity="1.0"
     inkscape:pageopacity="0.0"
     inkscape:pageshadow="2"
     inkscape:zoom="1.4"
     inkscape:cx="59.254678"
     inkscape:cy="101.41252"
     inkscape:document-units="px"
     inkscape:current-layer="layer1"
     showgrid="false"
     inkscape:window-width="999"
     inkscape:window-height="738"
     inkscape:window-x="120"
     inkscape:window-y="100"
     inkscape:window-maximized="0" />
  <metadata
     id="metadata7">
    <rdf:RDF>
      <cc:Work
         rdf:about="">
        <dc:format>image/svg+xml</dc:format>
        <dc:type
           rdf:resource="http://purl.org/dc/dcmitype/StillImage" />
        <dc:title />
      </cc:Work>
    </rdf:RDF>
  </metadata>
  <g
     inkscape:label="Layer 1"
     inkscape:groupmode="layer"
     id="layer1"
     transform="translate(0,-852.36218)">
    <flowRoot
       xml:space="preserve"
       id="flowRoot2997"
       style="fill:#ffffff;stroke:#ffffff;stroke-opacity:1;stroke-width:1px;stroke-linejoin:miter;stroke-linecap:butt;fill-opacity:1;font-family:Sans;font-style:normal;font-weight:normal;font-size:20px;line-height:50%;letter-spacing:0px;word-spacing:0px"><flowRegion
         id="flowRegion2999"><rect
           id="rect3001"
           width="91.923882"
           height="90.408653"
           x="98.994949"
           y="95.954292"
           style="fill:#ffffff;stroke:#ffffff" /></flowRegion><flowPara
         id="flowPara3003" /></flowRoot>    <flowRoot
       xml:space="preserve"
       id="flowRoot3005"
       style="fill:#ffffff;stroke:#ffffff;stroke-opacity:1;stroke-width:1px;stroke-linejoin:miter;stroke-linecap:butt;fill-opacity:1;font-family:Sans;font-style:normal;font-weight:normal;font-size:20px;line-height:50%;letter-spacing:0px;word-spacing:0px"><flowRegion
         id="flowRegion3007"><rect
           id="rect3009"
           width="114.65231"
           height="87.378197"
           x="77.276672"
           y="103.02536"
           style="fill:#ffffff;stroke:#ffffff" /></flowRegion><flowPara
         id="flowPara3011" /></flowRoot>    <rect
       style="fill:#000000;fill-opacity:1;stroke:#000000;stroke-width:1;stroke-linecap:round;stroke-linejoin:round;stroke-miterlimit:4;stroke-opacity:1;stroke-dasharray:none;stroke-dashoffset:0"
       id="rect3002"
       width="199.12645"
       height="199.18976"
       x="0.56820697"
       y="0.4948993"
       transform="translate(0,852.36218)" />
    <path
       style="fill:#ffffff;fill-opacity:1;stroke:#ffffff;stroke-width:1;stroke-linecap:round;stroke-linejoin:round;stroke-miterlimit:4;stroke-opacity:1;stroke-dasharray:none;stroke-dashoffset:0"
       id="path3121"
       d="m 38.945772,184.70953 c -0.208056,-2.01524 -0.645193,-3.99304 -0.932327,-5.99778 -0.343519,-2.74981 -0.325448,-5.52571 -0.332829,-8.29159 0.08989,-3.95582 -0.03939,-7.90118 -0.30378,-11.84751 -0.256225,-3.57865 -0.335027,-7.16428 -0.385022,-10.75044 -0.03113,-3.37972 -0.04624,-6.75979 -0.03933,-10.13968 0.0069,-3.91711 0.03292,-7.83413 0.0573,-11.75118 0.02657,-4.78856 0.0197,-9.57735 -0.0056,-14.36591 -0.03777,-3.37144 -0.05521,-6.74275 -0.05629,-10.11438 -0.0051,-3.360562 0.02324,-6.720959 0.01916,-10.08152 0.0047,-3.83249 0.346836,-7.653754 0.507464,-11.481688 0.253918,-2.97538 0.542314,-5.947415 0.94359,-8.906614 0.599692,-2.944577 0.986076,-5.91721 1.195876,-8.913154 0.178292,-2.38997 0.889459,-4.690236 1.63153,-6.954876 0.76833,-2.629124 1.127179,-5.340615 1.876955,-7.976974 0.832545,-2.219715 1.622298,-4.455227 2.447332,-6.677903 0.982391,-2.381041 1.927007,-4.777313 2.850221,-7.182096 0.93083,-2.293209 2.230563,-4.388317 3.552579,-6.468231 1.206656,-1.903284 2.516694,-3.734204 3.927148,-5.490498 2.404052,-2.981817 6.270485,-5.528862 9.976144,-6.069521 2.472823,-0.233152 4.960735,-0.163381 7.440758,-0.145106 3.925128,0.06573 7.853158,-0.03975 11.774941,0.145592 3.625606,0.147026 7.204513,0.721971 10.68633,1.72969 2.720587,0.774363 5.351779,1.837764 7.966299,2.911537 3.03603,1.259137 6.01361,2.639514 9.04069,3.924323 3.22096,1.303786 6.26776,2.990102 9.27149,4.726888 3.12037,1.649715 6.17026,3.457556 9.08661,5.447702 2.50707,1.712576 4.75914,3.751816 6.9688,5.823973 1.79081,1.824414 3.46383,3.757318 5.18321,5.648063 1.40733,1.708539 2.33322,3.679369 2.92351,5.796786 0.32559,1.712485 0.64835,3.42802 0.89247,5.155096 0.22542,2.510713 0.22716,5.035642 0.23027,7.55449 0.006,2.958618 -0.24181,5.921802 -0.57353,8.86087 -0.32871,2.963054 -0.65895,5.907201 -1.25991,8.828862 -0.46109,2.27854 -1.1882,4.44419 -2.08504,6.580206 -0.69632,1.673982 -1.6784,3.188175 -2.81709,4.590196 -2.93233,3.091854 -7.00905,4.78456 -10.79937,6.642335 -1.75394,0.563362 -3.37486,1.413432 -5.05567,2.146672 -1.9721,0.93691 -3.96049,1.82245 -5.95417,2.71962 -1.76027,0.82471 -3.68401,1.21093 -5.48313,1.90784 -1.4246,0.84479 -3.06312,1.02434 -4.6108,1.49104 -1.82681,0.48859 -3.6444,1.04263 -5.4242,1.68709 -2.03219,0.67279 -4.161932,0.95457 -6.287256,1.12546 -2.028439,0.20845 -4.04409,0.48265 -6.087239,0.6045 -2.615517,0.22632 -5.213575,0.0784 -7.817432,-0.17963 -1.962838,-0.22824 -3.936932,-0.29673 -5.910775,-0.33959 -1.982902,-0.14385 -3.925641,0.0709 -5.8838,0.34392 -1.50793,0.2436 -3.040812,0.16129 -4.504427,0.62557 -0.09912,0.0639 -0.198241,0.12782 -0.297361,0.19173 0,0 5.553544,-4.38885 5.553544,-4.38885 l 0,0 c 0.110205,-0.0258 0.220411,-0.0515 0.330617,-0.0772 1.487268,-0.28212 3.007707,-0.28446 4.502529,-0.52314 1.970618,-0.25094 3.938723,-0.35467 5.925868,-0.24106 1.982665,0.0455 3.964929,0.13033 5.93295,0.39123 2.573383,0.26901 5.144559,0.3406 7.726616,0.0996 2.052656,-0.16201 4.078296,-0.50643 6.130936,-0.65191 2.09335,-0.19615 4.17988,-0.52236 6.16351,-1.2486 1.81489,-0.60817 3.63706,-1.20428 5.4924,-1.67793 1.5767,-0.38159 3.11063,-0.84034 4.58508,-1.53189 1.8294,-0.56129 3.6469,-1.14413 5.40203,-1.91764 2.00518,-0.872632 3.97001,-1.826837 5.95969,-2.733211 1.66317,-0.788546 3.36005,-1.466129 5.05874,-2.170452 2.24942,-1.076492 5.74967,-3.27419 -3.43498,2.152925 -0.28341,0.167467 0.59031,-0.293653 0.8704,-0.466622 0.84629,-0.522621 0.81386,-0.571849 1.50071,-1.268376 1.19396,-1.305833 2.1541,-2.787788 2.90414,-4.391673 0.39219,-0.923533 0.89639,-1.8393 1.21843,-2.788904 0.41012,-1.209371 0.59407,-2.500401 1.0033,-3.711293 0.64432,-2.899828 1.00131,-5.819688 1.28894,-8.775324 0.38652,-2.90535 0.59229,-5.856328 0.62132,-8.785202 -0.0338,-2.475607 -0.0328,-4.95848 -0.29107,-7.423512 -0.22196,-1.705777 -0.58374,-3.385731 -0.83687,-5.085888 -0.51243,-2.025965 -1.38499,-3.908304 -2.71276,-5.539086 -1.69115,-1.892112 -3.37329,-3.790537 -5.1443,-5.608392 -2.15544,-2.065709 -4.37251,-4.076137 -6.8362,-5.774189 -2.92117,-1.954447 -5.94796,-3.759835 -9.0511,-5.409725 -3.00388,-1.695683 -6.03692,-3.35782 -9.24017,-4.651665 -3.0339,-1.288547 -6.02512,-2.670959 -9.09234,-3.876666 -2.594083,-1.040299 -5.1856,-2.109238 -7.874134,-2.883542 -3.440507,-0.955369 -6.971788,-1.486145 -10.541821,-1.637853 -3.938176,-0.155764 -7.880906,-0.05794 -11.821491,-0.07592 -2.489786,0.01568 -5.001798,-0.03781 -7.469607,0.337831 -2.869714,0.745322 -0.854364,0.305775 4.451732,-2.929286 0.204851,-0.124895 -0.441473,0.191285 -0.64778,0.313758 -0.734853,0.436241 -1.30581,1.068263 -1.818675,1.741135 -1.415536,1.755073 -2.802728,3.524059 -4.004985,5.439023 -1.303288,2.062063 -2.631593,4.10839 -3.624893,6.346726 -0.893662,2.402777 -1.852025,4.781979 -2.809546,7.160018 -0.83454,2.224805 -1.614113,4.468437 -2.528075,6.662435 -0.802981,2.619451 -1.151311,5.323197 -1.82036,7.974889 -0.744386,2.229216 -1.482012,4.480051 -1.751492,6.824419 -0.231252,3.003273 -0.548179,6.001118 -1.17658,8.951515 -0.407078,2.953204 -0.704105,5.916689 -1.023608,8.880844 -0.221822,3.814517 -0.540418,7.631886 -0.527788,11.453764 -0.0041,3.354049 0.02422,6.707932 0.01918,10.061985 -0.0011,3.390743 -0.01867,6.781173 -0.05625,10.171733 -0.02524,4.79073 -0.03241,9.58169 -0.007,14.37242 0.02313,3.89893 0.04685,7.79785 0.04949,11.69685 0.0051,3.38056 -0.01685,6.76117 0.01615,10.14167 0.04013,3.58078 0.127778,7.16182 0.339462,10.73705 0.216427,3.95081 0.425582,7.89702 0.363401,11.85615 0.04407,2.72343 0.07349,5.45475 0.386492,8.16364 0.270163,1.99047 0.715061,3.94453 1.025151,5.92772 0,0 -6.223288,3.30149 -6.223288,3.30149 z"
       inkscape:connector-curvature="0"
       transform="translate(0,852.36218)" />
    <path
       style="fill:#ffffff;fill-opacity:1;stroke:#ffffff;stroke-width:1;stroke-linecap:round;stroke-linejoin:round;stroke-miterlimit:4;stroke-opacity:1;stroke-dasharray:none;stroke-dashoffset:0"
       id="path3123"
       d="m 79.440224,91.759826 c -1.458899,1.147339 -2.869945,2.363299 -4.336045,3.505162 -1.901867,1.499878 -3.738398,3.080952 -5.648756,4.57056 -1.540671,1.240372 -3.126966,2.421452 -4.661242,3.670522 -1.00881,0.77219 -1.916156,1.65446 -2.81032,2.55227 -1.037677,0.99967 -2.23958,1.81903 -3.2606,2.83352 -0.748862,1.05268 1.501639,1.76615 2.184637,2.09112 2.156954,1.06229 4.346881,2.05957 6.496022,3.13785 1.795941,0.73639 3.431749,1.71881 5.045986,2.77673 1.127811,1.00564 2.543207,1.29882 3.9259,1.75066 1.341167,0.77615 2.794515,1.30807 4.187381,1.97065 1.172667,0.73597 2.415173,1.37692 3.723337,1.83376 0,0 -5.813883,3.91434 -5.813883,3.91434 l 0,0 c -1.303625,-0.51752 -2.547189,-1.1652 -3.755664,-1.87596 -1.384976,-0.62114 -2.747477,-1.28263 -4.132019,-1.8984 -1.45062,-0.43461 -2.83872,-0.94165 -4.02658,-1.92329 -1.563598,-1.06298 -3.198202,-1.9756 -4.928109,-2.74844 -2.158998,-1.06793 -4.341088,-2.0942 -6.528678,-3.10149 -1.276649,-0.6082 -3.306569,-1.45002 -2.858533,-3.19854 0.906219,-1.14076 2.194462,-1.88826 3.23731,-2.89992 0.979555,-0.82465 1.746287,-1.888 2.835999,-2.59335 1.500027,-1.32542 3.179558,-2.42983 4.699502,-3.72828 1.955392,-1.43308 3.776455,-3.041213 5.650987,-4.576654 1.477215,-1.051248 2.73224,-2.352797 4.237418,-3.355541 0,0 6.53595,-2.707279 6.53595,-2.707279 z"
       inkscape:connector-curvature="0"
       transform="translate(0,852.36218)" />
    <text
       xml:space="preserve"
       style="font-size:20px;font-style:normal;font-weight:normal;line-height:50%;letter-spacing:0px;word-spacing:0px;fill:#000000;fill-opacity:1;stroke:none;font-family:Sans"
       x="162.30162"
       y="1047.7469"
       id="text3221"
       sodipodi:linespacing="50%"><tspan
         sodipodi:role="line"
         id="tspan3223"
         x="162.30162"
         y="1047.7469"
         style="font-size:56px;font-weight:bold;fill:#ffffff;stroke:#ffffff">3</tspan></text>
  </g>
</svg>
