<?xml version="1.0" encoding="UTF-8" standalone="no"?>
<!-- Created with Inkscape (http://www.inkscape.org/) -->

<svg
   xmlns:dc="http://purl.org/dc/elements/1.1/"
   xmlns:cc="http://creativecommons.org/ns#"
   xmlns:rdf="http://www.w3.org/1999/02/22-rdf-syntax-ns#"
   xmlns:svg="http://www.w3.org/2000/svg"
   xmlns="http://www.w3.org/2000/svg"
   xmlns:sodipodi="http://sodipodi.sourceforge.net/DTD/sodipodi-0.dtd"
   xmlns:inkscape="http://www.inkscape.org/namespaces/inkscape"
   width="80"
   height="80"
   id="svg2"
   version="1.1"
   inkscape:version="0.48.0 r9654"
   sodipodi:docname="New document 1">
  <defs
     id="defs4" />
  <sodipodi:namedview
     id="base"
     pagecolor="#ffffff"
     bordercolor="#666666"
     borderopacity="1.0"
     inkscape:pageopacity="0.0"
     inkscape:pageshadow="2"
     inkscape:zoom="3.959798"
     inkscape:cx="28.841519"
     inkscape:cy="42.61459"
     inkscape:document-units="px"
     inkscape:current-layer="layer1"
     showgrid="false"
     inkscape:window-width="1920"
     inkscape:window-height="1002"
     inkscape:window-x="0"
     inkscape:window-y="25"
     inkscape:window-maximized="1" />
  <metadata
     id="metadata7">
    <rdf:RDF>
      <cc:Work
         rdf:about="">
        <dc:format>image/svg+xml</dc:format>
        <dc:type
           rdf:resource="http://purl.org/dc/dcmitype/StillImage" />
        <dc:title></dc:title>
      </cc:Work>
    </rdf:RDF>
  </metadata>
  <g
     inkscape:label="Layer 1"
     inkscape:groupmode="layer"
     id="layer1"
     transform="translate(0,-972.36218)">
    <path
       style="fill:#000080;stroke:#000080"
       id="path3013"
       d="m 54.877645,66.170367 c -0.09634,-1.149152 -0.148801,-2.301097 -0.18034,-3.453649 0.01487,-1.093717 -0.100172,-2.180378 -0.185707,-3.26887 -0.130197,-1.116089 -0.323899,-2.221673 -0.444907,-3.339102 -0.131786,-1.179541 -0.362207,-2.344532 -0.509659,-3.521721 -0.114952,-1.003407 -0.144172,-2.013177 -0.163153,-3.022028 0.01672,-0.737175 -0.02677,-1.466454 -0.113155,-2.197827 -0.08854,-0.77945 -0.11742,-1.563843 -0.133761,-2.347599 -0.0106,-0.775173 -0.01394,-1.550399 -0.01257,-2.325634 6.8e-4,-0.801583 0.0029,-1.603161 0.0039,-2.404745 0.0046,-0.785214 0.01455,-1.567352 -0.06425,-2.349111 -0.120956,-0.815339 -0.293287,-1.620264 -0.500353,-2.417665 -0.197562,-0.793949 -0.480022,-1.563031 -0.687956,-2.353761 -0.171149,-0.784239 -0.438646,-1.544095 -0.671924,-2.311439 -0.141588,-0.668628 -0.389324,-1.284044 -0.734779,-1.870418 -0.264325,-0.517019 -0.572014,-0.985813 -0.989291,-1.390127 -0.51875,-0.395737 -1.11828,-0.585862 -1.735441,-0.759457 -0.702223,-0.146958 -1.407316,-0.280482 -2.113948,-0.407335 -0.809724,-0.117933 -1.630496,-0.123675 -2.447098,-0.134281 -1.085056,0.0037 -2.171895,-0.0446 -3.254944,0.03042 -1.239514,0.06868 -2.473152,0.199429 -3.685339,0.470195 -1.039092,0.252046 -2.099415,0.389767 -3.154244,0.556174 -0.933903,0.140532 -1.861803,0.303507 -2.802864,0.393012 -0.807126,0.01379 -1.600908,0.154794 -2.402066,0.238395 -0.690875,0.06765 -1.38562,0.07607 -2.079191,0.08297 -0.776273,0.01781 -1.555141,-0.04041 -2.328158,0.03999 -0.706346,0.116238 -1.403117,0.173535 -2.114855,0.101504 -0.618818,-0.147882 -1.190068,0.05254 -1.792588,0.17254 -0.109017,0.03363 -0.218034,0.06727 -0.327052,0.100898 0,0 2.967116,-2.278505 2.967116,-2.278505 l 0,0 c 0.114006,-0.02702 0.228012,-0.05403 0.342018,-0.08105 0.623386,-0.127385 1.222992,-0.218759 1.85751,-0.09174 0.695884,0.03701 1.37989,-0.07678 2.071631,-0.139941 0.78244,-0.03477 1.565773,-0.01096 2.348754,-0.02712 0.685898,-0.01124 1.372459,-0.03166 2.05464,-0.109186 0.798251,-0.09071 1.594376,-0.193152 2.397571,-0.231622 0.933141,-0.100782 1.855249,-0.270024 2.783675,-0.405152 1.046295,-0.168489 2.097532,-0.308632 3.128895,-0.558847 1.229588,-0.236828 2.474817,-0.363793 3.725064,-0.430086 1.092772,-0.04307 2.186815,-0.01979 3.28023,-0.01655 0.835073,0.01604 1.675729,0.02223 2.499802,0.174823 0.711433,0.14065 1.429329,0.252335 2.130807,0.437592 0.667783,0.194042 1.303038,0.464225 1.844505,0.912649 0.430418,0.434449 0.760681,0.929009 1.036192,1.475147 0.359153,0.612744 0.6325,1.251798 0.769683,1.953061 0.23116,0.773192 0.505412,1.537352 0.678491,2.325219 0.199508,0.792309 0.487967,1.558626 0.684182,2.352145 0.222354,0.81273 0.38426,1.636991 0.530932,2.466465 0.09007,0.79433 0.09613,1.587143 0.07908,2.386435 5.12e-4,0.800726 0.0019,1.601452 0.0012,2.402177 7.25e-4,0.773316 -0.0045,1.546698 0.007,2.319956 0.01458,0.77201 0.03341,1.545154 0.121601,2.313004 0.08722,0.745235 0.163146,1.485617 0.120222,2.237869 0.0073,0.998846 0.02774,1.999083 0.131028,2.993404 0.139595,1.181394 0.364902,2.349463 0.504227,3.530978 0.116651,1.12024 0.32443,2.224248 0.464758,3.3412 0.08106,1.09685 0.203369,2.190945 0.178708,3.292783 0.03143,1.138119 0.06686,2.27837 0.207496,3.40932 0,0 -3.321379,1.73424 -3.321379,1.73424 z"
       inkscape:connector-curvature="0"
       transform="translate(0,972.36218)" />
    <path
       style="fill:#000080;stroke:#000080"
       id="path3015"
       d="m 24.99952,15.874074 c -0.739544,0.905152 -1.508826,1.786093 -2.229603,2.70637 -0.770213,1.064539 -1.602365,2.075136 -2.471183,3.059991 -1.177124,1.323585 -2.501721,2.506653 -3.844877,3.657716 -0.778833,0.753431 -1.732981,1.327476 -2.458885,2.135392 -0.260695,0.339678 -0.266573,0.758683 -0.22243,1.167043 0.121036,0.477294 0.496299,0.818293 0.905748,1.062114 0.610409,0.387031 1.289333,0.646993 1.971849,0.875328 0.961071,0.367066 1.92079,0.747884 2.871519,1.143784 0.765629,0.280743 1.460824,0.682724 2.157875,1.096977 0.51993,0.355848 1.089738,0.624657 1.639209,0.929184 0.611644,0.254104 1.193827,0.566163 1.784794,0.863775 0.504967,0.278716 0.918313,0.651101 1.310549,1.064786 0.245389,0.217912 0.402325,0.502067 0.565665,0.781078 0,0 -3.250348,1.880963 -3.250348,1.880963 l 0,0 c -0.152282,-0.25528 -0.298471,-0.511171 -0.526035,-0.709685 -0.356345,-0.38768 -0.760244,-0.712901 -1.227209,-0.963502 -0.589899,-0.306226 -1.193792,-0.579101 -1.790733,-0.870402 -0.560151,-0.296015 -1.121053,-0.590275 -1.647768,-0.944572 -0.674981,-0.413923 -1.373173,-0.772106 -2.112591,-1.059982 -0.945746,-0.3919 -1.892781,-0.787398 -2.859274,-1.124414 -0.708088,-0.251453 -1.416879,-0.517487 -2.045124,-0.938215 -0.475357,-0.337479 -0.896828,-0.758095 -1.068218,-1.330859 -0.09185,-0.477479 -0.09269,-0.987861 0.09708,-1.442641 0.621912,-0.940099 1.735111,-1.438815 2.506578,-2.240616 1.340211,-1.132716 2.665369,-2.294116 3.841273,-3.599997 0.866796,-0.976542 1.714609,-1.964153 2.469079,-3.03162 0.700895,-0.926384 1.485194,-1.783297 2.1832,-2.712038 0,0 3.449857,-1.455958 3.449857,-1.455958 z"
       inkscape:connector-curvature="0"
       transform="translate(0,972.36218)" />
  </g>
</svg>
