<?xml version="1.0" encoding="UTF-8" standalone="no"?>
<!-- Created with Inkscape (http://www.inkscape.org/) -->

<svg
   xmlns:dc="http://purl.org/dc/elements/1.1/"
   xmlns:cc="http://creativecommons.org/ns#"
   xmlns:rdf="http://www.w3.org/1999/02/22-rdf-syntax-ns#"
   xmlns:svg="http://www.w3.org/2000/svg"
   xmlns="http://www.w3.org/2000/svg"
   xmlns:sodipodi="http://sodipodi.sourceforge.net/DTD/sodipodi-0.dtd"
   xmlns:inkscape="http://www.inkscape.org/namespaces/inkscape"
   width="80"
   height="80"
   id="svg2"
   version="1.1"
   inkscape:version="0.48.0 r9654"
   sodipodi:docname="4.svg">
  <defs
     id="defs4" />
  <sodipodi:namedview
     id="base"
     pagecolor="#ffffff"
     bordercolor="#666666"
     borderopacity="1.0"
     inkscape:pageopacity="0.0"
     inkscape:pageshadow="2"
     inkscape:zoom="3.959798"
     inkscape:cx="28.841519"
     inkscape:cy="42.61459"
     inkscape:document-units="px"
     inkscape:current-layer="layer1"
     showgrid="false"
     inkscape:window-width="1920"
     inkscape:window-height="1002"
     inkscape:window-x="0"
     inkscape:window-y="25"
     inkscape:window-maximized="1" />
  <metadata
     id="metadata7">
    <rdf:RDF>
      <cc:Work
         rdf:about="">
        <dc:format>image/svg+xml</dc:format>
        <dc:type
           rdf:resource="http://purl.org/dc/dcmitype/StillImage" />
        <dc:title></dc:title>
      </cc:Work>
    </rdf:RDF>
  </metadata>
  <g
     inkscape:label="Layer 1"
     inkscape:groupmode="layer"
     id="layer1"
     transform="translate(0,-972.36218)">
    <path
       style="fill:#000080;stroke:#000080"
       id="path3174"
       d="m 31.774941,13.58065 c -0.900155,-0.127217 -1.78806,-0.384728 -2.693729,-0.461322 -0.647499,0.0033 -1.308857,-0.04112 -1.948255,0.07409 -0.558011,0.26526 -1.149881,0.459006 -1.692816,0.758603 -1.39728,0.541104 -4.23507,2.285658 1.398081,-0.943545 -0.648322,0.426064 -1.298617,0.849355 -1.957007,1.259801 -8.313689,4.807044 -1.755541,1.004884 -0.75144,0.458513 0.122294,-0.06654 -0.221272,0.169043 -0.332538,0.252731 -0.343279,0.258195 -0.697488,0.49469 -1.054881,0.732678 -0.637195,0.447084 -1.231823,0.951641 -1.845908,1.430241 -0.571316,0.402831 -1.113011,0.842309 -1.647005,1.292875 -0.487761,0.424164 -0.880219,0.940011 -1.290323,1.435809 -0.468211,0.55469 -0.728381,1.233557 -1.033094,1.882076 -0.335079,0.636616 -0.578496,1.309829 -0.803548,1.991084 -0.256639,0.66638 -0.40642,1.362261 -0.564675,2.056257 -0.191705,0.737199 -0.445259,1.45587 -0.656843,2.187445 -0.271268,0.808645 -0.528121,1.623088 -0.808063,2.42913 -0.320475,0.901466 -0.576557,1.822986 -0.832089,2.744294 -0.251942,0.994104 -0.451895,2.000965 -0.668098,3.003437 -0.180567,0.927669 -0.372064,1.851653 -0.483772,2.790627 -0.09653,0.723966 -0.244084,1.438675 -0.394845,2.152756 -0.162991,0.772228 -0.304957,1.542498 -0.378848,2.328724 -0.02628,1.100654 -0.193384,2.195567 -0.139764,3.296419 0.06361,1.016926 0.304531,2.020683 0.700315,2.958187 0.385987,0.815361 0.842251,1.599805 1.396759,2.311843 0.563144,0.634918 1.200013,1.195687 1.801271,1.792492 0.480265,0.611977 1.026211,1.164842 1.540031,1.748007 0.639173,0.636265 1.308343,1.244039 1.986754,1.838728 0.687353,0.554902 1.385189,1.092591 2.114015,1.592843 0.720565,0.504375 1.518796,0.880899 2.262142,1.350444 0.675175,0.453429 1.411932,0.800215 2.169758,1.089812 0.677967,0.293228 1.396008,0.495973 2.115528,0.660188 0.886146,0.277449 1.783665,0.468449 2.706255,0.570056 1.211056,0.114183 2.428727,0.06851 3.641246,0.145145 1.005003,0.07867 2.01081,0.145466 3.018305,0.180951 0.690051,-0.01079 1.367624,0.123291 2.052943,0.189077 0.861501,0.04895 1.718994,0.07787 2.577094,0.170902 0.990515,0.1132 1.987593,0.139996 2.983459,0.159357 1.095616,0.01593 2.191369,0.01393 3.287067,0.01546 1.183451,-0.0014 2.366901,7.9e-5 3.550351,-4.69e-4 1.162941,0.04159 2.318383,-0.04464 3.477048,-0.125602 1.118114,-0.01929 2.200506,-0.301267 3.278782,-0.56575 0.935118,-0.205082 1.815761,-0.561527 2.704353,-0.906962 1.148246,-0.646089 3.141788,-1.752547 -2.121066,1.228111 -0.106691,0.06042 0.208685,-0.128903 0.31048,-0.197254 0.254827,-0.171106 0.329631,-0.23675 0.5703,-0.425261 0.621362,-0.478987 1.080635,-1.114834 1.49343,-1.773119 0.429871,-0.68468 0.810338,-1.396666 1.132461,-2.137797 0.379347,-0.810635 0.771982,-1.617246 1.190569,-2.408824 0.658687,-1.132302 1.1208,-2.360814 1.625105,-3.565819 0.70708,-1.401483 1.240636,-2.873247 1.750226,-4.354859 0.467555,-1.453161 0.797082,-2.94535 1.035919,-4.45169 0.198463,-1.49475 0.265472,-3.005523 0.23253,-4.512147 -0.147128,-1.390542 -0.284447,-2.781864 -0.424623,-4.173185 -0.08675,-1.405294 -0.284296,-2.784771 -0.630911,-4.14857 -0.306199,-1.155833 -0.845636,-2.227717 -1.45921,-3.247497 -0.546514,-0.824692 -1.158298,-1.600462 -1.849059,-2.308128 -0.7432,-0.700759 -1.559741,-1.319033 -2.382873,-1.922002 -0.697804,-0.501681 -1.372631,-1.032004 -2.042079,-1.570563 -0.652962,-0.484234 -1.369968,-0.864758 -2.077611,-1.259519 -0.546142,-0.258066 -1.031983,-0.609318 -1.606835,-0.803844 -0.554037,-0.221004 -1.106361,-0.46292 -1.628291,-0.753668 -0.614491,-0.267375 -1.264041,-0.442084 -1.925245,-0.547288 -0.648705,-0.08375 -1.283987,-0.236021 -1.935314,-0.306771 -0.55132,0.0089 -1.061882,-0.150216 -1.57768,-0.321427 -0.332007,-0.09328 -0.170907,-0.03401 -0.483377,-0.177613 0,0 3.122682,-2.086363 3.122682,-2.086363 l 0,0 c 0.292474,0.106526 0.13817,0.05432 0.463619,0.154509 0.501586,0.157623 1.011132,0.231936 1.535672,0.26527 0.648481,0.09326 1.286968,0.241294 1.936273,0.329844 0.687137,0.136789 1.370643,0.326511 2.001111,0.637398 0.521054,0.265541 1.05241,0.516448 1.603502,0.713326 0.566958,0.239148 1.07771,0.581196 1.627798,0.855328 0.722359,0.404963 1.438675,0.822686 2.105579,1.315888 0.664926,0.534577 1.335379,1.061001 2.025198,1.563339 0.833205,0.621947 1.658377,1.259638 2.414118,1.975226 0.702626,0.73429 1.334146,1.53066 1.887836,2.383764 0.628846,1.052184 1.166498,2.1653 1.49283,3.350865 0.360671,1.378611 0.566491,2.774718 0.655274,4.197792 0.150576,1.39979 0.26646,2.8034 0.430629,4.201927 0.04927,1.525601 -0.02097,3.055743 -0.203478,4.571524 -0.226499,1.52618 -0.555222,3.035763 -1.009283,4.511369 -0.506138,1.48766 -1.011934,2.97934 -1.740481,4.376473 -0.497745,1.205441 -0.934941,2.443793 -1.575358,3.582996 -0.423434,0.779902 -0.788295,1.58407 -1.19461,2.372617 -0.30998,0.758478 -0.669099,1.492645 -1.110211,2.18529 -0.392638,0.686896 -0.836222,1.365221 -1.436716,1.889145 -1.528628,1.307539 -3.350562,2.22814 -5.160008,3.091789 -0.89173,0.347674 -1.794533,0.652964 -2.729809,0.86418 -1.086195,0.26183 -2.184403,0.478285 -3.30548,0.507978 -1.162854,0.08404 -2.32521,0.136456 -3.491662,0.103848 -1.184527,1.65e-4 -2.369051,0.003 -3.553578,0.0027 -1.099056,0.0015 -2.198256,0.0029 -3.297151,-0.01832 -1.004759,-0.02511 -2.01021,-0.0605 -3.009271,-0.177615 -0.860388,-0.08368 -1.724304,-0.08583 -2.585096,-0.164592 C 34.9763,65.254126 34.299278,65.157134 33.614411,65.155417 32.61605,65.101508 31.619773,65.017993 30.622228,64.951415 29.400208,64.897079 28.1738,64.924439 26.955624,64.794331 26.020745,64.672571 25.112645,64.45102 24.2044,64.201081 23.477228,64.011531 22.75193,63.801432 22.064211,63.49479 21.296872,63.177118 20.550735,62.812644 19.860519,62.347027 19.109825,61.882889 18.310232,61.49857 17.594619,60.978842 16.857346,60.46715 16.144359,59.924946 15.455622,59.349406 14.769709,58.740292 14.085294,58.126114 13.440045,57.474135 12.92924,56.898121 12.386824,56.351567 11.90591,55.749594 11.298583,55.138379 10.657258,54.560187 10.089795,53.910011 9.5225874,53.168435 9.0453593,52.359497 8.6516737,51.512961 8.232292,50.540686 7.9807827,49.497326 7.8934028,48.441418 7.8115159,47.322834 8.00546,46.219294 8.0082308,45.099383 c 0.050815,-0.798911 0.1642529,-1.580347 0.3364902,-2.361329 0.1479609,-0.708199 0.3048596,-1.412026 0.4221837,-2.126327 0.099922,-0.953774 0.3007849,-1.887443 0.4784628,-2.828759 0.2116777,-1.009503 0.4279354,-2.018472 0.6569597,-3.023969 0.2598618,-0.924476 0.4992818,-1.854635 0.8111938,-2.763662 0.292594,-0.795559 0.515146,-1.613654 0.820863,-2.404359 0.191131,-0.731001 0.429374,-1.446763 0.655337,-2.167446 0.156621,-0.701281 0.281701,-1.413609 0.551686,-2.082892 0.205052,-0.702657 0.455091,-1.39008 0.777904,-2.047597 0.347589,-0.642124 0.551104,-1.360566 0.996589,-1.950401 0.399865,-0.518869 0.819588,-1.022693 1.267038,-1.502346 0.528948,-0.461418 1.057774,-0.926982 1.647282,-1.309918 0.612316,-0.487213 1.230808,-0.9658 1.837637,-1.457607 0.349312,-0.235925 0.734091,-0.444401 1.069295,-0.698844 0.114642,-0.08702 0.199979,-0.211585 0.322496,-0.287118 1.507376,-0.929319 7.099674,-4.156384 0.739336,-0.472794 0.665559,-0.394316 1.308124,-0.819721 1.951201,-1.247996 1.673141,-0.977385 3.244898,-2.002594 5.013257,-2.753623 0.57052,-0.26092 1.15553,-0.537676 1.772539,-0.657755 0.66271,-0.04662 1.331645,-0.06206 1.993394,0.0059 0.911519,0.14317 1.814342,0.343732 2.727086,0.482658 0,0 -3.08152,2.137497 -3.08152,2.137497 z"
       inkscape:connector-curvature="0"
       transform="translate(0,972.36218)" />
    <path
       style="fill:#000080;stroke:#000080"
       id="path3176"
       d="m 52.266286,11.196246 c -1.017824,0.09647 -2.038011,0.09271 -3.042504,0.295369 -0.550697,0.145624 -1.12823,0.221495 -1.669579,0.401948 -0.0012,3.9e-4 -0.726444,0.315712 -0.736213,0.319959 0.246128,-0.121817 -0.86123,0.452463 -0.650729,0.330497 6.531155,-3.7842187 0.531997,-0.110694 -1.297952,0.734679 -0.85153,0.364164 -1.705793,0.730503 -2.579131,1.039215 -1.416359,0.569219 -4.260839,2.318652 1.475695,-0.976086 -1.258678,0.840437 -2.619945,1.550898 -3.919121,2.300268 -0.08633,0.0498 -0.174729,0.09592 -0.262093,0.143883 -0.09129,0.04118 -0.360339,0.174087 -0.273873,0.123551 0.986909,-0.576806 1.984341,-1.135419 2.976512,-1.703128 -0.620203,0.351328 -0.608316,0.669452 -0.398873,1.305641 0.444118,0.890566 1.125271,1.636699 1.734846,2.416048 0.669033,0.901536 1.340391,1.801934 2.031945,2.686403 0.557144,0.582385 1.070065,1.19485 1.571974,1.824672 0.586605,0.698913 1.252814,1.312909 1.955343,1.891892 0.674851,0.485978 1.377176,0.932466 2.062156,1.405322 0.311114,0.202058 0.534438,0.459155 0.735866,0.76345 0,0 -3.236383,1.892595 -3.236383,1.892595 l 0,0 c -0.171033,-0.265778 -0.379373,-0.473328 -0.647723,-0.64738 -0.692123,-0.477494 -1.404201,-0.927243 -2.071697,-1.438663 -0.716564,-0.600189 -1.396541,-1.237613 -2.001743,-1.952235 -0.504262,-0.62848 -1.03013,-1.233493 -1.564664,-1.836274 -0.680466,-0.891216 -1.347161,-1.793 -2.02095,-2.689257 -0.639906,-0.809346 -1.348944,-1.583118 -1.819341,-2.50875 -0.248228,-0.671387 -0.445759,-1.241156 0.167946,-1.768701 1.151198,-0.659915 2.300755,-1.3227 3.453593,-1.979746 0.172866,-0.09852 0.696927,-0.384156 0.525275,-0.283532 -0.983907,0.576777 -1.965101,1.158311 -2.955516,1.72384 -0.159368,0.091 0.600735,-0.431621 0.466448,-0.292466 1.645332,-0.973258 3.169047,-2.037075 4.94979,-2.697172 0.863834,-0.333884 1.728363,-0.671106 2.562536,-1.074638 1.32423,-0.689534 0.38922,-0.209188 -2.513175,1.476236 -0.10415,0.06048 0.209839,-0.11828 0.314023,-0.178701 1.388963,-0.805517 2.699099,-1.702741 4.161671,-2.3436858 0.786877,-0.3112248 1.610173,-0.499466 2.442576,-0.6465616 1.022951,-0.1516471 2.057967,-0.1597911 3.083073,-0.2966952 0,0 -3.010008,2.2382036 -3.010008,2.2382036 z"
       inkscape:connector-curvature="0"
       transform="translate(0,972.36218)" />
  </g>
</svg>
