<?xml version="1.0" encoding="UTF-8" standalone="no"?>
<!-- Created with Inkscape (http://www.inkscape.org/) -->

<svg
   xmlns:dc="http://purl.org/dc/elements/1.1/"
   xmlns:cc="http://creativecommons.org/ns#"
   xmlns:rdf="http://www.w3.org/1999/02/22-rdf-syntax-ns#"
   xmlns:svg="http://www.w3.org/2000/svg"
   xmlns="http://www.w3.org/2000/svg"
   xmlns:sodipodi="http://sodipodi.sourceforge.net/DTD/sodipodi-0.dtd"
   xmlns:inkscape="http://www.inkscape.org/namespaces/inkscape"
   width="80"
   height="80"
   id="svg2"
   version="1.1"
   inkscape:version="0.48.0 r9654"
   sodipodi:docname="7.svg">
  <defs
     id="defs4" />
  <sodipodi:namedview
     id="base"
     pagecolor="#ffffff"
     bordercolor="#666666"
     borderopacity="1.0"
     inkscape:pageopacity="0.0"
     inkscape:pageshadow="2"
     inkscape:zoom="3.959798"
     inkscape:cx="28.841519"
     inkscape:cy="42.61459"
     inkscape:document-units="px"
     inkscape:current-layer="layer1"
     showgrid="false"
     inkscape:window-width="1920"
     inkscape:window-height="1002"
     inkscape:window-x="0"
     inkscape:window-y="25"
     inkscape:window-maximized="1" />
  <metadata
     id="metadata7">
    <rdf:RDF>
      <cc:Work
         rdf:about="">
        <dc:format>image/svg+xml</dc:format>
        <dc:type
           rdf:resource="http://purl.org/dc/dcmitype/StillImage" />
        <dc:title></dc:title>
      </cc:Work>
    </rdf:RDF>
  </metadata>
  <g
     inkscape:label="Layer 1"
     inkscape:groupmode="layer"
     id="layer1"
     transform="translate(0,-972.36218)">
    <path
       style="fill:#000080;stroke:#000080"
       id="path3273"
       d="m 21.739771,7.6817992 c 1.147645,-0.088552 2.296563,-0.1557079 3.446732,-0.1999197 0.91579,-0.035172 1.832248,-0.045066 2.74861,-0.04995 0.655823,-0.00336 1.311654,-0.00146 1.967483,-0.00205 0.60497,-0.045931 1.193303,0.049592 1.788822,0.1365902 0.56668,0.065747 1.109363,0.2545276 1.656985,0.4048428 0.635364,0.1756177 1.297698,0.1608632 1.945204,0.2529431 0.811563,0.1218252 1.630337,0.172886 2.449662,0.2019002 0.896477,0.080702 1.781198,0.2330893 2.670518,0.3663181 0.784425,0.064399 1.53542,0.3050613 2.297858,0.4820233 0.657404,0.2297622 1.309277,0.473706 1.974795,0.680929 0.76538,0.287783 1.518463,0.6141 2.262713,0.954331 0.959784,0.46815 1.935097,0.903045 2.903266,1.353409 0.167295,0.08399 0.340226,0.157575 0.501884,0.251957 0.333616,0.194777 0.640716,0.432294 0.970798,0.633003 0.41588,0.25288 0.84259,0.491161 1.263957,0.734889 0.878892,0.519816 1.677067,1.150757 2.484036,1.771844 0.762053,0.591185 1.519707,1.179293 2.304625,1.740901 0.651633,0.419352 1.135113,1.014313 1.607408,1.616573 0.450764,0.518301 0.844523,1.087269 1.306162,1.595234 0.451642,0.505661 0.781153,1.096762 1.052061,1.71428 0.319099,0.801169 0.779401,1.53175 1.136457,2.314928 0.382413,0.993025 0.852851,1.947587 1.261687,2.928869 0.332662,0.917512 0.736005,1.804031 1.120983,2.699658 0.35205,0.702758 0.627534,1.437389 0.867648,2.184808 0.307767,0.745151 0.518224,1.516563 0.718588,2.295232 0.217116,0.707436 0.294043,1.439951 0.34364,2.174647 0.02992,0.730053 0.01527,1.45828 0.09392,2.185364 0.104568,0.735014 0.14199,1.475921 0.167092,2.217061 0.01784,0.753251 0.01933,1.506752 0.02302,2.260171 0.04646,0.679134 -0.221063,1.303521 -0.451572,1.925457 -0.234334,0.704351 -0.545921,1.377012 -0.87714,2.040127 -0.418321,0.827955 -0.942094,1.595294 -1.386003,2.40844 -0.373993,0.792213 -0.794971,1.557614 -1.246258,2.307771 -0.356669,0.661899 -0.805558,1.264707 -1.246802,1.8709 -0.369388,0.551663 -0.783692,1.067377 -1.247832,1.541457 -0.413958,0.32371 -0.763834,0.71449 -1.149971,1.068036 -0.400636,0.310774 -0.777852,0.650133 -1.166892,0.975016 -0.708616,0.489999 -1.303059,1.111147 -1.93945,1.685869 -0.696227,0.610277 -1.421976,1.180743 -2.179479,1.712672 -1.522635,1.129234 -3.20442,1.994563 -4.845842,2.944309 5.450946,-3.398201 2.942069,-1.642165 1.681636,-0.888084 -9.639763,5.537625 -0.121403,0.06915 -0.465506,0.268946 -1.146616,0.665757 -2.297976,1.323314 -3.448496,1.982303 -0.08167,0.04678 -0.329603,0.181911 -0.248022,0.134969 3.184425,-1.832333 3.934648,-2.319603 2.737924,-1.551527 -2.079227,1.302436 -7.069337,3.99179 -0.835343,0.496416 0.104474,-0.05858 -0.198586,0.133987 -0.296918,0.202377 -0.198803,0.138268 -0.395364,0.279735 -0.593541,0.418897 -1.295574,0.891017 -2.689633,1.601378 -4.080222,2.350685 -0.0979,0.05275 -0.215014,0.05722 -0.32102,0.09084 -0.222903,0.07068 -0.408746,0.148707 -0.626691,0.234834 -0.640538,0.190885 -1.25772,0.443359 -1.889456,0.656473 -0.618534,0.22565 -1.273917,0.317983 -1.901843,0.504107 -0.66885,0.163255 -1.358149,0.221143 -2.044291,0.250406 -0.72825,0.06933 -1.443617,-0.03012 -2.164553,-0.113595 -0.781316,-0.06857 -1.559804,-0.0863 -2.335012,-0.208204 -0.548851,-0.175152 -1.103577,-0.312294 -1.676099,-0.377043 -0.535404,-0.04601 -1.073467,-0.04362 -1.610398,-0.04462 -0.642614,-0.02736 -1.273811,0.01046 -1.910264,0.08916 -0.901152,0.129077 -1.797951,0.267855 -2.70693,0.339023 -0.533091,-0.02706 -1.026344,0.148949 -1.53559,0.263056 0,0 2.983371,-2.270178 2.983371,-2.270178 l 0,0 c 0.508535,-0.115115 1.020964,-0.191298 1.543472,-0.206306 0.909722,-0.08811 1.807954,-0.246123 2.714563,-0.357818 0.646839,-0.07031 1.29469,-0.06561 1.944834,-0.05854 0.548439,0.0045 1.099121,0.0042 1.643251,0.08247 0.565777,0.09274 1.110632,0.261216 1.669177,0.386248 0.771231,0.107704 1.550521,0.110615 2.323921,0.200527 0.709497,0.07978 1.416932,0.125988 2.130738,0.05904 0.675177,-0.04923 1.350376,-0.124133 2.003091,-0.312924 0.635047,-0.146602 1.266199,-0.30678 1.880338,-0.528044 0.622368,-0.234664 1.258705,-0.428535 1.882041,-0.66038 0.211743,-0.07742 0.426085,-0.147651 0.637397,-0.22624 0.100112,-0.03723 0.388749,-0.174664 0.297387,-0.119331 -5.182451,3.138778 -3.430175,2.044853 -2.333223,1.340632 0.302473,-0.195142 0.579422,-0.435156 0.887769,-0.619527 3.016291,-1.80354 5.821291,-3.3959 0.563175,-0.364903 -0.08634,0.04977 0.171362,-0.101794 0.257042,-0.152691 1.44048,-0.754638 -0.0403,0.02622 3.682698,-2.144584 0.08198,-0.0478 0.332921,-0.18225 0.251051,-0.134259 -0.988999,0.579732 -3.961129,2.310141 -2.972611,1.729586 1.531845,-0.899651 7.057922,-4.102559 0.46593,-0.278888 1.561379,-0.964129 3.077183,-1.981709 4.727782,-2.813486 -5.604919,3.270451 -2.72068,1.670821 -1.545668,0.767538 0.783033,-0.497593 1.50928,-1.073103 2.211493,-1.677362 0.659809,-0.536575 1.188577,-1.21832 1.909758,-1.680191 0.392311,-0.324158 0.773409,-0.651341 1.154566,-0.987519 0.45248,-0.280245 0.702989,-0.763741 1.179307,-1.016583 0.448933,-0.478098 0.929952,-0.927107 1.276824,-1.493364 0.422428,-0.613995 0.916319,-1.183057 1.263213,-1.846748 0.446316,-0.750837 0.917096,-1.487871 1.26331,-2.293793 0.421467,-0.823867 0.950953,-1.581466 1.379578,-2.401942 0.343256,-0.641046 0.653873,-1.300978 0.885804,-1.990267 0.207681,-0.590648 0.535291,-1.168916 0.512006,-1.810508 0.0033,-0.751063 0.005,-1.502239 -0.01194,-2.25317 -0.01975,-0.731578 -0.05588,-1.463147 -0.15487,-2.188976 -0.08583,-0.733082 -0.09448,-1.464122 -0.10512,-2.201859 -0.03636,-0.713252 -0.101678,-1.425031 -0.304223,-2.113606 -0.200445,-0.77189 -0.391652,-1.541455 -0.711126,-2.276148 C 62.22289,33.50879 61.953497,32.784397 61.608314,32.089939 61.237431,31.186771 60.826809,30.301394 60.499031,29.380356 60.101498,28.399556 59.619452,27.455258 59.235554,26.468011 58.879988,25.682139 58.409727,24.955525 58.085639,24.154664 57.831082,23.570838 57.51127,23.022272 57.085063,22.54519 56.632658,22.019584 56.224694,21.455929 55.774207,20.928101 55.320409,20.354327 54.852883,19.794938 54.22929,19.395735 53.446101,18.828425 52.698573,18.221104 51.927449,17.638454 51.133075,17.02412 50.33725,16.412428 49.464357,15.910439 48.560836,15.380107 47.692402,14.7874 46.759991,14.311055 45.788558,13.862594 44.810726,13.428209 43.842916,12.971947 43.103199,12.645162 42.360789,12.315431 41.593528,12.05921 40.938864,11.843605 40.294846,11.596255 39.634221,11.400595 38.884556,11.211739 38.135551,11.014718 37.3636,10.937733 36.484826,10.797145 35.605318,10.662405 34.716048,10.606905 33.889209,10.56932 33.065478,10.49635 32.245161,10.384498 31.577744,10.321254 30.903163,10.2886 30.257412,10.090346 29.722276,9.937029 29.182651,9.7891162 28.628125,9.7256077 28.044018,9.6421557 27.461481,9.6107954 26.871084,9.6319761 c -0.652665,-0.00178 -1.305328,-0.00219 -1.957994,-0.00259 -0.905893,0.00232 -1.811896,0.010326 -2.717263,0.043687 -1.165174,0.048524 -2.3277,0.1315715 -3.49083,0.2136212 0,0 3.034774,-2.2048926 3.034774,-2.2048926 z"
       inkscape:connector-curvature="0"
       transform="translate(0,972.36218)" />
    <path
       style="fill:#000080;stroke:#000080"
       id="path3275"
       d="m 25.736465,57.030611 c -1.075333,1.043797 -2.227645,1.996921 -3.440629,2.875395 -1.265269,0.899115 -2.501613,1.827035 -3.823581,2.641879 -0.925796,0.594754 -1.87484,1.157009 -2.766344,1.803076 -1.398729,1.029436 -2.959905,1.813752 -4.466395,2.668113 -0.113363,0.06429 -0.462818,0.23945 -0.350118,0.174005 0.9439,-0.548121 1.896229,-1.081598 2.844343,-1.622398 -0.668872,0.494637 -1.21808,1.12781 -1.812962,1.705239 -0.446687,0.413813 -0.858318,0.86683 -1.226556,1.351627 -0.301732,0.464987 -0.123501,0.502059 0.32447,0.604643 0.607824,0.253143 1.247948,0.401177 1.866768,0.625086 0.985947,0.399362 1.991587,0.736332 2.97999,1.130055 0.964998,0.290303 1.89712,0.676861 2.80869,1.103866 0.787897,0.37975 1.580519,0.751825 2.378972,1.109226 1.039549,0.507719 2.100995,0.931247 3.229734,1.187821 0.834527,0.100987 1.630227,0.371854 2.445053,0.558609 0.768234,0.07172 1.486187,0.271955 2.199447,0.557658 0.102044,0.03777 0.204089,0.07553 0.306134,0.113295 0,0 -3.106715,2.088945 -3.106715,2.088945 l 0,0 C 26.025075,77.666992 25.923385,77.627234 25.821695,77.587475 25.116868,77.314629 24.390363,77.20255 23.649096,77.072439 22.846712,76.862786 22.048656,76.638753 21.229917,76.496806 20.093724,76.202168 19.017773,75.756052 17.955865,75.258364 17.152166,74.90299 16.353078,74.536378 15.563386,74.150793 14.657157,73.733352 13.734346,73.356366 12.783217,73.052419 11.796254,72.65683 10.784215,72.335798 9.7930854,71.950986 9.1664356,71.746383 8.5301585,71.574738 7.9127049,71.342367 7.3792401,71.124382 6.9812508,70.729779 7.2578464,70.126268 7.5869333,69.593399 8.0274778,69.138771 8.4626136,68.691363 9.0961064,68.14005 9.645039,67.49783 10.254706,66.920432 c 1.18295,-0.687804 2.363521,-1.379715 3.54885,-2.063412 0.113454,-0.06544 0.460187,-0.250192 0.347253,-0.183857 -0.957655,0.562501 -1.921953,1.113619 -2.881708,1.672529 -0.102033,0.05942 0.20807,-0.111979 0.308518,-0.174041 0.226296,-0.139817 0.435846,-0.305654 0.665496,-0.440391 0.871083,-0.697295 1.857838,-1.233242 2.785236,-1.850391 0.403295,-0.247483 0.816099,-0.479625 1.214115,-0.735511 0.911178,-0.585797 1.722362,-1.314434 2.639842,-1.892309 1.205707,-0.837552 2.366999,-1.750706 3.385222,-2.812538 0,0 3.468935,-1.4099 3.468935,-1.4099 z"
       inkscape:connector-curvature="0"
       transform="translate(0,972.36218)" />
  </g>
</svg>
