<?xml version="1.0" encoding="UTF-8" standalone="no"?>
<!-- Created with Inkscape (http://www.inkscape.org/) -->

<svg
   xmlns:dc="http://purl.org/dc/elements/1.1/"
   xmlns:cc="http://creativecommons.org/ns#"
   xmlns:rdf="http://www.w3.org/1999/02/22-rdf-syntax-ns#"
   xmlns:svg="http://www.w3.org/2000/svg"
   xmlns="http://www.w3.org/2000/svg"
   xmlns:sodipodi="http://sodipodi.sourceforge.net/DTD/sodipodi-0.dtd"
   xmlns:inkscape="http://www.inkscape.org/namespaces/inkscape"
   width="80"
   height="80"
   id="svg2"
   version="1.1"
   inkscape:version="0.48.0 r9654"
   sodipodi:docname="d2.svg">
  <defs
     id="defs4" />
  <sodipodi:namedview
     id="base"
     pagecolor="#ffffff"
     bordercolor="#666666"
     borderopacity="1.0"
     inkscape:pageopacity="0.0"
     inkscape:pageshadow="2"
     inkscape:zoom="3.959798"
     inkscape:cx="28.841519"
     inkscape:cy="42.61459"
     inkscape:document-units="px"
     inkscape:current-layer="layer1"
     showgrid="false"
     inkscape:window-width="1920"
     inkscape:window-height="1002"
     inkscape:window-x="0"
     inkscape:window-y="25"
     inkscape:window-maximized="1" />
  <metadata
     id="metadata7">
    <rdf:RDF>
      <cc:Work
         rdf:about="">
        <dc:format>image/svg+xml</dc:format>
        <dc:type
           rdf:resource="http://purl.org/dc/dcmitype/StillImage" />
        <dc:title></dc:title>
      </cc:Work>
    </rdf:RDF>
  </metadata>
  <g
     inkscape:label="Layer 1"
     inkscape:groupmode="layer"
     id="layer1"
     transform="translate(0,-972.36218)">
    <path
       style="fill:#000080;stroke:#000080"
       id="path3391"
       d="m 6.0159799,991.04107 c 1.247606,-0.11293 2.471874,-0.39414 3.700229,-0.62927 1.5062631,-0.28935 3.0271361,-0.44303 4.5568211,-0.53092 1.762659,-0.071 3.526967,0.0554 5.289624,0.0983 2.311914,0.0401 4.624227,0.0476 6.936375,0.0673 1.476636,0.0702 2.950716,0.17851 4.428289,0.22924 1.253991,0.0376 2.508705,0.0402 3.763156,0.0414 1.198533,0.005 2.39228,0.13561 3.589568,0.19087 1.193192,0.0483 2.387567,0.0568 3.581582,0.0633 1.046305,0.004 2.092621,0.003 3.138931,0.003 0.976864,-6.1e-4 1.953723,-0.002 2.930582,0.002 0.936232,0.002 1.872462,-0.002 2.808688,-0.005 1.152326,-0.002 2.304649,-0.002 3.456975,-7.6e-4 1.048237,0.002 2.096479,4.8e-4 3.144713,0.004 0.69742,0.003 1.394838,0.006 2.092262,0.008 0.513539,0.001 1.02708,0.001 1.54062,0.001 0.250884,10e-6 0.501769,0 0.752654,-10e-6 0,0 -3.037048,-2.20655 -3.037048,-2.20655 l 0,0 c -0.250901,-1e-5 -0.501801,-2e-5 -0.752701,-1e-5 -0.512456,4e-5 -1.024913,9e-5 -1.537369,0.001 -0.690093,0.002 -1.380178,0.005 -2.070267,0.008 -1.045061,0.003 -2.090131,0.001 -3.135195,0.003 -1.15303,0.001 -2.306057,7e-4 -3.459086,-7.8e-4 -0.940471,-0.003 -1.880948,-0.006 -2.821425,-0.005 -0.974126,0.004 -1.948255,0.003 -2.922388,0.004 -1.043954,8.5e-4 -2.087912,0.003 -3.131865,-2.1e-4 -1.189171,-0.006 -2.378735,-0.0147 -3.566719,-0.0733 -1.198651,-0.0659 -2.395778,-0.18895 -3.597326,-0.17439 -1.25142,-0.004 -2.503073,-0.008 -3.753931,-0.0503 -1.465647,-0.0563 -2.929136,-0.16038 -4.395706,-0.19054 -2.311097,0.004 -4.622473,-0.006 -6.932711,-0.0761 -1.773474,-0.0592 -3.550558,-0.18398 -5.324407,-0.0831 -1.5452331,0.0983 -3.0832831,0.25888 -4.6045611,0.55616 -1.231573,0.24107 -2.464811,0.50668 -3.721457,0.57263 0,0 3.053093,2.17205 3.053093,2.17205 z"
       inkscape:connector-curvature="0" />
    <path
       style="fill:#000080;stroke:#000080"
       id="path3393"
       d="m 53.734885,980.66355 c 2.644955,1.77296 5.439264,3.30695 8.20832,4.87337 2.322842,1.26203 4.76562,2.27644 7.171571,3.36511 0.241914,0.10378 1.097676,0.46577 1.375041,0.60233 0.156896,0.0772 0.611681,0.33934 0.459781,0.25269 -5.314832,-3.03208 -3.222961,-2.17501 -2.453669,-1.22354 0.250746,0.49195 0.255598,1.04501 0.139513,1.57324 -0.222241,0.80196 -0.788022,1.40458 -1.403615,1.934 -0.878397,0.73027 -1.871868,1.25074 -2.895718,1.73897 -1.250963,0.60571 -2.506629,1.20147 -3.76688,1.78769 -1.142525,0.47048 -2.300846,0.89757 -3.466117,1.3089 -1.049129,0.36995 -2.102279,0.72773 -3.143455,1.12011 -0.595503,0.26332 -1.229598,0.45437 -1.820178,0.72567 -0.369095,0.20023 -0.702072,0.45478 -1.056034,0.67842 0,0 3.157191,2.02739 3.157191,2.02739 l 0,0 c 0.333261,-0.2209 0.662056,-0.4508 1.024634,-0.6227 0.597776,-0.2358 1.180648,-0.5037 1.781818,-0.7308 1.037227,-0.38774 2.080323,-0.75817 3.125814,-1.12284 1.171534,-0.41178 2.333966,-0.8495 3.471317,-1.34881 1.263858,-0.59053 2.528385,-1.17951 3.787867,-1.77927 1.047424,-0.50864 2.056923,-1.07103 2.958198,-1.81795 0.665023,-0.58995 1.272739,-1.24985 1.539907,-2.11814 0.164884,-0.60874 0.174883,-1.22221 -0.0091,-1.83183 -0.633007,-1.4573 -2.732373,-1.96856 -3.871607,-2.62491 -0.567411,-0.3269 -1.210423,-0.50736 -1.794962,-0.79714 -2.397367,-1.06827 -4.82263,-2.08342 -7.120934,-3.35817 0.639377,0.38272 1.281147,0.76147 1.918132,1.14816 0.346268,0.2102 -0.701172,-0.40606 -1.045953,-0.6187 -0.936113,-0.57733 -1.852053,-1.18856 -2.796777,-1.75259 0,0 -3.474088,-1.38866 -3.474088,-1.38866 z"
       inkscape:connector-curvature="0" />
    <path
       style="fill:#000080;stroke:#000080"
       id="path3397"
       d="m 10.045773,1028.2096 c 1.4657,-0.059 2.9288,0.032 4.392412,0.097 1.78726,0.045 3.568729,0.1937 5.353919,0.2834 1.2463,0.029 2.497123,0.1159 3.744338,0.084 0.485651,-0.013 1.577155,-0.1065 2.059835,-0.1451 1.828556,-0.108 3.646308,-0.3142 5.462043,-0.5483 1.31073,-0.2429 2.631268,-0.4053 3.961162,-0.4884 1.044228,-0.1313 2.091866,-0.22 3.14309,-0.2667 0.947944,-0.01 1.890132,-0.041 2.834532,-0.1216 1.308946,-0.1119 2.62284,-0.1405 3.935795,-0.1596 1.259204,-0.015 2.518533,-0.012 3.777798,-0.01 1.098083,8e-4 2.196168,0 3.294252,0 0.879402,0 1.758811,0.01 2.638222,0.01 0.739501,0 1.479005,0 2.218508,0 0.711543,-3e-4 1.423088,-3e-4 2.13463,10e-4 0.419064,9e-4 0.212311,4e-4 0.62026,0 0,0 -3.031591,-2.2026 -3.031591,-2.2026 l 0,0 c -0.405477,9e-4 -0.19998,4e-4 -0.616494,0 -0.710601,0 -1.421204,0 -2.131806,10e-4 -0.737675,7e-4 -1.475352,-7e-4 -2.213025,0 -0.874795,-10e-5 -1.749588,0 -2.624377,0 -1.097298,3e-4 -2.194595,-5e-4 -3.291891,-5e-4 -1.255402,0 -2.510825,0.01 -3.766119,0.025 -1.323171,0.025 -2.646994,0.056 -3.966434,0.1659 -0.944502,0.069 -1.889859,0.065 -2.835625,0.1085 -1.048154,0.062 -2.091669,0.1667 -3.135321,0.2807 -1.326016,0.104 -2.640175,0.2921 -3.949905,0.5234 -1.802801,0.2386 -3.609435,0.4382 -5.425182,0.5503 -1.930655,0.1399 -3.859717,0.1269 -5.792521,0.012 -1.78437,-0.094 -3.566093,-0.234 -5.352818,-0.2805 -1.4892691,-0.073 -2.9775751,-0.1416 -4.4691461,-0.1316 0,0 3.0314591,2.2024 3.0314591,2.2024 z"
       inkscape:connector-curvature="0" />
    <path
       style="fill:#000080;stroke:#000080"
       id="path3403"
       d="m 57.159008,1019.8146 c -5.863634,-3.5324 -1.612345,-0.8372 -0.29461,0.04 1.100199,0.7054 2.166921,1.4612 3.259269,2.178 1.946569,1.3523 4.035195,2.4662 6.093803,3.6373 0.176577,0.1 0.353188,0.1992 0.529733,0.2989 0.179089,0.1012 0.715338,0.4063 0.53717,0.3036 -0.887277,-0.5117 -3.5486,-2.0475 -2.664514,-1.5304 1.207494,0.7064 2.432456,1.3828 3.63476,2.098 0.923879,0.5495 -1.859287,-1.0798 -2.799391,-1.6011 -0.107383,-0.06 0.199541,0.1432 0.299311,0.2147 1.436824,1.3258 3.278086,1.9656 4.99406,2.7885 0.59508,0.2823 1.252657,0.3707 1.853384,0.6355 1.164711,0.7388 0.79798,0.5025 -2.92453,-1.6761 -0.03007,-0.018 0.113177,0.02 0.105434,0.042 -0.0355,0.1004 -0.134994,0.1647 -0.201368,0.2479 -0.3432,0.5001 -0.719028,0.9761 -1.084682,1.4598 -0.508294,0.6953 -1.116944,1.2987 -1.778758,1.8462 -0.824646,0.6177 -1.711972,1.1423 -2.580892,1.6931 -0.779467,0.485 -1.606129,0.8805 -2.405555,1.3301 -0.592958,0.3259 -1.175593,0.6445 -1.795461,0.9149 -0.584559,0.3007 -1.187229,0.5648 -1.76768,0.8736 -0.71204,0.3009 -1.415972,0.617 -2.121654,0.9319 -0.0926,0.054 -0.185208,0.1078 -0.277812,0.1616 0,0 3.139955,2.044 3.139955,2.044 l 0,0 c 0.08502,-0.046 0.170047,-0.092 0.25507,-0.1384 0.705536,-0.328 1.424218,-0.6252 2.132663,-0.9467 0.581593,-0.2912 1.169703,-0.5697 1.755467,-0.8525 0.627278,-0.2739 1.206415,-0.6279 1.809783,-0.9497 0.802966,-0.4479 1.618159,-0.8715 2.400249,-1.3561 0.886442,-0.5532 1.78172,-1.0983 2.612331,-1.734 0.673338,-0.5759 1.313556,-1.1876 1.835855,-1.9077 0.367268,-0.4787 0.747492,-0.9474 1.095119,-1.4408 0.08261,-0.1008 0.250697,-0.2966 0.307956,-0.4084 0.62688,-1.2231 -2.411059,-2.0107 -3.461571,-2.4471 -0.615669,-0.2001 -1.247765,-0.3589 -1.829228,-0.6506 -0.322753,-0.146 -0.647275,-0.2898 -0.968204,-0.4396 -0.09612,-0.045 -0.376545,-0.1951 -0.285581,-0.1405 3.148959,1.8895 3.764489,2.4118 2.654616,1.508 -1.367072,-1.1748 0.117354,0.07 -3.857987,-2.3402 -0.894197,-0.5422 3.619248,2.0971 2.714722,1.5723 -1.579735,-0.9165 -3.148824,-1.8548 -4.753458,-2.7283 5.572178,3.2553 1.456481,0.9156 0.250905,0.027 -1.119289,-0.676 -2.155301,-1.4865 -3.270507,-2.1721 -1.978968,-1.3215 -3.944672,-2.6526 -6.07767,-3.7306 0,0 2.929498,2.3434 2.929498,2.3434 z"
       inkscape:connector-curvature="0" />
  </g>
</svg>
