<?xml version="1.0" encoding="UTF-8" standalone="no"?>
<!-- Created with Inkscape (http://www.inkscape.org/) -->

<svg
   xmlns:dc="http://purl.org/dc/elements/1.1/"
   xmlns:cc="http://creativecommons.org/ns#"
   xmlns:rdf="http://www.w3.org/1999/02/22-rdf-syntax-ns#"
   xmlns:svg="http://www.w3.org/2000/svg"
   xmlns="http://www.w3.org/2000/svg"
   xmlns:sodipodi="http://sodipodi.sourceforge.net/DTD/sodipodi-0.dtd"
   xmlns:inkscape="http://www.inkscape.org/namespaces/inkscape"
   width="80"
   height="80"
   id="svg2"
   version="1.1"
   inkscape:version="0.48.0 r9654"
   sodipodi:docname="t1.svg">
  <defs
     id="defs4" />
  <sodipodi:namedview
     id="base"
     pagecolor="#ffffff"
     bordercolor="#666666"
     borderopacity="1.0"
     inkscape:pageopacity="0.0"
     inkscape:pageshadow="2"
     inkscape:zoom="3.959798"
     inkscape:cx="28.841519"
     inkscape:cy="42.61459"
     inkscape:document-units="px"
     inkscape:current-layer="layer1"
     showgrid="false"
     inkscape:window-width="1920"
     inkscape:window-height="1002"
     inkscape:window-x="0"
     inkscape:window-y="25"
     inkscape:window-maximized="1" />
  <metadata
     id="metadata7">
    <rdf:RDF>
      <cc:Work
         rdf:about="">
        <dc:format>image/svg+xml</dc:format>
        <dc:type
           rdf:resource="http://purl.org/dc/dcmitype/StillImage" />
        <dc:title></dc:title>
      </cc:Work>
    </rdf:RDF>
  </metadata>
  <g
     inkscape:label="Layer 1"
     inkscape:groupmode="layer"
     id="layer1"
     transform="translate(0,-972.36218)">
    <path
       style="fill:#000080;stroke:#000080"
       id="path3501"
       d="m 70.907871,20.605264 c -0.998406,-0.348013 -2.019239,-0.621746 -3.034851,-0.913282 -1.047417,-0.328801 -2.124508,-0.496674 -3.202994,-0.678619 -1.063559,-0.185644 -2.1415,-0.246358 -3.218681,-0.281399 -1.250316,-0.02722 -2.501051,-0.02718 -3.751603,-0.0261 -1.209285,0.0024 -2.418557,0.0062 -3.627845,0.0073 -1.200292,0.002 -2.400583,-0.0013 -3.600875,-0.0032 -1.467077,0.01631 -2.939939,0.0833 -4.400919,0.224415 -1.268154,0.151341 -2.543179,0.21858 -3.818934,0.259202 -1.108033,0.027 -2.209572,0.163356 -3.316565,0.220659 -1.174473,0.05089 -2.3504,0.05316 -3.525767,0.05569 -1.223354,0.0037 -2.446711,6.74e-4 -3.670067,5.36e-4 -1.306374,0.04212 -2.606702,-0.047 -3.909326,-0.127821 -1.497068,-0.08826 -2.996868,-0.110369 -4.49614,-0.122769 -1.197258,-0.0054 -2.394539,-0.0035 -3.591805,-0.0028 -0.99848,-9.9e-5 -1.996946,0.0053 -2.995422,0.0067 -0.852162,0.09801 -1.705329,0.171214 -2.561939,0.2157 -0.743626,0.02965 -1.487813,0.04181 -2.231987,0.04291 -0.501133,-0.01424 -1.00552,0.04266 -1.50037,-0.04626 0,0 3.063848,-2.169348 3.063848,-2.169348 l 0,0 c 0.48726,0.02838 0.975822,0.0097 1.463701,0.01415 0.736941,-0.0056 1.474241,-0.0097 2.210281,-0.05071 0.859281,-0.05117 1.713452,-0.157898 2.573159,-0.19833 0.993593,7.93e-4 1.987182,0.0051 2.980777,0.0039 1.193121,9.3e-5 2.386266,5.73e-4 3.579302,0.01715 1.503125,0.0216 3.00648,0.05225 4.507606,0.137047 1.301254,0.07779 2.601589,0.134528 3.905753,0.102886 1.222684,0.0012 2.445373,0.0011 3.668054,-0.0012 1.174575,-0.0073 2.349809,-0.01317 3.522943,-0.07825 1.105028,-0.07061 2.207366,-0.192204 3.315179,-0.208554 1.26834,-0.04506 2.53395,-0.130825 3.796041,-0.26677 1.471528,-0.114099 2.948571,-0.195102 4.424588,-0.202 1.203667,-0.002 2.407331,-0.0052 3.610999,-0.0044 1.205394,-2.29e-4 2.410781,8.73e-4 3.616175,0.0013 1.257836,4.28e-4 2.516068,-0.0096 3.77353,0.02683 1.087111,0.04298 2.172451,0.128544 3.244673,0.320978 1.090245,0.17574 2.168482,0.390018 3.226334,0.714006 1.028447,0.291048 2.05479,0.588533 3.07563,0.905384 0,0 -3.102483,2.105004 -3.102483,2.105004 z"
       inkscape:connector-curvature="0"
       transform="translate(0,972.36218)" />
    <path
       style="fill:#000080;stroke:#000080"
       id="path3503"
       d="m 15.399016,10.819821 c -1.375395,0.749925 -2.851075,1.287937 -4.261466,1.96505 -1.2668357,0.582764 -2.5040185,1.225001 -3.7479938,1.853571 -1.1655897,0.608511 -3.286252,1.803933 1.9872038,-1.167088 0.1092375,-0.06154 -0.2110806,0.135591 -0.312854,0.208821 -0.2605711,0.18749 -0.2841155,0.221695 -0.5114996,0.432397 -0.4749977,0.544567 -0.9425585,1.088997 -1.4693375,1.584698 -0.4841343,0.392067 -0.8531693,0.886005 -1.2257683,1.378085 -0.3038853,0.375986 -0.5991294,0.761178 -0.8660078,1.164407 -0.2551481,0.456987 -0.2700087,0.730486 0.087552,1.12459 0.4938465,0.493648 1.145902,0.753622 1.7772663,1.020462 0.7739358,0.382444 1.5789613,0.691288 2.3477422,1.084806 0.7858165,0.35308 1.5813805,0.687242 2.3517565,1.073324 0.70184,0.340762 1.433431,0.606571 2.117996,0.982287 0.67937,0.383795 1.408949,0.659489 2.15792,0.872095 0.701702,0.192132 1.351628,0.524717 2.036465,0.762967 0.329388,0.07769 0.631427,0.228647 0.954625,0.327391 0,0 -3.109572,2.108943 -3.109572,2.108943 l 0,0 C 15.396179,27.481228 15.084587,27.35138 14.761469,27.253484 14.09391,26.992754 13.441192,26.689116 12.746529,26.502976 11.986631,26.258739 11.240805,25.970377 10.547555,25.5703 9.8590189,25.214166 9.1289296,24.950411 8.4389417,24.596288 7.663026,24.221022 6.8712332,23.879686 6.0888069,23.518454 5.319898,23.14005 4.5226343,22.824827 3.7491107,22.456068 3.0688185,22.163038 2.3843541,21.846359 1.8667668,21.299265 1.4532054,20.796988 1.3109265,20.395845 1.559881,19.772301 c 0.2161209,-0.451062 0.5592039,-0.822744 0.8462539,-1.230097 0.4212686,-0.460911 0.7069742,-1.040834 1.214606,-1.426713 0.533378,-0.484199 1.0479433,-0.979559 1.475592,-1.563613 0.2319989,-0.268499 0.4918464,-0.552345 0.8005271,-0.736584 1.4406872,-0.859891 2.8828857,-1.751505 4.39182,-2.498579 1.231654,-0.626901 2.471965,-1.236055 3.724405,-1.820613 1.442869,-0.6640045 2.916435,-1.2609478 4.328928,-1.99054 0,0 -2.942997,2.314259 -2.942997,2.314259 z"
       inkscape:connector-curvature="0"
       transform="translate(0,972.36218)" />
    <path
       style="fill:#000080;stroke:#000080"
       id="path3505"
       d="m 71.951878,39.93873 c -1.165782,0.0022 -2.326698,-0.01593 -3.489706,-0.0964 -1.192943,-0.09393 -2.388791,-0.133438 -3.584905,-0.154779 -1.195759,-0.01658 -2.391649,-0.01634 -3.587495,-0.01825 -1.284701,0.0044 -2.565793,0.129644 -3.848816,0.193369 -1.179325,0.0557 -2.360163,0.05998 -3.540537,0.0622 -1.354468,0.0014 -2.708933,-0.001 -4.063399,-0.0028 -1.323922,3.04e-4 -2.647842,0.0014 -3.971763,0.0027 -1.135528,0.04357 -2.262203,-0.02767 -3.392392,-0.122512 -1.043939,-0.08662 -2.091677,-0.107717 -3.138659,-0.119343 -0.94528,-0.0061 -1.890598,-0.0085 -2.835897,-0.0061 -0.86219,8.88e-4 -1.72438,0.0019 -2.586565,0.0049 -0.659297,0.0015 -1.318597,0.0022 -1.977896,0.0036 -0.71597,-0.04101 -1.420632,0.09842 -2.131086,0.163983 -0.86942,0.08942 -1.731165,0.216142 -2.604988,0.271256 -0.952783,0.150773 -1.912648,0.232259 -2.875524,0.277791 -1.001577,0.03757 -2.004048,0.03746 -3.006175,0.03878 -0.982617,-0.0015 -1.965236,0.0016 -2.947849,-0.0014 -1.011222,-0.0031 -2.022426,-0.003 -3.033641,0.0015 -0.716723,0.03114 -1.422083,1.52e-4 -2.132583,-0.08629 -0.740968,-0.04778 -1.464014,-0.214873 -2.197231,-0.321063 0,0 3.062948,-2.153613 3.062948,-2.153613 l 0,0 c 0.724652,0.121522 1.446093,0.260731 2.180583,0.311743 0.699711,0.06798 1.400367,0.05615 2.102858,0.05759 1.00924,0.0047 2.018469,0.0049 3.027718,0.0031 0.981994,-0.0016 1.963982,0.0044 2.945979,0.0014 0.998952,-0.0031 1.998438,-0.0055 2.996396,-0.05544 0.961014,-0.05825 1.915263,-0.170192 2.871059,-0.283318 0.873694,-0.07264 1.738318,-0.212501 2.611537,-0.288893 0.719102,-0.07873 1.43668,-0.173465 2.162302,-0.140241 0.656167,0.0013 1.312334,0.002 1.9685,0.0031 0.858979,0.0024 1.71796,0.0023 2.576942,0.0021 0.945235,0.0018 1.890541,-0.0036 2.835673,0.0138 1.051765,0.02188 2.104365,0.04697 3.152736,0.140302 1.119268,0.09406 2.237936,0.13575 3.361643,0.106385 1.320558,0.0016 2.641115,0.0032 3.961674,0.0047 1.357342,-6.32e-4 2.714697,5.4e-5 4.072027,-0.0058 1.177469,-0.0087 2.355267,-0.01955 3.531602,-0.0767 1.284928,-0.06601 2.568593,-0.187859 3.856126,-0.175489 1.20039,-0.0015 2.400959,-0.005 3.601182,0.018 1.196682,0.02961 2.39271,0.07922 3.586239,0.173812 1.171168,0.07158 2.343158,0.07398 3.516157,0.04741 0,0 -3.034774,2.204893 -3.034774,2.204893 z"
       inkscape:connector-curvature="0"
       transform="translate(0,972.36218)" />
    <path
       style="fill:#000080;stroke:#000080"
       id="path3513"
       d="M 11.884839,33.005917 C 10.788284,33.334654 9.7490176,33.815457 8.7399754,34.352858 6.8469724,35.4507 9.9061029,33.672174 10.701668,33.271486 10.931425,33.155768 10.284372,33.57246 10.07696,33.724641 9.4859802,34.158249 8.8951149,34.591579 8.3126938,35.036597 7.4932021,35.6596 6.7896347,36.411256 6.0802165,37.151853 5.6548296,37.550873 5.326,38.031828 4.9589027,38.480726 c 0.076689,0.07911 -0.1055515,0.06758 -0.1003528,0.119278 0.01818,0.180793 0.3842786,0.380699 0.5037723,0.471543 0.4865929,0.290794 0.9517176,0.613882 1.4520493,0.881365 0.6132545,0.328682 1.2070549,0.684459 1.8390078,0.978224 0.6218592,0.338184 1.2622733,0.635015 1.8573147,1.020817 0.525323,0.339313 1.076867,0.632086 1.619998,0.94058 0.535028,0.254409 1.046377,0.555259 1.581833,0.808568 0.549826,0.270705 1.080875,0.574023 1.640292,0.825684 0.314798,0.17463 0.620961,0.344977 0.897515,0.576269 0,0 -3.178813,1.998692 -3.178813,1.998692 l 0,0 C 12.806971,46.905364 12.519157,46.748161 12.227514,46.595167 11.67511,46.328114 11.137836,46.032919 10.587282,45.762293 10.051185,45.494578 9.5207545,45.215438 8.9897837,44.937716 8.4393427,44.632612 7.8960651,44.315837 7.3659671,43.97629 6.7744055,43.612362 6.1447166,43.318111 5.5322932,42.991729 4.9023511,42.679339 4.2960399,42.326643 3.6740125,41.999602 3.1681409,41.708166 2.6751424,41.394778 2.1876541,41.073773 1.8518067,40.811885 1.3634611,40.448848 1.5054059,39.96606 1.8656222,39.459899 1.3631113,40.148577 1.8174903,39.591183 2.090562,39.256202 2.301729,38.870411 2.6317584,38.580948 3.3820945,37.857171 4.0468278,37.040884 4.8831191,36.407332 6.9897859,34.74218 9.2313649,33.267881 11.626804,32.037713 c 1.041626,-0.52021 2.104945,-0.986739 3.218733,-1.331951 0,0 -2.960698,2.300155 -2.960698,2.300155 z"
       inkscape:connector-curvature="0"
       transform="translate(0,972.36218)" />
    <path
       style="fill:#000080;stroke:#000080"
       id="path3515"
       d="m 70.660637,65.443877 c -1.515706,-0.02309 -3.031705,-0.02279 -4.547561,-0.02567 -2.427778,-0.007 -4.855722,0.0052 -7.28284,-0.05536 -3.415296,-0.204114 -6.817127,-0.565013 -10.225344,-0.854929 -2.553742,-0.207769 -5.114728,-0.301271 -7.676056,-0.338561 -1.103181,-0.06586 -2.203115,-0.168119 -3.307472,-0.214557 -1.090095,-0.005 -2.173064,-0.132731 -3.260113,-0.201556 -1.055358,-0.006 -2.098515,-0.16001 -3.14805,-0.247224 -1.192131,-0.04682 -2.37796,-0.176832 -3.568205,-0.255359 -1.164186,-0.02765 -2.321778,-0.117438 -3.481621,-0.214937 -1.102848,-0.09123 -2.209707,-0.108862 -3.315645,-0.12299 -1.171818,-0.09705 -2.344291,-0.176822 -3.519378,-0.219573 -0.889715,-0.02848 -1.779971,-0.03236 -2.670064,-0.03144 -0.690527,9.36e-4 -1.381048,4.62e-4 -2.071575,0.0026 -0.561593,0.002 -1.123189,0.0029 -1.684785,0.0034 -0.328261,1.86e-4 -0.17318,-0.02024 -0.466385,0.05187 0,0 3.009907,-2.249211 3.009907,-2.249211 l 0,0 c 0.322095,-0.01184 0.157895,-0.0087 0.492613,-0.0086 0.559006,3.19e-4 1.118012,9.4e-4 1.677018,0.0019 0.689627,9.18e-4 1.379257,-0.0019 2.068874,0.0016 0.885476,0.0076 1.770936,0.0209 2.655719,0.05912 1.172248,0.05455 2.341633,0.146687 3.513215,0.2112 1.11206,0.01562 2.224868,0.04477 3.333168,0.143366 1.156041,0.101073 2.312302,0.163445 3.471518,0.21484 1.194992,0.08749 2.388093,0.19846 3.585354,0.251011 1.04299,0.09481 2.081739,0.232863 3.130722,0.249432 1.089573,0.07177 2.177076,0.176102 3.269798,0.186651 1.089596,0.05691 2.174412,0.170294 3.263422,0.23555 2.532903,0.08258 5.064334,0.22165 7.590227,0.428222 3.410042,0.301183 6.816281,0.653224 10.236928,0.817438 2.446545,0.03735 4.893074,0.0032 7.339834,0.0051 1.539415,-0.0029 3.078963,-0.0029 4.618235,-0.02567 0,0 -3.031458,2.202483 -3.031458,2.202483 z"
       inkscape:connector-curvature="0"
       transform="translate(0,972.36218)" />
    <path
       style="fill:#000080;stroke:#000080"
       id="path3519"
       d="m 13.422927,55.315887 c -1.59805,0.924863 1.017107,-0.589964 2.147324,-1.220075 0.219786,-0.122534 -0.430171,0.261221 -0.645066,0.392144 -0.577127,0.35161 -1.14798,0.712546 -1.72125,1.070355 -1.507214,1.17025 -3.2303346,1.844089 -4.8900391,2.691381 -0.1232871,0.06294 -0.2380003,0.141422 -0.3570004,0.212133 -0.1251499,0.06139 -0.2502998,0.122777 -0.3754498,0.184166 -1.1853034,0.535135 -3.1586704,1.665754 1.982651,-1.206825 0.1343132,-0.07504 -0.2597242,0.165044 -0.3881124,0.249827 -0.3338933,0.220491 -0.3475083,0.235451 -0.6572123,0.460792 -0.4806865,0.35948 -0.8956384,0.7682 -1.1351389,1.322803 -0.1172649,0.490256 -0.259785,0.95406 -0.5867156,1.3453 -0.3036688,0.377724 -0.7555044,0.574977 -1.1165268,0.884061 -0.2989053,0.351686 -0.045574,0.59335 0.2335986,0.84932 0.6421752,0.39563 1.3117228,0.748679 1.9719197,1.114969 1.0522733,0.589602 2.143942,1.100779 3.236964,1.608763 0.92845,0.452746 1.894326,0.82142 2.822598,1.276203 0.31811,0.216229 0.701318,0.308417 1.039303,0.48025 0.290668,0.147776 0.554277,0.335459 0.851543,0.475978 0.336558,0.200071 0.173236,0.09376 0.490158,0.31863 0,0 -3.160838,2.018696 -3.160838,2.018696 l 0,0 C 12.868983,69.650268 13.021562,69.743067 12.707618,69.566827 12.083416,69.241115 11.471045,68.898388 10.829526,68.605585 9.9066835,68.156494 8.955858,67.770986 8.0347357,67.319191 6.9343182,66.80553 5.8374732,66.284725 4.7740869,65.696835 4.0815267,65.321437 3.3515561,64.992401 2.718743,64.521411 2.3416318,64.154667 2.0122066,63.729831 2.2264246,63.183102 2.4865785,62.707187 2.9307335,62.604745 3.3346831,62.275805 3.4358919,62.169 3.5670083,62.09065 3.6571313,61.974339 3.8535642,61.720825 3.9248436,61.366117 3.9837499,61.061253 4.1682404,60.42712 4.524581,59.942188 5.0486352,59.535219 6.6854208,58.200881 8.60905,57.250978 10.49377,56.313057 c 1.289903,-0.680361 4.758604,-2.432807 -0.7457171,0.582925 2.1870381,-1.326329 4.3317601,-2.723954 6.5898541,-3.932646 0,0 -2.91498,2.352551 -2.91498,2.352551 z"
       inkscape:connector-curvature="0"
       transform="translate(0,972.36218)" />
  </g>
</svg>
