<?xml version="1.0" encoding="UTF-8" standalone="no"?>
<!-- Created with Inkscape (http://www.inkscape.org/) -->

<svg
   xmlns:dc="http://purl.org/dc/elements/1.1/"
   xmlns:cc="http://creativecommons.org/ns#"
   xmlns:rdf="http://www.w3.org/1999/02/22-rdf-syntax-ns#"
   xmlns:svg="http://www.w3.org/2000/svg"
   xmlns="http://www.w3.org/2000/svg"
   xmlns:sodipodi="http://sodipodi.sourceforge.net/DTD/sodipodi-0.dtd"
   xmlns:inkscape="http://www.inkscape.org/namespaces/inkscape"
   width="80"
   height="80"
   id="svg2"
   version="1.1"
   inkscape:version="0.48.0 r9654"
   sodipodi:docname="t2.svg">
  <defs
     id="defs4" />
  <sodipodi:namedview
     id="base"
     pagecolor="#ffffff"
     bordercolor="#666666"
     borderopacity="1.0"
     inkscape:pageopacity="0.0"
     inkscape:pageshadow="2"
     inkscape:zoom="3.959798"
     inkscape:cx="28.841519"
     inkscape:cy="42.61459"
     inkscape:document-units="px"
     inkscape:current-layer="layer1"
     showgrid="false"
     inkscape:window-width="1920"
     inkscape:window-height="1002"
     inkscape:window-x="0"
     inkscape:window-y="25"
     inkscape:window-maximized="1" />
  <metadata
     id="metadata7">
    <rdf:RDF>
      <cc:Work
         rdf:about="">
        <dc:format>image/svg+xml</dc:format>
        <dc:type
           rdf:resource="http://purl.org/dc/dcmitype/StillImage" />
        <dc:title></dc:title>
      </cc:Work>
    </rdf:RDF>
  </metadata>
  <g
     inkscape:label="Layer 1"
     inkscape:groupmode="layer"
     id="layer1"
     transform="translate(0,-972.36218)">
    <path
       style="fill:#000080;stroke:#000080"
       id="path3501"
       d="m 5.5156715,992.96744 c 0.998406,-0.34801 2.019239,-0.62174 3.034851,-0.91328 1.047417,-0.3288 2.1245075,-0.49667 3.2029935,-0.67862 1.063559,-0.18564 2.1415,-0.24635 3.218681,-0.2814 1.250316,-0.0272 2.501051,-0.0272 3.751603,-0.0261 1.209285,0.002 2.418557,0.006 3.627845,0.007 1.200292,0.002 2.400583,-0.001 3.600875,-0.003 1.467077,0.0163 2.939939,0.0833 4.400919,0.22442 1.268154,0.15134 2.543179,0.21858 3.818934,0.2592 1.108033,0.027 2.209572,0.16336 3.316565,0.22066 1.174473,0.0509 2.3504,0.0532 3.525767,0.0557 1.223354,0.004 2.446711,6.7e-4 3.670067,5.4e-4 1.306374,0.0421 2.606702,-0.047 3.909326,-0.12782 1.497068,-0.0883 2.996868,-0.11037 4.49614,-0.12277 1.197258,-0.005 2.394539,-0.003 3.591805,-0.003 0.99848,-10e-5 1.996946,0.005 2.995422,0.007 0.852162,0.098 1.705329,0.17121 2.561939,0.2157 0.743626,0.0297 1.487813,0.0418 2.231987,0.0429 0.501133,-0.0142 1.00552,0.0427 1.50037,-0.0463 0,0 -3.063848,-2.16935 -3.063848,-2.16935 l 0,0 c -0.48726,0.0284 -0.975822,0.01 -1.463701,0.0141 -0.736941,-0.006 -1.474241,-0.01 -2.210281,-0.0507 -0.859281,-0.0512 -1.713452,-0.1579 -2.573159,-0.19833 -0.993593,7.9e-4 -1.987182,0.005 -2.980777,0.004 -1.193121,9e-5 -2.386266,5.7e-4 -3.579302,0.0172 -1.503125,0.0216 -3.00648,0.0522 -4.507606,0.13705 -1.301254,0.0778 -2.601589,0.13452 -3.905753,0.10288 -1.222684,0.001 -2.445373,0.001 -3.668054,-0.001 -1.174575,-0.007 -2.349809,-0.0132 -3.522943,-0.0783 -1.105028,-0.0706 -2.207366,-0.1922 -3.315179,-0.20855 -1.26834,-0.0451 -2.53395,-0.13083 -3.796041,-0.26677 -1.471528,-0.1141 -2.948571,-0.1951 -4.424588,-0.202 -1.203667,-0.002 -2.407331,-0.005 -3.610999,-0.004 -1.205394,-2.3e-4 -2.410781,8.7e-4 -3.616175,0.001 -1.257836,4.3e-4 -2.516068,-0.01 -3.77353,0.0268 -1.087111,0.043 -2.1724505,0.12854 -3.2446725,0.32098 -1.090245,0.17574 -2.168482,0.39001 -3.226334,0.714 -1.028447,0.29105 -2.05479,0.58853 -3.07563,0.90539 0,0 3.102483,2.105 3.102483,2.105 z"
       inkscape:connector-curvature="0" />
    <path
       style="fill:#000080;stroke:#000080"
       id="path3503"
       d="m 61.024526,983.182 c 1.375395,0.74993 2.851075,1.28794 4.261466,1.96505 1.266836,0.58277 2.504019,1.225 3.747994,1.85357 1.16559,0.60851 3.286252,1.80394 -1.987204,-1.16709 -0.109237,-0.0615 0.211081,0.1356 0.312854,0.20883 0.260572,0.18749 0.284116,0.22169 0.5115,0.43239 0.474998,0.54457 0.942559,1.089 1.469338,1.5847 0.484134,0.39207 0.853169,0.88601 1.225768,1.37809 0.303885,0.37598 0.599129,0.76117 0.866008,1.1644 0.255148,0.45699 0.270008,0.73049 -0.08755,1.12459 -0.493847,0.49365 -1.145902,0.75362 -1.777267,1.02046 -0.773935,0.38245 -1.578961,0.69129 -2.347742,1.08481 -0.785816,0.35308 -1.58138,0.68724 -2.351756,1.07332 -0.70184,0.34077 -1.433431,0.60658 -2.117996,0.98229 -0.67937,0.3838 -1.408949,0.65949 -2.15792,0.8721 -0.701702,0.19213 -1.351628,0.52471 -2.036465,0.76296 -0.329388,0.0777 -0.631427,0.22865 -0.954625,0.32739 0,0 3.109572,2.10895 3.109572,2.10895 l 0,0 c 0.316864,-0.1154 0.628456,-0.24525 0.951574,-0.34315 0.667559,-0.26073 1.320277,-0.56436 2.01494,-0.7505 0.759898,-0.24424 1.505724,-0.5326 2.198974,-0.93268 0.688537,-0.35613 1.418626,-0.61989 2.108614,-0.97401 0.775915,-0.37527 1.567708,-0.7166 2.350135,-1.07784 0.768908,-0.3784 1.566172,-0.69362 2.339696,-1.06238 0.680292,-0.29303 1.364756,-0.60971 1.882344,-1.1568 0.413561,-0.50228 0.55584,-0.90342 0.306885,-1.52697 -0.21612,-0.45106 -0.559203,-0.82274 -0.846253,-1.2301 -0.421269,-0.46091 -0.706975,-1.04083 -1.214606,-1.42671 -0.533378,-0.4842 -1.047944,-0.97956 -1.475592,-1.56361 -0.231999,-0.2685 -0.491847,-0.55235 -0.800528,-0.73659 -1.440687,-0.85989 -2.882885,-1.7515 -4.39182,-2.49857 -1.231654,-0.62691 -2.471965,-1.23606 -3.724405,-1.82062 -1.442869,-0.664 -2.916435,-1.26095 -4.328928,-1.99054 0,0 2.942997,2.31426 2.942997,2.31426 z"
       inkscape:connector-curvature="0" />
    <path
       style="fill:#000080;stroke:#000080"
       id="path3505"
       d="m 4.4716645,1012.3009 c 1.165782,0 2.326698,-0.016 3.489706,-0.096 1.192943,-0.094 2.3887905,-0.1334 3.5849045,-0.1548 1.195759,-0.017 2.391649,-0.016 3.587495,-0.018 1.284701,0 2.565793,0.1296 3.848816,0.1934 1.179325,0.056 2.360163,0.06 3.540537,0.062 1.354468,0 2.708933,-10e-4 4.063399,-0 1.323922,3e-4 2.647842,0 3.971763,0 1.135528,0.043 2.262203,-0.028 3.392392,-0.1226 1.043939,-0.087 2.091677,-0.1077 3.138659,-0.1193 0.94528,-0.01 1.890598,-0.01 2.835897,-0.01 0.86219,9e-4 1.72438,0 2.586565,0 0.659297,0 1.318597,0 1.977896,0 0.71597,-0.041 1.420632,0.098 2.131086,0.164 0.86942,0.089 1.731165,0.2161 2.604988,0.2712 0.952783,0.1508 1.912648,0.2323 2.875524,0.2778 1.001577,0.038 2.004048,0.038 3.006175,0.039 0.982617,-0 1.965236,0 2.947849,-0 1.011222,-0 2.022426,-0 3.033641,0 0.716723,0.031 1.422083,2e-4 2.132583,-0.086 0.740968,-0.048 1.464014,-0.2149 2.197231,-0.321 0,0 -3.062948,-2.1537 -3.062948,-2.1537 l 0,0 c -0.724652,0.1216 -1.446093,0.2608 -2.180583,0.3118 -0.699711,0.068 -1.400367,0.056 -2.102858,0.058 -1.00924,0 -2.018469,0 -3.027718,0 -0.981994,-0 -1.963982,0 -2.945979,0 -0.998952,-0 -1.998438,-0.01 -2.996396,-0.056 -0.961014,-0.058 -1.915263,-0.1702 -2.871059,-0.2833 -0.873694,-0.073 -1.738318,-0.2125 -2.611537,-0.2889 -0.719102,-0.079 -1.43668,-0.1734 -2.162302,-0.1402 -0.656167,0 -1.312334,0 -1.9685,0 -0.858979,0 -1.71796,0 -2.576942,0 -0.945235,0 -1.890541,-0 -2.835673,0.014 -1.051765,0.022 -2.104365,0.047 -3.152736,0.1403 -1.119268,0.094 -2.237936,0.1357 -3.361643,0.1064 -1.320558,0 -2.641115,0 -3.961674,0 -1.357342,-7e-4 -2.714697,0 -4.072027,-0.01 -1.177469,-0.01 -2.355267,-0.02 -3.531602,-0.077 -1.284928,-0.066 -2.568593,-0.1879 -3.856126,-0.1755 -1.20039,-0 -2.4009585,-0 -3.6011815,0.018 -1.196682,0.03 -2.39271,0.079 -3.586239,0.1738 -1.171168,0.072 -2.343158,0.074 -3.516157,0.047 0,0 3.034774,2.2049 3.034774,2.2049 z"
       inkscape:connector-curvature="0" />
    <path
       style="fill:#000080;stroke:#000080"
       id="path3513"
       d="m 64.538703,1005.3681 c 1.096555,0.3287 2.135822,0.8095 3.144864,1.3469 1.893003,1.0979 -1.166127,-0.6806 -1.961693,-1.0813 -0.229757,-0.1158 0.417296,0.3009 0.624708,0.4531 0.59098,0.4336 1.181846,0.867 1.764267,1.312 0.819491,0.623 1.523059,1.3746 2.232477,2.1152 0.425387,0.3991 0.754216,0.88 1.121314,1.3289 -0.07669,0.079 0.105551,0.068 0.100353,0.1193 -0.01818,0.1808 -0.384279,0.3807 -0.503773,0.4715 -0.486593,0.2908 -0.951717,0.6139 -1.452049,0.8814 -0.613255,0.3287 -1.207055,0.6845 -1.839008,0.9782 -0.621859,0.3382 -1.262273,0.635 -1.857315,1.0208 -0.525323,0.3393 -1.076867,0.6321 -1.619998,0.9406 -0.535028,0.2544 -1.046377,0.5553 -1.581833,0.8086 -0.549826,0.2707 -1.080875,0.574 -1.640292,0.8257 -0.314798,0.1746 -0.620961,0.3449 -0.897515,0.5762 0,0 3.178813,1.9987 3.178813,1.9987 l 0,0 c 0.264548,-0.1964 0.552362,-0.3536 0.844005,-0.5066 0.552404,-0.267 1.089678,-0.5622 1.640232,-0.8328 0.536097,-0.2677 1.066528,-0.5469 1.597499,-0.8246 0.550441,-0.3051 1.093718,-0.6219 1.623816,-0.9614 0.591562,-0.364 1.221251,-0.6582 1.833674,-0.9846 0.629942,-0.3124 1.236254,-0.6651 1.858281,-0.9921 0.505872,-0.2915 0.99887,-0.6048 1.486358,-0.9258 0.335848,-0.2619 0.824193,-0.625 0.682249,-1.1078 -0.360217,-0.5061 0.142294,0.1826 -0.312085,-0.3748 -0.273072,-0.335 -0.484239,-0.7208 -0.814268,-1.0103 -0.750336,-0.7237 -1.415069,-1.54 -2.251361,-2.1736 -2.106666,-1.6651 -4.348245,-3.1394 -6.743685,-4.3696 -1.041626,-0.5202 -2.104945,-0.9867 -3.218733,-1.332 0,0 2.960698,2.3002 2.960698,2.3002 z"
       inkscape:connector-curvature="0" />
    <path
       style="fill:#000080;stroke:#000080"
       id="path3515"
       d="m 5.7629055,1037.8061 c 1.515706,-0.023 3.031705,-0.023 4.5475605,-0.026 2.427778,-0.01 4.855722,0.01 7.28284,-0.055 3.415296,-0.2041 6.817127,-0.565 10.225344,-0.8549 2.553742,-0.2078 5.114728,-0.3013 7.676056,-0.3386 1.103181,-0.066 2.203115,-0.1681 3.307472,-0.2145 1.090095,-0.01 2.173064,-0.1328 3.260113,-0.2016 1.055358,-0.01 2.098515,-0.16 3.14805,-0.2472 1.192131,-0.047 2.37796,-0.1768 3.568205,-0.2554 1.164186,-0.028 2.321778,-0.1174 3.481621,-0.2149 1.102848,-0.091 2.209707,-0.1089 3.315645,-0.123 1.171818,-0.097 2.344291,-0.1768 3.519378,-0.2196 0.889715,-0.028 1.779971,-0.032 2.670064,-0.031 0.690527,9e-4 1.381048,5e-4 2.071575,0 0.561593,0 1.123189,0 1.684785,0 0.328261,2e-4 0.17318,-0.02 0.466385,0.052 0,0 -3.009907,-2.2492 -3.009907,-2.2492 l 0,0 c -0.322095,-0.012 -0.157895,-0.01 -0.492613,-0.01 -0.559006,3e-4 -1.118012,9e-4 -1.677018,0 -0.689627,9e-4 -1.379257,-0 -2.068874,0 -0.885476,0.01 -1.770936,0.021 -2.655719,0.059 -1.172248,0.054 -2.341633,0.1467 -3.513215,0.2112 -1.11206,0.016 -2.224868,0.045 -3.333168,0.1433 -1.156041,0.1011 -2.312302,0.1635 -3.471518,0.2149 -1.194992,0.088 -2.388093,0.1984 -3.585354,0.251 -1.04299,0.095 -2.081739,0.2329 -3.130722,0.2494 -1.089573,0.072 -2.177076,0.1761 -3.269798,0.1867 -1.089596,0.057 -2.174412,0.1703 -3.263422,0.2355 -2.532903,0.083 -5.064334,0.2217 -7.590227,0.4283 -3.410042,0.3011 -6.816281,0.6532 -10.236928,0.8174 -2.446545,0.037 -4.8930735,0 -7.3398335,0.01 -1.539415,-0 -3.078963,-0 -4.618235,-0.026 0,0 3.031458,2.2025 3.031458,2.2025 z"
       inkscape:connector-curvature="0" />
    <path
       style="fill:#000080;stroke:#000080"
       id="path3519"
       d="m 63.000615,1027.6781 c 1.59805,0.9248 -1.017107,-0.59 -2.147324,-1.2201 -0.219786,-0.1225 0.430171,0.2612 0.645066,0.3921 0.577127,0.3516 1.14798,0.7126 1.72125,1.0704 1.507214,1.1702 3.230335,1.8441 4.89004,2.6914 0.123287,0.063 0.238,0.1414 0.357,0.2121 0.12515,0.061 0.2503,0.1228 0.37545,0.1842 1.185303,0.5351 3.15867,1.6657 -1.982651,-1.2069 -0.134313,-0.075 0.259724,0.1651 0.388112,0.2499 0.333893,0.2205 0.347508,0.2354 0.657212,0.4608 0.480687,0.3594 0.895639,0.7682 1.135139,1.3228 0.117265,0.4902 0.259785,0.954 0.586716,1.3453 0.303669,0.3777 0.755504,0.5749 1.116527,0.884 0.298905,0.3517 0.04557,0.5934 -0.233599,0.8493 -0.642175,0.3957 -1.311723,0.7487 -1.97192,1.115 -1.052273,0.5896 -2.143942,1.1008 -3.236964,1.6088 -0.92845,0.4527 -1.894326,0.8214 -2.822598,1.2762 -0.31811,0.2162 -0.701318,0.3084 -1.039303,0.4802 -0.290668,0.1478 -0.554277,0.3355 -0.851543,0.476 -0.336558,0.2001 -0.173236,0.094 -0.490158,0.3186 0,0 3.160838,2.0187 3.160838,2.0187 l 0,0 c 0.296654,-0.1945 0.144075,-0.1017 0.458019,-0.2779 0.624202,-0.3257 1.236573,-0.6684 1.878092,-0.9612 0.922843,-0.4491 1.873668,-0.8346 2.794791,-1.2864 1.100417,-0.5137 2.197262,-1.0345 3.260649,-1.6224 0.69256,-0.3754 1.42253,-0.7044 2.055343,-1.1754 0.377112,-0.3668 0.706537,-0.7916 0.492319,-1.3383 -0.260154,-0.4759 -0.704309,-0.5784 -1.108259,-0.9073 -0.101208,-0.1068 -0.232325,-0.1852 -0.322448,-0.3015 -0.196433,-0.2535 -0.267712,-0.6082 -0.326618,-0.9131 -0.184491,-0.6341 -0.540832,-1.119 -1.064886,-1.526 -1.636785,-1.3343 -3.560415,-2.2842 -5.445135,-3.2222 -1.289903,-0.6803 -4.758604,-2.4328 0.745718,0.583 -2.187039,-1.3264 -4.331761,-2.724 -6.589855,-3.9327 0,0 2.91498,2.3526 2.91498,2.3526 z"
       inkscape:connector-curvature="0" />
  </g>
</svg>
