<?xml version="1.0" encoding="UTF-8" standalone="no"?>
<!-- Created with Inkscape (http://www.inkscape.org/) -->

<svg
   xmlns:dc="http://purl.org/dc/elements/1.1/"
   xmlns:cc="http://creativecommons.org/ns#"
   xmlns:rdf="http://www.w3.org/1999/02/22-rdf-syntax-ns#"
   xmlns:svg="http://www.w3.org/2000/svg"
   xmlns="http://www.w3.org/2000/svg"
   xmlns:sodipodi="http://sodipodi.sourceforge.net/DTD/sodipodi-0.dtd"
   xmlns:inkscape="http://www.inkscape.org/namespaces/inkscape"
   width="200"
   height="200"
   id="svg2"
   version="1.1"
   inkscape:version="0.48.0 r9654"
   sodipodi:docname="d0.svg">
  <defs
     id="defs4" />
  <sodipodi:namedview
     id="base"
     pagecolor="#ffffff"
     bordercolor="#666666"
     borderopacity="1.0"
     inkscape:pageopacity="0.0"
     inkscape:pageshadow="2"
     inkscape:zoom="1.979899"
     inkscape:cx="165.45654"
     inkscape:cy="83.538595"
     inkscape:document-units="px"
     inkscape:current-layer="layer1"
     showgrid="false"
     inkscape:window-width="999"
     inkscape:window-height="738"
     inkscape:window-x="284"
     inkscape:window-y="157"
     inkscape:window-maximized="0" />
  <metadata
     id="metadata7">
    <rdf:RDF>
      <cc:Work
         rdf:about="">
        <dc:format>image/svg+xml</dc:format>
        <dc:type
           rdf:resource="http://purl.org/dc/dcmitype/StillImage" />
        <dc:title />
      </cc:Work>
    </rdf:RDF>
  </metadata>
  <g
     inkscape:label="Layer 1"
     inkscape:groupmode="layer"
     id="layer1"
     transform="translate(0,-852.36218)">
    <flowRoot
       xml:space="preserve"
       id="flowRoot2997"
       style="fill:#ffffff;stroke:#ffffff;stroke-opacity:1;stroke-width:1px;stroke-linejoin:miter;stroke-linecap:butt;fill-opacity:1;font-family:Sans;font-style:normal;font-weight:normal;font-size:20px;line-height:50%;letter-spacing:0px;word-spacing:0px"><flowRegion
         id="flowRegion2999"><rect
           id="rect3001"
           width="91.923882"
           height="90.408653"
           x="98.994949"
           y="95.954292"
           style="fill:#ffffff;stroke:#ffffff" /></flowRegion><flowPara
         id="flowPara3003" /></flowRoot>    <flowRoot
       xml:space="preserve"
       id="flowRoot3005"
       style="fill:#ffffff;stroke:#ffffff;stroke-opacity:1;stroke-width:1px;stroke-linejoin:miter;stroke-linecap:butt;fill-opacity:1;font-family:Sans;font-style:normal;font-weight:normal;font-size:20px;line-height:50%;letter-spacing:0px;word-spacing:0px"><flowRegion
         id="flowRegion3007"><rect
           id="rect3009"
           width="114.65231"
           height="87.378197"
           x="77.276672"
           y="103.02536"
           style="fill:#ffffff;stroke:#ffffff" /></flowRegion><flowPara
         id="flowPara3011" /></flowRoot>    <flowRoot
       xml:space="preserve"
       id="flowRoot3013"
       style="font-size:20px;font-style:normal;font-weight:normal;line-height:50%;letter-spacing:0px;word-spacing:0px;fill:#ffffff;fill-opacity:1;stroke:#ffffff;font-family:Sans"
       transform="translate(-73.236059,940.24545)"><flowRegion
         id="flowRegion3015"><rect
           id="rect3017"
           width="110.6117"
           height="102.53048"
           x="236.88077"
           y="87.87307"
           style="fill:#ffffff;stroke:#ffffff" /></flowRegion><flowPara
         id="flowPara3019"
         style="font-size:56px;font-weight:bold;fill:#ffffff;stroke:#ffffff;-inkscape-font-specification:Sans Bold">2</flowPara></flowRoot>    <path
       style="fill:#ffffff;stroke:#ffffff"
       id="path3323"
       d="m 95.606982,165.66196 c -0.654009,-1.7546 -0.89305,-3.59658 -1.073147,-5.4489 -0.232726,-3.21445 -0.214054,-6.44099 -0.199012,-9.66184 0.02475,-3.70241 0.206484,-7.40595 0.166347,-11.1089 -0.02254,-2.07985 -0.161518,-4.5335 -0.262418,-6.60951 -0.360667,-6.08439 -0.589103,-12.17451 -0.723769,-18.26775 0.147564,-5.4403 0.552974,-10.86818 0.753714,-16.306938 0.204862,-6.028582 0.21635,-12.061367 0.207625,-18.092704 -7.17e-4,-4.20346 -0.102225,-8.405729 -0.181954,-12.608136 -0.03345,-1.911516 -0.07797,-3.822577 -0.09772,-5.734271 -0.02262,-1.241505 -0.01226,-2.483073 -0.01553,-3.724671 -0.04401,-0.772798 0.0791,-1.536527 0.194818,-2.297137 0,0 6.664994,-3.265579 6.664994,-3.265579 l 0,0 c -0.11925,0.728925 -0.29948,1.458227 -0.26269,2.201321 -0.003,1.246739 0.007,2.493446 -0.0151,3.740099 -0.019,1.943703 -0.0613,3.886855 -0.0917,5.830426 -0.0734,4.26524 -0.16811,8.530254 -0.18277,12.796283 -0.0364,6.033886 -0.0545,12.068271 -0.17819,18.101181 -0.16008,5.428836 -0.490007,10.846026 -0.755927,16.269766 0.07505,6.10855 0.229533,12.21614 0.582337,18.31581 0.2988,5.85072 0.38286,11.70115 0.4762,17.55829 0.0434,3.17456 0.0488,6.3549 0.31801,9.5205 0.19701,1.7634 0.43213,3.52621 1.21023,5.14375 0,0 -6.534268,3.64891 -6.534268,3.64891 z"
       inkscape:connector-curvature="0"
       transform="translate(0,852.36218)" />
    <path
       style="fill:#ffffff;stroke:#ffffff"
       id="path3331"
       d="m 115.75176,63.222339 c -1.07832,-2.166497 -2.32676,-4.217483 -3.68182,-6.220829 -1.77843,-2.373783 -3.17768,-4.996481 -4.8187,-7.463315 -1.66133,-2.304062 -3.62616,-4.394353 -5.64517,-6.389548 -1.24482,-1.245212 -2.458961,-2.5205 -3.687745,-3.781433 -0.967886,-0.704545 -1.5952,-1.74836 -2.481635,-2.531332 -0.814167,-0.821677 -1.521767,-2.236835 -2.807057,-2.290988 -2.122242,1.750477 0.48925,-0.436689 5.639287,-3.011719 0.2192,-0.109601 -0.345016,0.349728 -0.495543,0.543126 -0.201004,0.258251 -0.376953,0.535202 -0.556635,0.808717 -0.280253,0.426607 -1.134299,1.808258 -1.375243,2.19613 -1.851027,2.83902 -3.756981,5.641459 -5.487747,8.556465 -1.878584,3.426455 -4.174606,6.592219 -6.247207,9.898055 -1.456574,2.316433 -2.835606,4.679694 -4.033447,7.140108 -0.09314,0.189061 -0.186281,0.378123 -0.279422,0.567184 0,0 -6.748535,3.017381 -6.748535,3.017381 l 0,0 c 0.117361,-0.189168 0.234723,-0.378336 0.352085,-0.567505 1.314654,-2.51348 2.774673,-4.939493 4.304368,-7.329388 2.028866,-3.312334 4.33166,-6.452859 6.209237,-9.860008 1.662104,-2.912789 3.531893,-5.699471 5.356285,-8.512268 2.078962,-3.512619 4.030191,-8.185234 9.50196,-7.662983 1.228224,0.556787 2.057064,1.655832 2.972754,2.610402 0.85982,0.828103 1.55113,1.814204 2.4647,2.591498 1.20511,1.266394 2.37869,2.561664 3.56282,3.847582 1.99669,2.076553 3.94241,4.227434 5.66112,6.540325 1.64071,2.464101 3.02237,5.091683 4.80169,7.460766 1.37408,1.966508 2.5983,4.02356 3.92875,6.012945 0,0 -6.40915,3.830632 -6.40915,3.830632 z"
       inkscape:connector-curvature="0"
       transform="translate(0,852.36218)" />
  </g>
</svg>
