<?xml version="1.0" encoding="UTF-8" standalone="no"?>
<!-- Created with Inkscape (http://www.inkscape.org/) -->

<svg
   xmlns:dc="http://purl.org/dc/elements/1.1/"
   xmlns:cc="http://creativecommons.org/ns#"
   xmlns:rdf="http://www.w3.org/1999/02/22-rdf-syntax-ns#"
   xmlns:svg="http://www.w3.org/2000/svg"
   xmlns="http://www.w3.org/2000/svg"
   xmlns:sodipodi="http://sodipodi.sourceforge.net/DTD/sodipodi-0.dtd"
   xmlns:inkscape="http://www.inkscape.org/namespaces/inkscape"
   width="200"
   height="200"
   id="svg2"
   version="1.1"
   inkscape:version="0.48.0 r9654"
   sodipodi:docname="d1.svg">
  <defs
     id="defs4" />
  <sodipodi:namedview
     id="base"
     pagecolor="#ffffff"
     bordercolor="#666666"
     borderopacity="1.0"
     inkscape:pageopacity="0.0"
     inkscape:pageshadow="2"
     inkscape:zoom="1.979899"
     inkscape:cx="165.45654"
     inkscape:cy="83.538595"
     inkscape:document-units="px"
     inkscape:current-layer="layer1"
     showgrid="false"
     inkscape:window-width="999"
     inkscape:window-height="738"
     inkscape:window-x="315"
     inkscape:window-y="155"
     inkscape:window-maximized="0" />
  <metadata
     id="metadata7">
    <rdf:RDF>
      <cc:Work
         rdf:about="">
        <dc:format>image/svg+xml</dc:format>
        <dc:type
           rdf:resource="http://purl.org/dc/dcmitype/StillImage" />
        <dc:title />
      </cc:Work>
    </rdf:RDF>
  </metadata>
  <g
     inkscape:label="Layer 1"
     inkscape:groupmode="layer"
     id="layer1"
     transform="translate(0,-852.36218)">
    <flowRoot
       xml:space="preserve"
       id="flowRoot2997"
       style="fill:black;stroke:none;stroke-opacity:1;stroke-width:1px;stroke-linejoin:miter;stroke-linecap:butt;fill-opacity:1;font-family:Sans;font-style:normal;font-weight:normal;font-size:20px;line-height:50%;letter-spacing:0px;word-spacing:0px"><flowRegion
         id="flowRegion2999"><rect
           id="rect3001"
           width="91.923882"
           height="90.408653"
           x="98.994949"
           y="95.954292" /></flowRegion><flowPara
         id="flowPara3003" /></flowRoot>    <flowRoot
       xml:space="preserve"
       id="flowRoot3005"
       style="fill:black;stroke:none;stroke-opacity:1;stroke-width:1px;stroke-linejoin:miter;stroke-linecap:butt;fill-opacity:1;font-family:Sans;font-style:normal;font-weight:normal;font-size:20px;line-height:50%;letter-spacing:0px;word-spacing:0px"><flowRegion
         id="flowRegion3007"><rect
           id="rect3009"
           width="114.65231"
           height="87.378197"
           x="77.276672"
           y="103.02536" /></flowRegion><flowPara
         id="flowPara3011" /></flowRoot>    <flowRoot
       xml:space="preserve"
       id="flowRoot3013"
       style="font-size:20px;font-style:normal;font-weight:normal;line-height:50%;letter-spacing:0px;word-spacing:0px;fill:#000000;fill-opacity:1;stroke:none;font-family:Sans"
       transform="translate(-73.236059,940.24545)"><flowRegion
         id="flowRegion3015"><rect
           id="rect3017"
           width="110.6117"
           height="102.53048"
           x="236.88077"
           y="87.87307" /></flowRegion><flowPara
         id="flowPara3019"
         style="font-size:56px;font-weight:bold;fill:#000080;stroke:#f2f2f2;-inkscape-font-specification:Sans Bold">2</flowPara></flowRoot>    <path
       style="fill:#000080;stroke:#000080"
       id="path3301"
       d="m 101.32191,22.835196 c -0.0858,1.820031 -0.0954,3.643413 -0.11692,5.465202 -0.0139,3.016799 -0.0446,6.033518 -0.0659,9.050285 0.0342,4.494951 -0.25632,8.981231 -0.40878,13.471666 -0.33033,5.531289 -0.10002,11.050224 0.24141,16.571846 0.31601,5.137031 0.46553,10.283235 0.54913,15.428795 0.0392,4.701672 0.0726,9.404089 0.0592,14.10601 -0.0355,4.32173 -0.003,8.64325 0.0649,12.96445 0.0487,2.32958 0.0979,4.65977 0.0955,6.98995 0.0162,1.86833 0.007,3.73678 0.003,5.60515 -0.0106,1.88424 -0.0491,3.76502 0.13967,5.64161 0,0 -6.499586,3.39105 -6.499586,3.39105 l 0,0 c -0.177012,-1.90353 -0.162635,-3.8055 -0.147989,-5.71671 -0.0038,-1.86951 -0.0129,-3.73908 0.0033,-5.60855 -0.0023,-2.36305 0.04815,-4.72609 0.09752,-7.08853 0.0695,-4.345 0.10746,-8.69034 0.07553,-13.03593 -0.01171,-4.704232 0.03097,-9.408484 -0.02551,-14.11265 -0.05432,-5.147243 -0.13886,-10.295003 -0.470705,-15.433472 -0.319058,-5.538186 -0.529032,-11.069138 -0.28521,-16.617309 0.105715,-4.446851 0.27876,-8.894532 0.199693,-13.342987 -0.02134,-2.994384 -0.05204,-5.988719 -0.0659,-8.983135 -0.02131,-1.782053 -0.02984,-3.565871 -0.116917,-5.346058 0,0 6.674223,-3.400683 6.674223,-3.400683 z"
       inkscape:connector-curvature="0"
       transform="translate(0,852.36218)" />
    <path
       style="fill:#000080;stroke:#000080"
       id="path3313"
       d="m 123.99819,128.53989 c -1.39199,1.75026 -2.84693,3.43062 -4.45482,4.991 -2.13358,1.90304 -4.34932,3.71574 -6.70029,5.34319 -1.77139,1.24802 -3.59932,2.41349 -5.36545,3.66872 -1.20607,0.82259 -2.34528,1.71961 -3.37396,2.75394 -1.12833,1.16821 -2.24206,2.35064 -3.42068,3.46888 -2.458164,2.24618 -6.764336,5.92025 -9.50651,5.53461 -0.193167,-0.13511 -0.402075,-0.25012 -0.5795,-0.40533 -0.832979,-0.72864 -1.430233,-1.76604 -2.061711,-2.65808 -0.735174,-1.03851 -1.170825,-1.66536 -1.912283,-2.72607 -2.765036,-4.17675 -5.940137,-8.05854 -9.166626,-11.88222 -1.611818,-1.82739 -3.032735,-3.79755 -4.497718,-5.73994 -0.523575,-0.74959 -0.267995,-0.41319 -0.755371,-1.01774 0,0 6.389706,-3.77832 6.389706,-3.77832 l 0,0 c 0.43085,0.65938 0.201574,0.30739 0.687395,1.05626 1.385864,1.9688 2.660249,4.01437 4.165352,5.89905 3.040092,3.99302 6.186034,7.90199 9.26747,11.86211 0.333794,0.44437 1.620148,2.16221 2.004203,2.65396 0.559527,0.71643 1.236915,1.80184 2.080169,2.25128 0.117884,0.0628 0.261683,0.0538 0.392524,0.0808 2.554995,-0.75289 0.29617,-0.11791 -5.568274,3.34623 -0.177711,0.10497 0.375237,-0.1737 0.55292,-0.27873 0.641087,-0.37892 1.185206,-0.8915 1.701588,-1.42195 1.226392,-1.03798 2.348772,-2.21656 3.385663,-3.44139 1.117794,-0.95071 -0.134513,0.16507 0.893738,-0.91674 0.733414,-0.77163 1.717794,-1.29772 2.544445,-1.95458 1.75537,-1.32169 3.64205,-2.45406 5.43665,-3.7211 0.0497,-0.0337 2.15556,-1.45959 2.19235,-1.48736 1.5819,-1.19407 3.07451,-2.51474 4.60756,-3.77036 1.53899,-1.44803 3.09616,-2.97431 4.12904,-4.83857 0,0 6.93242,-2.87151 6.93242,-2.87151 z"
       inkscape:connector-curvature="0"
       transform="translate(0,852.36218)" />
  </g>
</svg>
