<?xml version="1.0" encoding="UTF-8" standalone="no"?>
<!-- Created with Inkscape (http://www.inkscape.org/) -->

<svg
   xmlns:dc="http://purl.org/dc/elements/1.1/"
   xmlns:cc="http://creativecommons.org/ns#"
   xmlns:rdf="http://www.w3.org/1999/02/22-rdf-syntax-ns#"
   xmlns:svg="http://www.w3.org/2000/svg"
   xmlns="http://www.w3.org/2000/svg"
   xmlns:sodipodi="http://sodipodi.sourceforge.net/DTD/sodipodi-0.dtd"
   xmlns:inkscape="http://www.inkscape.org/namespaces/inkscape"
   width="200"
   height="200"
   id="svg2"
   version="1.1"
   inkscape:version="0.48.0 r9654"
   sodipodi:docname="d5.svg">
  <defs
     id="defs4" />
  <sodipodi:namedview
     id="base"
     pagecolor="#ffffff"
     bordercolor="#666666"
     borderopacity="1.0"
     inkscape:pageopacity="0.0"
     inkscape:pageshadow="2"
     inkscape:zoom="1.979899"
     inkscape:cx="165.45654"
     inkscape:cy="83.538595"
     inkscape:document-units="px"
     inkscape:current-layer="layer1"
     showgrid="false"
     inkscape:window-width="999"
     inkscape:window-height="738"
     inkscape:window-x="333"
     inkscape:window-y="227"
     inkscape:window-maximized="0" />
  <metadata
     id="metadata7">
    <rdf:RDF>
      <cc:Work
         rdf:about="">
        <dc:format>image/svg+xml</dc:format>
        <dc:type
           rdf:resource="http://purl.org/dc/dcmitype/StillImage" />
        <dc:title />
      </cc:Work>
    </rdf:RDF>
  </metadata>
  <g
     inkscape:label="Layer 1"
     inkscape:groupmode="layer"
     id="layer1"
     transform="translate(0,-852.36218)">
    <flowRoot
       xml:space="preserve"
       id="flowRoot2997"
       style="fill:black;stroke:none;stroke-opacity:1;stroke-width:1px;stroke-linejoin:miter;stroke-linecap:butt;fill-opacity:1;font-family:Sans;font-style:normal;font-weight:normal;font-size:20px;line-height:50%;letter-spacing:0px;word-spacing:0px"><flowRegion
         id="flowRegion2999"><rect
           id="rect3001"
           width="91.923882"
           height="90.408653"
           x="98.994949"
           y="95.954292" /></flowRegion><flowPara
         id="flowPara3003" /></flowRoot>    <flowRoot
       xml:space="preserve"
       id="flowRoot3005"
       style="fill:black;stroke:none;stroke-opacity:1;stroke-width:1px;stroke-linejoin:miter;stroke-linecap:butt;fill-opacity:1;font-family:Sans;font-style:normal;font-weight:normal;font-size:20px;line-height:50%;letter-spacing:0px;word-spacing:0px"><flowRegion
         id="flowRegion3007"><rect
           id="rect3009"
           width="114.65231"
           height="87.378197"
           x="77.276672"
           y="103.02536" /></flowRegion><flowPara
         id="flowPara3011" /></flowRoot>    <flowRoot
       xml:space="preserve"
       id="flowRoot3013"
       style="font-size:20px;font-style:normal;font-weight:normal;line-height:50%;letter-spacing:0px;word-spacing:0px;fill:#000000;fill-opacity:1;stroke:none;font-family:Sans"
       transform="translate(-73.236059,940.24545)"><flowRegion
         id="flowRegion3015"><rect
           id="rect3017"
           width="110.6117"
           height="102.53048"
           x="236.88077"
           y="87.87307" /></flowRegion><flowPara
         id="flowPara3019"
         style="font-size:56px;font-weight:bold;fill:#000080;stroke:#f2f2f2;-inkscape-font-specification:Sans Bold">2</flowPara></flowRoot>    <path
       style="fill:#000080;stroke:#000080"
       id="path3248"
       d="m 24.921705,165.09791 c -0.226972,-1.92979 -0.220786,-3.87519 -0.352909,-5.81148 -0.164694,-2.91994 -0.502621,-5.82457 -0.714519,-8.74113 -0.186961,-3.26509 -0.232921,-6.53613 -0.250853,-9.80584 0.05944,-2.9565 -0.172749,-5.90257 -0.330656,-8.85187 -0.09398,-2.56722 0.166339,-5.12606 0.52208,-7.66473 0.391325,-2.59391 0.682221,-5.20379 0.93978,-7.81428 0.23225,-2.84498 0.544073,-5.68055 0.698024,-8.53154 0.0287,-2.32698 0.222141,-4.64389 0.408388,-6.96207 0.164068,-2.169817 0.18817,-4.34592 0.218259,-6.52059 0.0108,-2.193613 0.01192,-4.387468 -0.01175,-6.581002 0.01811,-1.943153 0.02472,-3.882783 -0.137181,-5.819894 -0.196398,-2.024236 -0.32481,-4.053488 -0.271816,-6.087084 0.155584,-2.247226 0.285344,-4.494854 0.35342,-6.746553 0.04808,-2.003825 0.05128,-4.008178 0.04895,-6.012451 0.0031,-1.830792 0.0015,-3.661557 -0.0141,-5.492287 -0.01792,-1.48302 -0.0099,-2.966149 -0.02027,-4.449227 0.01231,-1.658861 0.02791,-3.317937 0.02147,-4.976875 0.07578,-1.719144 -0.126537,-3.425985 -0.29194,-5.133514 -0.22705,-1.72708 -0.04688,-3.453852 0.08938,-5.17827 0.109675,-1.516464 0.152447,-3.036071 0.165166,-4.55605 0.0047,-1.105908 -0.001,-2.211825 -0.004,-3.317731 -0.0026,-1.008831 -0.0032,-2.017666 -0.0036,-3.0265 -0.02699,-0.865055 0.05136,-1.736282 -0.03644,-2.598804 7.644097,-4.514465 5.608417,-5.45053 7.435784,-1.882669 0.637299,1.462547 1.384469,2.874429 2.156646,4.269658 1.207295,2.315693 2.406688,4.635141 3.770762,6.863141 1.43022,2.449283 3.011078,4.806468 4.663615,7.110228 1.589985,2.376843 3.331181,4.630243 5.212342,6.782146 2.300087,2.172285 4.601914,4.33292 6.834997,6.576045 1.935267,1.863392 3.790388,3.80411 5.682893,5.709881 1.98214,1.903297 3.93745,3.835057 5.947484,5.710068 2.193233,2.072948 4.381899,4.149254 6.624355,6.169095 1.802897,1.65951 3.666317,3.256543 5.360556,5.028848 1.4742,1.711665 3.123631,3.257488 4.619864,4.947137 1.434659,1.76726 3.03731,3.379752 4.595524,5.034986 1.757074,1.831178 3.332472,3.829882 4.902964,5.821146 1.644676,2.191359 3.467062,4.246935 5.291627,6.289511 1.64201,1.793541 3.20774,3.657771 4.67888,5.593831 1.17247,1.47931 2.3095,2.97677 3.39236,4.52253 0.88682,1.36476 1.9344,2.60828 2.87369,3.93592 1.19989,1.52844 2.22694,3.17455 3.26956,4.81107 1.36741,1.92339 2.57526,3.9483 3.81186,5.95556 1.25441,2.03785 2.64757,3.98661 3.99378,5.96492 1.24109,1.79581 2.57434,3.52316 3.89068,5.26326 1.20108,1.72109 2.43451,3.41876 3.83274,4.98528 1.06701,1.35765 2.22414,2.62717 3.38923,3.89908 0.88101,0.99783 1.59762,2.12773 2.31114,3.24778 0.82168,1.28038 1.89045,2.37005 2.87195,3.52417 1.31351,1.28269 2.35972,2.81925 3.71459,4.05689 0.90187,0.69563 1.81929,1.34237 2.58338,2.19705 0.66027,0.80987 1.08893,1.74058 2.01651,2.279 0.75423,0.1307 1.49569,-0.10826 2.25205,0.0172 3.4104,-0.58822 -7.1532,1.13358 -5.77211,3.73344 0.0383,0.0721 -0.0821,-0.14146 -0.11642,-0.21556 -0.0657,-0.14179 -0.12228,-0.28765 -0.18341,-0.43147 -0.65379,-1.19787 -1.1048,-2.47561 -1.50365,-3.77766 -0.66785,-1.88717 -0.89308,-3.86485 -1.02619,-5.84921 -0.10378,-2.39469 -0.13561,-4.79199 -0.13303,-7.18871 -0.049,-2.09154 0.42839,-4.11091 0.88918,-6.1323 0.24829,-1.51552 0.68041,-2.98397 1.10021,-4.45686 0.34705,-1.47739 0.51636,-2.99426 0.71683,-4.4982 0.18915,-2.25733 0.35169,-4.51537 0.54957,-6.77253 0.14422,-2.73414 0.56695,-5.43995 0.88758,-8.15583 0.24528,-2.89925 0.522,-5.79657 0.72477,-8.69941 0.11077,-2.96552 0.35367,-5.92288 0.52721,-8.884999 0.15276,-2.98833 0.1869,-5.980224 0.22079,-8.971633 0.01,-4.033557 0.315,-8.056685 0.73068,-12.066116 0.49149,-4.412791 0.68149,-8.849143 0.76869,-13.285751 -0.0583,-3.20669 -0.26899,-6.408232 -0.40024,-9.612681 -0.0909,-2.534605 -0.12191,-5.070273 -0.13687,-7.606215 0.0623,-2.146749 -0.13236,-4.282967 -0.31962,-6.418477 -0.15023,-1.699611 -0.14069,-3.404305 -0.35433,-5.09764 -0.18661,-1.204774 -0.31542,-2.415767 -0.38147,-3.632825 -0.0449,-1.018367 -0.0441,-2.037973 -0.0449,-3.057104 0.0187,-1.146231 0.0121,-2.292693 0.009,-3.439023 -4.3e-4,-0.179523 -8.6e-4,-0.359045 -0.001,-0.538568 0,0 6.61453,-3.369858 6.61453,-3.369858 l 0,0 c -6.1e-4,0.1801 -0.001,0.3602 -0.002,0.540299 -0.004,1.144037 -0.0138,2.288205 0.003,3.432178 -6.4e-4,1.010475 -0.004,2.021152 0.0227,3.031373 0.0418,1.209043 0.13175,2.415187 0.29432,3.614571 0.20007,1.713501 0.22556,3.430771 0.31856,5.152586 0.14392,2.162967 0.38403,4.321901 0.29109,6.493393 0.002,2.53948 0.003,5.07948 0.0657,7.61831 0.0835,3.241645 0.27664,6.480337 0.27634,9.723871 -0.15271,4.462106 -0.36939,8.92302 -0.81659,13.366839 -0.38561,3.963725 -0.6381,7.935125 -0.58928,11.920669 2e-4,2.997016 -0.005,5.996663 -0.17586,8.989741 -0.16259,2.962431 -0.43646,5.91763 -0.50901,8.88466 -0.19136,2.91376 -0.5132,5.81627 -0.71243,8.72943 -0.29329,2.70236 -0.72943,5.39195 -0.84986,8.11052 -0.16252,2.25196 -0.36007,4.4987 -0.45961,6.75458 -0.14258,1.5274 -0.3321,3.06026 -0.59397,4.56883 -0.40631,1.48577 -0.96638,2.92531 -1.18912,4.46002 -0.4523,1.98894 -1.0283,3.95145 -1.02001,6.01432 0.008,2.37968 -0.0236,4.7619 0.11992,7.13856 0.14456,1.91915 0.35026,3.84075 1.03282,5.6568 0.39414,1.26841 0.84264,2.50827 1.54722,3.64146 0.0731,0.14464 0.70981,1.18762 0.65461,1.22557 -5.44082,3.74037 -4.21454,3.96261 -7.14824,3.69691 -0.84462,0.0218 -1.69987,0.15081 -2.44589,-0.3478 -0.88735,-0.6666 -1.41948,-1.57973 -2.09886,-2.43785 -0.76312,-0.81944 -1.7021,-1.42612 -2.51924,-2.18645 -1.27868,-1.33334 -2.33434,-2.87039 -3.68243,-4.14425 -1.03847,-1.15955 -2.17403,-2.24833 -3.01442,-3.5691 -0.68732,-1.08448 -1.36599,-2.18564 -2.20422,-3.16182 -1.16262,-1.27606 -2.27003,-2.59226 -3.34101,-3.94533 -1.38267,-1.60187 -2.6302,-3.30938 -3.85285,-5.03575 -1.31897,-1.75047 -2.64827,-3.49297 -3.85263,-5.32623 -1.35857,-1.98718 -2.79115,-3.92477 -4.05068,-5.97749 -1.20033,-2.02155 -2.41345,-4.03543 -3.80166,-5.93631 -1.05783,-1.61215 -2.1266,-3.21803 -3.31794,-4.73604 -0.97595,-1.30507 -1.97796,-2.58892 -2.86435,-3.95851 -1.06907,-1.54031 -2.214191,-3.02113 -3.325678,-4.53077 -1.443745,-1.93269 -2.984634,-3.78874 -4.606714,-5.57473 -1.792528,-2.08467 -3.638672,-4.130114 -5.300636,-6.321363 -1.589473,-1.954346 -3.132413,-3.956922 -4.9131,-5.744209 -1.57763,-1.649115 -3.165432,-3.28645 -4.618568,-5.048844 -1.495743,-1.67772 -3.128536,-3.22782 -4.606469,-4.923376 -1.682659,-1.752448 -3.486984,-3.383025 -5.273284,-5.028392 -2.200842,-2.062089 -4.378612,-4.148648 -6.600995,-6.187936 -2.028898,-1.874635 -4.024412,-3.784852 -6.013032,-5.701736 -1.898338,-1.891233 -3.691246,-3.883181 -5.615231,-5.749743 -2.258678,-2.238656 -4.527331,-4.457393 -6.862142,-6.616516 -1.896477,-2.169884 -3.707974,-4.405052 -5.294904,-6.815224 -1.649755,-2.32524 -3.201757,-4.718316 -4.66436,-7.165764 -1.380531,-2.224926 -2.608719,-4.53505 -3.889837,-6.817584 -0.827027,-1.370921 -1.595998,-2.779216 -2.268061,-4.233089 -1.964922,-3.51947 -1.085773,-1.487288 5.708193,-5.2708 0.01811,-0.01008 -0.01427,0.03892 -0.0214,0.05837 -0.08071,0.875565 -0.01452,1.757578 -0.0358,2.635327 3.79e-4,1.009233 0.0012,2.018466 6.96e-4,3.027699 -0.0015,1.115933 -0.0042,2.231942 -0.02772,3.347675 -0.036,1.542283 -0.08115,3.084952 -0.204288,4.623198 -0.115141,1.687111 -0.346181,3.375481 -0.130815,5.064879 0.144529,1.730013 0.396882,3.454152 0.316506,5.195092 -0.0064,1.651608 0.009,3.303358 0.02156,4.954886 -0.01013,1.489477 -0.0018,2.978991 -0.01811,4.468422 -0.01358,1.835629 -0.01177,3.671269 -0.01108,5.506941 -0.0092,2.017194 -0.01503,4.034633 -0.0771,6.051032 -0.07352,2.250884 -0.192851,4.499674 -0.349799,6.74633 -0.08226,2.000178 0.08422,3.99929 0.265079,5.991141 0.181594,1.95936 0.175439,3.914766 0.155592,5.882064 -0.02052,2.202261 -0.01357,4.404701 -0.02566,6.607021 -0.0041,2.184391 -0.02155,4.371012 -0.16749,6.551294 -0.172728,2.331256 -0.483212,4.651672 -0.504507,6.993212 -0.166129,2.86024 -0.45256,5.70676 -0.696249,8.56026 -0.228956,2.61043 -0.490947,5.22141 -0.850711,7.81672 -0.409241,2.49882 -0.693498,5.03107 -0.653134,7.56652 0.153931,2.9682 0.37686,5.93516 0.28997,8.90975 0.02502,3.25157 0.03515,6.50594 0.253277,9.75185 0.210301,2.90471 0.56246,5.79487 0.789983,8.69813 0.161294,1.87073 0.161919,3.76657 0.543596,5.61098 0,0 -6.604301,3.53096 -6.604301,3.53096 z"
       inkscape:connector-curvature="0"
       transform="translate(0,852.36218)" />
    <path
       style="fill:#000080;stroke:#000080"
       id="path3252"
       d="m 123.98361,38.669484 c 0.49819,-1.05563 1.076,-2.069794 1.63231,-3.095456 0.59578,-1.033473 1.18634,-2.062891 1.70497,-3.13801 0.57018,-1.076263 0.90183,-2.250685 1.32146,-3.388582 0.33934,-0.967919 0.72985,-1.914305 1.1129,-2.865334 0.50636,-1.062891 1.11859,-2.069315 1.67124,-3.108175 0.79185,-1.343752 1.30028,-2.823927 1.99906,-4.213023 0.59482,-1.149 1.38157,-2.179386 2.08625,-3.260207 0.53206,-0.893235 1.09299,-1.766956 1.72474,-2.59298 0.58387,-0.833385 1.17987,-1.664397 1.73139,-2.520525 0.37503,-0.7322055 1.01455,-1.2427367 1.36024,-1.9894488 1.13694,-3.1467165 4.89392,-3.6796868 7.71867,-5.177928 0.84608,0.3102489 1.56184,0.8683592 2.22918,1.4657629 0.96566,0.7897704 2.00569,1.4701613 3.05302,2.1433907 1.13298,0.5454526 2.20978,1.185456 3.23256,1.9204515 1.13399,0.780333 2.15541,1.7087457 3.26574,2.5284067 1.297,1.019724 2.5746,2.070183 3.91928,3.027072 1.10627,0.831236 2.2901,1.536472 3.30641,2.479825 0.7999,1.022708 1.52758,2.099292 2.32416,3.129804 0.96694,1.07294 1.93004,2.148804 3.00267,3.117949 0.77771,0.786314 1.56595,1.553303 2.30804,2.374264 0.61156,0.769336 1.39867,1.355103 2.09729,2.036505 0,0 -6.31453,3.883346 -6.31453,3.883346 l 0,0 c -0.71342,-0.686068 -1.48874,-1.307364 -2.12963,-2.067737 -0.73907,-0.792904 -1.50141,-1.561218 -2.24709,-2.347659 -1.05961,-1.034684 -2.06883,-2.113823 -3.05378,-3.219662 -0.78032,-0.991302 -1.495,-2.029642 -2.28575,-3.008999 -1.00146,-0.90455 -2.14911,-1.615456 -3.21271,-2.443803 -1.32135,-0.997933 -2.62588,-2.017727 -3.94123,-3.023347 -1.09078,-0.834206 -2.14738,-1.7135 -3.27813,-2.491075 -1.03036,-0.701774 -2.11886,-1.295778 -3.20531,-1.903145 -1.0764,-0.691681 -2.14812,-1.3960714 -3.14239,-2.2036153 -0.55312,-0.4444205 -1.21753,-1.0199643 -1.97152,-0.9531306 2.08499,-1.1881896 4.18386,-2.3523391 6.25497,-3.5645687 0.0827,-0.0484 -0.19398,0.0239 -0.27951,0.067094 -0.39404,0.1990125 -0.67283,0.7156523 -0.8933,1.0689338 -0.26085,1.0073636 -0.64698,1.3803546 -1.32472,2.1199731 -0.47006,0.9427527 -1.20413,1.7073372 -1.70286,2.6359455 -0.65729,0.791 -1.25201,1.637063 -1.75476,2.532101 -0.71771,1.084097 -1.49289,2.128344 -2.17358,3.233886 -0.79242,1.328871 -1.20727,2.83942 -1.96056,4.191222 -0.55261,1.008151 -1.06393,2.038494 -1.65054,3.027514 -0.43268,0.934145 -0.80124,1.895197 -1.15732,2.860346 -0.47648,1.125162 -0.74003,2.329663 -1.29302,3.419512 -0.48383,1.106772 -1.05507,2.162805 -1.70426,3.180965 -0.51529,1.012881 -1.16615,1.967761 -1.54717,3.040729 0,0 -6.83288,3.091412 -6.83288,3.091412 z"
       inkscape:connector-curvature="0"
       transform="translate(0,852.36218)" />
  </g>
</svg>
