<?xml version="1.0" encoding="UTF-8" standalone="no"?>
<!-- Created with Inkscape (http://www.inkscape.org/) -->

<svg
   xmlns:dc="http://purl.org/dc/elements/1.1/"
   xmlns:cc="http://creativecommons.org/ns#"
   xmlns:rdf="http://www.w3.org/1999/02/22-rdf-syntax-ns#"
   xmlns:svg="http://www.w3.org/2000/svg"
   xmlns="http://www.w3.org/2000/svg"
   xmlns:sodipodi="http://sodipodi.sourceforge.net/DTD/sodipodi-0.dtd"
   xmlns:inkscape="http://www.inkscape.org/namespaces/inkscape"
   width="200"
   height="200"
   id="svg2"
   version="1.1"
   inkscape:version="0.48.0 r9654"
   sodipodi:docname="t1.svg">
  <defs
     id="defs4" />
  <sodipodi:namedview
     id="base"
     pagecolor="#ffffff"
     bordercolor="#666666"
     borderopacity="1.0"
     inkscape:pageopacity="0.0"
     inkscape:pageshadow="2"
     inkscape:zoom="1.979899"
     inkscape:cx="181.62433"
     inkscape:cy="69.719001"
     inkscape:document-units="px"
     inkscape:current-layer="layer1"
     showgrid="false"
     inkscape:window-width="999"
     inkscape:window-height="738"
     inkscape:window-x="911"
     inkscape:window-y="194"
     inkscape:window-maximized="0" />
  <metadata
     id="metadata7">
    <rdf:RDF>
      <cc:Work
         rdf:about="">
        <dc:format>image/svg+xml</dc:format>
        <dc:type
           rdf:resource="http://purl.org/dc/dcmitype/StillImage" />
        <dc:title />
      </cc:Work>
    </rdf:RDF>
  </metadata>
  <g
     inkscape:label="Layer 1"
     inkscape:groupmode="layer"
     id="layer1"
     transform="translate(0,-852.36218)">
    <flowRoot
       xml:space="preserve"
       id="flowRoot3021"
       style="font-size:20px;font-style:normal;font-weight:normal;line-height:50%;letter-spacing:0px;word-spacing:0px;fill:#ffffff;fill-opacity:1;stroke:#ffffff;font-family:Sans"
       transform="translate(-55.558389,892.2632)"><flowRegion
         id="flowRegion3023"><rect
           id="rect3025"
           width="66.670067"
           height="49.497475"
           x="218.69803"
           y="135.35023"
           style="fill:#ffffff;stroke:#ffffff" /></flowRegion><flowPara
         id="flowPara3027"
         style="font-size:56px;font-weight:bold;fill:#ffffff;stroke:#ffffff;-inkscape-font-specification:Sans Bold">3</flowPara></flowRoot>    <path
       style="fill:#ffffff;stroke:#ffffff"
       id="path3205"
       d="m 98.66284,874.10111 c -0.285277,1.95892 -0.502078,3.92227 -0.658139,5.89617 -0.175048,2.70985 -0.175845,5.42692 -0.189468,8.14127 -0.01317,2.95111 -0.02158,5.89747 0.14348,8.84452 0.115314,2.92014 0.423285,5.8264 0.638277,8.73967 0.13617,3.31427 0.345741,6.62128 0.68185,9.92144 0.323963,3.02933 0.696131,6.0485 0.90154,9.08919 0.16355,3.35527 0.66609,6.68071 0.92531,10.02999 0.39144,3.93395 0.63006,7.88011 0.90464,11.82335 0.3381,4.90494 0.41748,9.82139 0.44658,14.73615 0.0137,3.63852 0.0419,7.27781 -0.22593,10.90806 -0.13643,2.19755 -0.35598,4.38444 -0.59906,6.57203 -0.14646,1.31819 -0.20918,2.64314 -0.2761,3.96707 0,0 6.49943,3.34454 6.49943,3.34454 l 0,0 c 0.0391,-1.31318 0.0984,-2.62607 0.23395,-3.93347 0.23215,-2.21307 0.46376,-4.42182 0.52486,-6.64862 0.17986,-3.69321 0.0236,-7.38564 -0.002,-11.0816 -0.0777,-4.91937 -0.15104,-9.84043 -0.40399,-14.75458 -0.21676,-3.92216 -0.37311,-7.8497 -0.75756,-11.76015 -0.24852,-3.34169 -0.74065,-6.65893 -0.90002,-10.00486 -0.1611,-3.05495 -0.51989,-6.08476 -0.88903,-9.11989 -0.36756,-3.28628 -0.63056,-6.57695 -0.67544,-9.88593 -0.16977,-2.9139 -0.51151,-5.81306 -0.63348,-8.73004 -0.16971,-2.92981 -0.1912,-5.85974 -0.14262,-8.79434 0.0136,-2.69188 0.0298,-5.38569 0.2072,-8.0729 0.1488,-1.91906 0.36053,-3.8294 0.84957,-5.69611 0,0 -6.6043,-3.53096 -6.6043,-3.53096 z"
       inkscape:connector-curvature="0" />
    <path
       style="fill:#ffffff;stroke:#ffffff"
       id="path3207"
       d="m 77.575863,971.83158 c 1.374089,2.18687 2.658068,4.42966 3.972547,6.65285 3.19484,5.47674 6.687562,10.76135 10.195092,16.03965 2.464262,4.0293 5.062192,8.00532 7.082008,12.28402 1.20576,3.1775 3.41914,8.1166 8.32676,6.1704 2.04046,-0.9398 3.86685,-2.2964 5.60991,-3.698 2.61768,-2.1294 5.04852,-4.4795 7.36511,-6.9302 1.77417,-2.1141 3.4437,-4.30918 4.83205,-6.69652 1.15811,-1.98681 2.0501,-4.1196 2.9716,-6.22402 1.08023,-1.97151 2.29223,-3.87 3.45814,-5.79279 0.81879,-1.60009 1.79171,-3.11949 2.6014,-4.72288 0.33807,-0.98084 1.05333,-1.77538 1.43823,-2.72147 0,0 -6.55421,-3.5919 -6.55421,-3.5919 l 0,0 c -0.069,0.45143 -0.38241,0.74645 -0.60304,1.13947 -0.21561,0.38407 -0.27743,0.59765 -0.46012,0.99338 -0.0824,0.17857 -0.17215,0.35369 -0.25822,0.53054 -0.72662,1.61735 -1.60884,3.16479 -2.42977,4.73508 -1.19281,1.9433 -2.43669,3.8599 -3.51042,5.87227 -0.92881,2.07479 -1.77937,4.19874 -2.93219,6.1617 -1.31802,2.35744 -2.89939,4.54895 -4.63052,6.62135 -2.26702,2.45489 -4.6999,4.76149 -7.34051,6.81349 -1.71483,1.2933 -3.53896,2.675 -5.64789,3.2252 -2.670644,-0.5484 -0.6158,-0.1687 5.70514,3.5757 0.10606,0.063 -0.21289,-0.1326 -0.29158,-0.2275 -0.5356,-0.6459 -0.70623,-1.549 -1.10211,-2.2662 -2.23905,-4.3737 -5.07957,-8.4076 -7.606833,-12.61408 -3.422748,-5.17371 -6.868544,-10.33299 -9.791212,-15.81443 -1.205689,-2.15245 -2.413338,-4.30385 -3.564187,-6.48566 0,0 -6.835175,-3.02945 -6.835175,-3.02945 z"
       inkscape:connector-curvature="0" />
  </g>
</svg>
