<?xml version="1.0" encoding="UTF-8" standalone="no"?>
<!-- Created with Inkscape (http://www.inkscape.org/) -->

<svg
   xmlns:dc="http://purl.org/dc/elements/1.1/"
   xmlns:cc="http://creativecommons.org/ns#"
   xmlns:rdf="http://www.w3.org/1999/02/22-rdf-syntax-ns#"
   xmlns:svg="http://www.w3.org/2000/svg"
   xmlns="http://www.w3.org/2000/svg"
   xmlns:sodipodi="http://sodipodi.sourceforge.net/DTD/sodipodi-0.dtd"
   xmlns:inkscape="http://www.inkscape.org/namespaces/inkscape"
   width="200"
   height="200"
   id="svg2"
   version="1.1"
   inkscape:version="0.48.0 r9654"
   sodipodi:docname="t3.svg">
  <defs
     id="defs4" />
  <sodipodi:namedview
     id="base"
     pagecolor="#ffffff"
     bordercolor="#666666"
     borderopacity="1.0"
     inkscape:pageopacity="0.0"
     inkscape:pageshadow="2"
     inkscape:zoom="1.979899"
     inkscape:cx="165.45654"
     inkscape:cy="69.719001"
     inkscape:document-units="px"
     inkscape:current-layer="layer1"
     showgrid="false"
     inkscape:window-width="999"
     inkscape:window-height="738"
     inkscape:window-x="911"
     inkscape:window-y="194"
     inkscape:window-maximized="0" />
  <metadata
     id="metadata7">
    <rdf:RDF>
      <cc:Work
         rdf:about="">
        <dc:format>image/svg+xml</dc:format>
        <dc:type
           rdf:resource="http://purl.org/dc/dcmitype/StillImage" />
        <dc:title />
      </cc:Work>
    </rdf:RDF>
  </metadata>
  <g
     inkscape:label="Layer 1"
     inkscape:groupmode="layer"
     id="layer1"
     transform="translate(0,-852.36218)">
    <flowRoot
       xml:space="preserve"
       id="flowRoot3021"
       style="font-size:20px;font-style:normal;font-weight:normal;line-height:50%;letter-spacing:0px;word-spacing:0px;fill:#000000;fill-opacity:1;stroke:none;font-family:Sans"
       transform="translate(-55.558389,892.2632)"><flowRegion
         id="flowRegion3023"><rect
           id="rect3025"
           width="66.670067"
           height="49.497475"
           x="218.69803"
           y="135.35023" /></flowRegion><flowPara
         id="flowPara3027"
         style="font-size:56px;font-weight:bold;fill:#000080;stroke:#ececec;-inkscape-font-specification:Sans Bold">3</flowPara></flowRoot>    <path
       style="fill:#000080;stroke:#000080"
       id="path3173"
       d="m 23.588661,90.727409 c 2.176558,0.07324 4.354985,0.07899 6.53255,0.09837 7.720175,0.271642 15.445186,0.272329 23.169016,0.251406 8.039514,-0.357081 16.087939,-0.578861 24.123711,-1.010886 8.196113,-0.520583 16.403869,-0.784918 24.613682,-0.95436 6.39241,-0.01166 12.79301,-0.384968 19.18177,-0.09213 4.99965,0.353476 9.95496,1.089369 14.93072,1.659681 3.51857,0.381417 7.05433,0.555594 10.59155,0.616654 2.53139,-0.0465 5.05103,0.201231 7.57566,0.344463 2.18956,0.115155 4.38209,0.13832 6.57417,0.134341 1.22712,-0.0062 2.45421,-0.01674 3.68134,-0.02189 0.56467,-0.140791 0.2855,-0.07034 0.83753,-0.211253 0,0 -5.94355,4.4997 -5.94355,4.4997 l 0,0 c -0.5874,0.08614 -0.28638,0.0586 -0.9034,0.07864 -1.20455,-0.0025 -2.40915,-0.0097 -3.61341,-0.03845 -2.16459,-0.05246 -4.32932,-0.11569 -6.49138,-0.235364 -2.51719,-0.144792 -5.03174,-0.341832 -7.55514,-0.333776 -3.46703,-0.137765 -6.9223,-0.429051 -10.36646,-0.854669 -4.94831,-0.599095 -9.88744,-1.284503 -14.86126,-1.648648 -6.27754,-0.281482 -12.56869,-0.107505 -18.850378,-0.09524 -8.20595,0.142178 -16.409316,0.409065 -24.598626,0.971536 -7.996059,0.438676 -16.005343,0.663756 -24.009901,0.884941 -7.954556,-0.02171 -15.909863,-0.01022 -23.861078,0.251406 -2.267845,0.0197 -4.536409,0.02707 -6.803346,0.09837 0,0 6.04623,-4.392844 6.04623,-4.392844 z"
       inkscape:connector-curvature="0"
       transform="translate(0,852.36218)" />
    <path
       style="fill:#000080;stroke:#000080"
       id="path3175"
       d="m 150.8932,73.28424 c 2.22425,1.150678 4.45925,2.281273 6.67184,3.455704 4.22383,2.090612 8.61635,3.804223 12.93708,5.67753 2.92589,1.163147 5.67493,2.695031 8.52607,4.018557 1.81099,0.98441 3.71096,1.787251 5.54461,2.726421 1.1356,0.616423 2.49594,0.822416 3.50824,1.648644 0.22696,0.409998 0.31309,0.949392 -0.17321,1.23064 -3.36157,1.944128 -4.97107,3.155005 -7.8879,4.212308 -0.21516,0.126447 -0.42206,0.268122 -0.64547,0.379341 -0.26351,0.131178 -0.54905,0.214671 -0.8123,0.346365 -0.28192,0.141033 -1.09392,0.627075 -0.82038,0.470405 9.47273,-5.425602 5.38484,-3.16281 2.94496,-1.400452 -3.06586,2.175608 -6.27447,4.135377 -9.46503,6.119547 -4.23087,2.48594 -8.4636,5.05144 -13.04785,6.84581 -0.926,0.32009 -1.87203,0.59899 -2.74519,1.04569 0,0 5.80742,-4.60055 5.80742,-4.60055 l 0,0 c 0.88823,-0.33312 1.78813,-0.63298 2.67877,-0.95963 2.52713,-1.03348 10.81234,-5.335262 0.70215,0.2268 3.18104,-1.95483 6.37563,-3.89093 9.4304,-6.041491 3.64249,-2.775235 7.62633,-5.078674 11.78643,-6.990666 0.21154,-0.08559 0.42302,-0.171336 0.63462,-0.25677 2.68588,-1.084423 -0.25271,0.117254 -5.52966,3.294181 -0.10264,0.06179 0.23036,-0.07782 0.35012,-0.08123 0.15333,-0.0044 0.31688,0.07055 0.45787,0.126214 -0.93419,-0.779232 -2.30312,-0.904676 -3.30518,-1.589408 -1.81163,-0.92707 -3.63643,-1.828262 -5.43952,-2.771903 -2.77742,-1.366754 -5.45552,-2.929633 -8.30988,-4.140793 -4.28567,-1.985704 -8.69558,-3.688602 -12.9748,-5.69022 -2.31762,-1.10513 -4.64796,-2.206386 -7.04191,-3.135533 0,0 6.2177,-4.165507 6.2177,-4.165507 z"
       inkscape:connector-curvature="0"
       transform="translate(0,852.36218)" />
  </g>
</svg>
