<?xml version="1.0" encoding="UTF-8" standalone="no"?>
<!-- Created with Inkscape (http://www.inkscape.org/) -->

<svg
   xmlns:dc="http://purl.org/dc/elements/1.1/"
   xmlns:cc="http://creativecommons.org/ns#"
   xmlns:rdf="http://www.w3.org/1999/02/22-rdf-syntax-ns#"
   xmlns:svg="http://www.w3.org/2000/svg"
   xmlns="http://www.w3.org/2000/svg"
   xmlns:sodipodi="http://sodipodi.sourceforge.net/DTD/sodipodi-0.dtd"
   xmlns:inkscape="http://www.inkscape.org/namespaces/inkscape"
   width="200"
   height="200"
   id="svg2"
   version="1.1"
   inkscape:version="0.48.0 r9654"
   sodipodi:docname="t4.svg">
  <defs
     id="defs4" />
  <sodipodi:namedview
     id="base"
     pagecolor="#ffffff"
     bordercolor="#666666"
     borderopacity="1.0"
     inkscape:pageopacity="0.0"
     inkscape:pageshadow="2"
     inkscape:zoom="1.979899"
     inkscape:cx="165.45654"
     inkscape:cy="69.719001"
     inkscape:document-units="px"
     inkscape:current-layer="layer1"
     showgrid="false"
     inkscape:window-width="999"
     inkscape:window-height="738"
     inkscape:window-x="84"
     inkscape:window-y="155"
     inkscape:window-maximized="0" />
  <metadata
     id="metadata7">
    <rdf:RDF>
      <cc:Work
         rdf:about="">
        <dc:format>image/svg+xml</dc:format>
        <dc:type
           rdf:resource="http://purl.org/dc/dcmitype/StillImage" />
        <dc:title />
      </cc:Work>
    </rdf:RDF>
  </metadata>
  <g
     inkscape:label="Layer 1"
     inkscape:groupmode="layer"
     id="layer1"
     transform="translate(0,-852.36218)">
    <flowRoot
       xml:space="preserve"
       id="flowRoot3021"
       style="font-size:20px;font-style:normal;font-weight:normal;line-height:50%;letter-spacing:0px;word-spacing:0px;fill:#000000;fill-opacity:1;stroke:none;font-family:Sans"
       transform="translate(-55.558389,892.2632)"><flowRegion
         id="flowRegion3023"><rect
           id="rect3025"
           width="66.670067"
           height="49.497475"
           x="218.69803"
           y="135.35023" /></flowRegion><flowPara
         id="flowPara3027"
         style="font-size:56px;font-weight:bold;fill:#000080;stroke:#ececec;-inkscape-font-specification:Sans Bold">3</flowPara></flowRoot>    <path
       style="fill:#000080;stroke:#000080"
       id="path3358"
       d="m 22.516953,874.47257 c 1.271231,0.52557 2.654209,0.62731 4.010889,0.72603 1.804355,0.0141 3.592264,0.19785 5.387208,0.36044 2.011962,0.17804 4.03264,0.21116 6.050991,0.24497 2.324762,0.0313 4.649701,0.0162 6.974567,0.0201 2.220986,-0.16095 4.439147,-0.34347 6.664214,-0.43982 2.117003,-0.0822 4.235839,-0.0737 6.353993,-0.0781 2.604838,0.0454 5.203249,-0.16608 7.804366,-0.27877 3.185324,-0.027 6.359564,-0.2284 9.537114,-0.42783 2.79022,-0.18815 5.587,-0.23435 8.38243,-0.27158 2.58546,0.0135 5.16333,0.005 7.74217,-0.18354 2.43392,-0.19037 4.87335,-0.26788 7.31345,-0.3178 2.349505,0.0471 4.685425,-0.10494 7.026235,-0.27937 2.39031,-0.16463 4.7857,-0.21475 7.18088,-0.23558 2.68072,0.067 5.35195,-0.17333 8.02561,-0.32701 2.19219,-0.12782 4.38718,-0.17808 6.58239,-0.21266 1.79192,-0.0172 3.57336,-0.29373 5.34428,-0.55173 2.01108,-0.29367 4.04287,-0.3683 6.07124,-0.43392 1.811,-0.0435 3.62251,-0.0303 5.43383,-0.0394 1.54457,-0.0115 3.08918,-0.004 4.63376,0.004 1.96314,0.007 3.92623,0.0195 5.88939,0.0214 1.61811,-0.006 3.23611,-0.0268 4.85418,-0.0389 1.06014,-0.008 2.12031,-0.009 3.18047,-0.009 1.05636,-0.0625 2.06843,0.0299 3.06927,0.3762 0.95711,0.24076 1.87067,0.5988 2.81454,0.87922 0.88427,0.22047 1.79995,0.23874 2.70603,0.25903 0.66147,0.15708 1.93773,0.16671 2.0177,1.10222 0.0134,0.1572 -0.0816,0.30481 -0.12248,0.45721 -1.41127,1.27595 -3.06291,2.28202 -4.57714,3.4433 -1.9069,1.47296 -3.62992,3.15867 -5.40618,4.78095 -2.25247,1.74531 -4.48784,3.52061 -6.76029,5.24286 -2.46845,1.8316 -4.85035,3.76561 -7.41294,5.46652 -2.28824,1.36276 -4.45754,2.9083 -6.65453,4.4103 -2.73375,2.06101 -5.44287,4.15642 -8.14874,6.25437 -3.86302,3.09799 -7.75517,6.15907 -11.70699,9.14393 -3.05773,2.48699 -6.25154,4.77033 -9.53353,6.94732 -4.14417,2.8153 -8.39369,5.47056 -12.60457,8.18422 -3.915245,2.3682 -7.719485,4.91263 -11.439655,7.57561 -2.95317,2.19314 -5.88544,4.40933 -8.76345,6.70078 -2.42263,1.96377 -5.00468,3.71513 -7.51718,5.55932 -2.73746,2.17358 -5.615331,4.15861 -8.376431,6.30059 -2.149886,1.5916 -4.15043,3.36419 -6.173378,5.10955 -1.416404,1.25629 -2.613619,2.72599 -3.829628,4.17006 -1.153909,1.53991 -2.420822,2.98856 -3.703006,4.42155 -1.409437,1.7574 -2.93319,3.41653 -4.411479,5.11517 -1.67191,1.87532 -3.373071,3.72079 -5.234331,5.40992 -1.445789,1.32719 -3.046654,2.46545 -4.579335,3.68682 -1.46468,1.00749 -2.905569,2.04555 -4.20588,3.26096 -1.172491,1.12371 -2.32812,2.26615 -3.520598,3.3687 -0.933137,0.7628 -1.872427,1.48137 -2.687993,2.37141 -0.7294,0.79312 -1.413144,1.62093 -2.186567,2.37308 -0.990988,0.78865 -1.721351,1.78217 -2.481189,2.77915 -0.658966,0.92268 -1.055614,1.98267 -1.52421,3.00429 -0.112953,0.40849 -0.470642,0.71219 -0.595668,1.11299 -0.01539,0.049 0.101451,-0.021 0.152864,-0.026 1.140207,0.091 2.285027,0.095 3.428119,0.1053 2.797145,-0 5.584885,0.2538 8.378222,0.3809 3.153919,0.062 6.312241,0.2861 9.467918,0.2425 2.12457,-0.029 3.384665,-0.176 5.492861,-0.358 5.837984,-0.433 11.665536,-0.9488 17.495117,-1.48367 4.389782,-0.38371 8.791942,-0.61892 13.196542,-0.73729 2.51494,0.0346 5.01329,-0.13833 7.51833,-0.32006 2.73211,-0.0391 5.43354,-0.25893 8.14061,-0.61293 2.35847,-0.32934 4.73237,-0.51443 7.11004,-0.62429 1.501945,-0.0454 3.004565,-0.0707 4.507195,-0.065 1.47805,0.0113 2.95615,0.0112 4.43423,0.0189 1.8874,0.0189 3.77481,0.02 5.66227,0.009 1.56368,-0.007 3.12737,-0.0102 4.69105,-0.0184 1.49042,-0.0663 2.96032,0.20371 4.44004,0.34156 1.48457,0.126 2.97482,0.14788 4.46371,0.16891 1.51297,0.01 3.02597,0.005 4.53895,-2.3e-4 1.2779,-0.0125 2.5558,-0.007 3.83372,-0.0105 1.12834,-0.002 2.25668,-0.0119 3.38501,-0.004 1.45436,0.01 2.90868,0.0163 4.36308,0.0201 1.46362,-0.005 2.92722,-0.007 4.39083,-0.0144 1.36231,0.006 2.72465,-4.7e-4 4.08696,0.004 1.39902,-0.0826 2.77334,0.1726 4.1564,0.33414 1.02058,0.0466 2.08717,0.28431 3.09392,0.0496 0.0951,-0.0437 0.19024,-0.0875 0.28536,-0.13123 0,0 -5.9451,4.55279 -5.9451,4.55279 l 0,0 c -0.10562,0.01 -0.21124,0.016 -0.31686,0.024 -1.05781,0 -2.1141,-0.078 -3.16253,-0.2179 -1.3551,-0.1837 -2.70829,-0.3606 -4.08064,-0.2743 -1.36611,0 -2.73225,-0 -4.09836,0 -1.45037,-0.01 -2.90073,-0.01 -4.35111,-0.014 -1.47282,0 -2.94558,0.011 -4.41837,0.02 -1.12524,0.01 -2.2505,-10e-4 -3.37575,-0 -1.27032,-0 -2.54062,0 -3.81092,-0.01 -1.50976,-0 -3.01957,-0 -4.52926,-0.019 -1.50143,-0.017 -3.00339,-0.061 -4.49768,-0.2194 -1.47155,-0.1444 -2.9406,-0.3395 -4.42353,-0.2668 -1.54685,-0.01 -3.0937,-0.012 -4.64055,-0.018 -1.89531,-0.011 -3.79056,-0.01 -5.68583,0.01 -1.48973,0 -2.979465,6e-4 -4.469185,0.01 -1.47414,0 -2.94885,-0.016 -4.4223,0.042 -2.32795,0.089 -4.65074,0.2741 -6.95969,0.59 -2.73773,0.3455 -5.4811,0.4935 -8.23566,0.6352 -2.47234,0.1868 -4.94245,0.2374 -7.42211,0.2019 -4.301873,0.061 -8.60355,0.1943 -12.891191,0.5714 -5.843825,0.5023 -11.684547,1.0269 -17.530561,1.5026 -5.065672,0.3745 -10.143196,0.3455 -15.219166,0.2004 -2.857711,-0.1034 -5.71561,-0.2835 -8.576136,-0.2049 -1.248704,10e-4 -2.608804,0.1581 -3.786646,-0.3205 -0.862675,-0.7267 -0.687443,-1.2754 -0.0352,-2.0866 0.4813,-1.06 0.933686,-2.1296 1.507698,-3.14641 1.391955,-2.15022 -0.659799,0.95431 0.758767,-0.99072 0.538948,-0.73896 0.83978,-1.37291 1.670007,-1.89722 0.72777,-0.78002 1.536819,-1.48266 2.1556,-2.36529 0.398287,-0.37029 0.700241,-0.81358 1.093828,-1.18547 0.483129,-0.45649 0.517922,-0.3769 1.065032,-0.78497 0.202134,-0.15076 0.390186,-0.31954 0.585279,-0.47931 1.24337,-1.03502 2.33618,-2.23527 3.531005,-3.32531 1.246202,-1.30133 2.702219,-2.40487 4.229167,-3.35645 1.545928,-1.22484 3.134125,-2.39326 4.639727,-3.66852 1.899201,-1.6486 3.62639,-3.45401 5.302184,-5.32898 1.42978,-1.71462 2.98509,-3.31956 4.337105,-5.09794 1.256234,-1.4396 2.587451,-2.82441 3.691602,-4.38843 1.20562,-1.50208 2.464476,-2.96375 3.836299,-4.31525 2.091769,-1.7362 4.086034,-3.59295 6.293255,-5.18811 2.754526,-2.16592 5.669345,-4.11242 8.387292,-6.32607 2.492303,-1.84671 5.050303,-3.60294 7.489483,-5.51998 2.92097,-2.32501 5.91755,-4.54527 8.89835,-6.79047 3.7487,-2.72614 7.61323,-5.29564 11.5917,-7.6745 4.15087,-2.67012 8.326545,-5.3046 12.399285,-8.0929 3.31126,-2.21031 6.59726,-4.44225 9.68567,-6.96339 3.91912,-2.94857 7.80773,-5.93785 11.57444,-9.07814 2.65618,-2.09096 5.34888,-4.13564 7.99414,-6.24064 2.19286,-1.50731 4.34161,-3.08808 6.64484,-4.42533 2.61235,-1.6639 5.02324,-3.58029 7.49072,-5.44745 1.26071,-0.92657 2.44236,-1.92308 3.66524,-2.8966 2.19204,-1.74506 -0.0563,0.0785 2.07682,-1.50134 0.31118,-0.23047 0.60233,-0.48684 0.9035,-0.73026 1.82616,-1.59877 3.52546,-3.34225 5.43746,-4.84398 1.40868,-1.12978 2.84236,-2.23769 4.38345,-3.18274 0.24638,-0.026 0.33256,-0.1007 0.49512,0.16268 0.0327,0.053 -0.10471,-0.07 -0.16361,-0.0903 -0.44007,-0.1514 -0.91178,-0.18824 -1.37205,-0.21998 -0.95694,-0.0445 -1.92069,-0.11275 -2.83573,-0.42055 -0.91957,-0.31967 -1.8443,-0.61035 -2.78224,-0.87323 -0.97569,-0.22053 -1.95609,-0.23093 -2.95368,-0.20209 -1.05165,-6.4e-4 -2.10331,-0.002 -3.15494,-0.009 -1.58245,-0.012 -3.16482,-0.0329 -4.74732,-0.0388 -1.98218,0.002 -3.96432,0.0146 -5.9465,0.0196 -1.54388,0.006 -3.08778,0.0101 -4.63162,-0.005 -1.79787,-0.0108 -3.59606,-0.004 -5.39351,0.0385 -2.01146,0.0598 -4.02268,0.182 -6.01287,0.49473 -1.79497,0.26487 -3.60183,0.51927 -5.42099,0.4858 -2.15675,0.0115 -4.31381,0.0559 -6.4678,0.17003 -2.68822,0.14915 -5.37452,0.35474 -8.06922,0.31989 -2.39026,0.0402 -4.78148,0.0948 -7.165915,0.2781 -2.34804,0.16548 -4.69448,0.27203 -7.04942,0.24964 -2.4284,0.0492 -4.85552,0.14713 -7.2777,0.33319 -2.58148,0.15607 -5.16339,0.11999 -7.74873,0.13915 -2.77293,0.028 -5.54575,0.0928 -8.31394,0.2664 -3.177453,0.19697 -6.354446,0.31808 -9.536385,0.4149 -2.641388,0.14086 -5.280434,0.38565 -7.928181,0.32859 -2.115417,0.007 -4.231357,0.0252 -6.345315,0.11012 -2.220407,0.10562 -4.434426,0.30627 -6.655536,0.39299 -2.332765,0.006 -4.665627,-0.003 -6.998344,-0.0155 -2.043293,-0.0219 -4.08645,-0.0804 -6.122523,-0.26534 -1.800012,-0.17525 -3.600333,-0.2516 -5.406022,-0.33773 -1.443783,-0.13597 -2.889535,-0.30322 -4.254516,-0.82531 0,0 6.217697,-4.16551 6.217697,-4.16551 z"
       inkscape:connector-curvature="0" />
    <path
       style="fill:#000080;stroke:#000080"
       id="path3360"
       d="m 142.68843,979.04499 c 1.21638,0.55928 2.51468,0.88184 3.76523,1.35174 1.77374,0.73965 3.59627,1.35745 5.40863,1.99551 2.0703,0.7362 4.15188,1.43858 6.21386,2.20036 2.61443,0.95328 5.2287,1.90715 7.83595,2.87998 2.37692,0.76977 4.73349,1.58339 7.07487,2.45097 1.5356,0.69907 3.01433,1.53663 4.59556,2.1303 1.09408,0.51057 2.27793,0.79277 3.27411,1.48851 1.01975,1.10067 -0.11126,2.12073 -0.9423,2.88696 -2.02672,1.59231 -4.04134,3.19996 -6.11016,4.73748 -2.23862,1.655 -4.55495,3.1909 -6.93509,4.6333 -16.7544,9.6472 -4.55267,2.6159 -2.374,1.3784 0.43034,-0.2445 -0.85206,0.5037 -1.27908,0.7539 -0.4261,0.2496 -0.85149,0.5005 -1.28028,0.7455 -7.43994,4.2508 -5.00765,2.9283 -8.79331,4.9648 -2.45472,1.2556 -4.90496,2.525 -7.37477,3.7489 -0.9197,0.4992 -1.82262,1.0438 -2.77664,1.4741 0,0 5.79932,-4.6267 5.79932,-4.6267 l 0,0 c 0.88373,-0.461 1.76836,-0.9202 2.64964,-1.3859 2.42134,-1.2297 4.87667,-2.3922 7.26422,-3.6876 3.07836,-1.6644 1.5094,-0.8358 -3.4499,2.0787 -0.42476,0.2496 0.85451,-0.4907 1.27984,-0.7393 0.41905,-0.245 0.83376,-0.4974 1.25329,-0.7416 2.43997,-1.4201 4.88268,-2.8354 7.32516,-4.2512 1.6484,-0.9555 -3.29528,1.9136 -4.94292,2.8704 2.39947,-1.4059 4.71611,-2.9355 6.96659,-4.5697 2.03118,-1.4906 3.99981,-3.0596 5.96528,-4.63465 0.0885,-0.0654 1.63583,-1.37749 1.6289,-1.44353 -0.008,-0.0744 -0.0858,-0.12258 -0.12868,-0.18387 -0.98589,-0.60763 -2.13314,-0.87173 -3.16774,-1.38635 -1.51529,-0.67687 -2.95107,-1.51772 -4.46927,-2.18927 -2.31397,-0.89001 -4.66428,-1.6707 -7.00157,-2.49725 -2.61521,-0.97803 -5.24312,-1.92239 -7.87983,-2.8408 -2.08166,-0.73419 -4.18153,-1.41388 -6.2583,-2.16154 -1.8272,-0.63465 -3.65238,-1.27653 -5.45866,-1.9682 -1.31482,-0.44686 -2.65616,-0.8112 -3.94311,-1.3401 0,0 6.26516,-4.12225 6.26516,-4.12225 z"
       inkscape:connector-curvature="0" />
  </g>
</svg>
