<?xml version="1.0" encoding="UTF-8" standalone="no"?>
<!-- Created with Inkscape (http://www.inkscape.org/) -->

<svg
   xmlns:dc="http://purl.org/dc/elements/1.1/"
   xmlns:cc="http://creativecommons.org/ns#"
   xmlns:rdf="http://www.w3.org/1999/02/22-rdf-syntax-ns#"
   xmlns:svg="http://www.w3.org/2000/svg"
   xmlns="http://www.w3.org/2000/svg"
   xmlns:sodipodi="http://sodipodi.sourceforge.net/DTD/sodipodi-0.dtd"
   xmlns:inkscape="http://www.inkscape.org/namespaces/inkscape"
   width="200"
   height="200"
   id="svg2"
   version="1.1"
   inkscape:version="0.48.0 r9654"
   sodipodi:docname="t5.svg">
  <defs
     id="defs4" />
  <sodipodi:namedview
     id="base"
     pagecolor="#ffffff"
     bordercolor="#666666"
     borderopacity="1.0"
     inkscape:pageopacity="0.0"
     inkscape:pageshadow="2"
     inkscape:zoom="1.979899"
     inkscape:cx="165.45654"
     inkscape:cy="69.719001"
     inkscape:document-units="px"
     inkscape:current-layer="layer1"
     showgrid="false"
     inkscape:window-width="999"
     inkscape:window-height="738"
     inkscape:window-x="860"
     inkscape:window-y="189"
     inkscape:window-maximized="0" />
  <metadata
     id="metadata7">
    <rdf:RDF>
      <cc:Work
         rdf:about="">
        <dc:format>image/svg+xml</dc:format>
        <dc:type
           rdf:resource="http://purl.org/dc/dcmitype/StillImage" />
        <dc:title />
      </cc:Work>
    </rdf:RDF>
  </metadata>
  <g
     inkscape:label="Layer 1"
     inkscape:groupmode="layer"
     id="layer1"
     transform="translate(0,-852.36218)">
    <flowRoot
       xml:space="preserve"
       id="flowRoot3021"
       style="font-size:20px;font-style:normal;font-weight:normal;line-height:50%;letter-spacing:0px;word-spacing:0px;fill:#ffffff;fill-opacity:1;stroke:#ffffff;font-family:Sans"
       transform="translate(-55.558389,892.2632)"><flowRegion
         id="flowRegion3023"><rect
           id="rect3025"
           width="66.670067"
           height="49.497475"
           x="218.69803"
           y="135.35023"
           style="fill:#ffffff;stroke:#ffffff" /></flowRegion><flowPara
         id="flowPara3027"
         style="font-size:56px;font-weight:bold;fill:#ffffff;stroke:#ffffff;-inkscape-font-specification:Sans Bold">3</flowPara></flowRoot>    <path
       style="fill:#ffffff;stroke:#ffffff"
       id="path3248"
       d="m 29.453189,1025.67 c -0.226972,-1.9298 -0.220786,-3.8752 -0.352909,-5.8115 -0.164694,-2.9199 -0.502621,-5.8246 -0.714519,-8.7411 -0.186961,-3.2651 -0.232921,-6.5362 -0.250853,-9.8059 0.05944,-2.95649 -0.172749,-5.90256 -0.330656,-8.85186 -0.09398,-2.56722 0.166339,-5.12606 0.52208,-7.66473 0.391325,-2.59391 0.682221,-5.20379 0.93978,-7.81428 0.23225,-2.84498 0.544073,-5.68055 0.698024,-8.53154 0.0287,-2.32698 0.222141,-4.64389 0.408388,-6.96206 0.164068,-2.16982 0.18817,-4.34592 0.218259,-6.52059 0.0108,-2.19362 0.01192,-4.38747 -0.01175,-6.58101 0.01811,-1.94315 0.02472,-3.88278 -0.137181,-5.81989 -0.196398,-2.02424 -0.32481,-4.05349 -0.271816,-6.08708 0.155584,-2.24723 0.285344,-4.49486 0.35342,-6.74656 0.04808,-2.00382 0.05128,-4.00818 0.04895,-6.01245 0.0031,-1.83079 0.0015,-3.66156 -0.0141,-5.49229 -0.01792,-1.48302 -0.0099,-2.96614 -0.02027,-4.44922 0.01231,-1.65886 0.02791,-3.31794 0.02147,-4.97688 0.07578,-1.71914 -0.126537,-3.42598 -0.29194,-5.13351 -0.22705,-1.72708 -0.04688,-3.45385 0.08938,-5.17827 0.109675,-1.51647 0.152447,-3.03607 0.165166,-4.55605 0.0047,-1.10591 -0.001,-2.21183 -0.004,-3.31773 -0.0026,-1.00883 -0.0032,-2.01767 -0.0036,-3.0265 -0.02699,-0.86506 0.05136,-1.73628 -0.03644,-2.59881 7.644097,-4.51446 5.608417,-5.45053 7.435784,-1.88267 0.637299,1.46255 1.384469,2.87443 2.156646,4.26966 1.207295,2.3157 2.406688,4.63514 3.770762,6.86314 1.43022,2.44929 3.011078,4.80647 4.663615,7.11023 1.589985,2.37684 3.331181,4.63024 5.212342,6.78215 2.300087,2.17228 4.601914,4.33292 6.834997,6.57604 1.935267,1.86339 3.790388,3.80411 5.682893,5.70988 1.98214,1.9033 3.93745,3.83506 5.947484,5.71007 2.193233,2.07295 4.381899,4.14926 6.624355,6.1691 1.802897,1.65951 3.666317,3.25654 5.360557,5.02884 1.4742,1.71167 3.12363,3.25749 4.61986,4.94714 1.43466,1.76726 3.03731,3.37975 4.59553,5.03499 1.75707,1.83118 3.33247,3.82988 4.90296,5.82114 1.64468,2.19136 3.467063,4.24694 5.291633,6.28951 1.64201,1.79355 3.20774,3.65778 4.67888,5.59383 1.17247,1.47931 2.3095,2.97677 3.39236,4.52253 0.88682,1.36476 1.9344,2.60828 2.87369,3.93592 1.19989,1.52844 2.22694,3.17455 3.26956,4.81107 1.36741,1.92339 2.57526,3.9483 3.81186,5.95556 1.25441,2.03785 2.64757,3.98661 3.99378,5.96492 1.24109,1.79581 2.57434,3.52316 3.89068,5.26326 1.20108,1.72109 2.43451,3.41876 3.83274,4.9853 1.06701,1.3576 2.22414,2.6271 3.38923,3.8991 0.88101,0.9978 1.59762,2.1277 2.31114,3.2477 0.82168,1.2804 1.89045,2.3701 2.87195,3.5242 1.31351,1.2827 2.35972,2.8193 3.71459,4.0569 0.90187,0.6956 1.81929,1.3424 2.58338,2.1971 0.66027,0.8098 1.08893,1.7405 2.01651,2.279 0.75423,0.1307 1.49569,-0.1083 2.25205,0.017 3.4104,-0.5883 -7.1532,1.1335 -5.77211,3.7334 0.0383,0.072 -0.0821,-0.1415 -0.11642,-0.2156 -0.0657,-0.1417 -0.12228,-0.2876 -0.18341,-0.4314 -0.65379,-1.1979 -1.1048,-2.4756 -1.50365,-3.7777 -0.66785,-1.8872 -0.89308,-3.8648 -1.02619,-5.8492 -0.10378,-2.3947 -0.13561,-4.792 -0.13303,-7.1887 -0.049,-2.0916 0.42839,-4.1109 0.88918,-6.13232 0.24829,-1.51552 0.68041,-2.98397 1.10021,-4.45686 0.34705,-1.47739 0.51636,-2.99426 0.71683,-4.4982 0.18915,-2.25733 0.35169,-4.51537 0.54957,-6.77253 0.14422,-2.73414 0.56695,-5.43995 0.88758,-8.15583 0.24528,-2.89925 0.522,-5.79657 0.72477,-8.69941 0.11077,-2.96552 0.35367,-5.92287 0.52721,-8.88499 0.15276,-2.98833 0.1869,-5.98023 0.22079,-8.97164 0.01,-4.03355 0.315,-8.05668 0.73068,-12.06611 0.49149,-4.41279 0.68149,-8.84915 0.76869,-13.28575 -0.0583,-3.20669 -0.26899,-6.40824 -0.40024,-9.61268 -0.0909,-2.53461 -0.12191,-5.07028 -0.13687,-7.60622 0.0623,-2.14675 -0.13236,-4.28297 -0.31962,-6.41848 -0.15023,-1.69961 -0.14069,-3.4043 -0.35433,-5.09764 -0.18661,-1.20477 -0.31542,-2.41576 -0.38147,-3.63282 -0.0449,-1.01837 -0.0441,-2.03797 -0.0449,-3.05711 0.0187,-1.14623 0.0121,-2.29269 0.009,-3.43902 -4.3e-4,-0.17952 -8.6e-4,-0.35904 -0.001,-0.53857 0,0 6.61453,-3.36985 6.61453,-3.36985 l 0,0 c -6.1e-4,0.1801 -0.001,0.3602 -0.002,0.54029 -0.004,1.14404 -0.0138,2.28821 0.003,3.43218 -6.4e-4,1.01048 -0.004,2.02115 0.0227,3.03138 0.0418,1.20904 0.13175,2.41518 0.29432,3.61457 0.20007,1.7135 0.22556,3.43077 0.31856,5.15258 0.14392,2.16297 0.38403,4.3219 0.29109,6.4934 0.002,2.53948 0.003,5.07948 0.0657,7.61831 0.0835,3.24164 0.27664,6.48033 0.27634,9.72387 -0.15271,4.4621 -0.36939,8.92302 -0.81659,13.36684 -0.38561,3.96372 -0.6381,7.93512 -0.58928,11.92066 2e-4,2.99702 -0.005,5.99667 -0.17586,8.98975 -0.16259,2.96243 -0.43646,5.91763 -0.50901,8.88465 -0.19136,2.91376 -0.5132,5.81627 -0.71243,8.72943 -0.29329,2.70236 -0.72943,5.39195 -0.84986,8.11052 -0.16252,2.25196 -0.36007,4.4987 -0.45961,6.75458 -0.14258,1.5274 -0.3321,3.06026 -0.59397,4.56883 -0.40631,1.48577 -0.96638,2.92531 -1.18912,4.46002 -0.4523,1.98894 -1.0283,3.95147 -1.02001,6.01427 0.008,2.3797 -0.0236,4.7619 0.11992,7.1386 0.14456,1.9192 0.35026,3.8408 1.03282,5.6568 0.39414,1.2684 0.84264,2.5083 1.54722,3.6415 0.0731,0.1446 0.70981,1.1876 0.65461,1.2256 -5.44082,3.7403 -4.21454,3.9626 -7.14824,3.6969 -0.84462,0.022 -1.69987,0.1508 -2.44589,-0.3478 -0.88735,-0.6666 -1.41948,-1.5798 -2.09886,-2.4379 -0.76312,-0.8194 -1.7021,-1.4261 -2.51924,-2.1864 -1.27868,-1.3334 -2.33434,-2.8704 -3.68243,-4.1443 -1.03847,-1.1595 -2.17403,-2.2483 -3.01442,-3.5691 -0.68732,-1.0845 -1.36599,-2.1856 -2.20422,-3.1618 -1.16262,-1.2761 -2.27003,-2.5923 -3.34101,-3.9454 -1.38267,-1.6018 -2.6302,-3.3093 -3.85285,-5.0357 -1.31897,-1.75047 -2.64827,-3.49297 -3.85263,-5.32623 -1.35857,-1.98718 -2.79115,-3.92477 -4.05068,-5.97749 -1.20033,-2.02155 -2.41345,-4.03543 -3.80166,-5.93631 -1.05783,-1.61215 -2.1266,-3.21803 -3.31794,-4.73604 -0.97595,-1.30507 -1.97796,-2.58892 -2.86435,-3.95851 -1.06907,-1.54031 -2.21419,-3.02113 -3.32568,-4.53077 -1.44375,-1.93269 -2.984633,-3.78874 -4.606713,-5.57473 -1.79253,-2.08466 -3.63868,-4.13011 -5.30064,-6.32136 -1.58947,-1.95434 -3.13241,-3.95692 -4.9131,-5.74421 -1.57763,-1.64911 -3.16543,-3.28645 -4.618568,-5.04884 -1.495743,-1.67772 -3.128536,-3.22782 -4.606469,-4.92338 -1.682659,-1.75244 -3.486984,-3.38302 -5.273284,-5.02839 -2.200842,-2.06209 -4.378612,-4.14865 -6.600995,-6.18793 -2.028898,-1.87464 -4.024412,-3.78486 -6.013032,-5.70174 -1.898338,-1.89123 -3.691246,-3.88318 -5.615231,-5.74974 -2.258678,-2.23866 -4.527331,-4.4574 -6.862142,-6.61652 -1.896477,-2.16988 -3.707974,-4.40505 -5.294904,-6.81522 -1.649755,-2.32524 -3.201757,-4.71832 -4.66436,-7.16577 -1.380531,-2.22492 -2.608719,-4.53505 -3.889837,-6.81758 -0.827027,-1.37092 -1.595998,-2.77922 -2.268061,-4.23309 -1.964922,-3.51947 -1.085773,-1.48729 5.708193,-5.2708 0.01811,-0.0101 -0.01427,0.0389 -0.0214,0.0584 -0.08071,0.87556 -0.01452,1.75758 -0.0358,2.63533 3.79e-4,1.00923 0.0012,2.01846 6.96e-4,3.0277 -0.0015,1.11593 -0.0042,2.23194 -0.02772,3.34767 -0.036,1.54228 -0.08115,3.08495 -0.204288,4.6232 -0.115141,1.68711 -0.346181,3.37548 -0.130815,5.06488 0.144529,1.73001 0.396882,3.45415 0.316506,5.19509 -0.0064,1.65161 0.009,3.30336 0.02156,4.95489 -0.01013,1.48947 -0.0018,2.97899 -0.01811,4.46842 -0.01358,1.83563 -0.01177,3.67127 -0.01108,5.50694 -0.0092,2.01719 -0.01503,4.03463 -0.0771,6.05103 -0.07352,2.25088 -0.192851,4.49967 -0.349799,6.74633 -0.08226,2.00018 0.08422,3.99929 0.265079,5.99114 0.181594,1.95936 0.175439,3.91477 0.155592,5.88207 -0.02052,2.20226 -0.01357,4.4047 -0.02566,6.60702 -0.0041,2.18439 -0.02155,4.37101 -0.16749,6.55129 -0.172728,2.33126 -0.483212,4.65168 -0.504507,6.99321 -0.166129,2.86024 -0.45256,5.70676 -0.696249,8.56026 -0.228956,2.61043 -0.490947,5.22141 -0.850711,7.81672 -0.409241,2.49882 -0.693498,5.03107 -0.653134,7.56652 0.153931,2.9682 0.37686,5.93516 0.28997,8.90975 0.02502,3.25159 0.03515,6.50589 0.253277,9.75189 0.210301,2.9047 0.56246,5.7948 0.789983,8.6981 0.161294,1.8707 0.161919,3.7665 0.543596,5.611 0,0 -6.604301,3.5309 -6.604301,3.5309 z"
       inkscape:connector-curvature="0" />
    <path
       style="fill:#ffffff;stroke:#ffffff"
       id="path3252"
       d="m 128.5151,899.24154 c 0.49819,-1.05563 1.076,-2.06979 1.63231,-3.09546 0.59578,-1.03347 1.18634,-2.06289 1.70497,-3.13801 0.57018,-1.07626 0.90183,-2.25068 1.32146,-3.38858 0.33934,-0.96792 0.72985,-1.9143 1.1129,-2.86533 0.50636,-1.06289 1.11859,-2.06932 1.67124,-3.10818 0.79185,-1.34375 1.30028,-2.82392 1.99906,-4.21302 0.59482,-1.149 1.38157,-2.17939 2.08625,-3.26021 0.53206,-0.89323 1.09299,-1.76695 1.72474,-2.59298 0.58387,-0.83338 1.17987,-1.6644 1.73139,-2.52052 0.37503,-0.73221 1.01455,-1.24274 1.36024,-1.98945 1.13694,-3.14672 4.89392,-3.67969 7.71867,-5.17793 0.84608,0.31025 1.56184,0.86836 2.22918,1.46576 0.96566,0.78977 2.00569,1.47016 3.05302,2.14339 1.13298,0.54546 2.20978,1.18546 3.23256,1.92046 1.13399,0.78033 2.15541,1.70874 3.26574,2.5284 1.297,1.01973 2.5746,2.07019 3.91928,3.02707 1.10627,0.83124 2.2901,1.53648 3.30641,2.47983 0.7999,1.02271 1.52758,2.09929 2.32416,3.1298 0.96694,1.07294 1.93004,2.14881 3.00267,3.11795 0.77771,0.78632 1.56595,1.55331 2.30804,2.37427 0.61156,0.76933 1.39867,1.3551 2.09729,2.0365 0,0 -6.31453,3.88335 -6.31453,3.88335 l 0,0 c -0.71342,-0.68607 -1.48874,-1.30737 -2.12963,-2.06774 -0.73907,-0.7929 -1.50141,-1.56122 -2.24709,-2.34766 -1.05961,-1.03468 -2.06883,-2.11382 -3.05378,-3.21966 -0.78032,-0.9913 -1.495,-2.02964 -2.28575,-3.009 -1.00146,-0.90455 -2.14911,-1.61546 -3.21271,-2.4438 -1.32135,-0.99794 -2.62588,-2.01773 -3.94123,-3.02335 -1.09078,-0.83421 -2.14738,-1.7135 -3.27813,-2.49107 -1.03036,-0.70178 -2.11886,-1.29578 -3.20531,-1.90315 -1.0764,-0.69168 -2.14812,-1.39607 -3.14239,-2.20362 -0.55312,-0.44442 -1.21753,-1.01996 -1.97152,-0.95313 2.08499,-1.18819 4.18386,-2.35234 6.25497,-3.56456 0.0827,-0.0484 -0.19398,0.0239 -0.27951,0.0671 -0.39404,0.19901 -0.67283,0.71565 -0.8933,1.06893 -0.26085,1.00737 -0.64698,1.38036 -1.32472,2.11998 -0.47006,0.94275 -1.20413,1.70733 -1.70286,2.63594 -0.65729,0.791 -1.25201,1.63706 -1.75476,2.5321 -0.71771,1.0841 -1.49289,2.12835 -2.17358,3.23389 -0.79242,1.32887 -1.20727,2.83942 -1.96056,4.19122 -0.55261,1.00815 -1.06393,2.0385 -1.65054,3.02752 -0.43268,0.93414 -0.80124,1.89519 -1.15732,2.86034 -0.47648,1.12516 -0.74003,2.32966 -1.29302,3.41951 -0.48383,1.10678 -1.05507,2.16281 -1.70426,3.18097 -0.51529,1.01288 -1.16615,1.96776 -1.54717,3.04073 0,0 -6.83288,3.09141 -6.83288,3.09141 z"
       inkscape:connector-curvature="0" />
  </g>
</svg>
