<?xml version="1.0" encoding="UTF-8" standalone="no"?>
<!-- Created with Inkscape (http://www.inkscape.org/) -->

<svg
   xmlns:dc="http://purl.org/dc/elements/1.1/"
   xmlns:cc="http://creativecommons.org/ns#"
   xmlns:rdf="http://www.w3.org/1999/02/22-rdf-syntax-ns#"
   xmlns:svg="http://www.w3.org/2000/svg"
   xmlns="http://www.w3.org/2000/svg"
   xmlns:sodipodi="http://sodipodi.sourceforge.net/DTD/sodipodi-0.dtd"
   xmlns:inkscape="http://www.inkscape.org/namespaces/inkscape"
   width="80"
   height="80"
   id="svg2"
   version="1.1"
   inkscape:version="0.48.0 r9654"
   sodipodi:docname="0.svg">
  <defs
     id="defs4" />
  <sodipodi:namedview
     id="base"
     pagecolor="#ffffff"
     bordercolor="#666666"
     borderopacity="1.0"
     inkscape:pageopacity="0.0"
     inkscape:pageshadow="2"
     inkscape:zoom="3.959798"
     inkscape:cx="28.841519"
     inkscape:cy="42.61459"
     inkscape:document-units="px"
     inkscape:current-layer="layer1"
     showgrid="false"
     inkscape:window-width="1920"
     inkscape:window-height="1002"
     inkscape:window-x="0"
     inkscape:window-y="25"
     inkscape:window-maximized="1" />
  <metadata
     id="metadata7">
    <rdf:RDF>
      <cc:Work
         rdf:about="">
        <dc:format>image/svg+xml</dc:format>
        <dc:type
           rdf:resource="http://purl.org/dc/dcmitype/StillImage" />
        <dc:title></dc:title>
      </cc:Work>
    </rdf:RDF>
  </metadata>
  <g
     inkscape:label="Layer 1"
     inkscape:groupmode="layer"
     id="layer1"
     transform="translate(0,-972.36218)">
    <path
       style="fill:#000080;stroke:#000080"
       id="path3060"
       d="m 26.109855,65.396204 c 0.02641,-1.230147 0.02312,-2.460798 0.02203,-3.691178 0.0038,-1.35091 -4.96e-4,-2.701815 -8.12e-4,-4.052723 -0.0065,-1.023262 -0.0084,-2.04654 -0.01293,-3.069809 -0.03786,-0.847961 0.02725,-1.689638 0.107778,-2.532678 0.09243,-1.007148 0.242538,-2.006382 0.319924,-3.01525 0.08544,-1.132419 0.288208,-2.24897 0.501215,-3.362735 0.142574,-1.027765 0.452166,-2.018836 0.640086,-3.037392 0.118449,-0.964039 0.296492,-1.913654 0.548286,-2.851163 0.232044,-0.885826 0.539207,-1.743847 0.897135,-2.585542 0.295531,-0.657405 0.556923,-1.330842 0.78634,-2.014113 0.17637,-0.550165 0.426553,-1.073334 0.755029,-1.548139 1.187464,-1.352117 2.862242,-2.419038 4.613837,-2.814617 1.126021,-0.270214 2.279097,-0.41844 3.422514,-0.599578 1.184403,-0.181211 2.379186,-0.256311 3.575335,-0.297048 0.699879,-0.08203 1.395628,-0.190359 2.098719,-0.242155 0.739955,-0.03462 1.48101,-0.02436 2.221513,-0.02355 0.940023,-0.0014 1.880047,9.38e-4 2.82007,0.002 0.943723,0.0082 1.881784,0.02804 2.818942,-0.09099 0.607912,-0.09802 1.220607,-0.139538 1.835248,-0.158152 0.607556,-0.03776 1.202607,-0.01137 1.802694,0.08087 0.605559,0.106033 1.219075,0.133977 1.832253,0.151949 0.636877,0.01897 1.262815,0.154012 1.898173,0.209919 0.563565,0.131048 1.132338,0.225454 1.708809,0.272676 0.543428,0.03432 1.088302,0.03364 1.63258,0.03452 0.598135,-7.37e-4 1.196267,-5.78e-4 1.794402,-0.0019 0.236325,-0.04646 0.471063,-0.09927 0.707491,-0.145191 0,0 -2.997915,2.263559 -2.997915,2.263559 l 0,0 c -0.245173,0.04366 -0.490643,0.09096 -0.741223,0.08478 -0.598637,2.6e-5 -1.19727,0.003 -1.795903,6.03e-4 -0.55262,-0.0036 -1.106452,-0.0034 -1.656736,-0.06138 -0.572239,-0.06748 -1.133785,-0.190098 -1.703018,-0.276182 -0.626824,-0.06857 -1.248569,-0.193842 -1.881227,-0.193093 -0.622738,-0.026 -1.242978,-0.07387 -1.858035,-0.179483 -0.586805,-0.06941 -1.175587,-0.04945 -1.765217,-0.02667 -0.605948,0.03072 -1.208155,0.09749 -1.810365,0.170372 -0.94227,0.08132 -1.88744,0.04488 -2.832253,0.05137 -0.940462,-4.8e-5 -1.880924,-1.97e-4 -2.821386,4e-4 -0.741656,0.0046 -1.484605,0.0048 -2.22445,0.06292 -0.695802,0.06448 -1.387038,0.174029 -2.085369,0.210091 -1.180407,0.04223 -2.359364,0.130146 -3.526573,0.318009 -1.148853,0.18565 -2.3107,0.337659 -3.429328,0.667445 -1.383989,0.531065 -0.381778,0.166806 2.602914,-1.595799 0.07892,-0.0466 -0.166064,0.07989 -0.240286,0.133658 -0.137946,0.09994 -0.242547,0.239938 -0.37424,0.347981 -0.06382,0.05236 -0.133545,0.09708 -0.200318,0.145615 -0.320947,0.455667 -0.633861,0.908535 -0.807403,1.447884 -0.211881,0.701506 -0.493891,1.382843 -0.785667,2.054246 -0.360784,0.828742 -0.698429,1.662096 -0.925089,2.540083 -0.252976,0.929157 -0.475509,1.860889 -0.565233,2.823378 -0.178099,1.025878 -0.492148,2.015617 -0.646762,3.045634 -0.211175,1.101589 -0.428812,2.202436 -0.51848,3.322429 -0.06681,1.010499 -0.203646,2.010608 -0.305758,3.017086 -0.07529,0.833153 -0.157547,1.662404 -0.120947,2.500633 -0.0045,1.027661 -0.0064,2.055331 -0.01293,3.082986 -3.16e-4,1.351184 -0.0047,2.702364 -8.12e-4,4.05355 -0.0011,1.222895 -0.0046,2.446072 0.02203,3.668729 0,0 -3.33868,1.701143 -3.33868,1.701143 z"
       inkscape:connector-curvature="0"
       transform="translate(0,972.36218)" />
    <path
       style="fill:#000080;stroke:#000080"
       id="path3062"
       d="m 53.863821,18.266683 c 1.103336,0.672262 2.218634,1.325341 3.382314,1.888314 1.224189,0.544167 2.435359,1.126492 3.676701,1.631721 1.050053,0.413582 2.072663,0.89195 3.09999,1.35791 0.711033,0.270149 1.387593,0.621768 2.051229,0.991075 0.630099,0.298185 1.227555,0.669665 1.826153,1.028252 0.571118,0.411965 0.99699,0.977139 1.479935,1.480941 0.351581,0.403515 0.739365,0.78514 1.163136,1.112847 0.475063,0.250578 0.964964,0.473179 1.436108,0.734469 0.563873,0.436148 0.583193,0.864379 0.320269,1.485912 -0.436646,0.776715 -1.101098,1.377288 -1.748972,1.973381 -0.771727,0.720127 -1.488462,1.495151 -2.236644,2.239307 -0.831643,0.799062 -1.674519,1.584606 -2.466349,2.423884 -0.940241,0.975102 -1.899155,1.931569 -2.844032,2.902194 -0.800209,0.831464 -1.64193,1.618665 -2.564423,2.312483 -1.627002,1.20912 -3.395116,2.243783 -5.223446,3.115908 -0.411682,0.24115 -0.895803,0.280815 -1.324945,0.476648 -0.182866,0.08345 -0.357467,0.184084 -0.539058,0.270268 -0.08324,0.04831 -0.166473,0.09663 -0.249709,0.144942 0,0 2.920785,-2.349855 2.920785,-2.349855 l 0,0 c 0.08728,-0.04303 0.174553,-0.08605 0.261829,-0.129075 0.607321,-0.281397 1.262139,-0.433709 1.853215,-0.752485 1.136376,-0.608517 2.890976,-1.633094 -2.263233,1.335959 -0.120519,0.06942 0.236307,-0.146756 0.354579,-0.219942 0.515912,-0.319244 0.254363,-0.13805 0.753434,-0.524181 0.946555,-0.661382 1.803711,-1.432045 2.605407,-2.262874 0.953308,-0.956487 1.886225,-1.933601 2.841845,-2.888231 0.773111,-0.85629 1.609853,-1.64744 2.450806,-2.435623 0.75194,-0.740408 1.471854,-1.509227 2.226334,-2.246508 0.619611,-0.588475 1.285522,-1.130446 1.779476,-1.837804 0.241097,-0.427155 0.457741,-0.651449 -0.04569,-0.983064 -0.493861,-0.258316 -1.012371,-0.477425 -1.473327,-0.791571 -0.425919,-0.353285 -0.834684,-0.732511 -1.186949,-1.160469 -0.448649,-0.488856 -0.86297,-1.023495 -1.422996,-1.392438 -0.597727,-0.353002 -1.18714,-0.724323 -1.816701,-1.019064 -0.659348,-0.357252 -1.329008,-0.693162 -2.022784,-0.979366 -1.012758,-0.480005 -2.035188,-0.939671 -3.075736,-1.356793 -1.234796,-0.528483 -2.456973,-1.090232 -3.673002,-1.659889 -1.173947,-0.576331 -2.296456,-1.245161 -3.44374,-1.871851 0,0 3.138187,-2.045332 3.138187,-2.045332 z"
       inkscape:connector-curvature="0"
       transform="translate(0,972.36218)" />
  </g>
</svg>
