<?xml version="1.0" encoding="UTF-8" standalone="no"?>
<!-- Created with Inkscape (http://www.inkscape.org/) -->

<svg
   xmlns:dc="http://purl.org/dc/elements/1.1/"
   xmlns:cc="http://creativecommons.org/ns#"
   xmlns:rdf="http://www.w3.org/1999/02/22-rdf-syntax-ns#"
   xmlns:svg="http://www.w3.org/2000/svg"
   xmlns="http://www.w3.org/2000/svg"
   xmlns:sodipodi="http://sodipodi.sourceforge.net/DTD/sodipodi-0.dtd"
   xmlns:inkscape="http://www.inkscape.org/namespaces/inkscape"
   width="80"
   height="80"
   id="svg2"
   version="1.1"
   inkscape:version="0.48.0 r9654"
   sodipodi:docname="1.svg">
  <defs
     id="defs4" />
  <sodipodi:namedview
     id="base"
     pagecolor="#ffffff"
     bordercolor="#666666"
     borderopacity="1.0"
     inkscape:pageopacity="0.0"
     inkscape:pageshadow="2"
     inkscape:zoom="3.959798"
     inkscape:cx="28.841519"
     inkscape:cy="42.61459"
     inkscape:document-units="px"
     inkscape:current-layer="layer1"
     showgrid="false"
     inkscape:window-width="1920"
     inkscape:window-height="1002"
     inkscape:window-x="0"
     inkscape:window-y="25"
     inkscape:window-maximized="1" />
  <metadata
     id="metadata7">
    <rdf:RDF>
      <cc:Work
         rdf:about="">
        <dc:format>image/svg+xml</dc:format>
        <dc:type
           rdf:resource="http://purl.org/dc/dcmitype/StillImage" />
        <dc:title></dc:title>
      </cc:Work>
    </rdf:RDF>
  </metadata>
  <g
     inkscape:label="Layer 1"
     inkscape:groupmode="layer"
     id="layer1"
     transform="translate(0,-972.36218)">
    <path
       style="fill:#000080;stroke:#000080"
       id="path3095"
       d="m 45.86534,15.275683 c -0.0404,1.228218 0.175576,2.446654 0.301724,3.665203 0.188379,1.338264 0.311852,2.682231 0.378398,4.031709 0.0537,1.262409 0.05674,2.526208 0.06048,3.789526 0.001,1.175576 -0.0012,2.351135 0.0012,3.52671 -2.56e-4,0.952611 0.0024,1.905196 0.0088,2.857785 0.0018,0.783462 -0.0018,1.566924 -6.4e-4,2.350385 -0.03432,0.817175 0.02009,1.626903 0.105018,2.438623 0.05532,0.787062 0.187361,1.56464 0.281448,2.347406 0.150035,0.809902 0.228852,1.629469 0.340945,2.444559 0.137764,0.757383 0.209461,1.523065 0.255187,2.29073 0.01562,0.813619 0.05302,1.628762 0.0074,2.441765 -0.08437,0.761741 -0.203732,1.531552 -0.451835,2.258775 -0.167977,0.473132 -0.393209,0.885359 -0.738139,1.247746 -0.06707,0.04771 -0.130051,0.101757 -0.201204,0.143128 -1.142331,0.664194 -2.283914,1.329995 -3.438297,1.973015 -0.07654,0.04264 -0.167993,0.05037 -0.249923,0.08142 -0.282839,0.107192 -0.549997,0.198975 -0.815202,0.34633 -0.683463,0.292046 -1.335978,0.648406 -2.053305,0.851078 -0.683785,0.179244 -1.391953,0.206068 -2.094689,0.22527 -0.624195,0.02574 -1.250623,-0.03673 -1.870839,0.04366 -0.62232,0.04643 -1.213616,0.225326 -1.827288,0.317372 -0.706958,0.109219 -1.429071,0.194002 -2.093405,0.469589 -0.601838,0.232408 -1.23351,0.346718 -1.873063,0.404911 -0.541358,0.05871 -1.08589,-0.02734 -1.60246,-0.190927 -0.55408,-0.189656 -1.103519,-0.408206 -1.639163,-0.646948 -0.593519,-0.223566 -1.192964,-0.430703 -1.790513,-0.643557 -0.559439,-0.242088 -1.134309,-0.456714 -1.724923,-0.610073 -0.533248,-0.124923 -1.081421,-0.145245 -1.626539,-0.156533 -0.493816,-0.01752 -0.979491,0.145071 -1.40111,0.392972 -0.07887,0.04715 -0.316448,0.186933 -0.236613,0.141438 0.992834,-0.565779 1.978872,-1.143532 2.97566,-1.702317 0.07925,-0.04443 -0.143456,0.112387 -0.221735,0.158504 -1.12927,0.665287 -2.251805,1.342954 -3.399937,1.975133 -0.07182,0.03955 -0.296569,-0.02197 -0.3654,-0.03676 -0.0558,-0.03595 -0.111602,-0.0719 -0.167402,-0.107846 0,0 3.131732,-2.098097 3.131732,-2.098097 l 0,0 c 0.02855,-0.0022 0.05711,-0.0044 0.08566,-0.0066 1.040184,-0.31087 4.028931,-3.36539 -2.773646,1.651602 -0.07899,0.04539 0.14486,-0.111208 0.223045,-0.157986 3.261463,-1.951305 2.26065,-1.444733 3.686338,-2.15561 0.488519,-0.17938 0.9799,-0.304418 1.506809,-0.249814 0.563934,0.02652 1.128885,0.07565 1.673628,0.234001 0.59045,0.179662 1.169378,0.396048 1.738915,0.633386 0.600524,0.221336 1.213277,0.409902 1.802142,0.661714 0.530428,0.218435 1.061945,0.444644 1.615449,0.597771 0.503074,0.107385 1.005989,0.164704 1.518513,0.07814 0.622531,-0.08601 1.229473,-0.239437 1.816239,-0.467442 0.695454,-0.203819 1.416245,-0.300334 2.129916,-0.41982 0.612207,-0.122879 1.222007,-0.252099 1.847566,-0.291762 0.627699,-0.02862 1.256153,-0.0071 1.884158,-0.03009 0.684173,-0.03051 1.371625,-0.08413 2.025609,-0.304107 0.692758,-0.257761 1.355784,-0.588124 2.028899,-0.892543 0.278173,-0.111428 0.563036,-0.212493 0.83685,-0.334442 0.07701,-0.0343 0.300131,-0.153252 0.227521,-0.110422 -1.147642,0.676953 -4.118453,2.391144 -2.781756,1.619707 0.443425,-0.210747 0.647037,-0.6279 0.831557,-1.064949 0.325447,-0.666293 0.399098,-1.432478 0.510287,-2.15794 0.08102,-0.795291 0.02269,-1.59869 0.01111,-2.396659 -0.03362,-0.758414 -0.09595,-1.515376 -0.232905,-2.263083 -0.126109,-0.816227 -0.173254,-1.644325 -0.347101,-2.45409 -0.08677,-0.785225 -0.235624,-1.561596 -0.282456,-2.351019 -0.0875,-0.823453 -0.162892,-1.64334 -0.123734,-2.473095 0.0011,-0.783268 -0.0025,-1.566538 -5.93e-4,-2.349807 0.0066,-0.955995 0.0096,-1.911989 0.01074,-2.868007 0.0043,-1.176493 0.0055,-2.352978 0.0061,-3.52948 -1.12e-4,-1.259442 -3.92e-4,-2.519265 -0.04559,-3.778071 -0.06126,-1.343841 -0.171958,-2.683542 -0.367439,-4.015251 -0.120432,-1.224704 -0.335316,-2.441844 -0.36853,-3.672885 0,0 3.342332,-1.703003 3.342332,-1.703003 z"
       inkscape:connector-curvature="0"
       transform="translate(0,972.36218)" />
    <path
       style="fill:#000080;stroke:#000080"
       id="path3097"
       d="m 23.995558,40.856067 c -0.902239,1.010554 -1.888557,1.931987 -2.896518,2.834832 -1.19399,0.976727 -2.400029,1.935232 -3.498631,3.019797 -1.080002,1.186596 -2.167748,2.366023 -3.257619,3.543511 -0.718314,0.699597 -1.358929,1.469978 -2.044305,2.200078 -0.244914,0.315372 -1.111666,0.898802 -1.041162,1.360409 0.14806,0.200265 0.383869,0.236877 0.597631,0.330898 0.37698,0.165811 0.747094,0.341397 1.128241,0.50018 1.015565,0.501127 2.023437,1.018468 3.037288,1.523649 1.132722,0.543379 2.257447,1.102563 3.361903,1.702104 0.987959,0.551852 1.989484,1.077847 2.984328,1.616861 0.719844,0.360235 1.42112,0.756233 2.162599,1.070973 0.897948,0.364335 1.765554,0.797164 2.654602,1.181397 0.404105,0.175488 0.788039,0.391278 1.181284,0.58898 0,0 -3.121638,2.049325 -3.121638,2.049325 l 0,0 C 24.861511,64.179165 24.482701,63.971875 24.086633,63.800327 23.200655,63.402593 22.320541,62.991362 21.418475,62.630504 20.67712,62.302323 19.976016,61.893272 19.25697,61.519868 18.263247,60.98148 17.266206,60.449963 16.279915,59.897833 15.178809,59.299675 14.053547,58.74881 12.923542,58.20765 11.913713,57.704135 10.912004,57.181153 9.8837912,56.716664 9.2118225,56.439679 8.4173398,56.216763 7.9560252,55.627387 c -0.028872,-0.07752 -0.074286,-0.150769 -0.086615,-0.23257 -0.095548,-0.633913 0.618245,-1.118594 0.9915872,-1.503102 0.2076008,-0.222996 0.4325876,-0.429741 0.6345445,-0.65786 0.4680039,-0.528633 0.9032824,-1.086464 1.4377414,-1.555491 1.114685,-1.16242 2.200337,-2.35487 3.270262,-3.558557 1.072445,-1.109162 2.262489,-2.086993 3.477944,-3.035537 0.993285,-0.887272 2.012142,-1.753007 2.85183,-2.794096 0,0 3.462239,-1.434107 3.462239,-1.434107 z"
       inkscape:connector-curvature="0"
       transform="translate(0,972.36218)" />
  </g>
</svg>
