<?xml version="1.0" encoding="UTF-8" standalone="no"?>
<!-- Created with Inkscape (http://www.inkscape.org/) -->

<svg
   xmlns:dc="http://purl.org/dc/elements/1.1/"
   xmlns:cc="http://creativecommons.org/ns#"
   xmlns:rdf="http://www.w3.org/1999/02/22-rdf-syntax-ns#"
   xmlns:svg="http://www.w3.org/2000/svg"
   xmlns="http://www.w3.org/2000/svg"
   xmlns:sodipodi="http://sodipodi.sourceforge.net/DTD/sodipodi-0.dtd"
   xmlns:inkscape="http://www.inkscape.org/namespaces/inkscape"
   width="80"
   height="80"
   id="svg2"
   version="1.1"
   inkscape:version="0.48.0 r9654"
   sodipodi:docname="2.svg">
  <defs
     id="defs4" />
  <sodipodi:namedview
     id="base"
     pagecolor="#ffffff"
     bordercolor="#666666"
     borderopacity="1.0"
     inkscape:pageopacity="0.0"
     inkscape:pageshadow="2"
     inkscape:zoom="3.959798"
     inkscape:cx="28.841519"
     inkscape:cy="42.61459"
     inkscape:document-units="px"
     inkscape:current-layer="layer1"
     showgrid="false"
     inkscape:window-width="1920"
     inkscape:window-height="1002"
     inkscape:window-x="0"
     inkscape:window-y="25"
     inkscape:window-maximized="1" />
  <metadata
     id="metadata7">
    <rdf:RDF>
      <cc:Work
         rdf:about="">
        <dc:format>image/svg+xml</dc:format>
        <dc:type
           rdf:resource="http://purl.org/dc/dcmitype/StillImage" />
        <dc:title></dc:title>
      </cc:Work>
    </rdf:RDF>
  </metadata>
  <g
     inkscape:label="Layer 1"
     inkscape:groupmode="layer"
     id="layer1"
     transform="translate(0,-972.36218)">
    <path
       style="fill:#000080;stroke:#000080"
       id="path3120"
       d="m 17.581069,15.023145 c -0.106098,1.378757 -0.256171,2.754352 -0.412446,4.128289 -0.166247,1.550217 -0.380159,3.095279 -0.653429,4.630248 -0.264784,1.26217 -0.339156,2.548849 -0.457492,3.829222 -0.110129,1.081098 -0.305532,2.149618 -0.411086,3.231502 -0.06786,0.921907 -0.209402,1.83466 -0.278531,2.756726 -0.05815,1.040363 -0.182356,2.075108 -0.252455,3.11479 -0.101711,0.919608 -0.216409,1.836387 -0.272449,2.760257 -0.04431,0.854002 -0.0485,1.709433 -0.05297,2.564372 9.26e-4,0.874354 0.022,1.746233 -0.05891,2.617551 -0.07841,0.654478 -0.13555,1.31058 -0.165691,1.96898 -0.0257,0.749746 -0.02203,1.49995 -0.02327,2.249993 -0.06253,0.858639 0.198076,1.66935 0.448999,2.47733 0.309865,0.876736 0.587324,1.76265 0.907683,2.635784 0.3187,0.863665 0.492355,1.771083 0.838512,2.625207 0.303176,0.747995 0.678063,1.482179 1.260569,2.04938 0.44285,0.452128 1.00335,0.766763 1.574768,1.026744 0.761433,0.338617 1.596266,0.488932 2.416021,0.613777 1.141641,0.190749 2.276492,0.413897 3.427045,0.545781 0.932566,0.08534 1.865277,0.09232 2.793835,0.21402 0.783879,0.108651 1.574866,0.13523 2.364941,0.153438 1.061944,0.0178 2.124082,0.01611 3.186139,0.01855 1.412326,0.04056 2.82032,-0.08633 4.229689,-0.156007 1.386141,0.02875 2.743049,-0.240157 4.110908,-0.418478 1.109788,-0.22714 2.234152,-0.336077 3.363504,-0.397507 0.921705,-0.130321 1.845614,-0.221868 2.775371,-0.264712 0.980377,-0.03766 1.961888,-0.03234 2.942838,-0.03416 0.932227,-0.003 1.864459,-0.0024 2.79668,0.0017 0.948665,0.0043 1.897326,-3.81e-4 2.845979,-0.0047 0.607671,0.02718 1.169014,0.261978 1.756819,0.39053 0.494215,0.111876 1.005047,0.06112 1.498815,0.159878 0.611906,0.135797 1.239524,0.163414 1.863634,0.187662 0.465789,0.0119 0.237814,0.02284 0.684086,-0.02929 0,0 -3.0126,2.219718 -3.0126,2.219718 l 0,0 c -0.467638,0.0094 -0.232389,0.01153 -0.705743,-0.007 -0.636694,-0.03345 -1.271161,-0.08625 -1.897877,-0.209046 -0.507698,-0.04449 -1.020919,-0.05708 -1.516874,-0.188296 -0.558364,-0.144797 -1.108267,-0.338428 -1.693989,-0.327303 -0.943722,-0.0046 -1.887449,-0.0096 -2.831186,-0.0063 -0.932046,0.0029 -1.864083,7.66e-4 -2.796131,-8.97e-4 -0.979165,0.0022 -1.958802,0.0043 -2.936985,0.05376 -0.924274,0.05701 -1.841598,0.172922 -2.763292,0.258843 -1.121899,0.07457 -2.233693,0.219346 -3.341272,0.413724 -1.367543,0.182531 -2.730358,0.396252 -4.115031,0.384834 -1.417711,0.07569 -2.834603,0.183035 -4.255563,0.151408 -1.069908,0.0025 -2.139982,0.0063 -3.209758,-0.01326 -0.80017,-0.02272 -1.599749,-0.06344 -2.392852,-0.178764 -0.921129,-0.109575 -1.850536,-0.113523 -2.771574,-0.228413 -1.152968,-0.149138 -2.293098,-0.376072 -3.441966,-0.55276 -0.852737,-0.145085 -1.717171,-0.308589 -2.501593,-0.688092 -0.593056,-0.307172 -1.179286,-0.639658 -1.63355,-1.140206 -0.592212,-0.625342 -1.00731,-1.382052 -1.333535,-2.176609 -0.346516,-0.858679 -0.517003,-1.770244 -0.832248,-2.639775 -0.33446,-0.875405 -0.601876,-1.770113 -0.919352,-2.651407 -0.269205,-0.835674 -0.559859,-1.681656 -0.513214,-2.572809 -7.92e-4,-0.753102 -2.12e-4,-1.50635 0.01291,-2.259339 0.01647,-0.668038 0.06685,-1.333338 0.161257,-1.995323 0.09903,-0.860639 0.09353,-1.72129 0.08226,-2.587151 -1.54e-4,-0.860995 -0.0015,-1.722366 0.04155,-2.582562 0.05491,-0.926274 0.146706,-1.847633 0.279238,-2.76623 0.06749,-1.040115 0.195044,-2.07466 0.250745,-3.115116 0.05851,-0.926991 0.183129,-1.843472 0.277332,-2.766208 0.09702,-1.086076 0.289185,-2.156506 0.419725,-3.238031 0.135864,-1.289558 0.188513,-2.590218 0.457632,-3.86337 0.287885,-1.528173 0.518189,-3.066949 0.677343,-4.614051 0.15306,-1.349169 0.296214,-2.701656 0.365748,-4.057808 0,0 3.342333,-1.703003 3.342333,-1.703003 z"
       inkscape:connector-curvature="0"
       transform="translate(0,972.36218)" />
    <path
       style="fill:#000080;stroke:#000080"
       id="path3122"
       d="m 57.651893,46.803492 c 1.11119,0.824219 2.26403,1.589344 3.390427,2.392592 1.129684,0.818595 2.238321,1.664368 3.346148,2.512069 0.796046,0.626141 1.554077,1.298125 2.282872,2.000859 0.651275,0.66498 1.342147,1.288165 2.001799,1.944338 0.508228,0.506486 1.025985,1.004729 1.594843,1.443555 0.578016,0.549614 1.162839,1.076413 1.809508,1.543715 0.510503,0.425576 1.086231,0.766355 1.646928,1.121194 0.515826,0.322985 0.968415,0.725819 1.446014,1.09831 0.469287,0.487688 0.183764,0.798621 -0.221782,1.16703 -1.559117,1.248046 -3.42644,2.053566 -5.16882,3.021604 0.939962,-0.540301 3.782298,-2.120117 2.819886,-1.620901 -1.226103,0.635997 -2.404885,1.359379 -3.61154,2.031543 -0.145019,0.08078 -0.295612,0.151125 -0.44319,0.227132 -0.156258,0.08048 -0.620014,0.331094 -0.468316,0.242319 3.142789,-1.839192 3.489539,-2.106598 2.21906,-1.20908 -0.789612,0.65525 -1.614143,1.267813 -2.461193,1.846526 -1.470235,0.969399 -0.260489,0.181198 -3.865614,2.265711 -0.431341,0.249405 -0.858751,0.474265 -1.323668,0.65442 -0.716753,0.317111 -1.452326,0.597415 -2.150445,0.955314 -0.748805,0.267815 -1.464213,0.609256 -2.182292,0.948344 -0.09955,0.05473 -0.199137,0.109392 -0.298645,0.164199 -0.104864,0.05776 -0.209647,0.115665 -0.31447,0.173497 -0.107097,0.05132 -0.423841,0.213871 -0.321292,0.153974 6.186305,-3.613268 1.317462,-0.689124 -0.85247,0.462537 -0.27894,0.163353 -0.602187,0.190478 -0.884743,0.346105 -0.07928,0.04367 -0.145225,0.10873 -0.223385,0.154374 -0.08002,0.04673 -0.329954,0.168495 -0.249818,0.121962 0.993614,-0.576957 1.993881,-1.142379 2.990821,-1.713569 0,0 -3.498161,1.358398 -3.498161,1.358398 l 0,0 c 1.625812,-0.943486 3.082389,-1.918082 4.784952,-2.611253 0.09612,-0.04942 0.381519,-0.203048 0.288349,-0.148272 -0.970816,0.570754 -3.911599,2.233406 -2.921691,1.696445 1.484953,-0.805489 2.905169,-1.74401 4.42566,-2.488716 0.713825,-0.341757 1.451765,-0.62558 2.17499,-0.946543 0.716238,-0.329267 1.442414,-0.638004 2.168439,-0.944913 0.334214,-0.15415 0.653865,-0.323572 0.974342,-0.504612 0.106327,-0.06006 0.424113,-0.242351 0.318632,-0.180812 -3.092394,1.804113 -3.777076,2.239965 -2.514428,1.446322 0.855096,-0.576227 1.712684,-1.157744 2.492016,-1.83491 1.524252,-1.272452 0.387159,-0.36776 4.124326,-2.490244 0.154082,-0.08751 0.314939,-0.162518 0.473088,-0.242443 0.150198,-0.07591 0.595996,-0.312045 0.451938,-0.225046 -0.920158,0.555702 -3.723396,2.149782 -2.781444,1.631879 1.202388,-0.661096 2.375328,-1.374392 3.562992,-2.061588 0.439534,-0.242436 0.307033,-0.171618 0.739791,-0.401615 0.118055,-0.06274 0.469824,-0.255224 0.354506,-0.187583 -5.14809,3.019686 -3.385903,2.011287 -2.298454,1.323975 0.09491,-0.08319 0.265886,-0.241631 0.382342,-0.317121 0.157829,-0.10231 0.348613,-0.06442 0.132804,-0.269439 -0.457093,-0.376404 -0.914323,-0.751535 -1.418034,-1.06611 -0.567077,-0.357655 -1.136954,-0.718233 -1.652887,-1.147863 -0.643078,-0.477173 -1.220349,-1.021534 -1.819083,-1.551522 -0.573856,-0.454175 -1.099174,-0.964772 -1.610966,-1.487161 -0.653965,-0.657546 -1.339504,-1.282218 -1.993947,-1.939516 -0.723611,-0.687093 -1.456757,-1.365645 -2.246295,-1.977476 -1.093419,-0.853429 -2.190381,-1.702131 -3.315852,-2.51323 -1.127055,-0.794355 -2.263372,-1.577073 -3.422735,-2.323372 0,0 3.138187,-2.045332 3.138187,-2.045332 z"
       inkscape:connector-curvature="0"
       transform="translate(0,972.36218)" />
  </g>
</svg>
