<?xml version="1.0" encoding="UTF-8" standalone="no"?>
<!-- Created with Inkscape (http://www.inkscape.org/) -->

<svg
   xmlns:dc="http://purl.org/dc/elements/1.1/"
   xmlns:cc="http://creativecommons.org/ns#"
   xmlns:rdf="http://www.w3.org/1999/02/22-rdf-syntax-ns#"
   xmlns:svg="http://www.w3.org/2000/svg"
   xmlns="http://www.w3.org/2000/svg"
   xmlns:sodipodi="http://sodipodi.sourceforge.net/DTD/sodipodi-0.dtd"
   xmlns:inkscape="http://www.inkscape.org/namespaces/inkscape"
   width="80"
   height="80"
   id="svg2"
   version="1.1"
   inkscape:version="0.48.0 r9654"
   sodipodi:docname="3.svg">
  <defs
     id="defs4" />
  <sodipodi:namedview
     id="base"
     pagecolor="#ffffff"
     bordercolor="#666666"
     borderopacity="1.0"
     inkscape:pageopacity="0.0"
     inkscape:pageshadow="2"
     inkscape:zoom="3.959798"
     inkscape:cx="28.841519"
     inkscape:cy="42.61459"
     inkscape:document-units="px"
     inkscape:current-layer="layer1"
     showgrid="false"
     inkscape:window-width="1920"
     inkscape:window-height="1002"
     inkscape:window-x="0"
     inkscape:window-y="25"
     inkscape:window-maximized="1" />
  <metadata
     id="metadata7">
    <rdf:RDF>
      <cc:Work
         rdf:about="">
        <dc:format>image/svg+xml</dc:format>
        <dc:type
           rdf:resource="http://purl.org/dc/dcmitype/StillImage" />
        <dc:title></dc:title>
      </cc:Work>
    </rdf:RDF>
  </metadata>
  <g
     inkscape:label="Layer 1"
     inkscape:groupmode="layer"
     id="layer1"
     transform="translate(0,-972.36218)">
    <path
       style="fill:#000080;stroke:#000080"
       id="path3149"
       d="m 47.069921,16.35854 c 1.402149,0.332037 2.768607,0.806572 4.121452,1.299306 1.191485,0.406918 2.289971,1.009856 3.377459,1.632238 0.564097,0.282728 1.145148,0.577648 1.557494,1.066049 0.321149,0.517431 0.66719,1.018004 1.045399,1.495377 0.517911,0.628642 1.009572,1.276879 1.521427,1.910473 0.65876,0.799145 1.329543,1.588736 1.976848,2.397235 0.635593,0.811235 1.200812,1.667679 1.683191,2.577722 0.331457,0.655577 0.563458,1.352901 0.808435,2.043178 0.215225,0.663057 0.421108,1.329406 0.649476,1.98815 0.209635,0.694358 0.497692,1.355241 0.784232,2.019209 0.293256,0.694631 0.555751,1.404743 0.736845,2.137087 0.183505,0.903209 0.197252,1.828563 0.21445,2.746635 0.03957,0.959005 -0.02802,1.915614 -0.159988,2.865038 -0.111266,0.811697 -0.309076,1.607112 -0.442171,2.414818 -0.11452,0.734462 -0.336589,1.442578 -0.552929,2.151337 -0.289966,0.741712 -0.580941,1.482899 -0.861456,2.228405 -0.277617,0.746691 -0.643663,1.453727 -1.038592,2.144078 -0.419941,0.669636 -0.872881,1.32528 -1.368942,1.941479 -0.375948,0.490153 -0.78609,0.951242 -1.190666,1.417493 -0.567723,0.662439 -1.157922,1.303104 -1.725405,1.966193 -0.613903,0.714608 -1.200597,1.452901 -1.852124,2.134109 -0.494768,0.475667 -0.980925,0.957406 -1.537473,1.360961 -1.640588,1.132091 -3.365344,2.07051 -5.105444,3.063667 -0.776893,0.18366 -1.461556,0.607433 -2.200806,0.88728 -0.942581,0.407568 -1.901671,0.773036 -2.885731,1.066946 -1.000732,0.277469 -1.933076,0.717558 -2.949405,0.941222 -0.90666,0.19544 -1.837419,0.156587 -2.755848,0.236223 -1.139201,0.135641 -2.272171,0.296424 -3.418314,0.372404 -1.079928,0.07217 -2.162167,0.08543 -3.244058,0.08991 -1.095415,6.24e-4 -2.190833,-0.0015 -3.286251,-0.0018 -0.919025,0.02505 -1.82898,-0.11033 -2.728935,-0.27824 -0.906572,-0.259448 -1.843305,-0.403368 -2.745903,-0.67059 -1.026673,-0.276185 -2.03453,-0.608797 -3.048268,-0.926684 -0.949016,-0.348518 -1.867258,-0.756106 -2.757796,-1.233811 -0.824033,-0.551725 -1.615657,-1.150551 -2.388796,-1.771087 -0.861989,-0.7264 -1.73321,-1.440799 -2.59705,-2.164902 C 11.847786,59.199404 11.115805,58.376405 10.396844,57.53569 9.742388,56.839035 9.2004579,56.059512 8.7967356,55.19445 8.5388875,54.608953 8.4569114,53.981058 8.4292892,53.348558 8.4037367,52.411097 8.3098,51.477171 8.2648373,50.540168 8.2626352,49.251364 8.142809,47.971779 7.9886305,46.693887 7.8180683,45.397618 7.4350682,44.144137 7.1201553,42.87865 6.8234719,41.717382 6.5527548,40.549168 6.284497,39.380936 6.042387,38.355089 5.861812,37.320017 5.757914,36.271422 c -0.084325,-1.139864 -0.084979,-2.283737 -0.091376,-3.426068 -0.024599,-1.201787 0.3294648,-2.308309 0.8666191,-3.366913 0.540485,-0.996784 1.1354661,-1.96613 1.817264,-2.872541 0.5298289,-0.748391 1.1254016,-1.422762 1.8636326,-1.967662 1.472451,-0.550111 2.731345,-1.735524 4.219657,-2.340817 0.371639,-0.151145 0.766645,-0.247173 1.149121,-0.366254 0.1945,-0.05364 0.582717,-0.155921 0.770515,-0.227152 1.170848,-0.444097 3.936226,-2.146719 -1.870385,1.1584 0.112372,-0.07161 0.222119,-0.14752 0.337114,-0.214839 1.180752,-0.691227 2.362666,-1.380534 3.549856,-2.060643 0.256164,-0.146749 0.5248,-0.270658 0.784292,-0.411439 0.1342,-0.07281 0.53545,-0.293628 0.403013,-0.217659 -0.929249,0.533034 -1.862375,1.059282 -2.793562,1.588923 0.707551,-0.469577 1.407243,-0.950719 2.114134,-1.421308 1.572636,-0.208759 2.534277,-1.47862 3.816697,-2.190869 0.359509,-0.199669 0.1645,-0.08055 0.524233,-0.237624 0.08112,-0.03542 0.315687,-0.159888 0.239049,-0.115606 -0.999916,0.577742 -2.006301,1.144214 -3.009451,1.716322 1.262476,-0.791139 0.926809,-0.584283 3.611547,-2.086022 0.06656,-0.03723 0.142396,-0.05959 0.218036,-0.06937 0.262123,-0.03389 0.568995,0.02269 0.83128,0.04191 0.514594,0.02702 1.013869,0.216614 1.44965,0.485428 0.388525,0.213145 0.812865,0.371145 1.24054,0.488495 0.32982,0.06596 0.645576,0.180181 0.973557,0.2569 0,0 -3.08999,2.130262 -3.08999,2.130262 l 0,0 c -0.328944,-0.08902 -0.655503,-0.186269 -0.98563,-0.271035 -0.443139,-0.148531 -0.886276,-0.310451 -1.287032,-0.554578 -0.422691,-0.21036 -0.867784,-0.348757 -1.344935,-0.343767 -0.26037,-0.0028 -0.494646,-0.01028 -0.739767,0.09134 -0.06707,0.0278 -0.256734,0.135515 -0.19408,0.09884 3.457108,-2.023661 3.97639,-2.351689 2.817309,-1.626343 -1.142374,0.659198 -2.280658,1.325538 -3.427124,1.977596 -0.236754,0.134655 -0.497358,0.23959 -0.73754,0.371038 -0.0965,0.05281 -0.384945,0.213042 -0.290114,0.157293 0.952839,-0.560156 1.909528,-1.113736 2.864292,-1.670604 -0.73336,0.431118 -1.408742,0.957761 -2.124932,1.417882 -1.192758,0.700471 -2.383035,1.405185 -3.578275,2.101413 -0.08812,0.05133 -0.701253,0.376259 -0.796925,0.427895 -0.129976,0.07015 -0.516215,0.287215 -0.38889,0.212362 3.112531,-1.829819 3.7065,-2.250592 2.499466,-1.420242 -1.80087,1.038689 -3.358128,2.185623 -5.33763,2.701967 -1.522719,0.484178 -4.4402783,2.11768 1.059929,-0.936227 -0.789389,0.45985 -1.400593,1.117851 -1.925904,1.861194 -0.705328,0.878415 -1.302219,1.834989 -1.8483309,2.819743 -0.5708036,0.985262 -0.9442033,2.046199 -0.9443125,3.198313 0.00189,1.131316 0.00212,2.264009 0.082131,3.393102 0.092439,1.036105 0.2675668,2.056125 0.4985137,3.070426 0.2598723,1.168643 0.5312664,2.335328 0.8242734,3.496028 0.310607,1.281551 0.702055,2.54749 0.884243,3.856572 0.160425,1.283674 0.297024,2.568384 0.299751,3.86412 0.04888,0.933456 0.147261,1.862809 0.201115,2.794672 0.01857,0.586542 0.06011,1.174362 0.286595,1.724169 0.372152,0.842231 0.904137,1.585723 1.530548,2.260096 0.708269,0.823264 1.426984,1.631301 2.271127,2.321342 0.860284,0.725362 1.734185,1.433347 2.599908,2.152266 0.758774,0.603986 1.534671,1.192062 2.354919,1.710381 0.876495,0.460002 1.780651,0.856715 2.716702,1.181289 1.006769,0.327381 2.017618,0.637409 3.039683,0.914556 0.907855,0.231529 1.827803,0.417516 2.739444,0.634959 0.882583,0.157819 1.77666,0.257049 2.674897,0.234559 1.095655,0.0018 2.191318,0.0044 3.286964,-0.0021 1.072837,-0.0092 2.14631,-0.02569 3.216905,-0.101286 1.14847,-0.09503 2.284896,-0.276115 3.431735,-0.382995 0.91072,-0.05972 1.831708,-0.06262 2.722615,-0.287254 0.993588,-0.266592 1.933629,-0.689405 2.928338,-0.955064 0.976552,-0.319527 1.932249,-0.693301 2.875679,-1.100347 0.72386,-0.322647 1.447343,-0.640794 2.190875,-0.915662 -5.595282,3.280322 -2.532995,1.504921 -1.295752,0.635989 0.58521,-0.361846 1.074533,-0.823723 1.568362,-1.298959 0.695167,-0.639308 1.267003,-1.398213 1.879792,-2.11407 0.572545,-0.645129 1.126559,-1.308787 1.695743,-1.954694 0.410852,-0.464688 0.831437,-0.919321 1.204364,-1.415029 0.51643,-0.588058 0.959183,-1.239142 1.394978,-1.88699 0.412866,-0.664815 0.776795,-1.358876 1.063719,-2.086635 0.292378,-0.732896 0.536324,-1.485811 0.875801,-2.199613 0.19517,-0.702153 0.448131,-1.387984 0.57291,-2.108713 0.124285,-0.811467 0.327687,-1.60579 0.44972,-2.41774 0.16283,-0.926342 0.225645,-1.870018 0.194579,-2.810108 -0.01493,-0.890937 -0.02438,-1.788564 -0.189767,-2.667108 C 61.875532,37.986253 61.62295,37.292756 61.335657,36.619178 61.046025,35.94708 60.749542,35.28006 60.540498,34.576152 60.307931,33.920158 60.099069,33.25583 59.882951,32.594445 59.642496,31.92052 59.440013,31.230462 59.121459,30.586603 58.652725,29.696049 58.105176,28.856573 57.481673,28.065355 56.833177,27.258208 56.158641,26.472472 55.497418,25.675881 54.978792,25.044692 54.482171,24.397122 53.959721,23.76906 53.58521,23.295723 53.237248,22.803307 52.908722,22.296921 c -0.397736,-0.44119 -0.959008,-0.686894 -1.464903,-0.979729 -1.053482,-0.628356 -2.139205,-1.198574 -3.302877,-1.599862 -1.354443,-0.479185 -2.717507,-0.969518 -4.137636,-1.213954 0,0 3.066615,-2.144836 3.066615,-2.144836 z"
       inkscape:connector-curvature="0"
       transform="translate(0,972.36218)" />
    <path
       style="fill:#000080;stroke:#000080"
       id="path3151"
       d="m 24.080649,11.146167 c 1.235241,0.545239 2.499103,1.029728 3.766753,1.494971 1.18399,0.481892 2.384495,0.921685 3.59108,1.3432 1.061871,0.320732 2.133968,0.618476 3.224505,0.824489 0.77661,0.244819 1.56267,0.452102 2.325474,0.735989 0.474842,0.149216 0.862479,0.293373 1.026664,0.794709 0.003,0.586942 -0.575751,0.922564 -0.929979,1.324548 -0.653928,0.892035 -1.22467,1.848734 -1.736614,2.828794 -0.504305,0.83943 -0.821374,1.765599 -1.226645,2.651423 -0.391766,0.743719 -0.765591,1.496373 -1.1378,2.250058 -0.287596,0.59522 -0.621125,1.161885 -0.873668,1.773487 -0.181091,0.486377 -0.395616,0.955779 -0.648042,1.408741 -0.177744,0.267064 -0.286736,0.565833 -0.394198,0.8654 0,0 -3.40394,1.583125 -3.40394,1.583125 l 0,0 c 0.121593,-0.309514 0.190755,-0.638822 0.365287,-0.926233 0.27514,-0.429272 0.508263,-0.880281 0.673783,-1.363857 0.118805,-0.272601 0.211253,-0.553969 0.348514,-0.818416 0.555287,-1.069812 -0.242991,0.513947 0.358491,-0.613019 0.06367,-0.119289 0.115456,-0.244548 0.173185,-0.366821 0.365299,-0.756684 0.741075,-1.508883 1.139166,-2.248977 0.447195,-0.876995 0.722855,-1.831541 1.251413,-2.670079 0.490634,-1.001962 1.084522,-1.944001 1.668725,-2.893615 0.311153,-0.384811 0.622221,-0.747781 1.042888,-1.015384 0.09262,-0.233166 -0.674145,-0.397302 -0.808021,-0.470101 -0.738957,-0.279574 -1.502941,-0.492936 -2.263103,-0.705742 -1.096898,-0.23194 -2.182675,-0.525004 -3.249065,-0.870988 -1.203964,-0.426803 -2.395349,-0.88769 -3.583519,-1.356572 -1.274192,-0.482542 -2.54073,-0.984564 -3.811761,-1.475319 0,0 3.110427,-2.083811 3.110427,-2.083811 z"
       inkscape:connector-curvature="0"
       transform="translate(0,972.36218)" />
  </g>
</svg>
