<?xml version="1.0" encoding="UTF-8" standalone="no"?>
<!-- Created with Inkscape (http://www.inkscape.org/) -->

<svg
   xmlns:dc="http://purl.org/dc/elements/1.1/"
   xmlns:cc="http://creativecommons.org/ns#"
   xmlns:rdf="http://www.w3.org/1999/02/22-rdf-syntax-ns#"
   xmlns:svg="http://www.w3.org/2000/svg"
   xmlns="http://www.w3.org/2000/svg"
   xmlns:sodipodi="http://sodipodi.sourceforge.net/DTD/sodipodi-0.dtd"
   xmlns:inkscape="http://www.inkscape.org/namespaces/inkscape"
   width="80"
   height="80"
   id="svg2"
   version="1.1"
   inkscape:version="0.48.0 r9654"
   sodipodi:docname="5.svg">
  <defs
     id="defs4" />
  <sodipodi:namedview
     id="base"
     pagecolor="#ffffff"
     bordercolor="#666666"
     borderopacity="1.0"
     inkscape:pageopacity="0.0"
     inkscape:pageshadow="2"
     inkscape:zoom="3.959798"
     inkscape:cx="28.841519"
     inkscape:cy="42.61459"
     inkscape:document-units="px"
     inkscape:current-layer="layer1"
     showgrid="false"
     inkscape:window-width="1920"
     inkscape:window-height="1002"
     inkscape:window-x="0"
     inkscape:window-y="25"
     inkscape:window-maximized="1" />
  <metadata
     id="metadata7">
    <rdf:RDF>
      <cc:Work
         rdf:about="">
        <dc:format>image/svg+xml</dc:format>
        <dc:type
           rdf:resource="http://purl.org/dc/dcmitype/StillImage" />
        <dc:title></dc:title>
      </cc:Work>
    </rdf:RDF>
  </metadata>
  <g
     inkscape:label="Layer 1"
     inkscape:groupmode="layer"
     id="layer1"
     transform="translate(0,-972.36218)">
    <path
       style="fill:#000080;stroke:#000080"
       id="path3219"
       d="m 76.754662,16.179031 c 0.468365,1.015735 0.662428,2.106593 0.785584,3.209079 0.117509,1.403473 0.116364,2.813363 0.126715,4.220706 0.0034,1.179702 0.0039,2.359415 0.006,3.539124 -0.0011,0.943455 0.0018,1.886904 0.0013,2.830358 0.0039,0.880385 -0.0017,1.76077 4.9e-4,2.641155 0.03514,0.874789 -0.02449,1.742705 -0.107466,2.612575 -0.107126,1.030205 -0.34309,2.038883 -0.556993,3.050277 -0.231286,1.135635 -0.557306,2.247545 -0.855741,3.366662 -0.312081,1.0305 -0.564889,2.076931 -0.846757,3.115894 -0.274248,0.863736 -0.561188,1.718849 -0.790049,2.596183 -0.235848,0.814441 -0.445839,1.632889 -0.718963,2.435925 -0.257659,0.655993 -0.498298,1.318789 -0.691977,1.996681 -0.231417,0.704903 -0.606016,1.357731 -0.991319,1.989001 -0.37896,0.596457 -0.753649,1.192699 -1.098733,1.809498 -0.321558,0.642088 -0.803794,1.173035 -1.276028,1.70542 -0.409505,0.530054 -0.934149,0.908449 -1.49425,1.259872 -9.487327,5.480847 -0.344254,0.214802 -0.521941,0.312516 -1.696064,0.932706 -2.707998,1.77357 -4.323469,2.298914 -0.713053,0.305156 -1.44093,0.560018 -2.144998,0.887699 -1.056044,0.495235 -2.192503,0.793608 -3.284202,1.201396 -1.464767,0.587873 -2.972909,1.062908 -4.428373,1.672632 -1.289846,0.452683 -2.529913,1.036246 -3.840417,1.427506 -1.052017,0.283714 -2.140855,0.374843 -3.213863,0.541547 -1.010302,0.166654 -2.031479,0.242638 -3.053392,0.287714 -1.046813,0.02589 -2.094093,0.01762 -3.141124,0.01651 -1.178334,-0.008 -2.352827,-0.132252 -3.529693,-0.193191 -1.103814,-0.138299 -2.16287,-0.464854 -3.212893,-0.818424 -1.066247,-0.374054 -2.08078,-0.869083 -3.089999,-1.372283 -1.349094,-0.6218 -2.658787,-1.325594 -3.963454,-2.036015 -1.262321,-0.676786 -2.431378,-1.492388 -3.504285,-2.438623 -0.939096,-0.827804 -1.758578,-1.773805 -2.59361,-2.702728 -0.869085,-0.993783 -1.782888,-1.954368 -2.600498,-2.991501 -0.681756,-0.915639 -1.35497,-1.841904 -1.951051,-2.816175 -0.561216,-1.00925 -1.049819,-2.057591 -1.556594,-3.095187 -0.596471,-1.202719 -1.079321,-2.458527 -1.521808,-3.724829 -0.395543,-1.124507 -0.675585,-2.286426 -0.932393,-3.449318 -0.25385,-1.17998 -0.305535,-2.388049 -0.344266,-3.590332 -0.02466,-1.176494 -0.02086,-2.353279 -0.01941,-3.529945 -0.0097,-1.092194 0.182558,-2.151518 0.416579,-3.21177 0.194325,-0.856435 0.365397,-1.717746 0.555925,-2.575026 0.184645,-0.67063 0.362401,-1.341084 0.460556,-2.030358 0.03736,-0.358083 0.02176,-0.180301 0.04712,-0.533319 0,0 3.353415,-1.682106 3.353415,-1.682106 l 0,0 c -0.02016,0.368265 -0.0073,0.182438 -0.03884,0.55746 -0.08496,0.703984 -0.246911,1.391674 -0.459029,2.068432 -0.199864,0.857856 -0.365174,1.722027 -0.567896,2.579299 -0.110814,0.488382 -0.262768,0.986808 -0.33698,1.481919 -0.08213,0.547961 -0.06549,1.111861 -0.125639,1.662031 -0.0022,1.173552 -0.0081,2.347278 0.01291,3.520693 0.02957,1.181287 0.07465,2.367976 0.311801,3.529398 0.248055,1.150669 0.528522,2.298243 0.909747,3.412682 0.42411,1.256519 0.895394,2.501801 1.494861,3.686305 0.507772,1.024578 1.005224,2.055063 1.553308,3.058215 0.586523,0.962831 1.245685,1.881016 1.921354,2.782891 0.808613,1.032653 1.70944,1.993274 2.577104,2.976065 0.830038,0.91569 1.656523,1.836134 2.578574,2.661992 1.054142,0.924519 2.200756,1.723098 3.441787,2.380292 1.305592,0.706142 2.6192,1.401822 3.972083,2.013249 1.002924,0.48994 2.017213,0.960397 3.075576,1.320207 1.028716,0.335767 2.066094,0.65585 3.151799,0.741457 1.170701,0.07114 2.340647,0.189814 3.514521,0.178419 1.048868,-0.0011 2.098264,4.37e-4 3.146455,-0.04194 1.010497,-0.05004 2.018042,-0.143112 3.017069,-0.306841 1.066272,-0.148502 2.141387,-0.281062 3.176876,-0.586911 1.286241,-0.423397 2.528027,-0.970087 3.799732,-1.43454 1.471287,-0.582044 2.97097,-1.090277 4.4441,-1.668286 1.105163,-0.396897 2.238923,-0.728692 3.296503,-1.245713 0.716625,-0.314371 1.451634,-0.584099 2.178129,-0.87431 0.221315,-0.08556 0.360246,-0.13522 0.575661,-0.23463 0.0838,-0.03867 0.327358,-0.170301 0.24777,-0.123573 -0.980004,0.575385 -3.934036,2.277485 -2.949529,1.709841 1.596804,-0.920679 7.036148,-4.080901 0.527884,-0.30139 0.543617,-0.354151 1.145793,-0.627638 1.531727,-1.17548 0.490535,-0.489759 0.964597,-1.023567 1.31878,-1.620824 0.338556,-0.627716 0.694827,-1.236656 1.088268,-1.831394 0.39658,-0.596086 0.737636,-1.231585 1.036698,-1.881106 0.163614,-0.693705 0.409123,-1.369258 0.685977,-2.025193 0.27521,-0.796828 0.510417,-1.599494 0.732658,-2.412576 0.234822,-0.879925 0.48245,-1.750197 0.803019,-2.603967 0.275809,-1.041908 0.539624,-2.087366 0.851405,-3.118985 0.304438,-1.111538 0.624809,-2.218048 0.86301,-3.345611 0.203006,-0.999708 0.448448,-1.992433 0.564257,-3.007656 0.07821,-0.859664 0.161811,-1.715708 0.121199,-2.58071 0.0022,-0.880607 -0.0035,-1.761215 6.23e-4,-2.64182 -9.9e-5,-0.944869 0.0036,-1.889732 0.0057,-2.834599 0.0064,-1.182516 0.01436,-2.36502 0.01503,-3.547562 -3.4e-5,-1.394835 -1.2e-5,-2.792033 -0.113997,-4.183201 -0.114216,-1.055358 -0.27737,-2.112363 -0.765761,-3.069554 0,0 3.260008,-1.856197 3.260008,-1.856197 z"
       inkscape:connector-curvature="0"
       transform="translate(0,972.36218)" />
    <path
       style="fill:#000080;stroke:#000080"
       id="path3221"
       d="m 22.993509,28.840293 c -0.396383,-1.11215 -0.915097,-2.173523 -1.41173,-3.243057 -0.431694,-0.922473 -0.941314,-1.809577 -1.495881,-2.66347 -0.511616,-0.833067 -0.958597,-1.703502 -1.49288,-2.522334 -0.549584,-0.75553 -1.147792,-1.476362 -1.751093,-2.189711 -0.487627,-0.737619 -1.101924,-1.374877 -1.662441,-2.054255 -0.399303,-0.444425 -0.860785,-0.795978 -1.337328,-1.146429 -0.05178,-0.02518 -0.101131,-0.05612 -0.155332,-0.07554 -0.22885,-0.08199 -0.364307,0.159715 -0.32591,0.138745 2.794793,-1.526379 4.045919,-2.471126 2.896373,-1.613779 -0.685708,0.534239 -1.405628,1.024071 -2.086725,1.564957 -0.883806,0.761862 -1.718473,1.585493 -2.505012,2.447389 -0.714468,0.882812 -1.478409,1.723624 -2.2298133,2.574635 -0.5502262,0.637588 -1.1327658,1.244043 -1.6593288,1.901934 -0.4213786,0.645575 -0.9943716,1.128753 -1.5782901,1.618131 -0.5117857,0.373388 -0.9504033,0.821856 -1.3279028,1.328109 -0.3045856,0.59385 -0.4947196,1.235689 -0.7543393,1.849727 -0.2630604,0.570731 -0.3303134,1.197475 -0.4602112,1.805303 0,0 -3.37519023,1.629233 -3.37519023,1.629233 l 0,0 c 0.13973169,-0.625233 0.2053783,-1.269794 0.43585948,-1.870603 0.26525943,-0.62515 0.50438925,-1.25393 0.72862145,-1.894959 0.2811953,-0.583527 0.7824714,-1.05315 1.2857862,-1.453459 0.9873371,-0.768019 -0.4071913,0.327973 0.5884388,-0.492785 0.098746,-0.0814 0.478439,-0.346345 0.5686011,-0.443993 0.1713307,-0.185555 0.2535282,-0.442972 0.4551304,-0.60574 0.5252005,-0.670488 1.0887554,-1.300757 1.6676665,-1.924658 0.7429904,-0.86273 1.5433872,-1.677562 2.2367625,-2.581174 0.7664689,-0.887123 1.6162605,-1.705017 2.4809973,-2.494949 0.634097,-0.569441 1.347742,-1.058106 2.049549,-1.539866 1.085761,-1.138713 2.798769,-2.863599 4.234961,-1.877579 0.501979,0.364521 0.954127,0.775934 1.371471,1.236863 0.553987,0.68152 1.157238,1.324697 1.648004,2.056404 0.611816,0.725659 1.225317,1.45326 1.771993,2.229864 0.537091,0.817295 0.983435,1.688452 1.494022,2.522388 0.56829,0.867086 1.072549,1.778777 1.513194,2.716907 0.489158,1.07877 0.999329,2.147208 1.450771,3.242368 0,0 -3.268794,1.82538 -3.268794,1.82538 z"
       inkscape:connector-curvature="0"
       transform="translate(0,972.36218)" />
  </g>
</svg>
