<?xml version="1.0" encoding="UTF-8" standalone="no"?>
<!-- Created with Inkscape (http://www.inkscape.org/) -->

<svg
   xmlns:dc="http://purl.org/dc/elements/1.1/"
   xmlns:cc="http://creativecommons.org/ns#"
   xmlns:rdf="http://www.w3.org/1999/02/22-rdf-syntax-ns#"
   xmlns:svg="http://www.w3.org/2000/svg"
   xmlns="http://www.w3.org/2000/svg"
   xmlns:sodipodi="http://sodipodi.sourceforge.net/DTD/sodipodi-0.dtd"
   xmlns:inkscape="http://www.inkscape.org/namespaces/inkscape"
   width="80"
   height="80"
   id="svg2"
   version="1.1"
   inkscape:version="0.48.0 r9654"
   sodipodi:docname="6.svg">
  <defs
     id="defs4" />
  <sodipodi:namedview
     id="base"
     pagecolor="#ffffff"
     bordercolor="#666666"
     borderopacity="1.0"
     inkscape:pageopacity="0.0"
     inkscape:pageshadow="2"
     inkscape:zoom="3.959798"
     inkscape:cx="28.841519"
     inkscape:cy="42.61459"
     inkscape:document-units="px"
     inkscape:current-layer="layer1"
     showgrid="false"
     inkscape:window-width="1920"
     inkscape:window-height="1002"
     inkscape:window-x="0"
     inkscape:window-y="25"
     inkscape:window-maximized="1" />
  <metadata
     id="metadata7">
    <rdf:RDF>
      <cc:Work
         rdf:about="">
        <dc:format>image/svg+xml</dc:format>
        <dc:type
           rdf:resource="http://purl.org/dc/dcmitype/StillImage" />
        <dc:title></dc:title>
      </cc:Work>
    </rdf:RDF>
  </metadata>
  <g
     inkscape:label="Layer 1"
     inkscape:groupmode="layer"
     id="layer1"
     transform="translate(0,-972.36218)">
    <path
       style="fill:#000080;stroke:#000080"
       id="path3219"
       d="m 77.0072,1036.3587 c 0.468365,-1.0158 0.662428,-2.1066 0.785584,-3.2091 0.117509,-1.4035 0.116364,-2.8134 0.126715,-4.2207 0.0034,-1.1797 0.0039,-2.3594 0.006,-3.5391 -0.0011,-0.9435 0.0018,-1.8869 0.0013,-2.8304 0.0039,-0.8804 -0.0017,-1.7608 4.9e-4,-2.6411 0.03514,-0.8748 -0.02449,-1.7428 -0.107466,-2.6126 -0.107126,-1.0302 -0.34309,-2.0389 -0.556993,-3.0503 -0.231286,-1.1356 -0.557306,-2.2475 -0.855741,-3.3667 -0.312081,-1.0305 -0.564889,-2.0769 -0.846757,-3.1159 -0.274248,-0.8637 -0.561188,-1.7188 -0.790049,-2.5961 -0.235848,-0.8145 -0.445839,-1.6329 -0.718963,-2.436 -0.257659,-0.656 -0.498298,-1.3188 -0.691977,-1.9966 -0.231417,-0.7049 -0.606016,-1.35773 -0.991319,-1.989 -0.37896,-0.59646 -0.753649,-1.1927 -1.098733,-1.8095 -0.321558,-0.64209 -0.803794,-1.17304 -1.276028,-1.70542 -0.409505,-0.53006 -0.934149,-0.90845 -1.49425,-1.25987 -9.487327,-5.48085 -0.344254,-0.21481 -0.521941,-0.31252 -1.696064,-0.93271 -2.707998,-1.77357 -4.323469,-2.29891 -0.713053,-0.30516 -1.44093,-0.56002 -2.144998,-0.8877 -1.056044,-0.49524 -2.192503,-0.79361 -3.284202,-1.2014 -1.464767,-0.58787 -2.972909,-1.06291 -4.428373,-1.67263 -1.289846,-0.45268 -2.529913,-1.03625 -3.840417,-1.42751 -1.052017,-0.28371 -2.140855,-0.37484 -3.213863,-0.54154 -1.010302,-0.16666 -2.031479,-0.24264 -3.053392,-0.28772 -1.046813,-0.0259 -2.094093,-0.0176 -3.141124,-0.0165 -1.178334,0.008 -2.352827,0.13225 -3.529693,0.19319 -1.103814,0.1383 -2.16287,0.46486 -3.212893,0.81843 -1.066247,0.37405 -2.08078,0.86908 -3.089999,1.37228 -1.349094,0.6218 -2.658787,1.32559 -3.963454,2.03601 -1.262321,0.67679 -2.431378,1.49239 -3.504285,2.43863 -0.939096,0.8278 -1.758578,1.7738 -2.59361,2.70273 -0.869085,0.99378 -1.782888,1.95436 -2.600498,2.9915 -0.681756,0.91564 -1.35497,1.8419 -1.951051,2.81615 -0.561216,1.0092 -1.049819,2.0576 -1.556594,3.0952 -0.596471,1.2027 -1.079321,2.4585 -1.521808,3.7248 -0.395543,1.1245 -0.675585,2.2864 -0.932393,3.4493 -0.25385,1.18 -0.305535,2.3881 -0.344266,3.5903 -0.02466,1.1765 -0.02086,2.3533 -0.01941,3.53 -0.0097,1.0922 0.182558,2.1515 0.416579,3.2118 0.194325,0.8564 0.365397,1.7177 0.555925,2.575 0.184645,0.6706 0.362401,1.3411 0.460556,2.0303 0.03736,0.3581 0.02176,0.1803 0.04712,0.5334 0,0 3.353415,1.6821 3.353415,1.6821 l 0,0 c -0.02016,-0.3683 -0.0073,-0.1825 -0.03884,-0.5575 -0.08496,-0.704 -0.246911,-1.3917 -0.459029,-2.0684 -0.199864,-0.8579 -0.365174,-1.7221 -0.567896,-2.5793 -0.110814,-0.4884 -0.262768,-0.9868 -0.33698,-1.4819 -0.08213,-0.548 -0.06549,-1.1119 -0.125639,-1.6621 -0.0022,-1.1735 -0.0081,-2.3473 0.01291,-3.5207 0.02957,-1.1813 0.07465,-2.3679 0.311801,-3.5294 0.248055,-1.1506 0.528522,-2.2982 0.909747,-3.4127 0.42411,-1.2565 0.895394,-2.5018 1.494861,-3.6863 0.507772,-1.0245 1.005224,-2.055 1.553308,-3.0582 0.586523,-0.9628 1.245685,-1.881 1.921354,-2.78281 0.808613,-1.03266 1.70944,-1.99328 2.577104,-2.97607 0.830038,-0.91569 1.656523,-1.83613 2.578574,-2.66199 1.054142,-0.92452 2.200756,-1.7231 3.441787,-2.38029 1.305592,-0.70614 2.6192,-1.40182 3.972083,-2.01325 1.002924,-0.48994 2.017213,-0.9604 3.075576,-1.32021 1.028716,-0.33577 2.066094,-0.65585 3.151799,-0.74146 1.170701,-0.0711 2.340647,-0.18981 3.514521,-0.17841 1.048868,10e-4 2.098264,-4.4e-4 3.146455,0.0419 1.010497,0.05 2.018042,0.14311 3.017069,0.30684 1.066272,0.1485 2.141387,0.28106 3.176876,0.58691 1.286241,0.42339 2.528027,0.97008 3.799732,1.43454 1.471287,0.58204 2.97097,1.09027 4.4441,1.66828 1.105163,0.3969 2.238923,0.7287 3.296503,1.24572 0.716625,0.31437 1.451634,0.5841 2.178129,0.87431 0.221315,0.0856 0.360246,0.13522 0.575661,0.23463 0.0838,0.0387 0.327358,0.1703 0.24777,0.12357 -0.980004,-0.57539 -3.934036,-2.27749 -2.949529,-1.70984 1.596804,0.92068 7.036148,4.0809 0.527884,0.30139 0.543617,0.35415 1.145793,0.62764 1.531727,1.17548 0.490535,0.48976 0.964597,1.02357 1.31878,1.62082 0.338556,0.62772 0.694827,1.23666 1.088268,1.8314 0.39658,0.59608 0.737636,1.23158 1.036698,1.8811 0.163614,0.69371 0.409123,1.36924 0.685977,2.02514 0.27521,0.7969 0.510417,1.5995 0.732658,2.4126 0.234822,0.8799 0.48245,1.7502 0.803019,2.604 0.275809,1.0419 0.539624,2.0874 0.851405,3.119 0.304438,1.1115 0.624809,2.218 0.86301,3.3456 0.203006,0.9997 0.448448,1.9924 0.564257,3.0076 0.07821,0.8597 0.161811,1.7157 0.121199,2.5808 0.0022,0.8806 -0.0035,1.7612 6.23e-4,2.6418 -9.9e-5,0.9448 0.0036,1.8897 0.0057,2.8346 0.0064,1.1825 0.01436,2.365 0.01503,3.5475 -3.4e-5,1.3949 -1.2e-5,2.7921 -0.113997,4.1832 -0.114216,1.0554 -0.27737,2.1124 -0.765761,3.0696 0,0 3.260008,1.8562 3.260008,1.8562 z"
       inkscape:connector-curvature="0" />
    <path
       style="fill:#000080;stroke:#000080"
       id="path3221"
       d="m 23.246047,1023.6974 c -0.396383,1.1122 -0.915097,2.1735 -1.41173,3.2431 -0.431694,0.9224 -0.941314,1.8095 -1.495881,2.6634 -0.511616,0.8331 -0.958597,1.7035 -1.49288,2.5224 -0.549584,0.7555 -1.147792,1.4763 -1.751093,2.1897 -0.487627,0.7376 -1.101924,1.3749 -1.662441,2.0542 -0.399303,0.4445 -0.860785,0.796 -1.337328,1.1465 -0.05178,0.025 -0.101131,0.056 -0.155332,0.075 -0.22885,0.082 -0.364307,-0.1597 -0.32591,-0.1387 2.794793,1.5263 4.045919,2.4711 2.896373,1.6137 -0.685708,-0.5342 -1.405628,-1.024 -2.086725,-1.5649 -0.883806,-0.7619 -1.718473,-1.5855 -2.505012,-2.4474 -0.714468,-0.8828 -1.478409,-1.7236 -2.2298132,-2.5746 -0.5502262,-0.6376 -1.1327658,-1.2441 -1.6593288,-1.902 -0.4213786,-0.6455 -0.9943716,-1.1287 -1.5782901,-1.6181 -0.5117857,-0.3734 -0.9504033,-0.8219 -1.3279028,-1.3281 -0.3045856,-0.5939 -0.4947196,-1.2357 -0.7543393,-1.8497 -0.2630604,-0.5708 -0.3303134,-1.1975 -0.4602112,-1.8053 0,0 -3.37519019,-1.6293 -3.37519019,-1.6293 l 0,0 c 0.13973169,0.6253 0.2053783,1.2698 0.43585948,1.8706 0.26525941,0.6252 0.50438921,1.254 0.72862141,1.895 0.2811953,0.5835 0.7824714,1.0531 1.2857862,1.4534 0.9873371,0.7681 -0.4071913,-0.3279 0.5884388,0.4928 0.098746,0.081 0.478439,0.3464 0.5686011,0.444 0.1713307,0.1856 0.2535282,0.443 0.4551304,0.6058 0.5252005,0.6705 1.0887554,1.3007 1.6676665,1.9246 0.7429904,0.8628 1.5433872,1.6776 2.2367625,2.5812 0.7664689,0.8871 1.6162602,1.705 2.4809972,2.4949 0.634097,0.5695 1.347742,1.0582 2.049549,1.5399 1.085761,1.1387 2.798769,2.8636 4.234961,1.8776 0.501979,-0.3645 0.954127,-0.7759 1.371471,-1.2369 0.553987,-0.6815 1.157238,-1.3247 1.648004,-2.0564 0.611816,-0.7256 1.225317,-1.4532 1.771993,-2.2298 0.537091,-0.8173 0.983435,-1.6885 1.494022,-2.5224 0.56829,-0.8671 1.072549,-1.7788 1.513194,-2.7169 0.489158,-1.0788 0.999329,-2.1472 1.450771,-3.2424 0,0 -3.268794,-1.8254 -3.268794,-1.8254 z"
       inkscape:connector-curvature="0" />
  </g>
</svg>
