<?xml version="1.0" encoding="UTF-8" standalone="no"?>
<!-- Created with Inkscape (http://www.inkscape.org/) -->

<svg
   xmlns:dc="http://purl.org/dc/elements/1.1/"
   xmlns:cc="http://creativecommons.org/ns#"
   xmlns:rdf="http://www.w3.org/1999/02/22-rdf-syntax-ns#"
   xmlns:svg="http://www.w3.org/2000/svg"
   xmlns="http://www.w3.org/2000/svg"
   xmlns:sodipodi="http://sodipodi.sourceforge.net/DTD/sodipodi-0.dtd"
   xmlns:inkscape="http://www.inkscape.org/namespaces/inkscape"
   width="80"
   height="80"
   id="svg2"
   version="1.1"
   inkscape:version="0.48.0 r9654"
   sodipodi:docname="8.svg">
  <defs
     id="defs4" />
  <sodipodi:namedview
     id="base"
     pagecolor="#ffffff"
     bordercolor="#666666"
     borderopacity="1.0"
     inkscape:pageopacity="0.0"
     inkscape:pageshadow="2"
     inkscape:zoom="3.959798"
     inkscape:cx="28.841519"
     inkscape:cy="42.61459"
     inkscape:document-units="px"
     inkscape:current-layer="layer1"
     showgrid="false"
     inkscape:window-width="1920"
     inkscape:window-height="1002"
     inkscape:window-x="0"
     inkscape:window-y="25"
     inkscape:window-maximized="1" />
  <metadata
     id="metadata7">
    <rdf:RDF>
      <cc:Work
         rdf:about="">
        <dc:format>image/svg+xml</dc:format>
        <dc:type
           rdf:resource="http://purl.org/dc/dcmitype/StillImage" />
        <dc:title></dc:title>
      </cc:Work>
    </rdf:RDF>
  </metadata>
  <g
     inkscape:label="Layer 1"
     inkscape:groupmode="layer"
     id="layer1"
     transform="translate(0,-972.36218)">
    <path
       style="fill:#000080;stroke:#000080"
       id="path3298"
       d="M 59.04906,9.7925781 C 57.907858,9.448919 56.744268,9.2008106 55.563796,9.0418944 54.081294,8.8809817 52.586785,8.8378452 51.097157,8.8869661 c -1.563274,0.035502 -3.114951,0.2290626 -4.671673,0.3586156 -1.271598,0.096249 -2.547056,0.1107745 -3.821602,0.121684 -1.124566,0.00683 -2.249166,0.00775 -3.373747,0.00499 -1.146194,5.452e-4 -2.292382,-0.00371 -3.438577,-0.00393 -1.128398,0.091009 -2.264699,0.1200609 -3.388704,0.2564474 -0.975226,0.1959924 -1.955686,0.3587347 -2.917672,0.6145452 -0.973052,0.251586 -1.950813,0.482034 -2.926245,0.723955 -1.061417,0.306426 -2.089843,0.71262 -3.139034,1.058112 -0.915613,0.31882 -1.822612,0.65654 -2.714959,1.039889 -0.621205,0.331248 -1.308989,0.515913 -1.944254,0.812851 -0.297151,0.138896 -0.576858,0.312411 -0.865735,0.467785 -0.349332,0.174871 -0.698685,0.349205 -1.046694,0.526385 -0.09863,0.05021 -0.387527,0.213993 -0.29166,0.158683 0.974688,-0.562342 3.895798,-2.254297 2.928207,-1.679828 -1.148387,0.681808 -2.313763,1.334585 -3.470644,2.001878 5.563771,-3.29744 2.906751,-1.703958 1.681854,-0.876803 -0.516781,0.325015 -0.962616,0.744099 -1.449305,1.108897 -0.603338,0.411533 -1.154957,0.869228 -1.633002,1.421188 -0.43017,0.682376 -0.993706,1.262281 -1.473068,1.907497 -0.49954,0.639929 -0.910717,1.343053 -1.314207,2.045904 -0.370483,0.666346 -0.683879,1.36431 -0.884637,2.100306 -0.128279,0.634046 -0.188135,1.278814 -0.287707,1.918116 -0.097,0.623658 -0.124038,1.25501 -0.139851,1.885049 0.02022,0.681495 -0.03508,1.354504 -0.11676,2.029922 -0.08708,0.719329 -0.119049,1.443244 -0.135618,2.1671 -0.01644,0.811683 -0.01629,1.623575 -0.01403,2.435383 -4.48e-4,0.855942 -0.003,1.711863 0.0011,2.567798 0.0021,0.747525 0.0036,1.495078 0.0027,2.242609 4.72e-4,0.864684 -0.0063,1.729343 -0.0078,2.594031 -0.01772,1.005867 0.02864,2.012942 -0.02255,3.017841 -0.0699,0.825721 -0.178745,1.647979 -0.169886,2.477672 0.08685,0.863406 0.323135,1.70128 0.533314,2.540628 0.221167,0.792229 0.399925,1.596699 0.649937,2.380468 0.213309,0.731107 0.562259,1.409053 0.926973,2.073866 0.319977,0.495093 0.68513,0.980354 1.118096,1.383588 0.392512,0.41639 0.904927,0.653138 1.381637,0.951039 0.51966,0.272187 1.004332,0.601872 1.478436,0.94533 0.504843,0.36431 1.03779,0.676547 1.574477,0.991695 0.616559,0.412595 1.308672,0.689793 1.966891,1.026296 0.745152,0.34582 1.48911,0.693049 2.240064,1.025777 0.964951,0.436801 1.929729,0.875406 2.881552,1.340102 1.284038,0.61049 2.54467,1.267365 3.829792,1.875889 1.211335,0.541083 2.423611,1.079938 3.640159,1.609187 1.339471,0.658988 2.746348,1.152186 4.14023,1.677228 1.162567,0.363217 2.29311,0.801434 3.429801,1.23505 0.859231,0.350822 1.738659,0.642411 2.608406,0.965234 0.945008,0.325778 1.909748,0.59566 2.875891,0.851513 0.932398,0.253583 1.889208,0.364964 2.839291,0.522955 0.671213,0.09296 1.347629,0.224342 2.02876,0.181431 0.374415,-0.02359 0.672924,-0.09357 1.042707,-0.16413 1.28311,-0.306163 2.555382,-0.63337 3.793273,-1.090871 1.52028,-0.479655 5.085229,-2.679605 -0.789457,0.680095 0.336357,-0.2211 0.172196,-0.114558 0.49228,-0.319935 0,0 3.489333,-1.373492 3.489333,-1.373492 l 0,0 c -0.310615,0.233758 -0.145482,0.124967 -0.49702,0.323896 -1.85135,1.092181 -3.57205,2.309057 -5.615893,2.969009 -1.25339,0.435003 -2.543334,0.754966 -3.837692,1.04257 -1.058144,0.157461 -2.099842,0.101689 -3.150215,-0.109441 -0.963001,-0.145593 -1.923895,-0.296922 -2.865281,-0.554083 -0.968281,-0.27112 -1.940279,-0.535868 -2.885909,-0.879583 -0.881855,-0.303525 -1.757706,-0.62143 -2.62292,-0.96995 -1.117802,-0.455806 -2.249099,-0.864689 -3.392776,-1.251944 -1.404323,-0.521502 -2.805291,-1.050539 -4.163886,-1.685007 -1.217738,-0.531779 -2.43054,-1.074679 -3.640505,-1.623928 -1.283433,-0.615759 -2.543834,-1.278032 -3.838456,-1.870375 -0.961196,-0.448186 -1.925914,-0.889111 -2.894977,-1.320073 -0.754736,-0.34015 -1.514934,-0.668796 -2.258219,-1.033684 -0.670046,-0.329282 -1.354429,-0.63509 -1.98217,-1.043243 -0.550642,-0.314659 -1.08444,-0.648594 -1.600455,-1.017788 -0.471473,-0.333412 -0.957245,-0.644636 -1.46436,-0.921722 -0.505478,-0.300909 -1.015197,-0.59058 -1.426977,-1.020722 C 9.6411391,56.288395 9.2471555,55.785158 8.9191246,55.248122 8.5468021,54.561936 8.1836501,53.863697 7.9642373,53.111016 7.7016754,52.322347 7.5297746,51.507414 7.305883,50.707278 7.0820216,49.844483 6.858109,48.978223 6.7333447,48.094671 c -0.040224,-0.841064 0.0651,-1.675937 0.157535,-2.511262 0.080669,-0.996656 0.022027,-1.999205 0.037871,-2.998259 -0.00151,-0.862028 -0.00829,-1.724027 -0.00781,-2.586052 -9.385e-4,-0.748329 5.637e-4,-1.496677 0.00223,-2.245001 0.00355,-0.855843 1.56e-4,-1.711664 -0.00164,-2.567509 0.00161,-0.81342 -0.00189,-1.626869 0.0055,-2.440264 0.014921,-0.733939 0.034887,-1.468562 0.1209616,-2.198363 0.071834,-0.665459 0.1642143,-1.324075 0.1263873,-1.996078 0.011599,-0.644294 0.031947,-1.289053 0.1159615,-1.928818 0.1014539,-0.650856 0.1873929,-1.300242 0.27917,-1.951975 0.1770698,-0.767681 0.4725689,-1.497593 0.8514959,-2.188493 0.3716887,-0.723531 0.8061778,-1.433906 1.2930228,-2.083638 0.2954526,-0.443565 0.6339306,-0.840513 0.9814176,-1.24385 0.0905,-0.105051 0.195357,-0.198577 0.275178,-0.311958 0.08254,-0.11724 0.139386,-0.250604 0.209079,-0.375906 0.44931,-0.594162 0.961988,-1.095043 1.585563,-1.507016 0.499777,-0.354375 0.951153,-0.755942 1.438212,-1.128929 1.572931,-0.953256 2.939578,-2.203696 4.724253,-2.837492 -6.774328,3.920811 -0.295497,0.06408 1.870317,-0.984321 0.91796,-0.47398 1.886741,-0.828005 2.827673,-1.253072 0.898883,-0.368883 1.809196,-0.708002 2.730611,-1.0163118 1.04785,-0.3534983 2.080809,-0.7574701 3.153601,-1.0309902 0.97967,-0.2364808 1.954806,-0.4902654 2.933159,-0.7319869 0.973207,-0.2298367 1.956902,-0.415956 2.944888,-0.5696444 1.131209,-0.1025305 2.266954,-0.1663295 3.401477,-0.2171634 1.148307,2.429e-4 2.296616,-0.00335 3.44492,-3.448e-4 1.121334,-6.688e-4 2.242682,0.00491 3.364005,-0.00262 1.267233,-0.012879 2.535251,-0.036675 3.799022,-0.1387356 1.554201,-0.1280467 3.105567,-0.299724 4.666288,-0.329091 1.507994,-0.031002 3.02194,-8.006e-4 4.519668,0.1927904 1.197539,0.1778786 2.371457,0.4566282 3.547223,0.7427664 0,0 -3.08152,2.1374969 -3.08152,2.1374969 z"
       inkscape:connector-curvature="0"
       transform="translate(0,972.36218)" />
    <path
       style="fill:#000080;stroke:#000080"
       id="path3300"
       d="m 49.856674,56.555856 c 1.567346,0.36118 3.135695,0.71681 4.703587,1.075278 1.621638,0.329628 3.17252,0.907278 4.738154,1.429209 1.346143,0.449049 2.677003,0.942398 4.006405,1.438362 0.96309,0.32154 1.910054,0.67635 2.824212,1.117035 0.571352,0.30878 1.087484,0.717266 1.57506,1.143799 0.404992,0.367932 0.703391,0.833734 1.002064,1.287805 0.3079,0.504482 0.244697,1.074447 0.115577,1.623599 -0.276257,0.947249 -0.735703,1.832967 -1.214285,2.691824 -0.439066,0.947923 -1.103924,1.738899 -1.802394,2.502642 -0.627772,0.626315 -1.364038,1.127539 -2.076885,1.650075 -0.632506,0.470352 -1.310121,0.873298 -1.963105,1.313662 -1.598887,1.18848 -3.364615,2.092841 -5.093893,3.083797 -0.671917,0.21112 -1.29095,0.554022 -1.973346,0.726236 -0.555249,0.17339 -1.087477,0.422627 -1.586656,0.719458 0,0 2.915525,-2.34754 2.915525,-2.34754 l 0,0 c 0.528547,-0.258712 1.06181,-0.509104 1.63347,-0.659564 0.651178,-0.229911 1.292216,-0.497894 1.921637,-0.781053 -5.599141,3.255122 -2.481307,1.536534 -1.295857,0.626814 0.646438,-0.458396 1.331153,-0.851431 1.975214,-1.31246 0.720593,-0.500881 1.428817,-1.025013 2.104173,-1.58545 0.721233,-0.722484 1.418134,-1.493392 1.854042,-2.426838 0.48472,-0.822442 0.924643,-1.682845 1.222164,-2.591724 0.137725,-0.431779 0.261622,-0.919505 0.02253,-1.337356 -0.277866,-0.426637 -0.553863,-0.86541 -0.942305,-1.201622 -0.470581,-0.400553 -0.958129,-0.791189 -1.513785,-1.068284 -0.892453,-0.44116 -1.8316,-0.771191 -2.765951,-1.112278 -1.325939,-0.492872 -2.653916,-0.981179 -3.994944,-1.43176 -1.551274,-0.525756 -3.092608,-1.090427 -4.704473,-1.408294 -1.586429,-0.365534 -3.173975,-0.727035 -4.770217,-1.047625 0,0 3.084283,-2.117747 3.084283,-2.117747 z"
       inkscape:connector-curvature="0"
       transform="translate(0,972.36218)" />
  </g>
</svg>
