<?xml version="1.0" encoding="UTF-8" standalone="no"?>
<!-- Created with Inkscape (http://www.inkscape.org/) -->

<svg
   xmlns:dc="http://purl.org/dc/elements/1.1/"
   xmlns:cc="http://creativecommons.org/ns#"
   xmlns:rdf="http://www.w3.org/1999/02/22-rdf-syntax-ns#"
   xmlns:svg="http://www.w3.org/2000/svg"
   xmlns="http://www.w3.org/2000/svg"
   xmlns:sodipodi="http://sodipodi.sourceforge.net/DTD/sodipodi-0.dtd"
   xmlns:inkscape="http://www.inkscape.org/namespaces/inkscape"
   width="80"
   height="80"
   id="svg2"
   version="1.1"
   inkscape:version="0.48.0 r9654"
   sodipodi:docname="9.svg">
  <defs
     id="defs4" />
  <sodipodi:namedview
     id="base"
     pagecolor="#ffffff"
     bordercolor="#666666"
     borderopacity="1.0"
     inkscape:pageopacity="0.0"
     inkscape:pageshadow="2"
     inkscape:zoom="3.959798"
     inkscape:cx="28.841519"
     inkscape:cy="42.61459"
     inkscape:document-units="px"
     inkscape:current-layer="layer1"
     showgrid="false"
     inkscape:window-width="1920"
     inkscape:window-height="1002"
     inkscape:window-x="0"
     inkscape:window-y="25"
     inkscape:window-maximized="1" />
  <metadata
     id="metadata7">
    <rdf:RDF>
      <cc:Work
         rdf:about="">
        <dc:format>image/svg+xml</dc:format>
        <dc:type
           rdf:resource="http://purl.org/dc/dcmitype/StillImage" />
        <dc:title></dc:title>
      </cc:Work>
    </rdf:RDF>
  </metadata>
  <g
     inkscape:label="Layer 1"
     inkscape:groupmode="layer"
     id="layer1"
     transform="translate(0,-972.36218)">
    <path
       style="fill:#000080;stroke:#000080"
       id="path3343"
       d="m 20.806554,66.153819 c 0.03401,-1.409482 0.02895,-2.819641 0.02972,-4.229449 0.0023,-1.606571 2.47e-4,-3.213134 1.99e-4,-4.819706 8.71e-4,-1.42968 -0.0077,-2.859344 -0.0089,-4.28902 -0.01246,-1.284913 0.02822,-2.57091 -0.02725,-3.854904 -0.07734,-1.071191 -0.156349,-2.14201 -0.205634,-3.214918 -0.03339,-0.920488 -0.03267,-1.841811 -0.02972,-2.762765 0.0023,-1.021897 -0.0022,-2.043795 0.0014,-3.06569 0.0012,-1.092248 0.006,-2.184484 0.0011,-3.276728 -0.0059,-0.913501 -0.0029,-1.827019 -0.0056,-2.740526 0.01448,-0.838293 -0.112015,-1.669988 -0.178123,-2.504089 -0.0552,-0.829931 -0.06565,-1.661895 -0.07659,-2.493318 -0.05948,-0.727904 -0.154742,-1.451018 -0.203867,-2.180145 -0.03992,-0.742584 -0.04626,-1.486383 -0.05318,-2.229841 -0.0021,-0.705145 0.0017,-1.410283 0.0016,-2.115426 -0.0012,-0.607006 -0.0035,-1.214009 -0.0047,-1.821015 -8.93e-4,-0.511538 -9.81e-4,-1.023077 -0.001,-1.534615 -3.2e-5,-0.503893 -5e-6,-1.007785 7e-6,-1.511678 1.3e-5,-0.5049 1.5e-5,-1.009801 1.7e-5,-1.514701 1e-6,-0.336722 1e-6,-0.673444 1e-6,-1.010166 0,0 3.344669,-1.704194 3.344669,-1.704194 l 0,0 c 0,0.336722 0,0.673443 1e-6,1.010165 2e-6,0.504894 5e-6,1.009788 1.9e-5,1.514682 1.6e-5,0.503886 4.8e-5,1.007773 2.5e-5,1.511659 -6e-5,0.511931 -1.28e-4,1.023862 -0.0011,1.535791 -0.0014,0.608954 -0.004,1.217902 -0.0062,1.826853 -0.0012,0.704019 1.34e-4,1.408041 8.62e-4,2.112059 -5.17e-4,0.737699 0.0016,1.47576 0.0385,2.212727 0.04313,0.736028 0.13241,1.466224 0.212692,2.198837 0.0018,0.824351 0.0088,1.649286 0.06157,2.472238 0.06202,0.843772 0.188761,1.684484 0.18791,2.531049 -0.0026,0.915419 3.1e-4,1.830849 -0.0056,2.746261 -0.0049,1.092106 -3.28e-4,2.184206 2.5e-5,3.276318 0.0027,1.021567 -0.0038,2.043127 -8.35e-4,3.064694 0.0052,0.915627 0.0048,1.831415 0.03046,2.746778 0.03353,1.075864 0.10121,2.149803 0.182202,3.223097 0.0676,1.289297 0.01859,2.58113 0.03316,3.871772 -0.0012,1.432705 -0.0098,2.8654 -0.0089,4.298109 -4.8e-5,1.606504 -0.0021,3.213 1.99e-4,4.819504 7.7e-4,1.399709 -0.0045,2.799784 0.02972,4.199158 0,0 -3.338681,1.701143 -3.338681,1.701143 z"
       inkscape:connector-curvature="0"
       transform="translate(0,972.36218)" />
    <path
       style="fill:#000080;stroke:#000080"
       id="path3345"
       d="m 8.4513489,23.992493 c 0.1470451,-0.973334 0.5162954,-1.88752 0.9381725,-2.769923 0.4873129,-0.98096 1.0580426,-1.917515 1.6313096,-2.850001 0.449123,-0.742114 0.892793,-1.488271 1.328068,-2.238717 0.272282,-0.550724 0.656547,-1.029552 1.013481,-1.525322 0.338711,-0.567618 0.678122,-1.134489 1.027278,-1.696316 0.284095,-0.506183 0.502611,-1.027471 0.858894,-1.4899 0.231641,-0.418016 0.530981,-0.706406 0.930104,-0.956804 0.405875,-0.359753 0.877936,-0.6305952 1.299609,-0.9680184 0.436334,-0.3973881 0.91613,-0.7378055 1.413318,-1.0535236 1.373082,-0.8584442 2.694036,-2.6197585 4.343625,-2.1925817 0.458538,0.2101921 0.795845,0.5878759 1.186919,0.896774 0.570025,0.4479756 1.135449,0.9046536 1.731312,1.3180317 0.592732,0.429138 1.179984,0.8616803 1.812085,1.2314783 0.74055,0.4474837 1.489944,0.8824277 2.253701,1.2890617 0.627745,0.357533 1.260723,0.699959 1.8023,1.181729 0.388883,0.345207 0.806467,0.663416 1.162669,1.043818 0.345241,0.40788 0.651567,0.82578 1.067236,1.164362 0.418078,0.348673 0.713885,0.791389 1.021315,1.231611 0.261575,0.508371 0.49175,1.026461 0.782578,1.522327 0.322016,0.549609 0.712659,1.053592 1.048396,1.594151 0.271531,0.354881 0.483517,0.748606 0.720478,1.126674 0.298087,0.424387 0.532485,0.890165 0.782281,1.344232 0,0 -3.251865,1.86847 -3.251865,1.86847 l 0,0 C 35.108582,22.616633 34.873107,22.159709 34.576394,21.743753 34.336218,21.366174 34.128216,20.969603 33.86118,20.609733 33.527337,20.066337 33.144935,19.553919 32.818015,19.00586 32.523996,18.521323 32.284121,18.017014 32.035961,17.511075 31.753101,17.0933 31.466664,16.687007 31.06836,16.366265 30.653034,16.010126 30.344698,15.57195 29.980177,15.166875 29.622119,14.80489 29.21571,14.491786 28.840088,14.148447 28.310955,13.698747 27.696009,13.372801 27.097384,13.025345 26.336171,12.602399 25.57386,12.180552 24.829241,11.72878 24.194776,11.34604 23.600708,10.904553 22.999564,10.472172 22.407212,10.04072 21.826097,9.5936248 21.248788,9.1423086 20.915679,8.8747926 20.598977,8.5044612 20.161069,8.4265156 c -0.227635,0.00949 -0.523617,0.1984872 -0.428629,0.142489 5.10678,-3.0106011 3.731752,-2.2860073 2.650699,-1.4986464 -0.467262,0.3522986 -1.007577,0.6063425 -1.434681,1.0169097 -0.06828,0.06501 -0.372542,0.3610221 -0.456166,0.4161931 -0.07741,0.051074 -0.172556,0.070062 -0.25204,0.117852 -0.20519,0.1233729 -0.392607,0.2976793 -0.568532,0.457714 -0.34279,0.294899 -0.80603,0.3846077 -0.975911,0.8588711 -0.151789,0.2054689 -0.34783,0.3881779 -0.479361,0.6073549 -0.179433,0.298999 -0.0976,0.250874 -0.247964,0.581022 -0.04371,0.09597 -0.101637,0.1848 -0.152456,0.2772 -0.360424,0.558481 -0.728964,1.114874 -1.015346,1.716272 -0.354564,0.488077 -0.742189,0.955169 -1.033847,1.485102 -0.176427,0.332955 -0.389359,0.629657 -0.584573,0.950674 -0.263772,0.433755 -0.456877,0.909001 -0.765585,1.315869 -0.567271,0.927545 -1.149737,1.846287 -1.638148,2.817411 -0.433565,0.834112 -0.81069,1.704264 -0.966411,2.637876 0,0 -3.3607691,1.665814 -3.3607691,1.665814 z"
       inkscape:connector-curvature="0"
       transform="translate(0,972.36218)" />
    <path
       style="fill:#000080;stroke:#000080"
       id="path3347"
       d="m 57.704059,66.077626 c 0.295728,-1.887569 0.383444,-3.79689 0.453704,-5.703415 0.0674,-2.202553 0.06281,-4.406363 0.07771,-6.609664 0.0046,-2.583386 -9.7e-4,-5.165765 0.07786,-7.748091 0.04232,-2.220936 0.337649,-4.425767 0.504,-6.639081 0.08618,-1.514042 0.211322,-3.025802 0.389789,-4.531706 0.129628,-1.150043 0.310112,-2.292456 0.412588,-3.445649 0.05345,-0.912772 0.186914,-1.817646 0.262122,-2.728654 0.04794,-0.604896 0.06074,-1.211628 0.06619,-1.818135 0.0015,-0.541049 8.82e-4,-1.082074 0.0044,-1.623116 -4.91e-4,-0.712224 0.0032,-1.42443 0.0012,-2.136654 0.0092,-0.771487 0.01559,-1.539731 -0.0609,-2.307872 -0.137044,-0.716437 -0.247876,-1.439373 -0.396852,-2.153403 -0.02222,-0.09504 -0.04443,-0.190086 -0.06665,-0.28513 0,0 3.299667,-1.7774 3.299667,-1.7774 l 0,0 c 0.02248,0.0971 0.04496,0.194189 0.06744,0.291283 0.162119,0.725104 0.234165,1.469929 0.405672,2.194255 0.08741,0.779218 0.09722,1.556704 0.08305,2.340753 -0.0017,0.711316 0.0022,1.422612 0.0033,2.133927 0.0048,0.540965 0.0078,1.08194 0.0042,1.622927 -0.0054,0.61764 -0.01858,1.235539 -0.06983,1.851376 -0.07812,0.914271 -0.21341,1.822027 -0.276642,2.736955 -0.09787,1.16081 -0.283826,2.309061 -0.423406,3.464848 -0.184139,1.507682 -0.343632,3.018806 -0.432484,4.53562 -0.178057,2.216061 -0.495588,4.4217 -0.554045,6.645527 -0.08436,2.575939 -0.08709,5.151352 -0.06316,7.728547 0.0067,2.207699 -0.01143,4.415488 -0.07611,6.62237 -0.06305,1.892526 -0.123098,3.788164 -0.347673,5.669992 0,0 -3.345222,1.66959 -3.345222,1.66959 z"
       inkscape:connector-curvature="0"
       transform="translate(0,972.36218)" />
    <path
       style="fill:#000080;stroke:#000080"
       id="path3349"
       d="m 72.184584,23.946496 c -0.591666,-0.617121 -1.251806,-1.168755 -1.848219,-1.78037 -0.08428,-0.08642 -0.962102,-1.077998 -1.042129,-1.168199 -0.98955,-1.134924 -1.840251,-2.37995 -2.742841,-3.582891 C 65.639449,16.164596 64.880862,14.814 64.080084,13.492333 63.416755,12.292933 62.686415,11.132493 62.025758,9.9317579 61.533029,9.1163575 61.124025,8.2547315 60.648911,7.4299193 60.366887,7.035718 59.995171,6.3179471 59.427293,6.3593524 c -1.082323,0.803643 -0.03949,0.020364 2.953962,-1.6142326 0.07062,-0.038563 -0.140245,0.081482 -0.199464,0.1359569 -0.29192,0.2685307 -0.465363,0.6554557 -0.648321,0.9975173 -0.397709,0.9327954 -0.880287,1.8260067 -1.381619,2.7063402 -0.624161,0.8800782 -1.221191,1.7767048 -1.808539,2.6817198 -0.590138,0.942555 -1.245421,1.838254 -1.941331,2.704429 -0.650071,0.817542 -1.505075,1.428914 -2.356071,2.019195 -1.69553,1.262715 -3.572767,2.214862 -5.391546,3.291121 -0.946212,0.55992 1.907196,-1.094489 2.860794,-1.641734 -0.537952,0.294423 -1.02602,0.663057 -1.526207,1.014664 -1.258624,0.849974 -2.631025,1.572024 -3.936345,2.308154 -0.0805,0.0454 -0.338292,0.14685 -0.258531,0.100167 3.639348,-2.130036 3.906519,-2.319038 2.787171,-1.560796 -0.279027,0.20014 -0.144679,0.09712 -0.403568,0.308361 0,0 -3.470808,1.429094 -3.470808,1.429094 l 0,0 c 0.235126,-0.261876 0.10778,-0.141246 0.382046,-0.361879 1.275379,-0.921547 0.229257,-0.176129 3.643783,-2.146182 0.07744,-0.04468 0.315117,-0.168941 0.237982,-0.12373 -0.9843,0.57692 -1.971139,1.149516 -2.959748,1.719019 -0.165846,0.09554 0.6443,-0.40374 0.491643,-0.296611 0.501918,-0.358571 0.986017,-0.745224 1.529295,-1.041144 8.770958,-5.106127 1.274074,-0.740579 0.73199,-0.428845 -0.146383,0.08418 0.287674,-0.176918 0.431574,-0.265273 0.71505,-0.439041 0.216196,-0.115249 0.918558,-0.616729 0.157473,-0.112434 0.317193,-0.221689 0.475789,-0.332534 0.850078,-0.561462 1.704961,-1.150306 2.389126,-1.912007 0.691273,-0.866398 1.396271,-1.721305 1.96633,-2.676687 0.591271,-0.894289 1.138897,-1.818153 1.803558,-2.662464 0.532474,-0.8518801 1.009659,-1.7543116 1.39131,-2.6834621 0.793585,-1.6371108 2.038235,-3.5287027 4.373263,-3.1995564 0.619291,0.250798 1.03197,0.7951244 1.3691,1.3542249 0.468866,0.8313973 0.874347,1.6973847 1.360638,2.5197329 0.645987,1.2025343 1.360157,2.3659187 2.024021,3.5585607 0.791751,1.312907 1.545258,2.65238 2.454726,3.889775 0.895984,1.195023 1.7414,2.430765 2.722971,3.558845 0.114005,0.12771 0.896419,1.007908 1.025846,1.138363 0.608344,0.613172 1.280138,1.166393 1.909183,1.757706 0,0 -3.19527,1.958064 -3.19527,1.958064 z"
       inkscape:connector-curvature="0"
       transform="translate(0,972.36218)" />
  </g>
</svg>
