<?xml version="1.0" encoding="UTF-8" standalone="no"?>
<!-- Created with Inkscape (http://www.inkscape.org/) -->

<svg
   xmlns:dc="http://purl.org/dc/elements/1.1/"
   xmlns:cc="http://creativecommons.org/ns#"
   xmlns:rdf="http://www.w3.org/1999/02/22-rdf-syntax-ns#"
   xmlns:svg="http://www.w3.org/2000/svg"
   xmlns="http://www.w3.org/2000/svg"
   xmlns:sodipodi="http://sodipodi.sourceforge.net/DTD/sodipodi-0.dtd"
   xmlns:inkscape="http://www.inkscape.org/namespaces/inkscape"
   width="80"
   height="80"
   id="svg2"
   version="1.1"
   inkscape:version="0.48.0 r9654"
   sodipodi:docname="d0.svg">
  <defs
     id="defs4" />
  <sodipodi:namedview
     id="base"
     pagecolor="#ffffff"
     bordercolor="#666666"
     borderopacity="1.0"
     inkscape:pageopacity="0.0"
     inkscape:pageshadow="2"
     inkscape:zoom="3.959798"
     inkscape:cx="28.841519"
     inkscape:cy="42.61459"
     inkscape:document-units="px"
     inkscape:current-layer="layer1"
     showgrid="false"
     inkscape:window-width="1920"
     inkscape:window-height="1002"
     inkscape:window-x="0"
     inkscape:window-y="25"
     inkscape:window-maximized="1" />
  <metadata
     id="metadata7">
    <rdf:RDF>
      <cc:Work
         rdf:about="">
        <dc:format>image/svg+xml</dc:format>
        <dc:type
           rdf:resource="http://purl.org/dc/dcmitype/StillImage" />
        <dc:title></dc:title>
      </cc:Work>
    </rdf:RDF>
  </metadata>
  <g
     inkscape:label="Layer 1"
     inkscape:groupmode="layer"
     id="layer1"
     transform="translate(0,-972.36218)">
    <path
       style="fill:#000080;stroke:#000080"
       id="path3343"
       d="m 20.04894,980.57635 c 0.03401,1.40948 0.02895,2.81964 0.02972,4.22945 0.0023,1.60657 2.47e-4,3.21313 1.99e-4,4.81971 8.71e-4,1.42968 -0.0077,2.85934 -0.0089,4.28902 -0.01246,1.28491 0.02822,2.57091 -0.02725,3.8549 -0.07734,1.07119 -0.156349,2.14201 -0.205634,3.21487 -0.03339,0.9205 -0.03267,1.8418 -0.02972,2.7628 0.0023,1.0219 -0.0022,2.0438 0.0014,3.0657 0.0012,1.0922 0.006,2.1845 0.0011,3.2767 -0.0059,0.9135 -0.0029,1.827 -0.0056,2.7405 0.01448,0.8383 -0.112015,1.67 -0.178123,2.5041 -0.0552,0.83 -0.06565,1.6619 -0.07659,2.4934 -0.05948,0.7279 -0.154742,1.451 -0.203867,2.1801 -0.03992,0.7426 -0.04626,1.4864 -0.05318,2.2298 -0.0021,0.7052 0.0017,1.4103 0.0016,2.1155 -0.0012,0.607 -0.0035,1.214 -0.0047,1.821 -8.93e-4,0.5115 -9.81e-4,1.0231 -10e-4,1.5346 -3.2e-5,0.5039 -5e-6,1.0078 7e-6,1.5117 1.3e-5,0.5049 1.5e-5,1.0098 1.7e-5,1.5147 10e-7,0.3367 10e-7,0.6734 10e-7,1.0101 0,0 3.344669,1.7042 3.344669,1.7042 l 0,0 c 0,-0.3367 0,-0.6734 1e-6,-1.0101 2e-6,-0.5049 5e-6,-1.0098 1.9e-5,-1.5147 1.6e-5,-0.5039 4.8e-5,-1.0078 2.5e-5,-1.5117 -6e-5,-0.5119 -1.28e-4,-1.0238 -0.0011,-1.5358 -0.0014,-0.6089 -0.004,-1.2179 -0.0062,-1.8268 -0.0012,-0.704 1.34e-4,-1.4081 8.62e-4,-2.1121 -5.17e-4,-0.7377 0.0016,-1.4757 0.0385,-2.2127 0.04313,-0.736 0.13241,-1.4662 0.212692,-2.1988 0.0018,-0.8244 0.0088,-1.6493 0.06157,-2.4723 0.06202,-0.8437 0.188761,-1.6845 0.18791,-2.531 -0.0026,-0.9154 3.1e-4,-1.8309 -0.0056,-2.7463 -0.0049,-1.0921 -3.28e-4,-2.1842 2.5e-5,-3.2763 0.0027,-1.0216 -0.0038,-2.0431 -8.35e-4,-3.0647 0.0052,-0.9156 0.0048,-1.8314 0.03046,-2.7468 0.03353,-1.0759 0.10121,-2.1498 0.182202,-3.22306 0.0676,-1.2893 0.01859,-2.58113 0.03316,-3.87178 -0.0012,-1.4327 -0.0098,-2.8654 -0.0089,-4.2981 -4.8e-5,-1.60651 -0.0021,-3.213 1.99e-4,-4.81951 7.7e-4,-1.39971 -0.0045,-2.79978 0.02972,-4.19916 0,0 -3.338681,-1.70114 -3.338681,-1.70114 z"
       inkscape:connector-curvature="0" />
    <path
       style="fill:#000080;stroke:#000080"
       id="path3345"
       d="m 7.6937345,1022.7377 c 0.1470451,0.9733 0.5162954,1.8875 0.9381725,2.7699 0.4873129,0.9809 1.0580427,1.9175 1.63131,2.85 0.449123,0.7421 0.892793,1.4883 1.328068,2.2387 0.272282,0.5507 0.656547,1.0296 1.013481,1.5253 0.338711,0.5676 0.678122,1.1345 1.027278,1.6963 0.284095,0.5062 0.502611,1.0275 0.858894,1.4899 0.231641,0.4181 0.530981,0.7065 0.930104,0.9568 0.405875,0.3598 0.877936,0.6306 1.299609,0.9681 0.436334,0.3974 0.91613,0.7378 1.413318,1.0535 1.373082,0.8584 2.694036,2.6198 4.343625,2.1926 0.458538,-0.2102 0.795845,-0.5879 1.186919,-0.8968 0.570025,-0.448 1.135449,-0.9047 1.731312,-1.318 0.592732,-0.4292 1.179984,-0.8617 1.812085,-1.2315 0.74055,-0.4475 1.489944,-0.8824 2.253701,-1.2891 0.627745,-0.3575 1.260723,-0.6999 1.8023,-1.1817 0.388883,-0.3452 0.806467,-0.6634 1.162669,-1.0438 0.345241,-0.4079 0.651567,-0.8258 1.067236,-1.1644 0.418078,-0.3487 0.713885,-0.7914 1.021315,-1.2316 0.261575,-0.5084 0.49175,-1.0265 0.782578,-1.5223 0.322016,-0.5496 0.712659,-1.0536 1.048396,-1.5942 0.271531,-0.3549 0.483517,-0.7486 0.720478,-1.1266 0.298087,-0.4244 0.532485,-0.8902 0.782281,-1.3443 0,0 -3.251865,-1.8684 -3.251865,-1.8684 l 0,0 c -0.246031,0.4474 -0.481506,0.9044 -0.778219,1.3203 -0.240176,0.3776 -0.448178,0.7742 -0.715214,1.134 -0.333843,0.5434 -0.716245,1.0558 -1.043165,1.6039 -0.294019,0.4845 -0.533894,0.9888 -0.782054,1.4948 -0.28286,0.4178 -0.569297,0.8241 -0.967601,1.1448 -0.415326,0.3561 -0.723662,0.7943 -1.088183,1.1994 -0.358058,0.362 -0.764467,0.6751 -1.140089,1.0184 -0.529133,0.4497 -1.144079,0.7757 -1.742704,1.1231 -0.761213,0.423 -1.523524,0.8448 -2.268143,1.2966 -0.634465,0.3827 -1.228533,0.8242 -1.829677,1.2566 -0.592352,0.4314 -1.173467,0.8785 -1.750776,1.3299 -0.333109,0.2675 -0.649811,0.6378 -1.087719,0.7157 -0.227635,-0.01 -0.523617,-0.1984 -0.428629,-0.1424 5.10678,3.0106 3.731752,2.286 2.650699,1.4986 -0.467262,-0.3523 -1.007577,-0.6063 -1.434681,-1.0169 -0.06828,-0.065 -0.372542,-0.361 -0.456166,-0.4162 -0.07741,-0.051 -0.172556,-0.07 -0.25204,-0.1179 -0.20519,-0.1233 -0.392607,-0.2976 -0.568532,-0.4577 -0.34279,-0.2949 -0.80603,-0.3846 -0.975911,-0.8588 -0.151789,-0.2055 -0.34783,-0.3882 -0.479361,-0.6074 -0.179433,-0.299 -0.0976,-0.2509 -0.247964,-0.581 -0.04371,-0.096 -0.101637,-0.1848 -0.152456,-0.2772 -0.360424,-0.5585 -0.728964,-1.1149 -1.015346,-1.7163 -0.354564,-0.4881 -0.742189,-0.9552 -1.033847,-1.4851 -0.176427,-0.3329 -0.389359,-0.6296 -0.584573,-0.9507 -0.263772,-0.4337 -0.456877,-0.909 -0.765585,-1.3158 -0.567271,-0.9276 -1.149737,-1.8463 -1.638148,-2.8174 -0.433565,-0.8342 -0.81069,-1.7043 -0.966411,-2.6379 0,0 -3.3607695,-1.6658 -3.3607695,-1.6658 z"
       inkscape:connector-curvature="0" />
    <path
       style="fill:#000080;stroke:#000080"
       id="path3347"
       d="m 56.946445,980.65254 c 0.295728,1.88757 0.383444,3.79689 0.453704,5.70342 0.0674,2.20255 0.06281,4.40636 0.07771,6.60966 0.0046,2.58339 -9.7e-4,5.16577 0.07786,7.74808 0.04232,2.2209 0.337649,4.4258 0.504,6.6391 0.08618,1.514 0.211322,3.0258 0.389789,4.5317 0.129628,1.15 0.310112,2.2924 0.412588,3.4456 0.05345,0.9128 0.186914,1.8177 0.262122,2.7287 0.04794,0.6049 0.06074,1.2116 0.06619,1.8181 0.0015,0.5411 8.82e-4,1.0821 0.0044,1.6231 -4.91e-4,0.7123 0.0032,1.4245 0.0012,2.1367 0.0092,0.7715 0.01559,1.5397 -0.0609,2.3079 -0.137044,0.7164 -0.247876,1.4393 -0.396852,2.1534 -0.02222,0.095 -0.04443,0.1901 -0.06665,0.2851 0,0 3.299667,1.7774 3.299667,1.7774 l 0,0 c 0.02248,-0.097 0.04496,-0.1942 0.06744,-0.2913 0.162119,-0.7251 0.234165,-1.4699 0.405672,-2.1942 0.08741,-0.7793 0.09722,-1.5567 0.08305,-2.3408 -0.0017,-0.7113 0.0022,-1.4226 0.0033,-2.1339 0.0048,-0.541 0.0078,-1.082 0.0042,-1.6229 -0.0054,-0.6177 -0.01858,-1.2356 -0.06983,-1.8514 -0.07812,-0.9143 -0.21341,-1.822 -0.276642,-2.737 -0.09787,-1.1608 -0.283826,-2.309 -0.423406,-3.4648 -0.184139,-1.5077 -0.343632,-3.0188 -0.432484,-4.5356 -0.178057,-2.2161 -0.495588,-4.4217 -0.554045,-6.6456 -0.08436,-2.5759 -0.08709,-5.15131 -0.06316,-7.7285 0.0067,-2.2077 -0.01143,-4.41549 -0.07611,-6.62237 -0.06305,-1.89253 -0.123098,-3.78817 -0.347673,-5.67 0,0 -3.345222,-1.66959 -3.345222,-1.66959 z"
       inkscape:connector-curvature="0" />
    <path
       style="fill:#000080;stroke:#000080"
       id="path3349"
       d="m 71.42697,1022.7837 c -0.591666,0.6171 -1.251806,1.1687 -1.848219,1.7803 -0.08428,0.087 -0.962102,1.078 -1.042129,1.1682 -0.98955,1.135 -1.840251,2.38 -2.742841,3.5829 -0.911946,1.2505 -1.670533,2.6011 -2.471311,3.9227 -0.663329,1.1994 -1.393669,2.3599 -2.054326,3.5606 -0.492729,0.8154 -0.901733,1.677 -1.376847,2.5018 -0.282024,0.3942 -0.65374,1.112 -1.221618,1.0706 -1.082323,-0.8036 -0.03949,-0.02 2.953962,1.6142 0.07062,0.039 -0.140245,-0.081 -0.199464,-0.1359 -0.29192,-0.2685 -0.465363,-0.6555 -0.648321,-0.9975 -0.397709,-0.9328 -0.880287,-1.826 -1.381619,-2.7064 -0.624161,-0.8801 -1.221191,-1.7767 -1.808539,-2.6817 -0.590138,-0.9425 -1.245421,-1.8382 -1.941331,-2.7044 -0.650071,-0.8176 -1.505075,-1.4289 -2.356071,-2.0192 -1.69553,-1.2627 -3.572767,-2.2149 -5.391546,-3.2911 -0.946212,-0.56 1.907196,1.0944 2.860794,1.6417 -0.537952,-0.2944 -1.02602,-0.6631 -1.526207,-1.0147 -1.258624,-0.8499 -2.631025,-1.572 -3.936345,-2.3081 -0.0805,-0.045 -0.338292,-0.1469 -0.258531,-0.1002 3.639348,2.13 3.906519,2.319 2.787171,1.5608 -0.279027,-0.2001 -0.144679,-0.097 -0.403568,-0.3084 0,0 -3.470808,-1.429 -3.470808,-1.429 l 0,0 c 0.235126,0.2618 0.10778,0.1412 0.382046,0.3618 1.275379,0.9216 0.229257,0.1762 3.643783,2.1462 0.07744,0.045 0.315117,0.169 0.237982,0.1237 -0.9843,-0.5769 -1.971139,-1.1495 -2.959748,-1.719 -0.165846,-0.096 0.6443,0.4038 0.491643,0.2966 0.501918,0.3586 0.986017,0.7453 1.529295,1.0412 8.770958,5.1061 1.274074,0.7406 0.73199,0.4288 -0.146383,-0.084 0.287674,0.1769 0.431574,0.2653 0.71505,0.439 0.216196,0.1152 0.918558,0.6167 0.157473,0.1125 0.317193,0.2217 0.475789,0.3326 0.850078,0.5614 1.704961,1.1503 2.389126,1.912 0.691273,0.8664 1.396271,1.7213 1.96633,2.6767 0.591271,0.8942 1.138897,1.8181 1.803558,2.6624 0.532474,0.8519 1.009659,1.7543 1.39131,2.6835 0.793585,1.6371 2.038235,3.5287 4.373263,3.1995 0.619291,-0.2508 1.03197,-0.7951 1.3691,-1.3542 0.468866,-0.8314 0.874347,-1.6974 1.360638,-2.5197 0.645987,-1.2026 1.360157,-2.3659 2.024021,-3.5586 0.791751,-1.3129 1.545258,-2.6524 2.454726,-3.8898 0.895984,-1.195 1.7414,-2.4307 2.722971,-3.5588 0.114005,-0.1277 0.896419,-1.0079 1.025846,-1.1384 0.608344,-0.6131 1.280138,-1.1664 1.909183,-1.7577 0,0 -3.19527,-1.958 -3.19527,-1.958 z"
       inkscape:connector-curvature="0" />
  </g>
</svg>
