<?xml version="1.0" encoding="UTF-8" standalone="no"?>
<!-- Created with Inkscape (http://www.inkscape.org/) -->

<svg
   xmlns:dc="http://purl.org/dc/elements/1.1/"
   xmlns:cc="http://creativecommons.org/ns#"
   xmlns:rdf="http://www.w3.org/1999/02/22-rdf-syntax-ns#"
   xmlns:svg="http://www.w3.org/2000/svg"
   xmlns="http://www.w3.org/2000/svg"
   xmlns:sodipodi="http://sodipodi.sourceforge.net/DTD/sodipodi-0.dtd"
   xmlns:inkscape="http://www.inkscape.org/namespaces/inkscape"
   width="80"
   height="80"
   id="svg2"
   version="1.1"
   inkscape:version="0.48.0 r9654"
   sodipodi:docname="d1.svg">
  <defs
     id="defs4" />
  <sodipodi:namedview
     id="base"
     pagecolor="#ffffff"
     bordercolor="#666666"
     borderopacity="1.0"
     inkscape:pageopacity="0.0"
     inkscape:pageshadow="2"
     inkscape:zoom="3.959798"
     inkscape:cx="28.841519"
     inkscape:cy="42.61459"
     inkscape:document-units="px"
     inkscape:current-layer="layer1"
     showgrid="false"
     inkscape:window-width="1920"
     inkscape:window-height="1002"
     inkscape:window-x="0"
     inkscape:window-y="25"
     inkscape:window-maximized="1" />
  <metadata
     id="metadata7">
    <rdf:RDF>
      <cc:Work
         rdf:about="">
        <dc:format>image/svg+xml</dc:format>
        <dc:type
           rdf:resource="http://purl.org/dc/dcmitype/StillImage" />
        <dc:title></dc:title>
      </cc:Work>
    </rdf:RDF>
  </metadata>
  <g
     inkscape:label="Layer 1"
     inkscape:groupmode="layer"
     id="layer1"
     transform="translate(0,-972.36218)">
    <path
       style="fill:#000080;stroke:#000080"
       id="path3391"
       d="m 70.144743,18.678893 c -1.247606,-0.112935 -2.471874,-0.394142 -3.700229,-0.629269 -1.506263,-0.289353 -3.027136,-0.443038 -4.556821,-0.530925 -1.762659,-0.07102 -3.526967,0.05539 -5.289624,0.09833 -2.311914,0.0401 -4.624227,0.04759 -6.936375,0.06734 -1.476636,0.07021 -2.950716,0.178515 -4.428289,0.229242 -1.253991,0.03761 -2.508705,0.04019 -3.763156,0.04145 -1.198533,0.0049 -2.39228,0.135604 -3.589568,0.190869 -1.193192,0.04832 -2.387567,0.05679 -3.581582,0.06333 -1.046305,0.004 -2.092621,0.0031 -3.138931,0.0027 -0.976864,-6.1e-4 -1.953723,-0.0015 -2.930582,0.0021 -0.936232,0.0016 -1.872462,-0.0018 -2.808688,-0.0047 -1.152326,-0.0015 -2.304649,-0.0019 -3.456975,-7.57e-4 -1.048237,0.0019 -2.096479,4.76e-4 -3.144713,0.0035 -0.69742,0.0029 -1.394838,0.0063 -2.092262,0.008 -0.513539,0.0011 -1.02708,0.0011 -1.54062,0.0012 -0.250884,10e-6 -0.501769,-5e-6 -0.752654,-1.7e-5 0,0 3.037048,-2.206544 3.037048,-2.206544 l 0,0 c 0.250901,-1.2e-5 0.501801,-2.7e-5 0.752701,-1.7e-5 0.512456,4.6e-5 1.024913,9e-5 1.537369,0.0012 0.690093,0.0017 1.380178,0.0051 2.070267,0.008 1.045061,0.003 2.090131,0.0015 3.135195,0.0035 1.15303,0.0011 2.306057,7e-4 3.459086,-7.77e-4 0.940471,-0.0029 1.880948,-0.0063 2.821425,-0.0045 0.974126,0.0039 1.948255,0.0034 2.922388,0.0041 1.043954,8.51e-4 2.087912,0.0026 3.131865,-2.04e-4 1.189171,-0.0056 2.378735,-0.01469 3.566719,-0.07334 1.198651,-0.06594 2.395778,-0.188958 3.597326,-0.174394 1.25142,-0.0044 2.503073,-0.0082 3.753931,-0.05034 1.465647,-0.05628 2.929136,-0.160382 4.395706,-0.190538 2.311097,0.0036 4.622473,-0.0064 6.932711,-0.07612 1.773474,-0.05918 3.550558,-0.183982 5.324407,-0.08311 1.545233,0.09832 3.083283,0.258878 4.604561,0.556157 1.231573,0.241069 2.464811,0.506678 3.721457,0.572634 0,0 -3.053093,2.172042 -3.053093,2.172042 z"
       inkscape:connector-curvature="0"
       transform="translate(0,972.36218)" />
    <path
       style="fill:#000080;stroke:#000080"
       id="path3393"
       d="m 22.425838,8.3013724 c -2.644955,1.7729556 -5.439264,3.3069456 -8.20832,4.8733656 -2.322842,1.262036 -4.7656197,2.276446 -7.171571,3.365114 -0.2419143,0.103781 -1.0976762,0.465765 -1.3750413,0.602324 -0.1568957,0.07725 -0.6116807,0.339347 -0.4597805,0.252689 5.3148318,-3.03208 3.2229605,-2.175002 2.4536686,-1.223534 -0.250746,0.491946 -0.2555977,1.045006 -0.1395128,1.573243 0.2222412,0.801952 0.7880222,1.404574 1.4036148,1.933999 0.8783976,0.730271 1.8718682,1.250733 2.8957182,1.738965 1.250963,0.605709 2.506629,1.201476 3.76688,1.787696 1.142525,0.470479 2.300846,0.89757 3.466117,1.308891 1.049129,0.369957 2.102279,0.727736 3.143455,1.120117 0.595503,0.263313 1.229598,0.454367 1.820178,0.725666 0.369095,0.200234 0.702072,0.454779 1.056034,0.678424 0,0 -3.157191,2.02743 -3.157191,2.02743 l 0,0 C 21.586826,28.844847 21.258031,28.614906 20.895453,28.443018 20.297677,28.207226 19.714805,27.939296 19.113635,27.712238 18.076408,27.324475 17.033312,26.954054 15.987821,26.589375 14.816287,26.177596 13.653855,25.739877 12.516504,25.240565 11.252646,24.650042 9.988119,24.061063 8.7286365,23.461298 7.6812133,22.95266 6.6717142,22.390266 5.7704393,21.643352 5.1054162,21.053403 4.4977003,20.393503 4.2305317,19.525206 4.0656476,18.91647 4.0556489,18.302998 4.2396487,17.693379 4.8726562,16.236082 6.972022,15.724818 8.1112563,15.068471 c 0.5674105,-0.326902 1.210423,-0.507362 1.7949616,-0.797139 2.3973671,-1.068269 4.8226301,-2.083427 7.1209341,-3.358174 -0.639377,0.38272 -1.281147,0.76147 -1.918132,1.148159 -0.346268,0.210206 0.701172,-0.406056 1.045953,-0.618693 0.936113,-0.57733 1.852053,-1.188569 2.796777,-1.7525947 0,0 3.474088,-1.3886569 3.474088,-1.3886569 z"
       inkscape:connector-curvature="0"
       transform="translate(0,972.36218)" />
    <path
       style="fill:#000080;stroke:#000080"
       id="path3397"
       d="m 66.11495,55.847428 c -1.4657,-0.05887 -2.9288,0.03211 -4.392412,0.09707 -1.78726,0.04513 -3.568729,0.193769 -5.353919,0.28343 -1.2463,0.02867 -2.497123,0.11594 -3.744338,0.08383 -0.485651,-0.01251 -1.577155,-0.106531 -2.059835,-0.145182 -1.828556,-0.107955 -3.646308,-0.314107 -5.462043,-0.548296 -1.31073,-0.24284 -2.631268,-0.405249 -3.961162,-0.488341 -1.044228,-0.131343 -2.091866,-0.220033 -3.14309,-0.26668 -0.947944,-0.0094 -1.890132,-0.04111 -2.834532,-0.121636 -1.308946,-0.111951 -2.62284,-0.140479 -3.935795,-0.159636 -1.259204,-0.01546 -2.518533,-0.01154 -3.777798,-0.0093 -1.098083,8.24e-4 -2.196168,0.0013 -3.294252,0.0024 -0.879402,0.004 -1.758811,0.0054 -2.638222,0.0053 -0.739501,0.0027 -1.479005,0.0013 -2.218508,0.002 -0.711543,-2.33e-4 -1.423088,-2.95e-4 -2.13463,0.001 -0.419064,9.28e-4 -0.212311,4.72e-4 -0.62026,0.0014 0,0 3.031591,-2.202579 3.031591,-2.202579 l 0,0 c 0.405477,8.96e-4 0.19998,4.4e-4 0.616494,0.0014 0.710601,0.0013 1.421204,0.0013 2.131806,0.001 0.737675,6.71e-4 1.475352,-6.69e-4 2.213025,0.002 0.874795,-8.9e-5 1.749588,0.0012 2.624377,0.0046 1.097298,3.51e-4 2.194595,-5.12e-4 3.291891,-4.8e-4 1.255402,0.0026 2.510825,0.0075 3.766119,0.02541 1.323171,0.02523 2.646994,0.0561 3.966434,0.16586 0.944502,0.06857 1.889859,0.06542 2.835625,0.108476 1.048154,0.06202 2.091669,0.166712 3.135321,0.280768 1.326016,0.10397 2.640175,0.292061 3.949905,0.523359 1.802801,0.238596 3.609435,0.438229 5.425182,0.55032 1.930655,0.139898 3.859717,0.126898 5.792521,0.01218 1.78437,-0.09412 3.566093,-0.234005 5.352818,-0.280472 1.489269,-0.07312 2.977575,-0.141593 4.469146,-0.131657 0,0 -3.031459,2.202483 -3.031459,2.202483 z"
       inkscape:connector-curvature="0"
       transform="translate(0,972.36218)" />
    <path
       style="fill:#000080;stroke:#000080"
       id="path3403"
       d="m 19.001715,47.452382 c 5.863634,-3.532398 1.612345,-0.837116 0.29461,0.04018 -1.100199,0.70537 -2.166921,1.461207 -3.259269,2.178001 -1.946569,1.352293 -4.035195,2.46615 -6.0938027,3.637276 -0.1765777,0.09964 -0.3531879,0.199213 -0.529733,0.298906 -0.1790893,0.10113 -0.715338,0.406308 -0.5371702,0.303563 0.8872769,-0.51167 3.5485999,-2.047512 2.6645139,-1.530348 -1.207494,0.706349 -2.4324559,1.382768 -3.63476,2.097914 -0.9238789,0.549535 1.8592871,-1.079732 2.799391,-1.601025 0.107383,-0.05954 -0.199541,0.143145 -0.299311,0.214717 -1.4368239,1.325766 -3.2780861,1.965593 -4.9940605,2.788448 -0.5950797,0.282279 -1.2526566,0.370723 -1.8533836,0.635527 -1.1647107,0.738809 -0.7979798,0.502498 2.9245305,-1.676137 0.030067,-0.0176 -0.1131771,0.02047 -0.105434,0.04236 0.035498,0.100349 0.1349936,0.164619 0.2013673,0.247833 0.3432,0.500119 0.7190279,0.976171 1.0846825,1.459851 0.5082941,0.695293 1.1169433,1.29871 1.7787574,1.846133 0.8246464,0.617779 1.7119724,1.142302 2.5808924,1.693171 0.779467,0.48499 1.606129,0.880504 2.405555,1.330065 0.592958,0.325891 1.175593,0.644512 1.795461,0.914853 0.584559,0.300797 1.187229,0.564893 1.76768,0.873696 0.71204,0.300874 1.415972,0.616924 2.121654,0.931819 0.0926,0.05389 0.185208,0.10779 0.277812,0.161684 0,0 -3.139955,2.043917 -3.139955,2.043917 l 0,0 c -0.08502,-0.04613 -0.170047,-0.09225 -0.25507,-0.13838 C 16.291137,65.918375 15.572455,65.621171 14.86401,65.299738 14.282417,65.008521 13.694307,64.730025 13.108543,64.447242 12.481265,64.173272 11.902128,63.81933 11.29876,63.497494 10.495794,63.04966 9.6806014,62.626007 8.8985114,62.141371 8.0120689,61.5882 7.1167912,61.043121 6.2861803,60.407376 5.6128417,59.831551 4.9726236,59.219855 4.4503249,58.499737 4.0830572,58.021027 3.7028328,57.552318 3.3552064,57.058883 3.2725994,56.958078 3.1045094,56.762272 3.0472503,56.650549 2.4203695,55.427398 5.4583086,54.639822 6.5088212,54.203463 7.1244901,54.00336 7.7565856,53.844505 8.3380485,53.552814 8.660802,53.406803 8.9853239,53.263063 9.3062527,53.11318 c 0.096118,-0.04489 0.3765457,-0.195038 0.2855814,-0.140455 -3.1489595,1.88953 -3.7644894,2.411802 -2.6546157,1.507957 1.3670717,-1.174788 -0.1173543,0.07024 3.8579866,-2.340161 0.894197,-0.542186 -3.6192482,2.097121 -2.714722,1.572348 1.5797347,-0.916505 3.148824,-1.854865 4.753458,-2.728379 -5.5721783,3.255378 -1.456481,0.915656 -0.250905,0.02721 1.119289,-0.675969 2.155301,-1.486456 3.270507,-2.172039 1.978968,-1.321582 3.944672,-2.652621 6.07767,-3.730596 0,0 -2.929498,2.343322 -2.929498,2.343322 z"
       inkscape:connector-curvature="0"
       transform="translate(0,972.36218)" />
  </g>
</svg>
