<?xml version="1.0" encoding="UTF-8" standalone="no"?>
<!-- Created with Inkscape (http://www.inkscape.org/) -->

<svg
   xmlns:dc="http://purl.org/dc/elements/1.1/"
   xmlns:cc="http://creativecommons.org/ns#"
   xmlns:rdf="http://www.w3.org/1999/02/22-rdf-syntax-ns#"
   xmlns:svg="http://www.w3.org/2000/svg"
   xmlns="http://www.w3.org/2000/svg"
   xmlns:sodipodi="http://sodipodi.sourceforge.net/DTD/sodipodi-0.dtd"
   xmlns:inkscape="http://www.inkscape.org/namespaces/inkscape"
   width="200"
   height="200"
   id="svg2"
   version="1.1"
   inkscape:version="0.48.0 r9654"
   sodipodi:docname="d2.svg">
  <defs
     id="defs4" />
  <sodipodi:namedview
     id="base"
     pagecolor="#ffffff"
     bordercolor="#666666"
     borderopacity="1.0"
     inkscape:pageopacity="0.0"
     inkscape:pageshadow="2"
     inkscape:zoom="1.979899"
     inkscape:cx="165.45654"
     inkscape:cy="83.538595"
     inkscape:document-units="px"
     inkscape:current-layer="layer1"
     showgrid="false"
     inkscape:window-width="999"
     inkscape:window-height="738"
     inkscape:window-x="284"
     inkscape:window-y="157"
     inkscape:window-maximized="0" />
  <metadata
     id="metadata7">
    <rdf:RDF>
      <cc:Work
         rdf:about="">
        <dc:format>image/svg+xml</dc:format>
        <dc:type
           rdf:resource="http://purl.org/dc/dcmitype/StillImage" />
        <dc:title />
      </cc:Work>
    </rdf:RDF>
  </metadata>
  <g
     inkscape:label="Layer 1"
     inkscape:groupmode="layer"
     id="layer1"
     transform="translate(0,-852.36218)">
    <flowRoot
       xml:space="preserve"
       id="flowRoot2997"
       style="fill:black;stroke:none;stroke-opacity:1;stroke-width:1px;stroke-linejoin:miter;stroke-linecap:butt;fill-opacity:1;font-family:Sans;font-style:normal;font-weight:normal;font-size:20px;line-height:50%;letter-spacing:0px;word-spacing:0px"><flowRegion
         id="flowRegion2999"><rect
           id="rect3001"
           width="91.923882"
           height="90.408653"
           x="98.994949"
           y="95.954292" /></flowRegion><flowPara
         id="flowPara3003" /></flowRoot>    <flowRoot
       xml:space="preserve"
       id="flowRoot3005"
       style="fill:black;stroke:none;stroke-opacity:1;stroke-width:1px;stroke-linejoin:miter;stroke-linecap:butt;fill-opacity:1;font-family:Sans;font-style:normal;font-weight:normal;font-size:20px;line-height:50%;letter-spacing:0px;word-spacing:0px"><flowRegion
         id="flowRegion3007"><rect
           id="rect3009"
           width="114.65231"
           height="87.378197"
           x="77.276672"
           y="103.02536" /></flowRegion><flowPara
         id="flowPara3011" /></flowRoot>    <flowRoot
       xml:space="preserve"
       id="flowRoot3013"
       style="font-size:20px;font-style:normal;font-weight:normal;line-height:50%;letter-spacing:0px;word-spacing:0px;fill:#000000;fill-opacity:1;stroke:none;font-family:Sans"
       transform="translate(-73.236059,940.24545)"><flowRegion
         id="flowRegion3015"><rect
           id="rect3017"
           width="110.6117"
           height="102.53048"
           x="236.88077"
           y="87.87307" /></flowRegion><flowPara
         id="flowPara3019"
         style="font-size:56px;font-weight:bold;fill:#000080;stroke:#f2f2f2;-inkscape-font-specification:Sans Bold">2</flowPara></flowRoot>    <path
       style="fill:#000080;stroke:#000080"
       id="path3277"
       d="m 167.27667,89.559388 c -2.20665,-0.0713 -4.41565,-0.07093 -6.62339,-0.08374 -2.88939,-0.0097 -5.7788,7.93e-4 -8.66819,0.003 -3.05677,-0.02973 -6.10713,-0.283813 -9.16235,-0.402613 -4.2807,-0.119193 -8.5629,-0.175094 -12.84495,-0.21808 -5.67519,-0.156544 -11.31674,0.620344 -16.96337,1.072114 -5.42612,0.379311 -10.86771,0.39865 -16.304257,0.426015 -3.779373,-0.0369 -7.54549,0.303529 -11.313513,0.538705 -1.716181,0.282487 -3.434555,0.488374 -5.171606,0.574973 -2.286257,0.110753 -4.56703,-0.139594 -6.847296,-0.275646 -2.61837,-0.15306 -5.242632,-0.118891 -7.860091,-0.27606 -2.940728,-0.160336 -5.879724,-0.404295 -8.801757,-0.774552 -2.346745,-0.32882 -4.710033,-0.501767 -7.0771,-0.582641 -1.48812,-0.0332 -2.976785,-0.03021 -4.465207,-0.03798 -1.156492,5.52e-4 -2.312941,0.01175 -3.469398,0.01951 0,0 5.989521,-4.352999 5.989521,-4.352999 l 0,0 c 1.143951,0.0044 2.287904,0.01065 3.431867,0.0094 1.482201,-0.0067 2.964752,-0.0029 4.444533,0.09605 2.345311,0.145684 4.683242,0.377805 7.011667,0.696925 2.902297,0.355112 5.816062,0.620584 8.737537,0.752563 2.642376,0.08958 5.288593,0.05354 7.927834,0.237949 2.292004,0.133244 4.588438,0.350099 6.883756,0.140811 1.707201,-0.125484 3.397074,-0.3891 5.103834,-0.515634 3.643259,-0.143415 7.28856,-0.281694 10.935496,-0.224575 5.45273,-0.05386 10.90944,-0.126666 16.35049,-0.518825 5.64333,-0.423111 11.27969,-1.104356 16.94888,-0.99439 4.36854,-0.02492 8.73908,-0.09088 13.1062,0.05823 3.07358,0.103026 6.14358,0.331986 9.21945,0.329422 2.88662,0.0022 5.77327,0.01269 8.65989,0.003 2.28461,-0.01305 4.57029,-0.01423 6.85392,-0.08374 0,0 -6.0324,4.382792 -6.0324,4.382792 z"
       inkscape:connector-curvature="0"
       transform="translate(0,852.36218)" />
    <path
       style="fill:#000080;stroke:#000080"
       id="path3289"
       d="m 44.233587,74.144544 c -0.189081,0.06486 -0.385867,0.11056 -0.567243,0.194594 -0.31282,0.144933 -3.498398,1.982453 -1.819573,1.034374 4.049591,-2.286917 6.831032,-4.004236 3.415129,-1.836761 -0.500542,0.317606 -1.004181,0.630303 -1.506272,0.945454 -4.483273,2.977664 -9.162624,5.626686 -13.819613,8.319666 1.694822,-0.972174 3.380834,-1.959871 5.084465,-2.916522 0.388377,-0.218088 -0.757075,0.469533 -1.137979,0.700426 -0.398095,0.241313 -0.796021,0.483036 -1.198967,0.71616 -2.447198,1.415824 -4.918548,2.790144 -7.351326,4.230604 -1.656192,0.98064 3.33671,-1.919986 5.021306,-2.850987 0.389132,-0.215056 -0.755865,0.468357 -1.133798,0.702535 -4.02835,2.427873 2.552108,-1.52888 -8.388658,4.877089 -1.711883,1.002331 6.883227,-3.947696 5.158954,-2.966831 -2.416914,1.374878 -4.823547,2.767753 -7.236895,4.148882 -0.329434,0.188531 -1.320321,0.749565 -0.991432,0.560085 1.770863,-1.020229 3.544922,-2.0349 5.317383,-3.052351 -0.48052,0.311529 -0.709849,0.425705 -1.108267,0.79209 -0.418997,0.38531 0.167529,0.605987 0.484292,0.814465 1.354648,0.748851 2.637124,1.618928 3.835298,2.59716 1.962335,1.77022 3.662131,3.813954 5.403505,5.79754 1.785747,2.139102 3.612021,4.208794 5.666089,6.093034 2.172698,1.89886 4.738334,3.18554 7.2612,4.53771 1.234828,0.67289 2.535031,1.18757 3.883193,1.57575 0,0 -6.075573,4.12626 -6.075573,4.12626 l 0,0 c -1.31841,-0.48641 -2.587909,-1.081 -3.806604,-1.78397 -2.556957,-1.40726 -5.187365,-2.71979 -7.394895,-4.66455 -2.05321,-1.91345 -3.838215,-4.04933 -5.660036,-6.17979 -1.740869,-1.939987 -3.430643,-3.957626 -5.454858,-5.612431 -1.243775,-0.931873 -2.575234,-1.733878 -3.921952,-2.508322 -1.447261,-1.119179 -1.592281,-1.947808 0.09614,-2.967405 2.373281,-1.374848 4.743733,-2.754589 7.119842,-4.124543 0.324281,-0.186966 1.303951,-0.735745 0.981202,-0.546146 -1.713667,1.006694 -6.87799,3.986762 -5.154168,2.997557 24.086059,-13.821657 -3.994201,2.236749 3.272933,-1.912248 3.877423,-2.375271 14.837588,-8.684425 3.473143,-2.100354 -0.397294,0.230176 0.797345,-0.45577 1.189908,-0.693926 0.376595,-0.228468 0.744802,-0.470484 1.117203,-0.705727 2.419245,-1.40669 4.838489,-2.81338 7.257734,-4.22007 -11.433955,6.636218 -0.707915,0.431322 1.613857,-1.222426 4.241537,-2.629963 8.379097,-5.512804 12.95834,-7.522244 0,0 -5.883007,4.626169 -5.883007,4.626169 z"
       inkscape:connector-curvature="0"
       transform="translate(0,852.36218)" />
  </g>
</svg>
