<?xml version="1.0" encoding="UTF-8" standalone="no"?>
<!-- Created with Inkscape (http://www.inkscape.org/) -->

<svg
   xmlns:dc="http://purl.org/dc/elements/1.1/"
   xmlns:cc="http://creativecommons.org/ns#"
   xmlns:rdf="http://www.w3.org/1999/02/22-rdf-syntax-ns#"
   xmlns:svg="http://www.w3.org/2000/svg"
   xmlns="http://www.w3.org/2000/svg"
   xmlns:sodipodi="http://sodipodi.sourceforge.net/DTD/sodipodi-0.dtd"
   xmlns:inkscape="http://www.inkscape.org/namespaces/inkscape"
   width="200"
   height="200"
   id="svg2"
   version="1.1"
   inkscape:version="0.48.0 r9654"
   sodipodi:docname="d3.svg">
  <defs
     id="defs4" />
  <sodipodi:namedview
     id="base"
     pagecolor="#ffffff"
     bordercolor="#666666"
     borderopacity="1.0"
     inkscape:pageopacity="0.0"
     inkscape:pageshadow="2"
     inkscape:zoom="1.979899"
     inkscape:cx="165.45654"
     inkscape:cy="83.538595"
     inkscape:document-units="px"
     inkscape:current-layer="layer1"
     showgrid="false"
     inkscape:window-width="999"
     inkscape:window-height="738"
     inkscape:window-x="284"
     inkscape:window-y="157"
     inkscape:window-maximized="0" />
  <metadata
     id="metadata7">
    <rdf:RDF>
      <cc:Work
         rdf:about="">
        <dc:format>image/svg+xml</dc:format>
        <dc:type
           rdf:resource="http://purl.org/dc/dcmitype/StillImage" />
        <dc:title />
      </cc:Work>
    </rdf:RDF>
  </metadata>
  <g
     inkscape:label="Layer 1"
     inkscape:groupmode="layer"
     id="layer1"
     transform="translate(0,-852.36218)">
    <flowRoot
       xml:space="preserve"
       id="flowRoot2997"
       style="fill:black;stroke:none;stroke-opacity:1;stroke-width:1px;stroke-linejoin:miter;stroke-linecap:butt;fill-opacity:1;font-family:Sans;font-style:normal;font-weight:normal;font-size:20px;line-height:50%;letter-spacing:0px;word-spacing:0px"><flowRegion
         id="flowRegion2999"><rect
           id="rect3001"
           width="91.923882"
           height="90.408653"
           x="98.994949"
           y="95.954292" /></flowRegion><flowPara
         id="flowPara3003" /></flowRoot>    <flowRoot
       xml:space="preserve"
       id="flowRoot3005"
       style="fill:black;stroke:none;stroke-opacity:1;stroke-width:1px;stroke-linejoin:miter;stroke-linecap:butt;fill-opacity:1;font-family:Sans;font-style:normal;font-weight:normal;font-size:20px;line-height:50%;letter-spacing:0px;word-spacing:0px"><flowRegion
         id="flowRegion3007"><rect
           id="rect3009"
           width="114.65231"
           height="87.378197"
           x="77.276672"
           y="103.02536" /></flowRegion><flowPara
         id="flowPara3011" /></flowRoot>    <flowRoot
       xml:space="preserve"
       id="flowRoot3013"
       style="font-size:20px;font-style:normal;font-weight:normal;line-height:50%;letter-spacing:0px;word-spacing:0px;fill:#000000;fill-opacity:1;stroke:none;font-family:Sans"
       transform="translate(-73.236059,940.24545)"><flowRegion
         id="flowRegion3015"><rect
           id="rect3017"
           width="110.6117"
           height="102.53048"
           x="236.88077"
           y="87.87307" /></flowRegion><flowPara
         id="flowPara3019"
         style="font-size:56px;font-weight:bold;fill:#000080;stroke:#f2f2f2;-inkscape-font-specification:Sans Bold">2</flowPara></flowRoot>    <path
       style="fill:#000080;stroke:#000080"
       id="path3273"
       d="m 25.103889,86.686799 c 1.742711,0.03228 3.4711,0.274339 5.210279,0.393541 3.048357,0.206099 6.091413,0.45503 9.145276,0.579072 2.309865,0.180017 4.603439,0.01524 6.905084,-0.153212 2.840217,-0.183935 5.688243,-0.173079 8.533006,-0.182366 4.154279,-0.01773 8.30835,0.0086 12.462429,0.04545 6.21844,-0.121614 12.420113,0.239549 18.626554,0.555497 7.087031,0.361062 14.183233,0.460117 21.278243,0.481714 5.48175,-0.0083 10.96354,0.0037 16.44528,-0.01322 4.10202,0.173462 8.12684,-0.572558 12.11579,-1.41953 1.9189,-0.42621 3.79581,-1.033747 5.71746,-1.441625 1.26808,-0.281971 2.51685,-0.354822 3.79511,-0.160305 1.26213,0.218772 2.54362,0.268943 3.82117,0.311884 1.69176,0.02446 3.3669,0.311338 5.03024,0.598546 1.56997,0.260846 3.15857,0.36463 4.74737,0.413262 1.55677,0.241677 3.1234,0.386559 4.69608,0.465112 1.33308,-0.104333 2.97332,0.366765 4.24821,-0.07097 0,0 -5.97443,4.482418 -5.97443,4.482418 l 0,0 c -1.41432,-0.03244 -2.82914,-0.06539 -4.24249,-0.127762 -1.57545,-0.10479 -3.1405,-0.289039 -4.71159,-0.43891 -1.59635,-0.08391 -3.18538,-0.247175 -4.76226,-0.515557 -1.65151,-0.270735 -3.31554,-0.49517 -4.9924,-0.504466 -1.31104,-0.04096 -2.6202,-0.114815 -3.91693,-0.32485 -1.20951,-0.110498 -2.41108,0.07043 -3.5936,0.329424 -1.85351,0.451158 -3.70198,0.924172 -5.57197,1.305095 -3.94341,0.719206 -7.91778,1.328366 -11.94325,1.121661 -5.43701,-0.01419 -10.87431,0.0051 -16.31075,-0.09301 C 94.788377,92.202456 87.713995,92.07994 80.64589,91.765722 74.368903,91.478727 68.095837,91.235545 61.810643,91.401035 c -4.21235,0.03584 -8.424757,0.05308 -12.637078,0.08988 -2.889524,0.04564 -5.781171,0.100387 -8.662799,0.335802 -2.287564,0.176655 -4.567945,0.197766 -6.858039,0.0091 -3.072452,-0.170541 -6.14068,-0.416847 -9.215319,-0.541244 -1.791885,-0.10027 -3.583403,-0.306323 -5.379748,-0.214933 0,0 6.046229,-4.392843 6.046229,-4.392843 z"
       inkscape:connector-curvature="0"
       transform="translate(0,852.36218)" />
    <path
       style="fill:#000080;stroke:#000080"
       id="path3275"
       d="m 144.83228,68.738553 c 1.65991,0.832239 3.44741,1.336408 5.21502,1.880827 2.17761,0.700083 4.35016,1.415877 6.48114,2.248552 3.14777,1.417915 6.41834,2.530371 9.6681,3.685432 2.96336,1.073793 5.95697,2.071814 8.88342,3.243539 2.49867,1.130352 5.16536,1.784312 7.76553,2.618106 1.30004,0.320386 2.29468,0.911741 2.62589,2.25042 0.0427,1.206316 -0.17431,2.414541 -0.38705,3.598842 -0.40588,1.953002 -1.37119,3.727251 -2.36949,5.433143 -1.17661,1.993577 -2.70375,3.633973 -4.56601,4.989029 -4.04673,2.543637 -8.26631,4.759447 -12.55264,6.853457 -2.15757,0.9874 -4.31146,1.97207 -6.42134,3.05538 -1.49085,0.79447 -2.94824,1.63787 -4.54273,2.21005 0,0 5.80085,-4.55147 5.80085,-4.55147 l 0,0 c 1.52814,-0.63893 2.95676,-1.47388 4.43469,-2.21751 2.10038,-1.05102 4.25829,-1.98037 6.37071,-3.00723 2.64702,-1.336514 11.33223,-5.898027 0.14193,0.31142 1.93305,-1.21585 3.49167,-2.762082 4.7133,-4.70315 0.97038,-1.626362 1.89584,-3.294318 2.36939,-5.140122 0.18204,-1.110104 0.3299,-2.216068 0.4195,-3.338296 -0.0243,-1.059831 -1.26855,-1.338812 -2.08192,-1.646057 -2.54984,-0.908085 -5.15433,-1.67206 -7.64563,-2.741519 -2.92719,-1.129744 -5.89299,-2.159051 -8.83424,-3.251618 -3.26073,-1.187954 -6.53303,-2.345819 -9.75578,-3.63476 -2.15996,-0.759209 -4.34303,-1.453139 -6.51647,-2.173044 -1.82882,-0.552937 -3.64293,-1.143719 -5.43386,-1.807914 0,0 6.21769,-4.165507 6.21769,-4.165507 z"
       inkscape:connector-curvature="0"
       transform="translate(0,852.36218)" />
  </g>
</svg>
