<?xml version="1.0" encoding="UTF-8" standalone="no"?>
<!-- Created with Inkscape (http://www.inkscape.org/) -->

<svg
   xmlns:dc="http://purl.org/dc/elements/1.1/"
   xmlns:cc="http://creativecommons.org/ns#"
   xmlns:rdf="http://www.w3.org/1999/02/22-rdf-syntax-ns#"
   xmlns:svg="http://www.w3.org/2000/svg"
   xmlns="http://www.w3.org/2000/svg"
   xmlns:sodipodi="http://sodipodi.sourceforge.net/DTD/sodipodi-0.dtd"
   xmlns:inkscape="http://www.inkscape.org/namespaces/inkscape"
   width="200"
   height="200"
   id="svg2"
   version="1.1"
   inkscape:version="0.48.0 r9654"
   sodipodi:docname="d4.svg">
  <defs
     id="defs4" />
  <sodipodi:namedview
     id="base"
     pagecolor="#ffffff"
     bordercolor="#666666"
     borderopacity="1.0"
     inkscape:pageopacity="0.0"
     inkscape:pageshadow="2"
     inkscape:zoom="1.979899"
     inkscape:cx="165.45654"
     inkscape:cy="83.538595"
     inkscape:document-units="px"
     inkscape:current-layer="layer1"
     showgrid="false"
     inkscape:window-width="999"
     inkscape:window-height="738"
     inkscape:window-x="284"
     inkscape:window-y="157"
     inkscape:window-maximized="0" />
  <metadata
     id="metadata7">
    <rdf:RDF>
      <cc:Work
         rdf:about="">
        <dc:format>image/svg+xml</dc:format>
        <dc:type
           rdf:resource="http://purl.org/dc/dcmitype/StillImage" />
        <dc:title />
      </cc:Work>
    </rdf:RDF>
  </metadata>
  <g
     inkscape:label="Layer 1"
     inkscape:groupmode="layer"
     id="layer1"
     transform="translate(0,-852.36218)">
    <flowRoot
       xml:space="preserve"
       id="flowRoot2997"
       style="fill:black;stroke:none;stroke-opacity:1;stroke-width:1px;stroke-linejoin:miter;stroke-linecap:butt;fill-opacity:1;font-family:Sans;font-style:normal;font-weight:normal;font-size:20px;line-height:50%;letter-spacing:0px;word-spacing:0px"><flowRegion
         id="flowRegion2999"><rect
           id="rect3001"
           width="91.923882"
           height="90.408653"
           x="98.994949"
           y="95.954292" /></flowRegion><flowPara
         id="flowPara3003" /></flowRoot>    <flowRoot
       xml:space="preserve"
       id="flowRoot3005"
       style="fill:black;stroke:none;stroke-opacity:1;stroke-width:1px;stroke-linejoin:miter;stroke-linecap:butt;fill-opacity:1;font-family:Sans;font-style:normal;font-weight:normal;font-size:20px;line-height:50%;letter-spacing:0px;word-spacing:0px"><flowRegion
         id="flowRegion3007"><rect
           id="rect3009"
           width="114.65231"
           height="87.378197"
           x="77.276672"
           y="103.02536" /></flowRegion><flowPara
         id="flowPara3011" /></flowRoot>    <flowRoot
       xml:space="preserve"
       id="flowRoot3013"
       style="font-size:20px;font-style:normal;font-weight:normal;line-height:50%;letter-spacing:0px;word-spacing:0px;fill:#000000;fill-opacity:1;stroke:none;font-family:Sans"
       transform="translate(-73.236059,940.24545)"><flowRegion
         id="flowRegion3015"><rect
           id="rect3017"
           width="110.6117"
           height="102.53048"
           x="236.88077"
           y="87.87307" /></flowRegion><flowPara
         id="flowPara3019"
         style="font-size:56px;font-weight:bold;fill:#000080;stroke:#f2f2f2;-inkscape-font-specification:Sans Bold">2</flowPara></flowRoot>    <path
       style="fill:#000080;stroke:#000080"
       id="path3267"
       d="m 159.77707,144.38978 c -0.40237,-2.22053 -0.76352,-4.44864 -1.1034,-6.67967 -0.52599,-2.86173 -0.90841,-5.7428 -1.1382,-8.64275 -0.17337,-2.22845 -0.17151,-4.46355 -0.15831,-6.69693 0.0229,-2.66642 0.0439,-5.33298 0.0202,-7.99945 -0.0742,-2.57119 0.0604,-5.13243 0.22368,-7.6967 0.0561,-2.456 0.55906,-4.86327 0.89467,-7.288323 0.45559,-2.277083 0.63956,-4.586726 0.86163,-6.893741 0.23331,-2.747881 0.56814,-5.485491 0.7836,-8.23488 0.20005,-2.243633 0.64675,-4.452194 0.93709,-6.683726 0.35681,-1.941002 0.51418,-3.90702 0.75115,-5.863309 0.21573,-1.632748 0.61944,-3.22725 0.83811,-4.860432 0.23521,-2.128185 0.24878,-4.273273 0.26053,-6.411993 -0.002,-1.796081 -0.034,-3.591798 -0.0626,-5.387581 -0.018,-1.1015 -0.0234,-2.203138 -0.0261,-3.304763 -0.0419,-0.905367 -0.90289,-1.27679 -1.64291,-1.582661 -1.52047,-0.443643 -3.12719,-0.530131 -4.69657,-0.713844 -2.5043,-0.408932 -4.99884,-0.841832 -7.52436,-1.099783 -2.87756,-0.0983 -5.71771,-0.552648 -8.57474,-0.868461 -3.72848,-0.319667 -7.44757,-0.67517 -11.15865,-1.153747 -3.32234,-0.427339 -6.66575,-0.633766 -10.0122,-0.732059 -2.90544,-0.067 -5.81169,-0.08095 -8.71772,-0.100366 -3.73449,-0.01523 -7.469,0.0077 -11.203477,3.05e-4 -4.421248,-0.0211 -8.842517,-0.03253 -13.263797,-0.04394 -4.788707,-0.01055 -9.577367,-0.0049 -14.366016,0.02088 -3.062497,0.02614 -6.124869,0.06397 -9.187416,0.08411 -2.199168,-0.02776 -4.403323,0.08572 -6.598291,-0.0688 -1.8411,-0.171655 -3.684947,-0.301295 -5.53301,-0.362406 -1.3578,-0.0344 -2.716055,-0.03679 -4.074188,-0.03203 -1.383409,0.06394 -2.750104,-0.03823 -4.123024,-0.191194 -2.060459,-0.135916 -4.102224,-0.443108 -6.156975,-0.639873 -1.451276,-0.135587 -2.908554,-0.168678 -4.365177,-0.177922 -0.07916,-6.39e-4 -1.0579,-0.01393 -1.189579,0.0039 -0.131713,0.01781 -0.497169,0.181278 -0.381599,0.115636 2.08371,-1.14982 4.16742,-2.299639 6.251129,-3.449458 -0.171857,-0.08707 -0.134277,-0.02074 -0.164931,-0.158455 0.838691,1.097917 1.387527,2.322266 1.830382,3.62226 0.941827,3.885354 1.006167,7.956137 1.208531,11.9349 0.252325,7.846862 0.465355,15.693757 0.75684,23.539482 0.176834,5.295724 0.245098,10.58959 0.901462,15.85186 0.265532,2.144353 0.652833,4.278038 1.215194,6.364854 0.451546,1.8187 0.77224,3.66566 1.130843,5.50415 0.471943,2.38242 0.712856,4.79778 0.850723,7.21968 0.222203,2.34699 0.384667,4.69512 0.478267,7.05067 0.06234,2.5823 0.07637,5.16559 0.09132,7.74855 0.0205,1.90703 0.04603,3.81409 0.04927,5.72126 -0.110336,1.68057 -0.296868,3.35409 -0.403392,5.03532 -0.04965,0.9286 -0.0608,1.85852 -0.06887,2.7882 0,0 -6.596687,3.34803 -6.596687,3.34803 l 0,0 c 0.02166,-0.94694 0.04968,-1.89376 0.100934,-2.83964 0.09008,-1.67127 0.275442,-3.33314 0.426653,-4.99952 0.0061,-1.92401 0.03668,-3.84783 0.05376,-5.77176 0.006,-2.57504 0.01357,-5.15062 -0.08013,-7.72446 -0.08731,-2.34854 -0.262897,-4.69082 -0.503082,-7.02877 -0.101257,-2.38988 -0.277451,-4.78288 -0.786993,-7.126 -0.399042,-1.80956 -0.782418,-3.62213 -1.217915,-5.423 -0.506342,-2.16681 -0.834719,-4.37457 -1.005955,-6.593708 C 34.170254,93.440271 34.302334,88.053007 34.185131,82.662541 33.997263,74.847197 33.820815,67.025098 33.291864,59.224447 32.92847,55.388624 32.585144,51.495675 31.612008,47.76012 31.144896,46.543876 30.610936,45.376793 29.71736,44.406767 c -0.111614,-0.175972 -0.258841,-0.333886 -0.334841,-0.527916 -0.05028,-0.128359 -0.150491,-0.339448 -0.0334,-0.412213 5.323128,-3.308107 4.665367,-3.823938 8.304059,-3.721858 1.447392,0.03805 2.895389,0.09935 4.332941,0.282792 2.051519,0.24292 4.098138,0.528588 6.164047,0.623619 1.381757,0.10736 2.759684,0.101116 4.144928,0.09192 1.349607,0.01029 2.699876,0.01651 4.047958,0.08832 1.829842,0.09727 3.653328,0.264391 5.479427,0.413266 2.182302,0.09353 4.367368,0.02455 6.551124,0.05204 2.985347,0.02 5.970509,0.05799 8.955802,0.08417 4.769455,0.02615 9.538923,0.03142 14.308437,0.02094 4.462911,-0.0116 8.925812,-0.02304 13.388682,-0.04718 3.74194,-0.01075 7.48394,0.0056 11.22588,-0.01648 2.95075,-0.02131 5.90361,-0.07085 8.85311,0.03946 3.29888,0.178961 6.58786,0.495707 9.86575,0.908112 3.74413,0.447176 7.49813,0.760907 11.25604,1.071295 2.87377,0.305877 5.74002,0.664349 8.62689,0.829542 2.54201,0.280779 5.06094,0.714091 7.59555,1.050991 1.65766,0.165596 3.37534,0.200701 4.93881,0.831248 0.98797,0.484428 1.97985,1.10206 2.09278,2.302243 -0.002,1.109057 -0.006,2.218122 -0.0199,3.327105 -0.0225,1.818619 -0.0463,3.637194 -0.0604,5.4559 -0.0108,2.146822 0.0195,4.296885 -0.12658,6.440056 -0.18411,1.649659 -0.56808,3.252438 -0.86751,4.880688 -0.27112,1.957095 -0.39325,3.935668 -0.78272,5.87724 -0.28012,2.236794 -0.75455,4.441071 -0.99623,6.683368 -0.28165,2.748627 -0.59802,5.493152 -0.8071,8.248387 -0.20566,2.304499 -0.25665,4.632371 -0.79069,6.895358 -0.33761,2.420247 -0.91491,4.81204 -0.96525,7.26473 -0.17181,2.54924 -0.30802,5.09576 -0.23909,7.65239 -0.0285,2.66173 -0.0175,5.32372 0.003,7.98548 0.0196,2.22193 0.0229,4.44494 0.11471,6.66533 0.16395,2.89348 0.47536,5.77476 1.04198,8.61996 0.36358,2.17987 0.73177,4.38099 1.39545,6.49175 0,0 -6.6043,3.53096 -6.6043,3.53096 z"
       inkscape:connector-curvature="0"
       transform="translate(0,852.36218)" />
    <path
       style="fill:#000080;stroke:#000080"
       id="path3269"
       d="m 20.552776,134.58133 c 1.139466,1.15444 2.230144,2.3638 3.325068,3.56363 1.231266,1.30875 2.214845,2.82205 3.219901,4.30498 0.97648,1.41064 1.83517,2.90011 2.701629,4.38009 1.051845,1.84305 2.2904,3.56106 3.475925,5.3184 0.977251,1.59103 2.064646,3.10355 3.214402,4.57215 0.821164,1.02269 1.391777,2.25424 2.340005,3.16846 0.593121,0.66997 1.05558,0.96944 1.943545,0.80692 1.071427,-0.16546 2.049485,-0.6517 3.019615,-1.11355 0.244346,-0.14749 0.480113,-0.31022 0.733038,-0.44245 0.290888,-0.15208 0.597156,-0.27273 0.895735,-0.40909 0.318846,-0.16886 0.638138,-0.33688 0.956539,-0.50658 0.336934,-0.17957 1.339518,-0.73316 1.009458,-0.54124 -7.471089,4.34417 -6.452616,3.73853 -4.111212,2.31856 1.896385,-1.1072 3.645467,-2.38826 5.258844,-3.87314 2.098329,-1.86847 3.637547,-4.23811 5.137169,-6.58825 1.362515,-1.96441 2.610106,-3.99572 3.793512,-6.07051 0.539728,-0.86755 1.00893,-1.77149 1.407502,-2.71127 0,0 6.751608,-3.07849 6.751608,-3.07849 l 0,0 c -0.482368,0.96136 -0.899242,1.95689 -1.51879,2.8445 -1.884795,3.02596 0.77225,-1.30277 -1.121674,2.00666 -0.816545,1.42683 -1.840043,2.74322 -2.739654,4.1157 -1.487547,2.35764 -2.984818,4.76923 -4.994576,6.72203 -1.594161,1.54989 -3.291302,2.91992 -5.231714,4.02466 -3.906453,2.41513 -7.891666,4.69856 -11.989961,6.76989 -1.045615,0.46727 -2.131478,0.9306 -3.297387,0.93533 -0.929115,-0.11371 -1.654921,-0.62634 -2.244028,-1.34282 -0.891329,-0.99938 -1.512139,-2.20521 -2.297675,-3.28648 -1.132605,-1.50144 -2.23575,-3.02032 -3.19863,-4.63976 -1.167783,-1.78376 -2.42419,-3.50328 -3.512031,-5.33834 -0.885195,-1.45515 -1.76698,-2.91279 -2.71211,-4.32929 -0.969682,-1.46146 -1.937195,-2.93909 -3.125154,-4.23507 -1.094243,-1.20167 -2.218627,-2.40713 -3.48677,-3.42501 0,0 6.397871,-3.92062 6.397871,-3.92062 z"
       inkscape:connector-curvature="0"
       transform="translate(0,852.36218)" />
  </g>
</svg>
