<?xml version="1.0" encoding="UTF-8" standalone="no"?>
<!-- Created with Inkscape (http://www.inkscape.org/) -->

<svg
   xmlns:dc="http://purl.org/dc/elements/1.1/"
   xmlns:cc="http://creativecommons.org/ns#"
   xmlns:rdf="http://www.w3.org/1999/02/22-rdf-syntax-ns#"
   xmlns:svg="http://www.w3.org/2000/svg"
   xmlns="http://www.w3.org/2000/svg"
   xmlns:sodipodi="http://sodipodi.sourceforge.net/DTD/sodipodi-0.dtd"
   xmlns:inkscape="http://www.inkscape.org/namespaces/inkscape"
   width="200"
   height="200"
   id="svg2"
   version="1.1"
   inkscape:version="0.48.0 r9654"
   sodipodi:docname="d4.svg">
  <defs
     id="defs4" />
  <sodipodi:namedview
     id="base"
     pagecolor="#ffffff"
     bordercolor="#666666"
     borderopacity="1.0"
     inkscape:pageopacity="0.0"
     inkscape:pageshadow="2"
     inkscape:zoom="1.979899"
     inkscape:cx="165.45654"
     inkscape:cy="83.538595"
     inkscape:document-units="px"
     inkscape:current-layer="layer1"
     showgrid="false"
     inkscape:window-width="999"
     inkscape:window-height="738"
     inkscape:window-x="810"
     inkscape:window-y="172"
     inkscape:window-maximized="0" />
  <metadata
     id="metadata7">
    <rdf:RDF>
      <cc:Work
         rdf:about="">
        <dc:format>image/svg+xml</dc:format>
        <dc:type
           rdf:resource="http://purl.org/dc/dcmitype/StillImage" />
        <dc:title />
      </cc:Work>
    </rdf:RDF>
  </metadata>
  <g
     inkscape:label="Layer 1"
     inkscape:groupmode="layer"
     id="layer1"
     transform="translate(0,-852.36218)">
    <flowRoot
       xml:space="preserve"
       id="flowRoot2997"
       style="fill:black;stroke:none;stroke-opacity:1;stroke-width:1px;stroke-linejoin:miter;stroke-linecap:butt;fill-opacity:1;font-family:Sans;font-style:normal;font-weight:normal;font-size:20px;line-height:50%;letter-spacing:0px;word-spacing:0px"><flowRegion
         id="flowRegion2999"><rect
           id="rect3001"
           width="91.923882"
           height="90.408653"
           x="98.994949"
           y="95.954292" /></flowRegion><flowPara
         id="flowPara3003" /></flowRoot>    <flowRoot
       xml:space="preserve"
       id="flowRoot3005"
       style="fill:black;stroke:none;stroke-opacity:1;stroke-width:1px;stroke-linejoin:miter;stroke-linecap:butt;fill-opacity:1;font-family:Sans;font-style:normal;font-weight:normal;font-size:20px;line-height:50%;letter-spacing:0px;word-spacing:0px"><flowRegion
         id="flowRegion3007"><rect
           id="rect3009"
           width="114.65231"
           height="87.378197"
           x="77.276672"
           y="103.02536" /></flowRegion><flowPara
         id="flowPara3011" /></flowRoot>    <flowRoot
       xml:space="preserve"
       id="flowRoot3013"
       style="font-size:20px;font-style:normal;font-weight:normal;line-height:50%;letter-spacing:0px;word-spacing:0px;fill:#000000;fill-opacity:1;stroke:none;font-family:Sans"
       transform="translate(-73.236059,940.24545)"><flowRegion
         id="flowRegion3015"><rect
           id="rect3017"
           width="110.6117"
           height="102.53048"
           x="236.88077"
           y="87.87307" /></flowRegion><flowPara
         id="flowPara3019"
         style="font-size:56px;font-weight:bold;fill:#000080;stroke:#f2f2f2;-inkscape-font-specification:Sans Bold">2</flowPara></flowRoot>    <path
       style="fill:#000080;stroke:#000080"
       id="path3358"
       d="m 24.624131,13.180163 c 1.271231,0.525569 2.654209,0.627313 4.010889,0.726032 1.804355,0.01413 3.592264,0.19785 5.387208,0.360433 2.011962,0.178044 4.03264,0.211159 6.050991,0.244971 2.324762,0.03128 4.649701,0.01616 6.974567,0.0201 2.220986,-0.160944 4.439147,-0.343471 6.664214,-0.439816 2.117003,-0.08224 4.235839,-0.07366 6.353993,-0.07807 2.604838,0.04545 5.203249,-0.166084 7.804366,-0.278775 3.185319,-0.02703 6.359568,-0.228399 9.537115,-0.427827 2.790218,-0.188146 5.586997,-0.234348 8.382433,-0.271581 2.585458,0.01349 5.163324,0.0053 7.742168,-0.183536 2.433913,-0.190377 4.873343,-0.267882 7.313445,-0.317798 2.3495,0.0471 4.68542,-0.104944 7.02623,-0.27937 2.39031,-0.164633 4.7857,-0.214753 7.18088,-0.235586 2.68072,0.06704 5.35195,-0.173324 8.02561,-0.327007 2.19219,-0.127822 4.38718,-0.178081 6.58239,-0.212658 1.79192,-0.01722 3.57336,-0.293735 5.34428,-0.551734 2.01108,-0.293666 4.04287,-0.368301 6.07124,-0.433916 1.811,-0.04346 3.62251,-0.03028 5.43383,-0.03941 1.54457,-0.0115 3.08918,-0.0039 4.63376,0.0041 1.96314,0.0068 3.92623,0.01945 5.88939,0.0214 1.61811,-0.0061 3.23611,-0.02676 4.85418,-0.03885 1.06014,-0.0075 2.12031,-0.0086 3.18047,-0.0093 1.05636,-0.06255 2.06843,0.02985 3.06927,0.376194 0.95711,0.240767 1.87067,0.598805 2.81454,0.879218 0.88427,0.220478 1.79995,0.238744 2.70603,0.259033 0.66147,0.157084 1.93773,0.16671 2.0177,1.102223 0.0134,0.157202 -0.0816,0.304804 -0.12248,0.457206 -1.41127,1.275956 -3.06291,2.282025 -4.57714,3.443303 -1.9069,1.472963 -3.62992,3.158666 -5.40618,4.780954 -2.25247,1.745304 -4.48784,3.520609 -6.76029,5.24286 -2.46845,1.831598 -4.85035,3.765606 -7.41294,5.466518 -2.28824,1.362761 -4.45754,2.908293 -6.65453,4.410301 -2.73375,2.061004 -5.44287,4.156417 -8.14874,6.254363 -3.86302,3.097992 -7.75517,6.159072 -11.70699,9.143932 -3.05773,2.486988 -6.25154,4.77033 -9.53353,6.947326 -4.14417,2.815294 -8.39369,5.470551 -12.60457,8.184218 -3.915234,2.368198 -7.719481,4.91263 -11.439651,7.575603 -2.953167,2.193144 -5.88544,4.409331 -8.763451,6.700787 -2.422621,1.963771 -5.004673,3.715128 -7.517177,5.559322 -2.737459,2.173574 -5.615329,4.15861 -8.376429,6.300583 -2.149886,1.591605 -4.15043,3.364189 -6.173378,5.109549 -1.416404,1.256292 -2.613619,2.725988 -3.829628,4.170058 -1.153909,1.53991 -2.420822,2.98856 -3.703006,4.42155 -1.409437,1.7574 -2.93319,3.41653 -4.411479,5.11517 -1.67191,1.87532 -3.373071,3.72079 -5.234331,5.40992 -1.445789,1.32719 -3.046654,2.46545 -4.579335,3.68682 -1.46468,1.00749 -2.905569,2.04555 -4.20588,3.26096 -1.172491,1.12371 -2.32812,2.26615 -3.520598,3.3687 -0.933137,0.7628 -1.872427,1.48137 -2.687993,2.37141 -0.7294,0.79312 -1.413144,1.62093 -2.186567,2.37308 -0.990988,0.78865 -1.721351,1.78217 -2.481189,2.77915 -0.658966,0.92268 -1.055614,1.98267 -1.52421,3.00429 -0.112953,0.40849 -0.470642,0.71223 -0.595668,1.11302 -0.01539,0.0493 0.101451,-0.0206 0.152864,-0.0258 1.140207,0.091 2.285027,0.0954 3.428119,0.10526 2.797145,-0.003 5.584885,0.25386 8.378222,0.38094 3.153919,0.0623 6.312241,0.2861 9.467918,0.2425 2.12457,-0.0294 3.384665,-0.17601 5.492861,-0.35801 5.837984,-0.43299 11.665536,-0.94879 17.495117,-1.48369 4.389784,-0.38371 8.791939,-0.61892 13.196545,-0.73729 2.514933,0.0346 5.013282,-0.13833 7.51833,-0.32006 2.732108,-0.0391 5.433533,-0.25893 8.140611,-0.61293 2.358464,-0.32934 4.732369,-0.51443 7.110033,-0.62429 1.50194,-0.0454 3.00456,-0.0707 4.50719,-0.065 1.47805,0.0113 2.95615,0.0112 4.43423,0.0189 1.8874,0.0189 3.77481,0.02 5.66227,0.009 1.56368,-0.007 3.12737,-0.0102 4.69105,-0.0184 1.49042,-0.0663 2.96032,0.20371 4.44004,0.34156 1.48457,0.126 2.97482,0.14788 4.46371,0.16891 1.51297,0.01 3.02597,0.005 4.53895,-2.3e-4 1.2779,-0.0125 2.5558,-0.007 3.83372,-0.0105 1.12834,-0.002 2.25668,-0.0119 3.38501,-0.004 1.45436,0.01 2.90868,0.0163 4.36308,0.0201 1.46362,-0.005 2.92722,-0.007 4.39083,-0.0144 1.36231,0.006 2.72465,-4.7e-4 4.08696,0.004 1.39902,-0.0826 2.77334,0.1726 4.1564,0.33414 1.02058,0.0466 2.08717,0.28431 3.09392,0.0496 0.0951,-0.0437 0.19024,-0.0875 0.28536,-0.13123 0,0 -5.9451,4.5528 -5.9451,4.5528 l 0,0 c -0.10562,0.008 -0.21124,0.016 -0.31686,0.024 -1.05781,0.005 -2.1141,-0.0785 -3.16253,-0.21787 -1.3551,-0.18369 -2.70829,-0.36066 -4.08064,-0.27434 -1.36611,0.005 -2.73225,-0.002 -4.09836,0.004 -1.45037,-0.008 -2.90073,-0.01 -4.35111,-0.0144 -1.47282,0.004 -2.94558,0.0106 -4.41837,0.0201 -1.12524,0.008 -2.2505,-0.001 -3.37575,-0.003 -1.27032,-0.002 -2.54062,0.004 -3.81092,-0.006 -1.50976,-0.003 -3.01957,-0.002 -4.52926,-0.0191 -1.50143,-0.017 -3.00339,-0.061 -4.49768,-0.21936 -1.47155,-0.14444 -2.9406,-0.33954 -4.42353,-0.26687 -1.54685,-0.008 -3.0937,-0.0117 -4.64055,-0.0183 -1.89531,-0.0109 -3.79056,-0.009 -5.68583,0.007 -1.48973,0.005 -2.97946,6.3e-4 -4.46918,0.007 -1.474141,0.004 -2.948849,-0.0164 -4.422299,0.042 -2.327945,0.089 -4.650741,0.27417 -6.959693,0.59008 -2.737722,0.34541 -5.481091,0.49347 -8.235655,0.63511 -2.472342,0.18686 -4.942446,0.23747 -7.422113,0.2019 -4.30187,0.0607 -8.603547,0.19431 -12.891188,0.57149 -5.843825,0.50223 -11.684547,1.02689 -17.530561,1.50257 -5.065672,0.37444 -10.143196,0.3455 -15.219166,0.20038 -2.857711,-0.10338 -5.71561,-0.28349 -8.576136,-0.20488 -1.248704,0.001 -2.608804,0.15805 -3.786646,-0.32054 -0.862675,-0.72663 -0.687443,-1.27537 -0.0352,-2.08662 0.4813,-1.05995 0.933686,-2.1296 1.507698,-3.14637 1.391955,-2.15022 -0.659799,0.95431 0.758767,-0.99072 0.538948,-0.73896 0.83978,-1.37291 1.670007,-1.89722 0.72777,-0.78002 1.536819,-1.48266 2.1556,-2.36529 0.398287,-0.37029 0.700241,-0.81358 1.093828,-1.18547 0.483129,-0.45649 0.517922,-0.3769 1.065032,-0.78497 0.202134,-0.15076 0.390186,-0.31954 0.585279,-0.47931 1.24337,-1.03502 2.33618,-2.23527 3.531005,-3.32531 1.246202,-1.30133 2.702219,-2.40487 4.229167,-3.35645 1.545928,-1.22484 3.134125,-2.39326 4.639727,-3.66852 1.899201,-1.6486 3.62639,-3.45401 5.302184,-5.32898 1.42978,-1.71462 2.98509,-3.31956 4.337105,-5.09794 1.256234,-1.4396 2.587451,-2.82441 3.691602,-4.38843 1.20562,-1.50208 2.464476,-2.96375 3.836299,-4.31525 2.091769,-1.736194 4.086034,-3.592946 6.293255,-5.188104 2.754526,-2.165918 5.669345,-4.112418 8.387292,-6.326072 2.492307,-1.846707 5.050306,-3.602934 7.48948,-5.519983 2.920971,-2.325004 5.917552,-4.545267 8.898352,-6.79047 3.748702,-2.726136 7.613234,-5.295631 11.591699,-7.674494 4.150866,-2.670117 8.326536,-5.304604 12.399276,-8.092902 3.31126,-2.210305 6.59726,-4.442252 9.68567,-6.963391 3.91912,-2.94857 7.80773,-5.937848 11.57444,-9.078143 2.65618,-2.090954 5.34888,-4.135631 7.99414,-6.240636 2.19286,-1.507313 4.34161,-3.088079 6.64484,-4.425332 2.61235,-1.663898 5.02324,-3.580291 7.49072,-5.447449 1.26071,-0.926573 2.44236,-1.923076 3.66524,-2.896598 2.19204,-1.745065 -0.0563,0.07847 2.07682,-1.501344 0.31118,-0.23047 0.60233,-0.486835 0.9035,-0.730252 1.82616,-1.598774 3.52546,-3.342253 5.43746,-4.843988 1.40868,-1.129775 2.84236,-2.237686 4.38345,-3.182741 0.24638,-0.02601 0.33256,-0.100694 0.49512,0.162688 0.0327,0.05301 -0.10471,-0.07003 -0.16361,-0.0903 -0.44007,-0.1514 -0.91178,-0.188239 -1.37205,-0.21998 -0.95694,-0.04451 -1.92069,-0.112752 -2.83573,-0.420552 -0.91957,-0.319674 -1.8443,-0.61035 -2.78224,-0.873234 -0.97569,-0.220531 -1.95609,-0.230924 -2.95368,-0.202085 -1.05165,-6.45e-4 -2.10331,-0.0018 -3.15494,-0.0093 -1.58245,-0.01204 -3.16482,-0.03287 -4.74732,-0.03882 -1.98218,0.0019 -3.96432,0.01461 -5.9465,0.01958 -1.54388,0.0061 -3.08778,0.01015 -4.63162,-0.0055 -1.79787,-0.01084 -3.59606,-0.0044 -5.39351,0.03855 -2.01146,0.0598 -4.02268,0.182002 -6.01287,0.494731 -1.79497,0.264866 -3.60183,0.519266 -5.42099,0.485798 -2.15675,0.01151 -4.31381,0.05585 -6.4678,0.170026 -2.68822,0.149149 -5.37452,0.354738 -8.06922,0.319891 -2.39026,0.04023 -4.78148,0.09479 -7.16591,0.278098 -2.348039,0.165481 -4.694474,0.272034 -7.049412,0.24964 -2.428406,0.04918 -4.855522,0.147129 -7.277701,0.333198 -2.581482,0.156063 -5.163395,0.119988 -7.748728,0.139148 -2.772937,0.02804 -5.545758,0.09282 -8.313946,0.266401 -3.17745,0.196964 -6.354443,0.318077 -9.536382,0.414894 -2.641388,0.140866 -5.280434,0.385651 -7.928181,0.328589 -2.115417,0.0073 -4.231357,0.02517 -6.345315,0.110125 -2.220407,0.105615 -4.434426,0.306271 -6.655536,0.39299 -2.332765,0.0056 -4.665627,-0.0027 -6.998344,-0.01546 -2.043293,-0.02194 -4.08645,-0.0804 -6.122523,-0.265343 -1.800012,-0.175251 -3.600333,-0.251601 -5.406022,-0.337729 -1.443783,-0.135973 -2.889535,-0.303218 -4.254516,-0.825313 0,0 6.217697,-4.165508 6.217697,-4.165508 z"
       inkscape:connector-curvature="0"
       transform="translate(0,852.36218)" />
    <path
       style="fill:#000080;stroke:#000080"
       id="path3360"
       d="m 144.7956,117.75258 c 1.21638,0.55928 2.51468,0.88184 3.76523,1.35174 1.77374,0.73965 3.59627,1.35745 5.40863,1.99551 2.0703,0.7362 4.15188,1.43858 6.21386,2.20036 2.61443,0.95328 5.2287,1.90715 7.83595,2.87998 2.37692,0.76977 4.73349,1.58339 7.07487,2.45097 1.5356,0.69907 3.01433,1.53663 4.59556,2.1303 1.09408,0.51057 2.27793,0.79277 3.27411,1.48851 1.01975,1.10067 -0.11126,2.12073 -0.9423,2.88696 -2.02672,1.59231 -4.04134,3.19996 -6.11016,4.73746 -2.23862,1.65507 -4.55495,3.19093 -6.93509,4.63337 -16.7544,9.64718 -4.55267,2.61581 -2.374,1.37833 0.43034,-0.24443 -0.85206,0.50373 -1.27908,0.75391 -0.4261,0.24964 -0.85149,0.50055 -1.28028,0.74554 -7.43994,4.25076 -5.00765,2.92831 -8.79331,4.96479 -2.45472,1.25557 -4.90496,2.52503 -7.37477,3.74889 -0.9197,0.49915 -1.82262,1.04379 -2.77664,1.47407 0,0 5.79932,-4.62668 5.79932,-4.62668 l 0,0 c 0.88373,-0.46099 1.76836,-0.92024 2.64964,-1.38589 2.42134,-1.22974 4.87667,-2.39218 7.26422,-3.68758 3.07836,-1.66442 1.5094,-0.83586 -3.4499,2.07869 -0.42476,0.24963 0.85451,-0.4907 1.27984,-0.73936 0.41905,-0.24498 0.83376,-0.49736 1.25329,-0.74153 2.43997,-1.4201 4.88268,-2.83547 7.32516,-4.25124 1.6484,-0.95548 -3.29528,1.91359 -4.94292,2.87038 2.39947,-1.40591 4.71611,-2.9355 6.96659,-4.56965 2.03118,-1.49061 3.99981,-3.05957 5.96528,-4.63467 0.0885,-0.0654 1.63583,-1.37749 1.6289,-1.44353 -0.008,-0.0744 -0.0858,-0.12258 -0.12868,-0.18387 -0.98589,-0.60763 -2.13314,-0.87173 -3.16774,-1.38635 -1.51529,-0.67687 -2.95107,-1.51772 -4.46927,-2.18927 -2.31397,-0.89001 -4.66428,-1.6707 -7.00157,-2.49725 -2.61521,-0.97803 -5.24312,-1.92239 -7.87983,-2.8408 -2.08166,-0.73419 -4.18153,-1.41388 -6.2583,-2.16154 -1.8272,-0.63465 -3.65238,-1.27653 -5.45866,-1.9682 -1.31482,-0.44686 -2.65616,-0.8112 -3.94311,-1.3401 0,0 6.26516,-4.12225 6.26516,-4.12225 z"
       inkscape:connector-curvature="0"
       transform="translate(0,852.36218)" />
  </g>
</svg>
