<?xml version="1.0" encoding="UTF-8" standalone="no"?>
<!-- Created with Inkscape (http://www.inkscape.org/) -->

<svg
   xmlns:dc="http://purl.org/dc/elements/1.1/"
   xmlns:cc="http://creativecommons.org/ns#"
   xmlns:rdf="http://www.w3.org/1999/02/22-rdf-syntax-ns#"
   xmlns:svg="http://www.w3.org/2000/svg"
   xmlns="http://www.w3.org/2000/svg"
   xmlns:sodipodi="http://sodipodi.sourceforge.net/DTD/sodipodi-0.dtd"
   xmlns:inkscape="http://www.inkscape.org/namespaces/inkscape"
   width="200"
   height="200"
   id="svg2"
   version="1.1"
   inkscape:version="0.48.0 r9654"
   sodipodi:docname="d5.svg">
  <defs
     id="defs4" />
  <sodipodi:namedview
     id="base"
     pagecolor="#ffffff"
     bordercolor="#666666"
     borderopacity="1.0"
     inkscape:pageopacity="0.0"
     inkscape:pageshadow="2"
     inkscape:zoom="1.979899"
     inkscape:cx="165.45654"
     inkscape:cy="83.538595"
     inkscape:document-units="px"
     inkscape:current-layer="layer1"
     showgrid="false"
     inkscape:window-width="999"
     inkscape:window-height="738"
     inkscape:window-x="284"
     inkscape:window-y="157"
     inkscape:window-maximized="0" />
  <metadata
     id="metadata7">
    <rdf:RDF>
      <cc:Work
         rdf:about="">
        <dc:format>image/svg+xml</dc:format>
        <dc:type
           rdf:resource="http://purl.org/dc/dcmitype/StillImage" />
        <dc:title />
      </cc:Work>
    </rdf:RDF>
  </metadata>
  <g
     inkscape:label="Layer 1"
     inkscape:groupmode="layer"
     id="layer1"
     transform="translate(0,-852.36218)">
    <flowRoot
       xml:space="preserve"
       id="flowRoot2997"
       style="fill:black;stroke:none;stroke-opacity:1;stroke-width:1px;stroke-linejoin:miter;stroke-linecap:butt;fill-opacity:1;font-family:Sans;font-style:normal;font-weight:normal;font-size:20px;line-height:50%;letter-spacing:0px;word-spacing:0px"><flowRegion
         id="flowRegion2999"><rect
           id="rect3001"
           width="91.923882"
           height="90.408653"
           x="98.994949"
           y="95.954292" /></flowRegion><flowPara
         id="flowPara3003" /></flowRoot>    <flowRoot
       xml:space="preserve"
       id="flowRoot3005"
       style="fill:black;stroke:none;stroke-opacity:1;stroke-width:1px;stroke-linejoin:miter;stroke-linecap:butt;fill-opacity:1;font-family:Sans;font-style:normal;font-weight:normal;font-size:20px;line-height:50%;letter-spacing:0px;word-spacing:0px"><flowRegion
         id="flowRegion3007"><rect
           id="rect3009"
           width="114.65231"
           height="87.378197"
           x="77.276672"
           y="103.02536" /></flowRegion><flowPara
         id="flowPara3011" /></flowRoot>    <flowRoot
       xml:space="preserve"
       id="flowRoot3013"
       style="font-size:20px;font-style:normal;font-weight:normal;line-height:50%;letter-spacing:0px;word-spacing:0px;fill:#000000;fill-opacity:1;stroke:none;font-family:Sans"
       transform="translate(-73.236059,940.24545)"><flowRegion
         id="flowRegion3015"><rect
           id="rect3017"
           width="110.6117"
           height="102.53048"
           x="236.88077"
           y="87.87307" /></flowRegion><flowPara
         id="flowPara3019"
         style="font-size:56px;font-weight:bold;fill:#000080;stroke:#f2f2f2;-inkscape-font-specification:Sans Bold">2</flowPara></flowRoot>    <path
       style="fill:#000080;stroke:#000080"
       id="path3261"
       d="m 166.47674,31.926568 c -0.12943,2.112867 0.0664,4.229656 0.1435,6.341979 0.0968,3.749552 0.17541,7.501582 0.0847,11.251718 -0.19649,4.473051 -0.35388,8.946769 -0.44998,13.423113 -0.18966,6.048726 -0.0736,12.09643 0.077,18.144053 -0.0143,5.859309 0.34356,11.694312 0.7885,17.532234 0.28305,4.413295 0.62754,8.824295 1.41759,13.179205 0.47625,2.40145 1.03675,4.78497 1.2913,7.22291 0.15665,1.71192 0.0635,3.43366 0.17929,5.14657 0.16622,1.3171 0.32664,2.63125 0.40407,3.95681 0.0464,1.39798 0.0594,2.79713 0.0563,4.19583 0.0491,1.57133 0.12291,2.35495 -1.10956,3.45205 -3.53276,2.39377 -6.53672,4.31973 -10.55912,4.95308 -2.19385,0.23322 -4.36245,0.64369 -6.55146,0.91271 -2.75464,0.26834 -5.52031,0.30737 -8.27953,0.51648 -2.7204,0.20556 -5.44712,0.29376 -8.1741,0.3453 -2.69311,0.0981 -5.37796,-0.15775 -8.06458,-0.30339 -2.31966,-0.1203 -4.64244,-0.13967 -6.96462,-0.15299 -1.84123,-0.002 -3.68248,3e-4 -5.52373,-0.002 -2.20799,0.0679 -4.40278,-0.10153 -6.60202,-0.26507 -1.66829,-0.12214 -3.34009,-0.18345 -5.01242,-0.20789 -1.76776,-0.0396 -3.53573,0.0177 -5.299154,-0.12152 -2.186846,-0.25905 -4.39806,-0.2092 -6.584105,-0.44876 -1.421372,-0.0429 -2.822457,0.0474 -4.231738,-0.15423 -1.805094,-0.23884 -3.564365,-0.72727 -5.342154,-1.10913 -2.063538,-0.53495 -4.15927,-0.91128 -6.280562,-1.11212 -1.455673,-0.18346 -2.920302,-0.36616 -4.373124,-0.59205 -2.079898,-0.36319 -4.198426,-0.33487 -6.289727,-0.57006 -1.58217,-0.22092 -3.174239,-0.34658 -4.769839,-0.4091 -1.094527,-0.0342 -2.189734,-0.03 -3.284646,-0.0282 -1.243985,0.002 -2.487913,-0.0137 -3.731896,-0.0145 -1.595224,-0.0927 -3.170328,0.11862 -4.75667,0.23522 -2.18679,0.14664 -4.379141,0.18715 -6.569772,0.23899 -1.48791,0.0459 -2.976269,0.0363 -4.464578,0.0364 -1.315851,-0.0776 -2.60176,0.21189 -3.905752,0.33616 -1.572709,0.15643 -2.304635,0.025 -2.899185,-1.51174 -0.323018,-1.67582 -0.337222,-3.39791 -0.540035,-5.09475 -0.397315,-2.8222 -0.50433,-5.67214 -0.696774,-8.51297 -0.276662,-3.57151 -0.353212,-7.15517 -0.400509,-10.73592 -0.0067,-4.14833 -0.0087,-8.29683 0.01876,-12.44509 0.237047,-4.197365 0.56855,-8.387727 0.763635,-12.587695 0.137247,-3.044244 0.141733,-6.091733 0.153265,-9.138328 0.0114,-2.760226 0.014,-5.52045 -0.028,-8.280428 -0.09679,-1.944948 0.06559,-3.881576 0.238281,-5.816523 0.08,-1.733862 0.330541,-3.450404 0.514558,-5.174475 0.225707,-1.520296 0.33797,-3.062378 0.683547,-4.562044 0.09168,-0.463174 0.31453,-0.836245 0.590655,-1.206583 0,0 6.868717,-2.925609 6.868717,-2.925609 l 0,0 c -0.276727,0.30787 -0.613965,0.531577 -0.76541,0.933904 -0.429781,1.471254 -0.613474,2.986516 -0.83834,4.502007 -0.12638,1.725086 -0.425304,3.429076 -0.481851,5.159405 -0.180916,1.932353 -0.453276,3.857233 -0.364177,5.804779 -0.0365,2.77058 -0.02562,5.541244 -0.02581,8.311996 -0.01435,3.07204 -0.05829,6.145154 -0.222809,9.213341 -0.260006,4.207822 -0.714793,8.401301 -0.899172,12.613938 0.02569,4.127725 0.01115,8.255795 0.08115,12.383185 0.0504,3.56389 0.119912,7.12907 0.405283,10.68359 0.238905,2.79975 0.419894,5.60904 0.839338,8.38906 0.253795,1.62218 0.347084,3.25878 0.595394,4.87779 0.413671,1.13868 1.313187,0.78305 2.332978,0.71582 1.312487,-0.16288 2.620236,-0.35356 3.947913,-0.26671 1.466121,0.001 2.932245,-0.007 4.398374,-0.003 2.181919,-0.0196 4.365243,-0.0735 6.538736,-0.28037 1.615087,-0.16337 3.223539,-0.29106 4.849328,-0.22442 1.261346,-0.003 2.522602,-0.0221 3.783951,-0.0214 1.091888,0.005 2.184373,0.0144 3.274469,0.0836 1.580891,0.10905 3.155344,0.28557 4.727003,0.48715 2.0993,0.2121 4.212825,0.28108 6.303597,0.58511 1.468108,0.16851 2.931289,0.35088 4.39355,0.56161 2.096537,0.29271 4.159562,0.75179 6.219595,1.23471 1.811486,0.36839 3.620351,0.76605 5.462369,0.95376 1.372544,0.15192 2.757122,0.0396 4.13061,0.20136 2.175963,0.19437 4.361048,0.27262 6.539128,0.44217 1.7902,0.0596 3.58099,0.007 5.37191,0.0392 1.64805,0.0519 3.29216,0.16333 4.93452,0.31081 2.20343,0.16755 4.40479,0.26418 6.61544,0.18749 1.83814,-0.004 3.67629,-0.007 5.51432,0.0185 2.30011,0.0349 4.59947,0.11396 6.89636,0.24219 2.6838,0.1509 5.36766,0.36224 8.05798,0.24304 2.70628,-0.0467 5.41233,-0.13594 8.11142,-0.34742 2.7671,-0.18935 5.54453,-0.24738 8.29956,-0.58451 2.20792,-0.31186 4.4079,-0.67888 6.61238,-1.01394 0.98208,-0.22805 1.99292,-0.47474 2.92725,-0.86302 0.22077,-0.0917 0.4307,-0.20771 0.64605,-0.31156 -1.92012,1.12299 -3.84024,2.24598 -5.76036,3.36897 1.45435,-0.80353 1.50276,-1.16928 1.43522,-2.82582 -0.008,-1.38391 0.005,-2.76856 -0.0593,-4.15146 -0.0638,-1.32725 -0.2005,-2.64779 -0.34973,-3.96791 -0.13649,-1.71084 -0.0229,-3.43128 -0.15986,-5.14384 -0.18277,-2.45768 -0.57209,-4.88973 -0.9924,-7.31701 -0.68926,-4.41323 -1.14079,-8.85566 -1.28859,-13.32153 -0.18269,-2.710633 -0.4138,-5.425807 -0.48885,-8.142298 -0.0874,-3.163895 -0.009,-6.333292 -0.16077,-9.496255 -0.16352,-6.027059 -0.33589,-12.052992 -0.25526,-18.083301 0.0273,-4.454716 0.0893,-8.909225 0.30686,-13.359419 0.0977,-3.714012 -0.004,-7.431229 -0.18278,-11.141789 -0.13235,-2.075421 -0.35767,-4.142182 -0.46498,-6.218246 0,0 6.67421,-3.400684 6.67421,-3.400684 z"
       inkscape:connector-curvature="0"
       transform="translate(0,852.36218)" />
    <path
       style="fill:#000080;stroke:#000080"
       id="path3263"
       d="m 53.105057,58.30244 c -1.761409,-1.352956 -3.372593,-2.862765 -4.870629,-4.49905 -2.776645,-3.051827 -4.829666,-6.636548 -7.164542,-10.01697 -1.372739,-2.132893 -3.096734,-3.950755 -5.01833,-5.584828 -0.92265,-0.792485 -2.085162,-1.133174 -3.159827,-1.636465 -0.968994,-0.42262 -1.941246,-0.76321 -2.986736,-0.933954 -0.807894,-0.127203 -1.630976,0.03327 -2.364296,0.393577 -0.196941,0.09676 -0.754108,0.448908 -0.56261,0.341776 1.926207,-1.077607 3.844713,-2.168923 5.76707,-3.253385 -1.537047,1.178442 -2.340627,2.885354 -3.006656,4.650263 -0.905075,2.862722 -1.799343,5.734215 -2.503865,8.65385 -0.567306,2.030527 -1.263004,4.027646 -1.996865,6.004207 -0.730756,1.505582 -1.535578,2.973469 -2.241668,4.493394 -0.48544,1.186622 -0.951868,2.375071 -1.337371,3.597588 -0.06924,0.176403 -0.138485,0.352806 -0.207728,0.529208 0,0 -6.747569,3.091093 -6.747569,3.091093 l 0,0 c 0.0778,-0.155852 0.155605,-0.311705 0.233408,-0.467557 0.451166,-1.240451 0.848529,-2.494993 1.397841,-3.699857 0.647936,-1.525161 1.395893,-3.011622 2.234565,-4.440671 0.746859,-1.994404 1.594287,-3.957087 2.196737,-6.003848 0.718756,-2.923764 1.648104,-5.789388 2.43596,-8.694792 0.570101,-1.83753 1.258232,-3.621727 2.688418,-4.976201 2.971435,-1.774246 6.266853,-5.091925 10.107408,-4.466412 1.069514,0.245864 2.084215,0.64033 3.092278,1.071034 1.136213,0.501098 2.268597,1.019638 3.190736,1.878276 1.881822,1.738402 3.501315,3.713898 4.835966,5.907071 0.763502,1.165853 1.53568,2.326057 2.291884,3.496658 1.0821,1.675087 1.262942,2.11572 2.523246,3.652609 0.418706,0.510596 0.886865,0.978555 1.328636,1.469331 0.365319,0.405844 0.728418,0.813681 1.092627,1.220521 1.542075,1.589961 3.190214,3.072305 5.074724,4.252007 0,0 -6.322812,3.971527 -6.322812,3.971527 z"
       inkscape:connector-curvature="0"
       transform="translate(0,852.36218)" />
  </g>
</svg>
