<?xml version="1.0" encoding="UTF-8" standalone="no"?>
<!-- Created with Inkscape (http://www.inkscape.org/) -->

<svg
   xmlns:dc="http://purl.org/dc/elements/1.1/"
   xmlns:cc="http://creativecommons.org/ns#"
   xmlns:rdf="http://www.w3.org/1999/02/22-rdf-syntax-ns#"
   xmlns:svg="http://www.w3.org/2000/svg"
   xmlns="http://www.w3.org/2000/svg"
   xmlns:sodipodi="http://sodipodi.sourceforge.net/DTD/sodipodi-0.dtd"
   xmlns:inkscape="http://www.inkscape.org/namespaces/inkscape"
   width="200"
   height="200"
   id="svg2"
   version="1.1"
   inkscape:version="0.48.0 r9654"
   sodipodi:docname="d6.svg">
  <defs
     id="defs4" />
  <sodipodi:namedview
     id="base"
     pagecolor="#ffffff"
     bordercolor="#666666"
     borderopacity="1.0"
     inkscape:pageopacity="0.0"
     inkscape:pageshadow="2"
     inkscape:zoom="1.979899"
     inkscape:cx="165.45654"
     inkscape:cy="83.538595"
     inkscape:document-units="px"
     inkscape:current-layer="layer1"
     showgrid="false"
     inkscape:window-width="999"
     inkscape:window-height="738"
     inkscape:window-x="284"
     inkscape:window-y="157"
     inkscape:window-maximized="0" />
  <metadata
     id="metadata7">
    <rdf:RDF>
      <cc:Work
         rdf:about="">
        <dc:format>image/svg+xml</dc:format>
        <dc:type
           rdf:resource="http://purl.org/dc/dcmitype/StillImage" />
        <dc:title />
      </cc:Work>
    </rdf:RDF>
  </metadata>
  <g
     inkscape:label="Layer 1"
     inkscape:groupmode="layer"
     id="layer1"
     transform="translate(0,-852.36218)">
    <flowRoot
       xml:space="preserve"
       id="flowRoot2997"
       style="fill:black;stroke:none;stroke-opacity:1;stroke-width:1px;stroke-linejoin:miter;stroke-linecap:butt;fill-opacity:1;font-family:Sans;font-style:normal;font-weight:normal;font-size:20px;line-height:50%;letter-spacing:0px;word-spacing:0px"><flowRegion
         id="flowRegion2999"><rect
           id="rect3001"
           width="91.923882"
           height="90.408653"
           x="98.994949"
           y="95.954292" /></flowRegion><flowPara
         id="flowPara3003" /></flowRoot>    <flowRoot
       xml:space="preserve"
       id="flowRoot3005"
       style="fill:black;stroke:none;stroke-opacity:1;stroke-width:1px;stroke-linejoin:miter;stroke-linecap:butt;fill-opacity:1;font-family:Sans;font-style:normal;font-weight:normal;font-size:20px;line-height:50%;letter-spacing:0px;word-spacing:0px"><flowRegion
         id="flowRegion3007"><rect
           id="rect3009"
           width="114.65231"
           height="87.378197"
           x="77.276672"
           y="103.02536" /></flowRegion><flowPara
         id="flowPara3011" /></flowRoot>    <flowRoot
       xml:space="preserve"
       id="flowRoot3013"
       style="font-size:20px;font-style:normal;font-weight:normal;line-height:50%;letter-spacing:0px;word-spacing:0px;fill:#000000;fill-opacity:1;stroke:none;font-family:Sans"
       transform="translate(-73.236059,940.24545)"><flowRegion
         id="flowRegion3015"><rect
           id="rect3017"
           width="110.6117"
           height="102.53048"
           x="236.88077"
           y="87.87307" /></flowRegion><flowPara
         id="flowPara3019"
         style="font-size:56px;font-weight:bold;fill:#000080;stroke:#f2f2f2;-inkscape-font-specification:Sans Bold">2</flowPara></flowRoot>    <path
       style="fill:#000080;stroke:#000080"
       id="path3231"
       d="m 50.357703,28.097952 c 1.693035,0.0525 3.384746,0.01177 5.074293,0.140209 2.661179,0.156798 5.312027,0.421695 7.967813,0.645749 2.375261,0.151654 4.73389,0.482127 7.087122,0.827163 2.660914,0.400206 5.327708,0.693894 8.01372,0.857555 3.819604,0.194714 7.644948,0.137247 11.465478,0.290097 3.485504,0.220768 6.982436,0.184823 10.469881,0.335062 1.2144,0.05232 3.67583,0.255321 4.93273,0.353943 3.00687,0.277418 6.02103,0.432828 9.02143,0.771489 2.2885,0.263213 4.5922,0.338554 6.89372,0.371144 1.9879,0.02127 3.9759,0.0067 5.96386,0.0057 1.69837,0.08635 3.36898,-0.06489 5.04863,-0.287002 1.19079,-0.177104 2.39205,-0.220654 3.59353,-0.242117 1.47507,-0.04 2.95913,0.141098 4.4063,0.420737 1.31339,0.283729 2.64367,0.45681 3.98379,0.537906 1.37278,-0.0114 1.86343,0.472898 1.74348,1.84273 -0.80137,2.169925 -1.04533,4.44691 -1.23408,6.736223 -0.39582,4.51646 -0.2686,9.027751 0.076,13.539311 0.28781,4.693795 0.65223,9.379962 1.00164,14.069669 0.2825,6.268479 0.68716,12.522432 1.44598,18.752249 0.78533,5.377108 1.34245,10.773623 1.56148,16.202589 0.0394,0.87679 0.0816,1.75346 0.1183,2.63037 0.1215,2.90381 0.27297,5.79505 0.61401,8.68386 0.17132,1.45127 0.66258,4.67026 0.87881,6.12014 0.84255,4.3786 1.68325,8.75542 2.46412,13.14527 0.46983,2.58384 0.60032,5.20861 0.87698,7.81596 0.14992,1.91339 0.37987,3.81204 0.64716,5.71136 0.0386,1.02632 0.57246,2.30741 0.0124,3.28049 -0.10004,0.1738 -0.26055,0.30491 -0.39082,0.45736 -2.3405,1.28619 -4.63692,2.65607 -7.02149,3.85858 -0.15132,0.0763 -1.71732,0.15609 -1.80063,0.16015 -1.20648,0.0588 -2.41151,0.0569 -3.61836,0.11765 -3.4707,0.12293 -6.9339,0.36182 -10.40062,0.56003 -3.73697,0.3723 -7.47886,0.61221 -11.23256,0.71114 -4.83374,0.25256 -9.61549,-0.6284 -14.35812,-1.43832 -9.9436,-1.47662 -19.945772,-2.46056 -29.938005,-3.52666 -6.0645,-0.75918 -12.159149,-1.12969 -18.268566,-1.08095 -2.452236,-0.14674 -4.772534,0.66548 -7.11522,1.24949 0,0 5.820891,-4.44629 5.820891,-4.44629 l 0,0 c 2.310754,-0.55391 4.621403,-1.18208 7.026938,-0.95485 5.900686,0.23454 11.772392,0.82392 17.623351,1.62453 10.072158,1.24028 20.162391,2.34691 30.263501,3.32317 4.84273,0.622 9.71304,1.37297 14.61017,1.10574 3.75099,-0.14597 7.49351,-0.40711 11.23299,-0.73559 3.50749,-0.22319 7.01368,-0.45588 10.52321,-0.64475 1.22756,-0.0712 2.46944,-0.0846 3.69284,-0.21454 2.90431,-0.30846 5.88013,-2.44054 -3.94133,3.06243 0.31354,-0.11608 0.6339,-0.16551 0.82464,-0.48158 0.43572,-0.72205 -0.0995,-1.79522 -0.0473,-2.56337 -0.24963,-1.92473 -0.43613,-3.84878 -0.55596,-5.78657 -0.25286,-2.609 -0.38712,-5.22944 -0.77581,-7.82384 -0.62113,-4.46335 -1.20099,-8.9317 -2.08233,-13.35507 -0.8487,-5.78382 -1.67309,-11.57008 -1.77843,-17.42762 -0.23312,-5.43053 -0.63238,-10.85231 -1.37367,-16.240001 -0.74927,-6.214884 -1.1641,-12.45886 -1.60047,-18.702159 -0.40543,-4.674021 -0.88578,-9.337566 -1.09731,-14.026474 -0.30703,-4.511391 -0.44176,-9.029215 -0.26472,-13.550564 0.10362,-2.233761 0.12357,-4.528632 0.88518,-6.658789 0.34719,-1.046466 -0.13324,-0.652028 -1.082,-0.79147 -1.33434,-0.131286 -2.65114,-0.368782 -3.96545,-0.631665 -1.44843,-0.212642 -2.90516,-0.362194 -4.37111,-0.268712 -1.17928,0.04192 -2.35587,0.130505 -3.52691,0.278687 -1.68019,0.18278 -3.36026,0.216966 -5.05005,0.179172 -1.97519,0.0014 -3.95041,-0.0086 -5.92518,-0.0533 -2.31626,-0.06517 -4.63548,-0.132369 -6.93682,-0.426242 -2.90862,-0.358461 -5.8312,-0.587617 -8.740294,-0.945146 -5.113047,-0.495458 -10.245004,-0.506017 -15.376845,-0.657294 -3.886341,-0.06619 -7.775241,-0.0044 -11.659377,-0.177827 -2.725875,-0.160924 -5.43322,-0.472341 -8.138171,-0.843366 -2.329161,-0.333988 -4.66231,-0.656412 -7.009802,-0.832183 -2.665869,-0.24422 -5.331759,-0.466664 -8.00666,-0.587372 -1.742208,-0.05373 -3.485707,-0.02337 -5.228108,0.01938 0,0 6.04623,-4.392843 6.04623,-4.392843 z"
       inkscape:connector-curvature="0"
       transform="translate(0,852.36218)" />
    <path
       style="fill:#000080;stroke:#000080"
       id="path3233"
       d="m 55.761813,135.0263 c -1.32893,0.11424 -2.49278,0.64003 -3.66231,1.24132 -2.782169,1.65623 1.121839,-0.67393 4.821759,-2.72767 0.300498,-0.1668 -0.578284,0.3716 -0.865784,0.55992 -1.03418,0.67741 -2.068452,1.35147 -3.088364,2.05029 -2.201608,1.62529 -4.45056,3.19181 -6.58658,4.90355 -1.113552,1.0067 -2.083286,2.15451 -3.133724,3.22553 -1.104268,1.1399 -2.237786,2.11651 -3.155761,3.42651 -0.740598,1.1434 -1.281641,2.39529 -2.015418,3.54179 -0.28436,0.39091 -0.615014,0.81815 -1.05603,1.04894 -0.04953,0.0259 -0.121346,-0.0108 -0.166185,0.0226 -0.02342,0.0174 0.051,0.0286 0.07498,0.0453 0.174361,0.1213 0.34657,0.24567 0.519855,0.36851 3.91426,2.2858 8.058385,4.18547 12.182993,6.06077 4.736938,2.16298 9.579989,4.07969 14.541729,5.65995 2.010386,0.84783 4.206388,1.06691 6.249935,1.78444 1.306801,0.41824 2.525577,1.08015 3.65686,1.84894 0.606904,0.38478 0.303644,0.21234 0.907052,0.52207 0,0 -6.226222,4.05588 -6.226222,4.05588 l 0,0 c -0.61639,-0.37115 -0.310364,-0.17582 -0.917488,-0.5869 -1.095656,-0.72326 -2.266096,-1.3086 -3.51996,-1.70732 -1.994748,-0.65763 -4.063216,-1.09187 -5.988229,-1.96368 -4.835702,-1.78467 -9.578735,-3.81239 -14.285969,-5.90997 -1.877643,-0.84888 -3.749184,-1.71136 -5.632139,-2.54839 -2.040734,-0.90717 -4.140881,-1.70389 -6.140894,-2.70067 -0.352364,-0.17562 -0.691766,-0.37612 -1.03765,-0.56417 -0.425973,-0.30221 -1.501385,-0.92554 -1.167556,-1.66974 0.170774,-0.38071 1.084731,-0.32493 1.212084,-0.78475 0.213416,-0.32397 0.460568,-0.62532 0.666397,-0.95417 0.527576,-0.84287 0.863896,-1.8034 1.419381,-2.6326 0.469066,-0.72175 0.896539,-1.43287 1.50612,-2.04809 1.843192,-1.86022 -0.674519,0.7436 1.101198,-0.93894 0.168636,-0.15979 0.305868,-0.34975 0.458802,-0.52462 1.022555,-1.16522 2.178152,-2.21786 3.217233,-3.37049 2.127273,-1.75633 4.431073,-3.28643 6.617688,-4.96705 3.644926,-2.68152 7.656146,-4.87693 11.573408,-7.10984 1.261776,-0.58077 2.575749,-1.01932 3.978854,-1.06015 0,0 -6.060063,4.40289 -6.060063,4.40289 z"
       inkscape:connector-curvature="0"
       transform="translate(0,852.36218)" />
  </g>
</svg>
