<?xml version="1.0" encoding="UTF-8" standalone="no"?>
<!-- Created with Inkscape (http://www.inkscape.org/) -->

<svg
   xmlns:dc="http://purl.org/dc/elements/1.1/"
   xmlns:cc="http://creativecommons.org/ns#"
   xmlns:rdf="http://www.w3.org/1999/02/22-rdf-syntax-ns#"
   xmlns:svg="http://www.w3.org/2000/svg"
   xmlns="http://www.w3.org/2000/svg"
   xmlns:sodipodi="http://sodipodi.sourceforge.net/DTD/sodipodi-0.dtd"
   xmlns:inkscape="http://www.inkscape.org/namespaces/inkscape"
   width="200"
   height="200"
   id="svg2"
   version="1.1"
   inkscape:version="0.48.0 r9654"
   sodipodi:docname="d7.svg">
  <defs
     id="defs4" />
  <sodipodi:namedview
     id="base"
     pagecolor="#ffffff"
     bordercolor="#666666"
     borderopacity="1.0"
     inkscape:pageopacity="0.0"
     inkscape:pageshadow="2"
     inkscape:zoom="1.979899"
     inkscape:cx="165.45654"
     inkscape:cy="83.538595"
     inkscape:document-units="px"
     inkscape:current-layer="layer1"
     showgrid="false"
     inkscape:window-width="999"
     inkscape:window-height="738"
     inkscape:window-x="284"
     inkscape:window-y="157"
     inkscape:window-maximized="0" />
  <metadata
     id="metadata7">
    <rdf:RDF>
      <cc:Work
         rdf:about="">
        <dc:format>image/svg+xml</dc:format>
        <dc:type
           rdf:resource="http://purl.org/dc/dcmitype/StillImage" />
        <dc:title />
      </cc:Work>
    </rdf:RDF>
  </metadata>
  <g
     inkscape:label="Layer 1"
     inkscape:groupmode="layer"
     id="layer1"
     transform="translate(0,-852.36218)">
    <flowRoot
       xml:space="preserve"
       id="flowRoot2997"
       style="fill:black;stroke:none;stroke-opacity:1;stroke-width:1px;stroke-linejoin:miter;stroke-linecap:butt;fill-opacity:1;font-family:Sans;font-style:normal;font-weight:normal;font-size:20px;line-height:50%;letter-spacing:0px;word-spacing:0px"><flowRegion
         id="flowRegion2999"><rect
           id="rect3001"
           width="91.923882"
           height="90.408653"
           x="98.994949"
           y="95.954292" /></flowRegion><flowPara
         id="flowPara3003" /></flowRoot>    <flowRoot
       xml:space="preserve"
       id="flowRoot3005"
       style="fill:black;stroke:none;stroke-opacity:1;stroke-width:1px;stroke-linejoin:miter;stroke-linecap:butt;fill-opacity:1;font-family:Sans;font-style:normal;font-weight:normal;font-size:20px;line-height:50%;letter-spacing:0px;word-spacing:0px"><flowRegion
         id="flowRegion3007"><rect
           id="rect3009"
           width="114.65231"
           height="87.378197"
           x="77.276672"
           y="103.02536" /></flowRegion><flowPara
         id="flowPara3011" /></flowRoot>    <flowRoot
       xml:space="preserve"
       id="flowRoot3013"
       style="font-size:20px;font-style:normal;font-weight:normal;line-height:50%;letter-spacing:0px;word-spacing:0px;fill:#000000;fill-opacity:1;stroke:none;font-family:Sans"
       transform="translate(-73.236059,940.24545)"><flowRegion
         id="flowRegion3015"><rect
           id="rect3017"
           width="110.6117"
           height="102.53048"
           x="236.88077"
           y="87.87307" /></flowRegion><flowPara
         id="flowPara3019"
         style="font-size:56px;font-weight:bold;fill:#000080;stroke:#f2f2f2;-inkscape-font-specification:Sans Bold">2</flowPara></flowRoot>    <path
       style="fill:#000080;stroke:#000080"
       id="path3251"
       d="m 142.07636,25.924804 c -3.50053,-0.08904 -7.00068,-0.19016 -10.5014,-0.280262 -9.71066,-0.197536 -19.42401,-0.119626 -29.13564,-0.05644 -7.952929,0.09454 -15.903453,0.06206 -23.854425,-0.122537 -7.671318,-0.269343 -15.352946,-0.09497 -23.021863,-0.396866 -5.905753,-0.353882 -11.813982,-0.630276 -17.729098,-0.754482 -2.231688,-0.118512 -4.458912,-0.304597 -6.684667,-0.502698 -0.954798,-0.08498 -1.852686,-0.252683 -2.786743,-0.01642 6.55392,-3.690382 4.850249,-5.20543 7.833495,-2.022125 1.337913,1.29588 2.15316,2.92707 2.739708,4.669401 0.748603,3.469226 0.483493,7.058035 0.576395,10.582841 0.215777,7.663228 0.781002,15.309935 1.546313,22.936202 0.782144,7.257538 1.375305,14.532085 1.686172,21.824964 0.266039,5.51064 0.09303,11.029664 0.321009,16.540223 0.250035,4.499383 0.573529,8.988423 1.119379,13.461773 0.151478,1.98706 0.479966,3.94736 0.79045,5.91313 0.194676,1.20643 0.227536,2.43027 0.237168,3.64982 -0.08246,1.82183 -0.364777,3.60969 -0.781082,5.38162 -0.481796,1.64227 -0.870544,3.30176 -1.085406,4.99987 -0.100942,1.36708 -0.198562,2.72946 -0.370395,4.09001 -0.174128,1.22196 -0.227436,2.45386 -0.269495,3.68575 -0.07197,1.08024 -0.288043,2.14245 -0.39965,3.21889 -0.0066,0.86275 -0.269426,1.80627 0.04676,2.63533 0.611637,0.47143 1.962285,0.71839 2.709799,0.89915 2.716562,0.51833 5.449665,0.9331 8.198919,1.23226 6.291665,0.45082 12.616477,0.2653 18.920571,0.23951 8.274758,0.0252 16.539354,-0.48369 24.779566,-1.19429 5.915283,-0.54879 11.849173,-0.82476 17.783973,-1.04786 2.47328,-0.0973 4.94712,-0.1718 7.4222,-0.19326 1.39639,-0.001 2.79276,-0.003 4.18913,0.005 1.62722,0.0523 3.24012,0.004 4.85899,-0.15242 1.67731,-0.29046 3.35645,-0.50273 4.9982,-0.95443 1.04031,-0.29937 2.15647,-0.27779 3.2112,-0.0552 0.057,0.0521 0.11399,0.10428 0.17099,0.15643 0,0 -6.36223,4.07124 -6.36223,4.07124 l 0,0 c 0.0124,0.0222 0.0248,0.0445 0.0372,0.0667 -0.99156,-0.16632 -1.97192,-0.0249 -2.93178,0.25339 -1.64891,0.37227 -3.337,0.54961 -5.00461,0.81755 -1.64672,0.144 -3.29388,0.14289 -4.9461,0.13154 -1.39148,0.003 -2.78287,-0.006 -4.17432,-0.0151 -2.35658,-0.0265 -4.7133,-0.0618 -7.07008,-0.0389 -5.81961,0.0867 -11.634124,0.35468 -17.435198,0.83693 -8.223222,0.6202 -16.46543,1.01968 -24.7129,1.0886 -6.498591,0.1021 -13.012361,0.39218 -19.506125,0.0863 -2.830848,-0.28773 -5.654238,-0.66674 -8.456214,-1.16457 -1.14345,-0.26624 -2.496977,-0.37971 -3.202715,-1.4314 -0.38068,-0.95023 -0.231251,-1.95653 -0.180132,-2.95956 0.09098,-1.0734 0.269355,-2.13152 0.461683,-3.19092 0.0137,-1.25569 0.05327,-2.51486 0.234427,-3.75925 0.191663,-1.36344 0.326789,-2.71792 0.38617,-4.09346 0.224129,-1.72959 0.590068,-3.43113 1.111444,-5.09688 0.401759,-1.71127 0.756455,-3.41315 0.782065,-5.18153 -0.02358,-1.19366 -0.04068,-2.38913 -0.182023,-3.57631 -0.235699,-2.01735 -0.516257,-4.02834 -0.571454,-6.06236 -0.309107,-4.54369 -0.604233,-9.08769 -0.860937,-13.63473 C 36.74822,95.918038 36.947345,90.380187 36.784523,84.849306 36.587697,77.5236 36.223459,70.20151 35.401892,62.915453 34.635946,55.335792 33.948195,47.747314 33.470239,40.143865 c -0.269484,-3.39217 -0.230014,-6.83896 -0.93335,-10.178405 -0.539841,-1.651306 -1.330707,-3.157876 -2.62617,-4.349585 -3.624353,-3.529211 -3.023258,-2.119447 4.424721,-6.245265 0.866682,0.06185 1.705693,0.233054 2.566172,0.351839 2.136992,0.295001 4.289055,0.487992 6.442381,0.609777 5.868971,0.174528 11.732868,0.449044 17.589911,0.869363 7.610868,0.35355 15.236009,0.26212 22.8512,0.501981 7.924243,0.139307 15.848393,0.121158 23.773596,0.165088 9.76344,0.06469 19.52846,0.137954 29.29099,-0.05644 3.75785,-0.09032 7.51521,-0.190805 11.2729,-0.280261 0,0 -6.04623,4.392843 -6.04623,4.392843 z"
       inkscape:connector-curvature="0"
       transform="translate(0,852.36218)" />
    <path
       style="fill:#000080;stroke:#000080"
       id="path3253"
       d="m 130.68621,124.94315 c 1.37315,1.0246 2.96545,1.70473 4.46094,2.53579 1.93532,1.1512 4.04545,1.94807 6.07504,2.9089 2.21467,1.02536 4.46839,1.95578 6.71234,2.91698 2.23274,0.93834 4.49592,1.81904 6.69531,2.83572 1.40501,0.72593 2.74092,1.57822 4.13736,2.32023 1.02619,0.62814 1.94824,1.40914 2.94796,2.07524 1.24192,0.97678 1.48018,1.55506 0.53916,2.91546 -1.50461,1.57611 -2.88915,3.25978 -4.31928,4.90236 -3.07428,3.09708 -7.30854,4.96977 -10.99684,7.09032 10.88457,-6.2696 2.0198,-1.14675 -2.29318,1.2487 -0.32486,0.18043 -2.21071,1.07172 -2.54451,1.243 -0.83044,0.42611 -1.64426,0.88395 -2.4715,1.31624 -2.15163,1.24028 -4.41541,2.2369 -6.67207,3.26351 -1.60073,0.84581 -3.25766,1.57805 -4.97633,2.1459 -1.44949,0.54475 -2.95479,1.03886 -4.29079,1.83352 -0.5418,0.19382 -1.00376,0.53069 -1.50727,0.80074 0,0 5.78385,-4.66126 5.78385,-4.66126 l 0,0 c 0.49013,-0.273 0.98879,-0.52715 1.49259,-0.77423 1.40395,-0.64684 2.84519,-1.20962 4.30758,-1.71027 1.66807,-0.62794 3.28849,-1.35835 4.88421,-2.15252 2.23156,-1.00215 4.43613,-2.04727 6.57442,-3.2397 1.24271,-0.65433 2.4898,-1.2912 3.7466,-1.91767 0.42602,-0.21236 1.67936,-0.89486 1.2737,-0.64579 -1.80948,1.11104 -14.72939,8.54985 2.33087,-1.3015 -10.62559,6.184 -3.43582,2.27164 -1.34699,0.28712 1.431,-1.59555 2.77185,-3.27264 4.23282,-4.83645 0.88562,-0.88612 1.16942,-0.93907 0.003,-1.81944 -0.95541,-0.68091 -1.88019,-1.40798 -2.87236,-2.03528 -1.3536,-0.77036 -2.68173,-1.58678 -4.05951,-2.31237 -2.16024,-1.01394 -4.33106,-2.01235 -6.54579,-2.90159 -2.28751,-0.93979 -4.61198,-1.79125 -6.83862,-2.87356 -2.03345,-0.97186 -4.12906,-1.81956 -6.08421,-2.95015 -1.57004,-0.83617 -3.21373,-1.5336 -4.70874,-2.50387 0,0 6.33065,-4.00408 6.33065,-4.00408 z"
       inkscape:connector-curvature="0"
       transform="translate(0,852.36218)" />
  </g>
</svg>
