<?xml version="1.0" encoding="UTF-8" standalone="no"?>
<!-- Created with Inkscape (http://www.inkscape.org/) -->

<svg
   xmlns:dc="http://purl.org/dc/elements/1.1/"
   xmlns:cc="http://creativecommons.org/ns#"
   xmlns:rdf="http://www.w3.org/1999/02/22-rdf-syntax-ns#"
   xmlns:svg="http://www.w3.org/2000/svg"
   xmlns="http://www.w3.org/2000/svg"
   xmlns:sodipodi="http://sodipodi.sourceforge.net/DTD/sodipodi-0.dtd"
   xmlns:inkscape="http://www.inkscape.org/namespaces/inkscape"
   width="200"
   height="200"
   id="svg2"
   version="1.1"
   inkscape:version="0.48.0 r9654"
   sodipodi:docname="d8.svg">
  <defs
     id="defs4" />
  <sodipodi:namedview
     id="base"
     pagecolor="#ffffff"
     bordercolor="#666666"
     borderopacity="1.0"
     inkscape:pageopacity="0.0"
     inkscape:pageshadow="2"
     inkscape:zoom="1.979899"
     inkscape:cx="165.45654"
     inkscape:cy="83.538595"
     inkscape:document-units="px"
     inkscape:current-layer="layer1"
     showgrid="false"
     inkscape:window-width="999"
     inkscape:window-height="738"
     inkscape:window-x="352"
     inkscape:window-y="160"
     inkscape:window-maximized="0" />
  <metadata
     id="metadata7">
    <rdf:RDF>
      <cc:Work
         rdf:about="">
        <dc:format>image/svg+xml</dc:format>
        <dc:type
           rdf:resource="http://purl.org/dc/dcmitype/StillImage" />
        <dc:title />
      </cc:Work>
    </rdf:RDF>
  </metadata>
  <g
     inkscape:label="Layer 1"
     inkscape:groupmode="layer"
     id="layer1"
     transform="translate(0,-852.36218)">
    <flowRoot
       xml:space="preserve"
       id="flowRoot2997"
       style="fill:black;stroke:none;stroke-opacity:1;stroke-width:1px;stroke-linejoin:miter;stroke-linecap:butt;fill-opacity:1;font-family:Sans;font-style:normal;font-weight:normal;font-size:20px;line-height:50%;letter-spacing:0px;word-spacing:0px"><flowRegion
         id="flowRegion2999"><rect
           id="rect3001"
           width="91.923882"
           height="90.408653"
           x="98.994949"
           y="95.954292" /></flowRegion><flowPara
         id="flowPara3003" /></flowRoot>    <flowRoot
       xml:space="preserve"
       id="flowRoot3005"
       style="fill:black;stroke:none;stroke-opacity:1;stroke-width:1px;stroke-linejoin:miter;stroke-linecap:butt;fill-opacity:1;font-family:Sans;font-style:normal;font-weight:normal;font-size:20px;line-height:50%;letter-spacing:0px;word-spacing:0px"><flowRegion
         id="flowRegion3007"><rect
           id="rect3009"
           width="114.65231"
           height="87.378197"
           x="77.276672"
           y="103.02536" /></flowRegion><flowPara
         id="flowPara3011" /></flowRoot>    <flowRoot
       xml:space="preserve"
       id="flowRoot3013"
       style="font-size:20px;font-style:normal;font-weight:normal;line-height:50%;letter-spacing:0px;word-spacing:0px;fill:#000000;fill-opacity:1;stroke:none;font-family:Sans"
       transform="translate(-73.236059,940.24545)"><flowRegion
         id="flowRegion3015"><rect
           id="rect3017"
           width="110.6117"
           height="102.53048"
           x="236.88077"
           y="87.87307" /></flowRegion><flowPara
         id="flowPara3019"
         style="font-size:56px;font-weight:bold;fill:#000080;stroke:#f2f2f2;-inkscape-font-specification:Sans Bold">2</flowPara></flowRoot>    <path
       style="fill:#000080;stroke:#000080"
       id="path3213"
       d="m 128.17473,41.846057 c 1.67323,0.187321 3.19687,0.869774 4.68005,1.623454 1.91675,0.947547 3.80651,1.952651 5.75697,2.829637 1.57194,0.720181 3.13389,1.41548 4.62266,2.301293 1.27045,0.859553 2.68378,1.472751 4.06082,2.140713 1.49276,0.727977 2.86035,1.660276 4.16859,2.674052 1.39234,1.117187 2.84788,2.149886 4.25408,3.249304 1.50459,1.156925 2.93286,2.406032 4.40869,3.59895 0.98601,0.783083 1.94014,1.601181 2.63914,2.65911 0.50306,1.024557 0.61039,2.162737 1.0072,3.232143 0.7362,1.683445 1.4451,3.377592 2.15312,5.073095 0.67063,1.798488 1.24925,3.627973 1.9314,5.422566 0.62914,1.559333 0.8737,3.20825 1.00403,4.872635 0.0568,1.597258 0.1017,3.185197 0.34186,4.767508 0.33236,1.689313 0.55764,3.387379 0.65686,5.105456 0.0841,1.574893 0.0941,3.152397 0.10476,4.729091 0.0181,1.525232 -0.22617,3.036943 -0.35686,4.553436 -0.10864,1.28458 -0.0726,2.57493 -0.25591,3.8521 -0.19526,1.30356 -0.51514,2.58617 -0.83794,3.86317 -0.33287,1.3914 -0.68771,2.77126 -0.89211,4.18846 -0.24322,1.42319 -0.61197,2.84003 -1.11035,4.19628 -0.56805,1.30269 -1.0177,2.6462 -1.46436,3.9936 -0.40171,1.30999 -0.9263,2.56432 -1.53968,3.78752 -0.76792,1.19848 -1.33866,2.47463 -1.78721,3.82044 -0.46249,1.46366 -0.8594,2.9424 -1.52168,4.33099 -0.63988,1.22948 -1.33602,2.42348 -1.96421,3.65895 -0.67129,1.26179 -1.35489,2.5153 -2.09436,3.73861 -0.78504,1.40702 -1.75058,2.67044 -2.87762,3.81682 -1.00894,1.01397 -2.16496,1.8179 -3.37484,2.56596 -3.31057,1.81698 -6.48419,4.23992 -10.18536,5.27487 -1.02191,0.24576 -1.90538,0.84415 -2.83754,1.29948 -0.46023,0.22481 -1.03088,0.40238 -1.51398,0.56698 -1.71927,0.5855 -3.31578,1.45428 -5.02079,2.07839 -2.16379,0.88892 -4.37647,1.6052 -6.61512,2.27745 -2.64624,0.6858 -5.36426,1.0613 -8.05632,1.53318 -2.27405,0.58895 -4.61903,0.78159 -6.92337,1.19043 -1.98206,0.33089 -3.99151,0.44228 -5.99067,0.6325 -2.51489,0.30976 -5.029421,0.23181 -7.551025,0.10499 -2.716355,0.0272 -5.365451,-0.49675 -8.025244,-0.96714 -2.697523,-0.33247 -5.332298,-1.00266 -7.976036,-1.60935 -2.13348,-0.47766 -4.151968,-1.31108 -6.227391,-1.97479 -1.70188,-0.53525 -3.380054,-1.13173 -5.033395,-1.8019 -2.260687,-0.85288 -4.271276,-2.20927 -6.355147,-3.41692 -3.249482,-1.91489 -6.674058,-3.51929 -10.08257,-5.12908 -1.993756,-0.98109 -4.045976,-1.84228 -6.086497,-2.72185 -2.008509,-0.77956 -3.895834,-1.81148 -5.806755,-2.79461 -1.268265,-0.67206 -2.476478,-1.41516 -3.541639,-2.37895 -1.011212,-1.00493 -1.836062,-2.20797 -2.47331,-3.48147 -1.050329,-1.86987 -1.731598,-3.90604 -2.48531,-5.90598 -1.04044,-2.08333 -1.728164,-4.29272 -2.35322,-6.52677 -0.57946,-1.96958 -1.055948,-3.96427 -1.355753,-5.99518 -0.367546,-1.93605 -0.606602,-3.88514 -0.755115,-5.84895 -0.09677,-1.62494 -0.166909,-3.24887 2.99e-4,-4.87001 0.232166,-1.79089 0.781045,-3.49778 1.467041,-5.16008 0.939448,-1.976506 1.860825,-3.956957 2.700911,-5.978395 0.614618,-1.276577 0.93124,-2.678216 1.473642,-3.980452 0.318723,-0.765213 0.514493,-0.997849 0.957235,-1.670512 0.951689,-1.25579 1.760018,-2.599845 2.486417,-3.995371 0.695881,-1.267386 1.294106,-2.582399 1.875522,-3.905217 0.508523,-1.394682 1.235614,-2.678816 1.94868,-3.973795 0.753256,-1.318204 1.419083,-2.680686 2.142897,-4.014818 0.78481,-1.391936 1.803369,-2.643904 2.84606,-3.849699 1.099276,-1.248497 2.16195,-2.519386 3.35641,-3.679264 0.855842,-0.92272 1.779353,-1.755434 2.818759,-2.464588 3.190685,-1.827215 6.308449,-4.05644 9.895125,-5.077375 1.202192,-0.523202 2.504252,-0.666902 3.751925,-1.038152 1.543925,-0.46391 3.100952,-0.910282 4.602293,-1.500578 1.208774,-0.703048 2.457864,-1.306283 3.730936,-1.88528 1.435942,-0.687207 2.999506,-0.819699 4.563555,-0.909471 1.840833,0.02461 3.573134,-0.632613 5.347447,-1.023334 1.527034,-0.357408 2.970483,-0.975078 4.494576,-1.338293 1.165438,-0.248207 2.347512,0.06008 3.480967,0.333161 0.19259,0.04136 0.385181,0.08271 0.577771,0.124068 0,0 -6.086649,4.223928 -6.086649,4.223928 l 0,0 c -0.192618,-0.04338 -0.385236,-0.08677 -0.577854,-0.130152 -1.084327,-0.231021 -2.187734,-0.377627 -3.270837,-0.05029 -1.476783,0.412085 -2.919698,0.943011 -4.42316,1.260567 -1.794112,0.436076 -3.571695,0.972259 -5.439089,0.954693 -1.538994,0.150397 -3.044491,0.419236 -4.433744,1.138933 -1.264378,0.59257 -2.471483,1.296147 -3.759847,1.8331 -1.531915,0.525932 -3.076799,1.01694 -4.636599,1.453651 -1.264513,0.33479 -2.545829,0.602702 -3.768887,1.079881 -2.802109,0.967086 -8.283664,4.107854 2.844673,-2.118459 -1.091013,0.606259 -2.05061,1.385237 -2.885026,2.315544 -1.192742,1.173237 -2.405255,2.313942 -3.417054,3.658331 -1.076335,1.119531 -2.00772,2.385501 -2.893373,3.658509 -0.666076,1.367395 -1.444442,2.681684 -2.146566,4.032048 -0.681973,1.293891 -1.493089,2.520676 -1.958202,3.91969 -0.60557,1.321428 -1.138935,2.674286 -1.862807,3.938378 -0.712819,1.437295 -1.502098,2.845518 -2.489597,4.114841 -0.185561,0.242922 -0.945502,1.213753 -1.074862,1.482131 -0.148075,0.307206 -0.198377,0.652762 -0.310435,0.974857 -0.360216,1.035388 -0.783387,2.05026 -1.181002,3.071363 -0.809331,2.021873 -1.680119,4.011162 -2.645787,5.963744 -0.691818,1.590485 -1.255813,3.215842 -1.502272,4.941032 -0.189141,1.58983 -0.202622,3.1762 -0.09911,4.7762 0.10371,1.95327 0.327793,3.8946 0.689466,5.81803 0.283624,2.00655 0.769773,3.96797 1.325351,5.91591 0.558449,2.22905 1.219073,4.42876 2.271684,6.48286 0.766906,1.96435 1.446252,3.9743 2.55157,5.78297 0.609086,1.18788 1.405189,2.29869 2.37773,3.2162 1.027555,0.89785 2.172495,1.62707 3.369065,2.28203 1.859288,1.02785 3.745817,2.00206 5.731601,2.76787 2.040284,0.85852 4.079374,1.73753 6.01257,2.82072 3.342644,1.73896 6.722175,3.40671 10.038272,5.1962 2.144804,1.13128 4.244761,2.35844 6.528076,3.1958 1.637864,0.64984 3.293337,1.24635 4.968184,1.7944 2.030685,0.71103 4.04968,1.46193 6.15056,1.9481 2.601024,0.63852 5.204582,1.28242 7.864496,1.6314 2.669638,0.44288 5.336751,0.83898 8.051622,0.84311 2.5026,0.12557 5.00152,0.1271 7.49258,-0.19814 2.00932,-0.21737 4.0282,-0.35749 6.02118,-0.70506 2.28185,-0.31367 4.56373,-0.61783 6.81364,-1.12586 2.68316,-0.48427 5.40284,-0.83244 8.02037,-1.61514 2.24651,-0.69997 4.45656,-1.48772 6.64075,-2.36421 1.69962,-0.69568 3.33777,-1.53903 5.08554,-2.11595 1.47353,-0.5943 2.84651,-1.43482 4.39216,-1.84691 2.82533,-0.96607 8.6113,-4.466 -2.53078,1.8968 1.24228,-0.74458 2.39706,-1.41769 3.46295,-2.42021 1.14801,-1.08188 2.20596,-2.22918 2.92816,-3.64729 0.77027,-1.19969 1.44451,-2.43953 2.11194,-3.69705 0.87018,-1.50906 -0.15578,0.33524 0.60542,-1.24814 0.39933,-0.83066 1.02717,-1.54166 1.35935,-2.41007 0.79478,-1.30523 1.14846,-2.77265 1.59176,-4.22308 0.45286,-1.35696 0.84626,-2.73841 1.70088,-3.91446 0.65529,-1.17422 1.21615,-2.38792 1.59969,-3.67994 0.45154,-1.35905 0.89248,-2.71876 1.44671,-4.03954 0.57713,-1.27938 0.88486,-2.66814 1.20605,-4.02833 0.1578,-1.45056 0.51303,-2.84637 0.84194,-4.26363 0.31523,-1.25397 0.64068,-2.50999 0.84498,-3.78726 0.2033,-1.27161 0.23803,-2.53969 0.31111,-3.82612 0.12853,-1.49886 0.38602,-2.99057 0.38519,-4.495932 0.007,-1.569952 0.012,-3.140611 -0.0519,-4.709608 -0.0975,-1.690545 -0.27378,-3.375015 -0.61812,-5.035339 -0.29461,-1.596744 -0.3824,-3.198458 -0.38812,-4.820816 -0.10933,-1.598934 -0.30165,-3.190903 -0.89174,-4.695591 -0.66195,-1.794862 -1.22125,-3.623154 -1.86767,-5.422536 -0.72694,-1.691049 -1.46601,-3.373135 -2.25697,-5.034803 -0.42431,-1.010437 -0.60304,-2.060248 -0.97757,-3.07797 -0.64031,-0.998455 -1.55779,-1.74977 -2.45179,-2.513209 -1.4327,-1.223415 -2.83324,-2.488278 -4.35269,-3.605374 -1.41684,-1.0908 -2.89719,-2.096625 -4.29088,-3.218224 -1.28543,-0.96159 -2.61231,-1.877778 -4.07649,-2.550857 -1.40942,-0.649997 -2.81679,-1.313011 -4.10323,-2.189443 -1.47155,-0.844614 -3.01521,-1.518484 -4.52792,-2.281664 -1.93758,-0.932025 -3.8571,-1.901292 -5.80109,-2.820162 -1.49018,-0.711221 -3.01208,-1.292311 -4.68439,-1.358632 0,0 6.11679,-4.291583 6.11679,-4.291583 z"
       inkscape:connector-curvature="0"
       transform="translate(0,852.36218)" />
    <path
       style="fill:#000080;stroke:#000080"
       id="path3215"
       d="m 70.596034,32.754684 c 1.885789,0.464296 3.739822,1.028979 5.579341,1.654612 2.545012,1.030244 5.204753,1.698133 7.855844,2.388848 2.745092,0.774284 5.498808,1.517239 8.240513,2.303781 2.455244,0.699117 4.868586,1.522958 7.309245,2.271785 1.646523,0.428584 3.252243,1.027373 4.818923,1.688564 0.57156,0.181223 1.08834,0.485982 1.64703,0.699118 0.08,0.03052 0.74832,0.237492 0.86648,0.329196 0.10493,0.08144 0.16342,0.209432 0.24512,0.314147 0.26305,0.874408 -0.2512,1.318605 -0.8419,1.876281 -0.68081,0.64275 -0.42894,0.40165 -1.1556,1.133217 -1.86034,1.969326 -3.159,4.347918 -4.35453,6.755276 -1.380205,2.827826 -2.278129,5.82166 -2.785982,8.917855 -0.211345,1.821273 -0.500571,3.632283 -0.674272,5.457786 -0.163179,1.269566 -0.269371,2.559652 -0.769189,3.748488 0,0 -6.804086,3.005395 -6.804086,3.005395 l 0,0 c 0.831146,-0.906004 0.728313,-2.33198 0.992322,-3.471194 0.143278,-1.878379 0.545439,-3.713848 0.783526,-5.58079 0.567396,-3.151579 1.425254,-6.21855 2.775466,-9.134774 1.138425,-2.413221 2.34017,-4.822109 4.077582,-6.870907 0.607505,-0.69449 1.368337,-1.75208 2.298603,-1.993487 -0.769763,-0.426059 -1.643454,-0.704677 -2.446208,-1.08216 -1.531635,-0.634043 -3.060954,-1.283531 -4.668579,-1.705155 -2.417662,-0.753739 -4.789948,-1.646291 -7.238321,-2.301942 -2.737067,-0.783111 -5.480622,-1.543838 -8.226176,-2.296217 -2.665958,-0.718305 -5.345648,-1.384756 -7.921977,-2.393617 -1.875737,-0.590301 -3.767464,-1.14768 -5.719966,-1.422523 0,0 6.116791,-4.291583 6.116791,-4.291583 z"
       inkscape:connector-curvature="0"
       transform="translate(0,852.36218)" />
  </g>
</svg>
