<?xml version="1.0" encoding="UTF-8" standalone="no"?>
<!-- Created with Inkscape (http://www.inkscape.org/) -->

<svg
   xmlns:dc="http://purl.org/dc/elements/1.1/"
   xmlns:cc="http://creativecommons.org/ns#"
   xmlns:rdf="http://www.w3.org/1999/02/22-rdf-syntax-ns#"
   xmlns:svg="http://www.w3.org/2000/svg"
   xmlns="http://www.w3.org/2000/svg"
   xmlns:sodipodi="http://sodipodi.sourceforge.net/DTD/sodipodi-0.dtd"
   xmlns:inkscape="http://www.inkscape.org/namespaces/inkscape"
   width="200"
   height="200"
   id="svg2"
   version="1.1"
   inkscape:version="0.48.0 r9654"
   sodipodi:docname="d9.svg">
  <defs
     id="defs4" />
  <sodipodi:namedview
     id="base"
     pagecolor="#ffffff"
     bordercolor="#666666"
     borderopacity="1.0"
     inkscape:pageopacity="0.0"
     inkscape:pageshadow="2"
     inkscape:zoom="1.979899"
     inkscape:cx="165.45654"
     inkscape:cy="83.538595"
     inkscape:document-units="px"
     inkscape:current-layer="layer1"
     showgrid="false"
     inkscape:window-width="999"
     inkscape:window-height="738"
     inkscape:window-x="284"
     inkscape:window-y="157"
     inkscape:window-maximized="0" />
  <metadata
     id="metadata7">
    <rdf:RDF>
      <cc:Work
         rdf:about="">
        <dc:format>image/svg+xml</dc:format>
        <dc:type
           rdf:resource="http://purl.org/dc/dcmitype/StillImage" />
        <dc:title />
      </cc:Work>
    </rdf:RDF>
  </metadata>
  <g
     inkscape:label="Layer 1"
     inkscape:groupmode="layer"
     id="layer1"
     transform="translate(0,-852.36218)">
    <flowRoot
       xml:space="preserve"
       id="flowRoot2997"
       style="fill:black;stroke:none;stroke-opacity:1;stroke-width:1px;stroke-linejoin:miter;stroke-linecap:butt;fill-opacity:1;font-family:Sans;font-style:normal;font-weight:normal;font-size:20px;line-height:50%;letter-spacing:0px;word-spacing:0px"><flowRegion
         id="flowRegion2999"><rect
           id="rect3001"
           width="91.923882"
           height="90.408653"
           x="98.994949"
           y="95.954292" /></flowRegion><flowPara
         id="flowPara3003" /></flowRoot>    <flowRoot
       xml:space="preserve"
       id="flowRoot3005"
       style="fill:black;stroke:none;stroke-opacity:1;stroke-width:1px;stroke-linejoin:miter;stroke-linecap:butt;fill-opacity:1;font-family:Sans;font-style:normal;font-weight:normal;font-size:20px;line-height:50%;letter-spacing:0px;word-spacing:0px"><flowRegion
         id="flowRegion3007"><rect
           id="rect3009"
           width="114.65231"
           height="87.378197"
           x="77.276672"
           y="103.02536" /></flowRegion><flowPara
         id="flowPara3011" /></flowRoot>    <flowRoot
       xml:space="preserve"
       id="flowRoot3013"
       style="font-size:20px;font-style:normal;font-weight:normal;line-height:50%;letter-spacing:0px;word-spacing:0px;fill:#000000;fill-opacity:1;stroke:none;font-family:Sans"
       transform="translate(-73.236059,940.24545)"><flowRegion
         id="flowRegion3015"><rect
           id="rect3017"
           width="110.6117"
           height="102.53048"
           x="236.88077"
           y="87.87307" /></flowRegion><flowPara
         id="flowPara3019"
         style="font-size:56px;font-weight:bold;fill:#000080;stroke:#f2f2f2;-inkscape-font-specification:Sans Bold">2</flowPara></flowRoot>    <path
       style="fill:#000080;stroke:#000080"
       id="path3227"
       d="m 84.090802,28.069417 c -1.376544,0.196946 -2.679252,0.725763 -4.041183,1.032134 -1.407992,0.309524 -2.749345,0.832737 -4.114477,1.283874 -1.301902,0.590097 -2.614898,1.159869 -3.896568,1.797863 -1.883997,0.870514 -3.711278,1.859832 -5.556815,2.808659 -0.327396,0.167348 -0.654605,0.335061 -0.982187,0.502043 -1.298844,0.662073 -0.67855,0.329254 -1.93092,1.021861 -0.30709,0.169832 -1.224776,0.685709 -0.920562,0.510777 1.764137,-1.014434 7.050344,-4.068091 5.300419,-3.029332 -2.366707,1.404882 -4.767303,2.751876 -7.150955,4.127814 1.755832,-1.0083 7.030955,-4.019801 5.267496,-3.0249 -2.401483,1.354857 -4.778228,2.753303 -7.181607,4.104794 -0.853987,0.480222 -1.110976,0.495823 -1.971725,0.963584 -0.315724,0.171576 -1.233595,0.737401 -0.920812,0.56052 1.771908,-1.002034 3.532393,-2.024133 5.298589,-3.0362 -1.597398,0.950725 -2.93855,2.246751 -4.347717,3.443257 -1.125564,0.898334 -2.026128,2.019351 -2.986731,3.08062 -1.039564,0.984995 -1.869648,2.116574 -2.572419,3.356687 -0.737596,1.178331 -1.264027,2.467483 -1.907146,3.695605 -0.545234,1.160678 -1.160009,2.26869 -1.872275,3.335197 -0.678168,1.231927 -1.481967,2.387183 -2.182246,3.605148 -0.799227,1.389576 -1.478891,2.841096 -2.117441,4.309805 -0.792629,1.814214 -0.96737,3.78978 -1.094942,5.741468 -0.0388,1.817322 -0.284371,3.619945 -0.412806,5.431231 -0.01634,1.538403 -0.377339,3.03217 -0.694805,4.527353 -0.250931,1.511554 -0.400607,3.036157 -0.624907,4.552427 -0.214142,1.396813 -0.281411,2.809818 -0.308393,4.220866 -0.02939,1.714921 -0.279033,3.415538 -0.393107,5.126217 -0.211463,1.971231 -0.05443,3.932461 0.265117,5.880036 0.282466,1.409271 0.762297,2.762455 1.187953,4.130935 0.299127,1.13601 0.614449,2.26714 1.03699,3.36422 0.664594,1.36307 1.240394,2.76536 1.842385,4.1574 0.589847,1.30974 0.946867,2.7052 1.47442,4.03809 0.702224,1.5175 1.358854,3.05535 2.041924,4.58134 0.669603,1.40374 1.26714,2.83783 1.896138,4.25968 0.865271,2.18181 1.653971,4.39435 2.345679,6.63736 0.923475,2.67298 1.57718,5.42667 2.384531,8.13452 0.447067,1.68807 0.995361,3.34376 1.715648,4.93432 0.701228,1.25828 1.402497,2.54954 2.362675,3.63208 0.583579,0.83457 1.239585,1.50503 2.07554,2.08008 1.033314,0.88008 2.212759,1.48375 3.442487,2.03685 1.391293,0.51506 2.703928,1.21356 4.085356,1.75135 1.718016,0.7044 3.420266,1.43013 5.169332,2.05902 2.135113,0.61133 4.295871,1.12971 6.433598,1.73583 2.005324,0.45298 3.937134,1.16399 5.906551,1.7419 1.631514,0.38004 3.263504,0.76478 4.926236,0.98338 1.859179,0.41585 3.757897,0.55046 5.655201,0.64507 3.08679,0.11962 6.176599,0.12786 9.265299,0.13268 3.37754,0.11824 6.7373,-0.20522 10.09865,-0.46966 4.85959,-0.55002 9.68153,-1.36859 14.54177,-1.91214 3.34575,-0.50499 6.75017,-0.65782 10.00732,-1.62239 0.96712,-0.218 1.86829,-0.64835 2.74191,-1.1062 0.2418,-0.12672 0.94775,-0.54237 0.71075,-0.40688 -7.82273,4.47213 -7.70436,4.41618 1.30407,-0.78265 0.21381,-0.12259 0.85533,-0.49016 0.64142,-0.36775 -1.86948,1.06979 -3.73464,2.14717 -5.60814,3.20991 -0.24943,0.1415 0.48631,-0.3044 0.73568,-0.44601 3.38156,-1.92031 5.83371,-3.43541 9.05406,-4.89341 1.49162,-0.68233 0.54652,-0.2226 2.02006,-1.00909 0.32471,-0.17332 1.29524,-0.69936 0.97742,-0.51373 -9.92969,5.79946 -5.55248,3.19547 -3.38038,1.88556 2.00339,-1.2335 3.83842,-2.68587 5.5355,-4.31013 1.7413,-1.73157 2.98095,-3.84766 3.99373,-6.06471 0.93936,-2.15179 1.68617,-4.37792 2.59754,-6.54024 0.8323,-1.92774 1.40224,-3.95015 1.95484,-5.97122 0.67015,-2.13864 1.13798,-4.3273 1.6693,-6.50192 0.72737,-2.86946 1.15346,-5.78895 1.41674,-8.73311 0.16837,-2.86406 0.27621,-5.74111 0.14872,-8.60884 -0.19519,-2.66629 -1.02819,-5.21916 -1.84396,-7.746597 -0.93564,-2.909589 -1.92521,-5.793532 -3.10145,-8.614505 -1.32636,-2.957508 -2.74087,-5.875422 -4.2598,-8.738704 -1.67293,-3.114473 -3.42676,-6.165156 -5.43855,-9.073864 -1.22304,-1.618381 -2.54584,-3.151713 -4.01079,-4.554449 -1.28528,-1.308051 -2.79677,-2.340713 -4.23538,-3.464678 -1.20283,-0.674194 -2.17872,-1.666063 -3.31345,-2.434646 -0.25819,-0.174885 -0.53325,-0.323479 -0.79988,-0.485219 -0.26206,-0.177678 -0.52413,-0.355355 -0.7862,-0.533033 -1.43194,-0.87472 -2.95568,-1.575621 -4.43101,-2.371209 -1.47399,-0.798435 -2.93253,-1.627968 -4.42591,-2.392715 -1.91807,-1.070215 -3.80496,-2.198636 -5.73128,-3.253652 -1.36057,-0.75522 -2.75119,-1.455424 -4.11974,-2.197846 -0.84915,-0.458856 -1.72194,-0.840285 -2.62334,-1.181415 0,0 6.19861,-4.139543 6.19861,-4.139543 l 0,0 c 0.88012,0.404406 1.75612,0.813487 2.60375,1.284424 1.36129,0.736574 2.72578,1.470256 4.05859,2.256348 1.88228,1.114477 3.76864,2.22128 5.71716,3.217986 1.51337,0.748962 2.98567,1.572481 4.46444,2.386557 1.50092,0.784755 3.02804,1.523128 4.44775,2.453085 1.66853,1.124469 3.24716,2.359986 4.90391,3.50177 1.48518,1.117436 3.01622,2.184503 4.33005,3.509179 1.46603,1.462498 2.73859,3.086134 3.92267,4.784135 1.91716,2.991701 3.65869,6.079873 5.42669,9.160486 1.54533,2.874001 2.97716,5.807389 4.33128,8.776222 1.18351,2.835796 2.18087,5.735359 3.15205,8.650319 0.85907,2.575271 1.74315,5.176263 1.97829,7.898334 0.12155,2.90921 -0.0491,5.82174 -0.18804,8.72797 -0.21187,2.96038 -0.63148,5.88823 -1.27216,8.78792 -0.51973,2.16881 -0.94013,4.35781 -1.60119,6.49078 -0.55081,2.05995 -1.13673,4.11846 -1.96197,6.08838 -0.94447,2.15577 -1.66343,4.39477 -2.61312,6.54969 -0.94337,2.2978 -2.18735,4.48401 -3.88114,6.31726 -1.65175,1.68376 -3.45802,3.17147 -5.43792,4.45623 -3.95719,2.37987 -7.87806,4.85505 -12.08447,6.77351 -0.33007,0.15271 -0.66125,0.30305 -0.99021,0.45814 -0.3148,0.14842 -1.23859,0.63286 -0.94102,0.45237 12.19685,-7.39809 0.63783,-0.0913 -2.92839,1.69226 1.88005,-1.09243 7.51709,-4.37502 5.64014,-3.27728 -3.37101,1.97154 -6.59231,4.36986 -10.41586,5.35504 -3.20838,0.75596 -6.5102,0.88203 -9.77071,1.31313 -4.91648,0.55944 -9.79265,1.386 -14.70098,2.0079 -3.37829,0.31988 -6.7588,0.54961 -10.155657,0.43476 -3.143947,-0.001 -6.288861,0.0301 -9.431974,-0.0553 -1.937054,-0.096 -3.864625,-0.27332 -5.770201,-0.6483 -1.668814,-0.26599 -3.319867,-0.65273 -4.94838,-1.10078 -1.950122,-0.60624 -3.881115,-1.27843 -5.871234,-1.74838 -2.149373,-0.59613 -4.319615,-1.12077 -6.448317,-1.78598 -1.778261,-0.62657 -3.533043,-1.31458 -5.280478,-2.02152 -1.372083,-0.57462 -2.711765,-1.22472 -4.091403,-1.78252 -1.268108,-0.57446 -2.47352,-1.24873 -3.571882,-2.11139 -0.887551,-0.61438 -1.544067,-1.37337 -2.154083,-2.2612 -0.955322,-1.17477 -1.697852,-2.50378 -2.419876,-3.83048 -0.759229,-1.62487 -1.290052,-3.32937 -1.694528,-5.07674 -0.726458,-2.7306 -1.286815,-5.51228 -2.285783,-8.16341 -0.708272,-2.19936 -1.590462,-4.33367 -2.475839,-6.46595 -0.652518,-1.41377 -1.220746,-2.86403 -1.897727,-4.26685 -0.668329,-1.54117 -1.310989,-3.09268 -2.066667,-4.59462 -0.541449,-1.32348 -0.922808,-2.70247 -1.456673,-4.02905 -0.596961,-1.40236 -1.182805,-2.80598 -1.894912,-4.15524 -0.440583,-1.10926 -0.796808,-2.25509 -1.075142,-3.4152 -0.398155,-1.41778 -0.868121,-2.81436 -1.13691,-4.26692 -0.308173,-1.993785 -0.545222,-3.995318 -0.361539,-6.016531 0.119014,-1.691989 0.319366,-3.380602 0.369023,-5.074537 0.03099,-1.437512 0.04257,-2.877687 0.253041,-4.303564 0.248792,-1.527905 0.46,-3.052698 0.63042,-4.591364 0.280948,-1.478561 0.720432,-2.934788 0.749008,-4.451815 0.139384,-1.81961 0.407932,-3.626744 0.473523,-5.450191 0.10844,-2.00327 0.235409,-4.045516 0.936489,-5.944459 0.622973,-1.482973 1.260552,-2.965527 2.064935,-4.361326 0.64666,-1.263631 1.508601,-2.374117 2.134097,-3.650567 0.689001,-1.072303 1.436163,-2.090641 1.894788,-3.286007 0.706973,-1.200866 1.181718,-2.517871 1.914223,-3.702908 0.709165,-1.272709 1.413458,-2.525082 2.496542,-3.530827 1.043152,-1.006107 1.842129,-2.237838 2.980442,-3.151175 0.81448,-0.707081 0.387615,-0.356305 1.283501,-1.048783 1.008695,-0.871298 1.941301,-1.851512 3.101385,-2.533844 2.377743,-1.387955 4.750948,-2.783712 7.133227,-4.163865 0.897639,-0.520039 1.002639,-0.534563 1.932144,-1.004109 0.324844,-0.164096 1.282361,-0.687903 0.970079,-0.501005 -1.084356,0.648981 -15.937243,9.270252 1.909023,-1.095687 -13.120843,7.620145 1.698581,-1.220915 5.698441,-3.107118 1.861953,-0.961647 3.714704,-1.942778 5.612973,-2.83185 1.314275,-0.624221 2.624735,-1.264463 3.995918,-1.756696 1.364381,-0.468492 2.736225,-0.910319 4.146166,-1.224257 1.388835,-0.352257 2.73725,-0.851366 4.155206,-1.084046 0,0 -5.970627,4.520628 -5.970627,4.520628 z"
       inkscape:connector-curvature="0"
       transform="translate(0,852.36218)" />
    <path
       style="fill:#000080;stroke:#000080"
       id="path3229"
       d="m 136.02681,42.336193 c -1.75703,-0.837696 -3.66575,-1.367459 -5.4956,-2.041488 -3.0365,-1.145948 -6.11442,-2.173526 -9.25792,-2.982372 -2.76191,-0.757417 -5.60062,-1.206852 -8.4424,-1.53468 -3.08186,-0.304154 -6.18064,-0.337618 -9.27466,-0.328885 -2.96137,0.213196 -5.754993,2.652695 4.43343,-3.04884 0.0622,-0.03481 -0.1519,0.02495 -0.19891,0.07854 -0.11989,0.136662 0.1445,0.583154 0.14502,0.584412 0.91559,1.345291 1.74043,2.746102 2.48175,4.196106 1.81704,3.895158 2.27048,8.171074 2.77147,12.385959 0.75703,5.049368 1.25421,10.132062 2.1536,15.159532 0.49708,2.897051 1.08256,5.787103 2.16356,8.527063 0.86098,1.873657 2.12641,3.48842 3.52677,4.982579 0.75279,0.745321 1.51292,1.478722 2.24461,2.244811 0,0 -6.22195,3.792605 -6.22195,3.792605 l 0,0 c -0.72944,-0.765851 -1.478,-1.511299 -2.22237,-2.262643 -1.47961,-1.555784 -2.79659,-3.248205 -3.68451,-5.219874 -1.0498,-2.829919 -1.47055,-5.824264 -1.9763,-8.788908 -0.81423,-5.068207 -1.10031,-10.211124 -2.009,-15.268558 -0.55259,-4.092838 -1.06312,-8.24149 -3.04794,-11.938056 -0.81236,-1.424437 -1.67809,-2.815392 -2.6382,-4.144336 -0.18014,-0.335063 -0.42329,-0.711457 -0.47549,-1.102396 -0.42358,-3.172272 5.48063,-4.474323 8.41488,-4.424201 3.0835,0.09079 6.17142,0.16584 9.24499,0.441515 2.86622,0.338751 5.72727,0.803754 8.50048,1.620748 3.14172,0.873397 6.2165,1.954849 9.29834,3.01697 1.94654,0.632219 3.93461,1.162032 5.83151,1.93215 0,0 -6.26516,4.122251 -6.26516,4.122251 z"
       inkscape:connector-curvature="0"
       transform="translate(0,852.36218)" />
  </g>
</svg>
