<?xml version="1.0" encoding="UTF-8" standalone="no"?>
<!-- Created with Inkscape (http://www.inkscape.org/) -->

<svg
   xmlns:dc="http://purl.org/dc/elements/1.1/"
   xmlns:cc="http://creativecommons.org/ns#"
   xmlns:rdf="http://www.w3.org/1999/02/22-rdf-syntax-ns#"
   xmlns:svg="http://www.w3.org/2000/svg"
   xmlns="http://www.w3.org/2000/svg"
   xmlns:sodipodi="http://sodipodi.sourceforge.net/DTD/sodipodi-0.dtd"
   xmlns:inkscape="http://www.inkscape.org/namespaces/inkscape"
   width="80"
   height="80"
   id="svg2"
   version="1.1"
   inkscape:version="0.48.0 r9654"
   sodipodi:docname="d3.svg">
  <defs
     id="defs4" />
  <sodipodi:namedview
     id="base"
     pagecolor="#ffffff"
     bordercolor="#666666"
     borderopacity="1.0"
     inkscape:pageopacity="0.0"
     inkscape:pageshadow="2"
     inkscape:zoom="3.959798"
     inkscape:cx="28.841519"
     inkscape:cy="42.61459"
     inkscape:document-units="px"
     inkscape:current-layer="layer1"
     showgrid="false"
     inkscape:window-width="1920"
     inkscape:window-height="1002"
     inkscape:window-x="0"
     inkscape:window-y="25"
     inkscape:window-maximized="1" />
  <metadata
     id="metadata7">
    <rdf:RDF>
      <cc:Work
         rdf:about="">
        <dc:format>image/svg+xml</dc:format>
        <dc:type
           rdf:resource="http://purl.org/dc/dcmitype/StillImage" />
        <dc:title></dc:title>
      </cc:Work>
    </rdf:RDF>
  </metadata>
  <g
     inkscape:label="Layer 1"
     inkscape:groupmode="layer"
     id="layer1"
     transform="translate(0,-972.36218)">
    <path
       style="fill:#000080;stroke:#000080"
       id="path3443"
       d="m 13.98985,71.173443 c 0.02843,-1.256093 0.02069,-2.512703 0.01869,-3.769031 0.0057,-1.177697 -0.02972,-2.356072 0.02325,-3.532853 0.101269,-1.301621 0.163099,-2.605218 0.197362,-3.91017 0.02839,-1.22071 0.03022,-2.44185 0.03204,-3.66283 0.0077,-1.251279 -0.02281,-2.503059 0.02679,-3.753577 0.0873,-1.25493 0.155233,-2.510738 0.19148,-3.768175 0.02806,-1.151491 0.03087,-2.303387 0.03228,-3.455158 -0.0098,-1.189358 -0.01167,-2.376077 0.06768,-3.563031 0.07845,-1.143572 0.250107,-2.277056 0.341548,-3.419846 0.133195,-1.117328 0.23774,-2.236475 0.297118,-3.360119 0.04415,-1.036087 0.04374,-2.073355 0.04603,-3.110176 4.31e-4,-0.940838 -0.0021,-1.881672 -0.0026,-2.822513 -0.002,-0.813631 -0.0069,-1.627247 -0.0052,-2.440882 0.0044,-0.892993 0.0036,-1.785985 0.0033,-2.678983 -0.03163,-0.793279 0.0094,-1.57903 0.09926,-2.366551 0.06655,-0.663149 0.217333,-1.313202 0.308034,-1.973116 0.04005,-0.368649 0.02276,-0.185846 0.05217,-0.548382 0,0 3.354438,-1.678125 3.354438,-1.678125 l 0,0 c -0.02514,0.375785 -0.01,0.186186 -0.04585,0.568772 -0.08223,0.662264 -0.235532,1.311151 -0.31765,1.972671 -0.09472,0.7766 -0.17003,1.548252 -0.129487,2.332646 -3.44e-4,0.891865 -0.0012,1.783726 0.0033,2.675586 0.0019,0.815007 -0.0027,1.629998 -0.0035,2.445005 8.99e-4,0.94158 0.0013,1.883166 6.18e-4,2.824737 -0.0021,1.043489 -0.01079,2.087072 -0.0478,3.130004 -0.04775,1.127279 -0.149899,2.249967 -0.290795,3.369501 -0.0868,1.144076 -0.250653,2.278368 -0.351979,3.420422 -0.0784,1.179195 -0.091,2.357112 -0.0739,3.538979 -0.0011,1.154935 9.34e-4,2.31008 -0.02786,3.464742 -0.03809,1.260483 -0.105355,2.519329 -0.195274,3.777217 -0.06714,1.24431 -0.01552,2.491226 -0.03138,3.736944 -6.55e-4,1.224051 -6.92e-4,2.448192 -0.02814,3.67202 -0.03861,1.306467 -0.09515,2.612441 -0.190474,3.916138 -0.06626,1.17153 -0.01857,2.345893 -0.03716,3.518864 -0.002,1.249978 -0.0099,2.50025 0.01869,3.749988 0,0 -3.335029,1.699282 -3.335029,1.699282 z"
       inkscape:connector-curvature="0"
       transform="translate(0,972.36218)" />
    <path
       style="fill:#000080;stroke:#000080"
       id="path3445"
       d="m 5.9979194,21.894862 c 0.5482324,-1.312303 1.0532592,-2.641982 1.5627145,-3.969641 0.4449988,-1.324873 1.0876742,-2.560972 1.7164048,-3.803966 0.5030854,-0.995211 1.0546493,-1.945437 1.8285903,-2.752474 1.616862,-1.4655043 3.664328,-2.4045657 5.533257,-3.468295 0.670842,-0.1861293 1.464126,-0.7239159 2.181488,-0.6653894 0.09697,0.00791 0.189113,0.045826 0.28367,0.06874 0.662832,0.1924429 0.854854,0.921571 1.05439,1.506639 0.222766,0.9561081 0.555629,1.8642786 0.991617,2.7417746 0.462159,0.895245 1.122168,1.657945 1.901578,2.289114 0.724885,0.423033 1.393932,0.941316 2.127812,1.34944 0.416834,0.211353 0.804347,0.47799 1.233292,0.664452 0,0 -3.134062,2.069809 -3.134062,2.069809 l 0,0 C 22.858576,17.706595 22.456226,17.4549 22.041668,17.22617 21.31166,16.779524 20.609687,16.283755 19.894644,15.814969 19.09728,15.129092 18.403221,14.33306 17.923962,13.389443 17.476149,12.502415 17.113831,11.587989 16.887495,10.61728 16.717219,10.136128 16.626923,9.5473364 16.039784,9.4714764 c -0.809519,0.015827 -1.56541,0.4589794 -2.297462,0.7558526 5.490415,-3.2074597 1.931236,-1.2530362 0.805562,-0.2824098 -0.215566,0.2025968 -0.481184,0.4410538 -0.672112,0.6670088 -0.505497,0.598236 -0.82542,1.320556 -1.227042,1.985985 -0.6282,1.238437 -1.302308,2.455218 -1.74732,3.776237 -0.502853,1.315958 -1.0149068,2.628579 -1.505378,3.949134 0,0 -3.3981126,1.571578 -3.3981126,1.571578 z"
       inkscape:connector-curvature="0"
       transform="translate(0,972.36218)" />
    <path
       style="fill:#000080;stroke:#000080"
       id="path3451"
       d="m 38.991125,68.395524 c 0.0607,-1.342392 -0.01035,-2.682392 -0.08393,-4.022355 -0.09093,-1.628205 -0.11515,-3.25902 -0.127231,-4.889386 -0.01052,-1.671499 -0.01576,-3.343038 -0.01351,-5.014569 0.01753,-2.513309 0.0389,-5.026557 0.0461,-7.539924 0.0068,-3.083667 -2.7e-5,-6.16733 -0.0072,-9.250988 -0.0095,-2.447486 -0.0076,-4.894986 -0.02447,-7.342441 -0.0067,-1.443182 -0.0211,-2.886316 -0.02997,-4.329482 -0.002,-1.005667 8.01e-4,-2.011313 -0.0053,-3.016973 -0.0049,-0.647417 -0.0089,-1.294839 -0.01076,-1.942273 -6.68e-4,-0.256769 -8.49e-4,-0.513539 -0.001,-0.770309 0,0 3.344608,-1.704163 3.344608,-1.704163 l 0,0 c -1.93e-4,0.257124 -3.75e-4,0.514248 -0.001,0.771371 -0.0019,0.65109 -0.0058,1.302169 -0.01076,1.953242 -0.0061,1.007473 -0.0033,2.01493 -0.0053,3.022409 -0.0089,1.453344 -0.0232,2.906657 -0.02996,4.360017 -0.01678,2.455767 -0.01497,4.911579 -0.02446,7.367377 -0.0072,3.086187 -0.01401,6.172381 -0.0077,9.258578 0.0067,2.498191 0.02754,4.996268 0.04331,7.494411 0.0016,1.671431 -0.0059,3.342889 0.0064,5.014296 0.01794,1.622993 0.03944,3.246544 0.132434,4.86735 0.07669,1.337792 0.154478,2.673844 0.144794,4.014529 0,0 -3.33503,1.699283 -3.33503,1.699283 z"
       inkscape:connector-curvature="0"
       transform="translate(0,972.36218)" />
    <path
       style="fill:#000080;stroke:#000080"
       id="path3453"
       d="M 45.238417,21.502421 C 44.902483,20.291826 44.499932,19.099793 44.075315,17.917645 43.652352,16.80786 43.108809,15.750847 42.652599,14.655419 42.28165,13.6814 41.891082,12.715001 41.506079,11.746493 c -0.188107,-0.563301 -0.426325,-1.087457 -0.939473,-1.413067 -0.06859,-0.02773 -0.133784,-0.06613 -0.205776,-0.08319 -0.191292,-0.04532 -0.201286,-0.0013 -0.358484,0.109797 -0.07265,0.05137 -0.291806,0.202765 -0.214113,0.159399 2.800769,-1.5632987 3.864691,-2.3550131 2.579568,-1.421715 -0.87471,0.7680036 -1.568852,1.716425 -2.325585,2.597046 -0.536658,0.64348 -1.092765,1.269843 -1.667253,1.879658 -0.564456,0.593485 -1.053487,1.249306 -1.547603,1.900371 -0.680702,0.909752 -1.425016,1.764887 -2.254811,2.540691 -0.540093,0.547912 -1.166998,0.994255 -1.749795,1.492146 0,0 -3.468196,1.420413 -3.468196,1.420413 l 0,0 c 0.555814,-0.551111 1.254019,-0.932394 1.787503,-1.512134 0.846378,-0.736987 1.595459,-1.568522 2.260169,-2.473734 0.515418,-0.636392 0.962496,-1.326848 1.522713,-1.928978 0.584652,-0.606419 1.1556,-1.225838 1.697322,-1.871218 0.251214,-0.29313 0.514938,-0.575403 0.765342,-0.869224 0.396015,-0.464677 0.744067,-0.974471 1.155747,-1.425715 0.114387,-0.125379 0.243071,-0.236925 0.364607,-0.355388 1.281735,-1.189613 0.375721,-0.391918 3.807905,-2.3168952 0.35103,-0.196879 0.711852,-0.049453 1.018731,0.1459432 0.526609,0.4165772 0.840266,0.9664613 1.030993,1.6089784 0.373472,0.9716896 0.743946,1.9441646 1.123977,2.9135376 0.451123,1.103973 1.006582,2.162769 1.422038,3.282158 0.42693,1.185914 0.809165,2.386352 1.212917,3.580197 0,0 -3.286105,1.796849 -3.286105,1.796849 z"
       inkscape:connector-curvature="0"
       transform="translate(0,972.36218)" />
    <path
       style="fill:#000080;stroke:#000080"
       id="path3459"
       d="m 64.473243,71.001569 c -0.09581,-1.482009 -0.145203,-2.965977 -0.228681,-4.44878 -0.141201,-2.477285 -0.156267,-4.959057 -0.168405,-7.439571 -0.01718,-3.06411 -0.0098,-6.128279 -0.01381,-9.19242 0.03405,-2.789615 -0.07335,-5.577069 -0.161267,-8.364619 -0.0443,-1.914186 -0.210851,-3.822398 -0.310744,-5.733923 -0.05881,-1.228766 -0.08154,-2.459038 -0.0922,-3.689067 0.02705,-0.969331 -0.02119,-1.93207 -0.110937,-2.896507 -0.0793,-0.862518 -0.120447,-1.727785 -0.137675,-2.59357 -0.01423,-0.726363 -0.01432,-1.452891 -0.01696,-2.179362 0.0023,-0.620196 2.5e-5,-1.240396 -0.0012,-1.860591 0.0015,-0.632602 0.0043,-1.265173 0.0028,-1.897784 -0.0063,-0.290655 -0.003,-0.579559 0.01597,-0.869514 0,0 3.364766,-1.664019 3.364766,-1.664019 l 0,0 c -0.05109,0.277949 -0.05223,0.550712 -0.04444,0.833616 -0.0015,0.631819 0.0012,1.263601 0.0023,1.895411 -0.0018,0.621062 -0.0051,1.242124 -0.0039,1.86319 -0.0033,0.726097 -0.0049,1.452221 0.0028,2.178298 0.01593,0.858317 0.0398,1.717103 0.119722,2.572298 0.08924,0.975425 0.156827,1.948405 0.118381,2.929079 0.0018,1.230374 0.0059,2.46095 0.05538,3.690552 0.08001,1.924646 0.223826,3.846762 0.248634,5.773294 0.07275,2.795504 0.18917,5.590518 0.139046,8.387633 -0.0045,3.061889 -0.0013,6.123813 0.02019,9.185641 0.03077,2.464679 0.06386,4.930733 0.220366,7.391341 0.09792,1.463453 0.152519,2.930582 0.302968,4.389595 0,0 -3.323082,1.739779 -3.323082,1.739779 z"
       inkscape:connector-curvature="0"
       transform="translate(0,972.36218)" />
    <path
       style="fill:#000080;stroke:#000080"
       id="path3461"
       d="m 71.696162,22.378186 c -0.790346,-0.98048 -1.612699,-1.934191 -2.424577,-2.896766 -0.860544,-1.126432 -1.694721,-2.271247 -2.447737,-3.472844 -0.741337,-1.123628 -1.37662,-2.314378 -1.970509,-3.52128 -0.36756,-0.847584 -0.903342,-1.604576 -1.299421,-2.43621 -0.248966,-0.4388256 -0.301192,-1.0361611 -0.660571,-1.4084763 -0.01918,0.00523 -0.05112,-0.00313 -0.05754,0.015683 -0.01534,0.045019 -0.0389,0.1640347 0.0036,0.1426401 1.050466,-0.529082 2.035894,-1.182165 3.091264,-1.701398 0.07659,-0.037683 -0.07523,0.1534614 -0.106462,0.2329002 -0.08558,0.2176346 -0.09592,0.3040341 -0.149443,0.5362066 -0.133577,0.75749 -0.353581,1.4915899 -0.599746,2.2188588 -0.354278,0.845757 -0.704748,1.696404 -1.098405,2.524977 -0.413431,0.9454 -0.888796,1.859637 -1.358642,2.777382 -0.371167,0.691792 -0.721659,1.393998 -1.07131,2.096813 -0.30739,0.584955 -0.564126,1.192046 -0.802546,1.807616 -0.223677,0.686997 -0.506493,1.350801 -0.786634,2.016012 -0.253422,0.532992 -0.612411,0.984592 -1.036636,1.389005 0,0 -3.468976,1.404356 -3.468976,1.404356 l 0,0 c 0.455765,-0.344247 0.807519,-0.743904 1.100278,-1.233315 0.302992,-0.652148 0.591584,-1.315672 0.79862,-2.004931 0.24961,-0.619368 0.464999,-1.251317 0.785016,-1.839965 0.369427,-0.697169 0.694599,-1.417349 1.087851,-2.102324 0.463737,-0.921764 0.981269,-1.817478 1.365338,-2.778019 0.421369,-0.799978 0.710093,-1.663604 1.104529,-2.477329 0.261338,-0.704107 0.47738,-1.420913 0.612098,-2.1604664 0.01624,-0.1090467 0.117882,-0.8048858 0.202729,-0.8650309 1.771684,-1.2558855 2.426023,-2.9941765 3.615271,-1.9365567 0.332328,0.4446379 0.454749,1.0066038 0.688152,1.5036056 0.375339,0.8388557 0.905534,1.5989076 1.259045,2.4499794 0.581337,1.199425 1.213599,2.376628 1.949305,3.489432 0.73785,1.189498 1.560553,2.320317 2.411935,3.430834 0.826684,0.963952 1.64643,1.933959 2.486522,2.886293 0,0 -3.222377,1.912318 -3.222377,1.912318 z"
       inkscape:connector-curvature="0"
       transform="translate(0,972.36218)" />
  </g>
</svg>
