<?xml version="1.0" encoding="UTF-8" standalone="no"?>
<!-- Created with Inkscape (http://www.inkscape.org/) -->

<svg
   xmlns:dc="http://purl.org/dc/elements/1.1/"
   xmlns:cc="http://creativecommons.org/ns#"
   xmlns:rdf="http://www.w3.org/1999/02/22-rdf-syntax-ns#"
   xmlns:svg="http://www.w3.org/2000/svg"
   xmlns="http://www.w3.org/2000/svg"
   xmlns:sodipodi="http://sodipodi.sourceforge.net/DTD/sodipodi-0.dtd"
   xmlns:inkscape="http://www.inkscape.org/namespaces/inkscape"
   width="200"
   height="200"
   id="svg2"
   version="1.1"
   inkscape:version="0.48.0 r9654"
   sodipodi:docname="t0.svg">
  <defs
     id="defs4" />
  <sodipodi:namedview
     id="base"
     pagecolor="#ffffff"
     bordercolor="#666666"
     borderopacity="1.0"
     inkscape:pageopacity="0.0"
     inkscape:pageshadow="2"
     inkscape:zoom="1.979899"
     inkscape:cx="165.45654"
     inkscape:cy="69.719001"
     inkscape:document-units="px"
     inkscape:current-layer="layer1"
     showgrid="false"
     inkscape:window-width="999"
     inkscape:window-height="738"
     inkscape:window-x="911"
     inkscape:window-y="194"
     inkscape:window-maximized="0" />
  <metadata
     id="metadata7">
    <rdf:RDF>
      <cc:Work
         rdf:about="">
        <dc:format>image/svg+xml</dc:format>
        <dc:type
           rdf:resource="http://purl.org/dc/dcmitype/StillImage" />
        <dc:title />
      </cc:Work>
    </rdf:RDF>
  </metadata>
  <g
     inkscape:label="Layer 1"
     inkscape:groupmode="layer"
     id="layer1"
     transform="translate(0,-852.36218)">
    <flowRoot
       xml:space="preserve"
       id="flowRoot3021"
       style="font-size:20px;font-style:normal;font-weight:normal;line-height:50%;letter-spacing:0px;word-spacing:0px;fill:#000000;fill-opacity:1;stroke:none;font-family:Sans"
       transform="translate(-55.558389,892.2632)"><flowRegion
         id="flowRegion3023"><rect
           id="rect3025"
           width="66.670067"
           height="49.497475"
           x="218.69803"
           y="135.35023" /></flowRegion><flowPara
         id="flowPara3027"
         style="font-size:56px;font-weight:bold;fill:#000080;stroke:#ececec;-inkscape-font-specification:Sans Bold">3</flowPara></flowRoot>    <path
       style="fill:#000080;stroke:#000080"
       id="path3101"
       d="m 98.159517,160.47721 c -0.192801,-1.88225 -0.270248,-3.77145 -0.309044,-5.66217 -0.02281,-3.29084 0.0117,-6.58208 0.02849,-9.87299 0.01287,-4.58476 0.04602,-9.16934 0.106875,-13.7537 0.101328,-7.37593 0.161215,-14.75241 0.169873,-22.12902 0.02468,-8.1327 -2.19e-4,-16.265614 -0.02491,-24.398334 -0.0616,-6.498274 0.0037,-12.999269 -0.208129,-19.495059 0.02309,-4.071251 -0.595888,-8.081462 -1.120148,-12.103912 -0.220975,-1.993391 -0.575816,-3.995142 -0.46124,-6.006391 0,0 6.625193,-3.29329 6.625193,-3.29329 l 0,0 c -0.28721,1.992587 -0.0136,3.994046 0.14805,5.989673 0.43217,4.093029 0.94172,8.180728 0.87247,12.306832 0.0815,6.553572 -0.11654,13.108564 -0.0873,19.662728 -0.0246,8.141195 -0.0495,16.282582 -0.025,24.423763 0.008,7.31931 0.0677,14.63849 0.16771,21.95713 0.0597,4.54862 0.0887,9.09744 0.10237,13.64644 0.021,3.25344 0.0404,6.50725 0.14884,9.75923 0.0704,1.82632 0.12113,3.66783 0.46663,5.46731 0,0 -6.600793,3.50176 -6.600793,3.50176 z"
       inkscape:connector-curvature="0"
       transform="translate(0,852.36218)" />
    <path
       style="fill:#000080;stroke:#000080"
       id="path3103"
       d="m 116.76752,54.367187 c -1.62528,-1.305686 -2.93395,-2.922744 -4.26217,-4.515423 -1.88475,-2.235148 -3.38282,-4.75189 -4.93953,-7.216298 -1.33582,-2.209264 -2.82507,-4.313003 -4.35537,-6.389379 -1.02529,-1.39989 -2.35731,-2.510364 -3.610154,-3.692291 -1.009165,-0.99471 -1.992097,-2.003413 -3.188353,-2.772799 -0.259348,-0.106417 -0.636129,-0.376045 -0.945521,-0.150204 -0.117722,0.08593 -0.348607,0.445671 -0.219412,0.378209 2.038018,-1.064193 3.937609,-2.386578 6.00237,-3.397902 0.22667,-0.111023 -0.27435,0.424683 -0.39007,0.648991 -0.16255,0.315086 -0.29566,0.64451 -0.44349,0.966765 -1.652251,4.692207 -2.91073,9.512024 -4.254527,14.298668 -1.487009,5.510232 -3.210882,10.951737 -4.901472,16.40171 -0.782271,2.32553 -1.790337,4.550172 -2.996272,6.682345 -0.676953,1.06342 -1.425284,2.075547 -2.350396,2.93415 -2.378693,1.825215 -5.158611,3.094025 -7.735792,4.573517 0,0 5.768794,-4.652529 5.768794,-4.652529 l 0,0 c -10.470534,6.052842 -7.012756,4.22321 -4.928758,2.822534 1.094836,-0.649674 1.733624,-1.73972 2.549084,-2.689659 0.588846,-1.036199 0.272665,-0.515354 0.952769,-1.559964 0.951962,-1.641748 1.636856,-3.423871 2.424595,-5.144548 1.942998,-5.44146 3.730367,-10.940328 5.237077,-16.519774 1.260293,-4.687288 2.388448,-9.408726 3.619885,-14.103484 0.123178,-0.317094 0.254231,-0.63124 0.369535,-0.951281 0.09213,-0.255717 0.0325,-0.615752 0.252529,-0.775333 3.165924,-2.296134 5.122178,-5.546737 8.191729,-3.727623 1.18887,0.843009 2.25847,1.827192 3.27434,2.870354 1.24571,1.238168 2.55793,2.419905 3.56908,3.870722 1.48106,2.125324 2.9902,4.231346 4.28878,6.477717 1.53749,2.438782 3.0366,4.915362 4.92664,7.105188 1.32092,1.519612 2.62078,3.119608 4.37119,4.166211 0,0 -6.27711,4.06141 -6.27711,4.06141 z"
       inkscape:connector-curvature="0"
       transform="translate(0,852.36218)" />
  </g>
</svg>
