<?xml version="1.0" encoding="UTF-8" standalone="no"?>
<!-- Created with Inkscape (http://www.inkscape.org/) -->

<svg
   xmlns:dc="http://purl.org/dc/elements/1.1/"
   xmlns:cc="http://creativecommons.org/ns#"
   xmlns:rdf="http://www.w3.org/1999/02/22-rdf-syntax-ns#"
   xmlns:svg="http://www.w3.org/2000/svg"
   xmlns="http://www.w3.org/2000/svg"
   xmlns:sodipodi="http://sodipodi.sourceforge.net/DTD/sodipodi-0.dtd"
   xmlns:inkscape="http://www.inkscape.org/namespaces/inkscape"
   width="200"
   height="200"
   id="svg2"
   version="1.1"
   inkscape:version="0.48.0 r9654"
   sodipodi:docname="t1.svg">
  <defs
     id="defs4" />
  <sodipodi:namedview
     id="base"
     pagecolor="#ffffff"
     bordercolor="#666666"
     borderopacity="1.0"
     inkscape:pageopacity="0.0"
     inkscape:pageshadow="2"
     inkscape:zoom="1.979899"
     inkscape:cx="165.45654"
     inkscape:cy="69.719001"
     inkscape:document-units="px"
     inkscape:current-layer="layer1"
     showgrid="false"
     inkscape:window-width="999"
     inkscape:window-height="738"
     inkscape:window-x="911"
     inkscape:window-y="194"
     inkscape:window-maximized="0" />
  <metadata
     id="metadata7">
    <rdf:RDF>
      <cc:Work
         rdf:about="">
        <dc:format>image/svg+xml</dc:format>
        <dc:type
           rdf:resource="http://purl.org/dc/dcmitype/StillImage" />
        <dc:title />
      </cc:Work>
    </rdf:RDF>
  </metadata>
  <g
     inkscape:label="Layer 1"
     inkscape:groupmode="layer"
     id="layer1"
     transform="translate(0,-852.36218)">
    <flowRoot
       xml:space="preserve"
       id="flowRoot3021"
       style="font-size:20px;font-style:normal;font-weight:normal;line-height:50%;letter-spacing:0px;word-spacing:0px;fill:#000000;fill-opacity:1;stroke:none;font-family:Sans"
       transform="translate(-55.558389,892.2632)"><flowRegion
         id="flowRegion3023"><rect
           id="rect3025"
           width="66.670067"
           height="49.497475"
           x="218.69803"
           y="135.35023" /></flowRegion><flowPara
         id="flowPara3027"
         style="font-size:56px;font-weight:bold;fill:#000080;stroke:#ececec;-inkscape-font-specification:Sans Bold">3</flowPara></flowRoot>    <path
       style="fill:#000080;stroke:#000080"
       id="path3205"
       d="m 98.66284,161.0573 c -0.285277,-1.95892 -0.502078,-3.92227 -0.658139,-5.89617 -0.175048,-2.70985 -0.175845,-5.42692 -0.189468,-8.14127 -0.01317,-2.95111 -0.02158,-5.89747 0.14348,-8.84452 0.115314,-2.92014 0.423285,-5.8264 0.638277,-8.73967 0.13617,-3.31427 0.345741,-6.62128 0.68185,-9.92144 0.323963,-3.02933 0.696131,-6.0485 0.90154,-9.08919 0.16355,-3.35527 0.66609,-6.68071 0.92531,-10.02999 0.39144,-3.933957 0.63006,-7.880112 0.90464,-11.823348 0.3381,-4.904949 0.41748,-9.821391 0.44658,-14.736158 0.0137,-3.638515 0.0419,-7.27781 -0.22593,-10.908055 -0.13643,-2.197549 -0.35598,-4.384441 -0.59906,-6.572027 -0.14646,-1.318197 -0.20918,-2.643146 -0.2761,-3.967076 0,0 6.49943,-3.34454 6.49943,-3.34454 l 0,0 c 0.0391,1.313182 0.0984,2.626068 0.23395,3.933467 0.23215,2.213071 0.46376,4.421821 0.52486,6.648626 0.17986,3.693212 0.0236,7.38564 -0.002,11.0816 -0.0777,4.919366 -0.15104,9.840432 -0.40399,14.754583 -0.21676,3.922153 -0.37311,7.849691 -0.75756,11.760148 -0.24852,3.34169 -0.74065,6.65893 -0.90002,10.00486 -0.1611,3.05495 -0.51989,6.08476 -0.88903,9.11989 -0.36756,3.28628 -0.63056,6.57695 -0.67544,9.88593 -0.16977,2.9139 -0.51151,5.81306 -0.63348,8.73004 -0.16971,2.92981 -0.1912,5.85974 -0.14262,8.79434 0.0136,2.69188 0.0298,5.38569 0.2072,8.0729 0.1488,1.91906 0.36053,3.8294 0.84957,5.69611 0,0 -6.6043,3.53096 -6.6043,3.53096 z"
       inkscape:connector-curvature="0"
       transform="translate(0,852.36218)" />
    <path
       style="fill:#000080;stroke:#000080"
       id="path3207"
       d="m 77.575863,63.326824 c 1.374089,-2.18687 2.658068,-4.429657 3.972547,-6.652845 3.19484,-5.476743 6.687562,-10.761347 10.195092,-16.039648 2.464262,-4.029303 5.062192,-8.005286 7.082008,-12.284014 1.20576,-3.177491 3.41914,-8.116573 8.32676,-6.170437 2.04046,0.939829 3.86685,2.29642 5.60991,3.698005 2.61768,2.129396 5.04852,4.479518 7.36511,6.930254 1.77417,2.114032 3.4437,4.309149 4.83205,6.69649 1.15811,1.986808 2.0501,4.119602 2.9716,6.224022 1.08023,1.971507 2.29223,3.870001 3.45814,5.792791 0.81879,1.600084 1.79171,3.119487 2.6014,4.722875 0.33807,0.980838 1.05333,1.77538 1.43823,2.72147 0,0 -6.55421,3.591903 -6.55421,3.591903 l 0,0 c -0.069,-0.451437 -0.38241,-0.746456 -0.60304,-1.139468 -0.21561,-0.38407 -0.27743,-0.597659 -0.46012,-0.993382 -0.0824,-0.178571 -0.17215,-0.353693 -0.25822,-0.530539 -0.72662,-1.617351 -1.60884,-3.164794 -2.42977,-4.735079 -1.19281,-1.943306 -2.43669,-3.859903 -3.51042,-5.872275 -0.92881,-2.074789 -1.77937,-4.198735 -2.93219,-6.161696 -1.31802,-2.357445 -2.89939,-4.548949 -4.63052,-6.621349 -2.26702,-2.454864 -4.6999,-4.76152 -7.34051,-6.813445 -1.71483,-1.293357 -3.53896,-2.675099 -5.64789,-3.225204 -2.670644,0.548356 -0.6158,0.168628 5.70514,-3.575744 0.10606,-0.06283 -0.21289,0.13261 -0.29158,0.227504 -0.5356,0.645871 -0.70623,1.549035 -1.10211,2.266202 -2.23905,4.373645 -5.07957,8.407617 -7.606833,12.614076 -3.422748,5.173711 -6.868544,10.332982 -9.791212,15.814424 -1.205689,2.152456 -2.413338,4.303856 -3.564187,6.48566 0,0 -6.835175,3.029449 -6.835175,3.029449 z"
       inkscape:connector-curvature="0"
       transform="translate(0,852.36218)" />
  </g>
</svg>
