<?xml version="1.0" encoding="UTF-8" standalone="no"?>
<!-- Created with Inkscape (http://www.inkscape.org/) -->

<svg
   xmlns:dc="http://purl.org/dc/elements/1.1/"
   xmlns:cc="http://creativecommons.org/ns#"
   xmlns:rdf="http://www.w3.org/1999/02/22-rdf-syntax-ns#"
   xmlns:svg="http://www.w3.org/2000/svg"
   xmlns="http://www.w3.org/2000/svg"
   xmlns:sodipodi="http://sodipodi.sourceforge.net/DTD/sodipodi-0.dtd"
   xmlns:inkscape="http://www.inkscape.org/namespaces/inkscape"
   width="80"
   height="80"
   id="svg2"
   version="1.1"
   inkscape:version="0.48.0 r9654"
   sodipodi:docname="t0.svg">
  <defs
     id="defs4" />
  <sodipodi:namedview
     id="base"
     pagecolor="#ffffff"
     bordercolor="#666666"
     borderopacity="1.0"
     inkscape:pageopacity="0.0"
     inkscape:pageshadow="2"
     inkscape:zoom="3.959798"
     inkscape:cx="28.841519"
     inkscape:cy="42.61459"
     inkscape:document-units="px"
     inkscape:current-layer="layer1"
     showgrid="false"
     inkscape:window-width="1920"
     inkscape:window-height="1002"
     inkscape:window-x="0"
     inkscape:window-y="25"
     inkscape:window-maximized="1" />
  <metadata
     id="metadata7">
    <rdf:RDF>
      <cc:Work
         rdf:about="">
        <dc:format>image/svg+xml</dc:format>
        <dc:type
           rdf:resource="http://purl.org/dc/dcmitype/StillImage" />
        <dc:title></dc:title>
      </cc:Work>
    </rdf:RDF>
  </metadata>
  <g
     inkscape:label="Layer 1"
     inkscape:groupmode="layer"
     id="layer1"
     transform="translate(0,-972.36218)">
    <path
       style="fill:#000080;stroke:#000080"
       id="path3443"
       d="m 13.98985,978.74086 c 0.02843,1.2561 0.02069,2.5127 0.01869,3.769 0.0057,1.1777 -0.02972,2.3561 0.02325,3.5329 0.101269,1.3016 0.163099,2.6052 0.197362,3.9101 0.02839,1.2207 0.03022,2.4419 0.03204,3.6629 0.0077,1.2512 -0.02281,2.503 0.02679,3.7535 0.0873,1.255 0.155233,2.5108 0.19148,3.76824 0.02806,1.1515 0.03087,2.3034 0.03228,3.4552 -0.0098,1.1893 -0.01167,2.376 0.06768,3.563 0.07845,1.1436 0.250107,2.277 0.341548,3.4198 0.133195,1.1174 0.23774,2.2365 0.297118,3.3602 0.04415,1.036 0.04374,2.0733 0.04603,3.1101 4.31e-4,0.9409 -0.0021,1.8817 -0.0026,2.8225 -0.002,0.8137 -0.0069,1.6273 -0.0052,2.4409 0.0044,0.893 0.0036,1.786 0.0033,2.679 -0.03163,0.7933 0.0094,1.579 0.09926,2.3666 0.06655,0.6631 0.217333,1.3132 0.308034,1.9731 0.04005,0.3686 0.02276,0.1858 0.05217,0.5484 0,0 3.354438,1.6781 3.354438,1.6781 l 0,0 c -0.02514,-0.3758 -0.01,-0.1862 -0.04585,-0.5688 -0.08223,-0.6623 -0.235532,-1.3111 -0.31765,-1.9727 -0.09472,-0.7766 -0.17003,-1.5482 -0.129487,-2.3326 -3.44e-4,-0.8919 -0.0012,-1.7837 0.0033,-2.6756 0.0019,-0.815 -0.0027,-1.63 -0.0035,-2.445 8.99e-4,-0.9416 0.0013,-1.8832 6.18e-4,-2.8247 -0.0021,-1.0435 -0.01079,-2.0871 -0.0478,-3.13 -0.04775,-1.1273 -0.149899,-2.25 -0.290795,-3.3695 -0.0868,-1.1441 -0.250653,-2.2784 -0.351979,-3.4205 -0.0784,-1.1792 -0.091,-2.3571 -0.0739,-3.5389 -0.0011,-1.155 9.34e-4,-2.3101 -0.02786,-3.4648 -0.03809,-1.2605 -0.105355,-2.5193 -0.195274,-3.77724 -0.06714,-1.2443 -0.01552,-2.4912 -0.03138,-3.7369 -6.55e-4,-1.2241 -6.92e-4,-2.4482 -0.02814,-3.672 -0.03861,-1.3065 -0.09515,-2.6125 -0.190474,-3.9162 -0.06626,-1.1715 -0.01857,-2.3459 -0.03716,-3.5189 -0.002,-1.2499 -0.0099,-2.5002 0.01869,-3.7499 0,0 -3.335029,-1.6993 -3.335029,-1.6993 z"
       inkscape:connector-curvature="0" />
    <path
       style="fill:#000080;stroke:#000080"
       id="path3445"
       d="m 5.9979194,1028.0194 c 0.5482324,1.3123 1.0532592,2.642 1.5627145,3.9697 0.4449988,1.3249 1.0876742,2.561 1.7164048,3.804 0.5030854,0.9952 1.0546493,1.9454 1.8285903,2.7524 1.616862,1.4655 3.664328,2.4046 5.533257,3.4683 0.670842,0.1862 1.464126,0.7239 2.181488,0.6654 0.09697,-0.01 0.189113,-0.046 0.28367,-0.069 0.662832,-0.1925 0.854854,-0.9216 1.05439,-1.5067 0.222766,-0.9561 0.555629,-1.8642 0.991617,-2.7417 0.462159,-0.8953 1.122168,-1.658 1.901578,-2.2892 0.724885,-0.423 1.393932,-0.9413 2.127812,-1.3494 0.416834,-0.2113 0.804347,-0.478 1.233292,-0.6644 0,0 -3.134062,-2.0699 -3.134062,-2.0699 l 0,0 c -0.420095,0.2185 -0.822445,0.4702 -1.237003,0.6989 -0.730008,0.4467 -1.431981,0.9425 -2.147024,1.4112 -0.797364,0.6859 -1.491423,1.4819 -1.970682,2.4256 -0.447813,0.887 -0.810131,1.8014 -1.036467,2.7721 -0.170276,0.4812 -0.260572,1.07 -0.847711,1.1458 -0.809519,-0.016 -1.56541,-0.4589 -2.297462,-0.7558 5.490415,3.2074 1.931236,1.253 0.805562,0.2824 -0.215566,-0.2026 -0.481184,-0.4411 -0.672112,-0.667 -0.505497,-0.5983 -0.82542,-1.3206 -1.227042,-1.986 -0.6282,-1.2384 -1.302308,-2.4552 -1.74732,-3.7762 -0.502853,-1.316 -1.0149068,-2.6286 -1.505378,-3.9492 0,0 -3.3981126,-1.5716 -3.3981126,-1.5716 z"
       inkscape:connector-curvature="0" />
    <path
       style="fill:#000080;stroke:#000080"
       id="path3451"
       d="m 38.991125,981.51876 c 0.0607,1.3424 -0.01035,2.6824 -0.08393,4.0224 -0.09093,1.6282 -0.11515,3.259 -0.127231,4.8893 -0.01052,1.6715 -0.01576,3.3431 -0.01351,5.0146 0.01753,2.5133 0.0389,5.02664 0.0461,7.53994 0.0068,3.0837 -2.7e-5,6.1673 -0.0072,9.251 -0.0095,2.4475 -0.0076,4.895 -0.02447,7.3424 -0.0067,1.4432 -0.0211,2.8864 -0.02997,4.3295 -0.002,1.0057 8.01e-4,2.0113 -0.0053,3.017 -0.0049,0.6474 -0.0089,1.2948 -0.01076,1.9423 -6.68e-4,0.2567 -8.49e-4,0.5135 -10e-4,0.7703 0,0 3.344608,1.7041 3.344608,1.7041 l 0,0 c -1.93e-4,-0.2571 -3.75e-4,-0.5142 -0.001,-0.7713 -0.0019,-0.6511 -0.0058,-1.3022 -0.01076,-1.9533 -0.0061,-1.0074 -0.0033,-2.0149 -0.0053,-3.0224 -0.0089,-1.4533 -0.0232,-2.9066 -0.02996,-4.36 -0.01678,-2.4558 -0.01497,-4.9116 -0.02446,-7.3674 -0.0072,-3.0862 -0.01401,-6.1724 -0.0077,-9.2585 0.0067,-2.4982 0.02754,-4.99634 0.04331,-7.49444 0.0016,-1.6715 -0.0059,-3.3429 0.0064,-5.0143 0.01794,-1.623 0.03944,-3.2466 0.132434,-4.8674 0.07669,-1.3378 0.154478,-2.6738 0.144794,-4.0145 0,0 -3.33503,-1.6993 -3.33503,-1.6993 z"
       inkscape:connector-curvature="0" />
    <path
       style="fill:#000080;stroke:#000080"
       id="path3453"
       d="m 45.238417,1028.4119 c -0.335934,1.2106 -0.738485,2.4026 -1.163102,3.5848 -0.422963,1.1097 -0.966506,2.1668 -1.422716,3.2622 -0.370949,0.974 -0.761517,1.9404 -1.14652,2.9089 -0.188107,0.5633 -0.426325,1.0875 -0.939473,1.4131 -0.06859,0.028 -0.133784,0.066 -0.205776,0.083 -0.191292,0.045 -0.201286,0 -0.358484,-0.1098 -0.07265,-0.051 -0.291806,-0.2028 -0.214113,-0.1594 2.800769,1.5633 3.864691,2.355 2.579568,1.4217 -0.87471,-0.768 -1.568852,-1.7164 -2.325585,-2.5971 -0.536658,-0.6434 -1.092765,-1.2698 -1.667253,-1.8796 -0.564456,-0.5935 -1.053487,-1.2493 -1.547603,-1.9004 -0.680702,-0.9097 -1.425016,-1.7649 -2.254811,-2.5407 -0.540093,-0.5479 -1.166998,-0.9942 -1.749795,-1.4921 0,0 -3.468196,-1.4204 -3.468196,-1.4204 l 0,0 c 0.555814,0.5511 1.254019,0.9324 1.787503,1.5121 0.846378,0.737 1.595459,1.5685 2.260169,2.4737 0.515418,0.6364 0.962496,1.3269 1.522713,1.929 0.584652,0.6064 1.1556,1.2258 1.697322,1.8712 0.251214,0.2932 0.514938,0.5754 0.765342,0.8693 0.396015,0.4646 0.744067,0.9744 1.155747,1.4257 0.114387,0.1253 0.243071,0.2369 0.364607,0.3554 1.281735,1.1896 0.375721,0.3919 3.807905,2.3169 0.35103,0.1968 0.711852,0.049 1.018731,-0.146 0.526609,-0.4166 0.840266,-0.9665 1.030993,-1.609 0.373472,-0.9717 0.743946,-1.9441 1.123977,-2.9135 0.451123,-1.104 1.006582,-2.1628 1.422038,-3.2822 0.42693,-1.1859 0.809165,-2.3863 1.212917,-3.5802 0,0 -3.286105,-1.7968 -3.286105,-1.7968 z"
       inkscape:connector-curvature="0" />
    <path
       style="fill:#000080;stroke:#000080"
       id="path3459"
       d="m 64.473243,978.91276 c -0.09581,1.482 -0.145203,2.9659 -0.228681,4.4487 -0.141201,2.4773 -0.156267,4.9591 -0.168405,7.4396 -0.01718,3.0641 -0.0098,6.1283 -0.01381,9.1924 0.03405,2.78964 -0.07335,5.57714 -0.161267,8.36464 -0.0443,1.9142 -0.210851,3.8224 -0.310744,5.734 -0.05881,1.2287 -0.08154,2.459 -0.0922,3.689 0.02705,0.9693 -0.02119,1.9321 -0.110937,2.8965 -0.0793,0.8625 -0.120447,1.7278 -0.137675,2.5936 -0.01423,0.7264 -0.01432,1.4529 -0.01696,2.1794 0.0023,0.6202 2.5e-5,1.2404 -0.0012,1.8605 0.0015,0.6327 0.0043,1.2652 0.0028,1.8978 -0.0063,0.2907 -0.003,0.5796 0.01597,0.8695 0,0 3.364766,1.6641 3.364766,1.6641 l 0,0 c -0.05109,-0.278 -0.05223,-0.5507 -0.04444,-0.8337 -0.0015,-0.6318 0.0012,-1.2636 0.0023,-1.8954 -0.0018,-0.621 -0.0051,-1.2421 -0.0039,-1.8632 -0.0033,-0.726 -0.0049,-1.4522 0.0028,-2.1782 0.01593,-0.8584 0.0398,-1.7172 0.119722,-2.5723 0.08924,-0.9755 0.156827,-1.9485 0.118381,-2.9291 0.0018,-1.2304 0.0059,-2.461 0.05538,-3.6906 0.08001,-1.9246 0.223826,-3.8467 0.248634,-5.7733 0.07275,-2.7955 0.18917,-5.5905 0.139046,-8.3876 -0.0045,-3.06194 -0.0013,-6.12384 0.02019,-9.18564 0.03077,-2.4647 0.06386,-4.9308 0.220366,-7.3914 0.09792,-1.4634 0.152519,-2.9306 0.302968,-4.3896 0,0 -3.323082,-1.7397 -3.323082,-1.7397 z"
       inkscape:connector-curvature="0" />
    <path
       style="fill:#000080;stroke:#000080"
       id="path3461"
       d="m 71.696162,1027.5361 c -0.790346,0.9805 -1.612699,1.9342 -2.424577,2.8968 -0.860544,1.1264 -1.694721,2.2712 -2.447737,3.4728 -0.741337,1.1237 -1.37662,2.3144 -1.970509,3.5213 -0.36756,0.8476 -0.903342,1.6046 -1.299421,2.4362 -0.248966,0.4388 -0.301192,1.0362 -0.660571,1.4085 -0.01918,-0.01 -0.05112,0 -0.05754,-0.016 -0.01534,-0.045 -0.0389,-0.164 0.0036,-0.1426 1.050466,0.5291 2.035894,1.1821 3.091264,1.7014 0.07659,0.038 -0.07523,-0.1535 -0.106462,-0.2329 -0.08558,-0.2177 -0.09592,-0.3041 -0.149443,-0.5362 -0.133577,-0.7575 -0.353581,-1.4916 -0.599746,-2.2189 -0.354278,-0.8458 -0.704748,-1.6964 -1.098405,-2.525 -0.413431,-0.9454 -0.888796,-1.8596 -1.358642,-2.7774 -0.371167,-0.6917 -0.721659,-1.394 -1.07131,-2.0968 -0.30739,-0.5849 -0.564126,-1.192 -0.802546,-1.8076 -0.223677,-0.687 -0.506493,-1.3508 -0.786634,-2.016 -0.253422,-0.533 -0.612411,-0.9846 -1.036636,-1.389 0,0 -3.468976,-1.4044 -3.468976,-1.4044 l 0,0 c 0.455765,0.3443 0.807519,0.7439 1.100278,1.2334 0.302992,0.6521 0.591584,1.3156 0.79862,2.0049 0.24961,0.6194 0.464999,1.2513 0.785016,1.84 0.369427,0.6971 0.694599,1.4173 1.087851,2.1023 0.463737,0.9217 0.981269,1.8175 1.365338,2.778 0.421369,0.8 0.710093,1.6636 1.104529,2.4773 0.261338,0.7041 0.47738,1.4209 0.612098,2.1605 0.01624,0.109 0.117882,0.8049 0.202729,0.865 1.771684,1.2559 2.426023,2.9942 3.615271,1.9366 0.332328,-0.4447 0.454749,-1.0066 0.688152,-1.5036 0.375339,-0.8389 0.905534,-1.5989 1.259045,-2.45 0.581337,-1.1994 1.213599,-2.3766 1.949305,-3.4894 0.73785,-1.1895 1.560553,-2.3204 2.411935,-3.4309 0.826684,-0.9639 1.64643,-1.9339 2.486522,-2.8863 0,0 -3.222377,-1.9123 -3.222377,-1.9123 z"
       inkscape:connector-curvature="0" />
  </g>
</svg>
