<?xml version="1.0" encoding="UTF-8" standalone="no"?>
<!-- Created with Inkscape (http://www.inkscape.org/) -->

<svg
   xmlns:dc="http://purl.org/dc/elements/1.1/"
   xmlns:cc="http://creativecommons.org/ns#"
   xmlns:rdf="http://www.w3.org/1999/02/22-rdf-syntax-ns#"
   xmlns:svg="http://www.w3.org/2000/svg"
   xmlns="http://www.w3.org/2000/svg"
   xmlns:sodipodi="http://sodipodi.sourceforge.net/DTD/sodipodi-0.dtd"
   xmlns:inkscape="http://www.inkscape.org/namespaces/inkscape"
   width="200"
   height="200"
   id="svg2"
   version="1.1"
   inkscape:version="0.48.0 r9654"
   sodipodi:docname="t2.svg">
  <defs
     id="defs4" />
  <sodipodi:namedview
     id="base"
     pagecolor="#ffffff"
     bordercolor="#666666"
     borderopacity="1.0"
     inkscape:pageopacity="0.0"
     inkscape:pageshadow="2"
     inkscape:zoom="1.979899"
     inkscape:cx="165.45654"
     inkscape:cy="69.719001"
     inkscape:document-units="px"
     inkscape:current-layer="layer1"
     showgrid="false"
     inkscape:window-width="999"
     inkscape:window-height="738"
     inkscape:window-x="911"
     inkscape:window-y="194"
     inkscape:window-maximized="0" />
  <metadata
     id="metadata7">
    <rdf:RDF>
      <cc:Work
         rdf:about="">
        <dc:format>image/svg+xml</dc:format>
        <dc:type
           rdf:resource="http://purl.org/dc/dcmitype/StillImage" />
        <dc:title />
      </cc:Work>
    </rdf:RDF>
  </metadata>
  <g
     inkscape:label="Layer 1"
     inkscape:groupmode="layer"
     id="layer1"
     transform="translate(0,-852.36218)">
    <flowRoot
       xml:space="preserve"
       id="flowRoot3021"
       style="font-size:20px;font-style:normal;font-weight:normal;line-height:50%;letter-spacing:0px;word-spacing:0px;fill:#000000;fill-opacity:1;stroke:none;font-family:Sans"
       transform="translate(-55.558389,892.2632)"><flowRegion
         id="flowRegion3023"><rect
           id="rect3025"
           width="66.670067"
           height="49.497475"
           x="218.69803"
           y="135.35023" /></flowRegion><flowPara
         id="flowPara3027"
         style="font-size:56px;font-weight:bold;fill:#000080;stroke:#ececec;-inkscape-font-specification:Sans Bold">3</flowPara></flowRoot>    <path
       style="fill:#000080;stroke:#000080"
       id="path3195"
       d="m 173.4893,93.224256 c -1.3665,0.178172 -2.72685,0.216229 -4.06842,0.549944 -2.57418,0.529673 -5.20961,0.588153 -7.82713,0.656594 -3.78772,-0.01003 -7.56792,0.229982 -11.35121,0.377751 -3.98006,0.185578 -7.96508,0.10204 -11.94624,0.217493 -5.32752,0.247327 -10.66046,0.287026 -15.99258,0.315324 -6.37185,-0.01657 -12.73086,0.510691 -19.09222,0.829634 -4.001491,0.179381 -8.005161,0.308598 -12.010023,0.379429 -2.227229,0.04737 -4.47125,0.193713 -6.68008,0.498055 -1.961402,0.308886 -3.943231,0.419009 -5.924288,0.504163 -1.8869,0.05882 -3.775073,0.0496 -5.662643,0.04765 -1.95449,-0.0073 -3.90896,-0.003 -5.863443,-4.51e-4 -1.791029,0.0098 -3.582162,0.0057 -5.373165,-0.0072 -2.10502,-0.0087 -4.210068,-0.005 -6.3151,-0.0035 -1.695494,-0.119723 -3.385262,-0.303237 -5.082229,-0.40279 -1.413828,-0.06799 -2.829553,-0.08346 -4.244795,-0.0863 -1.542126,-0.003 -3.070002,-0.262066 -4.606822,-0.38108 -0.894584,-0.06567 -1.791515,-0.08299 -2.688054,-0.09676 0,0 5.996065,-4.333439 5.996065,-4.333439 l 0,0 c 0.900956,0.03145 1.801899,0.06924 2.70041,0.14541 1.511202,0.150772 3.020813,0.389367 4.543485,0.349877 1.43752,0.0078 2.878271,-0.01693 4.312293,0.100969 1.653013,0.146471 3.299822,0.380184 4.960363,0.424255 2.108269,0.0015 4.216553,0.0051 6.324811,-0.0035 1.796717,-0.0125 3.593573,-0.01679 5.390302,-0.0047 1.950513,0.0051 3.901017,0.01393 5.851551,0.0079 1.884223,-0.0045 3.768994,-0.0079 5.652179,-0.07808 1.967207,-0.08379 3.927467,-0.255196 5.876551,-0.539895 2.203282,-0.2328 4.420335,-0.393025 6.63704,-0.364764 3.893062,0.0084 7.786752,-0.01412 11.677362,-0.16814 6.34081,-0.247788 12.6747,-0.706771 19.0217,-0.749871 5.39839,-0.08741 10.79517,-0.232971 16.18904,-0.47545 4.00582,-0.129584 8.01455,-0.127737 12.01996,-0.279263 3.80371,-0.153696 7.60513,-0.359789 11.412,-0.419071 2.66163,-0.122035 5.33681,-0.268349 7.93697,-0.896619 1.39396,-0.254402 2.81369,-0.317591 4.19699,-0.634186 0,0 -5.97063,4.520629 -5.97063,4.520629 z"
       inkscape:connector-curvature="0"
       transform="translate(0,852.36218)" />
    <path
       style="fill:#000080;stroke:#000080"
       id="path3197"
       d="m 46.327545,78.719482 c -1.469488,0.818156 -3.079889,1.307259 -4.584334,2.043253 -2.69581,1.461662 -5.380171,2.943862 -8.04635,4.45927 1.160096,-0.654012 -5.647573,3.15019 -4.233416,2.366711 1.18166,-0.654671 2.277808,-1.490117 3.538262,-1.976088 0.836185,-0.322393 -1.49218,0.993091 -2.245949,1.477834 -3.634379,2.337239 -5.461578,3.262842 -10.116263,5.951287 -0.622935,0.347458 -1.244164,0.697993 -1.868806,1.042373 -0.546861,0.301498 -2.183837,1.211963 -1.645654,0.895234 1.580333,-0.930047 6.35462,-3.662907 4.772707,-2.735549 -2.394188,1.403536 -4.831076,2.734225 -7.209612,4.164127 -1.775471,1.067359 3.587142,-2.073816 5.40005,-3.076273 0.182051,-0.100667 -0.335683,0.245809 -0.503525,0.368713 0.01217,0.167632 -0.345118,0.217776 -0.374023,0.397366 -0.07399,0.459726 0.824154,0.859171 1.100891,1.018598 1.833616,0.866224 3.733582,1.582265 5.616172,2.333137 2.458008,0.916852 4.815243,2.044422 7.155967,3.221355 1.863655,0.93479 3.645696,2.02073 5.497556,2.97667 0.993727,0.39761 1.918088,0.93038 2.789225,1.54769 0.859427,0.4285 1.601619,1.01697 2.383259,1.56314 0.926869,0.47523 1.915214,0.82665 2.899307,1.16833 1.293237,0.53842 2.646069,0.96911 3.719816,1.89514 0.104842,0.1376 0.209684,0.2752 0.314526,0.4128 0,0 -6.418684,3.79275 -6.418684,3.79275 l 0,0 c -0.06133,-0.0929 -0.122668,-0.18587 -0.184002,-0.2788 -1.025237,-0.8416 -2.349898,-1.19686 -3.566364,-1.67732 -1.038337,-0.3777 -2.116981,-0.70138 -3.042271,-1.32279 -0.767639,-0.5622 -1.562988,-1.06548 -2.386523,-1.54279 -0.857661,-0.56668 -1.732154,-1.1014 -2.665479,-1.53795 -1.780944,-1.02233 -3.526673,-2.1074 -5.359108,-3.03806 -2.329546,-1.16712 -4.689348,-2.25137 -7.135836,-3.15631 -1.954817,-0.75758 -3.946024,-1.43909 -5.840113,-2.341304 -0.920996,-0.599869 -2.089542,-1.495789 -1.360741,-2.686477 2.688957,-2.249634 -0.238077,0.147192 7.579568,-4.585272 1.675087,-1.014026 -6.787362,3.908578 -5.082545,2.945373 3.596697,-2.032098 7.135238,-4.156622 10.778204,-6.103303 -1.266196,0.740451 -2.51119,1.518412 -3.798589,2.221353 -0.756527,0.413076 1.47962,-0.885209 2.204804,-1.35112 0.75599,-0.485703 1.469204,-1.037525 2.237752,-1.503102 4.117311,-2.494218 8.291447,-4.883815 12.484967,-7.244444 2.742687,-1.570325 5.488817,-3.138975 8.299545,-4.585255 1.600015,-0.702383 3.226558,-1.343531 4.752142,-2.20497 0,0 -5.856533,4.684673 -5.856533,4.684673 z"
       inkscape:connector-curvature="0"
       transform="translate(0,852.36218)" />
  </g>
</svg>
