<?xml version="1.0" encoding="UTF-8" standalone="no"?>
<!-- Created with Inkscape (http://www.inkscape.org/) -->

<svg
   xmlns:dc="http://purl.org/dc/elements/1.1/"
   xmlns:cc="http://creativecommons.org/ns#"
   xmlns:rdf="http://www.w3.org/1999/02/22-rdf-syntax-ns#"
   xmlns:svg="http://www.w3.org/2000/svg"
   xmlns="http://www.w3.org/2000/svg"
   xmlns:sodipodi="http://sodipodi.sourceforge.net/DTD/sodipodi-0.dtd"
   xmlns:inkscape="http://www.inkscape.org/namespaces/inkscape"
   width="200"
   height="200"
   id="svg2"
   version="1.1"
   inkscape:version="0.48.0 r9654"
   sodipodi:docname="t4.svg">
  <defs
     id="defs4" />
  <sodipodi:namedview
     id="base"
     pagecolor="#ffffff"
     bordercolor="#666666"
     borderopacity="1.0"
     inkscape:pageopacity="0.0"
     inkscape:pageshadow="2"
     inkscape:zoom="1.979899"
     inkscape:cx="165.45654"
     inkscape:cy="69.719001"
     inkscape:document-units="px"
     inkscape:current-layer="layer1"
     showgrid="false"
     inkscape:window-width="999"
     inkscape:window-height="738"
     inkscape:window-x="911"
     inkscape:window-y="194"
     inkscape:window-maximized="0" />
  <metadata
     id="metadata7">
    <rdf:RDF>
      <cc:Work
         rdf:about="">
        <dc:format>image/svg+xml</dc:format>
        <dc:type
           rdf:resource="http://purl.org/dc/dcmitype/StillImage" />
        <dc:title />
      </cc:Work>
    </rdf:RDF>
  </metadata>
  <g
     inkscape:label="Layer 1"
     inkscape:groupmode="layer"
     id="layer1"
     transform="translate(0,-852.36218)">
    <flowRoot
       xml:space="preserve"
       id="flowRoot3021"
       style="font-size:20px;font-style:normal;font-weight:normal;line-height:50%;letter-spacing:0px;word-spacing:0px;fill:#000000;fill-opacity:1;stroke:none;font-family:Sans"
       transform="translate(-55.558389,892.2632)"><flowRegion
         id="flowRegion3023"><rect
           id="rect3025"
           width="66.670067"
           height="49.497475"
           x="218.69803"
           y="135.35023" /></flowRegion><flowPara
         id="flowPara3027"
         style="font-size:56px;font-weight:bold;fill:#000080;stroke:#ececec;-inkscape-font-specification:Sans Bold">3</flowPara></flowRoot>    <path
       style="fill:#000080;stroke:#000080"
       id="path3159"
       d="m 166.39678,126.58041 c 0.53182,-2.53714 0.34177,-5.16995 0.30429,-7.7454 -0.0421,-3.8599 -0.27469,-7.71212 -0.37099,-11.57069 -0.0203,-6.96427 -0.0863,-13.930872 0.12241,-20.892543 0.26191,-7.014782 0.65322,-14.024697 1.28812,-21.015621 0.41147,-4.858363 1.1127,-9.683143 1.50319,-14.544036 0.17092,-2.161773 0.21696,-4.330134 0.21168,-6.497732 -0.0229,-0.873169 0.19466,-1.91999 -0.61808,-2.483038 -0.89615,-0.441389 -1.84503,-0.595649 -2.82976,-0.692766 -2.02478,-0.128189 -4.05522,-0.161137 -6.08234,-0.09056 -4.44336,0.496879 -8.8315,1.373366 -13.27034,1.92313 -3.67949,0.571694 -7.39648,0.800585 -11.11309,0.950566 -3.04446,0.129286 -6.09524,0.02571 -9.13775,0.180507 -3.31653,0.211425 -6.63901,0.283557 -9.96102,0.342928 -3.65546,0.07649 -7.31128,0.05462 -10.96697,0.01607 -5.565971,-0.04988 -11.132145,-0.06735 -16.698318,-0.06188 -4.733551,0.0057 -9.466821,0.05379 -14.200189,0.08895 -2.847645,0.01782 -5.695287,0.03347 -8.542819,0.06503 -1.518372,0.0636 -3.011135,0.05793 -4.514361,-0.14838 -1.681559,-0.169449 -3.304987,-0.655607 -4.96278,-0.961334 -1.815937,-0.219642 -3.630585,-0.452409 -5.450142,-0.646748 -1.988034,-0.192755 -3.985804,-0.220676 -5.981352,-0.241583 -1.585414,-0.01456 -3.170907,-0.0056 -4.756303,0.007 -1.459463,-0.0023 -2.918906,-0.0058 -4.378364,8.9e-4 -1.25695,0.107554 -2.395114,0.609661 -3.528143,1.128931 -2.91474,0.918406 -8.625715,4.530285 2.707188,-1.93965 -1.182862,1.082302 -1.321017,2.712732 -1.488464,4.214138 -0.26527,3.307661 -0.479661,6.617081 -0.60985,9.932826 -0.11451,3.921612 -0.13176,7.845054 -0.173151,11.76785 -0.0626,5.107697 -0.06065,10.215911 -0.05903,15.323921 0.02244,5.096248 -0.0067,10.192602 0.02712,15.288792 -0.06351,3.293 0.169501,6.573 0.45786,9.84988 0.154433,1.72705 0.225542,3.45884 0.243522,5.19216 -0.04114,1.38223 0.0249,2.74094 0.246746,4.1041 0.04038,0.13625 0.08076,0.27251 0.121141,0.40877 0,0 -6.530191,3.5673 -6.530191,3.5673 l 0,0 c -0.04984,-0.16893 -0.09968,-0.33787 -0.149518,-0.5068 -0.205564,-1.40634 -0.285,-2.80737 -0.229522,-4.23026 -0.02465,-1.73334 -0.05129,-3.46701 -0.144714,-5.19834 -0.154367,-3.35271 -0.275937,-6.70346 -0.150866,-10.06056 0.03316,-5.104672 0.0036,-10.209498 0.02314,-15.314231 -0.0011,-5.088563 -0.0055,-10.177232 -0.05901,-15.265552 -0.02588,-3.915552 -0.03346,-7.832284 0.08167,-11.746649 0.0953,-3.295021 0.30195,-6.584174 0.419946,-9.877186 0.09328,-1.645897 0.149046,-3.263703 1.091899,-4.680835 3.431482,-2.06725 6.300668,-4.135443 9.966702,-5.408096 1.194286,-0.47906 2.388801,-0.934679 3.702035,-0.885795 1.461533,0.0057 2.923036,1.34e-4 4.384558,-0.006 1.573262,0.0092 3.146575,0.01229 4.719709,0.03584 1.997418,0.04629 3.995456,0.132875 5.985256,0.318 1.840198,0.191006 3.685788,0.373696 5.510492,0.678843 1.655167,0.325741 3.294525,0.75834 4.982721,0.88533 1.454986,0.149482 2.915982,0.112585 4.37707,0.139217 2.787839,0.03185 5.575795,0.04715 8.363751,0.06509 4.650831,0.03552 9.301556,0.08434 13.952574,0.09105 5.620609,0.0073 11.241247,-0.0074 16.861667,-0.05738 3.68686,-0.04161 7.3738,-0.06088 11.06064,-0.10019 3.34695,-0.06676 6.69117,-0.196868 10.03192,-0.415575 3.02465,-0.103533 6.05248,-0.0098 9.07716,-0.13314 3.67574,-0.139345 7.34237,-0.410933 10.98645,-0.928717 4.50312,-0.53796 8.94962,-1.417938 13.4468,-1.981475 2.1108,-0.09134 4.23173,-0.132677 6.33956,0.04414 1.10347,0.146727 2.20724,0.370161 3.13383,1.026555 0.86761,0.86663 0.96536,1.897735 0.86389,3.084551 -0.0722,2.23893 -0.25158,4.472107 -0.48356,6.699982 -0.55316,4.903601 -1.332,9.778985 -1.79768,14.692055 -0.74878,7.013136 -1.28362,14.048047 -1.55439,21.097064 -0.17458,6.877817 -0.0115,13.759604 0.29236,20.632499 0.1882,3.83702 0.49513,7.66882 0.50541,11.51255 0.0813,2.56676 0.27367,5.13824 0.13709,7.70474 0,0 -6.73852,3.26755 -6.73852,3.26755 z"
       inkscape:connector-curvature="0"
       transform="translate(0,852.36218)" />
    <path
       style="fill:#000080;stroke:#000080"
       id="path3169"
       d="m 50.736169,108.87162 c -0.915581,2.86131 -2.558509,5.42103 -4.086019,7.9847 -2.015229,3.54757 -3.931111,7.1473 -6.080535,10.61616 -0.876656,1.55603 -2.080751,2.88062 -3.10132,4.33423 -0.607331,1.07922 -1.318207,2.08799 -2.13432,3.01851 -5.556059,3.34742 -5.275183,4.74863 -9.461299,3.37963 -1.386763,-0.39472 -2.71857,-0.9409 -4.023802,-1.55039 -1.621123,-0.78926 -3.094866,-1.81831 -4.500213,-2.93839 -1.531843,-1.3452 -2.905578,-2.83483 -4.142133,-4.45254 -1.227618,-1.66814 -2.379345,-3.3927 -3.5300383,-5.11477 -0.336427,-0.60395 -0.7263647,-1.17349 -1.0850288,-1.76387 0,0 6.4163911,-3.70606 6.4163911,-3.70606 l 0,0 c 0.327789,0.59409 0.680308,1.17354 0.991854,1.77663 1.087012,1.73968 2.227577,3.45252 3.468552,5.08639 1.192345,1.57622 2.571927,2.99001 4.068948,4.28043 1.376755,1.07098 2.83917,2.03475 4.424492,2.77198 1.308684,0.55852 2.642936,1.05758 4.019085,1.42527 0.597069,0.14245 1.315157,0.39818 1.93566,0.24806 0.149968,-0.0363 0.567477,-0.23627 0.435937,-0.15563 -1.948301,1.1945 -3.929392,2.33467 -5.894088,3.502 0.964644,-0.60813 1.668747,-1.86748 2.238444,-2.84197 0.979243,-1.56275 2.364551,-2.82844 3.315902,-4.41778 2.298494,-3.44974 4.370727,-7.03368 6.323709,-10.69108 1.38778,-2.41898 2.964963,-4.88589 3.64016,-7.61692 0,0 6.759662,-3.17459 6.759662,-3.17459 z"
       inkscape:connector-curvature="0"
       transform="translate(0,852.36218)" />
  </g>
</svg>
