<?xml version="1.0" encoding="UTF-8" standalone="no"?>
<!-- Created with Inkscape (http://www.inkscape.org/) -->

<svg
   xmlns:dc="http://purl.org/dc/elements/1.1/"
   xmlns:cc="http://creativecommons.org/ns#"
   xmlns:rdf="http://www.w3.org/1999/02/22-rdf-syntax-ns#"
   xmlns:svg="http://www.w3.org/2000/svg"
   xmlns="http://www.w3.org/2000/svg"
   xmlns:sodipodi="http://sodipodi.sourceforge.net/DTD/sodipodi-0.dtd"
   xmlns:inkscape="http://www.inkscape.org/namespaces/inkscape"
   width="200"
   height="200"
   id="svg2"
   version="1.1"
   inkscape:version="0.48.0 r9654"
   sodipodi:docname="t5.svg">
  <defs
     id="defs4" />
  <sodipodi:namedview
     id="base"
     pagecolor="#ffffff"
     bordercolor="#666666"
     borderopacity="1.0"
     inkscape:pageopacity="0.0"
     inkscape:pageshadow="2"
     inkscape:zoom="1.979899"
     inkscape:cx="165.45654"
     inkscape:cy="69.719001"
     inkscape:document-units="px"
     inkscape:current-layer="layer1"
     showgrid="false"
     inkscape:window-width="999"
     inkscape:window-height="738"
     inkscape:window-x="909"
     inkscape:window-y="195"
     inkscape:window-maximized="0" />
  <metadata
     id="metadata7">
    <rdf:RDF>
      <cc:Work
         rdf:about="">
        <dc:format>image/svg+xml</dc:format>
        <dc:type
           rdf:resource="http://purl.org/dc/dcmitype/StillImage" />
        <dc:title />
      </cc:Work>
    </rdf:RDF>
  </metadata>
  <g
     inkscape:label="Layer 1"
     inkscape:groupmode="layer"
     id="layer1"
     transform="translate(0,-852.36218)">
    <flowRoot
       xml:space="preserve"
       id="flowRoot3021"
       style="font-size:20px;font-style:normal;font-weight:normal;line-height:50%;letter-spacing:0px;word-spacing:0px;fill:#000000;fill-opacity:1;stroke:none;font-family:Sans"
       transform="translate(-55.558389,892.2632)"><flowRegion
         id="flowRegion3023"><rect
           id="rect3025"
           width="66.670067"
           height="49.497475"
           x="218.69803"
           y="135.35023" /></flowRegion><flowPara
         id="flowPara3027"
         style="font-size:56px;font-weight:bold;fill:#000080;stroke:#ececec;-inkscape-font-specification:Sans Bold">3</flowPara></flowRoot>    <path
       style="fill:#000080;stroke:#000080"
       id="path3129"
       d="m 176.56303,40.641459 c -0.17745,3.484648 -0.22633,6.975733 -0.2743,10.464288 0.0963,5.603543 -0.31168,11.190799 -0.60341,16.782042 -0.30681,5.60701 -0.37585,11.222718 -0.45739,16.836343 -0.1953,6.605303 0.0307,13.19498 0.41798,19.787438 0.168,3.82816 0.71724,7.62121 1.14544,11.42457 0.16094,1.35011 0.24079,2.7069 0.26809,4.06565 -0.0138,1.4378 -0.0372,2.87519 -0.0313,4.31312 -0.008,1.36607 0.01,2.7321 0.0195,4.09812 0.0417,0.78842 -0.0481,1.6383 -0.80639,2.08623 -6.31155,3.72833 -4.55241,2.97749 -7.60799,4.22329 -1.88158,0.84577 -3.8543,1.43567 -5.8162,2.05983 -2.31076,0.67478 -4.72794,0.72099 -7.10923,0.90196 -2.58633,0.19655 -4.56069,0.38856 -7.19809,0.62919 -11.75908,1.06351 -23.47703,2.48364 -35.18733,3.97765 -8.98393,1.2489 -18.043337,1.69501 -27.100451,1.95877 -4.973097,0.0351 -9.951322,0.2118 -14.924999,0.128 -1.907982,-0.0321 -5.261486,-0.2097 -7.170739,-0.30225 -5.892956,-0.53675 -11.77969,-1.10899 -17.690496,-1.40866 -3.045298,-0.21821 -6.106307,-0.0291 -9.150483,-0.21617 -1.396495,-0.0824 -2.765034,-0.26538 -4.094415,-0.70479 -1.235803,-0.28081 -2.005828,-0.98464 -2.4072,-2.16303 -0.248782,-2.3429 -0.260757,-4.71648 -0.363164,-7.07373 -0.283291,-3.43145 -0.509388,-6.86491 -0.638474,-10.30556 -0.123059,-4.35907 -0.299352,-8.71552 -0.367309,-13.07612 -0.115695,-5.70982 0.0066,-11.422646 -0.2086,-17.129736 -0.128692,-5.096782 -0.826049,-10.140743 -1.497821,-15.185775 -0.43533,-2.534138 -0.469802,-5.08726 -0.353077,-7.646099 0.07359,-1.51193 0.126293,-3.024308 0.143199,-4.537918 0.08646,-1.203634 0.286275,-2.399018 0.537069,-3.578692 0.149937,-0.72384 0.08507,-0.383647 0.198421,-1.019841 0,0 6.707817,-3.234542 6.707817,-3.234542 l 0,0 c -0.17132,0.641589 -0.08901,0.296704 -0.238845,1.036555 -0.258402,1.142574 -0.429485,2.294329 -0.610502,3.452177 -0.03985,1.536133 -0.09501,3.072092 -0.216737,4.604267 -0.160431,2.558221 -0.30252,5.113433 0.05165,7.667012 0.472752,5.115538 1.107753,10.21693 1.272689,15.356524 0.271695,5.693821 0.09811,11.397808 0.30273,17.095058 0.147316,4.32212 0.403955,8.63766 0.5823,12.95749 0.113958,3.43198 0.32149,6.85879 0.66755,10.27586 0.145065,2.2552 0.278876,4.51872 0.545167,6.76136 0.299829,0.98304 1.029022,1.34022 2.002694,1.57048 1.280624,0.33703 2.588159,0.51759 3.90662,0.63533 2.944703,0.20432 5.906725,0.14356 8.848247,0.43022 5.810673,0.43072 11.59814,1.09207 17.401458,1.60447 7.324702,0.3487 14.651689,0.35138 21.983174,0.19694 8.913556,-0.18933 17.823196,-0.62773 26.677756,-1.72198 11.84091,-1.40009 23.69199,-2.70878 35.52016,-4.21369 4.4485,-0.54787 3.57493,-0.45284 7.59075,-0.9058 2.4526,-0.27664 4.93883,-0.46889 7.29971,-1.2431 1.99379,-0.65214 3.98233,-1.31802 5.88787,-2.20393 2.69422,-1.2249 0.69269,-0.343 -5.0636,3.07463 -0.16304,0.0968 0.33147,-0.18428 0.4991,-0.27291 0.13881,-0.0734 0.31131,-0.0999 0.42012,-0.2131 0.2408,-0.25055 0.17151,-0.67137 0.17332,-0.96191 0.0105,-1.37398 0.0292,-2.74796 0.0254,-4.122 0.01,-1.42498 -0.003,-2.84961 -0.0261,-4.27442 5.1e-4,-1.36633 -0.0144,-2.73289 -0.0892,-4.09753 -0.21196,-3.90402 -0.53172,-7.80271 -0.63501,-11.71221 -0.31734,-6.60149 -0.60093,-13.199293 -0.45926,-19.811153 -0.01,-5.602845 0.0121,-11.209048 0.31917,-16.805174 0.35063,-5.575557 0.83712,-11.150887 0.61354,-16.743122 -0.0473,-3.395348 -0.0938,-6.793596 -0.2743,-10.184763 0,0 6.64374,-3.385159 6.64374,-3.385159 z"
       inkscape:connector-curvature="0"
       transform="translate(0,852.36218)" />
    <path
       style="fill:#000080;stroke:#000080"
       id="path3131"
       d="m 5.3477421,69.882954 c 1.6536967,-1.183458 2.7216052,-2.974173 3.8679361,-4.614253 1.3110088,-2.194828 2.4295798,-4.506751 3.4649288,-6.843502 1.338377,-2.947792 2.977004,-5.763194 4.741139,-8.475788 1.531037,-2.194959 2.82458,-4.540433 4.244617,-6.805612 0.912972,-1.52932 1.943834,-2.986283 3.062404,-4.371526 3.984062,-4.369936 5.776372,-5.427277 9.091483,-3.057676 1.7752,1.038291 3.599202,1.992602 5.427768,2.932995 2.30557,1.118216 4.472498,2.497291 6.619212,3.890127 2.150197,1.443249 4.279817,2.924593 6.302236,4.543365 1.867835,1.48284 3.23466,3.405173 4.609477,5.32279 1.725703,2.104657 2.971094,4.531522 4.603334,6.701329 0.912931,1.268679 1.82095,2.52243 2.990521,3.566993 0.729009,0.727924 1.452124,1.486625 1.989907,2.369367 0,0 -6.445773,3.738116 -6.445773,3.738116 l 0,0 C 59.422939,67.951431 58.741926,67.24863 58.069507,66.563674 56.91706,65.438387 56.044442,64.127699 55.174337,62.77712 53.612062,60.558047 52.300796,58.171826 50.557508,56.082108 49.204181,54.233693 47.845624,52.379236 46.041805,50.933099 44.029485,49.34783 41.976852,47.803518 39.813217,46.429456 37.664078,45.069066 35.501649,43.716178 33.204272,42.616274 31.330224,41.663023 29.44204,40.73218 27.606009,39.70827 c -0.298254,-0.169495 -0.684414,-0.415969 -1.025284,-0.517453 -0.512467,-0.152571 -0.774818,0.07522 -0.72629,0.04578 10.268258,-6.229424 7.806789,-4.674236 5.697597,-3.336522 -1.268183,1.291047 -2.300602,2.814925 -3.273151,4.333567 -1.468149,2.27485 -2.76463,4.661123 -4.344077,6.864329 -1.78991,2.645181 -3.392825,5.434075 -4.731804,8.332312 -0.999525,2.373613 -2.133214,4.683534 -3.342042,6.957033 -1.161232,1.585801 -2.127757,3.3598 -3.55278,4.727575 0,0 -6.9604359,2.768063 -6.9604359,2.768063 z"
       inkscape:connector-curvature="0"
       transform="translate(0,852.36218)" />
  </g>
</svg>
