<?xml version="1.0" encoding="UTF-8" standalone="no"?>
<!-- Created with Inkscape (http://www.inkscape.org/) -->

<svg
   xmlns:dc="http://purl.org/dc/elements/1.1/"
   xmlns:cc="http://creativecommons.org/ns#"
   xmlns:rdf="http://www.w3.org/1999/02/22-rdf-syntax-ns#"
   xmlns:svg="http://www.w3.org/2000/svg"
   xmlns="http://www.w3.org/2000/svg"
   xmlns:sodipodi="http://sodipodi.sourceforge.net/DTD/sodipodi-0.dtd"
   xmlns:inkscape="http://www.inkscape.org/namespaces/inkscape"
   width="200"
   height="200"
   id="svg2"
   version="1.1"
   inkscape:version="0.48.0 r9654"
   sodipodi:docname="t6.svg">
  <defs
     id="defs4" />
  <sodipodi:namedview
     id="base"
     pagecolor="#ffffff"
     bordercolor="#666666"
     borderopacity="1.0"
     inkscape:pageopacity="0.0"
     inkscape:pageshadow="2"
     inkscape:zoom="1.979899"
     inkscape:cx="165.45654"
     inkscape:cy="69.719001"
     inkscape:document-units="px"
     inkscape:current-layer="layer1"
     showgrid="false"
     inkscape:window-width="999"
     inkscape:window-height="738"
     inkscape:window-x="911"
     inkscape:window-y="194"
     inkscape:window-maximized="0" />
  <metadata
     id="metadata7">
    <rdf:RDF>
      <cc:Work
         rdf:about="">
        <dc:format>image/svg+xml</dc:format>
        <dc:type
           rdf:resource="http://purl.org/dc/dcmitype/StillImage" />
        <dc:title />
      </cc:Work>
    </rdf:RDF>
  </metadata>
  <g
     inkscape:label="Layer 1"
     inkscape:groupmode="layer"
     id="layer1"
     transform="translate(0,-852.36218)">
    <flowRoot
       xml:space="preserve"
       id="flowRoot3021"
       style="font-size:20px;font-style:normal;font-weight:normal;line-height:50%;letter-spacing:0px;word-spacing:0px;fill:#000000;fill-opacity:1;stroke:none;font-family:Sans"
       transform="translate(-55.558389,892.2632)"><flowRegion
         id="flowRegion3023"><rect
           id="rect3025"
           width="66.670067"
           height="49.497475"
           x="218.69803"
           y="135.35023" /></flowRegion><flowPara
         id="flowPara3027"
         style="font-size:56px;font-weight:bold;fill:#000080;stroke:#ececec;-inkscape-font-specification:Sans Bold">3</flowPara></flowRoot>    <path
       style="fill:#000080;stroke:#000080"
       id="path3119"
       d="m 55.913542,31.633486 c 2.103551,0.07297 4.208992,0.07166 6.313547,0.09131 3.815373,0.08417 7.634181,-0.05237 11.438534,-0.342149 4.990252,-0.504106 10.005181,-0.05308 15.000481,0.151829 6.975341,0.292616 13.957756,0.255887 20.936136,0.400643 5.49196,0.05053 10.9581,0.651833 16.39532,1.3776 3.36545,0.458573 6.7502,0.747069 10.14414,0.862122 1.64042,0.18493 3.27701,0.377632 4.92629,0.46152 1.20351,0.09299 2.38353,-0.277346 3.26648,0.706482 0.66014,1.486289 0.37143,3.405496 0.33947,4.999446 -0.32199,4.363228 0.22294,8.690311 0.82071,13.002816 0.66541,5.116605 1.54347,10.195729 2.44418,15.274428 1.05494,5.7961 1.51036,11.673059 2.14858,17.523423 0.53588,5.165263 1.24886,10.303219 1.64553,15.482865 0.20561,3.71248 0.57921,7.41233 0.82907,11.12159 0.001,2.18811 0.34033,4.33073 0.83019,6.45632 0.56052,2.46593 0.6536,5.00369 0.87431,7.51504 0.26035,2.84329 0.36832,5.69576 0.43761,8.54896 0.0201,2.65283 0.0299,5.30571 0.0457,7.95857 -0.0715,1.93026 0.13787,3.84523 0.33435,5.761 0.0743,1.31822 0.49897,2.59081 0.43946,3.9152 -0.63471,2.82029 -5.41366,3.62112 -7.08896,4.47366 -0.13533,0.0689 -1.7889,-0.0754 -1.94491,-0.0812 -2.34566,-0.12005 -4.68402,-0.092 -7.02715,0.0424 -2.64043,0.19595 -5.28588,0.27267 -7.93272,0.2931 -0.36511,-3.9e-4 -3.25415,-3.7e-4 -3.49511,-0.0147 -1.73931,-0.10318 -3.46492,-0.37208 -5.19964,-0.53518 -1.16476,-0.10951 -2.33121,-0.20029 -3.49681,-0.30043 -1.35125,-0.13195 -2.70251,-0.2639 -4.05376,-0.39585 -9.29648,-1.17911 -18.644116,-1.83308 -28.006043,-2.15915 -4.189826,-0.12659 -8.382047,-0.13982 -12.573332,-0.10917 -2.483369,0.0402 -4.958366,0.28642 -7.441153,0.3902 -2.684632,0.0645 -5.363361,0.0848 -8.040126,0.30749 -1.789319,0.253 -3.562552,0.26472 -5.355585,0.0984 -0.196694,-0.0498 -0.393389,-0.0995 -0.590083,-0.14928 0,0 6.092318,-4.22916 6.092318,-4.22916 l 0,0 c 0.171055,0.0306 0.342111,0.0612 0.513166,0.0918 1.725466,0.15736 3.438234,0.06 5.161739,-0.10776 2.670907,-0.17536 5.346262,-0.13726 8.019458,-0.2686 2.491049,-0.13453 4.978344,-0.40903 7.475204,-0.36762 4.003702,0.0734 8.001108,0.28838 11.995924,0.56404 9.331243,0.61624 18.656793,1.29413 27.963793,2.21639 5.59456,0.39961 11.20763,0.912 16.81951,0.74782 2.64907,-0.0659 5.29733,-0.15941 7.94172,-0.33535 2.38941,-0.133 4.77712,-0.11537 7.16957,-0.0874 0.39002,-0.007 1.09013,-0.005 1.50521,-0.0611 0.14599,-0.0198 0.55635,-0.17714 0.43034,-0.10079 -2.01427,1.22059 -4.1026,2.31643 -6.1126,3.54406 -0.0957,0.0584 0.22922,0.0185 0.33593,-0.0159 0.0973,-0.0313 0.16852,-0.11574 0.25278,-0.17361 0.37007,-1.25627 -0.3087,-2.52021 -0.27092,-3.79826 -0.1593,-1.95538 -0.38065,-3.90638 -0.26513,-5.87228 0.0184,-2.65342 0.0357,-5.30724 -0.0123,-7.96046 -0.0348,-2.84361 -0.1112,-5.68912 -0.37308,-8.52228 -0.24049,-2.46096 -0.40424,-4.94477 -0.96073,-7.35963 -0.50203,-2.17843 -0.83854,-4.38624 -0.77637,-6.62839 -0.13041,-3.75031 -0.38784,-7.4931 -0.56719,-11.24098 -0.34321,-5.191538 -1.02833,-10.342257 -1.52572,-15.519052 -0.59637,-5.834325 -1.0167,-11.700697 -2.15363,-17.462972 -0.33072,-1.760247 -0.70635,-3.511944 -1.02897,-5.273693 -0.60702,-3.314727 -0.9242,-6.67668 -1.46368,-10.002213 -0.66035,-4.280348 -1.27587,-8.580018 -1.19612,-12.923754 -0.0274,-1.433155 0.0742,-2.974426 -0.29629,-4.364074 -0.6837,-0.532448 -2.05361,-0.125624 -2.86464,-0.325333 -1.62084,-0.114288 -3.22788,-0.326301 -4.84098,-0.516953 -3.30791,-0.249285 -6.60261,-0.631413 -9.88419,-1.118241 -5.34287,-0.748069 -10.71706,-1.355997 -16.11499,-1.484428 -7.001435,-0.181187 -14.006886,-0.144578 -21.007964,-0.357568 -5.073813,-0.137815 -10.162663,-0.443266 -15.224155,0.09883 -3.85616,0.240612 -7.719041,0.387408 -11.583098,0.387156 -2.188352,0.01992 -4.377452,0.02024 -6.564901,0.09131 0,0 6.04623,-4.392843 6.04623,-4.392843 z"
       inkscape:connector-curvature="0"
       transform="translate(0,852.36218)" />
    <path
       style="fill:#000080;stroke:#000080"
       id="path3121"
       d="m 55.806531,138.68112 c -0.144803,0.0519 -0.290352,0.10173 -0.434408,0.15565 -0.719925,0.26948 -0.507638,0.17442 -1.199683,0.56141 -0.219776,0.1229 -0.87513,0.49863 -0.656742,0.37328 5.862897,-3.36511 7.394058,-4.43489 5.011832,-2.80677 -1.206354,0.89852 -2.351446,1.87418 -3.520135,2.81994 -1.309064,1.10658 -2.702532,2.10556 -4.061898,3.14786 -1.474474,1.11672 -3.00618,2.13461 -4.336524,3.42564 -0.956596,0.72386 -1.385146,1.34035 -1.896863,2.40034 -0.526886,1.36453 -1.386009,2.52825 -2.313946,3.64168 -0.572634,0.83068 -1.622232,1.3235 -2.073773,2.23238 0.307707,0.7759 1.443607,1.23882 2.15668,1.56073 2.42815,0.91137 4.824341,1.90434 7.239813,2.84847 3.179043,1.22419 6.315918,2.55295 9.47651,3.82163 1.917081,0.83906 3.873007,1.57154 5.836686,2.29166 1.161553,0.34469 2.305925,0.74804 3.478891,1.05368 0,0 -6.10645,4.18267 -6.10645,4.18267 l 0,0 c -1.155018,-0.35713 -2.300662,-0.74732 -3.441629,-1.14644 -1.948083,-0.72277 -3.857698,-1.53144 -5.749957,-2.38929 -3.092721,-1.36477 -6.188192,-2.72146 -9.374237,-3.86055 -2.497545,-0.92812 -5.001434,-1.83728 -7.508976,-2.73588 -1.101886,-0.54091 -2.288589,-1.13846 -2.722786,-2.36667 0.0075,-0.17106 -0.01725,-0.34663 0.02247,-0.51318 0.203483,-0.85314 1.453605,-1.45395 1.983017,-2.10996 0.922798,-1.03651 1.900877,-2.11096 2.342938,-3.451 0.551039,-1.08911 0.682413,-1.97633 1.829844,-2.6528 0.379508,-0.3572 0.730986,-0.74393 1.117731,-1.09329 1.009258,-0.91169 2.217444,-1.56234 3.263725,-2.42699 1.312673,-1.0578 2.710562,-2.0067 3.986474,-3.10889 1.182193,-0.94442 2.341815,-1.91161 3.52899,-2.85034 2.655447,-2.17102 0.54015,-0.4938 7.56282,-4.53036 0.788133,-0.453 1.644738,-0.79156 2.530214,-0.99524 0,0 -5.970627,4.52063 -5.970627,4.52063 z"
       inkscape:connector-curvature="0"
       transform="translate(0,852.36218)" />
  </g>
</svg>
