<?xml version="1.0" encoding="UTF-8" standalone="no"?>
<!-- Created with Inkscape (http://www.inkscape.org/) -->

<svg
   xmlns:dc="http://purl.org/dc/elements/1.1/"
   xmlns:cc="http://creativecommons.org/ns#"
   xmlns:rdf="http://www.w3.org/1999/02/22-rdf-syntax-ns#"
   xmlns:svg="http://www.w3.org/2000/svg"
   xmlns="http://www.w3.org/2000/svg"
   xmlns:sodipodi="http://sodipodi.sourceforge.net/DTD/sodipodi-0.dtd"
   xmlns:inkscape="http://www.inkscape.org/namespaces/inkscape"
   width="200"
   height="200"
   id="svg2"
   version="1.1"
   inkscape:version="0.48.0 r9654"
   sodipodi:docname="t7.svg">
  <defs
     id="defs4" />
  <sodipodi:namedview
     id="base"
     pagecolor="#ffffff"
     bordercolor="#666666"
     borderopacity="1.0"
     inkscape:pageopacity="0.0"
     inkscape:pageshadow="2"
     inkscape:zoom="1.979899"
     inkscape:cx="165.45654"
     inkscape:cy="69.719001"
     inkscape:document-units="px"
     inkscape:current-layer="layer1"
     showgrid="false"
     inkscape:window-width="999"
     inkscape:window-height="738"
     inkscape:window-x="911"
     inkscape:window-y="194"
     inkscape:window-maximized="0" />
  <metadata
     id="metadata7">
    <rdf:RDF>
      <cc:Work
         rdf:about="">
        <dc:format>image/svg+xml</dc:format>
        <dc:type
           rdf:resource="http://purl.org/dc/dcmitype/StillImage" />
        <dc:title />
      </cc:Work>
    </rdf:RDF>
  </metadata>
  <g
     inkscape:label="Layer 1"
     inkscape:groupmode="layer"
     id="layer1"
     transform="translate(0,-852.36218)">
    <flowRoot
       xml:space="preserve"
       id="flowRoot3021"
       style="font-size:20px;font-style:normal;font-weight:normal;line-height:50%;letter-spacing:0px;word-spacing:0px;fill:#000000;fill-opacity:1;stroke:none;font-family:Sans"
       transform="translate(-55.558389,892.2632)"><flowRegion
         id="flowRegion3023"><rect
           id="rect3025"
           width="66.670067"
           height="49.497475"
           x="218.69803"
           y="135.35023" /></flowRegion><flowPara
         id="flowPara3027"
         style="font-size:56px;font-weight:bold;fill:#000080;stroke:#ececec;-inkscape-font-specification:Sans Bold">3</flowPara></flowRoot>    <path
       style="fill:#000080;stroke:#000080"
       id="path3105"
       d="m 136.05269,33.105487 c -2.31119,0.537904 -4.71279,0.56623 -7.07409,0.654095 -4.212,0.03004 -8.41784,0.165321 -12.62632,0.335712 -4.20142,0.217272 -8.39745,0.487742 -12.60327,0.625897 -4.482007,0.106282 -8.965587,0.117394 -13.448498,0.159063 -3.099882,0.06846 -6.194687,-0.18887 -9.290069,-0.322268 -2.852704,-0.117363 -5.707949,-0.123084 -8.562465,-0.143486 -3.308553,0.0037 -6.612791,0.239428 -9.919104,0.360473 -2.719528,0.05165 -5.441883,0.188842 -8.135704,0.578859 -2.140793,0.278928 -4.279612,0.585853 -6.427486,0.806591 -2.166527,0.112426 -4.316256,0.344587 -6.472789,0.568484 -1.731389,0.19184 -3.474217,0.230514 -5.214283,0.264474 -0.685599,0.06031 -1.400353,-0.08038 -2.074103,0.113414 -0.159323,0.04583 -0.592769,0.296604 -0.448551,0.214843 6.497488,-3.683577 7.972106,-4.714103 5.804513,-3.217665 -0.06794,0.107647 -0.15771,0.20429 -0.203807,0.322942 -0.301799,0.776819 -0.266076,1.77847 -0.298238,2.586423 -0.153512,3.856398 0.10206,-1.340946 -0.125711,3.066062 -0.359937,5.843821 -1.370891,11.611363 -2.19478,17.399713 -0.880335,6.268049 -1.164612,12.593921 -1.314341,18.91466 -0.05775,4.834492 -0.06165,9.669799 -0.02113,14.504456 0.03043,3.808631 0.06625,7.617145 0.07018,11.425921 -0.0025,2.93734 0.06113,5.87416 0.06904,8.81141 0.01002,2.10987 0.0093,4.21485 0.155404,6.32004 0.206006,2.40647 0.261804,4.82196 0.313238,7.23557 0.136613,2.31858 -0.08228,4.62763 -0.238376,6.93798 -0.06721,2.21809 -0.424162,4.40723 -0.762913,6.59512 -0.308282,1.56618 -0.621616,3.1269 -0.78444,4.71594 -0.103916,1.10924 -0.100601,2.2239 -0.119177,3.33664 0.102054,1.06422 0.0038,2.31574 0.747933,3.16756 0.852139,0.51062 1.93588,0.4123 2.895272,0.43472 2.106747,0.0291 4.213876,0.0255 6.320814,0.028 2.852618,-0.0972 5.687371,-0.41342 8.528909,-0.65838 2.908426,-0.24616 5.826549,-0.30468 8.743624,-0.33593 3.123336,0.0698 6.238111,-0.17745 9.355537,-0.32498 3.064125,-0.12702 6.118573,-0.41046 9.182247,-0.56577 2.742923,-0.10413 5.487592,-0.13027 8.232113,-0.15074 2.073703,-0.019 4.147419,-0.0236 6.221197,-0.0222 2.110393,-0.20872 4.225692,-0.33037 6.344517,-0.40727 2.01527,-0.0718 4.03167,-0.0872 6.04789,-0.10946 1.62336,-0.0385 3.24987,0.0685 4.8682,-0.075 2.07562,-0.19121 4.15309,-0.30444 6.22695,-0.51624 2.14364,-0.37736 4.30059,-0.65636 6.47141,-0.8118 1.43248,-0.2241 2.86098,-0.46181 4.30705,-0.5776 1.23021,-0.28264 2.48157,-0.4089 3.73816,-0.49461 1.17609,-0.0752 2.3546,-0.0714 3.53239,-0.0712 1.20182,-0.005 2.40359,0.005 3.60541,0.004 0.14571,-0.005 0.29142,-0.0107 0.43713,-0.016 0,0 -6.0349,4.38348 -6.0349,4.38348 l 0,0 c -0.1305,-0.006 -0.261,-0.0113 -0.39149,-0.017 -1.20164,-0.003 -2.40325,0.002 -3.60489,-7e-5 -1.16486,0.009 -2.33088,0.0247 -3.49307,0.1104 -1.25886,0.11105 -2.49791,0.33361 -3.748,0.51082 -1.41209,0.13547 -2.81117,0.37086 -4.22339,0.50478 -2.15014,0.17211 -4.2812,0.47605 -6.41424,0.79265 -2.09956,0.21216 -4.20459,0.34816 -6.30572,0.54407 -1.6344,0.0781 -3.27074,0.0398 -4.90661,0.0448 -1.986206,-0.008 -3.97298,0.005 -5.958069,0.0775 -2.139206,0.0971 -4.269243,0.3025 -6.4069,0.4153 -2.051932,-0.002 -4.103792,-0.0129 -6.155693,-0.0209 -2.722633,0.003 -5.446539,0.0166 -8.166721,0.14325 -3.054862,0.14722 -6.10062,0.43064 -9.157045,0.54592 -3.129975,0.15187 -6.258161,0.35424 -9.393764,0.32205 -2.902932,0.0445 -5.807642,0.11611 -8.701062,0.37185 -2.869386,0.26278 -5.73656,0.56981 -8.619151,0.64858 -2.153041,0.017 -4.305998,0.052 -6.459147,0.0434 -1.188244,-0.0401 -2.430513,-0.0262 -3.317693,-0.93835 -0.767197,-1.06924 -0.800063,-2.34437 -0.956285,-3.61612 -0.01153,-1.13898 0.0063,-2.27962 0.109165,-3.41471 0.170649,-1.61826 0.463306,-3.21506 0.858601,-4.79398 0.339883,-2.17618 0.78642,-4.33989 0.820533,-6.55225 0.149699,-2.29787 0.401914,-4.59256 0.297601,-6.89869 -0.04067,-2.39337 -0.118125,-4.78702 -0.343858,-7.17124 -0.187976,-2.13021 -0.188741,-4.2583 -0.132037,-6.39616 0.0077,-2.95966 0.07043,-5.91894 0.06416,-8.87869 -0.0021,-3.8271 0.02187,-7.654074 0.03864,-11.481125 0.02964,-4.866712 0.0031,-9.734537 0.163417,-14.599484 0.211704,-6.373163 0.609827,-12.740717 1.451638,-19.065639 0.779294,-5.681099 1.681582,-11.355754 1.75901,-17.10358 0.04035,-2.073186 -0.134926,-4.168265 0.115744,-6.227069 1.635489,-3.694729 6.044789,-4.452835 9.515074,-4.395368 1.715365,-0.03071 3.430288,-0.101569 5.137046,-0.28502 2.140777,-0.223843 4.285604,-0.354807 6.429293,-0.543501 2.144483,-0.261566 4.285318,-0.551968 6.428849,-0.821201 2.671987,-0.29546 5.356962,-0.393776 8.044087,-0.43075 3.324898,-0.123645 6.646783,-0.374836 9.974898,-0.365213 2.874658,0.002 5.750593,0.01859 8.623126,0.137673 3.035577,0.153977 6.067306,0.435153 9.109397,0.409558 4.467136,0.01863 8.935336,7.2e-5 13.400356,-0.151989 4.19968,-0.156966 8.38929,-0.482402 12.58947,-0.619879 4.24765,-0.166615 8.49543,-0.299138 12.74414,-0.42937 2.46247,-0.14542 4.93407,-0.308102 7.32773,-0.948658 0,0 -5.97173,4.491242 -5.97173,4.491242 z"
       inkscape:connector-curvature="0"
       transform="translate(0,852.36218)" />
    <path
       style="fill:#000080;stroke:#000080"
       id="path3107"
       d="m 122.21388,126.9009 c 2.01619,0.65106 3.96217,1.48595 5.93569,2.24914 1.95406,0.81782 4.01186,1.33315 6.01806,1.99972 2.14361,0.73244 4.30159,1.40354 6.40826,2.24239 1.89781,0.71619 3.82338,1.38183 5.66937,2.22565 1.25184,0.58031 2.49958,1.20308 3.69291,1.89652 0.75098,0.41943 1.57105,0.71797 2.30513,1.16311 0.41141,0.3936 1.49896,0.61201 1.84946,0.96009 0.13266,0.13174 0.2027,0.31422 0.30405,0.47133 0.42221,1.44856 -1.06779,1.98988 -2.10046,2.59873 -4.00205,2.53988 -14.37164,8.04952 -2.39757,1.41377 0.31198,-0.17289 -0.59843,0.38832 -0.90014,0.57858 -0.31515,0.19873 -0.63358,0.39221 -0.95036,0.58832 -0.33091,0.21007 -0.66181,0.42014 -0.99271,0.63021 -2.18205,1.51299 -4.35875,3.03299 -6.49662,4.6083 -1.65282,1.23631 -3.17057,2.64474 -4.67902,4.05086 -1.25487,1.2722 -2.68488,2.34434 -4.08971,3.4406 -1.10007,0.92118 -2.06157,1.96246 -3.25217,2.77094 -0.13933,0.10427 -0.27865,0.20853 -0.41798,0.31279 0,0 -6.88015,2.78555 -6.88015,2.78555 l 0,0 c 0.13596,-0.13014 0.27191,-0.26028 0.40787,-0.39042 0.54485,-0.38026 1.16112,-0.67308 1.65709,-1.11976 0.57207,-0.5152 1.01295,-1.17977 1.66897,-1.60679 1.33684,-1.1917 2.92461,-2.09849 4.15607,-3.42279 1.52562,-1.43582 3.06021,-2.87598 4.71724,-4.15818 2.13446,-1.57444 4.31525,-3.07778 6.45782,-4.64004 3.81704,-2.52313 17.41372,-10.31692 4.39118,-2.77424 -0.24598,0.14247 0.49289,-0.28333 0.73934,-0.425 0.69009,-0.41136 1.40425,-0.89984 2.13625,-1.23398 0.0916,-0.0418 0.207,-0.0264 0.2904,-0.0827 0.0503,-0.034 0.051,-0.11011 0.0765,-0.16516 -0.28112,-0.49658 -1.48925,-0.70118 -1.95358,-1.11473 -0.76385,-0.38579 -1.52744,-0.77302 -2.27139,-1.19628 -1.16984,-0.66739 -2.3438,-1.3358 -3.57199,-1.8911 -1.82779,-0.82523 -3.7178,-1.51067 -5.58699,-2.23508 -2.10753,-0.8175 -4.26579,-1.47042 -6.40683,-2.19122 -2.0218,-0.64589 -4.07465,-1.2082 -6.02961,-2.04647 -2.00198,-0.81217 -4.00622,-1.61248 -6.10048,-2.16347 0,0 6.1961,-4.12918 6.1961,-4.12918 z"
       inkscape:connector-curvature="0"
       transform="translate(0,852.36218)" />
  </g>
</svg>
