<?xml version="1.0" encoding="UTF-8" standalone="no"?>
<!-- Created with Inkscape (http://www.inkscape.org/) -->

<svg
   xmlns:dc="http://purl.org/dc/elements/1.1/"
   xmlns:cc="http://creativecommons.org/ns#"
   xmlns:rdf="http://www.w3.org/1999/02/22-rdf-syntax-ns#"
   xmlns:svg="http://www.w3.org/2000/svg"
   xmlns="http://www.w3.org/2000/svg"
   xmlns:sodipodi="http://sodipodi.sourceforge.net/DTD/sodipodi-0.dtd"
   xmlns:inkscape="http://www.inkscape.org/namespaces/inkscape"
   width="200"
   height="200"
   id="svg2"
   version="1.1"
   inkscape:version="0.48.0 r9654"
   sodipodi:docname="t8.svg">
  <defs
     id="defs4" />
  <sodipodi:namedview
     id="base"
     pagecolor="#ffffff"
     bordercolor="#666666"
     borderopacity="1.0"
     inkscape:pageopacity="0.0"
     inkscape:pageshadow="2"
     inkscape:zoom="1.979899"
     inkscape:cx="165.45654"
     inkscape:cy="69.719001"
     inkscape:document-units="px"
     inkscape:current-layer="layer1"
     showgrid="false"
     inkscape:window-width="999"
     inkscape:window-height="738"
     inkscape:window-x="838"
     inkscape:window-y="193"
     inkscape:window-maximized="0" />
  <metadata
     id="metadata7">
    <rdf:RDF>
      <cc:Work
         rdf:about="">
        <dc:format>image/svg+xml</dc:format>
        <dc:type
           rdf:resource="http://purl.org/dc/dcmitype/StillImage" />
        <dc:title />
      </cc:Work>
    </rdf:RDF>
  </metadata>
  <g
     inkscape:label="Layer 1"
     inkscape:groupmode="layer"
     id="layer1"
     transform="translate(0,-852.36218)">
    <flowRoot
       xml:space="preserve"
       id="flowRoot3021"
       style="font-size:20px;font-style:normal;font-weight:normal;line-height:50%;letter-spacing:0px;word-spacing:0px;fill:#000000;fill-opacity:1;stroke:none;font-family:Sans"
       transform="translate(-55.558389,892.2632)"><flowRegion
         id="flowRegion3023"><rect
           id="rect3025"
           width="66.670067"
           height="49.497475"
           x="218.69803"
           y="135.35023" /></flowRegion><flowPara
         id="flowPara3027"
         style="font-size:56px;font-weight:bold;fill:#000080;stroke:#ececec;-inkscape-font-specification:Sans Bold">3</flowPara></flowRoot>    <path
       style="fill:#000080;stroke:#000080"
       id="path3089"
       d="m 121.01488,26.072622 c 1.20961,-0.05174 2.38962,0.144713 3.58405,0.297615 1.25587,0.237036 2.39856,0.687014 3.51692,1.295811 1.1934,0.518988 2.34051,1.141708 3.56798,1.578536 1.2518,0.465131 2.43619,1.063385 3.56461,1.775915 2.02479,1.246254 4.06982,2.449181 6.16865,3.566721 2.04588,1.168924 4.04138,2.423334 6.00401,3.726204 1.76847,1.240918 3.47248,2.583393 5.12914,3.970702 1.46489,1.272996 2.69272,2.774987 3.9364,4.255572 1.07721,1.477924 2.14611,2.960841 3.2384,4.428555 1.05108,1.32789 1.9083,2.795701 2.643,4.317822 0.82095,1.7309 1.36247,3.570892 2.10683,5.332755 0.73923,2.026525 1.40361,4.083408 1.99167,6.158778 0.55162,2.14034 0.75916,4.346225 1.14802,6.518264 0.46299,2.250075 0.61156,4.543972 0.69809,6.834177 0.0476,2.441158 0.0786,4.88269 0.0917,7.324305 0.0188,2.289216 -0.0215,4.578226 -0.0256,6.867395 -6.9e-4,2.206498 0.0747,4.40925 -0.0966,6.610561 -0.14678,2.34508 -0.38541,4.67149 -0.73175,6.99516 -0.3435,2.15875 -0.50115,4.33958 -0.57811,6.52218 -0.0431,1.36029 -0.0378,2.72122 -0.0507,4.08196 0.0843,1.38539 -0.11546,2.75236 -0.2706,4.12396 -0.12288,1.57726 -0.47398,3.1201 -0.85616,4.65099 -0.67768,2.4537 -1.98727,4.66924 -3.29635,6.83014 -2.69949,4.217 -6.07966,7.92221 -9.80503,11.24519 -2.81356,2.35914 -5.97314,4.23713 -9.10837,6.12565 -3.25785,1.57251 -6.71775,4.84752 -10.67238,5.20166 -1.61729,0.2328 -3.21826,0.54987 -4.78952,1.00216 -2.08016,0.67545 -4.14319,1.40213 -6.27209,1.91054 -2.49478,0.39198 -4.96157,0.90145 -7.41157,1.51293 -2.53974,0.86527 -5.10717,1.6623 -7.69881,2.35928 -2.3362,0.64524 -4.66586,1.30781 -7.056274,1.71736 -2.52042,0.54507 -5.086212,0.80249 -7.65445,0.9811 -1.788897,0.20872 -3.561377,-0.0604 -5.340189,-0.21673 -1.601309,-0.0416 -3.137277,-0.50269 -4.693217,-0.82662 -1.916734,-0.51724 -3.800528,-1.15614 -5.692971,-1.75879 -2.851904,-0.94003 -5.666741,-1.98457 -8.504948,-2.96427 -3.202566,-1.27077 -6.454816,-2.40199 -9.733793,-3.45733 -2.615841,-0.78663 -5.124876,-1.868 -7.68419,-2.80907 -2.281958,-0.86431 -4.38527,-2.10517 -6.550798,-3.21503 -1.130308,-0.73455 -2.390604,-1.26733 -3.50524,-2.02722 -0.318847,-0.21737 -1.115635,-0.89119 -1.416537,-1.14126 -1.475469,-1.33579 -2.986005,-2.63311 -4.456849,-3.97455 -1.819934,-1.69091 -3.185692,-3.75698 -4.505073,-5.84091 -1.513991,-2.56886 -2.705513,-5.30644 -4.050379,-7.96394 -1.556769,-3.16454 -3.03507,-6.36486 -4.473313,-9.58472 -0.923239,-2.38639 -1.965048,-4.80509 -2.265905,-7.37168 -0.05557,-0.47407 -0.05717,-0.95292 -0.08575,-1.42938 0.12899,-3.31569 0.924442,-6.56446 1.571841,-9.80811 0.609077,-2.894789 1.097684,-5.812588 1.635521,-8.721263 0.457113,-2.783999 0.628298,-5.595855 1.154027,-8.369388 0.469832,-3.093345 1.16294,-6.126258 2.062544,-9.121505 0.853726,-3.483115 2.240941,-6.76218 3.919159,-9.918032 2.744261,-4.545034 6.008545,-8.790011 9.553321,-12.738282 2.003884,-2.17997 4.13965,-4.252171 6.505988,-6.036673 3.518572,-2.419728 7.12084,-4.643933 11.25241,-5.662634 1.94524,-0.539478 3.849738,-1.190967 5.830562,-1.59353 1.304575,-0.357777 2.607343,-0.686777 3.847241,-1.23105 0.836556,-0.34045 1.706291,-0.59634 2.612635,-0.542669 0,0 -6.011827,4.398283 -6.011827,4.398283 l 0,0 c -0.843168,0.123372 -1.646866,0.394612 -2.431145,0.725235 -1.251003,0.442565 -2.529794,0.780449 -3.826624,1.063987 -1.97292,0.456461 -3.885092,1.113367 -5.83785,1.645263 -0.803217,0.236551 -1.611298,0.472922 -2.382045,0.804791 -0.274632,0.118251 -1.06649,0.53906 -0.810124,0.385168 4.05717,-2.435441 7.524125,-4.279288 4.517532,-2.668602 -2.524371,1.757258 -4.789315,3.864368 -6.935941,6.060508 -3.616762,3.811107 -6.809516,8.05478 -9.546824,12.538365 -1.607783,3.098809 -2.979911,6.312893 -3.797508,9.719739 -0.94446,2.955737 -1.675622,5.954439 -2.063064,9.036822 -0.561414,2.771636 -0.735917,5.578581 -1.174745,8.36879 -0.524216,2.922907 -1.032082,5.85019 -1.665873,8.751543 -0.65327,3.183454 -1.460791,6.363074 -1.595999,9.623714 0.01428,0.45339 0.0026,0.90835 0.04283,1.36018 0.223817,2.51419 1.236105,4.90665 2.10312,7.24704 1.445014,3.20241 2.831585,6.43137 4.463461,9.54608 1.374882,2.61648 2.609185,5.30664 4.09546,7.86245 1.299042,2.02258 2.690832,3.99686 4.467663,5.6353 1.485274,1.31866 3.001873,2.60061 4.490355,3.91554 1.479837,1.20465 3.114942,2.15947 4.788592,3.07402 2.123166,1.12747 4.200133,2.35971 6.478356,3.16093 2.511243,0.98689 5.004419,2.02019 7.57754,2.84195 3.255708,1.09731 6.485341,2.26402 9.69316,3.49442 2.869913,0.97111 5.742157,1.93462 8.629585,2.85249 1.91464,0.56703 3.811821,1.21074 5.763932,1.63629 1.523082,0.34789 3.044329,0.71334 4.614541,0.76806 1.73596,0.15441 3.470421,0.35277 5.21487,0.16767 2.537251,-0.16371 5.060861,-0.47237 7.548771,-1.00866 2.37588,-0.48203 4.70501,-1.16019 7.04675,-1.78406 2.57876,-0.71485 5.12821,-1.52405 7.68223,-2.32158 2.47293,-0.58801 4.96129,-1.07881 7.45745,-1.55525 2.12476,-0.56455 4.19034,-1.31749 6.29612,-1.94751 1.62441,-0.42257 3.26905,-0.75811 4.93202,-0.99047 2.77744,-0.52801 8.21843,-4.0155 -1.97831,1.8241 3.232,-1.92601 6.53013,-3.77157 9.47276,-6.1356 0.64235,-0.54802 1.30442,-1.07374 1.92705,-1.64407 2.98566,-2.7349 5.5526,-5.92232 7.75847,-9.3089 1.21161,-2.09361 2.45329,-4.2184 3.16693,-6.54226 0.3803,-1.48845 0.73435,-2.99807 0.83996,-4.53443 0.15785,-1.34918 0.40352,-2.69242 0.32511,-4.05618 -0.0149,-1.37548 -0.0182,-2.75245 0.056,-4.12644 0.14325,-2.22333 0.3734,-4.44047 0.67085,-6.64846 0.34576,-2.29673 0.56572,-4.59284 0.6705,-6.91368 0.20539,-2.19348 0.21364,-4.387893 0.19401,-6.590655 -0.001,-2.282447 -0.0365,-4.564816 -0.0128,-6.84727 0.0126,-2.43802 0.0451,-4.877064 -0.0484,-7.314014 -0.095,-2.253157 -0.23197,-4.509718 -0.68989,-6.723953 -0.39668,-2.150287 -0.57612,-4.33735 -1.09774,-6.463398 -0.59216,-2.042144 -1.24546,-4.070406 -1.98414,-6.064296 -0.732,-1.751516 -1.30123,-3.566517 -2.12949,-5.277543 -0.71065,-1.483431 -1.5508,-2.906121 -2.55774,-4.209393 -1.06783,-1.467253 -2.14058,-2.931003 -3.21515,-4.393116 -1.19582,-1.460788 -2.40747,-2.91107 -3.83127,-4.1603 -1.64939,-1.352255 -3.29567,-2.718097 -5.06237,-3.915798 -1.96074,-1.261991 -3.89233,-2.572543 -5.94018,-3.692637 -2.11455,-1.141284 -4.1766,-2.369868 -6.28108,-3.5285 -1.14789,-0.627778 -2.33746,-1.164864 -3.55847,-1.635505 -1.22023,-0.507968 -2.39953,-1.108936 -3.60416,-1.652453 -1.06815,-0.526859 -2.1813,-0.89748 -3.36099,-1.08633 -1.2021,-0.150588 -2.40284,-0.246466 -3.61543,-0.159834 0,0 6.06006,-4.402893 6.06006,-4.402893 z"
       inkscape:connector-curvature="0"
       transform="translate(0,852.36218)" />
    <path
       style="fill:#000080;stroke:#000080"
       id="path3097"
       d="m 64.993583,21.142995 c 1.31592,0.29704 2.588781,0.746206 3.909195,1.031722 2.226757,0.295723 4.450818,0.610153 6.632193,1.155397 2.602016,0.59944 5.212069,1.158433 7.793714,1.843565 1.969157,0.555062 3.917405,1.171671 5.786422,2.008266 1.130085,0.713301 2.323794,1.252048 3.547654,1.77193 1.3137,0.40023 2.522504,1.062778 3.794541,1.571161 0.947294,0.555576 1.948604,0.903161 3.031705,1.05042 0.768273,0.04594 2.201323,0.3411 1.410253,1.438623 -1.398033,0.939649 -2.845179,1.813201 -4.262326,2.728777 -2.141635,1.524262 -4.296521,3.03133 -6.420333,4.580515 -2.378967,1.760541 -4.763995,3.51373 -7.092271,5.341163 -1.308138,1.173941 -2.749446,2.182004 -4.111221,3.286856 -0.716601,0.666199 -1.491471,1.268077 -2.29281,1.828603 -0.817223,0.625719 -1.186499,1.45258 -1.439878,2.419903 0,0 -6.651424,3.207588 -6.651424,3.207588 l 0,0 c 0.19563,-1.047939 0.396331,-2.063391 1.206277,-2.827476 0.664022,-0.717439 1.610292,-1.13529 2.315432,-1.824708 0.526978,-0.529598 1.084651,-0.870351 1.691001,-1.301597 0.914554,-0.650448 1.715417,-1.44076 2.609126,-2.117765 2.328958,-1.832468 4.717202,-3.586648 7.089223,-5.362634 2.087682,-1.564994 4.256345,-3.015791 6.338092,-4.589585 1.33314,-0.89891 2.662072,-1.811275 4.079152,-2.573751 0.416226,-0.144652 0.236951,-0.174856 0.631172,0.262211 0.09987,0.110729 -1.286378,-0.385528 -1.192436,-0.232508 -1.091689,-0.239125 -2.090984,-0.683519 -3.07247,-1.214787 -1.265173,-0.537455 -2.504604,-1.137731 -3.813618,-1.565414 -1.224403,-0.512238 -2.369264,-1.147696 -3.516594,-1.813228 -1.815892,-0.819131 -3.70383,-1.44389 -5.622464,-1.976599 -2.568838,-0.686888 -5.160517,-1.262368 -7.754758,-1.843575 -2.231016,-0.485003 -4.494919,-0.717197 -6.747354,-1.068186 -1.339474,-0.312541 -2.652757,-0.748442 -4.019594,-0.933434 0,0 6.144399,-4.281453 6.144399,-4.281453 z"
       inkscape:connector-curvature="0"
       transform="translate(0,852.36218)" />
  </g>
</svg>
