<?xml version="1.0" encoding="UTF-8" standalone="no"?>
<!-- Created with Inkscape (http://www.inkscape.org/) -->

<svg
   xmlns:dc="http://purl.org/dc/elements/1.1/"
   xmlns:cc="http://creativecommons.org/ns#"
   xmlns:rdf="http://www.w3.org/1999/02/22-rdf-syntax-ns#"
   xmlns:svg="http://www.w3.org/2000/svg"
   xmlns="http://www.w3.org/2000/svg"
   xmlns:sodipodi="http://sodipodi.sourceforge.net/DTD/sodipodi-0.dtd"
   xmlns:inkscape="http://www.inkscape.org/namespaces/inkscape"
   width="200"
   height="200"
   id="svg2"
   version="1.1"
   inkscape:version="0.48.0 r9654"
   sodipodi:docname="t9.svg">
  <defs
     id="defs4" />
  <sodipodi:namedview
     id="base"
     pagecolor="#ffffff"
     bordercolor="#666666"
     borderopacity="1.0"
     inkscape:pageopacity="0.0"
     inkscape:pageshadow="2"
     inkscape:zoom="1.979899"
     inkscape:cx="165.45654"
     inkscape:cy="69.719001"
     inkscape:document-units="px"
     inkscape:current-layer="layer1"
     showgrid="false"
     inkscape:window-width="999"
     inkscape:window-height="738"
     inkscape:window-x="860"
     inkscape:window-y="189"
     inkscape:window-maximized="0" />
  <metadata
     id="metadata7">
    <rdf:RDF>
      <cc:Work
         rdf:about="">
        <dc:format>image/svg+xml</dc:format>
        <dc:type
           rdf:resource="http://purl.org/dc/dcmitype/StillImage" />
        <dc:title />
      </cc:Work>
    </rdf:RDF>
  </metadata>
  <g
     inkscape:label="Layer 1"
     inkscape:groupmode="layer"
     id="layer1"
     transform="translate(0,-852.36218)">
    <flowRoot
       xml:space="preserve"
       id="flowRoot3021"
       style="font-size:20px;font-style:normal;font-weight:normal;line-height:50%;letter-spacing:0px;word-spacing:0px;fill:#000000;fill-opacity:1;stroke:none;font-family:Sans"
       transform="translate(-55.558389,892.2632)"><flowRegion
         id="flowRegion3023"><rect
           id="rect3025"
           width="66.670067"
           height="49.497475"
           x="218.69803"
           y="135.35023" /></flowRegion><flowPara
         id="flowPara3027"
         style="font-size:56px;font-weight:bold;fill:#000080;stroke:#ececec;-inkscape-font-specification:Sans Bold">3</flowPara></flowRoot>    <path
       style="fill:#000080;stroke:#000080"
       id="path3077"
       d="m 87.034374,39.950828 c -1.272846,-0.477629 -2.610455,-0.79345 -3.940469,-1.073972 -1.233676,-0.268515 -2.385684,-0.349947 -3.626504,-0.150279 -1.145904,0.407232 -2.282483,0.832455 -3.411423,1.289595 -2.092408,0.960498 -4.263839,1.711833 -6.331373,2.725933 -2.63975,1.252099 -5.315908,2.421391 -7.984795,3.607944 -1.36861,0.852982 -2.917813,1.367394 -4.324373,2.134776 1.682214,-0.937778 -3.227396,1.789893 -1.564597,0.833177 10.358934,-5.960171 6.865644,-4.14196 4.763662,-2.619354 -1.324721,0.973217 -2.555246,2.075896 -3.61423,3.333094 -1.472972,1.805182 -2.720116,3.763123 -3.909348,5.761055 -1.33521,2.227388 -2.409881,4.601421 -3.4832,6.963115 -0.875631,2.016854 -1.835112,3.994581 -2.682366,6.023839 -0.931548,2.257928 -1.290019,4.658951 -1.641444,7.056542 -0.381003,2.519411 -0.523508,5.06402 -0.600414,7.608103 -0.0652,2.34262 -0.04591,4.686505 -0.03654,7.029708 0.01923,1.842603 0.03344,3.685327 0.0324,5.528041 0.131426,2.24864 0.266469,4.496155 0.488649,6.737885 0.261838,2.66146 0.820208,5.26903 1.531663,7.84216 0.791006,2.97241 2.004703,5.79227 3.410652,8.51863 1.859,3.43261 4.051095,6.64823 6.277456,9.84786 2.940086,4.3469 6.571284,8.12629 10.4193,11.66706 3.658617,3.4537 7.929145,6.10947 12.270263,8.60216 1.912713,1.15712 3.907918,1.94846 6.127968,2.16078 2.665565,0.12802 5.336605,0.10082 8.004631,0.10558 4.505356,-0.27012 9.002867,-0.58398 13.516417,-0.73379 1.00156,-0.0199 2.00305,-0.0434 3.00467,-0.0599 2.81264,-0.0462 3.72639,-0.005 6.57086,-0.19505 3.69919,-0.24698 7.39558,-0.65422 11.0893,-0.97321 4.56696,-0.44693 9.1528,-0.74969 13.69223,-1.44717 1.88957,-0.29033 3.10888,-0.58425 4.95237,-0.98627 1.92021,-0.39131 3.73975,-1.08431 5.4665,-2.00128 0.50769,-0.2696 1.99907,-1.13581 1.49416,-0.86105 -4.84493,2.63645 -6.08094,3.67799 -3.29797,1.55719 2.1388,-1.66829 3.45715,-3.91713 4.46616,-6.38181 1.27126,-3.2068 2.52754,-6.42125 3.63491,-9.68861 1.94286,-5.69157 3.51723,-11.50381 4.92225,-17.34899 0.91692,-4.53308 1.6902,-9.16166 1.75148,-13.801375 0.011,-0.83345 -0.0557,-1.666114 -0.0836,-2.499171 -0.26546,-3.93193 -1.23344,-7.406921 -2.88469,-10.955033 -1.09022,-2.403111 -2.7988,-4.415732 -4.36926,-6.506786 -1.79921,-2.201218 -3.51398,-4.464345 -5.21741,-6.73973 -1.40018,-1.887922 -2.80212,-3.754577 -4.5236,-5.362508 -1.22053,-1.338047 -2.64105,-2.404464 -4.2126,-3.287806 -1.15824,-0.674609 -2.39448,-1.23941 -3.67505,-1.639078 -1.0335,-0.231586 -2.08423,-0.421172 -3.0897,-0.760111 -0.57711,-0.133292 -1.10004,-0.383931 -1.62065,-0.656321 0,0 6.18505,-4.081953 6.18505,-4.081953 l 0,0 c 0.5108,0.223712 1.02894,0.408915 1.56935,0.550701 1.02962,0.271849 2.07428,0.486785 3.09381,0.793315 1.28336,0.48608 2.52804,1.076118 3.7004,1.791581 1.58839,0.943239 2.98539,2.122455 4.24873,3.471059 1.71209,1.670144 3.10516,3.586587 4.49929,5.523231 1.67044,2.298965 3.43101,4.521701 5.23466,6.717178 1.63092,2.117532 3.32487,4.204192 4.40993,6.673282 1.55723,3.611584 2.54153,7.388538 2.75235,11.334853 0.0286,0.856246 0.0976,1.712098 0.0857,2.568738 -0.0653,4.698734 -0.87771,9.383724 -1.82156,13.970244 -1.4094,5.79855 -2.93743,11.57259 -4.67074,17.28316 -0.9705,3.25516 -2.17575,6.42949 -3.35403,9.6141 -1.025,2.61802 -2.22067,4.94063 -4.43514,6.77744 -3.50186,2.8354 -1.19279,1.06861 -8.81485,5.53555 -2.15249,1.26148 -4.49563,2.12695 -6.94891,2.58314 -6.06187,1.1752 -12.21981,1.59852 -18.36465,2.12624 -3.73033,0.32696 -7.45904,0.75948 -11.19467,1.01877 -2.90145,0.20139 -3.79927,0.16311 -6.66468,0.24741 -1.01873,0.03 -2.03708,0.0717 -3.05563,0.10754 -4.597809,0.21539 -9.175998,0.66058 -13.771528,0.89011 -2.747718,0.0332 -5.503031,0.13803 -8.247122,-0.0414 -2.325906,-0.32954 -4.095966,-1.28781 -6.052085,-2.58011 -4.232874,-2.69225 -8.477436,-5.40053 -12.165758,-8.83168 -3.890375,-3.57284 -7.534553,-7.40521 -10.567193,-11.74786 -2.290652,-3.19523 -4.671265,-6.33591 -6.524717,-9.81738 -1.423351,-2.76777 -2.682099,-5.61277 -3.529252,-8.61699 -0.747589,-2.60439 -1.336847,-5.23963 -1.614214,-7.93996 -0.231555,-2.24747 -0.438331,-4.49618 -0.628384,-6.747587 -0.0037,-1.851674 0.0055,-3.703393 0.0201,-5.555002 0.0072,-2.356197 0.02007,-4.71244 0.06249,-7.068313 0.08084,-2.570805 0.214271,-5.142918 0.587782,-7.690685 0.334319,-2.432674 0.624006,-4.881085 1.514029,-7.191388 0.811687,-2.061251 1.781675,-4.046071 2.697221,-6.061609 1.071616,-2.389223 2.185756,-4.774262 3.480437,-7.049598 1.172318,-1.987251 2.311315,-3.988661 3.756525,-5.798164 0.974216,-1.328549 2.171706,-2.474724 3.479424,-3.475448 2.843324,-2.322352 6.210809,-3.895391 9.459458,-5.580668 1.423318,-0.620948 2.802747,-1.330672 4.204546,-1.998234 2.660903,-1.141579 5.300622,-2.331452 7.912828,-3.580974 2.145031,-0.99334 4.350255,-1.847754 6.510514,-2.807684 1.167999,-0.459995 2.335379,-0.989199 3.584763,-1.177289 1.25634,-0.09461 2.496082,0.109555 3.720436,0.389058 1.348327,0.318514 2.689843,0.668125 4.037312,0.98623 0,0 -6.144398,4.281453 -6.144398,4.281453 z"
       inkscape:connector-curvature="0"
       transform="translate(0,852.36218)" />
    <path
       style="fill:#000080;stroke:#000080"
       id="path3081"
       d="m 143.59158,40.066939 c -0.19719,-0.0072 -0.395,-0.03852 -0.59159,-0.02152 -0.2695,0.02331 -0.53166,0.100735 -0.79904,0.141773 -1.80597,0.277184 -3.55736,0.591816 -5.32281,1.074818 -2.69136,0.768411 -5.38824,1.567653 -7.99916,2.581487 -1.77981,0.615165 -3.41486,1.50752 -5.06538,2.39556 1.86654,-1.069157 3.72705,-2.148925 5.59963,-3.207469 0.25425,-0.143725 -0.49776,0.305726 -0.74406,0.462688 -0.62575,0.398771 -0.84253,0.569077 -1.48572,0.942534 -2.33454,1.355498 -4.66299,2.721887 -7.01524,4.046414 -0.2497,0.140601 -0.52444,0.231165 -0.78666,0.346747 -0.2303,0.123252 -0.458,0.251514 -0.69092,0.369755 -0.21106,0.107147 -0.4299,0.198519 -0.64067,0.306235 -3.56961,1.824283 7.97807,-4.820464 4.66549,-2.657701 -0.17093,0.111601 -0.33885,0.227752 -0.50828,0.341628 -0.18972,0.118707 -0.37559,0.243824 -0.56918,0.356122 -2.31548,1.343168 -4.63351,2.681992 -6.95768,4.010073 -1.79925,1.028136 0.405,-0.275257 -1.54047,0.714371 -0.2542,0.129309 -0.97528,0.591578 -0.72744,0.450445 1.87003,-1.064907 3.72964,-2.148013 5.59446,-3.222019 -6.15982,3.526247 -5.21992,4.405175 -9.84062,3.885238 -0.50917,0.02279 -0.74615,-0.0059 -1.23083,0.168528 -0.17347,0.06242 -0.65296,0.34245 -0.49257,0.251546 2.00877,-1.12929 4.01754,-2.25858 6.02631,-3.38787 -0.24861,0.174558 -0.17617,0.06731 -0.26355,0.285125 0.37756,0.833258 1.21151,1.35169 1.86894,1.947892 0.63363,0.574622 1.24923,1.168876 1.88015,1.746469 2.34987,1.962646 4.60385,4.035614 6.92214,6.03407 2.00092,1.624868 3.73012,3.537704 5.52401,5.377221 1.26381,1.288319 2.68487,2.443823 4.2024,3.423772 1.06805,0.568288 1.78762,1.467309 2.41207,2.472556 0.42203,0.855322 0.64078,1.791955 0.92745,2.697334 0,0 -6.5112,3.585653 -6.5112,3.585653 l 0,0 c -0.29375,-0.844273 -0.49509,-1.723213 -0.86082,-2.541271 -0.5562,-0.930156 -1.2009,-1.717581 -2.17199,-2.250923 -1.50055,-1.078042 -2.94186,-2.263052 -4.21369,-3.604768 -1.70356,-1.882693 -3.43089,-3.750277 -5.38725,-5.378239 -2.29344,-2.034689 -4.55514,-4.106191 -6.95119,-6.022108 -0.64924,-0.558593 -1.28896,-1.128475 -1.94832,-1.67508 -0.83694,-0.693817 -1.80321,-1.288316 -2.28576,-2.304643 -0.0635,-0.203827 -0.17764,-0.398383 -0.19042,-0.611482 -0.009,-0.146578 0.004,-0.342723 0.12846,-0.421378 3.4221,-2.170726 5.16812,-4.251219 8.65153,-4.087988 0.5363,0.04518 1.10031,0.128092 1.63853,0.05194 2.22871,-0.315345 7.19177,-4.57901 -4.69491,2.99608 2.32342,-1.34184 4.64047,-2.694781 6.97027,-4.025522 0.52811,-0.301649 1.01881,-0.498693 1.55865,-0.778471 0.24849,-0.128782 0.97653,-0.547326 0.73475,-0.40636 -0.35135,0.204845 -8.10208,4.691611 -5.09874,2.953009 3.18724,-2.004662 6.39735,-4.005171 9.80701,-5.6207 2.69958,-1.394059 0.55837,-0.303394 -4.77416,2.806151 -0.25209,0.147 0.51946,-0.267283 0.76813,-0.41999 0.24952,-0.153227 0.48049,-0.334882 0.72456,-0.496653 2.48312,-1.645855 5.25543,-2.853484 7.7084,-4.52252 1.6247,-0.878971 3.30402,-1.621965 5.04363,-2.247708 2.61198,-0.919967 5.26519,-1.730103 7.93948,-2.447959 2.32706,-0.595083 4.70362,-1.144639 7.1101,-1.255734 0,0 -6.04623,4.392843 -6.04623,4.392843 z"
       inkscape:connector-curvature="0"
       transform="translate(0,852.36218)" />
  </g>
</svg>
